G04 ================== begin FILE IDENTIFICATION RECORD ==================*
G04 Layout Name:  G:/lwj/My project/PCB/tunnel lighting/allegro/tunnel lighting2.brd*
G04 Film Name:    GND*
G04 File Format:  Gerber RS274X*
G04 File Origin:  Cadence Allegro 16.5-P002*
G04 Origin Date:  Sat Oct 27 20:26:59 2012*
G04 *
G04 Layer:  BOARD GEOMETRY/OUTLINE*
G04 Layer:  ETCH/GND*
G04 Layer:  PIN/GND*
G04 Layer:  VIA CLASS/GND*
G04 *
G04 Offset:    (0.000 0.000)*
G04 Mirror:    No*
G04 Mode:      Positive*
G04 Rotation:  0*
G04 FullContactRelief:  No*
G04 UndefLineWidth:     0.000*
G04 ================== end FILE IDENTIFICATION RECORD ====================*
%FSLAX25Y25*MOIN*%
%IR0*IPPOS*OFA0.00000B0.00000*MIA0B0*SFA1.00000B1.00000*%
%ADD14C,.15*%
%ADD13C,.110236*%
%ADD22C,.01*%
%ADD29C,.06*%
%ADD10C,.025*%
%ADD28C,.045*%
%ADD25C,.073*%
%ADD21C,.055*%
%ADD24C,.065*%
%ADD23C,.084*%
%ADD15C,.066*%
%ADD19C,.035433*%
%ADD16C,.021654*%
%ADD27C,.055118*%
%ADD17C,.041339*%
%ADD20C,.025591*%
%ADD26C,.031496*%
%ADD18C,.059055*%
%ADD12C,.086614*%
%ADD11C,.07874*%
%ADD30C,.1*%
%ADD31C,.02*%
%ADD43C,.100004*%
%ADD56C,.12024*%
%ADD51C,.105004*%
%ADD57C,.15024*%
%ADD55C,.190004*%
%ADD53C,.168004*%
%ADD41C,.118744*%
%ADD39R,.200004X.200004*%
%ADD44C,.070004*%
%ADD37C,.065004*%
%ADD54C,.075004*%
%ADD48C,.065122*%
%ADD58C,.076004*%
%ADD52C,.094004*%
%ADD45C,.085004*%
%ADD33C,.051344*%
%ADD36C,.095004*%
%ADD49C,.095122*%
%ADD47C,.081344*%
%ADD38C,.06906*%
%ADD34C,.031658*%
%ADD42C,.045438*%
%ADD32C,.061658*%
%ADD35C,.075438*%
%ADD46C,.035596*%
%ADD50C,.065596*%
%ADD40C,.088744*%
G75*
%LPD*%
G75*
G36*
G01X35000Y50000D02*
X183517D01*
G03X183659Y50341I0J200D01*
G01X182000Y52000D01*
Y228000D01*
X314000D01*
Y388000D01*
X1010000D01*
Y-65000D01*
G02X1000000Y-75000I-10000J0D01*
G01X45000D01*
G02X35000Y-65000I0J10000D01*
G01Y50000D01*
G37*
%LPC*%
G75*
G36*
G01X513762Y114148D02*
G03X513882Y113907I192J-55D01*
G02X509804Y111883I-1115J-2874D01*
G03X509685Y112125I-192J55D01*
G02X513762Y114148I1115J2874D01*
G37*
G36*
G01X825498Y3424D02*
G03X825073Y3056I-26J-399D01*
G02X822202Y6376I-3073J244D01*
G03X822627Y6744I26J399D01*
G02X825520Y9578I3073J-244D01*
G02X827360Y12522I3080J122D01*
G03X827578Y13016I-161J366D01*
G02X829843Y17012I2922J984D01*
G03X830143Y17511I-85J391D01*
G02X833832Y15164I3157J889D01*
G03X833507Y14681I65J-395D01*
G02X831740Y11178I-3007J-681D01*
G03X831522Y10684I161J-366D01*
G02X828780Y6622I-2922J-984D01*
G02X825498Y3424I-3080J-122D01*
G37*
G36*
G01X989769Y31626D02*
G02X986231I-1769J-4626D01*
G03Y32374I-143J374D01*
G02X983374Y35231I1769J4626D01*
G03X982626I-374J-143D01*
G02X976231Y41626I-4626J1769D01*
G03Y42374I-143J374D01*
G02X982626Y48769I1769J4626D01*
G03X983374I374J143D01*
G02X989769Y42374I4626J-1769D01*
G03Y41626I143J-374D01*
G02Y32374I-1769J-4626D01*
G03Y31626I143J-374D01*
G37*
G36*
G01X542537Y245554D02*
G02X540032I-1253J-3870D01*
G03Y246315I-123J380D01*
G02X539474Y253826I1253J3869D01*
G03Y254543I-178J358D01*
G02Y261826I1811J3642D01*
G03Y262543I-178J358D01*
G02X543095I1811J3642D01*
G03Y261826I178J-358D01*
G02Y254543I-1811J-3642D01*
G03Y253826I178J-358D01*
G02X542537Y246315I-1811J-3642D01*
G03Y245554I123J-381D01*
G37*
G36*
G01X578932Y228983D02*
G02X573297Y228917I-2832J1217D01*
G02X570544Y230617I3J3083D01*
G02X567942Y231979I-44J3083D01*
G02X569258Y236521I-1243J2821D01*
G02X573256Y235083I1243J-2821D01*
G02X576103Y233283I44J-3083D01*
G02X578932Y231417I-3J-3083D01*
G03X579668I368J158D01*
G02Y228983I2832J-1217D01*
G03X578932I-368J-158D01*
G37*
G36*
G01X730634Y226208D02*
G02X728506Y226389I-1234J-1908D01*
G03X728566Y227092I-157J368D01*
G02X730694Y226911I1234J1908D01*
G03X730634Y226208I157J-368D01*
G37*
G36*
G01X792960Y199191D02*
G02X791937Y200376I-1721J-452D01*
G03X792481Y200845I157J368D01*
G02X793504Y199661I1721J452D01*
G03X792960Y199191I-157J-368D01*
G37*
G36*
G01X406271Y201029D02*
G02X405419Y198807I2229J-2129D01*
G03X404729Y199071I-400J-12D01*
G02X405582Y201293I-2229J2129D01*
G03X406271Y201029I400J12D01*
G37*
G36*
G01X841838Y162773D02*
G02X840668Y160197I1909J-2421D01*
G03X840021Y160491I-399J-20D01*
G02X841191Y163067I-1909J2421D01*
G03X841838Y162773I399J20D01*
G37*
G36*
G01X563711Y125948D02*
G02X562953Y123439I1734J-1893D01*
G03X562270Y123614I-388J-96D01*
G02X563045Y126180I-2270J2086D01*
G03X563711Y125948I395J62D01*
G37*
G36*
G01X465772Y111552D02*
G02X464192Y111633I-872J-1552D01*
G03X464228Y112348I-159J367D01*
G02X465808Y112267I872J1552D01*
G03X465772Y111552I159J-367D01*
G37*
G36*
G01X835364Y91114D02*
G02X835297Y88685I3536J-1314D01*
G03X834550Y88731I-382J-118D01*
G02X834616Y91110I-2810J1269D01*
G03X835364Y91114I373J144D01*
G37*
G36*
G01X759112Y59887D02*
G02X753389Y64642I-3912J1113D01*
G03Y65358I-178J358D01*
G02X759112Y70113I1811J3642D01*
G03X759861Y70058I385J110D01*
G02Y67942I2339J-1058D01*
G03X759112Y67887I-364J-165D01*
G02X757011Y65358I-3912J1113D01*
G03Y64642I178J-358D01*
G02X759112Y62113I-1811J-3642D01*
G03X759861Y62058I385J110D01*
G02Y59942I2339J-1058D01*
G03X759112Y59887I-364J-165D01*
G37*
G36*
G01X717011Y64642D02*
G02X711288Y59887I-1811J-3642D01*
G03X710539Y59942I-385J-110D01*
G02Y62058I-2339J1058D01*
G03X711288Y62113I364J165D01*
G02X713389Y64642I3912J-1113D01*
G03Y65358I-178J358D01*
G02X711288Y67887I1811J3642D01*
G03X710539Y67942I-385J-110D01*
G02Y70058I-2339J1058D01*
G03X711288Y70113I364J165D01*
G02X717011Y65358I3912J-1113D01*
G03Y64642I178J-358D01*
G37*
G36*
G01X694112Y59887D02*
G02X688389Y64642I-3912J1113D01*
G03Y65358I-178J358D01*
G02X694112Y70113I1811J3642D01*
G03X694861Y70058I385J110D01*
G02Y67942I2339J-1058D01*
G03X694112Y67887I-364J-165D01*
G02X692011Y65358I-3912J1113D01*
G03Y64642I178J-358D01*
G02X694112Y62113I-1811J-3642D01*
G03X694861Y62058I385J110D01*
G02Y59942I2339J-1058D01*
G03X694112Y59887I-364J-165D01*
G37*
G36*
G01X587011Y64642D02*
G02X581288Y59887I-1811J-3642D01*
G03X580539Y59942I-385J-110D01*
G02Y62058I-2339J1058D01*
G03X581288Y62113I364J165D01*
G02X583389Y64642I3912J-1113D01*
G03Y65358I-178J358D01*
G02X581288Y67887I1811J3642D01*
G03X580539Y67942I-385J-110D01*
G02Y70058I-2339J1058D01*
G03X581288Y70113I364J165D01*
G02X587011Y65358I3912J-1113D01*
G03Y64642I178J-358D01*
G37*
G36*
G01X521484Y64859D02*
G02X518006Y64424I-1284J-3859D01*
G03X517916Y65141I-216J337D01*
G02X515288Y67887I1284J3859D01*
G03X514539Y67942I-385J-110D01*
G02Y70058I-2339J1058D01*
G03X515288Y70113I364J165D01*
G02X521394Y65576I3912J-1113D01*
G03X521484Y64859I216J-337D01*
G37*
G36*
G01X297621Y-31697D02*
G02X292296Y-24709I-5021J1697D01*
G03X292643Y-24159I-23J399D01*
G02X296700Y-25840I2857J1159D01*
G03X296557Y-26474I156J-368D01*
G02X297621Y-28303I-3957J-3526D01*
G03X298379I379J128D01*
G02X308421I5021J-1697D01*
G03X309179I379J128D01*
G02X319221I5021J-1697D01*
G03X319979I379J128D01*
G02Y-31697I5021J-1697D01*
G03X319221I-379J-128D01*
G02X309179I-5021J1697D01*
G03X308421I-379J-128D01*
G02X298379I-5021J1697D01*
G03X297621I-379J-128D01*
G37*
G36*
G01X142621D02*
G02Y-28303I-5021J1697D01*
G03X143379I379J128D01*
G02X153421I5021J-1697D01*
G03X154179I379J128D01*
G02X164221I5021J-1697D01*
G03X164979I379J128D01*
G02Y-31697I5021J-1697D01*
G03X164221I-379J-128D01*
G02X154179I-5021J1697D01*
G03X153421I-379J-128D01*
G02X143379I-5021J1697D01*
G03X142621I-379J-128D01*
G37*
G36*
G01X292221Y-42897D02*
G02Y-39503I-5021J1697D01*
G03X292979I379J128D01*
G02X303021I5021J-1697D01*
G03X303779I379J128D01*
G02X313821I5021J-1697D01*
G03X314579I379J128D01*
G02Y-42897I5021J-1697D01*
G03X313821I-379J-128D01*
G02X303779I-5021J1697D01*
G03X303021I-379J-128D01*
G02X292979I-5021J1697D01*
G03X292221I-379J-128D01*
G37*
G36*
G01X137221D02*
G02Y-39503I-5021J1697D01*
G03X137979I379J128D01*
G02X148021I5021J-1697D01*
G03X148779I379J128D01*
G02X158821I5021J-1697D01*
G03X159579I379J128D01*
G02Y-42897I5021J-1697D01*
G03X158821I-379J-128D01*
G02X148779I-5021J1697D01*
G03X148021I-379J-128D01*
G02X137979I-5021J1697D01*
G03X137221I-379J-128D01*
G37*
G36*
G01X425354Y-7445D02*
G03X424646I-354J-186D01*
G02Y-2555I-4646J2445D01*
G03X425354I354J186D01*
G02Y-7445I4646J-2445D01*
G37*
G36*
G01X450354Y2555D02*
G03X449646I-354J-186D01*
G02Y7445I-4646J2445D01*
G03X450354I354J186D01*
G02Y2555I4646J-2445D01*
G37*
G36*
G01X317273Y7022D02*
G02X317827Y2478I2327J-2022D01*
G02X317273Y7022I-2327J2022D01*
G37*
G36*
G01X571419Y13180D02*
G02X574581I1581J80D01*
G02X571419I-1581J-80D01*
G37*
G36*
G01X549558Y22208D02*
G02X550442Y15892I2942J-2808D01*
G02X549558Y22208I-2942J2808D01*
G37*
G36*
G01X679558D02*
G02X680442Y15892I2942J-2808D01*
G02X679558Y22208I-2942J2808D01*
G37*
G36*
G01X744558D02*
G02X745442Y15892I2942J-2808D01*
G02X744558Y22208I-2942J2808D01*
G37*
G36*
G01X614321Y22537D02*
G02X615679Y16363I3179J-2537D01*
G02X614321Y22537I-3179J2537D01*
G37*
G36*
G01X421331Y20819D02*
G03X420669I-331J-225D01*
G02Y27181I-4669J3181D01*
G03X421331I331J225D01*
G02Y20819I4669J-3181D01*
G37*
G36*
G01X454331D02*
G03X453669I-331J-225D01*
G02Y27181I-4669J3181D01*
G03X454331I331J225D01*
G02Y20819I4669J-3181D01*
G37*
G36*
G01X298330Y22510D02*
G03X297756Y22499I-282J-284D01*
G02X297670Y26790I-2256J2101D01*
G03X298244Y26801I282J284D01*
G02X298330Y22510I2256J-2101D01*
G37*
G36*
G01X516956Y32379D02*
G03X517172Y31852I368J-157D01*
G02X514162Y31475I-1172J-2852D01*
G03X514242Y32039I-238J321D01*
G02X516956Y32379I1258J961D01*
G37*
G36*
G01X579905Y31862D02*
G02X582656Y32612I1195J1038D01*
G02X579905Y31862I-657J-3012D01*
G37*
G36*
G01X413394Y46122D02*
G03X412877Y45893I-144J-373D01*
G02X411106Y49878I-2877J1107D01*
G03X411623Y50107I144J373D01*
G02X414982Y52045I2877J-1107D01*
G03X415442Y52390I63J395D01*
G02X419482Y54922I3058J-389D01*
G03X419999Y55393I128J379D01*
G02X424942Y58494I3001J707D01*
G03X425529Y58586I252J311D01*
G02X426168Y54506I2581J-1686D01*
G03X425581Y54414I-252J-311D01*
G02X422018Y53178I-2581J1686D01*
G03X421501Y52707I-128J-379D01*
G02X418018Y48955I-3001J-707D01*
G03X417558Y48610I-63J-395D01*
G02X413394Y46122I-3058J389D01*
G37*
G36*
G01X452473Y48118D02*
G03X452278Y47929I5J-200D01*
G02X449127Y51182I-3078J171D01*
G03X449322Y51371I-5J200D01*
G02X452473Y48118I3078J-171D01*
G37*
G36*
G01X343514Y51230D02*
G03X342968Y50898I-148J-372D01*
G02X341042Y54064I-3068J302D01*
G03X341588Y54396I148J372D01*
G02X343514Y51230I3068J-302D01*
G37*
G36*
G01X562011Y65358D02*
G03Y64642I178J-358D01*
G02X558389I-1811J-3642D01*
G03Y65358I-178J358D01*
G02X562011I1811J3642D01*
G37*
G36*
G01X626011D02*
G03Y64642I178J-358D01*
G02X622389I-1811J-3642D01*
G03Y65358I-178J358D01*
G02X626011I1811J3642D01*
G37*
G36*
G01X652011D02*
G03Y64642I178J-358D01*
G02X648389I-1811J-3642D01*
G03Y65358I-178J358D01*
G02X652011I1811J3642D01*
G37*
G36*
G01X373446Y66787D02*
G03Y66213I278J-287D01*
G02X369154I-2147J-2213D01*
G03Y66787I-278J287D01*
G02X373446I2147J2213D01*
G37*
G36*
G01X457233Y81216D02*
G03X456946Y80709I95J-389D01*
G02X453267Y82794I-2946J-909D01*
G03X453554Y83301I-95J389D01*
G02X457233Y81216I2946J909D01*
G37*
G36*
G01X485497Y87252D02*
G03X485474Y86551I181J-357D01*
G02X482503Y86648I-1574J-2651D01*
G03X482526Y87349I-181J357D01*
G02X485497Y87252I1574J2651D01*
G37*
G36*
G01X552132Y87910D02*
G02X556356Y85977I2956J877D01*
G02X552132Y87910I-2956J-877D01*
G37*
G36*
G01X533556Y92815D02*
G02X537144Y88885I2944J-915D01*
G02X533556Y92815I-2944J915D01*
G37*
G36*
G01X375771Y98235D02*
G03X375387Y97660I-24J-399D01*
G02X372229Y99765I-3387J-1660D01*
G03X372613Y100340I24J399D01*
G02X376229Y105765I3387J1660D01*
G03X376613Y106340I24J399D01*
G02X383387I3387J1660D01*
G03X383771Y105765I359J-176D01*
G02X384229I229J-3765D01*
G03X384613Y106340I24J399D01*
G02X387771Y104235I3387J1660D01*
G03X387387Y103660I-24J-399D01*
G02X380613I-3387J-1660D01*
G03X380229Y104235I-359J176D01*
G02X379771I-229J3765D01*
G03X379387Y103660I-24J-399D01*
G02X375771Y98235I-3387J-1660D01*
G37*
G36*
G01X471119Y97719D02*
G03X470774Y97145I15J-400D01*
G02X467881Y98881I-2774J-1345D01*
G03X468226Y99455I-15J400D01*
G02X471119Y97719I2774J1345D01*
G37*
G36*
G01X311811Y118358D02*
G03Y117642I178J-358D01*
G02X308189I-1811J-3642D01*
G03Y118358I-178J358D01*
G02X311811I1811J3642D01*
G37*
G36*
G01X574756Y120413D02*
G03Y119697I178J-358D01*
G02X571134I-1811J-3642D01*
G03Y120413I-178J358D01*
G02X574756I1811J3642D01*
G37*
G36*
G01X287811Y126358D02*
G03Y125642I178J-358D01*
G02X284189I-1811J-3642D01*
G03Y126358I-178J358D01*
G02X287811I1811J3642D01*
G37*
G36*
G01X294358Y138189D02*
G03X293642I-358J-178D01*
G02Y141811I-3642J1811D01*
G03X294358I358J178D01*
G02X301642I3642J-1811D01*
G03X302358I358J178D01*
G02Y138189I3642J-1811D01*
G03X301642I-358J-178D01*
G02X294358I-3642J1811D01*
G37*
G36*
G01X662565Y146246D02*
G03X662521Y145530I154J-369D01*
G02X658935Y145754I-2021J-3530D01*
G03X658979Y146470I-154J369D01*
G02X662565Y146246I2021J3530D01*
G37*
G36*
G01X520671Y148266D02*
G03X520872Y148083I199J17D01*
G02X517829Y144734I28J-3083D01*
G03X517627Y144917I-199J-17D01*
G02X520671Y148266I-28J3083D01*
G37*
G36*
G01X290358Y146189D02*
G03X289642I-358J-178D01*
G02Y149811I-3642J1811D01*
G03X290358I358J178D01*
G02X297642I3642J-1811D01*
G03X298358I358J178D01*
G02X305642I3642J-1811D01*
G03X306358I358J178D01*
G02Y146189I3642J-1811D01*
G03X305642I-358J-178D01*
G02X298358I-3642J1811D01*
G03X297642I-358J-178D01*
G02X290358I-3642J1811D01*
G37*
G36*
G01X498131Y148542D02*
G03X497888Y148420I-56J-192D01*
G02X495869Y152458I-2888J1080D01*
G03X496112Y152580I56J192D01*
G02X499113Y154581I2888J-1080D01*
G02X501581Y156554I2887J-1081D01*
G02X504919Y152508I2919J-992D01*
G02X501887Y150419I-2919J992D01*
G02X498131Y148542I-2887J1081D01*
G37*
G36*
G01X457483Y155234D02*
G03X457046Y154774I-41J-398D01*
G02X454317Y157366I-3046J-474D01*
G03X454754Y157826I41J398D01*
G02X457483Y155234I3046J474D01*
G37*
G36*
G01X589318Y154453D02*
G02X592582Y157578I182J3077D01*
G02X589318Y154453I-182J-3077D01*
G37*
G36*
G01X667055Y166302D02*
G03X667043Y165716I267J-298D01*
G02X662845Y165798I-2143J-2216D01*
G03X662857Y166384I-267J298D01*
G02X667055Y166302I2143J2216D01*
G37*
G36*
G01X647344Y166155D02*
G03X647077Y165641I112J-384D01*
G02X643302Y167599I-2915J-1002D01*
G03X643569Y168114I-112J384D01*
G02X647344Y166155I2915J1002D01*
G37*
G36*
G01X592303Y169744D02*
G03X591587I-358J-178D01*
G02Y173366I-3642J1811D01*
G03X592303I358J178D01*
G02Y169744I3642J-1811D01*
G37*
G36*
G01X480244Y172330D02*
G03X479995Y171820I129J-379D01*
G02X477298Y172330I-1495J-520D01*
G03X477253Y172896I-304J260D01*
G02X480244Y172330I1994J2351D01*
G37*
G36*
G01X742290Y171666D02*
G03X741633Y171668I-330J-226D01*
G02X741759Y176140I-3333J2332D01*
G03X742415Y176106I340J211D01*
G02X742290Y171666I2985J-2306D01*
G37*
G36*
G01X511215Y178560D02*
G03X510905Y178032I67J-394D01*
G02X507485Y180040I-2905J-1032D01*
G03X507795Y180568I-67J394D01*
G02X510778Y184682I2905J1032D01*
G02X514036Y186765I2922J-982D01*
G02X516677Y188480I2764J-1365D01*
G02X519723Y184420I2923J-981D01*
G02X516464Y182335I-2923J980D01*
G02X513622Y180618I-2764J1365D01*
G02X511215Y178560I-2922J982D01*
G37*
G36*
G01X656851Y181051D02*
G02X661659Y183374I1734J2549D01*
G02X656851Y181051I-1734J-2549D01*
G37*
G36*
G01X660334Y188208D02*
G02X664569Y191356I1166J2854D01*
G02X660334Y188208I-1166J-2854D01*
G37*
G36*
G01X546103Y196415D02*
G02X545773Y192964I-2703J-1483D01*
G02X541027I-2373J-1968D01*
G02X540697Y196415I2373J1968D01*
G02X546103I2703J1483D01*
G37*
G36*
G01X781385Y195606D02*
G03X782041Y195640I316J245D01*
G02X782167Y191168I3459J-2140D01*
G03X781510Y191166I-328J-229D01*
G02X781385Y195606I-3110J2134D01*
G37*
G36*
G01X592303Y191744D02*
G03X591587I-358J-178D01*
G02Y195366I-3642J1811D01*
G03X592303I358J178D01*
G02Y191744I3642J-1811D01*
G37*
G36*
G01X605152Y207650D02*
G02X601688Y210045I-452J3050D01*
G02X599092Y212424I413J3055D01*
G02X602308Y216176I208J3076D01*
G02X605112Y213755I-208J-3076D01*
G02X607722Y211308I-412J-3055D01*
G03X607948Y211150I196J40D01*
G02X611428Y208680I452J-3050D01*
G02X614272Y204780I-128J-3080D01*
G03X614628Y204274I386J-106D01*
G02X617250Y200024I-228J-3074D01*
G03X617652Y199473I370J-153D01*
G02X615050Y197576I248J-3073D01*
G03X614648Y198127I-370J153D01*
G02X611428Y202020I-248J3073D01*
G03X611072Y202526I-386J106D01*
G02X608272Y205020I228J3074D01*
G02X605378Y207492I128J3080D01*
G03X605152Y207650I-196J-40D01*
G37*
G36*
G01X664561Y208984D02*
G02X668239Y212516I639J3016D01*
G02X670663Y209848I-639J-3016D01*
G02X673151Y207692I-463J-3048D01*
G02X675900Y204639I-334J-3065D01*
G02X677191Y199396I-800J-2977D01*
G03Y198808I271J-294D01*
G02X673009I-2091J-2265D01*
G03Y199396I-271J294D01*
G02X672017Y201650I2091J2265D01*
G02X669866Y203735I800J2977D01*
G02X667137Y206452I334J3065D01*
G02X664561Y208984I463J3048D01*
G37*
G36*
G01X522775Y203015D02*
G03X523235Y202648I399J28D01*
G02X520625Y199385I465J-3048D01*
G03X520165Y199752I-399J-28D01*
G02X522775Y203015I-465J3048D01*
G37*
G36*
G01X452393Y204297D02*
G03Y203703I268J-297D01*
G02X447607I-2393J-2656D01*
G03Y204297I-268J297D01*
G02X452393I2393J2656D01*
G37*
G36*
G01X495339Y201202D02*
G03X495442Y200672I342J-208D01*
G02X492918Y199343I-942J-1272D01*
G03X492540Y199728I-400J-14D01*
G02X495339Y201202I166J3078D01*
G37*
G36*
G01X544775Y204497D02*
G02X541810I-1483J2703D01*
G02Y209903I-1483J2703D01*
G02X544775I1483J-2703D01*
G02Y204497I1483J-2703D01*
G37*
G36*
G01X705058Y214549D02*
G02X707649Y211044I3049J-456D01*
G02X705058Y214549I-3049J456D01*
G37*
G36*
G01X533452Y211429D02*
G03X532970Y211141I-95J-388D01*
G02X530069Y214318I-2485J644D01*
G03X530400Y214772I-65J395D01*
G02X533452Y211429I4022J607D01*
G37*
G36*
G01X688772Y222358D02*
G03X688985Y222175I199J17D01*
G02X686128Y218842I215J-3075D01*
G03X685915Y219025I-199J-17D01*
G02X688772Y222358I-215J3075D01*
G37*
G36*
G01X361633Y221998D02*
G03X361044I-294J-271D01*
G02X354046Y228997I-3643J3356D01*
G03Y229586I-271J294D01*
G02Y236871I3356J3643D01*
G03Y237459I-271J294D01*
G02Y244745I3356J3643D01*
G03Y245334I-271J294D01*
G02Y252619I3356J3643D01*
G03Y253208I-271J294D01*
G02X361044Y260206I3356J3643D01*
G03X361633I294J271D01*
G02X368632Y253208I3643J-3356D01*
G03Y252619I271J-294D01*
G02X367442Y244522I-3356J-3643D01*
G03X367374Y243845I175J-360D01*
G02X362533Y239004I-2098J-2742D01*
G03X361856Y238936I-318J-243D01*
G02X360758Y237459I-4454J2166D01*
G03Y236871I271J-294D01*
G02X361856Y235395I-3356J-3643D01*
G03X362533Y235326I360J175D01*
G02X367374Y230486I2742J-2098D01*
G03X367442Y229808I243J-318D01*
G02X361633Y221998I-2166J-4454D01*
G37*
G36*
G01X765609Y221597D02*
G02X762643I-1483J2703D01*
G02Y227003I-1483J2703D01*
G02X765609I1483J-2703D01*
G02X768574I1483J-2703D01*
G02Y221597I1483J-2703D01*
G02X765609I-1483J2703D01*
G37*
G36*
G01X581785Y239825D02*
G03X581808Y239239I284J-282D01*
G02X577615Y239075I-2008J-2339D01*
G03X577592Y239661I-284J282D01*
G02X581785Y239825I2008J2339D01*
G37*
G36*
G01X567209Y243309D02*
G03X566922Y243872I-362J170D01*
G02X570291Y245591I578J3028D01*
G03X570578Y245028I362J-170D01*
G02X567209Y243309I-578J-3028D01*
G37*
G36*
G01X575615Y255644D02*
G03X575994Y255081I365J-163D01*
G02X573285Y253256I106J-3081D01*
G03X572906Y253819I-365J163D01*
G02X575615Y255644I-106J3081D01*
G37*
G54D43*
X907500Y111567D03*
G54D56*
X298346Y177953D03*
G54D51*
X450000Y-5000D03*
X425000Y5000D03*
G54D57*
X298346Y197638D03*
Y99213D03*
G54D55*
X352600Y-35600D03*
X254200D03*
X197600D03*
X99200D03*
G54D53*
X460000Y-30000D03*
X415000D03*
G54D41*
X944842Y-54252D03*
X894842D03*
X839842D03*
X789842D03*
X745158Y-55748D03*
X725472D03*
X680158D03*
X660472D03*
X615158D03*
X595472D03*
X550158D03*
X530472D03*
X52548Y30057D03*
Y10372D03*
G54D39*
X990000Y-55000D03*
X500000D03*
X55000D03*
G54D44*
X907500Y32433D03*
G54D37*
X988780Y281140D03*
Y251140D03*
X988880Y221240D03*
X988780Y191140D03*
Y161140D03*
Y131140D03*
Y101140D03*
Y71140D03*
X961220Y281140D03*
Y251140D03*
X961320Y221240D03*
X961220Y191140D03*
Y161140D03*
Y131140D03*
Y101140D03*
Y71140D03*
X473780Y251140D03*
X446220D03*
X428780D03*
X401220D03*
G54D54*
X440000Y-5000D03*
X435000Y5000D03*
G54D48*
X612300Y143200D03*
G54D58*
X281800Y-30000D03*
X126800D03*
G54D52*
X468500Y-18000D03*
X406500D03*
G54D45*
X833000Y213300D03*
Y194300D03*
G54D33*
X362000Y160000D03*
X372000D03*
X382000D03*
X392000D03*
X382000Y170000D03*
X362000D03*
X1001100Y-30100D03*
X963600Y-15400D03*
X969800Y-29900D03*
X920945Y335055D03*
X861445D03*
X850200Y32000D03*
Y40000D03*
X801445Y335055D03*
X741445D03*
X744700Y103000D03*
X730300Y182000D03*
X730200Y190500D03*
Y165900D03*
X681445Y335055D03*
X645445Y314055D03*
X643900Y190900D03*
Y183400D03*
X653000Y150000D03*
Y142000D03*
X642200Y69000D03*
Y61000D03*
X622100Y190900D03*
Y183200D03*
X632200Y69000D03*
Y61000D03*
X596055Y314055D03*
X601884Y254884D03*
X595945Y186055D03*
Y164055D03*
X587945Y186055D03*
Y164055D03*
X565445Y116055D03*
X567700Y69000D03*
Y61000D03*
X544945Y314055D03*
X529945Y123555D03*
Y116055D03*
X512200Y61000D03*
X495445Y314055D03*
X443945D03*
X435000Y70000D03*
X430800Y74200D03*
X439100Y74300D03*
X430900Y65800D03*
X339000Y88000D03*
X372000Y170000D03*
X392000D03*
Y150000D03*
X382000D03*
X372000D03*
X362000D03*
G54D36*
X988780Y298860D03*
Y268860D03*
X988880Y238960D03*
X988780Y208860D03*
Y178860D03*
Y148860D03*
Y118860D03*
Y88860D03*
X961220Y298860D03*
Y268860D03*
X961320Y238960D03*
X961220Y208860D03*
Y178860D03*
Y148860D03*
Y118860D03*
Y88860D03*
X473780Y268860D03*
X446220D03*
X428780D03*
X401220D03*
G54D49*
X612300Y133200D03*
Y123200D03*
Y113200D03*
G54D47*
X780300Y133000D03*
X750400Y-11600D03*
X739400Y-11500D03*
X733900Y-32200D03*
X678000Y175000D03*
X685400Y-11600D03*
X656000Y132000D03*
X674400Y-11500D03*
X668900Y-32200D03*
X654284Y262084D03*
X654184Y221784D03*
X651500Y191500D03*
X629500D03*
X620000Y-11000D03*
X613100Y358000D03*
X609784Y265184D03*
X601984Y247284D03*
X609784Y236684D03*
X610000Y-11000D03*
X603000Y-31716D03*
X563600Y358000D03*
X555400Y-11600D03*
X529500Y106500D03*
X544400Y-11500D03*
X538900Y-32200D03*
X513600Y358000D03*
X463900D03*
X411600Y358200D03*
X331000Y88000D03*
G54D38*
X978000Y27000D03*
G54D34*
X1001000Y33900D03*
X787640Y132900D03*
X712300Y33200D03*
X703100Y12200D03*
X646900Y33000D03*
X638000Y13100D03*
X553000Y210000D03*
X553500Y202000D03*
X507000Y13200D03*
X487500Y-300D03*
X441400Y214900D03*
X423200Y205800D03*
X423000Y198000D03*
X415000Y176300D03*
Y167800D03*
Y159800D03*
Y151800D03*
X400000Y224900D03*
X362000Y15000D03*
Y7000D03*
Y-2000D03*
Y-10000D03*
X353000Y-60000D03*
X327000Y-13000D03*
X288000Y29000D03*
Y37000D03*
Y45000D03*
X266000Y7000D03*
X222700Y17000D03*
X222600Y9200D03*
X198000Y-60000D03*
X184000Y9000D03*
Y1000D03*
X136000Y29000D03*
Y37000D03*
Y45000D03*
G54D42*
X917845Y188855D03*
Y181355D03*
Y173355D03*
Y165355D03*
Y157355D03*
Y149355D03*
Y141355D03*
Y133355D03*
X876445Y219755D03*
Y211955D03*
X856645Y211855D03*
X856745Y194755D03*
X854500Y97200D03*
X770300Y255200D03*
X770100Y247400D03*
X755200Y181900D03*
X747100Y165900D03*
X718300Y264000D03*
Y272000D03*
Y256000D03*
X658000Y216000D03*
X491750Y41150D03*
X484154Y236154D03*
X474450Y74950D03*
X474550Y51050D03*
X474750Y67050D03*
X474650Y42950D03*
X465740Y-49000D03*
X435000Y-34000D03*
X413450Y92050D03*
X403450Y87050D03*
X413950Y77550D03*
X413100Y35900D03*
X409260Y-49000D03*
G54D32*
X508000Y104000D03*
X1001100Y26200D03*
X983200Y15800D03*
X980900Y5800D03*
X971600Y7900D03*
X857740Y40000D03*
Y32000D03*
X830740Y55000D03*
X811621Y193620D03*
X801300Y3000D03*
X782852Y142348D03*
X787740Y124000D03*
Y116000D03*
Y108000D03*
X724740Y130000D03*
Y122000D03*
Y114000D03*
X737740Y103000D03*
X710900Y91800D03*
X715700Y96400D03*
X702300Y94200D03*
X710300Y41400D03*
X717100Y29100D03*
X702800Y37000D03*
X702900Y19900D03*
X695600Y224329D03*
X681400Y216300D03*
X682000Y185943D03*
X678500Y159100D03*
X692740Y168000D03*
Y160000D03*
Y152000D03*
X680000Y83200D03*
X670000Y83300D03*
X660000Y83100D03*
X649000Y39800D03*
X650000Y28900D03*
X637900Y37900D03*
X638000Y21000D03*
X582500Y257000D03*
X581000Y143600D03*
Y96300D03*
X582500Y39300D03*
X573000Y38200D03*
X573040Y20740D03*
X561000Y210000D03*
X560500Y202000D03*
X560100Y107100D03*
X565526Y82026D03*
X530200Y81400D03*
X515940Y236260D03*
X517000Y40000D03*
X497800Y228100D03*
X499000Y120000D03*
X494000Y61000D03*
X507000Y38200D03*
Y21200D03*
X479751Y212649D03*
X467300Y51100D03*
X467260Y59000D03*
X477800Y31800D03*
X462000Y192800D03*
X464900Y127800D03*
X462500Y90100D03*
X452800Y59900D03*
X446240Y41500D03*
X449000Y-41300D03*
X440100Y90100D03*
X431200Y104000D03*
X435990Y84210D03*
X425000Y-41400D03*
X422900Y103400D03*
X402700Y59800D03*
X391500Y262000D03*
X396260Y39740D03*
X388000Y44500D03*
X358700Y59800D03*
X351900Y56600D03*
X280000Y29000D03*
Y37000D03*
X199000Y69000D03*
Y61000D03*
X142500Y27100D03*
X128000Y29000D03*
Y37000D03*
Y45000D03*
X388500Y204000D03*
X396000Y203800D03*
G54D35*
X978945Y290055D03*
Y260055D03*
Y230055D03*
Y200055D03*
Y170055D03*
Y140055D03*
Y110055D03*
Y80055D03*
X963945Y334055D03*
X902000D03*
X849500Y61300D03*
X841945Y334055D03*
X783945D03*
X754700Y165900D03*
X723945Y334055D03*
X733800Y255500D03*
X469900Y235300D03*
X468900Y225300D03*
X463354Y268354D03*
X418354D03*
X413500Y84000D03*
X396000Y114000D03*
X390000Y130000D03*
X396000Y124000D03*
X381354Y225354D03*
X382000Y130000D03*
X366000Y90000D03*
G54D46*
X784602Y209298D03*
X795002Y188502D03*
X785802Y177798D03*
X776402Y209098D03*
X757594Y146400D03*
X472000Y144300D03*
X463800Y144200D03*
X447800Y98300D03*
X407000Y135260D03*
X418000D03*
X402000D03*
G54D50*
X487000Y7260D03*
X488000Y23260D03*
X472000Y151800D03*
X475000Y59260D03*
X485000Y32260D03*
X463900Y151700D03*
X439600Y98300D03*
X403000Y52260D03*
G54D40*
X964528Y-54252D03*
X914528D03*
X859528D03*
X809528D03*
%LPD*%
G75*
G36*
G01X982626Y38769D02*
G03X979769Y41626I-4626J-1769D01*
G02Y42374I143J374D01*
G03X982626Y45231I-1769J4626D01*
G02X983374I374J-143D01*
G03X986231Y42374I4626J1769D01*
G02Y41626I-143J-374D01*
G03X983374Y38769I1769J-4626D01*
G02X982626I-374J143D01*
G37*
G54D10*
X55000Y-55000D03*
Y405000D03*
X338800Y409200D03*
X500000Y-55000D03*
X990000D03*
Y405000D03*
G54D11*
X52548Y10372D03*
Y30057D03*
X409843Y405748D03*
X429528D03*
X459843D03*
X479528D03*
X509843D03*
X530472Y-55748D03*
X529528Y405748D03*
X550158Y-55748D03*
X559843Y405748D03*
X579528D03*
X595472Y-55748D03*
X615158D03*
X609843Y405748D03*
X629528D03*
X660472Y-55748D03*
X680158D03*
X699842Y405748D03*
X719528D03*
X725472Y-55748D03*
X745158D03*
X759843Y405748D03*
X779528D03*
X789842Y-54252D03*
X809528D03*
X819842Y405748D03*
X839842Y-54252D03*
X839528Y405748D03*
X859528Y-54252D03*
X879842Y405748D03*
X894842Y-54252D03*
X899528Y405748D03*
X914528Y-54252D03*
X944842D03*
X939842Y405748D03*
X964528Y-54252D03*
X959528Y405748D03*
G54D20*
X402000Y135260D03*
X403000Y52260D03*
X418000Y135260D03*
X407000D03*
X439600Y98300D03*
X447800D03*
X464900Y110000D03*
X465100Y113900D03*
X463800Y144200D03*
X463900Y151700D03*
X485000Y32260D03*
X475000Y59260D03*
X472000Y144300D03*
Y151800D03*
X488000Y23260D03*
X487000Y7260D03*
X757594Y146400D03*
X776402Y209098D03*
X785802Y177798D03*
X795002Y188502D03*
X794202Y201298D03*
X791239Y198739D03*
X784602Y209298D03*
X833300Y18400D03*
G54D30*
G01X298346Y177953D02*
X304558D01*
G01X298346D02*
X292134D01*
G01D02*
X286047D01*
G01D02*
X284000Y180000D01*
G01X304558Y177953D02*
X307953D01*
G01D02*
X312000Y182000D01*
G54D12*
X50000Y210000D03*
Y230000D03*
Y250000D03*
G54D21*
X401220Y251140D03*
Y268860D03*
X428780Y251140D03*
Y268860D03*
X446220Y251140D03*
Y268860D03*
X473780Y251140D03*
Y268860D03*
X961220Y88860D03*
Y71140D03*
Y101140D03*
Y118860D03*
Y148860D03*
Y131140D03*
Y161140D03*
Y178860D03*
Y191140D03*
Y208860D03*
X961320Y221240D03*
X961220Y251140D03*
X961320Y238960D03*
X961220Y268860D03*
Y298860D03*
Y281140D03*
X988780Y71140D03*
Y88860D03*
Y101140D03*
Y118860D03*
Y131140D03*
Y148860D03*
Y161140D03*
Y178860D03*
Y191140D03*
Y208860D03*
X988880Y221240D03*
X988780Y251140D03*
X988880Y238960D03*
X988780Y268860D03*
Y281140D03*
Y298860D03*
G54D31*
G01X126800Y-34000D02*
Y-30000D01*
G01D02*
Y-26000D01*
G01X122800Y-30000D02*
X126800D01*
G01D02*
X130800D01*
G01X136000Y27217D02*
Y29000D01*
G01D02*
Y30783D01*
G01X134217Y29000D02*
X136000D01*
G01D02*
X137783D01*
G01X136000Y35217D02*
Y37000D01*
G01D02*
Y38783D01*
G01X134217Y37000D02*
X136000D01*
G01D02*
X137783D01*
G01X136000Y43217D02*
Y45000D01*
G01D02*
Y46783D01*
G01X134217Y45000D02*
X136000D01*
G01D02*
X137783D01*
G01X184000Y-783D02*
Y1000D01*
G01D02*
Y2783D01*
G01X182217Y1000D02*
X184000D01*
G01D02*
X185783D01*
G01X184000Y7217D02*
Y9000D01*
G01D02*
Y10783D01*
G01X182217Y9000D02*
X184000D01*
G01D02*
X185783D01*
G01X198000Y-61783D02*
Y-60000D01*
G01D02*
Y-58217D01*
G01X196217Y-60000D02*
X198000D01*
G01D02*
X199783D01*
G01X222700Y15217D02*
Y17000D01*
G01D02*
Y18783D01*
G01X220917Y17000D02*
X222700D01*
G01D02*
X224483D01*
G01X222600Y7417D02*
Y9200D01*
G01D02*
Y10983D01*
G01X220817Y9200D02*
X222600D01*
G01D02*
X224383D01*
G01X266000Y5217D02*
Y7000D01*
G01D02*
Y8783D01*
G01X264217Y7000D02*
X266000D01*
G01D02*
X267783D01*
G01X281800Y-34000D02*
Y-30000D01*
G01D02*
Y-26000D01*
G01X277800Y-30000D02*
X281800D01*
G01D02*
X285800D01*
G01X288000Y27217D02*
Y29000D01*
G01D02*
Y30783D01*
G01X286217Y29000D02*
X288000D01*
G01D02*
X289783D01*
G01X288000Y35217D02*
Y37000D01*
G01D02*
Y38783D01*
G01X286217Y37000D02*
X288000D01*
G01D02*
X289783D01*
G01X288000Y43217D02*
Y45000D01*
G01D02*
Y46783D01*
G01X286217Y45000D02*
X288000D01*
G01D02*
X289783D01*
G01X298346Y171741D02*
Y177953D01*
G01D02*
Y184165D01*
G01X327000Y-14783D02*
Y-13000D01*
G01D02*
Y-11217D01*
G01X325217Y-13000D02*
X327000D01*
G01D02*
X328783D01*
G01X336233Y88000D02*
X339000D01*
G01X353000Y-61783D02*
Y-60000D01*
G01D02*
Y-58217D01*
G01X351217Y-60000D02*
X353000D01*
G01D02*
X354783D01*
G01X339000Y85233D02*
Y88000D01*
G01D02*
Y90767D01*
G01Y88000D02*
X341767D01*
G01X359233Y170000D02*
X362000D01*
G01X359233Y160000D02*
X362000D01*
G01X359233Y150000D02*
X362000D01*
G01Y-3783D02*
Y-2000D01*
G01D02*
Y-217D01*
G01X360217Y-2000D02*
X362000D01*
G01D02*
X363783D01*
G01X362000Y-11783D02*
Y-10000D01*
G01D02*
Y-8217D01*
G01X360217Y-10000D02*
X362000D01*
G01D02*
X363783D01*
G01X362000Y13217D02*
Y15000D01*
G01D02*
Y16783D01*
G01X360217Y15000D02*
X362000D01*
G01D02*
X363783D01*
G01X362000Y5217D02*
Y7000D01*
G01D02*
Y8783D01*
G01X360217Y7000D02*
X362000D01*
G01D02*
X363783D01*
G01X372000Y147233D02*
Y150000D01*
G01X362000Y147233D02*
Y150000D01*
G01Y167233D02*
Y170000D01*
G01D02*
Y172767D01*
G01Y170000D02*
X364767D01*
G01X372000Y167233D02*
Y170000D01*
G01D02*
Y172767D01*
G01X369233Y170000D02*
X372000D01*
G01D02*
X374767D01*
G01X379233D02*
X382000D01*
G01X379233Y160000D02*
X382000D01*
G01X379233Y150000D02*
X382000D01*
G01X372000Y157233D02*
Y160000D01*
G01D02*
Y162767D01*
G01X369233Y160000D02*
X372000D01*
G01D02*
X374767D01*
G01X372000Y150000D02*
Y152767D01*
G01X369233Y150000D02*
X372000D01*
G01D02*
X374767D01*
G01X362000Y157233D02*
Y160000D01*
G01D02*
Y162767D01*
G01Y160000D02*
X364767D01*
G01X362000Y150000D02*
Y152767D01*
G01Y150000D02*
X364767D01*
G01X365276Y233228D02*
Y236881D01*
G01Y233228D02*
X368929D01*
G01X365276Y237449D02*
Y241102D01*
G01D02*
X368929D01*
G01X401600Y-18000D02*
X406500D01*
G01X400978Y87050D02*
X403450D01*
G01X400020Y135260D02*
X402000D01*
G01X392000Y147233D02*
Y150000D01*
G01X382000Y147233D02*
Y150000D01*
G01Y167233D02*
Y170000D01*
G01D02*
Y172767D01*
G01Y170000D02*
X384767D01*
G01X392000Y167233D02*
Y170000D01*
G01D02*
Y172767D01*
G01X389233Y170000D02*
X392000D01*
G01D02*
X394767D01*
G01X392000Y157233D02*
Y160000D01*
G01D02*
Y162767D01*
G01X389233Y160000D02*
X392000D01*
G01D02*
X394767D01*
G01X392000Y150000D02*
Y152767D01*
G01X389233Y150000D02*
X392000D01*
G01D02*
X394767D01*
G01X382000Y157233D02*
Y160000D01*
G01D02*
Y162767D01*
G01Y160000D02*
X384767D01*
G01X382000Y150000D02*
Y152767D01*
G01Y150000D02*
X384767D01*
G01X400000Y223117D02*
Y224900D01*
G01D02*
Y226683D01*
G01X398217Y224900D02*
X400000D01*
G01D02*
X401783D01*
G01X401220Y247690D02*
Y251140D01*
G01D02*
Y254590D01*
G01X397770Y251140D02*
X401220D01*
G01D02*
X404670D01*
G01X409260Y-51472D02*
Y-49000D01*
G01D02*
Y-46528D01*
G01X406788Y-49000D02*
X409260D01*
G01D02*
X411732D01*
G01X406500Y-22900D02*
Y-18000D01*
G01D02*
Y-13100D01*
G01Y-18000D02*
X411400D01*
G01X413100Y33428D02*
Y35900D01*
G01D02*
Y38372D01*
G01X410628Y35900D02*
X413100D01*
G01D02*
X415572D01*
G01X403450Y84578D02*
Y87050D01*
G01X413950Y75078D02*
Y77550D01*
G01D02*
Y80022D01*
G01X411478Y77550D02*
X413950D01*
G01D02*
X416422D01*
G01X413450Y89578D02*
Y92050D01*
G01D02*
Y94522D01*
G01X410978Y92050D02*
X413450D01*
G01D02*
X415922D01*
G01X403450Y87050D02*
Y89522D01*
G01Y87050D02*
X405922D01*
G01X407000Y133280D02*
Y135260D01*
G01D02*
Y137240D01*
G01X405020Y135260D02*
X407000D01*
G01D02*
X408980D01*
G01X418000Y133280D02*
Y135260D01*
G01D02*
Y137240D01*
G01X416020Y135260D02*
X418000D01*
G01D02*
X419980D01*
G01X402000Y133280D02*
Y135260D01*
G01D02*
Y137240D01*
G01Y135260D02*
X403980D01*
G01X415000Y166017D02*
Y167800D01*
G01D02*
Y169583D01*
G01X413217Y167800D02*
X415000D01*
G01D02*
X416783D01*
G01X415000Y158017D02*
Y159800D01*
G01D02*
Y161583D01*
G01X413217Y159800D02*
X415000D01*
G01D02*
X416783D01*
G01X415000Y150017D02*
Y151800D01*
G01D02*
Y153583D01*
G01X413217Y151800D02*
X415000D01*
G01D02*
X416783D01*
G01X415000Y174517D02*
Y176300D01*
G01D02*
Y178083D01*
G01X413217Y176300D02*
X415000D01*
G01D02*
X416783D01*
G01X421417Y205800D02*
X423200D01*
G01X421217Y198000D02*
X423000D01*
G01X435000Y-36472D02*
Y-34000D01*
G01D02*
Y-31528D01*
G01X432528Y-34000D02*
X435000D01*
G01D02*
X437472D01*
G01X440000Y-8950D02*
Y-5000D01*
G01D02*
Y-1050D01*
G01X436050Y-5000D02*
X440000D01*
G01D02*
X443950D01*
G01X435000Y1050D02*
Y5000D01*
G01D02*
Y8950D01*
G01X431050Y5000D02*
X435000D01*
G01D02*
X438950D01*
G01X430900Y63033D02*
Y65800D01*
G01D02*
Y68567D01*
G01X428133Y65800D02*
X430900D01*
G01D02*
X433667D01*
G01X435000Y67233D02*
Y70000D01*
G01D02*
Y72767D01*
G01X432233Y70000D02*
X435000D01*
G01D02*
X437767D01*
G01X430800Y71433D02*
Y74200D01*
G01D02*
Y76967D01*
G01X428033Y74200D02*
X430800D01*
G01D02*
X433567D01*
G01X439100Y71533D02*
Y74300D01*
G01D02*
Y77067D01*
G01X436333Y74300D02*
X439100D01*
G01D02*
X441867D01*
G01X423200Y204017D02*
Y205800D01*
G01D02*
Y207583D01*
G01Y205800D02*
X424983D01*
G01X423000Y196217D02*
Y198000D01*
G01D02*
Y199783D01*
G01Y198000D02*
X424783D01*
G01X441400Y213117D02*
Y214900D01*
G01D02*
Y216683D01*
G01X439617Y214900D02*
X441400D01*
G01D02*
X443183D01*
G01X442770Y251140D02*
X446220D01*
G01X428780Y247690D02*
Y251140D01*
G01D02*
Y254590D01*
G01X425330Y251140D02*
X428780D01*
G01D02*
X432230D01*
G01X441178Y314055D02*
X443945D01*
G01X463268Y-49000D02*
X465740D01*
G01X463600Y-18000D02*
X468500D01*
G01X447800Y96320D02*
Y98300D01*
G01D02*
Y100280D01*
G01X445820Y98300D02*
X447800D01*
G01D02*
X449780D01*
G01X463120Y113900D02*
X465100D01*
G01X462920Y110000D02*
X464900D01*
G01X463800Y142220D02*
Y144200D01*
G01D02*
Y146180D01*
G01X461820Y144200D02*
X463800D01*
G01D02*
X465780D01*
G01X446220Y247690D02*
Y251140D01*
G01D02*
Y254590D01*
G01Y251140D02*
X449670D01*
G01X443945Y311288D02*
Y314055D01*
G01D02*
Y316822D01*
G01Y314055D02*
X446712D01*
G01X465740Y-51472D02*
Y-49000D01*
G01D02*
Y-46528D01*
G01Y-49000D02*
X468212D01*
G01X468500Y-22900D02*
Y-18000D01*
G01D02*
Y-13100D01*
G01Y-18000D02*
X473400D01*
G01X474650Y40478D02*
Y42950D01*
G01D02*
Y45422D01*
G01X472178Y42950D02*
X474650D01*
G01D02*
X477122D01*
G01X474550Y48578D02*
Y51050D01*
G01D02*
Y53522D01*
G01X472078Y51050D02*
X474550D01*
G01D02*
X477022D01*
G01X474750Y64578D02*
Y67050D01*
G01X474450Y72478D02*
Y74950D01*
G01D02*
Y77422D01*
G01X471978Y74950D02*
X474450D01*
G01D02*
X476922D01*
G01X474750Y67050D02*
Y69522D01*
G01X472278Y67050D02*
X474750D01*
G01D02*
X477222D01*
G01X465100Y113900D02*
Y115880D01*
G01Y113900D02*
X467080D01*
G01X464900Y108020D02*
Y110000D01*
G01D02*
X466880D01*
G01X472000Y142320D02*
Y144300D01*
G01D02*
Y146280D01*
G01X470020Y144300D02*
X472000D01*
G01D02*
X473980D01*
G01X478500Y169517D02*
Y171300D01*
G01X476717D02*
X478500D01*
G01D02*
X480283D01*
G01X484154Y233682D02*
Y236154D01*
G01D02*
Y238626D01*
G01X481682Y236154D02*
X484154D01*
G01D02*
X486626D01*
G01X473780Y247690D02*
Y251140D01*
G01D02*
Y254590D01*
G01X470330Y251140D02*
X473780D01*
G01D02*
X477230D01*
G01X487500Y-2083D02*
Y-300D01*
G01D02*
Y1483D01*
G01X485717Y-300D02*
X487500D01*
G01D02*
X489283D01*
G01X505217Y13200D02*
X507000D01*
G01X491750Y38678D02*
Y41150D01*
G01D02*
Y43622D01*
G01X489278Y41150D02*
X491750D01*
G01D02*
X494222D01*
G01X494500Y197617D02*
Y199400D01*
G01X492717D02*
X494500D01*
G01D02*
X496283D01*
G01X495445Y311288D02*
Y314055D01*
G01D02*
Y316822D01*
G01X492678Y314055D02*
X495445D01*
G01D02*
X498212D01*
G01X507000Y11417D02*
Y13200D01*
G01D02*
Y14983D01*
G01Y13200D02*
X508783D01*
G01X515500Y33000D02*
Y34783D01*
G01X513717Y33000D02*
X515500D01*
G01D02*
X517283D01*
G01X512200Y58233D02*
Y61000D01*
G01D02*
Y63767D01*
G01X509433Y61000D02*
X512200D01*
G01D02*
X514967D01*
G01X512200Y66233D02*
Y69000D01*
G01D02*
Y71767D01*
G01X509433Y69000D02*
X512200D01*
G01X527178Y123555D02*
X529945D01*
G01X527178Y116055D02*
X529945D01*
G01Y120788D02*
Y123555D01*
G01D02*
Y126322D01*
G01Y123555D02*
X532712D01*
G01X529945Y113288D02*
Y116055D01*
G01D02*
Y118822D01*
G01Y116055D02*
X532712D01*
G01X530484Y209017D02*
Y211784D01*
G01X527717D02*
X530484D01*
G01X544945Y311288D02*
Y314055D01*
G01D02*
Y316822D01*
G01X542178Y314055D02*
X544945D01*
G01D02*
X547712D01*
G01X567700Y58233D02*
Y61000D01*
G01D02*
Y63767D01*
G01X564933Y61000D02*
X567700D01*
G01D02*
X570467D01*
G01X567700Y66233D02*
Y69000D01*
G01D02*
Y71767D01*
G01X564933Y69000D02*
X567700D01*
G01D02*
X570467D01*
G01X565445Y121288D02*
Y124055D01*
G01D02*
Y126822D01*
G01Y124055D02*
X568212D01*
G01X565445Y113288D02*
Y116055D01*
G01D02*
Y118822D01*
G01X562678Y116055D02*
X565445D01*
G01D02*
X568212D01*
G01X553000Y208217D02*
Y210000D01*
G01D02*
Y211783D01*
G01X551217Y210000D02*
X553000D01*
G01D02*
X554783D01*
G01X553500Y200217D02*
Y202000D01*
G01D02*
Y203783D01*
G01X551717Y202000D02*
X553500D01*
G01D02*
X555283D01*
G01X573000Y13260D02*
Y15043D01*
G01X571217Y13260D02*
X573000D01*
G01D02*
X574783D01*
G01X573000Y11317D02*
Y13100D01*
G01X571217D02*
X573000D01*
G01D02*
X574783D01*
G01X581100Y32900D02*
Y34683D01*
G01X579317Y32900D02*
X581100D01*
G01D02*
X582883D01*
G01X578200Y58233D02*
Y61000D01*
G01D02*
Y63767D01*
G01X575433Y61000D02*
X578200D01*
G01Y66233D02*
Y69000D01*
G01D02*
Y71767D01*
G01X575433Y69000D02*
X578200D01*
G01X587945Y161288D02*
Y164055D01*
G01D02*
Y166822D01*
G01X585178Y164055D02*
X587945D01*
G01D02*
X590712D01*
G01X587945Y183288D02*
Y186055D01*
G01D02*
Y188822D01*
G01X585178Y186055D02*
X587945D01*
G01D02*
X590712D01*
G01X608844Y143200D02*
X612300D01*
G01X595945Y161288D02*
Y164055D01*
G01D02*
Y166822D01*
G01X593178Y164055D02*
X595945D01*
G01D02*
X598712D01*
G01X595945Y183288D02*
Y186055D01*
G01D02*
Y188822D01*
G01X593178Y186055D02*
X595945D01*
G01D02*
X598712D01*
G01X601884Y252117D02*
Y254884D01*
G01D02*
Y257652D01*
G01X599117Y254884D02*
X601884D01*
G01D02*
X604652D01*
G01X596055Y311288D02*
Y314055D01*
G01D02*
Y316822D01*
G01X593288Y314055D02*
X596055D01*
G01D02*
X598822D01*
G01X632200Y58233D02*
Y61000D01*
G01D02*
Y63767D01*
G01X629433Y61000D02*
X632200D01*
G01D02*
X634967D01*
G01X632200Y66233D02*
Y69000D01*
G01D02*
Y71767D01*
G01X629433Y69000D02*
X632200D01*
G01D02*
X634967D01*
G01X612300Y139744D02*
Y143200D01*
G01D02*
Y146656D01*
G01Y143200D02*
X615756D01*
G01X622100Y188133D02*
Y190900D01*
G01D02*
Y193667D01*
G01X619333Y190900D02*
X622100D01*
G01D02*
X624867D01*
G01X622100Y180433D02*
Y183200D01*
G01D02*
Y185967D01*
G01X619333Y183200D02*
X622100D01*
G01D02*
X624867D01*
G01X638000Y11317D02*
Y13100D01*
G01D02*
Y14883D01*
G01X636217Y13100D02*
X638000D01*
G01D02*
X639783D01*
G01X646900Y31217D02*
Y33000D01*
G01D02*
Y34783D01*
G01X645117Y33000D02*
X646900D01*
G01D02*
X648683D01*
G01X642200Y58233D02*
Y61000D01*
G01D02*
Y63767D01*
G01X639433Y61000D02*
X642200D01*
G01D02*
X644967D01*
G01X642200Y66233D02*
Y69000D01*
G01D02*
Y71767D01*
G01X639433Y69000D02*
X642200D01*
G01D02*
X644967D01*
G01X653000Y147233D02*
Y150000D01*
G01Y139233D02*
Y142000D01*
G01D02*
Y144767D01*
G01X650233Y142000D02*
X653000D01*
G01D02*
X655767D01*
G01X653000Y150000D02*
Y152767D01*
G01X650233Y150000D02*
X653000D01*
G01D02*
X655767D01*
G01X643900Y188133D02*
Y190900D01*
G01D02*
Y193667D01*
G01X641133Y190900D02*
X643900D01*
G01D02*
X646667D01*
G01X643900Y180633D02*
Y183400D01*
G01D02*
Y186167D01*
G01X641133Y183400D02*
X643900D01*
G01D02*
X646667D01*
G01X645445Y311288D02*
Y314055D01*
G01D02*
Y316822D01*
G01X642678Y314055D02*
X645445D01*
G01D02*
X648212D01*
G01X658000Y213528D02*
Y216000D01*
G01D02*
Y218472D01*
G01X655528Y216000D02*
X658000D01*
G01D02*
X660472D01*
G01X681445Y332288D02*
Y335055D01*
G01D02*
Y337822D01*
G01X678678Y335055D02*
X681445D01*
G01D02*
X684212D01*
G01X703100Y10417D02*
Y12200D01*
G01D02*
Y13983D01*
G01X701317Y12200D02*
X703100D01*
G01D02*
X704883D01*
G01X712300Y31417D02*
Y33200D01*
G01D02*
Y34983D01*
G01X710517Y33200D02*
X712300D01*
G01D02*
X714083D01*
G01X697200Y58233D02*
Y61000D01*
G01D02*
Y63767D01*
G01Y61000D02*
X699967D01*
G01X708200Y58233D02*
Y61000D01*
G01D02*
Y63767D01*
G01X705433Y61000D02*
X708200D01*
G01X697200Y66233D02*
Y69000D01*
G01D02*
Y71767D01*
G01Y69000D02*
X699967D01*
G01X708200Y66233D02*
Y69000D01*
G01D02*
Y71767D01*
G01X705433Y69000D02*
X708200D01*
G01X715828Y264000D02*
X718300D01*
G01X715828Y272000D02*
X718300D01*
G01X715828Y256000D02*
X718300D01*
G01X730200Y163133D02*
Y165900D01*
G01D02*
Y168667D01*
G01X727433Y165900D02*
X730200D01*
G01D02*
X732967D01*
G01X730300Y179233D02*
Y182000D01*
G01D02*
Y184767D01*
G01X727533Y182000D02*
X730300D01*
G01D02*
X733067D01*
G01X730200Y187733D02*
Y190500D01*
G01D02*
Y193267D01*
G01X727433Y190500D02*
X730200D01*
G01D02*
X732967D01*
G01X729400Y221828D02*
Y224300D01*
G01X726928D02*
X729400D01*
G01D02*
X731872D01*
G01X729800Y229000D02*
Y231472D01*
G01X727328Y229000D02*
X729800D01*
G01D02*
X732272D01*
G01X718300Y253528D02*
Y256000D01*
G01Y261528D02*
Y264000D01*
G01D02*
Y266472D01*
G01Y264000D02*
X720772D01*
G01X718300Y269528D02*
Y272000D01*
G01D02*
Y274472D01*
G01Y272000D02*
X720772D01*
G01X718300Y256000D02*
Y258472D01*
G01Y256000D02*
X720772D01*
G01X744700Y100233D02*
Y103000D01*
G01D02*
Y105767D01*
G01X741933Y103000D02*
X744700D01*
G01D02*
X747467D01*
G01X757594Y144420D02*
Y146400D01*
G01D02*
Y148380D01*
G01X755615Y146400D02*
X757594D01*
G01D02*
X759574D01*
G01X747100Y163428D02*
Y165900D01*
G01D02*
Y168372D01*
G01X744628Y165900D02*
X747100D01*
G01D02*
X749572D01*
G01X755200Y179428D02*
Y181900D01*
G01D02*
Y184372D01*
G01X752728Y181900D02*
X755200D01*
G01D02*
X757672D01*
G01X741445Y332288D02*
Y335055D01*
G01D02*
Y337822D01*
G01X738678Y335055D02*
X741445D01*
G01D02*
X744212D01*
G01X762200Y58233D02*
Y61000D01*
G01D02*
Y63767D01*
G01Y61000D02*
X764967D01*
G01X762200Y66233D02*
Y69000D01*
G01D02*
Y71767D01*
G01Y69000D02*
X764967D01*
G01X776402Y207118D02*
Y209098D01*
G01D02*
Y211077D01*
G01X774423Y209098D02*
X776402D01*
G01D02*
X778382D01*
G01X770300Y252728D02*
Y255200D01*
G01X770100Y244928D02*
Y247400D01*
G01D02*
Y249872D01*
G01X767628Y247400D02*
X770100D01*
G01D02*
X772572D01*
G01X770300Y255200D02*
Y257672D01*
G01X767828Y255200D02*
X770300D01*
G01D02*
X772772D01*
G01X787640Y131117D02*
Y132900D01*
G01D02*
Y134683D01*
G01X785857Y132900D02*
X787640D01*
G01D02*
X789423D01*
G01X795002Y186523D02*
Y188502D01*
G01D02*
Y190482D01*
G01X793023Y188502D02*
X795002D01*
G01D02*
X796982D01*
G01X785802Y175818D02*
Y177798D01*
G01D02*
Y179777D01*
G01X783823Y177798D02*
X785802D01*
G01D02*
X787782D01*
G01X784602Y207318D02*
Y209298D01*
G01D02*
Y211277D01*
G01X782623Y209298D02*
X784602D01*
G01D02*
X786582D01*
G01X791239Y196759D02*
Y198739D01*
G01D02*
Y200718D01*
G01X789259Y198739D02*
X791239D01*
G01D02*
X793218D01*
G01X794202Y199318D02*
Y201298D01*
G01D02*
Y203277D01*
G01X792223Y201298D02*
X794202D01*
G01D02*
X796182D01*
G01X798678Y335055D02*
X801445D01*
G01X809528Y-58889D02*
Y-54252D01*
G01D02*
Y-49615D01*
G01X804890Y-54252D02*
X809528D01*
G01D02*
X814165D01*
G01X801445Y332288D02*
Y335055D01*
G01D02*
Y337822D01*
G01Y335055D02*
X804212D01*
G01X859528Y-58889D02*
Y-54252D01*
G01D02*
Y-49615D01*
G01X854890Y-54252D02*
X859528D01*
G01D02*
X864165D01*
G01X850200Y29233D02*
Y32000D01*
G01D02*
Y34767D01*
G01X847433Y32000D02*
X850200D01*
G01D02*
X852967D01*
G01X850200Y37233D02*
Y40000D01*
G01D02*
Y42767D01*
G01X847433Y40000D02*
X850200D01*
G01D02*
X852967D01*
G01X854500Y94728D02*
Y97200D01*
G01D02*
Y99672D01*
G01X852028Y97200D02*
X854500D01*
G01D02*
X856972D01*
G01X856645Y209383D02*
Y211855D01*
G01D02*
Y214327D01*
G01X854173Y211855D02*
X856645D01*
G01D02*
X859117D01*
G01X856745Y192283D02*
Y194755D01*
G01D02*
Y197227D01*
G01X854273Y194755D02*
X856745D01*
G01D02*
X859217D01*
G01X861445Y332288D02*
Y335055D01*
G01D02*
Y337822D01*
G01X858678Y335055D02*
X861445D01*
G01D02*
X864212D01*
G01X876445Y209483D02*
Y211955D01*
G01D02*
Y214427D01*
G01X873973Y211955D02*
X876445D01*
G01D02*
X878917D01*
G01X876445Y217283D02*
Y219755D01*
G01D02*
Y222227D01*
G01X873973Y219755D02*
X876445D01*
G01D02*
X878917D01*
G01X903800Y32433D02*
X907500D01*
G01X914528Y-58889D02*
Y-54252D01*
G01D02*
Y-49615D01*
G01X909890Y-54252D02*
X914528D01*
G01D02*
X919165D01*
G01X907500Y28733D02*
Y32433D01*
G01D02*
Y36133D01*
G01Y32433D02*
X911200D01*
G01X917845Y146883D02*
Y149355D01*
G01D02*
Y151827D01*
G01X915373Y149355D02*
X917845D01*
G01D02*
X920317D01*
G01X917845Y138883D02*
Y141355D01*
G01D02*
Y143827D01*
G01X915373Y141355D02*
X917845D01*
G01D02*
X920317D01*
G01X917845Y130883D02*
Y133355D01*
G01D02*
Y135827D01*
G01X915373Y133355D02*
X917845D01*
G01D02*
X920317D01*
G01X917845Y162883D02*
Y165355D01*
G01D02*
Y167827D01*
G01X915373Y165355D02*
X917845D01*
G01D02*
X920317D01*
G01X917845Y154883D02*
Y157355D01*
G01D02*
Y159827D01*
G01X915373Y157355D02*
X917845D01*
G01D02*
X920317D01*
G01X917845Y186383D02*
Y188855D01*
G01D02*
Y191327D01*
G01X915373Y188855D02*
X917845D01*
G01D02*
X920317D01*
G01X917845Y178883D02*
Y181355D01*
G01D02*
Y183827D01*
G01X915373Y181355D02*
X917845D01*
G01D02*
X920317D01*
G01X917845Y170883D02*
Y173355D01*
G01D02*
Y175827D01*
G01X915373Y173355D02*
X917845D01*
G01D02*
X920317D01*
G01X920945Y332288D02*
Y335055D01*
G01D02*
Y337822D01*
G01X918178Y335055D02*
X920945D01*
G01D02*
X923712D01*
G01X964528Y-58889D02*
Y-54252D01*
G01D02*
Y-49615D01*
G01X959890Y-54252D02*
X964528D01*
G01D02*
X969165D01*
G01X963600Y-18167D02*
Y-15400D01*
G01X967033Y-29900D02*
X969800D01*
G01X963600Y-15400D02*
Y-12633D01*
G01X960833Y-15400D02*
X963600D01*
G01D02*
X966367D01*
G01X961220Y67690D02*
Y71140D01*
G01D02*
Y74590D01*
G01X957770Y71140D02*
X961220D01*
G01D02*
X964670D01*
G01X961220Y97690D02*
Y101140D01*
G01D02*
Y104590D01*
G01X957770Y101140D02*
X961220D01*
G01D02*
X964670D01*
G01X961220Y127690D02*
Y131140D01*
G01D02*
Y134590D01*
G01X957770Y131140D02*
X961220D01*
G01D02*
X964670D01*
G01X961220Y157690D02*
Y161140D01*
G01D02*
Y164590D01*
G01X957770Y161140D02*
X961220D01*
G01D02*
X964670D01*
G01X961220Y187690D02*
Y191140D01*
G01D02*
Y194590D01*
G01X957770Y191140D02*
X961220D01*
G01D02*
X964670D01*
G01X961320Y217790D02*
Y221240D01*
G01D02*
Y224690D01*
G01X957870Y221240D02*
X961320D01*
G01D02*
X964770D01*
G01X961220Y247690D02*
Y251140D01*
G01D02*
Y254590D01*
G01X957770Y251140D02*
X961220D01*
G01D02*
X964670D01*
G01X961220Y277690D02*
Y281140D01*
G01D02*
Y284590D01*
G01X957770Y281140D02*
X961220D01*
G01D02*
X964670D01*
G01X969800Y-32667D02*
Y-29900D01*
G01D02*
Y-27133D01*
G01Y-29900D02*
X972567D01*
G01X978000Y23347D02*
Y27000D01*
G01D02*
Y30653D01*
G01X974347Y27000D02*
X978000D01*
G01D02*
X981653D01*
G01X988780Y67690D02*
Y71140D01*
G01D02*
Y74590D01*
G01X985330Y71140D02*
X988780D01*
G01D02*
X992230D01*
G01X988780Y97690D02*
Y101140D01*
G01D02*
Y104590D01*
G01X985330Y101140D02*
X988780D01*
G01D02*
X992230D01*
G01X988780Y127690D02*
Y131140D01*
G01D02*
Y134590D01*
G01X985330Y131140D02*
X988780D01*
G01D02*
X992230D01*
G01X988780Y157690D02*
Y161140D01*
G01D02*
Y164590D01*
G01X985330Y161140D02*
X988780D01*
G01D02*
X992230D01*
G01X988780Y187690D02*
Y191140D01*
G01D02*
Y194590D01*
G01X985330Y191140D02*
X988780D01*
G01D02*
X992230D01*
G01X988880Y217790D02*
Y221240D01*
G01D02*
Y224690D01*
G01X985430Y221240D02*
X988880D01*
G01D02*
X992330D01*
G01X988780Y247690D02*
Y251140D01*
G01D02*
Y254590D01*
G01X985330Y251140D02*
X988780D01*
G01D02*
X992230D01*
G01X988780Y277690D02*
Y281140D01*
G01D02*
Y284590D01*
G01X985330Y281140D02*
X988780D01*
G01D02*
X992230D01*
G01X1001100Y-32867D02*
Y-30100D01*
G01D02*
Y-27333D01*
G01X998333Y-30100D02*
X1001100D01*
G01D02*
X1003867D01*
G01X1001000Y32117D02*
Y33900D01*
G01D02*
Y35683D01*
G01X999217Y33900D02*
X1001000D01*
G01D02*
X1002783D01*
G54D22*
X415000Y-30000D03*
X460000D03*
G54D13*
X85748Y69685D03*
Y138583D03*
Y207480D03*
Y259685D03*
Y328583D03*
Y397480D03*
X298346Y99213D03*
Y197638D03*
Y177953D03*
Y289213D03*
Y367953D03*
Y387638D03*
G54D23*
X406500Y-18000D03*
X468500D03*
G54D14*
X99200Y-35600D03*
X197600D03*
X254200D03*
X352600D03*
G54D15*
X126800Y-30000D03*
X132200Y-41200D03*
X143000D03*
X137600Y-30000D03*
X148400D03*
X153800Y-41200D03*
X164600D03*
X159200Y-30000D03*
X170000D03*
X287200Y-41200D03*
X298000D03*
X281800Y-30000D03*
X292600D03*
X308800Y-41200D03*
X319600D03*
X303400Y-30000D03*
X314200D03*
X325000D03*
G54D24*
X425000Y5000D03*
X420000Y-5000D03*
X435000Y5000D03*
X445000D03*
X430000Y-5000D03*
X440000D03*
X450000D03*
X455000Y5000D03*
G54D16*
X128000Y45000D03*
Y37000D03*
Y29000D03*
X136000Y45000D03*
Y37000D03*
Y29000D03*
X142500Y27100D03*
X184000Y1000D03*
Y9000D03*
X198000Y-60000D03*
X199000Y61000D03*
Y69000D03*
X222600Y9200D03*
X222700Y17000D03*
X266000Y7000D03*
X295500Y-23000D03*
X288000Y45000D03*
Y37000D03*
Y29000D03*
X280000Y37000D03*
Y29000D03*
X295500Y24600D03*
X315500Y4500D03*
X300500Y24700D03*
X327000Y-13000D03*
X319600Y5000D03*
X353000Y-60000D03*
X351900Y56600D03*
X358700Y59800D03*
X344657Y54094D03*
X339900Y51200D03*
X362000Y-10000D03*
Y-2000D03*
Y7000D03*
Y15000D03*
X371300Y64000D03*
Y69000D03*
X388000Y44500D03*
X396260Y39740D03*
X396000Y203800D03*
X388500Y204000D03*
X400000Y224900D03*
X391500Y262000D03*
X410000Y47000D03*
X414500Y49000D03*
X418500Y52000D03*
X402700Y59800D03*
X423000Y56100D03*
X422900Y103400D03*
X415000Y151800D03*
Y159800D03*
Y167800D03*
Y176300D03*
X423000Y198000D03*
X423200Y205800D03*
X408500Y198900D03*
X402500Y201200D03*
X425000Y-41400D03*
X428110Y56900D03*
X435990Y84210D03*
X431200Y104000D03*
X440100Y90100D03*
X441400Y214900D03*
X449000Y-41300D03*
X446240Y41500D03*
X452800Y59900D03*
X452400Y51200D03*
X449200Y48100D03*
X454000Y79800D03*
X456500Y84210D03*
X462500Y90100D03*
X464900Y127800D03*
X454000Y154300D03*
X457800Y158300D03*
X462000Y192800D03*
X477800Y31800D03*
X467260Y59000D03*
X467300Y51100D03*
X483900Y83900D03*
X484100Y90000D03*
X471000Y100800D03*
X468000Y95800D03*
X478500Y171300D03*
X479247Y175247D03*
X479751Y212649D03*
X487500Y-300D03*
X507000Y13200D03*
Y21200D03*
Y38200D03*
X494000Y61000D03*
X499000Y120000D03*
X495000Y149500D03*
X502000Y153500D03*
X499000Y151500D03*
X504500Y155562D03*
X494500Y199400D03*
X492706Y202806D03*
X497800Y228100D03*
X515500Y33000D03*
X516000Y29000D03*
X517000Y40000D03*
X508000Y104000D03*
X512768Y111032D03*
X510799Y114999D03*
X517600Y148000D03*
X520900Y145000D03*
X513700Y183700D03*
X510700Y181600D03*
X516800Y185400D03*
X519600Y187500D03*
X508000Y177000D03*
X519700Y202800D03*
X523700Y199600D03*
X515940Y236260D03*
X530200Y81400D03*
X534200Y89800D03*
X536500Y91900D03*
X543400Y190995D03*
X546258Y207200D03*
X540327D03*
X543400Y197898D03*
X543292Y207200D03*
X543400Y194932D03*
X553400Y85100D03*
X565526Y82026D03*
X560100Y107100D03*
X555087Y88787D03*
X560000Y125700D03*
X553500Y202000D03*
X553000Y210000D03*
X560500Y202000D03*
X561000Y210000D03*
X566700Y234800D03*
X567500Y246900D03*
X570000Y242000D03*
X573000Y13100D03*
Y13260D03*
X573040Y20740D03*
X581100Y32900D03*
X573000Y38200D03*
X582000Y29600D03*
X582500Y39300D03*
X581000Y96300D03*
Y143600D03*
X589500Y157531D03*
X582500Y230200D03*
X573300Y232000D03*
X570500Y233700D03*
X576100Y230200D03*
Y252000D03*
X579800Y236900D03*
X579600Y242000D03*
X582500Y257000D03*
X572800Y256900D03*
X592400Y154500D03*
X602100Y213100D03*
X611300Y205600D03*
X604700Y210700D03*
X608400Y208100D03*
X599300Y215500D03*
X614400Y201200D03*
X617900Y196400D03*
X638000Y13100D03*
Y21000D03*
X646900Y33000D03*
X637900Y37900D03*
X650000Y28900D03*
X649000Y39800D03*
X646484Y169116D03*
X644161Y164639D03*
X660000Y83100D03*
X670000Y83300D03*
X665000Y168600D03*
X664900Y163500D03*
X658584Y183600D03*
X663402Y188502D03*
X659925Y180825D03*
X661500Y191061D03*
X675100Y201661D03*
X670200Y206800D03*
X672817Y204627D03*
X665200Y212000D03*
X667600Y209500D03*
X675100Y196543D03*
X680000Y83200D03*
X692740Y152000D03*
Y160000D03*
Y168000D03*
X678500Y159100D03*
X682000Y185943D03*
X681400Y216300D03*
X695600Y224329D03*
X689200Y219100D03*
X685700Y222100D03*
X703100Y12200D03*
X702900Y19900D03*
X712300Y33200D03*
X702800Y37000D03*
X717100Y29100D03*
X710300Y41400D03*
X702300Y94200D03*
X715700Y96400D03*
X710900Y91800D03*
X704600Y211500D03*
X708107Y214093D03*
X737740Y103000D03*
X724740Y114000D03*
Y122000D03*
Y130000D03*
X764126Y224300D03*
X767091D03*
X761160D03*
X770057D03*
X787740Y108000D03*
Y116000D03*
Y124000D03*
X787640Y132900D03*
X782852Y142348D03*
X822000Y3300D03*
X801300Y3000D03*
X811621Y193620D03*
X830500Y14000D03*
X825700Y6500D03*
X828600Y9700D03*
X830740Y55000D03*
X831740Y90000D03*
X838112Y162912D03*
X857740Y32000D03*
Y40000D03*
X843747Y160353D03*
X971600Y7900D03*
X980900Y5800D03*
X983200Y15800D03*
X1001000Y33900D03*
X1001100Y26200D03*
G54D25*
X426000Y24000D03*
X416000D03*
X459000D03*
X449000D03*
G54D26*
X450000Y206953D03*
Y201047D03*
G54D17*
X286000Y122000D03*
Y130000D03*
X298000Y140000D03*
X290000D03*
X294000Y148000D03*
X286000D03*
X310000Y114000D03*
Y122000D03*
X306000Y140000D03*
X310000Y148000D03*
X302000D03*
X339000Y88000D03*
X331000D03*
X362000Y150000D03*
X372000D03*
X382000D03*
X362000Y160000D03*
X372000D03*
X382000D03*
Y170000D03*
X372000D03*
X362000D03*
X392000Y150000D03*
Y160000D03*
Y170000D03*
X411600Y358200D03*
X430900Y65800D03*
X439100Y74300D03*
X430800Y74200D03*
X435000Y70000D03*
X443945Y314055D03*
X463900Y358000D03*
X495445Y314055D03*
X512200Y61000D03*
X520200D03*
X512200Y69000D03*
X519200D03*
X513600Y358000D03*
X538900Y-32200D03*
X544400Y-11500D03*
X547500Y18700D03*
X529500Y106500D03*
X529945Y116055D03*
Y123555D03*
X530484Y211784D03*
X534421Y215379D03*
X541284Y241684D03*
Y250184D03*
Y258184D03*
Y266184D03*
X544945Y314055D03*
X555400Y-11600D03*
X552500Y19400D03*
X567700Y61000D03*
X560200D03*
X567700Y69000D03*
X560200D03*
X565445Y116055D03*
Y124055D03*
X563600Y358000D03*
X578200Y61000D03*
X585200D03*
X578200Y69000D03*
X585200D03*
X572945Y116055D03*
Y124055D03*
X587945Y164055D03*
Y171555D03*
Y186055D03*
Y193555D03*
X603000Y-31716D03*
X610000Y-11000D03*
X612500Y18900D03*
X595945Y164055D03*
Y171555D03*
Y186055D03*
Y193555D03*
X601884Y254884D03*
X609784Y236684D03*
X601984Y247284D03*
X609784Y265184D03*
X596055Y314055D03*
X613100Y358000D03*
X620000Y-11000D03*
X617500Y20000D03*
X632200Y61000D03*
X624200D03*
X632200Y69000D03*
X624200D03*
X622100Y183200D03*
Y190900D03*
X629500Y191500D03*
X642200Y61000D03*
X650200D03*
X642200Y69000D03*
X650200D03*
X653000Y142000D03*
Y150000D03*
X643900Y183400D03*
Y190900D03*
X651500Y191500D03*
X654184Y221784D03*
X654284Y262084D03*
X645445Y314055D03*
X668900Y-32200D03*
X674400Y-11500D03*
X660500Y142000D03*
X661000Y150000D03*
X656000Y132000D03*
X685400Y-11600D03*
X677500Y18700D03*
X682500Y19400D03*
X690200Y61000D03*
Y69000D03*
X678000Y175000D03*
X681445Y335055D03*
X708200Y61000D03*
X697200D03*
X715200D03*
X708200Y69000D03*
X697200D03*
X715200D03*
X733900Y-32200D03*
X730200Y165900D03*
Y190500D03*
X730300Y182000D03*
X738300Y174000D03*
X739400Y-11500D03*
X750400Y-11600D03*
X742500Y18700D03*
X747500Y19400D03*
X755200Y61000D03*
Y69000D03*
X744700Y103000D03*
X741445Y335055D03*
X762200Y61000D03*
Y69000D03*
X780300Y133000D03*
X785500Y193500D03*
X801445Y335055D03*
X850200Y40000D03*
Y32000D03*
X861445Y335055D03*
X920945D03*
X969800Y-29900D03*
X963600Y-15400D03*
X1001100Y-30100D03*
G54D18*
X357402Y233228D03*
Y225354D03*
Y256850D03*
Y248976D03*
Y241102D03*
X365276Y233228D03*
Y225354D03*
Y256850D03*
Y248976D03*
Y241102D03*
X978000Y27000D03*
X988000D03*
X978000Y47000D03*
Y37000D03*
X988000Y47000D03*
Y37000D03*
G54D27*
X612300Y113200D03*
Y123200D03*
Y133200D03*
Y143200D03*
G54D19*
X366000Y90000D03*
X372000Y96000D03*
X376000Y102000D03*
X380000Y108000D03*
X382000Y130000D03*
X381354Y225354D03*
X384000Y102000D03*
X388000Y108000D03*
X396000Y124000D03*
X390000Y130000D03*
X396000Y114000D03*
X409260Y-49000D03*
X413100Y35900D03*
X413950Y77550D03*
X403450Y87050D03*
X413500Y84000D03*
X413450Y92050D03*
X418354Y268354D03*
X435000Y-34000D03*
X465740Y-49000D03*
X463354Y268354D03*
X474650Y42950D03*
X474750Y67050D03*
X474550Y51050D03*
X474450Y74950D03*
X468900Y225300D03*
X484154Y236154D03*
X469900Y235300D03*
X491750Y41150D03*
X658000Y216000D03*
X729800Y229000D03*
X729400Y224300D03*
X718300Y256000D03*
X733800Y255500D03*
X718300Y272000D03*
Y264000D03*
X723945Y334055D03*
X747100Y165900D03*
X754700D03*
X755200Y181900D03*
X745400Y173800D03*
X778400Y193300D03*
X770100Y247400D03*
X770300Y255200D03*
X783945Y334055D03*
X838900Y89800D03*
X841945Y334055D03*
X849500Y61300D03*
X854500Y97200D03*
X856745Y194755D03*
X856645Y211855D03*
X876445Y211955D03*
Y219755D03*
X902000Y334055D03*
X917845Y133355D03*
Y141355D03*
Y149355D03*
Y157355D03*
Y165355D03*
Y173355D03*
Y181355D03*
Y188855D03*
X963945Y334055D03*
X978945Y80055D03*
Y110055D03*
Y140055D03*
Y170055D03*
Y200055D03*
Y230055D03*
Y260055D03*
Y290055D03*
G54D28*
X833000Y194300D03*
Y213300D03*
G54D29*
X907500Y32433D03*
Y111567D03*
M02*
