G04 ================== begin FILE IDENTIFICATION RECORD ==================*
G04 Layout Name:  G:/lwj/My project/PCB/tunnel lighting/allegro/tunnel lighting2.brd*
G04 Film Name:    POWER*
G04 File Format:  Gerber RS274X*
G04 File Origin:  Cadence Allegro 16.5-P002*
G04 Origin Date:  Sat Oct 27 20:20:57 2012*
G04 *
G04 Layer:  BOARD GEOMETRY/OUTLINE*
G04 Layer:  ETCH/POWER*
G04 Layer:  PIN/POWER*
G04 Layer:  VIA CLASS/POWER*
G04 *
G04 Offset:    (0.000 0.000)*
G04 Mirror:    No*
G04 Mode:      Positive*
G04 Rotation:  0*
G04 FullContactRelief:  No*
G04 UndefLineWidth:     0.000*
G04 ================== end FILE IDENTIFICATION RECORD ====================*
%FSLAX25Y25*MOIN*%
%IR0*IPPOS*OFA0.00000B0.00000*MIA0B0*SFA1.00000B1.00000*%
%ADD14C,.15*%
%ADD13C,.110236*%
%ADD22C,.01*%
%ADD29C,.06*%
%ADD10C,.025*%
%ADD28C,.045*%
%ADD25C,.073*%
%ADD21C,.055*%
%ADD24C,.065*%
%ADD23C,.084*%
%ADD15C,.066*%
%ADD19C,.035433*%
%ADD16C,.021654*%
%ADD27C,.055118*%
%ADD17C,.041339*%
%ADD20C,.025591*%
%ADD26C,.031496*%
%ADD18C,.059055*%
%ADD12C,.086614*%
%ADD11C,.07874*%
%ADD30C,.02*%
%ADD47C,.100004*%
%ADD43C,.12024*%
%ADD44C,.15024*%
%ADD42C,.190004*%
%ADD45C,.118744*%
%ADD48R,.200004X.200004*%
%ADD35C,.065122*%
%ADD46C,.085004*%
%ADD33C,.051344*%
%ADD39C,.095004*%
%ADD34C,.095122*%
%ADD32C,.081344*%
%ADD49C,.06906*%
%ADD36C,.031658*%
%ADD40C,.045438*%
%ADD31C,.061658*%
%ADD37C,.075438*%
%ADD38C,.035596*%
%ADD41C,.065596*%
G75*
%LPD*%
G75*
G36*
G01X420364Y269414D02*
G02X420718Y270000I354J187D01*
G01X423683D01*
G02X424079Y269542I0J-400D01*
G03X433481I4701J-683D01*
G02X433877Y270000I396J57D01*
G01X441123D01*
G02X441519Y269542I0J-400D01*
G03X450921I4701J-683D01*
G02X451317Y270000I396J57D01*
G01X460991D01*
G02X461344Y269414I0J-400D01*
G03X465364I2010J-1059D01*
G02X465718Y270000I354J187D01*
G01X468683D01*
G02X469079Y269542I0J-400D01*
G03X478481I4701J-683D01*
G02X478877Y270000I396J57D01*
G01X640000D01*
Y192055D01*
X639992Y192027D01*
G03Y189773I3908J-1127D01*
G01X640000Y189746D01*
Y184555D01*
X639992Y184527D01*
G03Y182273I3908J-1127D01*
G01X640000Y182246D01*
Y72421D01*
G03Y65579I2200J-3421D01*
G01Y64421D01*
G03Y57579I2200J-3421D01*
G01Y40940D01*
G02X639405Y40591I-400J0D01*
G03Y35209I-1505J-2691D01*
G02X640000Y34860I195J-349D01*
G01Y30000D01*
X585061D01*
X585031Y30163D01*
G03X584025Y31925I-3031J-563D01*
G03X582743Y35509I-2925J975D01*
G02X582904Y36244I213J339D01*
G03X580857Y36691I-404J3056D01*
G02X580696Y35956I-213J-339D01*
G03X579075Y30575I404J-3056D01*
G03X578969Y30163I2925J-975D01*
G01X578939Y30000D01*
X518916D01*
G03X518065Y31289I-2916J-1000D01*
G03X513435Y30711I-2565J1711D01*
G03X513084Y30000I2565J-1711D01*
G01X500000D01*
Y-45000D01*
X490000D01*
Y-65000D01*
X500000D01*
Y-70000D01*
X70000D01*
Y40000D01*
X133683D01*
G02X133949Y39301I0J-400D01*
G03X138051I2051J-2301D01*
G02X138317Y40000I266J299D01*
G01X285683D01*
G02X285949Y39301I0J-400D01*
G03X290051I2051J-2301D01*
G02X290317Y40000I266J299D01*
G01X340000D01*
Y48119D01*
G03X342968Y50898I-100J3081D01*
G02X343514Y51230I398J-39D01*
G03X341588Y54396I1142J2863D01*
G02X341042Y54064I-398J39D01*
G03X340000Y54281I-1142J-2863D01*
G01Y84000D01*
X340078Y84078D01*
G03X342908Y86873I-1078J3922D01*
G01X342922Y86922D01*
X374000Y118000D01*
Y146458D01*
G03Y153542I-2000J3541D01*
G01Y156458D01*
G03Y163542I-2000J3541D01*
G01Y166458D01*
G03Y173542I-2000J3541D01*
G01Y252000D01*
X392000Y270000D01*
X396123D01*
G02X396519Y269542I0J-400D01*
G03X405921I4701J-683D01*
G02X406317Y270000I396J57D01*
G01X415991D01*
G02X416344Y269414I0J-400D01*
G03X420364I2010J-1059D01*
G37*
G36*
G01X772000Y-74000D02*
X768000Y-70000D01*
Y30000D01*
X766000Y32000D01*
X718147D01*
G03X716053I-1047J-2900D01*
G01X715690D01*
G02X715300Y32492I0J400D01*
G03X709300I-3001J708D01*
G02X708910Y32000I-389J-92D01*
G01X650331D01*
G02X649937Y32469I0J400D01*
G03X646457Y36051I-3037J531D01*
G02X646000Y36447I-57J396D01*
G01Y37483D01*
G02X646699Y37749I400J0D01*
G03Y41851I2301J2051D01*
G02X646000Y42117I-299J266D01*
G01Y59550D01*
G03Y62450I-3800J1450D01*
G01Y67550D01*
G03Y70450I-3800J1450D01*
G01Y162164D01*
G03X647077Y165641I-1839J2475D01*
G02X647344Y166155I378J130D01*
G03X646410Y172198I-859J2961D01*
G02X646000Y172598I-10J400D01*
G01Y179917D01*
G03Y186883I-2100J3483D01*
G01Y187417D01*
G03Y194383I-2100J3483D01*
G01Y214000D01*
X648000Y216000D01*
Y280000D01*
X646000Y282000D01*
X364000D01*
X350000Y268000D01*
Y202000D01*
X358000Y194000D01*
Y170736D01*
X357997Y170719D01*
G03Y169281I4003J-719D01*
G01X358000Y169264D01*
Y160736D01*
X357997Y160719D01*
X357997Y160718D01*
G03Y159282I4003J-718D01*
G01X357997Y159281D01*
X358000Y159264D01*
Y150736D01*
X357997Y150719D01*
G03Y149281I4003J-719D01*
G01X358000Y149264D01*
Y116000D01*
X333332Y91332D01*
G03X327668Y85668I-2332J-3332D01*
G01X326000Y84000D01*
X280000D01*
X278000Y86000D01*
Y302000D01*
X322000Y346000D01*
X1010000D01*
Y-65000D01*
G02X1004359Y-74000I-10000J0D01*
G01X772000D01*
G37*
%LPC*%
G75*
G36*
G01X513762Y114148D02*
G03X513882Y113907I192J-55D01*
G02X509804Y111883I-1115J-2874D01*
G03X509685Y112125I-192J55D01*
G02X513762Y114148I1115J2874D01*
G37*
G36*
G01X624163Y187395D02*
G03Y186705I203J-345D01*
G02X620037I-2063J-3505D01*
G03Y187395I-203J345D01*
G02X618474Y192743I2063J3505D01*
G03X618093Y193323I-357J181D01*
G02X615050Y197576I-193J3077D01*
G03X614648Y198127I-370J153D01*
G02X611428Y202020I-248J3073D01*
G03X611072Y202526I-386J106D01*
G02X608272Y205020I228J3074D01*
G02X605378Y207492I128J3080D01*
G03X605152Y207650I-196J-39D01*
G02X601688Y210045I-452J3050D01*
G02X599092Y212424I413J3055D01*
G02X602308Y216176I208J3076D01*
G02X605112Y213755I-208J-3076D01*
G02X607722Y211308I-412J-3055D01*
G03X607948Y211150I196J39D01*
G02X611428Y208680I452J-3050D01*
G02X614272Y204780I-128J-3080D01*
G03X614628Y204274I386J-106D01*
G02X617250Y200024I-228J-3074D01*
G03X617652Y199473I370J-153D01*
G02X618908Y199313I248J-3073D01*
G02X620818Y195404I-1008J-2913D01*
G03X621277Y194883I379J-129D01*
G02X624163Y187395I823J-3983D01*
G37*
G36*
G01X634011Y65358D02*
G03Y64642I178J-358D01*
G02X630389I-1811J-3642D01*
G03Y65358I-178J358D01*
G02X634011I1811J3642D01*
G37*
G36*
G01X582112Y59887D02*
G02X576389Y64642I-3912J1113D01*
G03Y65358I-178J358D01*
G02X582112Y70113I1811J3642D01*
G03X582861Y70058I385J109D01*
G02Y67942I2339J-1058D01*
G03X582112Y67887I-364J-165D01*
G02X580011Y65358I-3912J1113D01*
G03Y64642I178J-358D01*
G02X582112Y62113I-1811J-3642D01*
G03X582861Y62058I385J109D01*
G02Y59942I2339J-1058D01*
G03X582112Y59887I-364J-165D01*
G37*
G36*
G01X565889Y64642D02*
G03Y65358I-178J358D01*
G02X569511I1811J3642D01*
G03Y64642I178J-358D01*
G02X565889I-1811J-3642D01*
G37*
G36*
G01X514011Y65358D02*
G03Y64642I178J-358D01*
G02X510389I-1811J-3642D01*
G03Y65358I-178J358D01*
G02X516112Y70113I1811J3642D01*
G03X516861Y70058I385J109D01*
G02Y67942I2339J-1058D01*
G03X516112Y67887I-364J-165D01*
G02X514011Y65358I-3912J1113D01*
G37*
G36*
G01X137221Y-42897D02*
G02Y-39503I-5021J1697D01*
G03X137979I379J128D01*
G02X148021I5021J-1697D01*
G03X148779I379J128D01*
G02X158821I5021J-1697D01*
G03X159579I379J128D01*
G02Y-42897I5021J-1697D01*
G03X158821I-379J-128D01*
G02X148779I-5021J1697D01*
G03X148021I-379J-128D01*
G02X137979I-5021J1697D01*
G03X137221I-379J-128D01*
G37*
G36*
G01X292221D02*
G02Y-39503I-5021J1697D01*
G03X292979I379J128D01*
G02X303021I5021J-1697D01*
G03X303779I379J128D01*
G02X313821I5021J-1697D01*
G03X314579I379J128D01*
G02Y-42897I5021J-1697D01*
G03X313821I-379J-128D01*
G02X303779I-5021J1697D01*
G03X303021I-379J-128D01*
G02X292979I-5021J1697D01*
G03X292221I-379J-128D01*
G37*
G36*
G01X412069Y-22128D02*
G02X408546Y-24623I2931J-7872D01*
G03X408134Y-23981I-307J256D01*
G02X411600Y-21525I-1634J5981D01*
G03X412069Y-22128I329J-227D01*
G37*
G36*
G01X466454Y-24623D02*
G02X462931Y-22128I-6454J-5377D01*
G03X463400Y-21525I140J375D01*
G02X466866Y-23981I5100J3525D01*
G03X466454Y-24623I-105J-386D01*
G37*
G36*
G01X131821Y-31697D02*
G02Y-28303I-5021J1697D01*
G03X132579I379J128D01*
G02X142621I5021J-1697D01*
G03X143379I379J128D01*
G02X153421I5021J-1697D01*
G03X154179I379J128D01*
G02X164221I5021J-1697D01*
G03X164979I379J128D01*
G02Y-31697I5021J-1697D01*
G03X164221I-379J-128D01*
G02X154179I-5021J1697D01*
G03X153421I-379J-128D01*
G02X143379I-5021J1697D01*
G03X142621I-379J-128D01*
G02X132579I-5021J1697D01*
G03X131821I-379J-128D01*
G37*
G36*
G01X286821D02*
G02Y-28303I-5021J1697D01*
G03X287579I379J128D01*
G02X292296Y-24709I5021J-1697D01*
G03X292643Y-24159I-23J399D01*
G02X296700Y-25840I2857J1159D01*
G03X296557Y-26474I156J-368D01*
G02X297621Y-28303I-3957J-3526D01*
G03X298379I379J128D01*
G02X308421I5021J-1697D01*
G03X309179I379J128D01*
G02X319221I5021J-1697D01*
G03X319979I379J128D01*
G02Y-31697I5021J-1697D01*
G03X319221I-379J-128D01*
G02X309179I-5021J1697D01*
G03X308421I-379J-128D01*
G02X298379I-5021J1697D01*
G03X297621I-379J-128D01*
G02X287579I-5021J1697D01*
G03X286821I-379J-128D01*
G37*
G36*
G01X420588Y25624D02*
G02Y22376I5412J-1624D01*
G03X419835Y22414I-383J-115D01*
G02Y25586I-3835J1586D01*
G03X420588Y25624I370J153D01*
G37*
G36*
G01X454412Y22376D02*
G02Y25624I-5412J1624D01*
G03X455165Y25586I383J115D01*
G02Y22414I3835J-1586D01*
G03X454412Y22376I-370J-153D01*
G37*
G36*
G01X470951Y52180D02*
G02X470936Y49970I3599J-1130D01*
G03X470179Y49998I-383J-115D01*
G02X470194Y52162I-2879J1102D01*
G03X470951Y52180I375J138D01*
G37*
G36*
G01X475820Y70667D02*
G02X473409Y70576I-1070J-3617D01*
G03X473380Y71333I-142J374D01*
G02X475791Y71424I1070J3617D01*
G03X475820Y70667I142J-374D01*
G37*
G36*
G01X578932Y228983D02*
G02X573297Y228917I-2832J1217D01*
G02X570544Y230617I3J3083D01*
G02X567942Y231979I-44J3083D01*
G02X569258Y236521I-1243J2821D01*
G02X573256Y235083I1243J-2821D01*
G02X576103Y233283I44J-3083D01*
G02X578932Y231417I-3J-3083D01*
G03X579668I368J158D01*
G02Y228983I2832J-1217D01*
G03X578932I-368J-158D01*
G37*
G36*
G01X425354Y-7445D02*
G03X424646I-354J-186D01*
G02Y-2555I-4646J2445D01*
G03X425354I354J186D01*
G02X434646I4646J-2445D01*
G03X435354I354J186D01*
G02X444646I4646J-2445D01*
G03X445354I354J186D01*
G02Y-7445I4646J-2445D01*
G03X444646I-354J-186D01*
G02X435354I-4646J2445D01*
G03X434646I-354J-186D01*
G02X425354I-4646J2445D01*
G37*
G36*
G01X430354Y2555D02*
G03X429646I-354J-186D01*
G02Y7445I-4646J2445D01*
G03X430354I354J186D01*
G02X439646I4646J-2445D01*
G03X440354I354J186D01*
G02X449646I4646J-2445D01*
G03X450354I354J186D01*
G02Y2555I4646J-2445D01*
G03X449646I-354J-186D01*
G02X440354I-4646J2445D01*
G03X439646I-354J-186D01*
G02X430354I-4646J2445D01*
G37*
G36*
G01X317273Y7022D02*
G02X317827Y2478I2327J-2022D01*
G02X317273Y7022I-2327J2022D01*
G37*
G36*
G01X298330Y22510D02*
G03X297756Y22499I-282J-284D01*
G02X297670Y26790I-2256J2101D01*
G03X298244Y26801I282J284D01*
G02X298330Y22510I2256J-2101D01*
G37*
G36*
G01X413394Y46122D02*
G03X412877Y45893I-144J-373D01*
G02X411106Y49878I-2877J1107D01*
G03X411623Y50107I144J373D01*
G02X414982Y52045I2877J-1107D01*
G03X415442Y52390I63J395D01*
G02X419482Y54922I3058J-389D01*
G03X419999Y55393I128J379D01*
G02X424942Y58494I3001J707D01*
G03X425529Y58586I252J311D01*
G02X426168Y54506I2581J-1686D01*
G03X425581Y54414I-252J-311D01*
G02X422018Y53178I-2581J1686D01*
G03X421501Y52707I-128J-379D01*
G02X418018Y48955I-3001J-707D01*
G03X417558Y48610I-63J-395D01*
G02X413394Y46122I-3058J389D01*
G37*
G36*
G01X452473Y48118D02*
G03X452278Y47929I5J-200D01*
G02X449127Y51182I-3078J171D01*
G03X449322Y51371I-5J200D01*
G02X452473Y48118I3078J-171D01*
G37*
G36*
G01X373446Y66787D02*
G03Y66213I278J-287D01*
G02X369154I-2147J-2213D01*
G03Y66787I-278J287D01*
G02X373446I2147J2213D01*
G37*
G36*
G01X435159Y65936D02*
G03X434967Y65739I8J-200D01*
G02X429470Y69607I-4067J61D01*
G03X429461Y70360I-141J374D01*
G02X434560Y75750I1339J3840D01*
G03X435304Y75759I370J152D01*
G02X439259Y70236I3797J-1459D01*
G03X439067Y70034I8J-200D01*
G02X435159Y65936I-4067J-34D01*
G37*
G36*
G01X457233Y81216D02*
G03X456946Y80709I95J-389D01*
G02X453267Y82794I-2946J-909D01*
G03X453554Y83301I-95J389D01*
G02X457233Y81216I2946J909D01*
G37*
G36*
G01X485497Y87252D02*
G03X485474Y86551I181J-357D01*
G02X482503Y86648I-1574J-2651D01*
G03X482526Y87349I-181J357D01*
G02X485497Y87252I1574J2651D01*
G37*
G36*
G01X552132Y87910D02*
G02X556356Y85977I2956J877D01*
G02X552132Y87910I-2956J-877D01*
G37*
G36*
G01X533556Y92815D02*
G02X537144Y88885I2944J-915D01*
G02X533556Y92815I-2944J915D01*
G37*
G36*
G01X471119Y97719D02*
G03X470774Y97145I15J-400D01*
G02X467881Y98881I-2774J-1345D01*
G03X468226Y99455I-15J400D01*
G02X471119Y97719I2774J1345D01*
G37*
G36*
G01X462368Y112085D02*
G02X467632Y111815I2732J1815D01*
G02X462368Y112085I-2732J-1815D01*
G37*
G36*
G01X532155Y120141D02*
G03Y119469I217J-336D01*
G02X527735I-2210J-3414D01*
G03Y120141I-217J336D01*
G02X532155I2210J3414D01*
G37*
G36*
G01X567256Y120413D02*
G03Y119697I178J-358D01*
G02X563634I-1811J-3642D01*
G03Y120413I-178J358D01*
G02X561646Y122601I1811J3642D01*
G03X561127Y122830I-374J-143D01*
G02X562527Y127466I-1127J2870D01*
G03X563087Y127369I328J229D01*
G02X567256Y120413I2358J-3314D01*
G37*
G36*
G01X404772Y132853D02*
G03X404228I-272J-293D01*
G02Y137666I-2228J2407D01*
G03X404772I272J293D01*
G02Y132853I2228J-2407D01*
G37*
G36*
G01X520671Y148266D02*
G03X520872Y148083I199J17D01*
G02X517829Y144734I28J-3083D01*
G03X517627Y144917I-199J-17D01*
G02X520671Y148266I-28J3083D01*
G37*
G36*
G01X498131Y148542D02*
G03X497888Y148420I-56J-192D01*
G02X495869Y152458I-2888J1080D01*
G03X496112Y152580I56J192D01*
G02X499113Y154581I2888J-1080D01*
G02X501581Y156554I2887J-1081D01*
G02X504919Y152508I2919J-992D01*
G02X501887Y150419I-2919J992D01*
G02X498131Y148542I-2887J1081D01*
G37*
G36*
G01X457483Y155234D02*
G03X457046Y154774I-41J-398D01*
G02X454317Y157366I-3046J-474D01*
G03X454754Y157826I41J398D01*
G02X457483Y155234I3046J474D01*
G37*
G36*
G01X590749Y160349D02*
G02X592582Y157578I-1249J-2818D01*
G02X589318Y154453I-182J-3077D01*
G02X587114Y159483I183J3077D01*
G03X586906Y160123I-310J253D01*
G02X591587Y165866I1038J3932D01*
G03X592303I358J178D01*
G02Y162244I3642J-1811D01*
G03X591587I-358J-178D01*
G02X590646Y161014I-3642J1811D01*
G03X590749Y160349I266J-299D01*
G37*
G36*
G01X480449Y174217D02*
G03X480494Y173651I304J-260D01*
G02X477504Y174217I-1994J-2351D01*
G03X477752Y174727I-129J379D01*
G02X480449Y174217I1495J520D01*
G37*
G36*
G01X511215Y178560D02*
G03X510905Y178032I67J-394D01*
G02X507485Y180040I-2905J-1032D01*
G03X507795Y180568I-67J394D01*
G02X510778Y184682I2905J1032D01*
G02X514036Y186765I2922J-982D01*
G02X516677Y188480I2764J-1365D01*
G02X519723Y184420I2923J-981D01*
G02X516464Y182335I-2923J980D01*
G02X513622Y180618I-2764J1365D01*
G02X511215Y178560I-2922J982D01*
G37*
G36*
G01X592303Y184244D02*
G03X591587I-358J-178D01*
G02Y187866I-3642J1811D01*
G03X592303I358J178D01*
G02Y184244I3642J-1811D01*
G37*
G36*
G01X546103Y196415D02*
G02X545773Y192964I-2703J-1483D01*
G02X541027I-2373J-1968D01*
G02X540697Y196415I2373J1968D01*
G02X546103I2703J1483D01*
G37*
G36*
G01X494288Y202863D02*
G03X494666Y202478I400J14D01*
G02X491868Y201005I-166J-3078D01*
G03X491764Y201534I-342J208D01*
G02X494288Y202863I942J1272D01*
G37*
G36*
G01X522775Y203015D02*
G03X523235Y202648I399J28D01*
G02X520625Y199385I465J-3048D01*
G03X520165Y199752I-399J-28D01*
G02X522775Y203015I-465J3048D01*
G37*
G36*
G01X452393Y204297D02*
G03Y203703I268J-297D01*
G02X447607I-2393J-2656D01*
G03Y204297I-268J297D01*
G02X452393I2393J2656D01*
G37*
G36*
G01X544775Y204497D02*
G02X541810I-1483J2703D01*
G02Y209903I-1483J2703D01*
G02X544775I1483J-2703D01*
G02Y204497I1483J-2703D01*
G37*
G36*
G01X534837Y212845D02*
G03X534506Y212391I65J-395D01*
G02X531454Y215734I-4022J-607D01*
G03X531936Y216022I95J388D01*
G02X534837Y212845I2485J-644D01*
G37*
G36*
G01X581785Y239825D02*
G03X581808Y239239I284J-282D01*
G02X577615Y239075I-2008J-2339D01*
G03X577592Y239661I-284J282D01*
G02X581785Y239825I2008J2339D01*
G37*
G36*
G01X567209Y243309D02*
G03X566922Y243872I-362J170D01*
G02X570291Y245591I578J3028D01*
G03X570578Y245028I362J-170D01*
G02X567209Y243309I-578J-3028D01*
G37*
G36*
G01X575615Y255644D02*
G03X575994Y255081I365J-163D01*
G02X573285Y253256I106J-3081D01*
G03X572906Y253819I-365J163D01*
G02X575615Y255644I-106J3081D01*
G37*
G36*
G01X406271Y201029D02*
G02X405419Y198807I2229J-2129D01*
G03X404729Y199071I-400J-12D01*
G02X405582Y201293I-2229J2129D01*
G03X406271Y201029I400J12D01*
G37*
G36*
G01X841838Y162773D02*
G02X840668Y160197I1909J-2421D01*
G03X840021Y160491I-399J-20D01*
G02X841191Y163067I-1909J2421D01*
G03X841838Y162773I399J20D01*
G37*
G36*
G01X771526Y250892D02*
G02X768854Y250960I-1426J-3492D01*
G03X768874Y251708I-132J378D01*
G02X771546Y251640I1426J3492D01*
G03X771526Y250892I132J-378D01*
G37*
G36*
G01X750536Y164343D02*
G02Y167457I-3436J1557D01*
G03X751264I364J165D01*
G02Y164343I3436J-1557D01*
G03X750536I-364J-165D01*
G37*
G36*
G01X656851Y181051D02*
G02X661659Y183374I1734J2549D01*
G02X656851Y181051I-1734J-2549D01*
G37*
G36*
G01X664569Y191356D02*
G02X665230Y186020I-1166J-2854D01*
G02X660334Y188208I-1828J2483D01*
G02X664569Y191356I1166J2854D01*
G37*
G36*
G01X765609Y221597D02*
G02X762643I-1483J2703D01*
G02Y227003I-1483J2703D01*
G02X765609I1483J-2703D01*
G02X768574I1483J-2703D01*
G02Y221597I1483J-2703D01*
G02X765609I-1483J2703D01*
G37*
G36*
G01X726667Y226900D02*
G02X732533Y226400I3133J2100D01*
G02X726667Y226900I-3133J-2100D01*
G37*
G36*
G01X688772Y222358D02*
G03X688985Y222175I199J17D01*
G02X686128Y218842I215J-3075D01*
G03X685915Y219025I-199J-17D01*
G02X688772Y222358I-215J3075D01*
G37*
G36*
G01X705058Y214549D02*
G02X707649Y211044I3049J-456D01*
G02X705058Y214549I-3049J456D01*
G37*
G36*
G01X791001Y202010D02*
G02X794440Y198026I3202J-712D01*
G02X791001Y202010I-3202J712D01*
G37*
G36*
G01X664561Y208984D02*
G02X668239Y212516I639J3016D01*
G02X670663Y209848I-639J-3016D01*
G02X673151Y207692I-463J-3048D01*
G02X675900Y204639I-334J-3065D01*
G02X677191Y199396I-800J-2977D01*
G03Y198808I271J-294D01*
G02X673009I-2091J-2265D01*
G03Y199396I-271J294D01*
G02X672017Y201650I2091J2265D01*
G02X669866Y203735I800J2977D01*
G02X667137Y206452I334J3065D01*
G02X664561Y208984I463J3048D01*
G37*
G36*
G01X919498Y185465D02*
G03Y184746I175J-360D01*
G02X916192I-1653J-3391D01*
G03Y185465I-175J360D01*
G02X919498I1653J3390D01*
G37*
G36*
G01X667055Y166302D02*
G03X667043Y165716I267J-298D01*
G02X662845Y165798I-2143J-2216D01*
G03X662857Y166384I-267J298D01*
G02X667055Y166302I2143J2216D01*
G37*
G36*
G01X654811Y146358D02*
G03Y145642I178J-358D01*
G02X651189I-1811J-3642D01*
G03Y146358I-178J358D01*
G02X654811I1811J3642D01*
G37*
G36*
G01X731506Y185884D02*
G02X729003Y185855I-1206J-3884D01*
G03X728994Y186616I-128J379D01*
G02X731497Y186645I1206J3884D01*
G03X731506Y185884I128J-379D01*
G37*
G36*
G01X877784Y215481D02*
G02X875106I-1339J-3526D01*
G03Y216229I-142J374D01*
G02X877784I1339J3526D01*
G03Y215481I142J-374D01*
G37*
G36*
G01X982626Y25231D02*
G02X976231Y31626I-4626J1769D01*
G03Y32374I-143J374D01*
G02X982626Y38769I1769J4626D01*
G03X983374I374J143D01*
G02X986231Y41626I4626J-1769D01*
G03Y42374I-143J374D01*
G02X989769I1769J4626D01*
G03Y41626I143J-374D01*
G02Y32374I-1769J-4626D01*
G03Y31626I143J-374D01*
G02X983374Y25231I-1769J-4626D01*
G03X982626I-374J-143D01*
G37*
G36*
G01X699011Y64642D02*
G02X693288Y59887I-1811J-3642D01*
G03X692539Y59942I-385J-110D01*
G02Y62058I-2339J1058D01*
G03X693288Y62113I364J165D01*
G02X695389Y64642I3912J-1113D01*
G03Y65358I-178J358D01*
G02X693288Y67887I1811J3642D01*
G03X692539Y67942I-385J-110D01*
G02Y70058I-2339J1058D01*
G03X693288Y70113I364J165D01*
G02X699011Y65358I3912J-1113D01*
G03Y64642I178J-358D01*
G37*
G36*
G01X712112Y59887D02*
G02X706389Y64642I-3912J1113D01*
G03Y65358I-178J358D01*
G02X712112Y70113I1811J3642D01*
G03X712861Y70058I385J109D01*
G02Y67942I2339J-1058D01*
G03X712112Y67887I-364J-165D01*
G02X710011Y65358I-3912J1113D01*
G03Y64642I178J-358D01*
G02X712112Y62113I-1811J-3642D01*
G03X712861Y62058I385J109D01*
G02Y59942I2339J-1058D01*
G03X712112Y59887I-364J-165D01*
G37*
G36*
G01X764011Y64642D02*
G02X758288Y59887I-1811J-3642D01*
G03X757539Y59942I-385J-110D01*
G02Y62058I-2339J1058D01*
G03X758288Y62113I364J165D01*
G02X760389Y64642I3912J-1113D01*
G03Y65358I-178J358D01*
G02X758288Y67887I1811J3642D01*
G03X757539Y67942I-385J-110D01*
G02Y70058I-2339J1058D01*
G03X758288Y70113I364J165D01*
G02X764011Y65358I3912J-1113D01*
G03Y64642I178J-358D01*
G37*
G36*
G01X852011Y36358D02*
G03Y35642I178J-358D01*
G02X848389I-1811J-3642D01*
G03Y36358I-178J358D01*
G02X852011I1811J3642D01*
G37*
G36*
G01X825498Y3424D02*
G03X825073Y3056I-26J-399D01*
G02X822202Y6376I-3073J244D01*
G03X822627Y6744I26J399D01*
G02X825520Y9578I3073J-244D01*
G02X827360Y12522I3080J122D01*
G03X827578Y13016I-161J366D01*
G02X829843Y17012I2922J984D01*
G03X830143Y17511I-85J391D01*
G02X833832Y15164I3157J889D01*
G03X833507Y14681I65J-395D01*
G02X831740Y11178I-3007J-681D01*
G03X831522Y10684I161J-366D01*
G02X828780Y6622I-2922J-984D01*
G02X825498Y3424I-3080J-122D01*
G37*
G54D47*
X907500Y32433D03*
Y111567D03*
G54D43*
X298346Y99213D03*
G54D44*
Y177953D03*
Y197638D03*
Y289213D03*
G54D42*
X352600Y-35600D03*
X254200D03*
X197600D03*
X99200D03*
G54D45*
X789842Y-54252D03*
X809528D03*
X839842D03*
X859528D03*
X894842D03*
X914528D03*
X944842D03*
X964528D03*
G54D48*
X990000Y-55000D03*
G54D35*
X612300Y133200D03*
G54D46*
X833000Y194300D03*
Y213300D03*
G54D33*
X624200Y69000D03*
X560200Y61000D03*
X520200D03*
X609784Y265184D03*
X601984Y247284D03*
X609784Y236684D03*
X595945Y193555D03*
Y171555D03*
X587945Y193555D03*
Y171555D03*
X572945Y124055D03*
Y116055D03*
X541284Y266184D03*
Y258184D03*
Y250184D03*
Y241684D03*
X529500Y106500D03*
X560200Y69000D03*
X624200Y61000D03*
X629500Y191500D03*
X780300Y133000D03*
X650200Y69000D03*
X286000Y122000D03*
Y130000D03*
X298000Y140000D03*
X290000D03*
X294000Y148000D03*
X286000D03*
X310000Y114000D03*
Y122000D03*
X306000Y140000D03*
X310000Y148000D03*
X302000D03*
X651500Y191500D03*
X654184Y221784D03*
X654284Y262084D03*
X656000Y132000D03*
X660500Y142000D03*
X661000Y150000D03*
X678000Y175000D03*
X650200Y61000D03*
G54D39*
X473780Y251140D03*
X446220D03*
X428780D03*
X401220D03*
X961220Y88860D03*
Y71140D03*
Y101140D03*
Y118860D03*
Y148860D03*
Y131140D03*
Y161140D03*
Y191140D03*
Y178860D03*
Y208860D03*
X961320Y221240D03*
Y238960D03*
X961220Y251140D03*
Y268860D03*
Y281140D03*
Y298860D03*
X988780Y71140D03*
Y88860D03*
Y101140D03*
Y118860D03*
Y131140D03*
Y148860D03*
Y161140D03*
Y191140D03*
Y178860D03*
Y208860D03*
X988880Y221240D03*
Y238960D03*
X988780Y251140D03*
Y268860D03*
Y298860D03*
Y281140D03*
G54D34*
X612300Y143200D03*
Y123200D03*
Y113200D03*
G54D32*
X382000Y150000D03*
X392000D03*
Y170000D03*
X601884Y254884D03*
X382000Y170000D03*
X392000Y160000D03*
X382000D03*
X744700Y103000D03*
X969800Y-29900D03*
X738300Y174000D03*
X443945Y314055D03*
X495445D03*
X544945D03*
X596055D03*
X645445D03*
X681445Y335055D03*
X730200Y165900D03*
X741445Y335055D03*
X785500Y193500D03*
X801445Y335055D03*
X861445D03*
X920945D03*
X1001100Y-30100D03*
X963600Y-15400D03*
G54D49*
X978000Y47000D03*
G54D36*
X561000Y210000D03*
X560500Y202000D03*
X515940Y236260D03*
X391500Y262000D03*
X280000Y29000D03*
Y37000D03*
X128000Y29000D03*
Y37000D03*
X692740Y152000D03*
Y160000D03*
Y168000D03*
X737740Y103000D03*
X724740Y114000D03*
Y122000D03*
Y130000D03*
X787740Y108000D03*
Y116000D03*
Y124000D03*
X830740Y55000D03*
X831740Y90000D03*
X857740Y32000D03*
Y40000D03*
X971600Y7900D03*
X980900Y5800D03*
X983200Y15800D03*
G54D40*
X469900Y235300D03*
X468900Y225300D03*
X413500Y84000D03*
X396000Y114000D03*
X390000Y130000D03*
X396000Y124000D03*
X388000Y108000D03*
X384000Y102000D03*
X381354Y225354D03*
X382000Y130000D03*
X380000Y108000D03*
X376000Y102000D03*
X372000Y96000D03*
X366000Y90000D03*
X733800Y255500D03*
X723945Y334055D03*
X745400Y173800D03*
X778400Y193300D03*
X783945Y334055D03*
X841945D03*
X963945D03*
X978945Y80055D03*
Y110055D03*
Y140055D03*
Y170055D03*
Y200055D03*
Y230055D03*
Y260055D03*
Y290055D03*
X902000Y334055D03*
G54D31*
X508000Y104000D03*
X222600Y9200D03*
X441400Y214900D03*
X423200Y205800D03*
X582500Y257000D03*
X581000Y143600D03*
Y96300D03*
X573000Y38200D03*
X553000Y210000D03*
X553500Y202000D03*
X560100Y107100D03*
X565526Y82026D03*
X530200Y81400D03*
X517000Y40000D03*
X497800Y228100D03*
X499000Y120000D03*
X494000Y61000D03*
X507000Y38200D03*
X487500Y-300D03*
X479751Y212649D03*
X467260Y59000D03*
X477800Y31800D03*
X462000Y192800D03*
X464900Y127800D03*
X462500Y90100D03*
X452800Y59900D03*
X446240Y41500D03*
X449000Y-41300D03*
X440100Y90100D03*
X431200Y104000D03*
X435990Y84210D03*
X425000Y-41400D03*
X415000Y176300D03*
Y167800D03*
Y159800D03*
Y151800D03*
X422900Y103400D03*
X402700Y59800D03*
X400000Y224900D03*
X388000Y44500D03*
X396260Y39740D03*
X362000Y15000D03*
Y7000D03*
Y-2000D03*
Y-10000D03*
X358700Y59800D03*
X351900Y56600D03*
X353000Y-60000D03*
X327000Y-13000D03*
X288000Y29000D03*
X266000Y7000D03*
X198000Y-60000D03*
X184000Y9000D03*
Y1000D03*
X142500Y27100D03*
X136000Y29000D03*
X423000Y198000D03*
X222700Y17000D03*
X388500Y204000D03*
X396000Y203800D03*
X787640Y132900D03*
X670000Y83300D03*
X660000Y83100D03*
X680000Y83200D03*
X678500Y159100D03*
X682000Y185943D03*
X695600Y224329D03*
X681400Y216300D03*
X710300Y41400D03*
X702800Y37000D03*
X702300Y94200D03*
X710900Y91800D03*
X715700Y96400D03*
X782852Y142348D03*
X801300Y3000D03*
X811621Y193620D03*
X1001000Y33900D03*
X1001100Y26200D03*
G54D37*
X491750Y41150D03*
X474650Y42950D03*
X465740Y-49000D03*
X435000Y-34000D03*
X413450Y92050D03*
X403450Y87050D03*
X413950Y77550D03*
X413100Y35900D03*
X409260Y-49000D03*
X484154Y236154D03*
X849500Y61300D03*
X658000Y216000D03*
X718300Y256000D03*
Y272000D03*
Y264000D03*
X856745Y194755D03*
X856645Y211855D03*
X917845Y141355D03*
Y149355D03*
Y133355D03*
Y157355D03*
Y165355D03*
Y173355D03*
X755200Y181900D03*
X838900Y89800D03*
X854500Y97200D03*
G54D38*
X488000Y23260D03*
X487000Y7260D03*
X472000Y151800D03*
X475000Y59260D03*
X485000Y32260D03*
X463900Y151700D03*
X439600Y98300D03*
X403000Y52260D03*
G54D41*
X472000Y144300D03*
X463800Y144200D03*
X447800Y98300D03*
X418000Y135260D03*
X757594Y146400D03*
X776402Y209098D03*
X795002Y188502D03*
X784602Y209298D03*
X785802Y177798D03*
%LPD*%
G75*
G36*
G01X982626Y28769D02*
G03X979769Y31626I-4626J-1769D01*
G02Y32374I143J374D01*
G03X982626Y35231I-1769J4626D01*
G02X983374I374J-143D01*
G03X986231Y32374I4626J1769D01*
G02Y31626I-143J-374D01*
G03X983374Y28769I1769J-4626D01*
G02X982626I-374J143D01*
G37*
G54D10*
X55000Y-55000D03*
Y405000D03*
X338800Y409200D03*
X500000Y-55000D03*
X990000D03*
Y405000D03*
G54D11*
X52548Y10372D03*
Y30057D03*
X409843Y405748D03*
X429528D03*
X459843D03*
X479528D03*
X509843D03*
X530472Y-55748D03*
X529528Y405748D03*
X550158Y-55748D03*
X559843Y405748D03*
X579528D03*
X595472Y-55748D03*
X615158D03*
X609843Y405748D03*
X629528D03*
X660472Y-55748D03*
X680158D03*
X699842Y405748D03*
X719528D03*
X725472Y-55748D03*
X745158D03*
X759843Y405748D03*
X779528D03*
X789842Y-54252D03*
X809528D03*
X819842Y405748D03*
X839842Y-54252D03*
X839528Y405748D03*
X859528Y-54252D03*
X879842Y405748D03*
X894842Y-54252D03*
X899528Y405748D03*
X914528Y-54252D03*
X944842D03*
X939842Y405748D03*
X964528Y-54252D03*
X959528Y405748D03*
G54D20*
X402000Y135260D03*
X403000Y52260D03*
X418000Y135260D03*
X407000D03*
X439600Y98300D03*
X447800D03*
X464900Y110000D03*
X465100Y113900D03*
X463800Y144200D03*
X463900Y151700D03*
X485000Y32260D03*
X475000Y59260D03*
X472000Y144300D03*
Y151800D03*
X488000Y23260D03*
X487000Y7260D03*
X757594Y146400D03*
X776402Y209098D03*
X785802Y177798D03*
X795002Y188502D03*
X794202Y201298D03*
X791239Y198739D03*
X784602Y209298D03*
X833300Y18400D03*
G54D30*
G01X128000Y27217D02*
Y29000D01*
G01D02*
Y30783D01*
G01X126217Y29000D02*
X128000D01*
G01D02*
X129783D01*
G01X128000Y35217D02*
Y37000D01*
G01D02*
Y38783D01*
G01X126217Y37000D02*
X128000D01*
G01D02*
X129783D01*
G01X280000Y27217D02*
Y29000D01*
G01D02*
Y30783D01*
G01X278217Y29000D02*
X280000D01*
G01D02*
X281783D01*
G01X280000Y35217D02*
Y37000D01*
G01D02*
Y38783D01*
G01X278217Y37000D02*
X280000D01*
G01D02*
X281783D01*
G01X292134Y99213D02*
X298346D01*
G01X286000Y127233D02*
Y130000D01*
G01Y119233D02*
Y122000D01*
G01D02*
Y124767D01*
G01X283233Y122000D02*
X286000D01*
G01D02*
X288767D01*
G01X286000Y145233D02*
Y148000D01*
G01D02*
Y150767D01*
G01X283233Y148000D02*
X286000D01*
G01D02*
X288767D01*
G01X294000Y145233D02*
Y148000D01*
G01D02*
Y150767D01*
G01X291233Y148000D02*
X294000D01*
G01D02*
X296767D01*
G01X290000Y137233D02*
Y140000D01*
G01D02*
Y142767D01*
G01X287233Y140000D02*
X290000D01*
G01D02*
X292767D01*
G01X295233D02*
X298000D01*
G01X286000Y130000D02*
Y132767D01*
G01X283233Y130000D02*
X286000D01*
G01D02*
X288767D01*
G01X298346Y93001D02*
Y99213D01*
G01D02*
Y105425D01*
G01Y99213D02*
X304558D01*
G01X310000Y119233D02*
Y122000D01*
G01D02*
Y124767D01*
G01X307233Y122000D02*
X310000D01*
G01D02*
X312767D01*
G01X310000Y111233D02*
Y114000D01*
G01D02*
Y116767D01*
G01X307233Y114000D02*
X310000D01*
G01D02*
X312767D01*
G01X302000Y145233D02*
Y148000D01*
G01D02*
Y150767D01*
G01X299233Y148000D02*
X302000D01*
G01D02*
X304767D01*
G01X310000Y145233D02*
Y148000D01*
G01D02*
Y150767D01*
G01X307233Y148000D02*
X310000D01*
G01D02*
X312767D01*
G01X306000Y137233D02*
Y140000D01*
G01D02*
Y142767D01*
G01X303233Y140000D02*
X306000D01*
G01D02*
X308767D01*
G01X298000Y137233D02*
Y140000D01*
G01D02*
Y142767D01*
G01Y140000D02*
X300767D01*
G01X380000Y105528D02*
Y108000D01*
G01X376000Y99528D02*
Y102000D01*
G01D02*
Y104472D01*
G01X373528Y102000D02*
X376000D01*
G01D02*
X378472D01*
G01X372000Y93528D02*
Y96000D01*
G01D02*
Y98472D01*
G01X369528Y96000D02*
X372000D01*
G01D02*
X374472D01*
G01X366000Y87528D02*
Y90000D01*
G01D02*
Y92472D01*
G01X363528Y90000D02*
X366000D01*
G01D02*
X368472D01*
G01X380000Y108000D02*
Y110472D01*
G01X377528Y108000D02*
X380000D01*
G01D02*
X382472D01*
G01X379528Y130000D02*
X382000D01*
G01X378882Y225354D02*
X381354D01*
G01X401020Y52260D02*
X403000D01*
G01X388000Y105528D02*
Y108000D01*
G01X384000Y99528D02*
Y102000D01*
G01D02*
Y104472D01*
G01X381528Y102000D02*
X384000D01*
G01D02*
X386472D01*
G01X396000Y111528D02*
Y114000D01*
G01D02*
Y116472D01*
G01X393528Y114000D02*
X396000D01*
G01D02*
X398472D01*
G01X390000Y127528D02*
Y130000D01*
G01X396000Y121528D02*
Y124000D01*
G01D02*
Y126472D01*
G01X393528Y124000D02*
X396000D01*
G01D02*
X398472D01*
G01X388000Y108000D02*
Y110472D01*
G01X385528Y108000D02*
X388000D01*
G01D02*
X390472D01*
G01X382000Y127528D02*
Y130000D01*
G01X390000D02*
Y132472D01*
G01X387528Y130000D02*
X390000D01*
G01D02*
X392472D01*
G01X382000D02*
Y132472D01*
G01Y130000D02*
X384472D01*
G01X381354Y222882D02*
Y225354D01*
G01D02*
Y227826D01*
G01Y225354D02*
X383826D01*
G01X391500Y260217D02*
Y262000D01*
G01D02*
Y263783D01*
G01X389717Y262000D02*
X391500D01*
G01D02*
X393283D01*
G01X416000Y19650D02*
Y24000D01*
G01D02*
Y28350D01*
G01X411650Y24000D02*
X416000D01*
G01X403000Y50280D02*
Y52260D01*
G01D02*
Y54240D01*
G01Y52260D02*
X404980D01*
G01X413500Y81528D02*
Y84000D01*
G01D02*
Y86472D01*
G01X411028Y84000D02*
X413500D01*
G01D02*
X415972D01*
G01X418354Y265882D02*
Y268354D01*
G01X415882D02*
X418354D01*
G01D02*
X420826D01*
G01X439600Y96320D02*
Y98300D01*
G01D02*
Y100280D01*
G01X437620Y98300D02*
X439600D01*
G01D02*
X441580D01*
G01X459000Y19650D02*
Y24000D01*
G01D02*
Y28350D01*
G01Y24000D02*
X463350D01*
G01X463900Y149720D02*
Y151700D01*
G01D02*
Y153680D01*
G01X461920Y151700D02*
X463900D01*
G01D02*
X465880D01*
G01X463354Y265882D02*
Y268354D01*
G01X460882D02*
X463354D01*
G01D02*
X465826D01*
G01X485020Y7260D02*
X487000D01*
G01X485000Y30280D02*
Y32260D01*
G01D02*
Y34240D01*
G01X483020Y32260D02*
X485000D01*
G01D02*
X486980D01*
G01X475000Y57280D02*
Y59260D01*
G01D02*
Y61240D01*
G01X473020Y59260D02*
X475000D01*
G01D02*
X476980D01*
G01X472000Y149820D02*
Y151800D01*
G01D02*
Y153780D01*
G01X470020Y151800D02*
X472000D01*
G01D02*
X473980D01*
G01X479247Y175247D02*
Y177030D01*
G01X477464Y175247D02*
X479247D01*
G01D02*
X481030D01*
G01X469900Y232828D02*
Y235300D01*
G01X468900Y222828D02*
Y225300D01*
G01D02*
Y227772D01*
G01X466428Y225300D02*
X468900D01*
G01D02*
X471372D01*
G01X469900Y235300D02*
Y237772D01*
G01X467428Y235300D02*
X469900D01*
G01D02*
X472372D01*
G01X488000Y21280D02*
Y23260D01*
G01D02*
Y25240D01*
G01X486020Y23260D02*
X488000D01*
G01D02*
X489980D01*
G01X487000Y5280D02*
Y7260D01*
G01D02*
Y9240D01*
G01Y7260D02*
X488980D01*
G01X492706Y202806D02*
Y204589D01*
G01X490923Y202806D02*
X492706D01*
G01D02*
X494489D01*
G01X520200Y58233D02*
Y61000D01*
G01D02*
Y63767D01*
G01X517433Y61000D02*
X520200D01*
G01D02*
X522967D01*
G01X519200Y66233D02*
Y69000D01*
G01D02*
Y71767D01*
G01Y69000D02*
X521967D01*
G01X526733Y106500D02*
X529500D01*
G01X515940Y234477D02*
Y236260D01*
G01D02*
Y238043D01*
G01X514157Y236260D02*
X515940D01*
G01D02*
X517723D01*
G01X529500Y103733D02*
Y106500D01*
G01D02*
Y109267D01*
G01Y106500D02*
X532267D01*
G01X534421Y215379D02*
Y218146D01*
G01Y215379D02*
X537189D01*
G01X541284Y247417D02*
Y250184D01*
G01D02*
Y252952D01*
G01X538517Y250184D02*
X541284D01*
G01D02*
X544052D01*
G01X541284Y238917D02*
Y241684D01*
G01D02*
Y244452D01*
G01X538517Y241684D02*
X541284D01*
G01D02*
X544052D01*
G01X541284Y263417D02*
Y266184D01*
G01D02*
Y268952D01*
G01X538517Y266184D02*
X541284D01*
G01D02*
X544052D01*
G01X541284Y255417D02*
Y258184D01*
G01D02*
Y260952D01*
G01X538517Y258184D02*
X541284D01*
G01D02*
X544052D01*
G01X560200Y58233D02*
Y61000D01*
G01D02*
Y63767D01*
G01X557433Y61000D02*
X560200D01*
G01D02*
X562967D01*
G01X560200Y66233D02*
Y69000D01*
G01D02*
Y71767D01*
G01X557433Y69000D02*
X560200D01*
G01D02*
X562967D01*
G01X561000Y208217D02*
Y210000D01*
G01D02*
Y211783D01*
G01X559217Y210000D02*
X561000D01*
G01D02*
X562783D01*
G01X560500Y200217D02*
Y202000D01*
G01D02*
Y203783D01*
G01X558717Y202000D02*
X560500D01*
G01D02*
X562283D01*
G01X585200Y58233D02*
Y61000D01*
G01D02*
Y63767D01*
G01Y61000D02*
X587967D01*
G01X585200Y66233D02*
Y69000D01*
G01D02*
Y71767D01*
G01Y69000D02*
X587967D01*
G01X572945Y121288D02*
Y124055D01*
G01D02*
Y126822D01*
G01X570178Y124055D02*
X572945D01*
G01D02*
X575712D01*
G01X572945Y113288D02*
Y116055D01*
G01D02*
Y118822D01*
G01X570178Y116055D02*
X572945D01*
G01D02*
X575712D01*
G01X587945Y168788D02*
Y171555D01*
G01Y190788D02*
Y193555D01*
G01Y171555D02*
Y174322D01*
G01X585178Y171555D02*
X587945D01*
G01D02*
X590712D01*
G01X587945Y193555D02*
Y196322D01*
G01X585178Y193555D02*
X587945D01*
G01D02*
X590712D01*
G01X608844Y133200D02*
X612300D01*
G01X595945Y168788D02*
Y171555D01*
G01Y190788D02*
Y193555D01*
G01Y171555D02*
Y174322D01*
G01X593178Y171555D02*
X595945D01*
G01D02*
X598712D01*
G01X595945Y193555D02*
Y196322D01*
G01X593178Y193555D02*
X595945D01*
G01D02*
X598712D01*
G01X601984Y244517D02*
Y247284D01*
G01D02*
Y250052D01*
G01X599217Y247284D02*
X601984D01*
G01D02*
X604752D01*
G01X609784Y233917D02*
Y236684D01*
G01D02*
Y239451D01*
G01X607017Y236684D02*
X609784D01*
G01D02*
X612552D01*
G01X609784Y262417D02*
Y265184D01*
G01D02*
Y267952D01*
G01X607017Y265184D02*
X609784D01*
G01D02*
X612552D01*
G01X624200Y58233D02*
Y61000D01*
G01D02*
Y63767D01*
G01X621433Y61000D02*
X624200D01*
G01D02*
X626967D01*
G01X624200Y66233D02*
Y69000D01*
G01D02*
Y71767D01*
G01X621433Y69000D02*
X624200D01*
G01D02*
X626967D01*
G01X612300Y129744D02*
Y133200D01*
G01D02*
Y136656D01*
G01Y133200D02*
X615756D01*
G01X629500Y188733D02*
Y191500D01*
G01D02*
Y194267D01*
G01X626733Y191500D02*
X629500D01*
G01D02*
X632267D01*
G01X650200Y58233D02*
Y61000D01*
G01D02*
Y63767D01*
G01X647433Y61000D02*
X650200D01*
G01D02*
X652967D01*
G01X650200Y66233D02*
Y69000D01*
G01D02*
Y71767D01*
G01X647433Y69000D02*
X650200D01*
G01D02*
X652967D01*
G01X653233Y132000D02*
X656000D01*
G01X651500Y188733D02*
Y191500D01*
G01D02*
Y194267D01*
G01X648733Y191500D02*
X651500D01*
G01D02*
X654267D01*
G01X651417Y221784D02*
X654184D01*
G01X651517Y262084D02*
X654284D01*
G01X661000Y147233D02*
Y150000D01*
G01X660500Y139233D02*
Y142000D01*
G01D02*
Y144767D01*
G01X657733Y142000D02*
X660500D01*
G01D02*
X663267D01*
G01X656000Y129233D02*
Y132000D01*
G01D02*
Y134767D01*
G01Y132000D02*
X658767D01*
G01X661000Y150000D02*
Y152767D01*
G01X658233Y150000D02*
X661000D01*
G01D02*
X663767D01*
G01X654184Y219017D02*
Y221784D01*
G01D02*
Y224551D01*
G01Y221784D02*
X656952D01*
G01X654284Y259317D02*
Y262084D01*
G01D02*
Y264852D01*
G01Y262084D02*
X657052D01*
G01X690200Y58233D02*
Y61000D01*
G01D02*
Y63767D01*
G01X687433Y61000D02*
X690200D01*
G01Y66233D02*
Y69000D01*
G01D02*
Y71767D01*
G01X687433Y69000D02*
X690200D01*
G01X692740Y166217D02*
Y168000D01*
G01D02*
Y169783D01*
G01X690957Y168000D02*
X692740D01*
G01D02*
X694523D01*
G01X692740Y158217D02*
Y160000D01*
G01D02*
Y161783D01*
G01X690957Y160000D02*
X692740D01*
G01D02*
X694523D01*
G01X692740Y150217D02*
Y152000D01*
G01D02*
Y153783D01*
G01X690957Y152000D02*
X692740D01*
G01D02*
X694523D01*
G01X678000Y172233D02*
Y175000D01*
G01D02*
Y177767D01*
G01X675233Y175000D02*
X678000D01*
G01D02*
X680767D01*
G01X715200Y58233D02*
Y61000D01*
G01D02*
Y63767D01*
G01Y61000D02*
X717967D01*
G01X715200Y66233D02*
Y69000D01*
G01D02*
Y71767D01*
G01Y69000D02*
X717967D01*
G01X735957Y103000D02*
X737740D01*
G01X724740Y128217D02*
Y130000D01*
G01Y120217D02*
Y122000D01*
G01D02*
Y123783D01*
G01X722957Y122000D02*
X724740D01*
G01D02*
X726523D01*
G01X724740Y112217D02*
Y114000D01*
G01D02*
Y115783D01*
G01X722957Y114000D02*
X724740D01*
G01D02*
X726523D01*
G01X724740Y130000D02*
Y131783D01*
G01X722957Y130000D02*
X724740D01*
G01D02*
X726523D01*
G01X733800Y253028D02*
Y255500D01*
G01D02*
Y257972D01*
G01X731328Y255500D02*
X733800D01*
G01D02*
X736272D01*
G01X723945Y331583D02*
Y334055D01*
G01D02*
Y336527D01*
G01X721473Y334055D02*
X723945D01*
G01D02*
X726417D01*
G01X755200Y58233D02*
Y61000D01*
G01D02*
Y63767D01*
G01X752433Y61000D02*
X755200D01*
G01Y66233D02*
Y69000D01*
G01D02*
Y71767D01*
G01X752433Y69000D02*
X755200D01*
G01X737740Y101217D02*
Y103000D01*
G01D02*
Y104783D01*
G01Y103000D02*
X739523D01*
G01X745400Y171328D02*
Y173800D01*
G01D02*
Y176272D01*
G01X742928Y173800D02*
X745400D01*
G01D02*
X747872D01*
G01X777533Y133000D02*
X780300D01*
G01X778400Y190828D02*
Y193300D01*
G01D02*
Y195772D01*
G01X775928Y193300D02*
X778400D01*
G01D02*
X780872D01*
G01X787740Y106217D02*
Y108000D01*
G01Y122217D02*
Y124000D01*
G01D02*
Y125783D01*
G01X785957Y124000D02*
X787740D01*
G01D02*
X789523D01*
G01X787740Y114217D02*
Y116000D01*
G01D02*
Y117783D01*
G01X785957Y116000D02*
X787740D01*
G01D02*
X789523D01*
G01X787740Y108000D02*
Y109783D01*
G01X785957Y108000D02*
X787740D01*
G01D02*
X789523D01*
G01X780300Y130233D02*
Y133000D01*
G01D02*
Y135767D01*
G01Y133000D02*
X783067D01*
G01X783945Y331583D02*
Y334055D01*
G01D02*
Y336527D01*
G01X781473Y334055D02*
X783945D01*
G01D02*
X786417D01*
G01X830740Y53217D02*
Y55000D01*
G01D02*
Y56783D01*
G01X828957Y55000D02*
X830740D01*
G01D02*
X832523D01*
G01X831740Y88217D02*
Y90000D01*
G01D02*
Y91783D01*
G01X829957Y90000D02*
X831740D01*
G01D02*
X833523D01*
G01X841945Y331583D02*
Y334055D01*
G01D02*
Y336527D01*
G01X839473Y334055D02*
X841945D01*
G01D02*
X844417D01*
G01X857740Y38217D02*
Y40000D01*
G01D02*
Y41783D01*
G01X855957Y40000D02*
X857740D01*
G01D02*
X859523D01*
G01X857740Y30217D02*
Y32000D01*
G01D02*
Y33783D01*
G01X855957Y32000D02*
X857740D01*
G01D02*
X859523D01*
G01X902000Y331583D02*
Y334055D01*
G01D02*
Y336527D01*
G01X899528Y334055D02*
X902000D01*
G01D02*
X904472D01*
G01X963945Y331583D02*
Y334055D01*
G01D02*
Y336527D01*
G01X961473Y334055D02*
X963945D01*
G01D02*
X966417D01*
G01X983200Y14017D02*
Y15800D01*
G01D02*
Y17583D01*
G01X981417Y15800D02*
X983200D01*
G01D02*
X984983D01*
G01X980900Y4017D02*
Y5800D01*
G01D02*
Y7583D01*
G01X979117Y5800D02*
X980900D01*
G01D02*
X982683D01*
G01X971600Y6117D02*
Y7900D01*
G01D02*
Y9683D01*
G01X969817Y7900D02*
X971600D01*
G01D02*
X973383D01*
G01X978000Y43347D02*
Y47000D01*
G01D02*
Y50653D01*
G01X974347Y47000D02*
X978000D01*
G01D02*
X981653D01*
G01X978945Y77583D02*
Y80055D01*
G01D02*
Y82527D01*
G01X976473Y80055D02*
X978945D01*
G01D02*
X981417D01*
G01X978945Y107583D02*
Y110055D01*
G01D02*
Y112527D01*
G01X976473Y110055D02*
X978945D01*
G01D02*
X981417D01*
G01X978945Y137583D02*
Y140055D01*
G01D02*
Y142527D01*
G01X976473Y140055D02*
X978945D01*
G01D02*
X981417D01*
G01X978945Y167583D02*
Y170055D01*
G01D02*
Y172527D01*
G01X976473Y170055D02*
X978945D01*
G01D02*
X981417D01*
G01X978945Y197583D02*
Y200055D01*
G01D02*
Y202527D01*
G01X976473Y200055D02*
X978945D01*
G01D02*
X981417D01*
G01X978945Y227583D02*
Y230055D01*
G01D02*
Y232527D01*
G01X976473Y230055D02*
X978945D01*
G01D02*
X981417D01*
G01X978945Y257583D02*
Y260055D01*
G01D02*
Y262527D01*
G01X976473Y260055D02*
X978945D01*
G01D02*
X981417D01*
G01X978945Y287583D02*
Y290055D01*
G01D02*
Y292527D01*
G01X976473Y290055D02*
X978945D01*
G01D02*
X981417D01*
G54D12*
X50000Y210000D03*
Y230000D03*
Y250000D03*
G54D21*
X401220Y251140D03*
Y268860D03*
X428780Y251140D03*
Y268860D03*
X446220Y251140D03*
Y268860D03*
X473780Y251140D03*
Y268860D03*
X961220Y88860D03*
Y71140D03*
Y101140D03*
Y118860D03*
Y148860D03*
Y131140D03*
Y161140D03*
Y178860D03*
Y191140D03*
Y208860D03*
X961320Y221240D03*
X961220Y251140D03*
X961320Y238960D03*
X961220Y268860D03*
Y298860D03*
Y281140D03*
X988780Y71140D03*
Y88860D03*
Y101140D03*
Y118860D03*
Y131140D03*
Y148860D03*
Y161140D03*
Y178860D03*
Y191140D03*
Y208860D03*
X988880Y221240D03*
X988780Y251140D03*
X988880Y238960D03*
X988780Y268860D03*
Y281140D03*
Y298860D03*
G54D22*
X415000Y-30000D03*
X460000D03*
G54D13*
X85748Y69685D03*
Y138583D03*
Y207480D03*
Y259685D03*
Y328583D03*
Y397480D03*
X298346Y99213D03*
Y197638D03*
Y177953D03*
Y289213D03*
Y367953D03*
Y387638D03*
G54D23*
X406500Y-18000D03*
X468500D03*
G54D14*
X99200Y-35600D03*
X197600D03*
X254200D03*
X352600D03*
G54D15*
X126800Y-30000D03*
X132200Y-41200D03*
X143000D03*
X137600Y-30000D03*
X148400D03*
X153800Y-41200D03*
X164600D03*
X159200Y-30000D03*
X170000D03*
X287200Y-41200D03*
X298000D03*
X281800Y-30000D03*
X292600D03*
X308800Y-41200D03*
X319600D03*
X303400Y-30000D03*
X314200D03*
X325000D03*
G54D24*
X425000Y5000D03*
X420000Y-5000D03*
X435000Y5000D03*
X445000D03*
X430000Y-5000D03*
X440000D03*
X450000D03*
X455000Y5000D03*
G54D16*
X128000Y45000D03*
Y37000D03*
Y29000D03*
X136000Y45000D03*
Y37000D03*
Y29000D03*
X142500Y27100D03*
X184000Y1000D03*
Y9000D03*
X198000Y-60000D03*
X199000Y61000D03*
Y69000D03*
X222600Y9200D03*
X222700Y17000D03*
X266000Y7000D03*
X295500Y-23000D03*
X288000Y45000D03*
Y37000D03*
Y29000D03*
X280000Y37000D03*
Y29000D03*
X295500Y24600D03*
X315500Y4500D03*
X300500Y24700D03*
X327000Y-13000D03*
X319600Y5000D03*
X353000Y-60000D03*
X351900Y56600D03*
X358700Y59800D03*
X344657Y54094D03*
X339900Y51200D03*
X362000Y-10000D03*
Y-2000D03*
Y7000D03*
Y15000D03*
X371300Y64000D03*
Y69000D03*
X388000Y44500D03*
X396260Y39740D03*
X396000Y203800D03*
X388500Y204000D03*
X400000Y224900D03*
X391500Y262000D03*
X410000Y47000D03*
X414500Y49000D03*
X418500Y52000D03*
X402700Y59800D03*
X423000Y56100D03*
X422900Y103400D03*
X415000Y151800D03*
Y159800D03*
Y167800D03*
Y176300D03*
X423000Y198000D03*
X423200Y205800D03*
X408500Y198900D03*
X402500Y201200D03*
X425000Y-41400D03*
X428110Y56900D03*
X435990Y84210D03*
X431200Y104000D03*
X440100Y90100D03*
X441400Y214900D03*
X449000Y-41300D03*
X446240Y41500D03*
X452800Y59900D03*
X452400Y51200D03*
X449200Y48100D03*
X454000Y79800D03*
X456500Y84210D03*
X462500Y90100D03*
X464900Y127800D03*
X454000Y154300D03*
X457800Y158300D03*
X462000Y192800D03*
X477800Y31800D03*
X467260Y59000D03*
X467300Y51100D03*
X483900Y83900D03*
X484100Y90000D03*
X471000Y100800D03*
X468000Y95800D03*
X478500Y171300D03*
X479247Y175247D03*
X479751Y212649D03*
X487500Y-300D03*
X507000Y13200D03*
Y21200D03*
Y38200D03*
X494000Y61000D03*
X499000Y120000D03*
X495000Y149500D03*
X502000Y153500D03*
X499000Y151500D03*
X504500Y155562D03*
X494500Y199400D03*
X492706Y202806D03*
X497800Y228100D03*
X515500Y33000D03*
X516000Y29000D03*
X517000Y40000D03*
X508000Y104000D03*
X512768Y111032D03*
X510799Y114999D03*
X517600Y148000D03*
X520900Y145000D03*
X513700Y183700D03*
X510700Y181600D03*
X516800Y185400D03*
X519600Y187500D03*
X508000Y177000D03*
X519700Y202800D03*
X523700Y199600D03*
X515940Y236260D03*
X530200Y81400D03*
X534200Y89800D03*
X536500Y91900D03*
X543400Y190995D03*
X546258Y207200D03*
X540327D03*
X543400Y197898D03*
X543292Y207200D03*
X543400Y194932D03*
X553400Y85100D03*
X565526Y82026D03*
X560100Y107100D03*
X555087Y88787D03*
X560000Y125700D03*
X553500Y202000D03*
X553000Y210000D03*
X560500Y202000D03*
X561000Y210000D03*
X566700Y234800D03*
X567500Y246900D03*
X570000Y242000D03*
X573000Y13100D03*
Y13260D03*
X573040Y20740D03*
X581100Y32900D03*
X573000Y38200D03*
X582000Y29600D03*
X582500Y39300D03*
X581000Y96300D03*
Y143600D03*
X589500Y157531D03*
X582500Y230200D03*
X573300Y232000D03*
X570500Y233700D03*
X576100Y230200D03*
Y252000D03*
X579800Y236900D03*
X579600Y242000D03*
X582500Y257000D03*
X572800Y256900D03*
X592400Y154500D03*
X602100Y213100D03*
X611300Y205600D03*
X604700Y210700D03*
X608400Y208100D03*
X599300Y215500D03*
X614400Y201200D03*
X617900Y196400D03*
X638000Y13100D03*
Y21000D03*
X646900Y33000D03*
X637900Y37900D03*
X650000Y28900D03*
X649000Y39800D03*
X646484Y169116D03*
X644161Y164639D03*
X660000Y83100D03*
X670000Y83300D03*
X665000Y168600D03*
X664900Y163500D03*
X658584Y183600D03*
X663402Y188502D03*
X659925Y180825D03*
X661500Y191061D03*
X675100Y201661D03*
X670200Y206800D03*
X672817Y204627D03*
X665200Y212000D03*
X667600Y209500D03*
X675100Y196543D03*
X680000Y83200D03*
X692740Y152000D03*
Y160000D03*
Y168000D03*
X678500Y159100D03*
X682000Y185943D03*
X681400Y216300D03*
X695600Y224329D03*
X689200Y219100D03*
X685700Y222100D03*
X703100Y12200D03*
X702900Y19900D03*
X712300Y33200D03*
X702800Y37000D03*
X717100Y29100D03*
X710300Y41400D03*
X702300Y94200D03*
X715700Y96400D03*
X710900Y91800D03*
X704600Y211500D03*
X708107Y214093D03*
X737740Y103000D03*
X724740Y114000D03*
Y122000D03*
Y130000D03*
X764126Y224300D03*
X767091D03*
X761160D03*
X770057D03*
X787740Y108000D03*
Y116000D03*
Y124000D03*
X787640Y132900D03*
X782852Y142348D03*
X822000Y3300D03*
X801300Y3000D03*
X811621Y193620D03*
X830500Y14000D03*
X825700Y6500D03*
X828600Y9700D03*
X830740Y55000D03*
X831740Y90000D03*
X838112Y162912D03*
X857740Y32000D03*
Y40000D03*
X843747Y160353D03*
X971600Y7900D03*
X980900Y5800D03*
X983200Y15800D03*
X1001000Y33900D03*
X1001100Y26200D03*
G54D25*
X426000Y24000D03*
X416000D03*
X459000D03*
X449000D03*
G54D26*
X450000Y206953D03*
Y201047D03*
G54D17*
X286000Y122000D03*
Y130000D03*
X298000Y140000D03*
X290000D03*
X294000Y148000D03*
X286000D03*
X310000Y114000D03*
Y122000D03*
X306000Y140000D03*
X310000Y148000D03*
X302000D03*
X339000Y88000D03*
X331000D03*
X362000Y150000D03*
X372000D03*
X382000D03*
X362000Y160000D03*
X372000D03*
X382000D03*
Y170000D03*
X372000D03*
X362000D03*
X392000Y150000D03*
Y160000D03*
Y170000D03*
X411600Y358200D03*
X430900Y65800D03*
X439100Y74300D03*
X430800Y74200D03*
X435000Y70000D03*
X443945Y314055D03*
X463900Y358000D03*
X495445Y314055D03*
X512200Y61000D03*
X520200D03*
X512200Y69000D03*
X519200D03*
X513600Y358000D03*
X538900Y-32200D03*
X544400Y-11500D03*
X547500Y18700D03*
X529500Y106500D03*
X529945Y116055D03*
Y123555D03*
X530484Y211784D03*
X534421Y215379D03*
X541284Y241684D03*
Y250184D03*
Y258184D03*
Y266184D03*
X544945Y314055D03*
X555400Y-11600D03*
X552500Y19400D03*
X567700Y61000D03*
X560200D03*
X567700Y69000D03*
X560200D03*
X565445Y116055D03*
Y124055D03*
X563600Y358000D03*
X578200Y61000D03*
X585200D03*
X578200Y69000D03*
X585200D03*
X572945Y116055D03*
Y124055D03*
X587945Y164055D03*
Y171555D03*
Y186055D03*
Y193555D03*
X603000Y-31716D03*
X610000Y-11000D03*
X612500Y18900D03*
X595945Y164055D03*
Y171555D03*
Y186055D03*
Y193555D03*
X601884Y254884D03*
X609784Y236684D03*
X601984Y247284D03*
X609784Y265184D03*
X596055Y314055D03*
X613100Y358000D03*
X620000Y-11000D03*
X617500Y20000D03*
X632200Y61000D03*
X624200D03*
X632200Y69000D03*
X624200D03*
X622100Y183200D03*
Y190900D03*
X629500Y191500D03*
X642200Y61000D03*
X650200D03*
X642200Y69000D03*
X650200D03*
X653000Y142000D03*
Y150000D03*
X643900Y183400D03*
Y190900D03*
X651500Y191500D03*
X654184Y221784D03*
X654284Y262084D03*
X645445Y314055D03*
X668900Y-32200D03*
X674400Y-11500D03*
X660500Y142000D03*
X661000Y150000D03*
X656000Y132000D03*
X685400Y-11600D03*
X677500Y18700D03*
X682500Y19400D03*
X690200Y61000D03*
Y69000D03*
X678000Y175000D03*
X681445Y335055D03*
X708200Y61000D03*
X697200D03*
X715200D03*
X708200Y69000D03*
X697200D03*
X715200D03*
X733900Y-32200D03*
X730200Y165900D03*
Y190500D03*
X730300Y182000D03*
X738300Y174000D03*
X739400Y-11500D03*
X750400Y-11600D03*
X742500Y18700D03*
X747500Y19400D03*
X755200Y61000D03*
Y69000D03*
X744700Y103000D03*
X741445Y335055D03*
X762200Y61000D03*
Y69000D03*
X780300Y133000D03*
X785500Y193500D03*
X801445Y335055D03*
X850200Y40000D03*
Y32000D03*
X861445Y335055D03*
X920945D03*
X969800Y-29900D03*
X963600Y-15400D03*
X1001100Y-30100D03*
G54D18*
X357402Y233228D03*
Y225354D03*
Y256850D03*
Y248976D03*
Y241102D03*
X365276Y233228D03*
Y225354D03*
Y256850D03*
Y248976D03*
Y241102D03*
X978000Y27000D03*
X988000D03*
X978000Y47000D03*
Y37000D03*
X988000Y47000D03*
Y37000D03*
G54D27*
X612300Y113200D03*
Y123200D03*
Y133200D03*
Y143200D03*
G54D19*
X366000Y90000D03*
X372000Y96000D03*
X376000Y102000D03*
X380000Y108000D03*
X382000Y130000D03*
X381354Y225354D03*
X384000Y102000D03*
X388000Y108000D03*
X396000Y124000D03*
X390000Y130000D03*
X396000Y114000D03*
X409260Y-49000D03*
X413100Y35900D03*
X413950Y77550D03*
X403450Y87050D03*
X413500Y84000D03*
X413450Y92050D03*
X418354Y268354D03*
X435000Y-34000D03*
X465740Y-49000D03*
X463354Y268354D03*
X474650Y42950D03*
X474750Y67050D03*
X474550Y51050D03*
X474450Y74950D03*
X468900Y225300D03*
X484154Y236154D03*
X469900Y235300D03*
X491750Y41150D03*
X658000Y216000D03*
X729800Y229000D03*
X729400Y224300D03*
X718300Y256000D03*
X733800Y255500D03*
X718300Y272000D03*
Y264000D03*
X723945Y334055D03*
X747100Y165900D03*
X754700D03*
X755200Y181900D03*
X745400Y173800D03*
X778400Y193300D03*
X770100Y247400D03*
X770300Y255200D03*
X783945Y334055D03*
X838900Y89800D03*
X841945Y334055D03*
X849500Y61300D03*
X854500Y97200D03*
X856745Y194755D03*
X856645Y211855D03*
X876445Y211955D03*
Y219755D03*
X902000Y334055D03*
X917845Y133355D03*
Y141355D03*
Y149355D03*
Y157355D03*
Y165355D03*
Y173355D03*
Y181355D03*
Y188855D03*
X963945Y334055D03*
X978945Y80055D03*
Y110055D03*
Y140055D03*
Y170055D03*
Y200055D03*
Y230055D03*
Y260055D03*
Y290055D03*
G54D28*
X833000Y194300D03*
Y213300D03*
G54D29*
X907500Y32433D03*
Y111567D03*
M02*
