G04 ================== begin FILE IDENTIFICATION RECORD ==================*
G04 Layout Name:  G:/lwj/My project/PCB/tunnel lighting/allegro/tunnel lighting2.brd*
G04 Film Name:    SOLDERMASK_BOTTOM*
G04 File Format:  Gerber RS274X*
G04 File Origin:  Cadence Allegro 16.5-P002*
G04 Origin Date:  Sat Oct 27 20:20:57 2012*
G04 *
G04 Layer:  VIA CLASS/SOLDERMASK_BOTTOM*
G04 Layer:  PIN/SOLDERMASK_BOTTOM*
G04 Layer:  PACKAGE GEOMETRY/SOLDERMASK_BOTTOM*
G04 Layer:  BOARD GEOMETRY/OUTLINE*
G04 Layer:  BOARD GEOMETRY/SOLDERMASK_BOTTOM*
G04 *
G04 Offset:    (0.000 0.000)*
G04 Mirror:    No*
G04 Mode:      Positive*
G04 Rotation:  0*
G04 FullContactRelief:  No*
G04 UndefLineWidth:     0.000*
G04 ================== end FILE IDENTIFICATION RECORD ====================*
%FSLAX25Y25*MOIN*%
%IR0*IPPOS*OFA0.00000B0.00000*MIA0B0*SFA1.00000B1.00000*%
%ADD27C,.132*%
%ADD17C,.154*%
%ADD10C,.145*%
%ADD15C,.141732*%
%ADD16R,.141732X.141732*%
%AMMACRO23*
4,1,44,-.037402,-.020669,
-.037402,.020669,
-.037343,.021353,
-.037165,.022016,
-.036876,.022639,
-.036482,.023201,
-.035997,.023687,
-.035435,.024081,
-.034813,.024372,
-.03415,.02455,
-.033466,.02461,
-.033461,.02461,
.033461,.02461,
.034145,.024551,
.034808,.024373,
.035431,.024084,
.035993,.02369,
.036479,.023205,
.036873,.022643,
.037164,.022021,
.037342,.021358,
.037402,.020674,
.037402,.020669,
.037402,-.020669,
.037343,-.021353,
.037165,-.022016,
.036876,-.022639,
.036482,-.023201,
.035997,-.023687,
.035435,-.024081,
.034813,-.024372,
.03415,-.02455,
.033466,-.02461,
.033461,-.02461,
-.033461,-.02461,
-.034145,-.024551,
-.034808,-.024373,
-.035431,-.024084,
-.035993,-.02369,
-.036479,-.023205,
-.036873,-.022643,
-.037164,-.022021,
-.037342,-.021358,
-.037402,-.020674,
-.037402,-.020669,
0.0*
%
%ADD23MACRO23*%
%ADD22R,.044X.064*%
%ADD18C,.07*%
%ADD26C,.062*%
%ADD36C,.063*%
%ADD35C,.065*%
%ADD30C,.077*%
%ADD19R,.07X.07*%
%ADD29C,.069*%
%ADD28C,.088*%
%ADD33C,.035433*%
%ADD31O,.023622X.061417*%
%ADD13C,.090551*%
%ADD32R,.069X.069*%
%ADD34O,.072835X.023622*%
%ADD14R,.090551X.090551*%
%ADD24C,.062992*%
%ADD11C,.082677*%
%ADD21R,.055118X.062992*%
%ADD25R,.062992X.062992*%
%ADD20R,.062992X.055118*%
%ADD12R,.082677X.082677*%
%LPD*%
G75*
G54D10*
X55000Y-55000D03*
Y405000D03*
X338800Y409200D03*
X500000Y-55000D03*
X990000D03*
Y405000D03*
G54D20*
X198000Y-59740D03*
Y-52260D03*
X255000Y141260D03*
Y148740D03*
X275000Y118740D03*
Y111260D03*
Y138740D03*
Y131260D03*
Y293740D03*
Y286260D03*
Y313740D03*
Y306260D03*
X312400Y330240D03*
Y322760D03*
X353000Y-59740D03*
Y-52260D03*
X413500Y76760D03*
Y84240D03*
X433000Y-41260D03*
Y-48740D03*
X441000Y-41260D03*
Y-48740D03*
X425000Y-41260D03*
Y-48740D03*
X449000Y-41260D03*
Y-48740D03*
X507000Y21260D03*
Y28740D03*
Y38260D03*
Y45740D03*
X493000Y169260D03*
X501000D03*
X493000Y176740D03*
X501000D03*
X500000Y196260D03*
Y203740D03*
X508000Y196260D03*
Y203740D03*
X573000Y21260D03*
Y28740D03*
Y38260D03*
Y45740D03*
X638000Y21260D03*
Y28740D03*
Y38260D03*
Y45740D03*
X703000Y20260D03*
Y27740D03*
Y37260D03*
Y44740D03*
X755100Y181740D03*
Y174260D03*
X776500Y209240D03*
Y201760D03*
X786000Y177760D03*
Y185240D03*
X784500Y209240D03*
Y201760D03*
X840000Y207740D03*
Y200260D03*
G54D11*
X52548Y10372D03*
X429528Y405748D03*
X479528D03*
X530472Y-55748D03*
X529528Y405748D03*
X579528D03*
X595472Y-55748D03*
X629528Y405748D03*
X660472Y-55748D03*
X719528Y405748D03*
X725472Y-55748D03*
X779528Y405748D03*
X809528Y-54252D03*
X839528Y405748D03*
X859528Y-54252D03*
X899528Y405748D03*
X914528Y-54252D03*
X964528D03*
X959528Y405748D03*
G54D12*
X52548Y30057D03*
X409843Y405748D03*
X459843D03*
X509843D03*
X550158Y-55748D03*
X559843Y405748D03*
X615158Y-55748D03*
X609843Y405748D03*
X680158Y-55748D03*
X699842Y405748D03*
X745158Y-55748D03*
X759843Y405748D03*
X789842Y-54252D03*
X819842Y405748D03*
X839842Y-54252D03*
X879842Y405748D03*
X894842Y-54252D03*
X944842D03*
X939842Y405748D03*
G54D21*
X256260Y125000D03*
Y305000D03*
Y315000D03*
X263740Y125000D03*
Y305000D03*
Y315000D03*
X324260Y88000D03*
X331740D03*
X409260Y-49000D03*
X416740D03*
X411260Y268000D03*
X418740D03*
X465740Y-49000D03*
X458260D03*
X456260Y268000D03*
X463740D03*
X487240Y-500D03*
X479760D03*
Y7500D03*
X487240D03*
X479260Y225000D03*
X486740D03*
X553260Y210000D03*
X560740D03*
X553260Y202000D03*
X560740D03*
X654260Y230000D03*
Y222000D03*
Y254000D03*
Y246000D03*
Y238000D03*
Y262000D03*
X661740Y230000D03*
Y222000D03*
Y254000D03*
Y246000D03*
Y238000D03*
Y262000D03*
X730260Y166000D03*
X737740D03*
X738260Y174000D03*
X730260Y182000D03*
X737740D03*
X730260Y190000D03*
X737740D03*
X747360Y166000D03*
X754840D03*
X745740Y174000D03*
X778260Y193500D03*
X785740D03*
X971260Y80000D03*
X978740D03*
X971260Y110000D03*
X978740D03*
X971260Y140000D03*
X978740D03*
X971260Y170000D03*
X978740D03*
X971260Y200000D03*
X978740D03*
X971260Y230000D03*
X978740D03*
X971260Y260000D03*
X978740D03*
X971260Y290000D03*
X978740D03*
G54D30*
X426000Y24000D03*
X416000D03*
X459000D03*
X449000D03*
G54D13*
X50000Y210000D03*
Y230000D03*
G54D31*
X437559Y-16575D03*
X435000D03*
X432441D03*
Y-23425D03*
X435000D03*
X437559D03*
G54D22*
X296000Y314500D03*
Y304500D03*
G54D14*
X50000Y250000D03*
G54D32*
X455000Y5000D03*
G54D23*
X322900Y332110D03*
Y320890D03*
G54D24*
X357402Y233228D03*
Y225354D03*
Y256850D03*
Y248976D03*
Y241102D03*
X365276Y233228D03*
Y256850D03*
Y248976D03*
Y241102D03*
X612300Y113200D03*
Y123200D03*
Y133200D03*
Y143200D03*
X978000Y27000D03*
Y47000D03*
Y37000D03*
X988000Y47000D03*
Y37000D03*
G54D33*
X450000Y206953D03*
Y201047D03*
G54D15*
X85748Y69685D03*
Y138583D03*
Y259685D03*
Y328583D03*
X298346Y99213D03*
Y197638D03*
Y177953D03*
Y289213D03*
Y367953D03*
Y387638D03*
G54D25*
X365276Y225354D03*
X988000Y27000D03*
G54D34*
X629978Y211898D03*
Y209339D03*
Y206780D03*
Y204220D03*
Y201661D03*
Y199102D03*
Y196543D03*
Y214457D03*
X652222Y196543D03*
Y199102D03*
Y201661D03*
Y204220D03*
Y206780D03*
Y209339D03*
Y211898D03*
Y214457D03*
G54D16*
X85748Y207480D03*
Y397480D03*
G54D35*
X833000Y194300D03*
Y213300D03*
G54D26*
X401220Y251140D03*
Y268860D03*
X428780Y251140D03*
Y268860D03*
X446220Y251140D03*
Y268860D03*
X473780Y251140D03*
Y268860D03*
X961220Y88860D03*
Y71140D03*
Y101140D03*
Y118860D03*
Y148860D03*
Y131140D03*
Y161140D03*
Y178860D03*
Y191140D03*
Y208860D03*
X961320Y221240D03*
X961220Y251140D03*
X961320Y238960D03*
X961220Y268860D03*
Y298860D03*
Y281140D03*
X988780Y71140D03*
Y88860D03*
Y101140D03*
Y118860D03*
Y131140D03*
Y148860D03*
Y161140D03*
Y178860D03*
Y191140D03*
Y208860D03*
X988880Y221240D03*
X988780Y251140D03*
X988880Y238960D03*
X988780Y268860D03*
Y281140D03*
Y298860D03*
G54D17*
X99200Y-35600D03*
X197600D03*
X254200D03*
X352600D03*
G54D36*
X907500Y32433D03*
Y111567D03*
G54D18*
X126800Y-30000D03*
X132200Y-41200D03*
X143000D03*
X137600Y-30000D03*
X148400D03*
X153800Y-41200D03*
X164600D03*
X159200Y-30000D03*
X287200Y-41200D03*
X298000D03*
X281800Y-30000D03*
X292600D03*
X308800Y-41200D03*
X319600D03*
X303400Y-30000D03*
X314200D03*
G54D27*
X415000D03*
X460000D03*
G54D28*
X406500Y-18000D03*
X468500D03*
G54D19*
X170000Y-30000D03*
X325000D03*
G54D29*
X425000Y5000D03*
X420000Y-5000D03*
X435000Y5000D03*
X445000D03*
X430000Y-5000D03*
X440000D03*
X450000D03*
M02*
