G04 ================== begin FILE IDENTIFICATION RECORD ==================*
G04 Layout Name:  quadcopter_0_1.brd*
G04 Film Name:    SOLDERMASK_TOP*
G04 File Format:  Gerber RS274X*
G04 File Origin:  Cadence Allegro 16.6-S005*
G04 Origin Date:  Sun Aug 17 16:05:41 2014*
G04 *
G04 Layer:  VIA CLASS/SOLDERMASK_TOP*
G04 Layer:  PIN/SOLDERMASK_TOP*
G04 Layer:  PACKAGE GEOMETRY/SOLDERMASK_TOP*
G04 Layer:  BOARD GEOMETRY/OUTLINE*
G04 Layer:  BOARD GEOMETRY/SOLDERMASK_TOP*
G04 *
G04 Offset:    (0.000 0.000)*
G04 Mirror:    No*
G04 Mode:      Positive*
G04 Rotation:  0*
G04 FullContactRelief:  No*
G04 UndefLineWidth:     0.000*
G04 ================== end FILE IDENTIFICATION RECORD ====================*
%FSLAX25Y25*MOIN*%
%IR0*IPPOS*OFA0.00000B0.00000*MIA0B0*SFA1.00000B1.00000*%
%AMMACRO19*
4,1,44,.018701,-.004921,
.018701,.004921,
.018641,.005605,
.018464,.006268,
.018174,.006889,
.01778,.007452,
.017295,.007937,
.016733,.008331,
.016111,.008621,
.015448,.008798,
.014764,.008858,
.014764,.008858,
-.014764,.008858,
-.015448,.008798,
-.016111,.008621,
-.016732,.008331,
-.017295,.007937,
-.01778,.007452,
-.018174,.00689,
-.018464,.006268,
-.018641,.005605,
-.018701,.004921,
-.018701,.004921,
-.018701,-.004921,
-.018641,-.005605,
-.018464,-.006268,
-.018174,-.006889,
-.01778,-.007452,
-.017295,-.007937,
-.016733,-.008331,
-.016111,-.008621,
-.015448,-.008798,
-.014764,-.008858,
-.014764,-.008858,
.014764,-.008858,
.015448,-.008798,
.016111,-.008621,
.016732,-.008331,
.017295,-.007937,
.01778,-.007452,
.018174,-.00689,
.018464,-.006268,
.018641,-.005605,
.018701,-.004921,
.018701,-.004921,
0.0*
%
%ADD19MACRO19*%
%AMMACRO18*
4,1,44,-.004921,-.018701,
.004921,-.018701,
.005605,-.018641,
.006268,-.018464,
.006889,-.018174,
.007452,-.01778,
.007937,-.017295,
.008331,-.016733,
.008621,-.016111,
.008798,-.015448,
.008858,-.014764,
.008858,-.014764,
.008858,.014764,
.008798,.015448,
.008621,.016111,
.008331,.016732,
.007937,.017295,
.007452,.01778,
.00689,.018174,
.006268,.018464,
.005605,.018641,
.004921,.018701,
.004921,.018701,
-.004921,.018701,
-.005605,.018641,
-.006268,.018464,
-.006889,.018174,
-.007452,.01778,
-.007937,.017295,
-.008331,.016733,
-.008621,.016111,
-.008798,.015448,
-.008858,.014764,
-.008858,.014764,
-.008858,-.014764,
-.008798,-.015448,
-.008621,-.016111,
-.008331,-.016732,
-.007937,-.017295,
-.007452,-.01778,
-.00689,-.018174,
-.006268,-.018464,
-.005605,-.018641,
-.004921,-.018701,
-.004921,-.018701,
0.0*
%
%ADD18MACRO18*%
%ADD10C,.145*%
%AMMACRO24*
4,1,44,-.070866,.016732,
-.070866,-.016732,
-.070806,-.017416,
-.070629,-.018078,
-.070339,-.0187,
-.069945,-.019263,
-.06946,-.019748,
-.068898,-.020141,
-.068276,-.020432,
-.067613,-.020609,
-.066929,-.020669,
-.066929,-.020669,
.066929,-.020669,
.067613,-.020609,
.068275,-.020432,
.068897,-.020142,
.06946,-.019748,
.069945,-.019263,
.070338,-.018701,
.070629,-.018079,
.070806,-.017416,
.070866,-.016732,
.070866,-.016732,
.070866,.016732,
.070806,.017416,
.070629,.018078,
.070339,.0187,
.069945,.019263,
.06946,.019748,
.068898,.020141,
.068276,.020432,
.067613,.020609,
.066929,.020669,
.066929,.020669,
-.066929,.020669,
-.067613,.020609,
-.068275,.020432,
-.068897,.020142,
-.06946,.019748,
-.069945,.019263,
-.070338,.018701,
-.070629,.018079,
-.070806,.017416,
-.070866,.016732,
-.070866,.016732,
0.0*
%
%ADD24MACRO24*%
%ADD25R,.036X.043*%
%ADD23R,.016X.036*%
%ADD22R,.043X.036*%
%ADD20R,.036X.016*%
%ADD30C,.032*%
%ADD27C,.042*%
%ADD29R,.063X.047*%
%ADD26C,.044*%
%ADD17O,.049X.039*%
%ADD13O,.039X.049*%
%ADD28R,.042X.042*%
%ADD21R,.044X.044*%
%ADD16O,.072835X.023622*%
%ADD14C,.070866*%
%ADD11C,.062992*%
%ADD15R,.070866X.070866*%
%ADD12R,.062992X.062992*%
G75*
%LPD*%
G75*
G36*
G01X75066Y75066D02*
Y83334D01*
X83334D01*
Y75066D01*
X75066D01*
G37*
G54D10*
X0Y0D03*
Y177200D03*
X177200Y0D03*
Y177200D03*
G54D11*
X3200Y77200D03*
Y67200D03*
X13200Y77200D03*
X3200Y97200D03*
Y87200D03*
X13200Y97200D03*
Y87200D03*
X3200Y117200D03*
Y107200D03*
X13200Y117200D03*
Y107200D03*
X3200Y137200D03*
Y127200D03*
X13200Y137200D03*
Y127200D03*
G54D20*
X100080Y97463D03*
Y105337D03*
Y103369D03*
Y101400D03*
Y99431D03*
X110120Y97463D03*
Y99431D03*
Y101400D03*
Y103369D03*
Y105337D03*
G54D12*
X13200Y67200D03*
G54D21*
X90000Y176000D03*
Y182000D03*
X96000Y176000D03*
Y182000D03*
X102000Y176000D03*
Y182000D03*
X108000Y176000D03*
Y182000D03*
X140200Y20200D03*
X146200D03*
X159300Y18300D03*
X165300D03*
X164200Y117200D03*
X170200D03*
G54D30*
X179200Y129854D03*
Y136546D03*
G54D13*
X32200Y75200D03*
Y81200D03*
Y87200D03*
Y93200D03*
Y99200D03*
Y105200D03*
Y111200D03*
Y117200D03*
X48200Y64200D03*
X54200D03*
X38200Y75200D03*
X48200Y89200D03*
X54200D03*
X48200Y83200D03*
X54200D03*
X38200Y81200D03*
Y87200D03*
Y93200D03*
Y99200D03*
Y105200D03*
Y111200D03*
Y117200D03*
X77200Y98200D03*
X71200D03*
X66200Y91200D03*
X60200D03*
X66200Y96200D03*
X60200D03*
X77200Y113200D03*
X71200D03*
X77200Y108200D03*
X71200D03*
X77200Y103200D03*
X71200D03*
X94200Y29200D03*
X88200D03*
Y35200D03*
X94200D03*
X99800Y51800D03*
X93800D03*
X96200Y121200D03*
Y127200D03*
X92700Y132700D03*
X86700D03*
X92700Y138200D03*
X86700D03*
X117800Y55800D03*
X120200Y74200D03*
X102200Y78200D03*
X108200D03*
X120200Y80200D03*
X102200Y121200D03*
Y127200D03*
X118700Y132200D03*
X112700D03*
X118700Y126700D03*
X112700D03*
X141200Y37200D03*
Y32200D03*
X140200Y26200D03*
X141200Y46200D03*
Y51200D03*
Y56200D03*
X123800Y55800D03*
X126200Y74200D03*
X137200Y77200D03*
X131200D03*
X126200Y80200D03*
X137200Y82200D03*
X131200D03*
X147200Y37200D03*
Y32200D03*
X146200Y26200D03*
X159300Y27300D03*
X147200Y46200D03*
Y51200D03*
Y56200D03*
X153200Y102200D03*
X159200D03*
X148800Y107800D03*
X154800D03*
X165300Y27300D03*
X178200Y37200D03*
X172200D03*
X170200Y111200D03*
X164200D03*
X182200Y117200D03*
X176200D03*
X170200Y123200D03*
X164200D03*
G54D22*
X120483Y69200D03*
X125917D03*
G54D14*
X50800Y800D03*
Y10800D03*
X40000Y180000D03*
Y170000D03*
X50000Y180000D03*
Y170000D03*
X60000Y180000D03*
Y170000D03*
X80800Y800D03*
Y10800D03*
X70800Y800D03*
Y10800D03*
X60800Y800D03*
Y10800D03*
X70000Y180000D03*
Y170000D03*
X100800Y800D03*
Y10800D03*
X90800Y800D03*
Y10800D03*
X120800Y800D03*
Y10800D03*
X110800Y800D03*
Y10800D03*
X120900Y169500D03*
X130900D03*
X140900D03*
G54D23*
X103131Y96380D03*
X105100D03*
X107069D03*
Y106420D03*
X105100D03*
X103131D03*
G54D15*
X50800Y20800D03*
X40000Y160000D03*
X50000D03*
X60000D03*
X80800Y20800D03*
X70800D03*
X60800D03*
X70000Y160000D03*
X100800Y20800D03*
X90800D03*
X120800D03*
X110800D03*
X150900Y169500D03*
G54D24*
X137200Y-5166D03*
Y11566D03*
G54D16*
X54078Y31523D03*
Y34082D03*
Y36641D03*
Y39200D03*
Y41759D03*
Y44318D03*
Y46877D03*
X76322Y34082D03*
Y31523D03*
Y46877D03*
Y44318D03*
Y41759D03*
Y39200D03*
Y36641D03*
X108078Y31523D03*
Y34082D03*
Y36641D03*
Y39200D03*
Y41759D03*
Y44318D03*
Y46877D03*
X130322Y34082D03*
Y31523D03*
Y46877D03*
Y44318D03*
Y41759D03*
Y39200D03*
Y36641D03*
X156078Y43684D03*
Y46243D03*
Y48802D03*
Y51361D03*
Y53921D03*
Y56479D03*
Y59039D03*
Y61598D03*
Y64157D03*
Y66716D03*
X178322Y56479D03*
Y53921D03*
Y51361D03*
Y48802D03*
Y46243D03*
Y43684D03*
Y66716D03*
Y64157D03*
Y61598D03*
Y59039D03*
G54D25*
X131200Y66483D03*
Y71917D03*
G54D17*
X48200Y76200D03*
Y70200D03*
X54200D03*
Y76200D03*
X47800Y111800D03*
Y105800D03*
X42800Y111800D03*
Y105800D03*
X41700Y135700D03*
Y129700D03*
X47700Y135700D03*
Y129700D03*
X89200Y121200D03*
Y127200D03*
X135800Y52800D03*
Y58800D03*
X125700Y110500D03*
Y104500D03*
X131800Y104400D03*
Y110400D03*
X149200Y76700D03*
Y70700D03*
X154200Y78200D03*
Y72200D03*
X154800Y128800D03*
Y122800D03*
X167200Y136200D03*
Y130200D03*
G54D26*
X180800Y25300D03*
G54D27*
X174500Y82900D03*
Y87900D03*
Y92900D03*
Y97900D03*
X179500Y87900D03*
Y92900D03*
Y97900D03*
X174500Y102900D03*
X179500D03*
G54D18*
X75361Y71424D03*
Y86976D03*
X83039Y71424D03*
X80479D03*
X77920D03*
Y86976D03*
X80479D03*
X83039D03*
G54D28*
X179500Y82900D03*
G54D19*
X71424Y75361D03*
Y77920D03*
Y80479D03*
Y83039D03*
X86976Y75361D03*
Y83039D03*
Y80479D03*
Y77920D03*
G54D29*
X179200Y125228D03*
Y141172D03*
M02*
