G04 ================== begin FILE IDENTIFICATION RECORD ==================*
G04 Layout Name:  quadcopter_0_1.brd*
G04 Film Name:    BOTTOM*
G04 File Format:  Gerber RS274X*
G04 File Origin:  Cadence Allegro 16.6-S005*
G04 Origin Date:  Sun Aug 17 16:05:41 2014*
G04 *
G04 Layer:  BOARD GEOMETRY/OUTLINE*
G04 Layer:  ETCH/BOTTOM*
G04 Layer:  PIN/BOTTOM*
G04 Layer:  VIA CLASS/BOTTOM*
G04 *
G04 Offset:    (0.000 0.000)*
G04 Mirror:    No*
G04 Mode:      Positive*
G04 Rotation:  0*
G04 FullContactRelief:  No*
G04 UndefLineWidth:     6.000*
G04 ================== end FILE IDENTIFICATION RECORD ====================*
%FSLAX25Y25*MOIN*%
%IR0*IPPOS*OFA0.00000B0.00000*MIA0B0*SFA1.00000B1.00000*%
%ADD23R,.011X.056*%
%ADD21R,.056X.011*%
%ADD20O,.045X.035*%
%ADD28C,.01*%
%ADD13O,.035X.045*%
%ADD24R,.032X.039*%
%ADD25R,.039X.032*%
%ADD12R,.055X.08*%
%ADD11C,.025*%
%ADD26C,.038*%
%ADD27R,.038X.038*%
%ADD14C,.021654*%
%ADD10C,.035433*%
%ADD15C,.041339*%
%ADD22C,.025591*%
%ADD16C,.059055*%
%ADD17R,.059055X.059055*%
%ADD18C,.066929*%
%ADD19R,.066929X.066929*%
%ADD29C,.006*%
%ADD30C,.008*%
%ADD31C,.02*%
%ADD32C,.012*%
G75*
%LPD*%
G75*
G36*
G01X-5419Y47624D02*
X-6247Y48453D01*
X-7650Y47200D01*
X-6247Y45947D01*
X-5419Y46776D01*
G03Y47624I-424J424D01*
G37*
G36*
G01X19367Y39261D02*
X15950Y42685D01*
X13050Y38893D01*
X15950Y35101D01*
X19367Y38525D01*
G03Y39261I-474J368D01*
G37*
G36*
G01X6593Y55118D02*
X10450Y51507D01*
X13350Y55507D01*
X10450Y59507D01*
X6593Y55896D01*
G03Y55118I457J-389D01*
G37*
G36*
G01X15553Y80153D02*
X13200Y80153D01*
X13094Y77094D01*
X16153Y77200D01*
X16153Y79553D01*
G03X15553Y80153I-600J0D01*
G37*
G36*
G01X16952Y87624D02*
X15288Y89288D01*
X13050Y87200D01*
X15288Y85112D01*
X16952Y86776D01*
G03Y87624I-424J424D01*
G37*
G36*
G01X16153Y94847D02*
X16153Y97200D01*
X13094Y97306D01*
X13200Y94247D01*
X15553Y94247D01*
G03X16153Y94847I0J600D01*
G37*
G36*
G01Y104847D02*
X16153Y107200D01*
X13094Y107306D01*
X13200Y104247D01*
X15553Y104247D01*
G03X16153Y104847I0J600D01*
G37*
G36*
G01Y114847D02*
X16153Y117200D01*
X13094Y117306D01*
X13200Y114247D01*
X15553Y114247D01*
G03X16153Y114847I0J600D01*
G37*
G36*
G01Y124847D02*
X16153Y127200D01*
X13094Y127306D01*
X13200Y124247D01*
X15553Y124247D01*
G03X16153Y124847I0J600D01*
G37*
G36*
G01Y134847D02*
X16153Y137200D01*
X13094Y137306D01*
X13200Y134247D01*
X15553Y134247D01*
G03X16153Y134847I0J600D01*
G37*
G36*
G01X32938Y44233D02*
X31551Y42893D01*
X33200Y38743D01*
X34849Y42893D01*
X33462Y44233D01*
G03X32938I-262J-540D01*
G37*
G36*
G01X33850Y83450D02*
X32200Y83450D01*
X32094Y81094D01*
X33934Y80564D01*
X34434Y82714D01*
G03X33850Y83450I-584J136D01*
G37*
G36*
G01X34658Y88531D02*
X33531D01*
X32068Y87129D01*
X33838Y86351D01*
X35146Y88183D01*
X34658Y88531D01*
G37*
G36*
G01X33950Y114750D02*
X33950Y116700D01*
X32136Y117336D01*
X31857Y115058D01*
X33007Y114258D01*
G03X33950Y114750I343J492D01*
G37*
G36*
G01X34384Y109823D02*
X33284Y111973D01*
X32094Y111306D01*
X32200Y108950D01*
X33850Y108950D01*
G03X34384Y109823I0J600D01*
G37*
G36*
G01X49080Y105120D02*
X49079Y105800D01*
X47694Y105906D01*
X47800Y104520D01*
X48480Y104520D01*
G03X49080Y105120I0J600D01*
G37*
G36*
G01Y110620D02*
X49079Y111800D01*
X47725Y111930D01*
X47444Y110637D01*
X48124Y110137D01*
G03X49080Y110620I356J483D01*
G37*
G36*
G01X48183Y130783D02*
X47700D01*
X47594Y129594D01*
X48783Y129700D01*
Y130183D01*
G03X48183Y130783I-600J0D01*
G37*
G36*
G01X48783Y135217D02*
Y135700D01*
X47594Y135806D01*
X47700Y134617D01*
X48183D01*
G03X48783Y135217I0J600D01*
G37*
G36*
G01X43746Y155854D02*
X43346Y163346D01*
X39937Y160078D01*
X36654Y156654D01*
X43299Y155456D01*
G03X43746Y155854I47J397D01*
G37*
G36*
G01X53746Y156054D02*
X53346Y163346D01*
X49935Y160076D01*
X46654Y156654D01*
X53311Y155655D01*
G03X53746Y156054I36J398D01*
G37*
G36*
G01X58617Y34183D02*
Y33700D01*
X59806Y33594D01*
X59700Y34783D01*
X59217D01*
G03X58617Y34183I0J-600D01*
G37*
G36*
G01X71042Y31735D02*
X70488Y32288D01*
X69648Y31523D01*
X70488Y30757D01*
X71042Y31311D01*
G03Y31735I-212J212D01*
G37*
G36*
G01X60963Y41412D02*
X59937Y42437D01*
X58125Y41200D01*
X59937Y39963D01*
X60963Y40988D01*
G03Y41412I-212J212D01*
G37*
G36*
G01X65963D02*
X64937Y42437D01*
X63125Y41200D01*
X64937Y39963D01*
X65963Y40988D01*
G03Y41412I-212J212D01*
G37*
G36*
G01X60437Y40988D02*
X61463Y39963D01*
X63275Y41200D01*
X61463Y42437D01*
X60437Y41412D01*
G03Y40988I212J-212D01*
G37*
G36*
G01X70437D02*
X71463Y39963D01*
X73275Y41200D01*
X71463Y42437D01*
X70437Y41412D01*
G03Y40988I212J-212D01*
G37*
G36*
G01X65437D02*
X66463Y39963D01*
X68275Y41200D01*
X66463Y42437D01*
X65437Y41412D01*
G03Y40988I212J-212D01*
G37*
G36*
G01X70963Y41412D02*
X69937Y42437D01*
X68125Y41200D01*
X69937Y39963D01*
X70963Y40988D01*
G03Y41412I-212J212D01*
G37*
G36*
G01X76686Y53751D02*
X77112Y54274D01*
X76562Y57149D01*
X76012Y54274D01*
X76438Y53751D01*
G03X76686I124J273D01*
G37*
G36*
G01X64597Y49894D02*
X62447Y48894D01*
X63109Y47081D01*
X65450Y47200D01*
X65450Y49350D01*
G03X64597Y49894I-600J0D01*
G37*
G36*
G01X70437Y46988D02*
X71463Y45963D01*
X73275Y47200D01*
X71463Y48437D01*
X70437Y47412D01*
G03Y46988I212J-212D01*
G37*
G36*
G01X70963Y47412D02*
X69937Y48437D01*
X68125Y47200D01*
X69937Y45963D01*
X70963Y46988D01*
G03Y47412I-212J212D01*
G37*
G36*
G01X77051Y48167D02*
Y48849D01*
X76652Y49342D01*
X75934Y48434D01*
X76626Y47742D01*
X77051Y48167D01*
G37*
G36*
G01X66615Y60410D02*
X66170Y59874D01*
X66720Y56974D01*
X67270Y59874D01*
X66825Y60410D01*
G03X66615I-105J-386D01*
G37*
G36*
G01X66630Y61170D02*
X66630Y62050D01*
X65279Y62121D01*
X65350Y60771D01*
X66230Y60770D01*
G03X66630Y61170I0J400D01*
G37*
G36*
G01X73617Y65483D02*
Y64700D01*
X74753Y64647D01*
X74700Y65783D01*
X73917D01*
G03X73617Y65483I0J-300D01*
G37*
G36*
G01X68488Y66019D02*
X67935Y65466D01*
X68700Y64625D01*
X69466Y65466D01*
X68912Y66019D01*
G03X68488I-212J-212D01*
G37*
G36*
G01X65488Y66519D02*
X64935Y65966D01*
X65700Y65125D01*
X66466Y65966D01*
X65912Y66519D01*
G03X65488I-212J-212D01*
G37*
G36*
G01X70617Y65483D02*
Y64700D01*
X71753Y64647D01*
X71700Y65783D01*
X70917D01*
G03X70617Y65483I0J-300D01*
G37*
G36*
G01X60973Y66215D02*
X61534Y65854D01*
X62350Y66697D01*
X61561Y67562D01*
X60999Y67241D01*
G03X60973Y66215I298J-521D01*
G37*
G36*
G01X60397Y82592D02*
X59874Y83018D01*
X56999Y82468D01*
X59874Y81918D01*
X60397Y82344D01*
G03Y82592I-273J124D01*
G37*
G36*
G01Y80623D02*
X59874Y81049D01*
X56999Y80499D01*
X59874Y79949D01*
X60397Y80375D01*
G03Y80623I-273J124D01*
G37*
G36*
G01X66200Y84861D02*
Y83900D01*
X67126Y82903D01*
X67966Y83943D01*
X66624Y85285D01*
X66200Y84861D01*
G37*
G36*
G01X66624Y89815D02*
X67105Y90295D01*
X66200Y91350D01*
X65295Y90295D01*
X65776Y89815D01*
G03X66624I424J424D01*
G37*
G36*
G01X60397Y114088D02*
X59874Y114514D01*
X56999Y113964D01*
X59874Y113414D01*
X60397Y113840D01*
G03Y114088I-273J124D01*
G37*
G36*
G01Y112119D02*
X59874Y112545D01*
X56999Y111995D01*
X59874Y111445D01*
X60397Y111871D01*
G03Y112119I-273J124D01*
G37*
G36*
G01Y127867D02*
X59874Y128293D01*
X56999Y127743D01*
X59874Y127193D01*
X60397Y127619D01*
G03Y127867I-273J124D01*
G37*
G36*
G01Y129836D02*
X59874Y130262D01*
X56999Y129712D01*
X59874Y129162D01*
X60397Y129588D01*
G03Y129836I-273J124D01*
G37*
G36*
G01X64875Y138003D02*
X65301Y138526D01*
X64751Y141401D01*
X64201Y138526D01*
X64627Y138003D01*
G03X64875I124J273D01*
G37*
G36*
G01X60397Y125899D02*
X59874Y126325D01*
X56999Y125775D01*
X59874Y125225D01*
X60397Y125651D01*
G03Y125899I-273J124D01*
G37*
G36*
G01X73746Y155854D02*
X73346Y163346D01*
X69937Y160078D01*
X66654Y156654D01*
X73299Y155456D01*
G03X73746Y155854I47J397D01*
G37*
G36*
G01X63746Y155654D02*
X63346Y163346D01*
X59939Y160079D01*
X56654Y156654D01*
X63287Y155258D01*
G03X63746Y155654I59J396D01*
G37*
G36*
G01X87217Y29983D02*
Y29200D01*
X88353Y29147D01*
X88300Y30283D01*
X87517D01*
G03X87217Y29983I0J-300D01*
G37*
G36*
G01X93855Y53664D02*
X92895Y52705D01*
X93753Y51658D01*
X94880Y52281D01*
X94879Y53241D01*
G03X93855Y53664I-600J-1D01*
G37*
G36*
G01X85288Y40788D02*
X86263Y39813D01*
X88075Y41000D01*
X86263Y42187D01*
X85288Y41212D01*
G03Y40788I212J-212D01*
G37*
G36*
G01X84619Y46512D02*
X84066Y47066D01*
X83225Y46300D01*
X84066Y45535D01*
X84619Y46088D01*
G03Y46512I-212J212D01*
G37*
G36*
G01X91981Y46088D02*
X92534Y45535D01*
X93375Y46300D01*
X92534Y47066D01*
X91981Y46512D01*
G03Y46088I212J-212D01*
G37*
G36*
G01X89981Y43588D02*
X90534Y43034D01*
X91375Y43800D01*
X90534Y44566D01*
X89981Y44012D01*
G03Y43588I212J-212D01*
G37*
G36*
G01X82283Y50617D02*
Y51400D01*
X81147Y51453D01*
X81200Y50317D01*
X81983D01*
G03X82283Y50617I0J300D01*
G37*
G36*
G01X94481Y48588D02*
X95534Y47534D01*
X96372Y48278D01*
X95731Y49153D01*
X94678Y49100D01*
G03X94481Y48588I15J-300D01*
G37*
G36*
G01X98412Y66881D02*
X99066Y67534D01*
X98306Y68375D01*
X97500Y67576D01*
X97954Y66922D01*
G03X98412Y66881I246J171D01*
G37*
G36*
G01X92186Y60397D02*
X91760Y59874D01*
X92310Y56999D01*
X92860Y59874D01*
X92434Y60397D01*
G03X92186I-124J-273D01*
G37*
G36*
G01X92517Y65217D02*
X94300D01*
X94369Y66330D01*
X93300Y66300D01*
X92517Y65517D01*
Y65217D01*
G37*
G36*
G01X90218Y60397D02*
X89792Y59874D01*
X90342Y56999D01*
X90892Y59874D01*
X90466Y60397D01*
G03X90218I-124J-273D01*
G37*
G36*
G01X82483Y63283D02*
X81700D01*
X81647Y62147D01*
X82783Y62200D01*
Y62983D01*
G03X82483Y63283I-300J0D01*
G37*
G36*
G01X85483D02*
X84700D01*
X84647Y62147D01*
X85783Y62200D01*
Y62983D01*
G03X85483Y63283I-300J0D01*
G37*
G36*
G01X88321Y63736D02*
X87538Y63235D01*
X87661Y62136D01*
X88783Y62200D01*
Y63483D01*
G03X88321Y63736I-300J0D01*
G37*
G36*
G01X79483Y63283D02*
X78700D01*
X78647Y62147D01*
X79783Y62200D01*
Y62983D01*
G03X79483Y63283I-300J0D01*
G37*
G36*
G01X80088Y92119D02*
X79535Y91566D01*
X80300Y90725D01*
X81066Y91566D01*
X80512Y92119D01*
G03X80088I-212J-212D01*
G37*
G36*
G01X80512Y105981D02*
X81466Y106934D01*
X80719Y107772D01*
X79850Y107099D01*
X80004Y106145D01*
G03X80512Y105981I296J48D01*
G37*
G36*
G01X87183Y133783D02*
X86700D01*
X86594Y132594D01*
X87783Y132700D01*
Y133183D01*
G03X87183Y133783I-600J0D01*
G37*
G36*
G01X91617Y133183D02*
Y132700D01*
X92806Y132594D01*
X92700Y133783D01*
X92217D01*
G03X91617Y133183I0J-600D01*
G37*
G36*
G01X90283Y161817D02*
X90833Y162367D01*
X90000Y164100D01*
X89167Y162367D01*
X89717Y161817D01*
G03X90283I283J283D01*
G37*
G36*
G01X96283D02*
X96833Y162367D01*
X96000Y164100D01*
X95167Y162367D01*
X95717Y161817D01*
G03X96283I283J283D01*
G37*
G36*
G01X89717Y172183D02*
X89167Y171633D01*
X90000Y169900D01*
X90833Y171633D01*
X90283Y172183D01*
G03X89717I-283J-283D01*
G37*
G36*
G01X90283Y174273D02*
X90905Y174895D01*
X90000Y175900D01*
X89095Y174895D01*
X89717Y174273D01*
G03X90283I283J283D01*
G37*
G36*
G01X95717Y172183D02*
X95167Y171633D01*
X96000Y169900D01*
X96833Y171633D01*
X96283Y172183D01*
G03X95717I-283J-283D01*
G37*
G36*
G01X96283Y174273D02*
X96905Y174895D01*
X96000Y175900D01*
X95095Y174895D01*
X95717Y174273D01*
G03X96283I283J283D01*
G37*
G36*
G01X115119Y34512D02*
X114566Y35066D01*
X113725Y34300D01*
X114566Y33535D01*
X115119Y34088D01*
G03Y34512I-212J212D01*
G37*
G36*
G01X100719Y27612D02*
X100166Y28166D01*
X99325Y27400D01*
X100166Y26635D01*
X100719Y27188D01*
G03Y27612I-212J212D01*
G37*
G36*
G01X118661Y52370D02*
X118178Y52270D01*
X118204Y51084D01*
X119383Y51200D01*
Y51783D01*
G03X118661Y52370I-600J0D01*
G37*
G36*
G01X110151Y53751D02*
X110577Y54274D01*
X110027Y57149D01*
X109477Y54274D01*
X109903Y53751D01*
G03X110151I124J273D01*
G37*
G36*
G01X117519Y37612D02*
X116966Y38166D01*
X116125Y37400D01*
X116966Y36634D01*
X117519Y37188D01*
G03Y37612I-212J212D01*
G37*
G36*
G01X98415Y51376D02*
X98895Y50895D01*
X99950Y51800D01*
X98895Y52705D01*
X98415Y52224D01*
G03Y51376I424J-424D01*
G37*
G36*
G01X114963Y47412D02*
X113937Y48437D01*
X112125Y47200D01*
X113937Y45963D01*
X114963Y46988D01*
G03Y47412I-212J212D01*
G37*
G36*
G01X114437Y46988D02*
X115463Y45963D01*
X117275Y47200D01*
X115463Y48437D01*
X114437Y47412D01*
G03Y46988I212J-212D01*
G37*
G36*
G01X105966Y60397D02*
X105540Y59874D01*
X106090Y56999D01*
X106640Y59874D01*
X106214Y60397D01*
G03X105966I-124J-273D01*
G37*
G36*
G01X103997D02*
X103571Y59874D01*
X104121Y56999D01*
X104671Y59874D01*
X104245Y60397D01*
G03X103997I-124J-273D01*
G37*
G36*
G01X102029D02*
X101603Y59874D01*
X102153Y56999D01*
X102703Y59874D01*
X102277Y60397D01*
G03X102029I-124J-273D01*
G37*
G36*
G01X107934D02*
X107508Y59874D01*
X108058Y56999D01*
X108608Y59874D01*
X108182Y60397D01*
G03X107934I-124J-273D01*
G37*
G36*
G01X118912Y63881D02*
X119466Y64434D01*
X118700Y65275D01*
X117935Y64434D01*
X118488Y63881D01*
G03X118912I212J212D01*
G37*
G36*
G01X117777Y60397D02*
X117351Y59874D01*
X117901Y56999D01*
X118451Y59874D01*
X118025Y60397D01*
G03X117777I-124J-273D01*
G37*
G36*
G01X115550Y65882D02*
X114966Y66466D01*
X114125Y65702D01*
X114954Y64923D01*
X115538Y65446D01*
G03X115550Y65882I-200J223D01*
G37*
G36*
G01X116412Y69881D02*
X116965Y70434D01*
X116200Y71275D01*
X115434Y70434D01*
X115988Y69881D01*
G03X116412I212J212D01*
G37*
G36*
G01X115808Y60397D02*
X115382Y59874D01*
X115932Y56999D01*
X116482Y59874D01*
X116056Y60397D01*
G03X115808I-124J-273D01*
G37*
G36*
G01X116928Y133372D02*
X116929Y132200D01*
X118806Y132094D01*
X118700Y133972D01*
X117528Y133972D01*
G03X116928Y133372I0J-600D01*
G37*
G36*
G01X109922Y144662D02*
X109477Y144126D01*
X110027Y141226D01*
X110577Y144126D01*
X110132Y144662D01*
G03X109922I-105J-386D01*
G37*
G36*
G01X105985D02*
X105540Y144126D01*
X106090Y141226D01*
X106640Y144126D01*
X106195Y144662D01*
G03X105985I-105J-386D01*
G37*
G36*
G01X100079D02*
X99634Y144126D01*
X100184Y141226D01*
X100734Y144126D01*
X100289Y144662D01*
G03X100079I-105J-386D01*
G37*
G36*
G01X111890D02*
X111445Y144126D01*
X111995Y141226D01*
X112545Y144126D01*
X112100Y144662D01*
G03X111890I-105J-386D01*
G37*
G36*
G01X104016D02*
X103571Y144126D01*
X104121Y141226D01*
X104671Y144126D01*
X104226Y144662D01*
G03X104016I-105J-386D01*
G37*
G36*
G01X102048D02*
X101603Y144126D01*
X102153Y141226D01*
X102703Y144126D01*
X102258Y144662D01*
G03X102048I-105J-386D01*
G37*
G36*
G01X117796D02*
X117351Y144126D01*
X117901Y141226D01*
X118451Y144126D01*
X118006Y144662D01*
G03X117796I-105J-386D01*
G37*
G36*
G01X104250Y162150D02*
X104250Y164000D01*
X101929Y164071D01*
X101417Y162259D01*
X103767Y161759D01*
G03X104250Y162150I83J391D01*
G37*
G36*
G01X108283Y161817D02*
X108833Y162367D01*
X108000Y164100D01*
X107167Y162367D01*
X107717Y161817D01*
G03X108283I283J283D01*
G37*
G36*
G01X101717Y172183D02*
X101167Y171633D01*
X102000Y169900D01*
X102833Y171633D01*
X102283Y172183D01*
G03X101717I-283J-283D01*
G37*
G36*
G01X102283Y174273D02*
X102905Y174895D01*
X102000Y175900D01*
X101095Y174895D01*
X101717Y174273D01*
G03X102283I283J283D01*
G37*
G36*
G01X107717Y172183D02*
X107167Y171633D01*
X108000Y169900D01*
X108833Y171633D01*
X108283Y172183D01*
G03X107717I-283J-283D01*
G37*
G36*
G01X108283Y174273D02*
X108905Y174895D01*
X108000Y175900D01*
X107095Y174895D01*
X107717Y174273D01*
G03X108283I283J283D01*
G37*
G36*
G01X129937Y21988D02*
X130963Y20963D01*
X132775Y22200D01*
X130963Y23437D01*
X129937Y22412D01*
G03Y21988I212J-212D01*
G37*
G36*
G01X119481Y34088D02*
X120034Y33535D01*
X120875Y34300D01*
X120034Y35066D01*
X119481Y34512D01*
G03Y34088I212J-212D01*
G37*
G36*
G01X121981Y27188D02*
X122534Y26635D01*
X123375Y27400D01*
X122534Y28166D01*
X121981Y27612D01*
G03Y27188I212J-212D01*
G37*
G36*
G01X133483Y29283D02*
X132700D01*
X132647Y28147D01*
X133783Y28200D01*
Y28983D01*
G03X133483Y29283I-300J0D01*
G37*
G36*
G01X133049Y51951D02*
X133049Y51132D01*
X133820Y50651D01*
X133800Y51800D01*
X133649Y51951D01*
X133049D01*
G37*
G36*
G01X119681Y37188D02*
X120234Y36634D01*
X121075Y37400D01*
X120234Y38166D01*
X119681Y37612D01*
G03Y37188I212J-212D01*
G37*
G36*
G01X123117Y51683D02*
Y51200D01*
X124306Y51094D01*
X124200Y52283D01*
X123717D01*
G03X123117Y51683I0J-600D01*
G37*
G36*
G01X123341Y47300D02*
X122946D01*
X122301Y46762D01*
X123428Y45973D01*
X124048Y46593D01*
X123341Y47300D01*
G37*
G36*
G01X138003Y68564D02*
X138526Y68138D01*
X141401Y68688D01*
X138526Y69238D01*
X138003Y68812D01*
G03Y68564I273J-124D01*
G37*
G36*
G01X131983Y67283D02*
X131200D01*
X131147Y66147D01*
X132283Y66200D01*
Y66983D01*
G03X131983Y67283I-300J0D01*
G37*
G36*
G01X138003Y72501D02*
X138526Y72075D01*
X141401Y72625D01*
X138526Y73175D01*
X138003Y72749D01*
G03Y72501I273J-124D01*
G37*
G36*
G01X137094Y72837D02*
X135966Y73966D01*
X135129Y73224D01*
X135775Y72625D01*
X136882D01*
X137094Y72837D01*
G37*
G36*
G01X138003Y70533D02*
X138526Y70107D01*
X141401Y70657D01*
X138526Y71207D01*
X138003Y70781D01*
G03Y70533I273J-124D01*
G37*
G36*
G01X132283Y70917D02*
Y71700D01*
X131147Y71753D01*
X131200Y70617D01*
X131983D01*
G03X132283Y70917I0J300D01*
G37*
G36*
G01X130883Y88083D02*
X132200D01*
X132264Y89204D01*
X131170Y89334D01*
X130635Y88552D01*
G03X130883Y88083I248J-169D01*
G37*
G36*
G01X130848Y91048D02*
X132200D01*
X132265Y92168D01*
X131175Y92307D01*
X130606Y91524D01*
G03X130848Y91048I243J-176D01*
G37*
G36*
G01X130814Y94014D02*
X132200D01*
X132265Y95133D01*
X131180Y95279D01*
X130576Y94497D01*
G03X130814Y94014I238J-183D01*
G37*
G36*
G01X131417Y85117D02*
X132200D01*
X132253Y86253D01*
X131117Y86200D01*
Y85417D01*
G03X131417Y85117I300J0D01*
G37*
G36*
G01X123397Y95812D02*
X122705Y96505D01*
X121725Y95600D01*
X122705Y94695D01*
X123397Y95388D01*
G03Y95812I-212J212D01*
G37*
G36*
G01X123297Y101612D02*
X122605Y102305D01*
X121625Y101400D01*
X122605Y100495D01*
X123297Y101188D01*
G03Y101612I-212J212D01*
G37*
G36*
G01X138003Y107934D02*
X138526Y107508D01*
X141401Y108058D01*
X138526Y108608D01*
X138003Y108182D01*
G03Y107934I273J-124D01*
G37*
G36*
G01Y105966D02*
X138526Y105540D01*
X141401Y106090D01*
X138526Y106640D01*
X138003Y106214D01*
G03Y105966I273J-124D01*
G37*
G36*
G01X139193Y153776D02*
X141543Y154677D01*
X140971Y156071D01*
X138650Y156000D01*
X138650Y154150D01*
G03X139193Y153776I400J0D01*
G37*
G36*
G01X133544Y144662D02*
X133099Y144126D01*
X133649Y141226D01*
X134199Y144126D01*
X133754Y144662D01*
G03X133544I-105J-386D01*
G37*
G36*
G01X119764D02*
X119319Y144126D01*
X119869Y141226D01*
X120419Y144126D01*
X119974Y144662D01*
G03X119764I-105J-386D01*
G37*
G36*
G01X132031Y153619D02*
X132706Y154854D01*
X130866Y156094D01*
X130181Y154316D01*
X131461Y153476D01*
G03X132031Y153619I219J335D01*
G37*
G36*
G01X131575Y144662D02*
X131130Y144126D01*
X131680Y141226D01*
X132230Y144126D01*
X131785Y144662D01*
G03X131575I-105J-386D01*
G37*
G36*
G01X131183Y165050D02*
X133266Y167134D01*
X130900Y169600D01*
X128534Y167134D01*
X130617Y165050D01*
G03X131183I283J283D01*
G37*
G36*
G01X130617Y164183D02*
X130067Y163633D01*
X130900Y161900D01*
X131733Y163633D01*
X131183Y164183D01*
G03X130617I-283J-283D01*
G37*
G36*
G01X141183Y165050D02*
X143266Y167134D01*
X140900Y169600D01*
X138534Y167134D01*
X140617Y165050D01*
G03X141183I283J283D01*
G37*
G36*
G01X139881Y31988D02*
X140434Y31435D01*
X141275Y32200D01*
X140434Y32966D01*
X139881Y32412D01*
G03Y31988I212J-212D01*
G37*
G36*
G01X144649Y68812D02*
X144126Y69238D01*
X141251Y68688D01*
X144126Y68138D01*
X144649Y68564D01*
G03Y68812I-273J124D01*
G37*
G36*
G01X146869Y68476D02*
X147422Y67923D01*
X148263Y68688D01*
X147422Y69454D01*
X146869Y68900D01*
G03Y68476I212J-212D01*
G37*
G36*
G01X154549Y72319D02*
X155600Y71259D01*
X157275Y72483D01*
X155600Y73707D01*
X154549Y72647D01*
G03Y72319I251J-164D01*
G37*
G36*
G01X144649Y72749D02*
X144126Y73175D01*
X141251Y72625D01*
X144126Y72075D01*
X144649Y72501D01*
G03Y72749I-273J124D01*
G37*
G36*
G01X148988Y75655D02*
X148139Y74806D01*
X148900Y74519D01*
X149500D01*
X150261Y74806D01*
X149412Y75655D01*
G03X148988I-212J-212D01*
G37*
G36*
G01X154015D02*
X153166Y74806D01*
X153927Y74519D01*
X154527D01*
X154942Y75471D01*
X154342Y75720D01*
G03X154015Y75655I-115J-277D01*
G37*
G36*
G01X144649Y74718D02*
X144126Y75144D01*
X141251Y74594D01*
X144126Y74044D01*
X144649Y74470D01*
G03Y74718I-273J124D01*
G37*
G36*
G01X149412Y75381D02*
X149966Y75934D01*
X149200Y76775D01*
X148434Y75934D01*
X148988Y75381D01*
G03X149412I212J212D01*
G37*
G36*
G01X157011Y81400D02*
X155600Y79867D01*
X157200Y77842D01*
X158800Y79867D01*
X157389Y81400D01*
G03X157011I-189J-233D01*
G37*
G36*
G01X157466Y79095D02*
X158433Y81600D01*
X156470Y83274D01*
X154533Y81600D01*
X157001Y79009D01*
G03X157466Y79095I199J224D01*
G37*
G36*
G01X154439Y76854D02*
X154992Y77407D01*
X154227Y78248D01*
X153462Y77407D01*
X154015Y76854D01*
G03X154439I212J212D01*
G37*
G36*
G01X161668Y86663D02*
X159967Y84800D01*
X161917Y83100D01*
X163867Y84800D01*
X162166Y86663D01*
G03X161668I-249J-313D01*
G37*
G36*
G01X146915Y91886D02*
X147395Y91405D01*
X148450Y92310D01*
X147395Y93215D01*
X146915Y92734D01*
G03Y91886I424J-424D01*
G37*
G36*
G01X150158Y97972D02*
X151633Y96056D01*
X153389Y96755D01*
X152337Y98654D01*
X150466Y98616D01*
G03X150158Y97972I8J-400D01*
G37*
G36*
G01X144662Y96352D02*
X144126Y96797D01*
X141226Y96247D01*
X144126Y95697D01*
X144662Y96142D01*
G03Y96352I-386J105D01*
G37*
G36*
G01X151059Y93567D02*
X151559Y91217D01*
X153371Y91729D01*
X153300Y94050D01*
X151450Y94050D01*
G03X151059Y93567I0J-400D01*
G37*
G36*
G01X152473Y100874D02*
X153153Y100874D01*
X153259Y102259D01*
X151874Y102153D01*
X151873Y101474D01*
G03X152473Y100874I600J0D01*
G37*
G36*
G01X151768Y101729D02*
X152248Y101248D01*
X153303Y102153D01*
X152248Y103058D01*
X151768Y102577D01*
G03Y101729I424J-424D01*
G37*
G36*
G01X149224Y106415D02*
X149705Y106895D01*
X148800Y107950D01*
X147895Y106895D01*
X148376Y106415D01*
G03X149224I424J424D01*
G37*
G36*
G01X161963Y108412D02*
X160937Y109437D01*
X159125Y108200D01*
X160937Y106963D01*
X161963Y107988D01*
G03Y108412I-212J212D01*
G37*
G36*
G01X144662Y98321D02*
X144126Y98766D01*
X141226Y98216D01*
X144126Y97666D01*
X144662Y98111D01*
G03Y98321I-386J105D01*
G37*
G36*
G01X154120Y127520D02*
X154800Y127520D01*
X154906Y128906D01*
X153520Y128800D01*
X153520Y128120D01*
G03X154120Y127520I600J0D01*
G37*
G36*
G01X140617Y164183D02*
X140067Y163633D01*
X140900Y161900D01*
X141733Y163633D01*
X141183Y164183D01*
G03X140617I-283J-283D01*
G37*
G36*
G01X167785Y52624D02*
X167305Y53105D01*
X166250Y52200D01*
X167305Y51295D01*
X167785Y51776D01*
G03Y52624I-424J424D01*
G37*
G36*
G01X161317Y70948D02*
X160834Y70465D01*
X161600Y69600D01*
X162366Y70465D01*
X161883Y70948D01*
G03X161317I-283J-283D01*
G37*
G36*
G01X172300Y96000D02*
X174500D01*
X174583Y97956D01*
X172638Y98069D01*
X171938Y96569D01*
G03X172300Y96000I362J-169D01*
G37*
G36*
G01X166717Y81083D02*
Y79700D01*
X167844Y79610D01*
X167800Y80400D01*
X167117Y81083D01*
X166717D01*
G37*
G36*
G01X168717Y84848D02*
X168234Y84365D01*
X169000Y83500D01*
X169766Y84365D01*
X169283Y84848D01*
G03X168717I-283J-283D01*
G37*
G36*
G01X173000Y91000D02*
X174500D01*
X174571Y92971D01*
X172600Y92900D01*
Y91400D01*
G03X173000Y91000I400J0D01*
G37*
G36*
G01X171500Y86000D02*
X174500D01*
X174589Y87945D01*
X173000Y87900D01*
X171500Y86400D01*
Y86000D01*
G37*
G36*
G01X170817Y78748D02*
X169634Y77566D01*
X170361Y76708D01*
X171100Y77500D01*
Y78466D01*
X170817Y78748D01*
G37*
G36*
G01X162200Y86590D02*
X163505Y87895D01*
X162633Y88894D01*
X161917Y88317D01*
Y86873D01*
X162200Y86590D01*
G37*
G36*
G01X178433Y110952D02*
X178916Y111435D01*
X178150Y112300D01*
X177384Y111435D01*
X177867Y110952D01*
G03X178433I283J283D01*
G37*
G36*
G01X173000Y101000D02*
X174500D01*
X174571Y102971D01*
X172600Y102900D01*
Y101400D01*
G03X173000Y101000I400J0D01*
G37*
G36*
G01X162437Y107988D02*
X163463Y106963D01*
X165275Y108200D01*
X163463Y109437D01*
X162437Y108412D01*
G03Y107988I212J-212D01*
G37*
G54D10*
X-7500Y47200D03*
X-3800Y53200D03*
X33200Y55507D03*
X112700Y132200D03*
X118700D03*
G54D11*
X0Y0D03*
Y177200D03*
X177200Y0D03*
Y177200D03*
G54D20*
X58200Y47200D03*
Y41200D03*
X63200Y47200D03*
Y41200D03*
X73200Y47200D03*
Y41200D03*
X68200Y47200D03*
Y41200D03*
X88000Y35000D03*
Y41000D03*
X90000Y164000D03*
Y170000D03*
X96000Y164000D03*
Y170000D03*
X112200Y47200D03*
Y41200D03*
X117200Y47200D03*
Y41200D03*
X102000Y164000D03*
Y170000D03*
X108000Y164000D03*
Y170000D03*
X132700Y22200D03*
Y28200D03*
X122400Y47200D03*
Y41200D03*
X127800Y47300D03*
Y41300D03*
X140900Y156000D03*
Y162000D03*
X130900Y156000D03*
Y162000D03*
X159200Y102200D03*
Y108200D03*
X171200Y52200D03*
Y58200D03*
X166200Y52200D03*
Y58200D03*
X165200Y108200D03*
Y102200D03*
G54D30*
G01X40000Y160000D02*
Y159200D01*
X49200Y150000D01*
X98400D01*
X100184Y148216D01*
Y141326D01*
G01X102153D02*
Y148647D01*
X99000Y151800D01*
X57600D01*
X50000Y159400D01*
Y160000D01*
G01X65350Y62050D02*
X66720Y60680D01*
Y59000D01*
G01X106090Y141326D02*
Y150710D01*
X101400Y155400D01*
X73800D01*
X70000Y159200D01*
Y160000D01*
G01X104121Y141326D02*
Y149679D01*
X100200Y153600D01*
X65400D01*
X60000Y159000D01*
Y160000D01*
G01X110027Y141326D02*
Y149773D01*
X102600Y157200D01*
X94400D01*
X90000Y161600D01*
Y164000D01*
G01X111995Y141326D02*
Y150805D01*
X103800Y159000D01*
X98500D01*
X96000Y161500D01*
Y164000D01*
G01X90000Y170000D02*
Y175800D01*
G01X96000Y170000D02*
Y175800D01*
G01X117901Y141326D02*
Y148099D01*
X102000Y164000D01*
G01X119869Y141326D02*
Y148931D01*
X108000Y160800D01*
Y164000D01*
G01X102000Y170000D02*
Y175800D01*
G01X108000Y170000D02*
Y175800D01*
G01X140900Y156000D02*
X133649Y148749D01*
Y141326D01*
G01X130900Y156000D02*
X131680Y155220D01*
Y141326D01*
G01X130900Y169500D02*
Y162000D01*
G01X141326Y98216D02*
X151884D01*
X153300Y96800D01*
G01X141326Y96247D02*
X148853D01*
X153300Y91800D01*
G01X140900Y169500D02*
Y162000D01*
G01X170400Y76800D02*
X171100Y77500D01*
Y86000D01*
X173000Y87900D01*
X174500D01*
G01X161600Y69700D02*
Y73200D01*
X165200Y76800D01*
Y93700D01*
X170750Y99250D01*
G01X174500Y97900D02*
X173800D01*
X166900Y91000D01*
Y81300D01*
X167800Y80400D01*
Y79700D01*
G01X169000Y83600D02*
Y87400D01*
X174500Y92900D01*
G01X162600Y88800D02*
X162400D01*
X161917Y88317D01*
Y83200D01*
G01X165200Y102200D02*
X165300D01*
G01X174500Y102900D02*
X170850Y99250D01*
X170750D01*
G01X174900Y103300D02*
X174500Y102900D01*
G01X178150Y112200D02*
Y106550D01*
X174900Y103300D01*
G01X170750Y99250D02*
X174800Y103300D01*
X174900D01*
G54D12*
X13200Y38893D03*
Y55507D03*
X33200Y38893D03*
Y55507D03*
G54D21*
X57074Y64751D03*
Y66720D03*
Y68688D03*
Y70657D03*
Y72625D03*
Y74594D03*
Y76562D03*
Y78531D03*
Y80499D03*
Y82468D03*
Y84436D03*
Y86405D03*
Y88373D03*
Y90342D03*
Y92310D03*
Y94279D03*
Y96247D03*
Y98216D03*
Y100184D03*
Y102153D03*
Y104121D03*
Y106090D03*
Y108058D03*
Y110027D03*
Y111995D03*
Y113964D03*
Y115932D03*
Y117901D03*
Y119869D03*
Y121838D03*
Y123806D03*
Y125775D03*
Y127743D03*
Y129712D03*
Y131680D03*
Y133649D03*
X141326Y76562D03*
Y74594D03*
Y72625D03*
Y70657D03*
Y68688D03*
Y66720D03*
Y64751D03*
Y98216D03*
Y96247D03*
Y94279D03*
Y92310D03*
Y90342D03*
Y88373D03*
Y86405D03*
Y84436D03*
Y82468D03*
Y80499D03*
Y78531D03*
Y119869D03*
Y117901D03*
Y115932D03*
Y113964D03*
Y111995D03*
Y110027D03*
Y108058D03*
Y106090D03*
Y104121D03*
Y102153D03*
Y100184D03*
Y133649D03*
Y131680D03*
Y129712D03*
Y127743D03*
Y125775D03*
Y123806D03*
Y121838D03*
G54D31*
G01X63200Y47200D02*
X63300D01*
G01X122400Y41200D02*
X117200D01*
G01D02*
X112200D01*
G01X127800Y41300D02*
X122500D01*
X122400Y41200D01*
G01X127800Y47300D02*
X122946D01*
X122523Y46877D01*
G54D22*
X48200Y76200D03*
Y64200D03*
X51200Y79200D03*
X47800Y105800D03*
X42800Y111800D03*
X47800D03*
X63300Y47200D03*
X65350Y62050D03*
X77200Y98200D03*
X76500Y92000D03*
X66200Y91200D03*
X67061Y83039D03*
X71200Y117300D03*
X63300Y100300D03*
X94200Y35200D03*
X88000Y35000D03*
X94200Y29200D03*
X93800Y51800D03*
X93920Y77920D03*
X93300Y70800D03*
X83263Y95263D03*
X93800Y83039D03*
X96200Y127200D03*
X89200D03*
Y121200D03*
X96000Y182000D03*
X90000D03*
Y175800D03*
X96000D03*
X99800Y51800D03*
X120483Y69200D03*
X108200Y78200D03*
X102200Y127200D03*
Y121200D03*
X108000Y182000D03*
X102000D03*
Y175800D03*
X108000D03*
X127334Y-5166D03*
X137200Y-1300D03*
Y-5166D03*
X140200Y20200D03*
X141200Y46200D03*
Y51200D03*
Y56200D03*
X122523Y46877D03*
X126200Y74200D03*
X121800Y95600D03*
X126200Y80200D03*
X131800Y110400D03*
X121300Y107400D03*
X121700Y101400D03*
X125700Y110500D03*
X146566Y-5166D03*
X159300Y18300D03*
X147200Y32200D03*
X159300Y27300D03*
X147200Y37200D03*
X150502Y61598D03*
X148300Y92310D03*
X153153Y102153D03*
X148800Y107800D03*
X159200Y102200D03*
X154800Y122800D03*
X160000Y123200D03*
X154800Y128800D03*
X180800Y19800D03*
X162900Y42100D03*
X171200Y52200D03*
X166400D03*
X172300Y37300D03*
X166300Y58300D03*
X162600Y88800D03*
X182200Y117100D03*
X165300Y102200D03*
X173400Y111200D03*
X179228Y125228D03*
G54D13*
X2200Y36200D03*
X-3800D03*
X2200Y47200D03*
X-3800D03*
X2200Y53200D03*
X-3800D03*
X2200Y41200D03*
X-3800D03*
X26200Y75200D03*
X32200D03*
X26200Y81200D03*
X32200D03*
X26200Y87200D03*
X32200D03*
X26200Y93200D03*
X32200D03*
X26200Y99200D03*
X32200D03*
X26200Y105200D03*
X32200D03*
X26200Y111200D03*
X32200D03*
X26200Y117200D03*
X32200D03*
X42200Y47200D03*
X48200D03*
Y53200D03*
X42200D03*
X162900Y42000D03*
X153300Y96800D03*
X159300D03*
X153300Y91800D03*
X159300D03*
X168900Y42000D03*
G54D32*
G01X-3800Y47200D02*
X-7500D01*
G01X-3800Y41200D02*
Y36200D01*
G01X2200Y41200D02*
Y36200D01*
G01D02*
X6657D01*
X9350Y38893D01*
X13107D01*
G01X13200D02*
X18893D01*
G01X13200D02*
X13107D01*
G01D02*
X13100Y38900D01*
G01X2200Y53200D02*
Y47200D01*
G01X13200Y55507D02*
X4507D01*
X4503Y55503D01*
X4003D01*
X2200Y53700D01*
Y53200D01*
G01X26200Y75200D02*
X21200D01*
X13200Y67200D01*
G01X26200Y81200D02*
X17200D01*
X13200Y77200D01*
G01X26200Y87200D02*
X13200D01*
G01X26200Y93200D02*
X17200D01*
X13200Y97200D01*
G01X26200Y99200D02*
X21200D01*
X13200Y107200D01*
G01Y117200D02*
X18200Y112200D01*
Y109200D01*
X22200Y105200D01*
X26200D01*
G01Y111200D02*
X22200D01*
X20200Y113200D01*
Y120200D01*
X13200Y127200D01*
G01X26200Y117200D02*
Y124200D01*
X13200Y137200D01*
G01X42200Y47200D02*
X36707D01*
X33200Y43693D01*
Y38893D01*
G01X57074Y84436D02*
X40936D01*
X32200Y75700D01*
Y75200D01*
G01X57074Y86405D02*
X37405D01*
X32200Y81200D01*
G01Y93200D02*
X37900D01*
X40758Y90342D01*
X57074D01*
G01Y88373D02*
X56916Y88531D01*
X33531D01*
X32200Y87200D01*
G01X57074Y102153D02*
X45947D01*
X32200Y115900D01*
Y117200D01*
G01X57074Y94279D02*
X44821D01*
X33900Y105200D01*
X32200D01*
G01Y111200D02*
X43216Y100184D01*
X57074D01*
G01Y92310D02*
X42790D01*
X35900Y99200D01*
X32200D01*
G01X48200Y47200D02*
Y47700D01*
X52700Y52200D01*
X63600D01*
X64751Y53351D01*
Y57074D01*
G01X57074Y64751D02*
X53474D01*
X48200Y59477D01*
Y53200D01*
G01X57074Y104121D02*
X49479D01*
X47800Y105800D01*
G01Y111800D02*
Y111300D01*
X53010Y106090D01*
X57074D01*
G01Y131680D02*
X49680D01*
X47700Y129700D01*
G01X57074Y133649D02*
X49751D01*
X47700Y135700D01*
G01X58200Y41200D02*
Y35200D01*
X59700Y33700D01*
G01X58200Y47200D02*
X63200D01*
G01X68688Y57074D02*
Y53188D01*
X63200Y47700D01*
Y47200D01*
G01X76700Y49200D02*
X77051Y48849D01*
Y48001D01*
X76250Y47200D01*
X73200D01*
G01X62200Y66700D02*
X61317D01*
X61297Y66720D01*
X57074D01*
G01X66200Y91200D02*
Y83900D01*
X67061Y83039D01*
G01X94279Y57074D02*
Y52279D01*
X93800Y51800D01*
G01X99800D02*
X97800D01*
X96247Y53353D01*
Y57074D01*
G01X88373Y141326D02*
Y134373D01*
X86700Y132700D01*
G01X90342Y141326D02*
Y135058D01*
X92700Y132700D01*
G01X118300Y51200D02*
Y51300D01*
X119869Y52869D01*
Y57074D01*
G01X113964Y141326D02*
Y133464D01*
X112700Y132200D01*
G01X115932Y141326D02*
Y134968D01*
X118700Y132200D01*
G01X133800Y50800D02*
Y51800D01*
X133649Y51951D01*
Y57074D01*
G01X124200Y51200D02*
X121838Y53562D01*
Y57074D01*
G01X141326Y92310D02*
X148300D01*
G01X141326Y102153D02*
X153153D01*
G01X141326Y100184D02*
X151184D01*
X153153Y102153D01*
G01X148800Y107800D02*
Y104800D01*
X148121Y104121D01*
X141326D01*
G01X154800Y122800D02*
X153794Y123806D01*
X141326D01*
G01Y125775D02*
X151775D01*
X154800Y128800D01*
G01X166200Y52200D02*
X166400D01*
G01D02*
X171200D01*
G54D14*
X-3800Y36200D03*
Y41200D03*
X32200Y75200D03*
Y81200D03*
Y93200D03*
Y87200D03*
Y99200D03*
Y117200D03*
Y105200D03*
Y111200D03*
X42200Y53200D03*
X47700Y129700D03*
Y135700D03*
X59700Y33700D03*
X69723Y31523D03*
X58023Y46877D03*
X76700Y49200D03*
X74700Y64700D03*
X68700D03*
X65700Y65200D03*
X71700Y64700D03*
X62200Y66700D03*
X88300Y29200D03*
X93300Y46300D03*
X83300D03*
X91300Y43800D03*
X85800Y44300D03*
X96300Y48300D03*
X81200Y51400D03*
X98300Y68300D03*
X94300Y66300D03*
X81700Y62200D03*
X84700D03*
X87700D03*
X78700D03*
X80300Y90800D03*
X80700Y107700D03*
X86700Y132700D03*
X92700D03*
X101377Y31523D03*
X113800Y34300D03*
X99400Y27400D03*
X117200Y41200D03*
X118300Y51200D03*
X116200Y37400D03*
X112200Y47200D03*
X118700Y65200D03*
X116200Y71200D03*
X114200Y65700D03*
X120800Y34300D03*
X123300Y27400D03*
X132700Y28200D03*
X141200Y32200D03*
X133800Y50800D03*
X121000Y37400D03*
X124200Y51200D03*
X131200Y66200D03*
X135200Y73200D03*
X131200Y71700D03*
X132200Y89165D03*
Y92131D03*
Y95096D03*
Y86200D03*
X148188Y68688D03*
X154227Y78173D03*
X149200Y76700D03*
X161600Y69700D03*
X171200Y52200D03*
X168800Y42100D03*
X171200Y58200D03*
X170400Y76800D03*
X167800Y79700D03*
X169000Y83600D03*
X178150Y112200D03*
G54D23*
X76562Y57074D03*
X74594D03*
X72625D03*
X70657D03*
X68688D03*
X66720D03*
X64751D03*
Y141326D03*
X66720D03*
X68688D03*
X70657D03*
X72625D03*
X74594D03*
X76562D03*
X98216Y57074D03*
X96247D03*
X94279D03*
X92310D03*
X90342D03*
X88373D03*
X86405D03*
X84436D03*
X82468D03*
X80499D03*
X78531D03*
Y141326D03*
X80499D03*
X82468D03*
X84436D03*
X86405D03*
X88373D03*
X90342D03*
X92310D03*
X94279D03*
X96247D03*
X98216D03*
X119869Y57074D03*
X117901D03*
X115932D03*
X113964D03*
X111995D03*
X110027D03*
X108058D03*
X106090D03*
X104121D03*
X102153D03*
X100184D03*
Y141326D03*
X102153D03*
X104121D03*
X106090D03*
X108058D03*
X110027D03*
X111995D03*
X113964D03*
X115932D03*
X117901D03*
X119869D03*
X133649Y57074D03*
X131680D03*
X129712D03*
X127743D03*
X125775D03*
X123806D03*
X121838D03*
Y141326D03*
X123806D03*
X125775D03*
X127743D03*
X129712D03*
X131680D03*
X133649D03*
G54D15*
X13100Y38900D03*
X38200Y69600D03*
Y122200D03*
X155700Y37200D03*
G54D24*
X157200Y77917D03*
Y72483D03*
G54D16*
X3200Y77200D03*
Y67200D03*
X13200Y77200D03*
X3200Y97200D03*
Y87200D03*
X13200Y97200D03*
Y87200D03*
X3200Y117200D03*
Y107200D03*
X13200Y117200D03*
Y107200D03*
X3200Y137200D03*
Y127200D03*
X13200Y137200D03*
Y127200D03*
G54D25*
X161917Y83200D03*
X156483D03*
G54D17*
X13200Y67200D03*
G54D26*
X174500Y82900D03*
Y87900D03*
Y92900D03*
Y97900D03*
X179500Y87900D03*
Y92900D03*
Y97900D03*
X174500Y102900D03*
X179500D03*
G54D18*
X50800Y800D03*
Y10800D03*
X40000Y180000D03*
Y170000D03*
X50000Y180000D03*
Y170000D03*
X60000Y180000D03*
Y170000D03*
X80800Y800D03*
Y10800D03*
X70800Y800D03*
Y10800D03*
X60800Y800D03*
Y10800D03*
X70000Y180000D03*
Y170000D03*
X100800Y800D03*
Y10800D03*
X90800Y800D03*
Y10800D03*
X120800Y800D03*
Y10800D03*
X110800Y800D03*
Y10800D03*
X120900Y169500D03*
X130900D03*
X140900D03*
G54D27*
X179500Y82900D03*
G54D19*
X50800Y20800D03*
X40000Y160000D03*
X50000D03*
X60000D03*
X80800Y20800D03*
X70800D03*
X60800D03*
X70000Y160000D03*
X100800Y20800D03*
X90800D03*
X120800D03*
X110800D03*
X150900Y169500D03*
G54D28*
X179200Y129854D03*
Y136546D03*
G54D29*
G01X88300Y29200D02*
X85977Y31523D01*
X69723D01*
G01X63200Y41200D02*
X68200D01*
G01X73200D02*
X68200D01*
G01X58200D02*
X63200D01*
G01X88000Y41000D02*
X85500D01*
X80850Y45650D01*
Y48250D01*
X76562Y52538D01*
Y57074D01*
G01X68200Y47200D02*
X73200D01*
G01X66720Y59000D02*
Y57074D01*
G01X74700Y64700D02*
X72500Y66900D01*
Y106900D01*
X65436Y113964D01*
X57074D01*
G01X68700Y64700D02*
Y76700D01*
X62932Y82468D01*
X57074D01*
G01X65700Y65200D02*
Y77200D01*
X62401Y80499D01*
X57074D01*
G01X71700Y64700D02*
X70500Y65900D01*
Y104900D01*
X63405Y111995D01*
X57074D01*
G01X81700Y62200D02*
X87700Y68200D01*
Y110983D01*
X70940Y127743D01*
X57074D01*
G01X84700Y62200D02*
X89200Y66700D01*
Y112268D01*
X71756Y129712D01*
X57074D01*
G01X64751Y141326D02*
Y136649D01*
X69200Y132200D01*
X72700D01*
X90700Y114200D01*
Y65700D01*
X87700Y62700D01*
Y62200D01*
G01X78700D02*
X85800Y69300D01*
Y110100D01*
X70125Y125775D01*
X57074D01*
G01X93300Y46300D02*
X83300D01*
G01X91300Y43800D02*
X86300D01*
X85800Y44300D01*
G01X81200Y51400D02*
X83800Y48800D01*
X95800D01*
X96300Y48300D01*
G01X98300Y68300D02*
X98200Y68200D01*
Y66676D01*
X92310Y60786D01*
Y57074D01*
G01X94300Y66300D02*
X93300D01*
X90342Y63342D01*
Y57074D01*
G01X80300Y90800D02*
Y107300D01*
X80700Y107700D01*
G01X132700Y22200D02*
X129400D01*
X127400Y24200D01*
Y27600D01*
X125400Y29600D01*
X105500D01*
X103600Y31500D01*
Y47700D01*
X106400Y50500D01*
X108500D01*
X110027Y52027D01*
Y57074D01*
G01X113800Y34300D02*
X120800D01*
G01X99400Y27400D02*
X123300D01*
G01X121000Y37400D02*
X116200D01*
G01X112200Y47200D02*
X117200D01*
G01X106090Y57074D02*
Y68090D01*
X114732Y76732D01*
Y83515D01*
X116917Y85700D01*
X128200D01*
X131665Y89165D01*
X132200D01*
G01Y92131D02*
X131631D01*
X126700Y87200D01*
X115632D01*
X112763Y84331D01*
Y76763D01*
X104121Y68121D01*
Y57074D01*
G01X132200Y95096D02*
X131596D01*
X125200Y88700D01*
X114349D01*
X110795Y85146D01*
Y76795D01*
X102153Y68153D01*
Y57074D01*
G01X132200Y86200D02*
X130200Y84200D01*
X118200D01*
X116700Y82700D01*
Y76200D01*
X108058Y67558D01*
Y57074D01*
G01X118700Y65200D02*
Y63317D01*
X117901Y62518D01*
Y57074D01*
G01X114200Y65700D02*
X114231Y65670D01*
X115932D01*
G01D02*
X116200Y65938D01*
Y71200D01*
G01X115932Y57074D02*
Y65670D01*
G01X141200Y32200D02*
X136700D01*
X132700Y28200D01*
G01X141326Y68688D02*
X133688D01*
X131200Y66200D01*
G01X141326Y72625D02*
X135775D01*
X135200Y73200D01*
G01X141326Y70657D02*
X132243D01*
X131200Y71700D01*
G01X121800Y95600D02*
X125400D01*
X135890Y106090D01*
X141326D01*
G01X121700Y101400D02*
X126700D01*
X133358Y108058D01*
X141326D01*
G01Y68688D02*
X148188D01*
G01X141326Y72625D02*
X154658D01*
X154800Y72483D01*
X157200D01*
G01X141326Y74594D02*
X149200D01*
G01D02*
X154227D01*
G01X149200D02*
Y76700D01*
G01X154227Y74594D02*
X157200Y77567D01*
Y77917D01*
G01X154227Y74594D02*
Y78173D01*
G01X157200Y77917D02*
Y82483D01*
X156483Y83200D01*
G01X159200Y108200D02*
X165200D01*
G01X200Y-9800D02*
X177000D01*
G03X187000Y200I0J10000D01*
G01Y177000D01*
G03X177000Y187000I-10000J0D01*
G01X200D01*
G03X-9800Y177000I0J-10000D01*
G01Y200D01*
G03X200Y-9800I10000J0D01*
M02*
