G04 ================== begin FILE IDENTIFICATION RECORD ==================*
G04 Layout Name:  quadcopter_0_1.brd*
G04 Film Name:    POWER*
G04 File Format:  Gerber RS274X*
G04 File Origin:  Cadence Allegro 16.6-S005*
G04 Origin Date:  Sat Aug 16 21:59:59 2014*
G04 *
G04 Layer:  BOARD GEOMETRY/OUTLINE*
G04 Layer:  ETCH/POWER*
G04 Layer:  PIN/POWER*
G04 Layer:  VIA CLASS/POWER*
G04 *
G04 Offset:    (0.000 0.000)*
G04 Mirror:    No*
G04 Mode:      Positive*
G04 Rotation:  0*
G04 FullContactRelief:  No*
G04 UndefLineWidth:     0.000*
G04 ================== end FILE IDENTIFICATION RECORD ====================*
%FSLAX25Y25*MOIN*%
%IR0*IPPOS*OFA0.00000B0.00000*MIA0B0*SFA1.00000B1.00000*%
%ADD18C,.01*%
%ADD11C,.025*%
%ADD17C,.038*%
%ADD12C,.021654*%
%ADD10C,.035433*%
%ADD13C,.041339*%
%ADD16C,.025591*%
%ADD14C,.059055*%
%ADD15C,.066929*%
%ADD19C,.02*%
%ADD26C,.051344*%
%ADD24C,.081344*%
%ADD23C,.031658*%
%ADD22C,.061658*%
%ADD25C,.075438*%
%ADD20C,.035596*%
%ADD21C,.065596*%
G75*
%LPD*%
G75*
G36*
G01X160437Y30200D02*
X180463D01*
X186317Y36054D01*
G02X187000Y35771I283J-283D01*
G01Y10000D01*
X167200D01*
Y-9800D01*
X10000D01*
Y10000D01*
X-9800D01*
Y45321D01*
G02X-9116Y45603I400J0D01*
G03Y48797I1616J1597D01*
G02X-9800Y49079I-284J281D01*
G01Y167200D01*
X10000D01*
Y187000D01*
X167200D01*
Y167200D01*
X187000D01*
Y145129D01*
G02X186317Y144846I-400J0D01*
G01X183863Y147300D01*
X148863D01*
X147800Y148363D01*
Y178363D01*
X144863Y181300D01*
X84537D01*
X81139Y177902D01*
G02X80463Y178256I-283J283D01*
G03X70548Y181836I-5263J944D01*
G02X69852I-348J197D01*
G03X60548I-4652J-2636D01*
G02X59852I-348J197D01*
G03X50548I-4652J-2636D01*
G02X49852I-348J197D01*
G03X41458Y175381I-4652J-2636D01*
G01X41459Y175380D01*
X43078Y173760D01*
G03X43600Y173344I2121J2121D01*
G01Y172537D01*
X46537Y169600D01*
X77363D01*
X85863Y178100D01*
X119840D01*
G02X120205Y177537I0J-400D01*
G03X121860Y173207I2995J-1337D01*
G02X121869Y172481I-163J-365D01*
G03X125856Y168134I1331J-2781D01*
G02X126544I344J-203D01*
G03X131856I2656J1566D01*
G02X132544I344J-203D01*
G03X137856I2656J1566D01*
G02X138544I344J-203D01*
G03X143855Y168134I2655J1566D01*
G02X144600Y167930I345J-203D01*
G01Y147037D01*
X147537Y144100D01*
X182537D01*
X184283Y142354D01*
Y120373D01*
G02X183700Y120017I-400J0D01*
G03X179199Y115777I-1500J-2917D01*
G02X178755Y115223I-366J-161D01*
G03X175133Y112835I-605J-3023D01*
G02X174496Y112603I-391J82D01*
G03X174968Y110358I-1096J-1403D01*
G02X175646Y110402I352J-189D01*
G03X181005Y113363I2505J1798D01*
G02X181465Y113904I370J151D01*
G03X183700Y114183I735J3196D01*
G02X184283Y113827I183J-356D01*
G01Y74251D01*
X183600Y73569D01*
Y37863D01*
X179137Y33400D01*
X161763D01*
X159695Y35468D01*
X159714Y35572D01*
G03X159767Y36133I-2947J560D01*
G01X159767Y37172D01*
Y37175D01*
G03X155735Y33133I-4067J25D01*
G01X155740D01*
X156767Y33133D01*
G03X157328Y33186I1J3000D01*
G01X157432Y33205D01*
X160437Y30200D01*
G37*
G36*
G01X45907Y175174D02*
X47566Y176834D01*
X45200Y179450D01*
X42834Y176834D01*
X44493Y175174D01*
G03X45907I707J707D01*
G37*
G36*
G01X157767Y36133D02*
X157767Y37200D01*
X155523Y37377D01*
X155700Y35133D01*
X156767Y35133D01*
G03X157767Y36133I0J1000D01*
G37*
%LPC*%
G75*
G36*
G01X125588Y-1580D02*
G03X126097Y-2129I358J-178D01*
G02X124197Y-4210I1237J-3038D01*
G03X123604Y-3752I-383J117D01*
G02X116148Y-1836I-2804J4552D01*
G03X115452I-348J-197D01*
G02X106148I-4652J2636D01*
G03X105452I-348J-197D01*
G02X96148I-4652J2636D01*
G03X95452I-348J-197D01*
G02X86148I-4652J2636D01*
G03X85452I-348J-197D01*
G02X76148I-4652J2636D01*
G03X75452I-348J-197D01*
G02X66148I-4652J2636D01*
G03X65452I-348J-197D01*
G02X56148I-4652J2636D01*
G03X55452I-348J-197D01*
G02X48164Y5452I-4652J2636D01*
G03Y6148I-197J348D01*
G02Y15452I2636J4652D01*
G03Y16148I-197J348D01*
G02X55452Y23436I2636J4652D01*
G03X56148I348J197D01*
G02X65452I4652J-2636D01*
G03X66148I348J197D01*
G02X75452I4652J-2636D01*
G03X76148I348J197D01*
G02X85452I4652J-2636D01*
G03X86148I348J197D01*
G02X88074Y25400I4652J-2636D01*
G03X87920Y26141I-204J344D01*
G02X90291Y26847I381J3059D01*
G03X90567Y26142I258J-305D01*
G02X95452Y23436I233J-5342D01*
G03X96148I348J197D01*
G02X97904Y25295I4652J-2636D01*
G03X97930Y25949I-217J336D01*
G02X98323Y31106I1870J2451D01*
G02X102855Y28817I3055J417D01*
G02X102240Y26516I-3055J-417D01*
G03X102435Y25891I317J-244D01*
G02X105452Y23436I-1635J-5091D01*
G03X106148I348J197D01*
G02X115452I4652J-2636D01*
G03X116148I348J197D01*
G02X119712Y26035I4652J-2636D01*
G03X119960Y26653I-81J392D01*
G02X120349Y30608I2540J1747D01*
G03X120153Y31286I-279J286D01*
G02X117722Y34126I647J3014D01*
G03X117194Y34482I-399J-23D01*
G02X116882Y34393I-994J2918D01*
G02X113118Y37307I-3081J-93D01*
G02X114402Y39905I3081J93D01*
G02X120269Y40905I2798J1295D01*
G03X120705Y40469I398J-38D01*
G02X123558Y35678I295J-3069D01*
G02X122951Y32092I-2758J-1379D01*
G03X123147Y31414I279J-286D01*
G02X124054Y25737I-647J-3014D01*
G03X124015Y25072I202J-345D01*
G02X123436Y16148I-3215J-4272D01*
G03Y15452I197J-348D01*
G02Y6148I-2636J-4652D01*
G03Y5452I197J-348D01*
G02X125588Y-1580I-2636J-4652D01*
G37*
G36*
G01X87677Y42692D02*
G02X81773Y43217I-2877J1108D01*
G02X78721Y46139I27J3083D01*
G03X78136Y46472I-399J-21D01*
G02X76372Y52265I-1436J2728D01*
G02X82052Y49910I2928J-965D01*
G03X82339Y49336I357J-180D01*
G02X84827Y46883I-539J-3035D01*
G02X87677Y44908I-27J-3083D01*
G03X88423I373J144D01*
G02X90243Y46696I2877J-1108D01*
G02X91502Y48804I3057J-396D01*
G03X91544Y49420I-233J325D01*
G02X97040Y51293I2256J2380D01*
G02X97485Y51146I-740J-2993D01*
G03X98035Y51568I154J369D01*
G02X99568Y50035I1765J233D01*
G03X99146Y49485I-52J-397D01*
G02X99381Y48409I-2846J-1185D01*
G03X100031Y48111I400J14D01*
G02X99515Y46396I992J-1234D01*
G03X98808Y46507I-381J-122D01*
G02X96187Y45219I-2508J1793D01*
G02X94357Y43404I-2887J1081D01*
G02X88423Y42692I-3057J396D01*
G03X87677I-373J-144D01*
G37*
G36*
G01X7826Y65431D02*
G02X1431Y71826I-4626J1769D01*
G03Y72574I-143J374D01*
G02Y81826I1769J4626D01*
G03Y82574I-143J374D01*
G02Y91826I1769J4626D01*
G03Y92574I-143J374D01*
G02Y101826I1769J4626D01*
G03Y102574I-143J374D01*
G02Y111826I1769J4626D01*
G03Y112574I-143J374D01*
G02Y121826I1769J4626D01*
G03Y122574I-143J374D01*
G02Y131826I1769J4626D01*
G03Y132574I-143J374D01*
G02X7826Y138969I1769J4626D01*
G03X8574I374J143D01*
G02X14969Y132574I4626J-1769D01*
G03Y131826I143J-374D01*
G02Y122574I-1769J-4626D01*
G03Y121826I143J-374D01*
G02Y112574I-1769J-4626D01*
G03Y111826I143J-374D01*
G02Y102574I-1769J-4626D01*
G03Y101826I143J-374D01*
G02Y92574I-1769J-4626D01*
G03Y91826I143J-374D01*
G02Y82574I-1769J-4626D01*
G03Y81826I143J-374D01*
G02Y72574I-1769J-4626D01*
G03Y71826I143J-374D01*
G02X8574Y65431I-1769J-4626D01*
G03X7826I-374J-143D01*
G37*
G36*
G01X123774Y98220D02*
G02X119737Y98150I-1974J-2620D01*
G03X119726Y98780I-252J311D01*
G02X119635Y103948I1974J2620D01*
G03X119592Y104600I-252J311D01*
G02X123285Y110011I1708J2800D01*
G03X123926Y110361I242J318D01*
G02X124972Y108876I1774J139D01*
G03X124427Y108390I-164J-365D01*
G02X123365Y104852I-3127J-990D01*
G03X123409Y104200I252J-311D01*
G02X123763Y98850I-1708J-2800D01*
G03X123774Y98220I252J-311D01*
G37*
G36*
G01X157954Y121899D02*
G02X157779Y124173I-3154J901D01*
G03X158483Y124131I363J167D01*
G02X158643Y122048I1517J-931D01*
G03X157954Y121899I-305J-259D01*
G37*
G36*
G01X134550Y-3233D02*
G02X139850I2650J1933D01*
G02X134550I-2650J-1933D01*
G37*
G36*
G01X143751Y33930D02*
G03X144421Y33942I331J224D01*
G02X145901Y35212I2779J-1743D01*
G03X146010Y35876I-158J367D01*
G02X148390I1190J1324D01*
G03X148499Y35212I267J-297D01*
G02X144421Y30458I-1299J-3012D01*
G03X143751Y30470I-339J-212D01*
G02Y33930I-2551J1731D01*
G37*
G36*
G01X-1654Y38987D02*
G03Y38413I278J-287D01*
G02X-5946I-2146J-2213D01*
G03Y38987I-278J287D01*
G02X-1654I2147J2213D01*
G37*
G36*
G01X166295Y40304D02*
G03X165636Y40291I-325J-233D01*
G02Y43909I-2736J1809D01*
G03X166295Y43896I334J221D01*
G02Y40304I2505J-1796D01*
G37*
G36*
G01X143607Y48972D02*
G03Y48428I293J-272D01*
G02X138793I-2407J-2228D01*
G03Y48972I-293J272D01*
G02Y53428I2407J2228D01*
G03Y53972I-293J272D01*
G02X143607I2407J2228D01*
G03Y53428I293J-272D01*
G02Y48972I-2407J-2228D01*
G37*
G36*
G01X124955Y49809D02*
G03X124861Y49177I191J-351D01*
G02X119348Y47701I-2338J-2300D01*
G03X118873Y48192I-387J100D01*
G02X121208Y50526I-673J3008D01*
G03X121699Y50052I390J-87D01*
G02X122347Y50152I824J-3175D01*
G03X122704Y50682I-21J399D01*
G02X124955Y49809I1496J518D01*
G37*
G36*
G01X169112Y55932D02*
G03X168564Y55927I-271J-294D01*
G02X168659Y60578I-2264J2373D01*
G03X169206Y60551I288J278D01*
G02X169112Y55932I1994J-2351D01*
G37*
G36*
G01X62244Y63105D02*
G03X61904Y63631I-379J129D01*
G02X64905Y68179I296J3069D01*
G02X67641Y67595I795J-2979D01*
G02X70200Y67393I1059J-2895D01*
G02X73200I1500J-2693D01*
G02X77673Y65517I1500J-2693D01*
G03X78132Y65230I386J106D01*
G02X80200Y64893I568J-3030D01*
G02X83200I1500J-2693D01*
G02X86200I1500J-2693D01*
G02Y59507I1500J-2693D01*
G02X83200I-1500J2693D01*
G02X80200I-1500J2693D01*
G02X75727Y61383I-1500J2693D01*
G03X75268Y61670I-386J-106D01*
G02X73200Y62007I-568J3030D01*
G02X70200I-1500J2693D01*
G02X68601Y61619I-1500J2693D01*
G02X62244Y63105I-3251J431D01*
G37*
G36*
G01X119308Y72262D02*
G02X121639Y66131I1175J-3062D01*
G02X116340Y63216I-2939J-931D01*
G03X116066Y63246I-153J-129D01*
G02X113514Y68706I-1866J2454D01*
G03X113744Y69337I-89J390D01*
G02X119051Y72373I2457J1863D01*
G03X119308Y72262I185J76D01*
G37*
G36*
G01X133092Y69266D02*
G03Y68634I246J-316D01*
G02X129308I-1892J-2434D01*
G03Y69266I-246J316D01*
G02X128201Y70985I1892J2434D01*
G03X127637Y71252I-389J-93D01*
G02X129421Y74820I-1437J2948D01*
G03X129973Y74528I393J76D01*
G02X132419Y74532I1227J-2828D01*
G02X133981Y70368I2781J-1331D01*
G02X133092Y69266I-2781J1332D01*
G37*
G36*
G01X97431Y65342D02*
G03X97188Y65220I-56J-192D01*
G02X91594Y67777I-2888J1080D01*
G03X91526Y68041I-176J96D01*
G02X96521Y71420I1774J2759D01*
G03X97073Y71128I393J76D01*
G02X97431Y65342I1227J-2828D01*
G37*
G36*
G01X33766Y78544D02*
G03Y77856I203J-345D01*
G02X30634I-1566J-2655D01*
G03Y78544I-203J345D01*
G02Y83856I1566J2655D01*
G03Y84545I-203J345D01*
G02Y89856I1566J2655D01*
G03Y90544I-203J345D01*
G02Y95856I1566J2655D01*
G03Y96545I-203J345D01*
G02Y101855I1566J2655D01*
G03Y102544I-203J345D01*
G02Y107856I1566J2656D01*
G03Y108544I-203J344D01*
G02Y113856I1566J2656D01*
G03Y114544I-203J345D01*
G02X33766I1566J2655D01*
G03Y113856I203J-344D01*
G02Y108544I-1566J-2655D01*
G03Y107856I203J-344D01*
G02Y102544I-1566J-2656D01*
G03Y101855I203J-344D01*
G02Y96545I-1566J-2655D01*
G03Y95856I203J-345D01*
G02Y90544I-1566J-2655D01*
G03Y89856I203J-345D01*
G02Y84545I-1566J-2655D01*
G03Y83856I203J-345D01*
G02Y78544I-1566J-2655D01*
G37*
G36*
G01X152574Y75571D02*
G03X151996Y75402I-215J-338D01*
G02X150853Y79302I-2796J1298D01*
G03X151431Y79471I215J338D01*
G02X152574Y75571I2796J-1298D01*
G37*
G36*
G01X173380Y79164D02*
G03X172936Y78554I-115J-383D01*
G02X167320Y76655I-2536J-1754D01*
G02X166191Y82330I479J3045D01*
G02X170185Y86446I2809J1270D01*
G03X170726Y86916I154J369D01*
G02X171506Y90400I3774J984D01*
G02Y95400I2994J2500D01*
G02Y100400I2994J2500D01*
G02X177000Y105894I2994J2500D01*
G02X182494Y100400I2500J-2994D01*
G02Y95400I-2994J-2500D01*
G02Y90400I-2994J-2500D01*
G02X181681Y84667I-2994J-2500D01*
G03X181561Y84130I224J-332D01*
G02X178270Y80839I-2061J-1230D01*
G03X177733Y80719I-205J-343D01*
G02X173380Y79164I-3233J2181D01*
G37*
G36*
G01X50402Y76019D02*
G03X49918Y75735I-97J-388D01*
G02X47735Y77918I-1718J465D01*
G03X48019Y78402I-104J386D01*
G02X50402Y76019I3181J798D01*
G37*
G36*
G01X96209Y80813D02*
G03X96222Y80257I294J-271D01*
G02X91511Y80146I-2302J-2336D01*
G03X91498Y80702I-294J271D01*
G02X96209Y80813I2302J2336D01*
G37*
G36*
G01X134903Y90648D02*
G02Y87683I-2703J-1483D01*
G02X129497I-2703J-1483D01*
G02Y90648I2703J1483D01*
G02Y93614I2703J1483D01*
G02X134903I2703J1483D01*
G02Y90648I-2703J-1483D01*
G37*
G36*
G01X156520Y100310D02*
G03X155862Y100305I-327J-231D01*
G02X155833Y104043I-2709J1848D01*
G03X156491Y104048I327J231D01*
G02X161918Y104035I2709J-1848D01*
G03X162582I332J224D01*
G02Y100365I2719J-1835D01*
G03X161918I-331J-224D01*
G02X156520Y100310I-2718J1835D01*
G37*
G36*
G01X180812Y132848D02*
G02X181623Y127469I-1612J-2994D01*
G02X176806Y127440I-2395J-2241D01*
G02X177588Y132848I2394J2414D01*
G03Y133552I-190J352D01*
G02X180812I1612J2994D01*
G03Y132848I190J-352D01*
G37*
G36*
G01X86483Y129037D02*
G03X86214Y129656I-331J224D01*
G02X89313Y131064I486J3044D01*
G03X89603Y130455I339J-212D01*
G02X86483Y129037I-403J-3255D01*
G37*
G36*
G01X116876Y130845D02*
G03X116186Y130759I-321J-239D01*
G02Y133641I-3486J1441D01*
G03X116876Y133555I370J153D01*
G02Y130845I1824J-1355D01*
G37*
G36*
G01X88548Y164564D02*
G03X87852I-348J-197D01*
G02Y169836I-4652J2636D01*
G03X88548I348J197D01*
G02X97852I4652J-2636D01*
G03X98548I348J197D01*
G02X107852I4652J-2636D01*
G03X108548I348J197D01*
G02Y164564I4652J-2636D01*
G03X107852I-348J-197D01*
G02X98548I-4652J2636D01*
G03X97852I-348J-197D01*
G02X88548I-4652J2636D01*
G37*
G36*
G01X83642Y92005D02*
G03X83299Y91515I46J-397D01*
G02X77330Y89973I-2999J-715D01*
G03X76863Y90258I-385J-107D01*
G02X77798Y93218I-363J1742D01*
G03X78343Y93182I292J274D01*
G02X79795Y93841I1957J-2382D01*
G03X80114Y94348I-66J395D01*
G02X79985Y95384I3149J916D01*
G03X79326Y95703I-400J15D01*
G02X80478Y98079I-2126J2497D01*
G03X81137Y97760I400J-15D01*
G02X83642Y92005I2126J-2497D01*
G37*
G54D26*
X13100Y38900D03*
G54D24*
X38200Y122200D03*
Y69600D03*
G54D23*
X92700Y132700D03*
X58023Y46877D03*
X47700Y135700D03*
G54D22*
X161600Y69700D03*
X148188Y68688D03*
X133800Y50800D03*
X132700Y28200D03*
X80700Y107700D03*
X69723Y31523D03*
X59700Y33700D03*
X47700Y129700D03*
X42200Y53200D03*
G54D25*
X33200Y55507D03*
X-3800Y53200D03*
G54D20*
X162600Y88800D03*
X172300Y37300D03*
X166400Y52200D03*
X171200D03*
X180800Y19800D03*
X154800Y128800D03*
X148800Y107800D03*
X159300Y27300D03*
X126200Y80200D03*
X102200Y121200D03*
Y127200D03*
X89200Y121200D03*
X94200Y29200D03*
X67061Y83039D03*
X66200Y91200D03*
X63300Y47200D03*
X47800Y111800D03*
X42800D03*
X48200Y64200D03*
G54D21*
X148300Y92310D03*
X150502Y61598D03*
X159300Y18300D03*
X146566Y-5166D03*
X131800Y110400D03*
X140200Y20200D03*
X108200Y78200D03*
X96200Y127200D03*
X94200Y35200D03*
X63300Y100300D03*
X71200Y117300D03*
X47800Y105800D03*
%LPD*%
G75*
G54D10*
X-7500Y47200D03*
X-3800Y53200D03*
X33200Y55507D03*
X112700Y132200D03*
X118700D03*
G54D11*
X0Y0D03*
Y177200D03*
X177200Y0D03*
Y177200D03*
G54D12*
X-3800Y36200D03*
Y41200D03*
X32200Y75200D03*
Y81200D03*
Y93200D03*
Y87200D03*
Y99200D03*
Y117200D03*
Y105200D03*
Y111200D03*
X42200Y53200D03*
X47700Y129700D03*
Y135700D03*
X59700Y33700D03*
X69723Y31523D03*
X58023Y46877D03*
X76700Y49200D03*
X74700Y64700D03*
X68700D03*
X65700Y65200D03*
X71700Y64700D03*
X62200Y66700D03*
X88300Y29200D03*
X93300Y46300D03*
X81800D03*
X91300Y43800D03*
X84800D03*
X96300Y48300D03*
X79300Y51300D03*
X98300Y68300D03*
X94300Y66300D03*
X81700Y62200D03*
X84700D03*
X87700D03*
X78700D03*
X80300Y90800D03*
X80700Y107700D03*
X86700Y132700D03*
X92700D03*
X101377Y31523D03*
X113800Y34300D03*
X99800Y28400D03*
X117200Y41200D03*
X118200Y51200D03*
X116200Y37400D03*
X101023Y46877D03*
X118700Y65200D03*
X116200Y71200D03*
X114200Y65700D03*
X120800Y34300D03*
X122500Y28400D03*
X132700Y28200D03*
X141200Y32200D03*
X133800Y50800D03*
X121000Y37400D03*
X124200Y51200D03*
X131200Y66200D03*
X135200Y73200D03*
X131200Y71700D03*
X132200Y89165D03*
Y92131D03*
Y95096D03*
Y86200D03*
X123200Y169700D03*
X129200D03*
X135200D03*
X141200D03*
X148188Y68688D03*
X154227Y78173D03*
X149200Y76700D03*
X161600Y69700D03*
X171200Y52200D03*
X168800Y42100D03*
X171200Y58200D03*
X170400Y76800D03*
X167800Y79700D03*
X169000Y83600D03*
X178150Y112200D03*
G54D13*
X13100Y38900D03*
X38200Y69600D03*
Y122200D03*
X155700Y37200D03*
G54D14*
X3200Y77200D03*
Y67200D03*
X13200Y77200D03*
Y67200D03*
X3200Y97200D03*
Y87200D03*
X13200Y97200D03*
Y87200D03*
X3200Y117200D03*
Y107200D03*
X13200Y117200D03*
Y107200D03*
X3200Y137200D03*
Y127200D03*
X13200Y137200D03*
Y127200D03*
G54D15*
X50800Y800D03*
Y10800D03*
Y20800D03*
X55200Y179200D03*
X45200D03*
X80800Y800D03*
Y10800D03*
X70800Y800D03*
Y10800D03*
X60800Y800D03*
Y10800D03*
X80800Y20800D03*
X70800D03*
X60800D03*
X75200Y179200D03*
X65200D03*
X100800Y800D03*
Y10800D03*
X90800Y800D03*
Y10800D03*
X100800Y20800D03*
X90800D03*
X93200Y167200D03*
X83200D03*
X120800Y800D03*
Y10800D03*
X110800Y800D03*
Y10800D03*
X120800Y20800D03*
X110800D03*
X113200Y167200D03*
X103200D03*
G54D16*
X48200Y76200D03*
Y64200D03*
X51200Y79200D03*
X47800Y105800D03*
X42800Y111800D03*
X47800D03*
X63300Y47200D03*
X65350Y62050D03*
X77200Y98200D03*
X76500Y92000D03*
X66200Y91200D03*
X67061Y83039D03*
X71200Y117300D03*
X63300Y100300D03*
X94200Y35200D03*
Y29200D03*
X93800Y51800D03*
X93920Y77920D03*
X93300Y70800D03*
X83263Y95263D03*
X93800Y83039D03*
X96200Y127200D03*
X89200D03*
Y121200D03*
X99800Y51800D03*
X120483Y69200D03*
X108200Y78200D03*
X102200Y127200D03*
Y121200D03*
X127334Y-5166D03*
X137200Y-1300D03*
Y-5166D03*
X140200Y20200D03*
X141200Y46200D03*
Y51200D03*
Y56200D03*
X122523Y46877D03*
X126200Y74200D03*
X121800Y95600D03*
X126200Y80200D03*
X131800Y110400D03*
X121300Y107400D03*
X121700Y101400D03*
X125700Y110500D03*
X141200Y176200D03*
X135200D03*
X129200D03*
X123200D03*
X146566Y-5166D03*
X159300Y18300D03*
X147200Y32200D03*
X159300Y27300D03*
X147200Y37200D03*
X150502Y61598D03*
X148300Y92310D03*
X153153Y102153D03*
X148800Y107800D03*
X159200Y102200D03*
X154800Y122800D03*
X160000Y123200D03*
X154800Y128800D03*
X180800Y19800D03*
X162900Y42100D03*
X171200Y52200D03*
X166400D03*
X172300Y37300D03*
X166300Y58300D03*
X162600Y88800D03*
X182200Y117100D03*
X165300Y102200D03*
X173400Y111200D03*
X179228Y125228D03*
G54D17*
X174500Y82900D03*
Y87900D03*
Y92900D03*
Y97900D03*
X179500Y87900D03*
Y92900D03*
Y97900D03*
Y82900D03*
X174500Y102900D03*
X179500D03*
G54D18*
X179200Y129854D03*
Y136546D03*
G54D19*
G01X-7500Y44728D02*
Y47200D01*
G01D02*
Y49672D01*
G01Y47200D02*
X-5028D01*
G01X13100Y36133D02*
Y38900D01*
G01D02*
Y41667D01*
G01X10333Y38900D02*
X13100D01*
G01D02*
X15867D01*
G01X56240Y46877D02*
X58023D01*
G01X48200Y62220D02*
Y64200D01*
G01D02*
Y66180D01*
G01X46220Y64200D02*
X48200D01*
G01D02*
X50180D01*
G01X48200Y74220D02*
Y76200D01*
G01X46220D02*
X48200D01*
G01X47800Y109820D02*
Y111800D01*
G01D02*
Y113780D01*
G01X45820Y111800D02*
X47800D01*
G01D02*
X49780D01*
G01X42800Y109820D02*
Y111800D01*
G01D02*
Y113780D01*
G01X40820Y111800D02*
X42800D01*
G01D02*
X44780D01*
G01X47700Y133917D02*
Y135700D01*
G01D02*
Y137483D01*
G01X45917Y135700D02*
X47700D01*
G01D02*
X49483D01*
G01X45200Y179200D02*
Y173200D01*
X47200Y171200D01*
X76700D01*
X85200Y179700D01*
X144200D01*
X146200Y177700D01*
Y147700D01*
X148200Y145700D01*
X183200D01*
X185883Y143017D01*
Y73589D01*
X185200Y72906D01*
Y37200D01*
X179800Y31800D01*
X161100D01*
X155700Y37200D01*
G01X58023Y45094D02*
Y46877D01*
G01D02*
Y48660D01*
G01Y46877D02*
X59806D01*
G01X63300Y45220D02*
Y47200D01*
G01D02*
Y49180D01*
G01X61320Y47200D02*
X63300D01*
G01D02*
X65280D01*
G01X67061Y81059D02*
Y83039D01*
G01D02*
Y85018D01*
G01X65082Y83039D02*
X67061D01*
G01D02*
X69041D01*
G01X66200Y89220D02*
Y91200D01*
G01D02*
Y93180D01*
G01X64220Y91200D02*
X66200D01*
G01D02*
X68180D01*
G01X76500Y90020D02*
Y92000D01*
G01D02*
Y93980D01*
G01X74520Y92000D02*
X76500D01*
G01X94200Y27220D02*
Y29200D01*
G01D02*
Y31180D01*
G01X92220Y29200D02*
X94200D01*
G01D02*
X96180D01*
G01X97820Y51800D02*
X99800D01*
G01X89200Y119220D02*
Y121200D01*
G01X92700Y130917D02*
Y132700D01*
G01D02*
Y134483D01*
G01X90917Y132700D02*
X92700D01*
G01D02*
X94483D01*
G01X89200Y121200D02*
Y123180D01*
G01X87220Y121200D02*
X89200D01*
G01D02*
X91180D01*
G01X99800Y49820D02*
Y51800D01*
G01D02*
Y53780D01*
G01Y51800D02*
X101780D01*
G01X101023Y45094D02*
Y46877D01*
G01D02*
Y48660D01*
G01Y46877D02*
X102806D01*
G01X102200Y119220D02*
Y121200D01*
G01X118700Y129728D02*
Y132200D01*
G01D02*
Y134672D01*
G01Y132200D02*
X121172D01*
G01X102200Y121200D02*
Y123180D01*
G01X100220Y121200D02*
X102200D01*
G01D02*
X104180D01*
G01X102200Y125220D02*
Y127200D01*
G01D02*
Y129180D01*
G01X100220Y127200D02*
X102200D01*
G01D02*
X104180D01*
G01X124200Y51200D02*
Y52983D01*
G01X122417Y51200D02*
X124200D01*
G01D02*
X125983D01*
G01X126200Y78220D02*
Y80200D01*
G01D02*
Y82180D01*
G01X124220Y80200D02*
X126200D01*
G01D02*
X128180D01*
G01X125700Y108520D02*
Y110500D01*
G01D02*
Y112480D01*
G01X123720Y110500D02*
X125700D01*
G01D02*
X127680D01*
G01X159300Y25320D02*
Y27300D01*
G01D02*
Y29280D01*
G01X157320Y27300D02*
X159300D01*
G01D02*
X161280D01*
G01X147200Y37200D02*
Y39180D01*
G01X145220Y37200D02*
X147200D01*
G01D02*
X149180D01*
G01X160620Y88800D02*
X162600D01*
G01X148800Y105820D02*
Y107800D01*
G01D02*
Y109780D01*
G01X146820Y107800D02*
X148800D01*
G01D02*
X150780D01*
G01X154800Y126820D02*
Y128800D01*
G01D02*
Y130780D01*
G01X152820Y128800D02*
X154800D01*
G01D02*
X156780D01*
G01X160000Y121220D02*
Y123200D01*
G01D02*
Y125180D01*
G01Y123200D02*
X161980D01*
G01X172300Y35320D02*
Y37300D01*
G01X180800Y17820D02*
Y19800D01*
G01D02*
Y21780D01*
G01X178820Y19800D02*
X180800D01*
G01D02*
X182780D01*
G01X172300Y37300D02*
Y39280D01*
G01X170320Y37300D02*
X172300D01*
G01D02*
X174280D01*
G01X166400Y50220D02*
Y52200D01*
G01D02*
Y54180D01*
G01X164420Y52200D02*
X166400D01*
G01D02*
X168380D01*
G01X171200Y50220D02*
Y52200D01*
G01D02*
Y54180D01*
G01X169220Y52200D02*
X171200D01*
G01D02*
X173180D01*
G01X162600Y86820D02*
Y88800D01*
G01D02*
Y90780D01*
G01Y88800D02*
X164580D01*
G01X179500Y80300D02*
Y82900D01*
G01D02*
X182100D01*
G01X173400Y109220D02*
Y111200D01*
G01D02*
Y113180D01*
G01X171420Y111200D02*
X173400D01*
M02*
