M48
INCH
T01C.011811
T02C.015748
T03C.019685
T04C.023622
T05C.028
T06C.035433
T07C.028
T08C.125
;LEADER: 12 
;HEADER: 
;CODE  : ASCII 
;FILE  : quadcopter_0_1-1-4.drl for board #Taaaaab07036.tmp ... layers TOP and BOTTOM
;T01 Holesize 1. = 11.811000 Tolerance = +0.000000/-0.000000 PLATED MILS Quantity = 78
;T02 Holesize 2. = 15.748000 Tolerance = +0.000000/-0.000000 PLATED MILS Quantity = 72
;T03 Holesize 3. = 19.685000 Tolerance = +0.000000/-0.000000 PLATED MILS Quantity = 5
;T04 Holesize 4. = 23.622000 Tolerance = +0.000000/-0.000000 PLATED MILS Quantity = 4
;T05 Holesize 5. = 28.000000 Tolerance = +2.000000/-2.000000 PLATED MILS Quantity = 10
;T06 Holesize 6. = 35.433000 Tolerance = +0.000000/-0.000000 PLATED MILS Quantity = 48
%
G90
T01
X-00003800Y00041200
X-00003800Y00036200
X00042200Y00053200
X00058023Y00046877
X00059700Y00033700
X00069723Y00031523
X00076700Y00049200
X00079300Y00051300
X00081800Y00046300
X00084800Y00043800
X00088300Y00029200
X00091300Y00043800
X00093300Y00046300
X00096300Y00048300
X00099800Y00028400
X00101023Y00046877
X00101377Y00031523
X00113800Y00034300
X00116200Y00037400
X00117200Y00041200
X00118200Y00051200
X00120800Y00034300
X00121000Y00037400
X00122500Y00028400
X00124200Y00051200
X00132700Y00028200
X00133800Y00050800
X00141200Y00032200
X00168800Y00042100
X00171200Y00058200
X00171200Y00052200
X00178150Y00112200
X00170400Y00076800
X00169000Y00083600
X00167800Y00079700
X00161600Y00069700
X00154227Y00078173
X00149200Y00076700
X00148188Y00068688
X00135200Y00073200
X00132200Y00092131
X00132200Y00086200
X00132200Y00095096
X00132200Y00089165
X00131200Y00071700
X00131200Y00066200
X00118700Y00065200
X00116200Y00071200
X00114200Y00065700
X00098300Y00068300
X00094300Y00066300
X00087700Y00062200
X00084700Y00062200
X00081700Y00062200
X00080700Y00107700
X00080300Y00090800
X00078700Y00062200
X00074700Y00064700
X00071700Y00064700
X00068700Y00064700
X00065700Y00065200
X00062200Y00066700
X00032200Y00081200
X00032200Y00075200
X00032200Y00093200
X00032200Y00099200
X00032200Y00117200
X00032200Y00111200
X00032200Y00087200
X00032200Y00105200
X00047700Y00129700
X00047700Y00135700
X00086700Y00132700
X00092700Y00132700
X00123200Y00169700
R03X00006000
T02
X00063300Y00047200
X00065350Y00062050
X00048200Y00064200
X00048200Y00076200
X00051200Y00079200
X00067061Y00083039
X00066200Y00091200
X00076500Y00092000
X00077200Y00098200
X00063300Y00100300
X00047800Y00105800
X00047800Y00111800
X00042800Y00111800
X00071200Y00117300
X00096200Y00127200
X00089200Y00127200
X00102200Y00127200
X00089200Y00121200
X00102200Y00121200
X00083263Y00095263
X00093800Y00083039
X00108200Y00078200
X00093921Y00077921
X00093300Y00070800
X00093800Y00051800
X00099800Y00051800
X00094200Y00035200
X00094200Y00029200
X00137200Y-00005166
X00146566Y-00005166
X00127334Y-00005166
X00137200Y-00001300
X00159300Y00018300
X00140200Y00020200
X00159300Y00027300
X00147200Y00032200
X00147200Y00037200
X00141200Y00046200
X00122523Y00046877
X00141200Y00051200
X00141200Y00056200
X00150502Y00061598
X00120483Y00069200
X00126200Y00074200
X00126200Y00080200
X00148300Y00092310
X00121800Y00095600
X00121700Y00101400
X00153153Y00102153
X00159200Y00102200
X00121300Y00107400
X00148800Y00107800
X00131800Y00110400
X00125700Y00110500
X00154800Y00122800
X00154800Y00128800
X00135200Y00176200
X00129200Y00176200
X00141200Y00176200
X00123200Y00176200
X00179228Y00125228
X00160000Y00123200
X00182200Y00117100
X00173400Y00111200
X00165300Y00102200
X00162600Y00088800
X00166300Y00058300
X00166400Y00052200
X00171200Y00052200
X00162900Y00042100
X00172300Y00037300
X00180800Y00019800
T03
X-00007500Y00047200
X-00003800Y00053200
X00033200Y00055507
X00112700Y00132200
X00118700Y00132200
T04
X00013100Y00038900
X00038200Y00069600
X00038200Y00122200
X00155700Y00037200
T05
X00174500Y00082900
X00179500Y00082900
X00174500Y00087900
X00179500Y00087900
X00174500Y00092900
X00179500Y00092900
X00179500Y00097900
X00174500Y00097900
X00174500Y00102900
X00179500Y00102900
T06
X00050800Y00010800
X00050800Y00000800
X00060800Y00000800
X00060800Y00010800
X00070800Y00000800
X00070800Y00010800
X00080800Y00010800
X00080800Y00000800
X00090800Y00000800
X00090800Y00010800
X00100800Y00010800
X00100800Y00000800
X00110800Y00010800
X00110800Y00000800
X00120800Y00010800
X00120800Y00000800
X00120800Y00020800
R07X-00010000
X00013200Y00067200
X00013200Y00077200
X00003200Y00067200
X00003200Y00077200
X00013200Y00087200
X00013200Y00097200
X00003200Y00087200
R03Y00010000
X00013200Y00107200
X00013200Y00117200
X00003200Y00127200
X00003200Y00137200
X00013200Y00127200
X00013200Y00137200
X00045200Y00179200
R03X00010000
X00083200Y00167200
R03X00010000
M30
