G04 ================== begin FILE IDENTIFICATION RECORD ==================*
G04 Layout Name:  quadcopter_0_1.brd*
G04 Film Name:    SILKSCREEN_BOTTOM*
G04 File Format:  Gerber RS274X*
G04 File Origin:  Cadence Allegro 16.6-S005*
G04 Origin Date:  Sat Aug 16 21:59:59 2014*
G04 *
G04 Layer:  REF DES/SILKSCREEN_BOTTOM*
G04 Layer:  PACKAGE GEOMETRY/SILKSCREEN_BOTTOM*
G04 Layer:  BOARD GEOMETRY/OUTLINE*
G04 Layer:  BOARD GEOMETRY/SILKSCREEN_BOTTOM*
G04 *
G04 Offset:    (0.000 0.000)*
G04 Mirror:    No*
G04 Mode:      Positive*
G04 Rotation:  0*
G04 FullContactRelief:  No*
G04 UndefLineWidth:     6.000*
G04 ================== end FILE IDENTIFICATION RECORD ====================*
%FSLAX25Y25*MOIN*%
%IR0*IPPOS*OFA0.00000B0.00000*MIA0B0*SFA1.00000B1.00000*%
%ADD10C,.005*%
%ADD11C,.006*%
G75*
%LPD*%
G75*
G36*
G01X-524Y47204D02*
G03I-276J0D01*
G37*
G36*
G01Y53204D02*
G03I-276J0D01*
G37*
G36*
G01X29476Y75196D02*
G03I-276J0D01*
G37*
G36*
G01Y81196D02*
G03I-276J0D01*
G37*
G36*
G01Y87196D02*
G03I-276J0D01*
G37*
G36*
G01Y93196D02*
G03I-276J0D01*
G37*
G36*
G01Y99196D02*
G03I-276J0D01*
G37*
G36*
G01Y105196D02*
G03I-276J0D01*
G37*
G36*
G01Y111196D02*
G03I-276J0D01*
G37*
G36*
G01Y117196D02*
G03I-276J0D01*
G37*
G36*
G01X45476Y47196D02*
G03I-276J0D01*
G37*
G36*
G01Y53204D02*
G03I-276J0D01*
G37*
G36*
G01X123480Y161200D02*
G03I-276J0D01*
G37*
G36*
G01X129480D02*
G03I-276J0D01*
G37*
G36*
G01X135480D02*
G03I-276J0D01*
G37*
G36*
G01X156576Y96796D02*
G03I-276J0D01*
G37*
G36*
G01Y91796D02*
G03I-276J0D01*
G37*
G36*
G01X159480Y105200D02*
G03I-276J0D01*
G37*
G36*
G01X141480Y161200D02*
G03I-276J0D01*
G37*
G36*
G01X165472Y105200D02*
G03I-276J0D01*
G37*
G54D10*
G01X8578Y34833D02*
Y31733D01*
X7160Y33955D01*
X9076D01*
G01X1807Y31642D02*
X2037Y31797D01*
X2305Y31900D01*
X2612D01*
X2957Y31745D01*
X3225Y31487D01*
X3417Y31177D01*
X3570Y30660D01*
X3608Y30195D01*
X3532Y29730D01*
X3417Y29420D01*
X3187Y29110D01*
X2918Y28903D01*
X2650Y28800D01*
X2382D01*
X2113Y28903D01*
X1883Y29058D01*
X1692Y29265D01*
G01X-450Y28800D02*
Y31900D01*
X10Y31280D01*
G01Y28800D02*
X-910D01*
G01X-3473D02*
X-3550Y29472D01*
X-3665Y30040D01*
X-3818Y30557D01*
X-4010Y31125D01*
X-4317Y31900D01*
X-2783D01*
G01X1807Y26642D02*
X2037Y26797D01*
X2305Y26900D01*
X2612D01*
X2957Y26745D01*
X3225Y26487D01*
X3417Y26177D01*
X3570Y25660D01*
X3608Y25195D01*
X3532Y24730D01*
X3417Y24420D01*
X3187Y24110D01*
X2918Y23903D01*
X2650Y23800D01*
X2382D01*
X2113Y23903D01*
X1883Y24058D01*
X1692Y24265D01*
G01X-450Y23800D02*
Y26900D01*
X10Y26280D01*
G01Y23800D02*
X-910D01*
G01X-3550D02*
X-3818Y23852D01*
X-4125Y24007D01*
X-4317Y24265D01*
X-4393Y24627D01*
X-4317Y24988D01*
X-4087Y25298D01*
X-3742Y25453D01*
X-3358D01*
X-3128Y25557D01*
X-2937Y25815D01*
X-2860Y26177D01*
X-2975Y26538D01*
X-3243Y26797D01*
X-3550Y26900D01*
X-3857Y26797D01*
X-4125Y26538D01*
X-4240Y26177D01*
X-4163Y25815D01*
X-3972Y25557D01*
X-3742Y25453D01*
X-3358D01*
X-3013Y25298D01*
X-2783Y24988D01*
X-2707Y24627D01*
X-2783Y24265D01*
X-2975Y24007D01*
X-3282Y23852D01*
X-3550Y23800D01*
G01X2417Y55800D02*
Y58900D01*
X1458D01*
X1152Y58745D01*
X960Y58538D01*
X883Y58125D01*
X960Y57712D01*
X1190Y57453D01*
X1458Y57298D01*
X2417D01*
G01X1458D02*
X883Y55800D01*
G01X-1450D02*
Y58900D01*
X-990Y58280D01*
G01Y55800D02*
X-1910D01*
G01X-4550Y58900D02*
X-4243Y58797D01*
X-4013Y58538D01*
X-3860Y58228D01*
X-3745Y57815D01*
X-3707Y57350D01*
X-3745Y56885D01*
X-3860Y56472D01*
X-4013Y56162D01*
X-4243Y55903D01*
X-4550Y55800D01*
X-4857Y55903D01*
X-5087Y56162D01*
X-5240Y56472D01*
X-5355Y56885D01*
X-5393Y57350D01*
X-5355Y57815D01*
X-5240Y58228D01*
X-5087Y58538D01*
X-4857Y58797D01*
X-4550Y58900D01*
G01X8550Y62734D02*
Y59634D01*
X8090Y60254D01*
G01Y62734D02*
X9010D01*
G01X2417Y60800D02*
Y63900D01*
X1458D01*
X1152Y63745D01*
X960Y63538D01*
X883Y63125D01*
X960Y62712D01*
X1190Y62453D01*
X1458Y62298D01*
X2417D01*
G01X1458D02*
X883Y60800D01*
G01X-1450D02*
Y63900D01*
X-990Y63280D01*
G01Y60800D02*
X-1910D01*
G01X-4550D02*
Y63900D01*
X-4090Y63280D01*
G01Y60800D02*
X-5010D01*
G01X25350Y27800D02*
Y29195D01*
X26117Y30900D01*
G01X24583D02*
X25350Y29195D01*
G01X22250Y27800D02*
Y30900D01*
X22710Y30280D01*
G01Y27800D02*
X21790D01*
G01X37357Y34263D02*
X37587Y34625D01*
X37893Y34831D01*
X38238Y34883D01*
X38545Y34831D01*
X38852Y34573D01*
X39043Y34263D01*
X39082Y33953D01*
X39005Y33591D01*
X38737Y33333D01*
X38468Y33230D01*
X38123D01*
G01X38468D02*
X38698Y33075D01*
X38890Y32816D01*
X38967Y32506D01*
X38890Y32196D01*
X38698Y31938D01*
X38353Y31783D01*
X38008Y31835D01*
X37663Y32041D01*
G01X47417Y40800D02*
Y43900D01*
X46458D01*
X46152Y43745D01*
X45960Y43538D01*
X45883Y43125D01*
X45960Y42712D01*
X46190Y42453D01*
X46458Y42298D01*
X47417D01*
G01X46458D02*
X45883Y40800D01*
G01X44202Y41162D02*
X43933Y40903D01*
X43627Y40800D01*
X43320Y40903D01*
X43052Y41213D01*
X42860Y41678D01*
X42783Y42143D01*
Y42712D01*
X42860Y43177D01*
X43052Y43590D01*
X43282Y43797D01*
X43550Y43900D01*
X43857Y43797D01*
X44087Y43590D01*
X44240Y43280D01*
X44317Y42867D01*
X44240Y42505D01*
X44048Y42143D01*
X43818Y41937D01*
X43550Y41885D01*
X43243Y41988D01*
X43013Y42247D01*
X42783Y42712D01*
G01X45417Y56800D02*
Y59900D01*
X44458D01*
X44152Y59745D01*
X43960Y59538D01*
X43883Y59125D01*
X43960Y58712D01*
X44190Y58453D01*
X44458Y58298D01*
X45417D01*
G01X44458D02*
X43883Y56800D01*
G01X41550D02*
Y59900D01*
X42010Y59280D01*
G01Y56800D02*
X41090D01*
G01X49214Y63688D02*
X49137Y64360D01*
X49022Y64928D01*
X48869Y65445D01*
X48677Y66013D01*
X48370Y66788D01*
X49904D01*
G01X46880Y64308D02*
X46650Y63946D01*
X46344Y63740D01*
X45999Y63688D01*
X45692Y63740D01*
X45385Y63998D01*
X45194Y64308D01*
X45155Y64618D01*
X45232Y64980D01*
X45500Y65238D01*
X45769Y65341D01*
X46114D01*
G01X45769D02*
X45539Y65496D01*
X45347Y65755D01*
X45270Y66065D01*
X45347Y66375D01*
X45539Y66633D01*
X45884Y66788D01*
X46229Y66736D01*
X46574Y66530D01*
G01X37322Y60051D02*
X37552Y59741D01*
X37820Y59586D01*
X38127Y59534D01*
X38510Y59637D01*
X38778Y59896D01*
X38855Y60206D01*
X38817Y60516D01*
X38663Y60774D01*
X37897Y61291D01*
X37552Y61652D01*
X37322Y62169D01*
X37245Y62634D01*
X38855D01*
G01X44417Y73800D02*
Y76900D01*
X43458D01*
X43152Y76745D01*
X42960Y76538D01*
X42883Y76125D01*
X42960Y75712D01*
X43190Y75453D01*
X43458Y75298D01*
X44417D01*
G01X43458D02*
X42883Y73800D01*
G01X41393Y74420D02*
X41163Y74058D01*
X40857Y73852D01*
X40512Y73800D01*
X40205Y73852D01*
X39898Y74110D01*
X39707Y74420D01*
X39668Y74730D01*
X39745Y75092D01*
X40013Y75350D01*
X40282Y75453D01*
X40627D01*
G01X40282D02*
X40052Y75608D01*
X39860Y75867D01*
X39783Y76177D01*
X39860Y76487D01*
X40052Y76745D01*
X40397Y76900D01*
X40742Y76848D01*
X41087Y76642D01*
G01X38293Y74420D02*
X38063Y74058D01*
X37757Y73852D01*
X37412Y73800D01*
X37105Y73852D01*
X36798Y74110D01*
X36607Y74420D01*
X36568Y74730D01*
X36645Y75092D01*
X36913Y75350D01*
X37182Y75453D01*
X37527D01*
G01X37182D02*
X36952Y75608D01*
X36760Y75867D01*
X36683Y76177D01*
X36760Y76487D01*
X36952Y76745D01*
X37297Y76900D01*
X37642Y76848D01*
X37987Y76642D01*
G01X44417Y79800D02*
Y82900D01*
X43458D01*
X43152Y82745D01*
X42960Y82538D01*
X42883Y82125D01*
X42960Y81712D01*
X43190Y81453D01*
X43458Y81298D01*
X44417D01*
G01X43458D02*
X42883Y79800D01*
G01X41393Y80420D02*
X41163Y80058D01*
X40857Y79852D01*
X40512Y79800D01*
X40205Y79852D01*
X39898Y80110D01*
X39707Y80420D01*
X39668Y80730D01*
X39745Y81092D01*
X40013Y81350D01*
X40282Y81453D01*
X40627D01*
G01X40282D02*
X40052Y81608D01*
X39860Y81867D01*
X39783Y82177D01*
X39860Y82487D01*
X40052Y82745D01*
X40397Y82900D01*
X40742Y82848D01*
X41087Y82642D01*
G01X36990Y79800D02*
Y82900D01*
X38408Y80678D01*
X36492D01*
G01X44417Y85800D02*
Y88900D01*
X43458D01*
X43152Y88745D01*
X42960Y88538D01*
X42883Y88125D01*
X42960Y87712D01*
X43190Y87453D01*
X43458Y87298D01*
X44417D01*
G01X43458D02*
X42883Y85800D01*
G01X41393Y86420D02*
X41163Y86058D01*
X40857Y85852D01*
X40512Y85800D01*
X40205Y85852D01*
X39898Y86110D01*
X39707Y86420D01*
X39668Y86730D01*
X39745Y87092D01*
X40013Y87350D01*
X40282Y87453D01*
X40627D01*
G01X40282D02*
X40052Y87608D01*
X39860Y87867D01*
X39783Y88177D01*
X39860Y88487D01*
X40052Y88745D01*
X40397Y88900D01*
X40742Y88848D01*
X41087Y88642D01*
G01X38293Y86265D02*
X38063Y86007D01*
X37795Y85852D01*
X37450Y85800D01*
X37105Y85903D01*
X36837Y86110D01*
X36645Y86472D01*
X36607Y86885D01*
X36683Y87298D01*
X36875Y87557D01*
X37143Y87763D01*
X37412Y87815D01*
X37680Y87763D01*
X38025Y87557D01*
X37910Y88900D01*
X36875D01*
G01X44417Y91800D02*
Y94900D01*
X43458D01*
X43152Y94745D01*
X42960Y94538D01*
X42883Y94125D01*
X42960Y93712D01*
X43190Y93453D01*
X43458Y93298D01*
X44417D01*
G01X43458D02*
X42883Y91800D01*
G01X41393Y92420D02*
X41163Y92058D01*
X40857Y91852D01*
X40512Y91800D01*
X40205Y91852D01*
X39898Y92110D01*
X39707Y92420D01*
X39668Y92730D01*
X39745Y93092D01*
X40013Y93350D01*
X40282Y93453D01*
X40627D01*
G01X40282D02*
X40052Y93608D01*
X39860Y93867D01*
X39783Y94177D01*
X39860Y94487D01*
X40052Y94745D01*
X40397Y94900D01*
X40742Y94848D01*
X41087Y94642D01*
G01X38178Y93092D02*
X37910Y93453D01*
X37680Y93660D01*
X37373Y93763D01*
X37105Y93660D01*
X36913Y93453D01*
X36760Y93143D01*
X36722Y92782D01*
X36760Y92472D01*
X36913Y92162D01*
X37143Y91903D01*
X37412Y91800D01*
X37718Y91903D01*
X37987Y92213D01*
X38140Y92678D01*
X38178Y93195D01*
X38102Y93867D01*
X37987Y94228D01*
X37795Y94590D01*
X37527Y94848D01*
X37258Y94900D01*
X36990Y94797D01*
X36798Y94538D01*
G01X44417Y97800D02*
Y100900D01*
X43458D01*
X43152Y100745D01*
X42960Y100538D01*
X42883Y100125D01*
X42960Y99712D01*
X43190Y99453D01*
X43458Y99298D01*
X44417D01*
G01X43458D02*
X42883Y97800D01*
G01X41393Y98420D02*
X41163Y98058D01*
X40857Y97852D01*
X40512Y97800D01*
X40205Y97852D01*
X39898Y98110D01*
X39707Y98420D01*
X39668Y98730D01*
X39745Y99092D01*
X40013Y99350D01*
X40282Y99453D01*
X40627D01*
G01X40282D02*
X40052Y99608D01*
X39860Y99867D01*
X39783Y100177D01*
X39860Y100487D01*
X40052Y100745D01*
X40397Y100900D01*
X40742Y100848D01*
X41087Y100642D01*
G01X37527Y97800D02*
X37450Y98472D01*
X37335Y99040D01*
X37182Y99557D01*
X36990Y100125D01*
X36683Y100900D01*
X38217D01*
G01X44417Y103800D02*
Y106900D01*
X43458D01*
X43152Y106745D01*
X42960Y106538D01*
X42883Y106125D01*
X42960Y105712D01*
X43190Y105453D01*
X43458Y105298D01*
X44417D01*
G01X43458D02*
X42883Y103800D01*
G01X41393Y104420D02*
X41163Y104058D01*
X40857Y103852D01*
X40512Y103800D01*
X40205Y103852D01*
X39898Y104110D01*
X39707Y104420D01*
X39668Y104730D01*
X39745Y105092D01*
X40013Y105350D01*
X40282Y105453D01*
X40627D01*
G01X40282D02*
X40052Y105608D01*
X39860Y105867D01*
X39783Y106177D01*
X39860Y106487D01*
X40052Y106745D01*
X40397Y106900D01*
X40742Y106848D01*
X41087Y106642D01*
G01X37450Y103800D02*
X37182Y103852D01*
X36875Y104007D01*
X36683Y104265D01*
X36607Y104627D01*
X36683Y104988D01*
X36913Y105298D01*
X37258Y105453D01*
X37642D01*
X37872Y105557D01*
X38063Y105815D01*
X38140Y106177D01*
X38025Y106538D01*
X37757Y106797D01*
X37450Y106900D01*
X37143Y106797D01*
X36875Y106538D01*
X36760Y106177D01*
X36837Y105815D01*
X37028Y105557D01*
X37258Y105453D01*
X37642D01*
X37987Y105298D01*
X38217Y104988D01*
X38293Y104627D01*
X38217Y104265D01*
X38025Y104007D01*
X37718Y103852D01*
X37450Y103800D01*
G01X44417Y109800D02*
Y112900D01*
X43458D01*
X43152Y112745D01*
X42960Y112538D01*
X42883Y112125D01*
X42960Y111712D01*
X43190Y111453D01*
X43458Y111298D01*
X44417D01*
G01X43458D02*
X42883Y109800D01*
G01X41393Y110420D02*
X41163Y110058D01*
X40857Y109852D01*
X40512Y109800D01*
X40205Y109852D01*
X39898Y110110D01*
X39707Y110420D01*
X39668Y110730D01*
X39745Y111092D01*
X40013Y111350D01*
X40282Y111453D01*
X40627D01*
G01X40282D02*
X40052Y111608D01*
X39860Y111867D01*
X39783Y112177D01*
X39860Y112487D01*
X40052Y112745D01*
X40397Y112900D01*
X40742Y112848D01*
X41087Y112642D01*
G01X38102Y110162D02*
X37833Y109903D01*
X37527Y109800D01*
X37220Y109903D01*
X36952Y110213D01*
X36760Y110678D01*
X36683Y111143D01*
Y111712D01*
X36760Y112177D01*
X36952Y112590D01*
X37182Y112797D01*
X37450Y112900D01*
X37757Y112797D01*
X37987Y112590D01*
X38140Y112280D01*
X38217Y111867D01*
X38140Y111505D01*
X37948Y111143D01*
X37718Y110937D01*
X37450Y110885D01*
X37143Y110988D01*
X36913Y111247D01*
X36683Y111712D01*
G01X44417Y115800D02*
Y118900D01*
X43458D01*
X43152Y118745D01*
X42960Y118538D01*
X42883Y118125D01*
X42960Y117712D01*
X43190Y117453D01*
X43458Y117298D01*
X44417D01*
G01X43458D02*
X42883Y115800D01*
G01X40090D02*
Y118900D01*
X41508Y116678D01*
X39592D01*
G01X37450Y118900D02*
X37757Y118797D01*
X37987Y118538D01*
X38140Y118228D01*
X38255Y117815D01*
X38293Y117350D01*
X38255Y116885D01*
X38140Y116472D01*
X37987Y116162D01*
X37757Y115903D01*
X37450Y115800D01*
X37143Y115903D01*
X36913Y116162D01*
X36760Y116472D01*
X36645Y116885D01*
X36607Y117350D01*
X36645Y117815D01*
X36760Y118228D01*
X36913Y118538D01*
X37143Y118797D01*
X37450Y118900D01*
G01X49581Y132716D02*
Y135816D01*
X50041Y135196D01*
G01Y132716D02*
X49121D01*
G01X46481Y135816D02*
X46788Y135713D01*
X47018Y135454D01*
X47171Y135144D01*
X47286Y134731D01*
X47324Y134266D01*
X47286Y133801D01*
X47171Y133388D01*
X47018Y133078D01*
X46788Y132819D01*
X46481Y132716D01*
X46174Y132819D01*
X45944Y133078D01*
X45791Y133388D01*
X45676Y133801D01*
X45638Y134266D01*
X45676Y134731D01*
X45791Y135144D01*
X45944Y135454D01*
X46174Y135713D01*
X46481Y135816D01*
G01X43381Y132716D02*
X43113Y132768D01*
X42806Y132923D01*
X42614Y133181D01*
X42538Y133543D01*
X42614Y133904D01*
X42844Y134214D01*
X43189Y134369D01*
X43573D01*
X43803Y134473D01*
X43994Y134731D01*
X44071Y135093D01*
X43956Y135454D01*
X43688Y135713D01*
X43381Y135816D01*
X43074Y135713D01*
X42806Y135454D01*
X42691Y135093D01*
X42768Y134731D01*
X42959Y134473D01*
X43189Y134369D01*
X43573D01*
X43918Y134214D01*
X44148Y133904D01*
X44224Y133543D01*
X44148Y133181D01*
X43956Y132923D01*
X43649Y132768D01*
X43381Y132716D01*
G01X56958Y36807D02*
X56803Y37037D01*
X56700Y37305D01*
Y37612D01*
X56855Y37957D01*
X57113Y38225D01*
X57423Y38417D01*
X57940Y38570D01*
X58405Y38608D01*
X58870Y38532D01*
X59180Y38417D01*
X59490Y38187D01*
X59697Y37918D01*
X59800Y37650D01*
Y37382D01*
X59697Y37113D01*
X59542Y36883D01*
X59335Y36692D01*
G01X59180Y35393D02*
X59542Y35163D01*
X59748Y34857D01*
X59800Y34512D01*
X59748Y34205D01*
X59490Y33898D01*
X59180Y33707D01*
X58870Y33668D01*
X58508Y33745D01*
X58250Y34013D01*
X58147Y34282D01*
Y34627D01*
G01Y34282D02*
X57992Y34052D01*
X57733Y33860D01*
X57423Y33783D01*
X57113Y33860D01*
X56855Y34052D01*
X56700Y34397D01*
X56752Y34742D01*
X56958Y35087D01*
G01X59800Y31450D02*
X59748Y31182D01*
X59593Y30875D01*
X59335Y30683D01*
X58973Y30607D01*
X58612Y30683D01*
X58302Y30913D01*
X58147Y31258D01*
Y31642D01*
X58043Y31872D01*
X57785Y32063D01*
X57423Y32140D01*
X57062Y32025D01*
X56803Y31757D01*
X56700Y31450D01*
X56803Y31143D01*
X57062Y30875D01*
X57423Y30760D01*
X57785Y30837D01*
X58043Y31028D01*
X58147Y31258D01*
Y31642D01*
X58302Y31987D01*
X58612Y32217D01*
X58973Y32293D01*
X59335Y32217D01*
X59593Y32025D01*
X59748Y31718D01*
X59800Y31450D01*
G01X61958Y36807D02*
X61803Y37037D01*
X61700Y37305D01*
Y37612D01*
X61855Y37957D01*
X62113Y38225D01*
X62423Y38417D01*
X62940Y38570D01*
X63405Y38608D01*
X63870Y38532D01*
X64180Y38417D01*
X64490Y38187D01*
X64697Y37918D01*
X64800Y37650D01*
Y37382D01*
X64697Y37113D01*
X64542Y36883D01*
X64335Y36692D01*
G01X64180Y35393D02*
X64542Y35163D01*
X64748Y34857D01*
X64800Y34512D01*
X64748Y34205D01*
X64490Y33898D01*
X64180Y33707D01*
X63870Y33668D01*
X63508Y33745D01*
X63250Y34013D01*
X63147Y34282D01*
Y34627D01*
G01Y34282D02*
X62992Y34052D01*
X62733Y33860D01*
X62423Y33783D01*
X62113Y33860D01*
X61855Y34052D01*
X61700Y34397D01*
X61752Y34742D01*
X61958Y35087D01*
G01X64438Y32102D02*
X64697Y31833D01*
X64800Y31527D01*
X64697Y31220D01*
X64387Y30952D01*
X63922Y30760D01*
X63457Y30683D01*
X62888D01*
X62423Y30760D01*
X62010Y30952D01*
X61803Y31182D01*
X61700Y31450D01*
X61803Y31757D01*
X62010Y31987D01*
X62320Y32140D01*
X62733Y32217D01*
X63095Y32140D01*
X63457Y31948D01*
X63663Y31718D01*
X63715Y31450D01*
X63612Y31143D01*
X63353Y30913D01*
X62888Y30683D01*
G01X71958Y36807D02*
X71803Y37037D01*
X71700Y37305D01*
Y37612D01*
X71855Y37957D01*
X72113Y38225D01*
X72423Y38417D01*
X72940Y38570D01*
X73405Y38608D01*
X73870Y38532D01*
X74180Y38417D01*
X74490Y38187D01*
X74697Y37918D01*
X74800Y37650D01*
Y37382D01*
X74697Y37113D01*
X74542Y36883D01*
X74335Y36692D01*
G01X74800Y34090D02*
X71700D01*
X73922Y35508D01*
Y33592D01*
G01X71700Y31450D02*
X71803Y31757D01*
X72062Y31987D01*
X72372Y32140D01*
X72785Y32255D01*
X73250Y32293D01*
X73715Y32255D01*
X74128Y32140D01*
X74438Y31987D01*
X74697Y31757D01*
X74800Y31450D01*
X74697Y31143D01*
X74438Y30913D01*
X74128Y30760D01*
X73715Y30645D01*
X73250Y30607D01*
X72785Y30645D01*
X72372Y30760D01*
X72062Y30913D01*
X71803Y31143D01*
X71700Y31450D01*
G01X66958Y36807D02*
X66803Y37037D01*
X66700Y37305D01*
Y37612D01*
X66855Y37957D01*
X67113Y38225D01*
X67423Y38417D01*
X67940Y38570D01*
X68405Y38608D01*
X68870Y38532D01*
X69180Y38417D01*
X69490Y38187D01*
X69697Y37918D01*
X69800Y37650D01*
Y37382D01*
X69697Y37113D01*
X69542Y36883D01*
X69335Y36692D01*
G01X69800Y34090D02*
X66700D01*
X68922Y35508D01*
Y33592D01*
G01X69800Y31450D02*
X66700D01*
X67320Y31910D01*
G01X69800D02*
Y30990D01*
G01X64757Y47566D02*
X64680Y48238D01*
X64565Y48806D01*
X64412Y49323D01*
X64220Y49891D01*
X63913Y50666D01*
X65447D01*
G01X62308Y50149D02*
X62078Y50459D01*
X61810Y50614D01*
X61503Y50666D01*
X61120Y50563D01*
X60852Y50304D01*
X60775Y49994D01*
X60813Y49684D01*
X60967Y49426D01*
X61733Y48909D01*
X62078Y48548D01*
X62308Y48031D01*
X62385Y47566D01*
X60775D01*
G01X65200Y149231D02*
Y152331D01*
X65660Y151711D01*
G01Y149231D02*
X64740D01*
G01X62100Y152331D02*
X62407Y152228D01*
X62637Y151969D01*
X62790Y151659D01*
X62905Y151246D01*
X62943Y150781D01*
X62905Y150316D01*
X62790Y149903D01*
X62637Y149593D01*
X62407Y149334D01*
X62100Y149231D01*
X61793Y149334D01*
X61563Y149593D01*
X61410Y149903D01*
X61295Y150316D01*
X61257Y150781D01*
X61295Y151246D01*
X61410Y151659D01*
X61563Y151969D01*
X61793Y152228D01*
X62100Y152331D01*
G01X59652Y149593D02*
X59383Y149334D01*
X59077Y149231D01*
X58770Y149334D01*
X58502Y149644D01*
X58310Y150109D01*
X58233Y150574D01*
Y151143D01*
X58310Y151608D01*
X58502Y152021D01*
X58732Y152228D01*
X59000Y152331D01*
X59307Y152228D01*
X59537Y152021D01*
X59690Y151711D01*
X59767Y151298D01*
X59690Y150936D01*
X59498Y150574D01*
X59268Y150368D01*
X59000Y150316D01*
X58693Y150419D01*
X58463Y150678D01*
X58233Y151143D01*
G01X100958Y45807D02*
X100803Y46037D01*
X100700Y46305D01*
Y46612D01*
X100855Y46957D01*
X101113Y47225D01*
X101423Y47417D01*
X101940Y47570D01*
X102405Y47608D01*
X102870Y47532D01*
X103180Y47417D01*
X103490Y47187D01*
X103697Y46918D01*
X103800Y46650D01*
Y46382D01*
X103697Y46113D01*
X103542Y45883D01*
X103335Y45692D01*
G01X101217Y44278D02*
X100907Y44048D01*
X100752Y43780D01*
X100700Y43473D01*
X100803Y43090D01*
X101062Y42822D01*
X101372Y42745D01*
X101682Y42783D01*
X101940Y42937D01*
X102457Y43703D01*
X102818Y44048D01*
X103335Y44278D01*
X103800Y44355D01*
Y42745D01*
G01Y40450D02*
X103748Y40182D01*
X103593Y39875D01*
X103335Y39683D01*
X102973Y39607D01*
X102612Y39683D01*
X102302Y39913D01*
X102147Y40258D01*
Y40642D01*
X102043Y40872D01*
X101785Y41063D01*
X101423Y41140D01*
X101062Y41025D01*
X100803Y40757D01*
X100700Y40450D01*
X100803Y40143D01*
X101062Y39875D01*
X101423Y39760D01*
X101785Y39837D01*
X102043Y40028D01*
X102147Y40258D01*
Y40642D01*
X102302Y40987D01*
X102612Y41217D01*
X102973Y41293D01*
X103335Y41217D01*
X103593Y41025D01*
X103748Y40718D01*
X103800Y40450D01*
G01X104958Y45807D02*
X104803Y46037D01*
X104700Y46305D01*
Y46612D01*
X104855Y46957D01*
X105113Y47225D01*
X105423Y47417D01*
X105940Y47570D01*
X106405Y47608D01*
X106870Y47532D01*
X107180Y47417D01*
X107490Y47187D01*
X107697Y46918D01*
X107800Y46650D01*
Y46382D01*
X107697Y46113D01*
X107542Y45883D01*
X107335Y45692D01*
G01X105217Y44278D02*
X104907Y44048D01*
X104752Y43780D01*
X104700Y43473D01*
X104803Y43090D01*
X105062Y42822D01*
X105372Y42745D01*
X105682Y42783D01*
X105940Y42937D01*
X106457Y43703D01*
X106818Y44048D01*
X107335Y44278D01*
X107800Y44355D01*
Y42745D01*
G01X107438Y41102D02*
X107697Y40833D01*
X107800Y40527D01*
X107697Y40220D01*
X107387Y39952D01*
X106922Y39760D01*
X106457Y39683D01*
X105888D01*
X105423Y39760D01*
X105010Y39952D01*
X104803Y40182D01*
X104700Y40450D01*
X104803Y40757D01*
X105010Y40987D01*
X105320Y41140D01*
X105733Y41217D01*
X106095Y41140D01*
X106457Y40948D01*
X106663Y40718D01*
X106715Y40450D01*
X106612Y40143D01*
X106353Y39913D01*
X105888Y39683D01*
G01X121958Y36807D02*
X121803Y37037D01*
X121700Y37305D01*
Y37612D01*
X121855Y37957D01*
X122113Y38225D01*
X122423Y38417D01*
X122940Y38570D01*
X123405Y38608D01*
X123870Y38532D01*
X124180Y38417D01*
X124490Y38187D01*
X124697Y37918D01*
X124800Y37650D01*
Y37382D01*
X124697Y37113D01*
X124542Y36883D01*
X124335Y36692D01*
G01X124180Y35393D02*
X124542Y35163D01*
X124748Y34857D01*
X124800Y34512D01*
X124748Y34205D01*
X124490Y33898D01*
X124180Y33707D01*
X123870Y33668D01*
X123508Y33745D01*
X123250Y34013D01*
X123147Y34282D01*
Y34627D01*
G01Y34282D02*
X122992Y34052D01*
X122733Y33860D01*
X122423Y33783D01*
X122113Y33860D01*
X121855Y34052D01*
X121700Y34397D01*
X121752Y34742D01*
X121958Y35087D01*
G01X121700Y31450D02*
X121803Y31757D01*
X122062Y31987D01*
X122372Y32140D01*
X122785Y32255D01*
X123250Y32293D01*
X123715Y32255D01*
X124128Y32140D01*
X124438Y31987D01*
X124697Y31757D01*
X124800Y31450D01*
X124697Y31143D01*
X124438Y30913D01*
X124128Y30760D01*
X123715Y30645D01*
X123250Y30607D01*
X122785Y30645D01*
X122372Y30760D01*
X122062Y30913D01*
X121803Y31143D01*
X121700Y31450D01*
G01X125958Y36807D02*
X125803Y37037D01*
X125700Y37305D01*
Y37612D01*
X125855Y37957D01*
X126113Y38225D01*
X126423Y38417D01*
X126940Y38570D01*
X127405Y38608D01*
X127870Y38532D01*
X128180Y38417D01*
X128490Y38187D01*
X128697Y37918D01*
X128800Y37650D01*
Y37382D01*
X128697Y37113D01*
X128542Y36883D01*
X128335Y36692D01*
G01X128180Y35393D02*
X128542Y35163D01*
X128748Y34857D01*
X128800Y34512D01*
X128748Y34205D01*
X128490Y33898D01*
X128180Y33707D01*
X127870Y33668D01*
X127508Y33745D01*
X127250Y34013D01*
X127147Y34282D01*
Y34627D01*
G01Y34282D02*
X126992Y34052D01*
X126733Y33860D01*
X126423Y33783D01*
X126113Y33860D01*
X125855Y34052D01*
X125700Y34397D01*
X125752Y34742D01*
X125958Y35087D01*
G01X128800Y31450D02*
X125700D01*
X126320Y31910D01*
G01X128800D02*
Y30990D01*
G01X136495Y48017D02*
X136265Y47655D01*
X135959Y47449D01*
X135614Y47397D01*
X135307Y47449D01*
X135000Y47707D01*
X134809Y48017D01*
X134770Y48327D01*
X134847Y48689D01*
X135115Y48947D01*
X135384Y49050D01*
X135729D01*
G01X135384D02*
X135154Y49205D01*
X134962Y49464D01*
X134885Y49774D01*
X134962Y50084D01*
X135154Y50342D01*
X135499Y50497D01*
X135844Y50445D01*
X136189Y50239D01*
G01X132629Y47397D02*
X132552Y48069D01*
X132437Y48637D01*
X132284Y49154D01*
X132092Y49722D01*
X131785Y50497D01*
X133319D01*
G01X136991Y148857D02*
Y151957D01*
X137451Y151337D01*
G01Y148857D02*
X136531D01*
G01X133431D02*
Y151957D01*
X134849Y149735D01*
X132933D01*
G01X130331Y148857D02*
Y151957D01*
X131749Y149735D01*
X129833D01*
G01X152562Y64131D02*
X152332Y63769D01*
X152026Y63563D01*
X151681Y63511D01*
X151374Y63563D01*
X151067Y63821D01*
X150876Y64131D01*
X150837Y64441D01*
X150914Y64803D01*
X151182Y65061D01*
X151451Y65164D01*
X151796D01*
G01X151451D02*
X151221Y65319D01*
X151029Y65578D01*
X150952Y65888D01*
X151029Y66198D01*
X151221Y66456D01*
X151566Y66611D01*
X151911Y66559D01*
X152256Y66353D01*
G01X149347Y64803D02*
X149079Y65164D01*
X148849Y65371D01*
X148542Y65474D01*
X148274Y65371D01*
X148082Y65164D01*
X147929Y64854D01*
X147891Y64493D01*
X147929Y64183D01*
X148082Y63873D01*
X148312Y63614D01*
X148581Y63511D01*
X148887Y63614D01*
X149156Y63924D01*
X149309Y64389D01*
X149347Y64906D01*
X149271Y65578D01*
X149156Y65939D01*
X148964Y66301D01*
X148696Y66559D01*
X148427Y66611D01*
X148159Y66508D01*
X147967Y66249D01*
G01X160117Y69900D02*
Y66800D01*
X158583D01*
G01X156978Y69383D02*
X156748Y69693D01*
X156480Y69848D01*
X156173Y69900D01*
X155790Y69797D01*
X155522Y69538D01*
X155445Y69228D01*
X155483Y68918D01*
X155637Y68660D01*
X156403Y68143D01*
X156748Y67782D01*
X156978Y67265D01*
X157055Y66800D01*
X155445D01*
G01X165807Y63642D02*
X166037Y63797D01*
X166305Y63900D01*
X166612D01*
X166957Y63745D01*
X167225Y63487D01*
X167417Y63177D01*
X167570Y62660D01*
X167608Y62195D01*
X167532Y61730D01*
X167417Y61420D01*
X167187Y61110D01*
X166918Y60903D01*
X166650Y60800D01*
X166382D01*
X166113Y60903D01*
X165883Y61058D01*
X165692Y61265D01*
G01X164393Y61420D02*
X164163Y61058D01*
X163857Y60852D01*
X163512Y60800D01*
X163205Y60852D01*
X162898Y61110D01*
X162707Y61420D01*
X162668Y61730D01*
X162745Y62092D01*
X163013Y62350D01*
X163282Y62453D01*
X163627D01*
G01X163282D02*
X163052Y62608D01*
X162860Y62867D01*
X162783Y63177D01*
X162860Y63487D01*
X163052Y63745D01*
X163397Y63900D01*
X163742Y63848D01*
X164087Y63642D01*
G01X161178Y62092D02*
X160910Y62453D01*
X160680Y62660D01*
X160373Y62763D01*
X160105Y62660D01*
X159913Y62453D01*
X159760Y62143D01*
X159722Y61782D01*
X159760Y61472D01*
X159913Y61162D01*
X160143Y60903D01*
X160412Y60800D01*
X160718Y60903D01*
X160987Y61213D01*
X161140Y61678D01*
X161178Y62195D01*
X161102Y62867D01*
X160987Y63228D01*
X160795Y63590D01*
X160527Y63848D01*
X160258Y63900D01*
X159990Y63797D01*
X159798Y63538D01*
G01X153117Y84900D02*
Y81800D01*
X151583D01*
G01X149250D02*
Y84900D01*
X149710Y84280D01*
G01Y81800D02*
X148790D01*
G01X160417Y111800D02*
Y114900D01*
X159458D01*
X159152Y114745D01*
X158960Y114538D01*
X158883Y114125D01*
X158960Y113712D01*
X159190Y113453D01*
X159458Y113298D01*
X160417D01*
G01X159458D02*
X158883Y111800D01*
G01X157278Y114383D02*
X157048Y114693D01*
X156780Y114848D01*
X156473Y114900D01*
X156090Y114797D01*
X155822Y114538D01*
X155745Y114228D01*
X155783Y113918D01*
X155937Y113660D01*
X156703Y113143D01*
X157048Y112782D01*
X157278Y112265D01*
X157355Y111800D01*
X155745D01*
G01X148550Y132700D02*
Y135800D01*
X149010Y135180D01*
G01Y132700D02*
X148090D01*
G01X150493Y146900D02*
Y144678D01*
X150340Y144213D01*
X150033Y143903D01*
X149650Y143800D01*
X149267Y143903D01*
X148960Y144213D01*
X148807Y144678D01*
Y146900D01*
G01X146550Y143800D02*
Y146900D01*
X147010Y146280D01*
G01Y143800D02*
X146090D01*
G01X145800Y158183D02*
X148900D01*
Y159142D01*
X148745Y159448D01*
X148538Y159640D01*
X148125Y159717D01*
X147712Y159640D01*
X147453Y159410D01*
X147298Y159142D01*
Y158183D01*
G01Y159142D02*
X145800Y159717D01*
G01X148383Y161322D02*
X148693Y161552D01*
X148848Y161820D01*
X148900Y162127D01*
X148797Y162510D01*
X148538Y162778D01*
X148228Y162855D01*
X147918Y162817D01*
X147660Y162663D01*
X147143Y161897D01*
X146782Y161552D01*
X146265Y161322D01*
X145800Y161245D01*
Y162855D01*
G01X148383Y164422D02*
X148693Y164652D01*
X148848Y164920D01*
X148900Y165227D01*
X148797Y165610D01*
X148538Y165878D01*
X148228Y165955D01*
X147918Y165917D01*
X147660Y165763D01*
X147143Y164997D01*
X146782Y164652D01*
X146265Y164422D01*
X145800Y164345D01*
Y165955D01*
G01X150800Y158183D02*
X153900D01*
Y159142D01*
X153745Y159448D01*
X153538Y159640D01*
X153125Y159717D01*
X152712Y159640D01*
X152453Y159410D01*
X152298Y159142D01*
Y158183D01*
G01Y159142D02*
X150800Y159717D01*
G01X153383Y161322D02*
X153693Y161552D01*
X153848Y161820D01*
X153900Y162127D01*
X153797Y162510D01*
X153538Y162778D01*
X153228Y162855D01*
X152918Y162817D01*
X152660Y162663D01*
X152143Y161897D01*
X151782Y161552D01*
X151265Y161322D01*
X150800Y161245D01*
Y162855D01*
G01X151420Y164307D02*
X151058Y164537D01*
X150852Y164843D01*
X150800Y165188D01*
X150852Y165495D01*
X151110Y165802D01*
X151420Y165993D01*
X151730Y166032D01*
X152092Y165955D01*
X152350Y165687D01*
X152453Y165418D01*
Y165073D01*
G01Y165418D02*
X152608Y165648D01*
X152867Y165840D01*
X153177Y165917D01*
X153487Y165840D01*
X153745Y165648D01*
X153900Y165303D01*
X153848Y164958D01*
X153642Y164613D01*
G01X155800Y158183D02*
X158900D01*
Y159142D01*
X158745Y159448D01*
X158538Y159640D01*
X158125Y159717D01*
X157712Y159640D01*
X157453Y159410D01*
X157298Y159142D01*
Y158183D01*
G01Y159142D02*
X155800Y159717D01*
G01X158383Y161322D02*
X158693Y161552D01*
X158848Y161820D01*
X158900Y162127D01*
X158797Y162510D01*
X158538Y162778D01*
X158228Y162855D01*
X157918Y162817D01*
X157660Y162663D01*
X157143Y161897D01*
X156782Y161552D01*
X156265Y161322D01*
X155800Y161245D01*
Y162855D01*
G01Y165610D02*
X158900D01*
X156678Y164192D01*
Y166108D01*
G01X160800Y158183D02*
X163900D01*
Y159142D01*
X163745Y159448D01*
X163538Y159640D01*
X163125Y159717D01*
X162712Y159640D01*
X162453Y159410D01*
X162298Y159142D01*
Y158183D01*
G01Y159142D02*
X160800Y159717D01*
G01X163383Y161322D02*
X163693Y161552D01*
X163848Y161820D01*
X163900Y162127D01*
X163797Y162510D01*
X163538Y162778D01*
X163228Y162855D01*
X162918Y162817D01*
X162660Y162663D01*
X162143Y161897D01*
X161782Y161552D01*
X161265Y161322D01*
X160800Y161245D01*
Y162855D01*
G01X161265Y164307D02*
X161007Y164537D01*
X160852Y164805D01*
X160800Y165150D01*
X160903Y165495D01*
X161110Y165763D01*
X161472Y165955D01*
X161885Y165993D01*
X162298Y165917D01*
X162557Y165725D01*
X162763Y165457D01*
X162815Y165188D01*
X162763Y164920D01*
X162557Y164575D01*
X163900Y164690D01*
Y165725D01*
G01X178807Y43642D02*
X179037Y43797D01*
X179305Y43900D01*
X179612D01*
X179957Y43745D01*
X180225Y43487D01*
X180417Y43177D01*
X180570Y42660D01*
X180608Y42195D01*
X180532Y41730D01*
X180417Y41420D01*
X180187Y41110D01*
X179918Y40903D01*
X179650Y40800D01*
X179382D01*
X179113Y40903D01*
X178883Y41058D01*
X178692Y41265D01*
G01X177393Y41420D02*
X177163Y41058D01*
X176857Y40852D01*
X176512Y40800D01*
X176205Y40852D01*
X175898Y41110D01*
X175707Y41420D01*
X175668Y41730D01*
X175745Y42092D01*
X176013Y42350D01*
X176282Y42453D01*
X176627D01*
G01X176282D02*
X176052Y42608D01*
X175860Y42867D01*
X175783Y43177D01*
X175860Y43487D01*
X176052Y43745D01*
X176397Y43900D01*
X176742Y43848D01*
X177087Y43642D01*
G01X173527Y40800D02*
X173450Y41472D01*
X173335Y42040D01*
X173182Y42557D01*
X172990Y43125D01*
X172683Y43900D01*
X174217D01*
G01X176807Y63642D02*
X177037Y63797D01*
X177305Y63900D01*
X177612D01*
X177957Y63745D01*
X178225Y63487D01*
X178417Y63177D01*
X178570Y62660D01*
X178608Y62195D01*
X178532Y61730D01*
X178417Y61420D01*
X178187Y61110D01*
X177918Y60903D01*
X177650Y60800D01*
X177382D01*
X177113Y60903D01*
X176883Y61058D01*
X176692Y61265D01*
G01X175393Y61420D02*
X175163Y61058D01*
X174857Y60852D01*
X174512Y60800D01*
X174205Y60852D01*
X173898Y61110D01*
X173707Y61420D01*
X173668Y61730D01*
X173745Y62092D01*
X174013Y62350D01*
X174282Y62453D01*
X174627D01*
G01X174282D02*
X174052Y62608D01*
X173860Y62867D01*
X173783Y63177D01*
X173860Y63487D01*
X174052Y63745D01*
X174397Y63900D01*
X174742Y63848D01*
X175087Y63642D01*
G01X172293Y61265D02*
X172063Y61007D01*
X171795Y60852D01*
X171450Y60800D01*
X171105Y60903D01*
X170837Y61110D01*
X170645Y61472D01*
X170607Y61885D01*
X170683Y62298D01*
X170875Y62557D01*
X171143Y62763D01*
X171412Y62815D01*
X171680Y62763D01*
X172025Y62557D01*
X171910Y63900D01*
X170875D01*
G01X170417Y95800D02*
Y98900D01*
X169458D01*
X169152Y98745D01*
X168960Y98538D01*
X168883Y98125D01*
X168960Y97712D01*
X169190Y97453D01*
X169458Y97298D01*
X170417D01*
G01X169458D02*
X168883Y95800D01*
G01X166090D02*
Y98900D01*
X167508Y96678D01*
X165592D01*
G01X163450Y95800D02*
Y98900D01*
X163910Y98280D01*
G01Y95800D02*
X162990D01*
G01X170417Y90800D02*
Y93900D01*
X169458D01*
X169152Y93745D01*
X168960Y93538D01*
X168883Y93125D01*
X168960Y92712D01*
X169190Y92453D01*
X169458Y92298D01*
X170417D01*
G01X169458D02*
X168883Y90800D01*
G01X166090D02*
Y93900D01*
X167508Y91678D01*
X165592D01*
G01X164178Y93383D02*
X163948Y93693D01*
X163680Y93848D01*
X163373Y93900D01*
X162990Y93797D01*
X162722Y93538D01*
X162645Y93228D01*
X162683Y92918D01*
X162837Y92660D01*
X163603Y92143D01*
X163948Y91782D01*
X164178Y91265D01*
X164255Y90800D01*
X162645D01*
G01X167417Y111800D02*
Y114900D01*
X166458D01*
X166152Y114745D01*
X165960Y114538D01*
X165883Y114125D01*
X165960Y113712D01*
X166190Y113453D01*
X166458Y113298D01*
X167417D01*
G01X166458D02*
X165883Y111800D01*
G01X164393Y112420D02*
X164163Y112058D01*
X163857Y111852D01*
X163512Y111800D01*
X163205Y111852D01*
X162898Y112110D01*
X162707Y112420D01*
X162668Y112730D01*
X162745Y113092D01*
X163013Y113350D01*
X163282Y113453D01*
X163627D01*
G01X163282D02*
X163052Y113608D01*
X162860Y113867D01*
X162783Y114177D01*
X162860Y114487D01*
X163052Y114745D01*
X163397Y114900D01*
X163742Y114848D01*
X164087Y114642D01*
G54D11*
G01X-300Y38700D02*
Y33700D01*
X-1300D01*
Y38700D01*
X-300D01*
G01X7350Y49800D02*
Y58150D01*
X8750D01*
G01X7350Y44600D02*
Y36250D01*
X9450D01*
G01X7350Y49800D02*
G02Y44600I-436J-2600D01*
G01X-300Y47200D02*
G03I-500J0D01*
G01Y53200D02*
G03I-500J0D01*
G01Y43700D02*
Y38700D01*
X-1300D01*
Y43700D01*
X-300D01*
G01X6200Y57100D02*
G03I-1000J0D01*
G01X16950Y36250D02*
X29450D01*
G01X16950Y58150D02*
X29450D01*
G01X29700Y75200D02*
G03I-500J0D01*
G01Y81200D02*
G03I-500J0D01*
G01Y87200D02*
G03I-500J0D01*
G01Y93200D02*
G03I-500J0D01*
G01Y99200D02*
G03I-500J0D01*
G01Y105200D02*
G03I-500J0D01*
G01Y111200D02*
G03I-500J0D01*
G01Y117200D02*
G03I-500J0D01*
G01X36950Y36250D02*
X39050D01*
Y58150D01*
X36950D01*
G01X45700Y47200D02*
G03I-500J0D01*
G01Y53200D02*
G03I-500J0D01*
G01X55700Y44700D02*
X60700D01*
Y43700D01*
X55700D01*
Y44700D01*
G01X52050Y78621D02*
X50550D01*
G01X52113Y118019D02*
X50613D01*
G01X52082Y98279D02*
X50582D01*
G01X68613Y50948D02*
Y52448D01*
G01X60700Y44700D02*
X65700D01*
Y43700D01*
X60700D01*
Y44700D01*
G01X70700D02*
X75700D01*
Y43700D01*
X70700D01*
Y44700D01*
G01X65700D02*
X70700D01*
Y43700D01*
X65700D01*
Y44700D01*
G01X63200Y59130D02*
X59130D01*
Y63200D01*
G01Y135200D02*
Y139270D01*
X63200D01*
G01X66653Y146066D02*
Y147566D01*
G01X88231Y50972D02*
Y52472D01*
G01X86342Y146239D02*
Y147739D01*
G01X107920Y51109D02*
Y52609D01*
G01X109700Y44700D02*
X114700D01*
Y43700D01*
X109700D01*
Y44700D01*
G01X114700D02*
X119700D01*
Y43700D01*
X114700D01*
Y44700D01*
G01X106058Y146314D02*
Y147814D01*
G01X127751Y50972D02*
Y52472D01*
G01X119900Y44700D02*
X124900D01*
Y43700D01*
X119900D01*
Y44700D01*
G01X125300Y44800D02*
X130300D01*
Y43800D01*
X125300D01*
Y44800D01*
G01X139270Y59130D02*
X135200D01*
G01X139270Y63200D02*
Y59130D01*
G01X135200Y139270D02*
X139270D01*
Y135200D01*
G01X125775Y146586D02*
Y148086D01*
G01X123700Y161200D02*
G03I-500J0D01*
G01X129700D02*
G03I-500J0D01*
G01X135700D02*
G03I-500J0D01*
G01X147487Y76672D02*
X145987D01*
G01X159500Y78200D02*
Y72200D01*
G01X154900D02*
Y78200D01*
G01X156800Y96800D02*
G03I-500J0D01*
G01Y91800D02*
G03I-500J0D01*
G01X162200Y80900D02*
X156200D01*
G01Y85500D02*
X162200D01*
G01X147452Y115932D02*
X145952D01*
G01X159700Y105200D02*
G03I-500J0D01*
G01X141700Y161200D02*
G03I-500J0D01*
G01X173700Y54700D02*
X168700D01*
Y55700D01*
X173700D01*
Y54700D01*
G01X168700D02*
X163700D01*
Y55700D01*
X168700D01*
Y54700D01*
G01X166400Y44500D02*
Y39500D01*
X165400D01*
Y44500D01*
X166400D01*
G01X174483Y76700D02*
X174650Y77000D01*
X174850Y77200D01*
X175083Y77300D01*
X175350Y77200D01*
X175550Y77000D01*
X175750Y76700D01*
X175817Y76300D01*
Y74300D01*
G01X177650Y77300D02*
Y74300D01*
X177250Y74900D01*
G01Y77300D02*
X178050D01*
G01X166567Y82133D02*
X166767Y81833D01*
X167000Y81683D01*
X167267Y81633D01*
X167600Y81733D01*
X167833Y81983D01*
X167900Y82283D01*
X167867Y82583D01*
X167733Y82833D01*
X167067Y83333D01*
X166767Y83683D01*
X166567Y84183D01*
X166500Y84633D01*
X167900D01*
G01X165700Y105200D02*
G03I-500J0D01*
G01X164100Y104983D02*
Y101983D01*
X163700Y102583D01*
G01Y104983D02*
X164500D01*
G01X166600Y101983D02*
X166333Y102083D01*
X166133Y102333D01*
X166000Y102633D01*
X165900Y103033D01*
X165867Y103483D01*
X165900Y103933D01*
X166000Y104333D01*
X166133Y104633D01*
X166333Y104883D01*
X166600Y104983D01*
X166867Y104883D01*
X167067Y104633D01*
X167200Y104333D01*
X167300Y103933D01*
X167333Y103483D01*
X167300Y103033D01*
X167200Y102633D01*
X167067Y102333D01*
X166867Y102083D01*
X166600Y101983D01*
G01X186150Y83733D02*
Y80733D01*
X185750Y81333D01*
G01Y83733D02*
X186550D01*
G01X185983Y104683D02*
X186217Y104933D01*
X186483Y105033D01*
X186750Y104933D01*
X186983Y104633D01*
X187150Y104183D01*
X187217Y103733D01*
Y103183D01*
X187150Y102733D01*
X186983Y102333D01*
X186783Y102133D01*
X186550Y102033D01*
X186283Y102133D01*
X186083Y102333D01*
X185950Y102633D01*
X185883Y103033D01*
X185950Y103383D01*
X186117Y103733D01*
X186317Y103933D01*
X186550Y103983D01*
X186817Y103883D01*
X187017Y103633D01*
X187217Y103183D01*
G01X200Y-9800D02*
X177000D01*
G03X187000Y200I0J10000D01*
G01Y177000D01*
G03X177000Y187000I-10000J0D01*
G01X200D01*
G03X-9800Y177000I0J-10000D01*
G01Y200D01*
G03X200Y-9800I10000J0D01*
M02*
