G04 ================== begin FILE IDENTIFICATION RECORD ==================*
G04 Layout Name:  quadcopter_0_1.brd*
G04 Film Name:    TOP*
G04 File Format:  Gerber RS274X*
G04 File Origin:  Cadence Allegro 16.6-S005*
G04 Origin Date:  Sat Aug 16 21:59:59 2014*
G04 *
G04 Layer:  BOARD GEOMETRY/OUTLINE*
G04 Layer:  ETCH/TOP*
G04 Layer:  PIN/TOP*
G04 Layer:  VIA CLASS/TOP*
G04 *
G04 Offset:    (0.000 0.000)*
G04 Mirror:    No*
G04 Mode:      Positive*
G04 Rotation:  0*
G04 FullContactRelief:  No*
G04 UndefLineWidth:     6.000*
G04 ================== end FILE IDENTIFICATION RECORD ====================*
%FSLAX25Y25*MOIN*%
%IR0*IPPOS*OFA0.00000B0.00000*MIA0B0*SFA1.00000B1.00000*%
%AMMACRO27*
4,1,40,-.068898,.014764,
-.068898,-.014764,
-.068838,-.015448,
-.06866,-.016111,
-.06837,-.016733,
-.067977,-.017295,
-.067491,-.01778,
-.066929,-.018174,
-.066307,-.018464,
-.065644,-.018641,
-.064961,-.018701,
.064961,-.018701,
.065645,-.018641,
.066308,-.018463,
.06693,-.018173,
.067492,-.01778,
.067977,-.017294,
.068371,-.016732,
.068661,-.01611,
.068838,-.015447,
.068898,-.014764,
.068898,.014764,
.068838,.015448,
.06866,.016111,
.06837,.016733,
.067977,.017295,
.067491,.01778,
.066929,.018174,
.066307,.018464,
.065644,.018641,
.064961,.018701,
-.064961,.018701,
-.065645,.018641,
-.066308,.018463,
-.06693,.018173,
-.067492,.01778,
-.067977,.017294,
-.068371,.016732,
-.068661,.01611,
-.068838,.015447,
-.068898,.014764,
0.0*
%
%ADD27MACRO27*%
%ADD26R,.012X.032*%
%ADD24R,.032X.012*%
%ADD20O,.045X.035*%
%ADD34C,.01*%
%ADD16O,.035X.045*%
%ADD29R,.032X.039*%
%ADD30C,.04*%
%ADD25R,.039X.032*%
%ADD11C,.025*%
%ADD33R,.059X.043*%
%ADD31C,.038*%
%ADD28R,.04X.04*%
%ADD32R,.038X.038*%
%ADD12C,.021654*%
%ADD10C,.035433*%
%ADD13C,.041339*%
%ADD21C,.025591*%
%ADD14C,.059055*%
%ADD15R,.059055X.059055*%
%ADD17C,.066929*%
%ADD19O,.064961X.015748*%
%ADD18R,.066929X.066929*%
%AMMACRO23*
4,1,44,.016732,-.002953,
.016732,.002953,
.016672,.003637,
.016495,.0043,
.016205,.004921,
.015811,.005484,
.015326,.005969,
.014764,.006363,
.014142,.006653,
.013479,.00683,
.012795,.00689,
.012795,.00689,
-.012795,.00689,
-.013479,.00683,
-.014142,.006653,
-.014763,.006363,
-.015326,.005969,
-.015811,.005484,
-.016205,.004922,
-.016495,.0043,
-.016672,.003637,
-.016732,.002953,
-.016732,.002953,
-.016732,-.002953,
-.016672,-.003637,
-.016495,-.0043,
-.016205,-.004921,
-.015811,-.005484,
-.015326,-.005969,
-.014764,-.006363,
-.014142,-.006653,
-.013479,-.00683,
-.012795,-.00689,
-.012795,-.00689,
.012795,-.00689,
.013479,-.00683,
.014142,-.006653,
.014763,-.006363,
.015326,-.005969,
.015811,-.005484,
.016205,-.004922,
.016495,-.0043,
.016672,-.003637,
.016732,-.002953,
.016732,-.002953,
0.0*
%
%ADD23MACRO23*%
%AMMACRO22*
4,1,44,-.002953,-.016732,
.002953,-.016732,
.003637,-.016672,
.0043,-.016495,
.004921,-.016205,
.005484,-.015811,
.005969,-.015326,
.006363,-.014764,
.006653,-.014142,
.00683,-.013479,
.00689,-.012795,
.00689,-.012795,
.00689,.012795,
.00683,.013479,
.006653,.014142,
.006363,.014763,
.005969,.015326,
.005484,.015811,
.004922,.016205,
.0043,.016495,
.003637,.016672,
.002953,.016732,
.002953,.016732,
-.002953,.016732,
-.003637,.016672,
-.0043,.016495,
-.004921,.016205,
-.005484,.015811,
-.005969,.015326,
-.006363,.014764,
-.006653,.014142,
-.00683,.013479,
-.00689,.012795,
-.00689,.012795,
-.00689,-.012795,
-.00683,-.013479,
-.006653,-.014142,
-.006363,-.014763,
-.005969,-.015326,
-.005484,-.015811,
-.004922,-.016205,
-.0043,-.016495,
-.003637,-.016672,
-.002953,-.016732,
-.002953,-.016732,
0.0*
%
%ADD22MACRO22*%
%ADD35C,.005*%
%ADD36C,.006*%
%ADD37C,.008*%
%ADD38C,.02*%
%ADD39C,.012*%
G75*
%LPD*%
G75*
G36*
G01X46492Y10376D02*
X48434Y8434D01*
X50950Y10800D01*
X48434Y13166D01*
X46492Y11224D01*
G03Y10376I424J-424D01*
G37*
G36*
G01X54649Y11684D02*
X53166Y13166D01*
X50487Y10800D01*
X53166Y8434D01*
X54649Y9916D01*
G03Y11684I-884J884D01*
G37*
G36*
G01X54124Y24946D02*
X47454Y24146D01*
X50751Y20743D01*
X54146Y17454D01*
X54446Y24646D01*
G03X54124Y24946I-300J0D01*
G37*
G36*
G01X51950Y78050D02*
X51950Y76200D01*
X54271Y76129D01*
X54783Y77941D01*
X52433Y78441D01*
G03X51950Y78050I-83J-391D01*
G37*
G36*
G01X37776Y72099D02*
X36738Y71062D01*
X38200Y69450D01*
X39662Y71062D01*
X38624Y72099D01*
G03X37776I-424J-424D01*
G37*
G36*
G01X47917Y78383D02*
X47367Y77833D01*
X48200Y76100D01*
X49033Y77833D01*
X48483Y78383D01*
G03X47917I-283J-283D01*
G37*
G36*
G01X55650Y66450D02*
X54200Y66450D01*
X54155Y64140D01*
X55950Y64700D01*
X55950Y66150D01*
G03X55650Y66450I-300J0D01*
G37*
G36*
G01X51437Y69988D02*
X52463Y68963D01*
X54275Y70200D01*
X52463Y71437D01*
X51437Y70412D01*
G03Y69988I212J-212D01*
G37*
G36*
G01X56963Y70412D02*
X55937Y71437D01*
X54125Y70200D01*
X55937Y68963D01*
X56963Y69988D01*
G03Y70412I-212J212D01*
G37*
G36*
G01X50963D02*
X49937Y71437D01*
X48125Y70200D01*
X49937Y68963D01*
X50963Y69988D01*
G03Y70412I-212J212D01*
G37*
G36*
G01X52480Y78320D02*
X52480Y79200D01*
X51129Y79271D01*
X51200Y77920D01*
X52080Y77920D01*
G03X52480Y78320I0J400D01*
G37*
G36*
G01X56712Y89412D02*
X55862Y90262D01*
X54125Y89200D01*
X55862Y88138D01*
X56712Y88988D01*
G03Y89412I-212J212D01*
G37*
G36*
G01Y83412D02*
X55862Y84262D01*
X54125Y83200D01*
X55862Y82138D01*
X56712Y82988D01*
G03Y83412I-212J212D01*
G37*
G36*
G01X48483Y86508D02*
X49437Y87463D01*
X48200Y89300D01*
X46963Y87463D01*
X47917Y86508D01*
G03X48483I283J283D01*
G37*
G36*
G01Y80508D02*
X49437Y81463D01*
X48200Y83300D01*
X46963Y81463D01*
X47917Y80508D01*
G03X48483I283J283D01*
G37*
G36*
G01X47917Y85892D02*
X46963Y84937D01*
X48200Y83100D01*
X49437Y84937D01*
X48483Y85892D01*
G03X47917I-283J-283D01*
G37*
G36*
G01X45492Y106083D02*
X44537Y107037D01*
X42700Y105800D01*
X44537Y104563D01*
X45492Y105517D01*
G03Y106083I-283J283D01*
G37*
G36*
G01X45108Y105517D02*
X46063Y104563D01*
X47900Y105800D01*
X46063Y107037D01*
X45108Y106083D01*
G03Y105517I283J-283D01*
G37*
G36*
G01X45492Y112083D02*
X44537Y113037D01*
X42700Y111800D01*
X44537Y110563D01*
X45492Y111517D01*
G03Y112083I-283J283D01*
G37*
G36*
G01X45108Y111517D02*
X46063Y110563D01*
X47900Y111800D01*
X46063Y113037D01*
X45108Y112083D01*
G03Y111517I283J-283D01*
G37*
G36*
G01X38624Y119701D02*
X39662Y120738D01*
X38200Y122350D01*
X36738Y120738D01*
X37776Y119701D01*
G03X38624I424J424D01*
G37*
G36*
G01X64649Y11684D02*
X63166Y13166D01*
X60488Y10800D01*
X63166Y8434D01*
X64649Y9916D01*
G03Y11684I-884J884D01*
G37*
G36*
G01X56951Y9916D02*
X58434Y8434D01*
X61112Y10800D01*
X58434Y13166D01*
X56951Y11684D01*
G03Y9916I884J-884D01*
G37*
G36*
G01X74649Y11684D02*
X73166Y13166D01*
X70488Y10800D01*
X73166Y8434D01*
X74649Y9916D01*
G03Y11684I-884J884D01*
G37*
G36*
G01X66951Y9916D02*
X68434Y8434D01*
X71112Y10800D01*
X68434Y13166D01*
X66951Y11684D01*
G03Y9916I884J-884D01*
G37*
G36*
G01X76951D02*
X78434Y8434D01*
X81112Y10800D01*
X78434Y13166D01*
X76951Y11684D01*
G03Y9916I884J-884D01*
G37*
G36*
G01X59217Y32617D02*
X59700D01*
X59806Y33806D01*
X58617Y33700D01*
Y33217D01*
G03X59217Y32617I600J0D01*
G37*
G36*
G01X74133Y24746D02*
X67454Y24146D01*
X70749Y20745D01*
X74146Y17454D01*
X74446Y24446D01*
G03X74133Y24746I-300J0D01*
G37*
G36*
G01X64137Y24646D02*
X57454Y24146D01*
X60749Y20746D01*
X64146Y17454D01*
X64446Y24346D01*
G03X64137Y24646I-300J0D01*
G37*
G36*
G01X71042Y31735D02*
X70488Y32288D01*
X69648Y31523D01*
X70488Y30757D01*
X71042Y31311D01*
G03Y31735I-212J212D01*
G37*
G36*
G01X56704Y46665D02*
X57257Y46112D01*
X58098Y46877D01*
X57257Y47643D01*
X56704Y47089D01*
G03Y46665I212J-212D01*
G37*
G36*
G01X77200Y48017D02*
Y48700D01*
X76642Y49338D01*
X75934Y48434D01*
X76776Y47593D01*
X77200Y48017D01*
G37*
G36*
G01X74912Y63381D02*
X75466Y63934D01*
X74700Y64775D01*
X73934Y63934D01*
X74488Y63381D01*
G03X74912I212J212D01*
G37*
G36*
G01X68912D02*
X69466Y63934D01*
X68700Y64775D01*
X67935Y63934D01*
X68488Y63381D01*
G03X68912I212J212D01*
G37*
G36*
G01X64381Y64988D02*
X64934Y64435D01*
X65775Y65200D01*
X64934Y65966D01*
X64381Y65412D01*
G03Y64988I212J-212D01*
G37*
G36*
G01X71912Y63381D02*
X72466Y63934D01*
X71700Y64775D01*
X70934Y63934D01*
X71488Y63381D01*
G03X71912I212J212D01*
G37*
G36*
G01X63810Y67482D02*
X62774Y67553D01*
X62128Y66678D01*
X62966Y65934D01*
X64002Y66971D01*
G03X63810Y67482I-212J212D01*
G37*
G36*
G01X59917Y93892D02*
X58963Y92937D01*
X60200Y91100D01*
X61437Y92937D01*
X60483Y93892D01*
G03X59917I-283J-283D01*
G37*
G36*
G01X61411Y98925D02*
X60061Y98425D01*
X60150Y96113D01*
X61950Y96700D01*
X61950Y98550D01*
G03X61411Y98925I-400J0D01*
G37*
G36*
G01X60483Y93508D02*
X61437Y94463D01*
X60200Y96300D01*
X58963Y94463D01*
X59917Y93508D01*
G03X60483I283J283D01*
G37*
G36*
G01X63999Y83799D02*
X62799D01*
X63134Y83058D01*
X63558Y82634D01*
X64299Y82299D01*
Y83499D01*
G03X63999Y83799I-300J0D01*
G37*
G36*
G01X65917Y93892D02*
X64963Y92937D01*
X66200Y91100D01*
X67437Y92937D01*
X66483Y93892D01*
G03X65917I-283J-283D01*
G37*
G36*
G01X66483Y93508D02*
X67437Y94463D01*
X66200Y96300D01*
X64963Y94463D01*
X65917Y93508D01*
G03X66483I283J283D01*
G37*
G36*
G01X75820Y90720D02*
X76500Y90721D01*
X76606Y92106D01*
X75221Y92000D01*
X75220Y91320D01*
G03X75820Y90720I600J0D01*
G37*
G36*
G01X68447Y83463D02*
X67966Y83943D01*
X66911Y83039D01*
X67966Y82134D01*
X68447Y82614D01*
G03Y83463I-424J424D01*
G37*
G36*
G01X62420Y99020D02*
X63300Y99021D01*
X63371Y100371D01*
X62020Y100300D01*
X62020Y99420D01*
G03X62420Y99020I400J0D01*
G37*
G36*
G01X70917Y110892D02*
X69963Y109937D01*
X71200Y108100D01*
X72437Y109937D01*
X71483Y110892D01*
G03X70917I-283J-283D01*
G37*
G36*
G01Y115892D02*
X69963Y114937D01*
X71200Y113100D01*
X72437Y114937D01*
X71483Y115892D01*
G03X70917I-283J-283D01*
G37*
G36*
G01X71483Y110508D02*
X72437Y111463D01*
X71200Y113300D01*
X69963Y111463D01*
X70917Y110508D01*
G03X71483I283J283D01*
G37*
G36*
G01X71483Y115773D02*
X72105Y116395D01*
X71200Y117400D01*
X70295Y116395D01*
X70917Y115773D01*
G03X71483I283J283D01*
G37*
G36*
G01X71483Y100508D02*
X72437Y101463D01*
X71200Y103300D01*
X69963Y101463D01*
X70917Y100508D01*
G03X71483I283J283D01*
G37*
G36*
G01X70917Y100892D02*
X69963Y99937D01*
X71200Y98100D01*
X72437Y99937D01*
X71483Y100892D01*
G03X70917I-283J-283D01*
G37*
G36*
G01X76917Y105892D02*
X75963Y104937D01*
X77200Y103100D01*
X78437Y104937D01*
X77483Y105892D01*
G03X76917I-283J-283D01*
G37*
G36*
G01X77483Y105508D02*
X78437Y106463D01*
X77200Y108300D01*
X75963Y106463D01*
X76917Y105508D01*
G03X77483I283J283D01*
G37*
G36*
G01X84649Y11684D02*
X83166Y13166D01*
X80488Y10800D01*
X83166Y8434D01*
X84649Y9916D01*
G03Y11684I-884J884D01*
G37*
G36*
G01X94649D02*
X93166Y13166D01*
X90488Y10800D01*
X93166Y8434D01*
X94649Y9916D01*
G03Y11684I-884J884D01*
G37*
G36*
G01X86951Y9916D02*
X88434Y8434D01*
X91113Y10800D01*
X88434Y13166D01*
X86951Y11684D01*
G03Y9916I884J-884D01*
G37*
G36*
G01X96951D02*
X98434Y8434D01*
X101112Y10800D01*
X98434Y13166D01*
X96951Y11684D01*
G03Y9916I884J-884D01*
G37*
G36*
G01X105646Y24446D02*
X97454Y24146D01*
X100738Y20757D01*
X104146Y17454D01*
X105939Y24081D01*
G03X105646Y24446I-293J66D01*
G37*
G36*
G01X95146D02*
X87454Y24146D01*
X90741Y20754D01*
X94146Y17454D01*
X95443Y24102D01*
G03X95146Y24446I-297J44D01*
G37*
G36*
G01X84124Y24946D02*
X77454Y24146D01*
X80751Y20743D01*
X84146Y17454D01*
X84446Y24646D01*
G03X84124Y24946I-300J0D01*
G37*
G36*
G01X87988Y31963D02*
X86963Y30937D01*
X88200Y29125D01*
X89437Y30937D01*
X88412Y31963D01*
G03X87988I-212J-212D01*
G37*
G36*
G01X88412Y32437D02*
X89437Y33463D01*
X88200Y35275D01*
X86963Y33463D01*
X87988Y32437D01*
G03X88412I212J212D01*
G37*
G36*
G01X81409Y47698D02*
X80990Y47010D01*
X81808Y46225D01*
X82566Y47066D01*
X81878Y47754D01*
G03X81409Y47698I-212J-212D01*
G37*
G36*
G01X93996Y44852D02*
X94132Y45699D01*
X93279Y46372D01*
X92641Y45535D01*
X93488Y44688D01*
G03X93996Y44852I212J212D01*
G37*
G36*
G01X84454Y45178D02*
X84000Y44524D01*
X84806Y43725D01*
X85566Y44566D01*
X84912Y45219D01*
G03X84454Y45178I-212J-212D01*
G37*
G36*
G01X93083Y43017D02*
X92300Y43800D01*
X91231Y43830D01*
X91300Y42717D01*
X93083D01*
Y43017D01*
G37*
G36*
G01X78700Y53007D02*
Y51900D01*
X79325Y51229D01*
X80066Y52066D01*
X78912Y53219D01*
X78700Y53007D01*
G37*
G36*
G01X97383Y47317D02*
Y48300D01*
X96253Y48359D01*
X96226Y47227D01*
X97008Y47027D01*
G03X97383Y47317I74J291D01*
G37*
G36*
G01X91303Y70988D02*
X92395Y69895D01*
X93373Y70784D01*
X92530Y71782D01*
X91437Y71490D01*
G03X91303Y70988I78J-290D01*
G37*
G36*
G01X94369Y76333D02*
X94873Y77074D01*
X93912Y78020D01*
X93016Y77016D01*
X93756Y76276D01*
G03X94369Y76333I283J283D01*
G37*
G36*
G01X96981Y68088D02*
X97534Y67535D01*
X98375Y68300D01*
X97534Y69066D01*
X96981Y68512D01*
G03Y68088I212J-212D01*
G37*
G36*
G01X92800Y65500D02*
X94018Y65500D01*
X94371Y66324D01*
X93300Y66300D01*
X92800Y65800D01*
Y65500D01*
G37*
G36*
G01X81912Y60881D02*
X82466Y61434D01*
X81700Y62275D01*
X80935Y61434D01*
X81488Y60881D01*
G03X81912I212J212D01*
G37*
G36*
G01X84912D02*
X85466Y61434D01*
X84700Y62275D01*
X83934Y61434D01*
X84488Y60881D01*
G03X84912I212J212D01*
G37*
G36*
G01X87912D02*
X88466Y61434D01*
X87700Y62275D01*
X86934Y61434D01*
X87488Y60881D01*
G03X87912I212J212D01*
G37*
G36*
G01X78912D02*
X79466Y61434D01*
X78700Y62275D01*
X77934Y61434D01*
X78488Y60881D01*
G03X78912I212J212D01*
G37*
G36*
G01X92273Y82756D02*
X92895Y82134D01*
X93900Y83039D01*
X92895Y83943D01*
X92273Y83322D01*
G03Y82756I283J-283D01*
G37*
G36*
G01X92394Y77638D02*
X93016Y77016D01*
X94020Y77920D01*
X93016Y78825D01*
X92394Y78203D01*
G03Y77638I283J-283D01*
G37*
G36*
G01X78850Y100450D02*
X77200Y100450D01*
X77094Y98094D01*
X78934Y97564D01*
X79434Y99714D01*
G03X78850Y100450I-584J136D01*
G37*
G36*
G01X83942Y96542D02*
X83263Y96542D01*
X83157Y95157D01*
X84542Y95263D01*
X84542Y95942D01*
G03X83942Y96542I-600J0D01*
G37*
G36*
G01X79348Y95348D02*
X78500Y94500D01*
X79648D01*
Y95348D01*
X79348D01*
G37*
G36*
G01X80747Y89377D02*
X81121Y90110D01*
X80290Y90874D01*
X79535Y90034D01*
X80267Y89302D01*
G03X80747Y89377I212J212D01*
G37*
G36*
G01X79383Y113483D02*
X78833Y114033D01*
X77100Y113200D01*
X78833Y112367D01*
X79383Y112917D01*
G03Y113483I-283J283D01*
G37*
G36*
G01X79381Y107488D02*
X79934Y106934D01*
X80775Y107700D01*
X79934Y108465D01*
X79381Y107912D01*
G03Y107488I212J-212D01*
G37*
G36*
G01X80212Y107912D02*
X78862Y109262D01*
X77126Y108213D01*
X78725Y107060D01*
X80075Y107410D01*
G03X80212Y107912I-75J290D01*
G37*
G36*
G01X104649Y11684D02*
X103166Y13166D01*
X100488Y10800D01*
X103166Y8434D01*
X104649Y9916D01*
G03Y11684I-884J884D01*
G37*
G36*
G01X114649D02*
X113166Y13166D01*
X110488Y10800D01*
X113166Y8434D01*
X114649Y9916D01*
G03Y11684I-884J884D01*
G37*
G36*
G01X106951Y9916D02*
X108434Y8434D01*
X111112Y10800D01*
X108434Y13166D01*
X106951Y11684D01*
G03Y9916I884J-884D01*
G37*
G36*
G01X116951D02*
X118434Y8434D01*
X121112Y10800D01*
X118434Y13166D01*
X116951Y11684D01*
G03Y9916I884J-884D01*
G37*
G36*
G01X114124Y24946D02*
X107454Y24146D01*
X110751Y20743D01*
X114146Y17454D01*
X114446Y24646D01*
G03X114124Y24946I-300J0D01*
G37*
G36*
G01X114012Y32981D02*
X114566Y33534D01*
X113800Y34375D01*
X113035Y33534D01*
X113588Y32981D01*
G03X114012I212J212D01*
G37*
G36*
G01X98617Y27317D02*
X99800D01*
X99862Y28441D01*
X98750Y28537D01*
X98350Y27754D01*
G03X98617Y27317I267J-137D01*
G37*
G36*
G01X116412Y36081D02*
X116965Y36634D01*
X116200Y37475D01*
X115434Y36634D01*
X115988Y36081D01*
G03X116412I212J212D01*
G37*
G36*
G01X102342Y47089D02*
X101788Y47643D01*
X100948Y46877D01*
X101788Y46112D01*
X102342Y46665D01*
G03Y47089I-212J212D01*
G37*
G36*
G01X117617Y65983D02*
Y65200D01*
X118753Y65147D01*
X118700Y66283D01*
X117917D01*
G03X117617Y65983I0J-300D01*
G37*
G36*
G01X113117Y66483D02*
Y65700D01*
X114253Y65647D01*
X114200Y66783D01*
X113417D01*
G03X113117Y66483I0J-300D01*
G37*
G36*
G01X114881Y70988D02*
X115434Y70434D01*
X116275Y71200D01*
X115434Y71966D01*
X114881Y71412D01*
G03Y70988I212J-212D01*
G37*
G36*
G01X117688Y73988D02*
X118538Y73138D01*
X120275Y74200D01*
X118538Y75262D01*
X117688Y74412D01*
G03Y73988I212J-212D01*
G37*
G36*
G01X112288Y97597D02*
X111720Y98063D01*
X110045Y97463D01*
X111720Y96863D01*
X112288Y97329D01*
G03Y97597I-268J134D01*
G37*
G36*
G01X101988Y80963D02*
X100963Y79937D01*
X102200Y78125D01*
X103437Y79937D01*
X102412Y80963D01*
G03X101988I-212J-212D01*
G37*
G36*
G01X117540Y103640D02*
X119237Y105337D01*
X116940D01*
Y103640D01*
X117540D01*
G37*
G36*
G01X112288Y101534D02*
X111720Y102000D01*
X110045Y101400D01*
X111720Y100800D01*
X112288Y101266D01*
G03Y101534I-268J134D01*
G37*
G36*
G01X97901Y99305D02*
X98480Y98831D01*
X100180Y99431D01*
X98480Y100031D01*
X97901Y99557D01*
G03Y99305I379J-126D01*
G37*
G36*
G01Y103243D02*
X98480Y102769D01*
X100180Y103369D01*
X98480Y103969D01*
X97901Y103495D01*
G03Y103243I379J-126D01*
G37*
G36*
G01X112288Y99565D02*
X111720Y100031D01*
X110045Y99431D01*
X111720Y98831D01*
X112288Y99297D01*
G03Y99565I-268J134D01*
G37*
G36*
G01X104384Y119823D02*
X103284Y121973D01*
X102094Y121306D01*
X102200Y118950D01*
X103850Y118950D01*
G03X104384Y119823I0J600D01*
G37*
G36*
G01X124649Y11684D02*
X123166Y13166D01*
X120487Y10800D01*
X123166Y8434D01*
X124649Y9916D01*
G03Y11684I-884J884D01*
G37*
G36*
G01X121583Y35383D02*
X120800D01*
X120747Y34247D01*
X121883Y34300D01*
Y35083D01*
G03X121583Y35383I-300J0D01*
G37*
G36*
G01X122288Y29719D02*
X121735Y29166D01*
X122500Y28325D01*
X123266Y29166D01*
X122712Y29719D01*
G03X122288I-212J-212D01*
G37*
G36*
G01X120636Y25198D02*
X119576Y24146D01*
X120800Y20725D01*
X122024Y24146D01*
X120964Y25198D01*
G03X120636I-164J-251D01*
G37*
G36*
G01X131381Y27988D02*
X131934Y27434D01*
X132775Y28200D01*
X131934Y28966D01*
X131381Y28412D01*
G03Y27988I212J-212D01*
G37*
G36*
G01X138181Y25046D02*
X140488Y26008D01*
X140512Y26200D01*
X138816Y29084D01*
X136816Y27084D01*
G03X138181Y25046I884J-884D01*
G37*
G36*
G01X121783Y38483D02*
X121000D01*
X120947Y37347D01*
X122083Y37400D01*
Y38183D01*
G03X121783Y38483I-300J0D01*
G37*
G36*
G01X138921Y58507D02*
X137458Y59971D01*
X135569Y58896D01*
X136800Y57800D01*
X138214D01*
X138921Y58507D01*
G37*
G36*
G01X128951Y68406D02*
X129600Y64533D01*
X131253Y66430D01*
X132800Y68433D01*
X129250Y68733D01*
G03X128951Y68406I0J-300D01*
G37*
G36*
G01X128741Y69353D02*
X127867Y70240D01*
X125842Y69200D01*
X127867Y68160D01*
X128741Y69047D01*
G03Y69353I-258J153D01*
G37*
G36*
G01X135983Y74283D02*
X135200D01*
X135147Y73147D01*
X136283Y73200D01*
Y73983D01*
G03X135983Y74283I-300J0D01*
G37*
G36*
G01X135750Y73750D02*
X137200Y75200D01*
X137229Y77269D01*
X135450Y76700D01*
X135450Y73750D01*
X135750D01*
G37*
G36*
G01X131011Y75400D02*
X129600Y73867D01*
X131200Y71842D01*
X132800Y73867D01*
X131389Y75400D01*
G03X131011I-189J-233D01*
G37*
G36*
G01X131412Y74437D02*
X132437Y75463D01*
X131200Y77275D01*
X129963Y75463D01*
X130988Y74437D01*
G03X131412I212J212D01*
G37*
G36*
G01X119988Y76963D02*
X118963Y75937D01*
X120200Y74125D01*
X121437Y75937D01*
X120412Y76963D01*
G03X119988I-212J-212D01*
G37*
G36*
G01X133519Y89378D02*
X132966Y89931D01*
X132125Y89165D01*
X132966Y88400D01*
X133519Y88953D01*
G03Y89378I-212J212D01*
G37*
G36*
G01Y92343D02*
X132966Y92896D01*
X132125Y92131D01*
X132966Y91365D01*
X133519Y91919D01*
G03Y92343I-212J212D01*
G37*
G36*
G01Y95308D02*
X132966Y95862D01*
X132125Y95096D01*
X132966Y94331D01*
X133519Y94884D01*
G03Y95308I-212J212D01*
G37*
G36*
G01Y86412D02*
X132966Y86966D01*
X132125Y86200D01*
X132966Y85434D01*
X133519Y85988D01*
G03Y86412I-212J212D01*
G37*
G36*
G01X136988Y79963D02*
X135963Y78937D01*
X137200Y77125D01*
X138437Y78937D01*
X137412Y79963D01*
G03X136988I-212J-212D01*
G37*
G36*
G01X137412Y79437D02*
X138437Y80463D01*
X137200Y82275D01*
X135963Y80463D01*
X136988Y79437D01*
G03X137412I212J212D01*
G37*
G36*
G01X130988Y79963D02*
X129963Y78937D01*
X131200Y77125D01*
X132437Y78937D01*
X131412Y79963D01*
G03X130988I-212J-212D01*
G37*
G36*
G01X131412Y79437D02*
X132437Y80463D01*
X131200Y82275D01*
X129963Y80463D01*
X130988Y79437D01*
G03X131412I212J212D01*
G37*
G36*
G01X120412Y77437D02*
X121437Y78463D01*
X120200Y80275D01*
X118963Y78463D01*
X119988Y77437D01*
G03X120412I212J212D01*
G37*
G36*
G01X120620Y106120D02*
X121300Y106120D01*
X121406Y107506D01*
X120020Y107400D01*
X120020Y106720D01*
G03X120620Y106120I600J0D01*
G37*
G36*
G01X120103Y101188D02*
X120795Y100495D01*
X121775Y101400D01*
X120795Y102305D01*
X120103Y101612D01*
G03Y101188I212J-212D01*
G37*
G36*
G01X128937Y104288D02*
X130063Y103163D01*
X131875Y104397D01*
X130084Y105657D01*
X128959Y104732D01*
G03X128937Y104288I191J-232D01*
G37*
G36*
G01X125912Y101988D02*
X126762Y102838D01*
X125700Y104575D01*
X124638Y102838D01*
X125488Y101988D01*
G03X125912I212J212D01*
G37*
G36*
G01X128463Y104712D02*
X127437Y105737D01*
X125625Y104500D01*
X127437Y103263D01*
X128463Y104288D01*
G03Y104712I-212J212D01*
G37*
G36*
G01X146006Y24128D02*
X144200Y22200D01*
X146200Y20125D01*
X148200Y22200D01*
X146394Y24128D01*
G03X146006I-194J-229D01*
G37*
G36*
G01X146412Y23437D02*
X147437Y24463D01*
X146200Y26275D01*
X144963Y24463D01*
X145988Y23437D01*
G03X146412I212J212D01*
G37*
G36*
G01X140988Y34963D02*
X139963Y33937D01*
X141200Y32125D01*
X142437Y33937D01*
X141412Y34963D01*
G03X140988I-212J-212D01*
G37*
G36*
G01X141412Y34437D02*
X142437Y35463D01*
X141200Y37275D01*
X139963Y35463D01*
X140988Y34437D01*
G03X141412I212J212D01*
G37*
G36*
G01X153633Y38267D02*
X153633Y37200D01*
X155877Y37023D01*
X155700Y39267D01*
X154633Y39267D01*
G03X153633Y38267I0J-1000D01*
G37*
G36*
G01X148971Y70471D02*
X148188Y69688D01*
X148158Y68619D01*
X149271Y68688D01*
Y70471D01*
X148971D01*
G37*
G36*
G01X150640Y72494D02*
X149090Y72177D01*
X149147Y70647D01*
X151000Y70966D01*
X151000Y72200D01*
G03X150640Y72494I-300J0D01*
G37*
G36*
G01X148420Y68497D02*
X149416Y69708D01*
X149234Y70767D01*
X147565Y69606D01*
X147903Y68593D01*
G03X148420Y68497I285J95D01*
G37*
G36*
G01X151437Y71988D02*
X152463Y70963D01*
X154275Y72200D01*
X152463Y73437D01*
X151437Y72412D01*
G03Y71988I212J-212D01*
G37*
G36*
G01X159978Y68900D02*
X161031Y68847D01*
X161672Y69722D01*
X160834Y70466D01*
X159781Y69412D01*
G03X159978Y68900I212J-212D01*
G37*
G36*
G01X149827Y92593D02*
X149205Y93215D01*
X148200Y92310D01*
X149205Y91405D01*
X149827Y92027D01*
G03Y92593I-283J283D01*
G37*
G36*
G01X152917Y104892D02*
X151963Y103937D01*
X153200Y102100D01*
X154437Y103937D01*
X153483Y104892D01*
G03X152917I-283J-283D01*
G37*
G36*
G01X153200Y105800D02*
X154656Y105800D01*
X154871Y107871D01*
X153203Y108133D01*
X152809Y106283D01*
G03X153200Y105800I391J-83D01*
G37*
G36*
G01X157600Y100200D02*
X159056Y100200D01*
X159271Y102271D01*
X157603Y102533D01*
X157209Y100683D01*
G03X157600Y100200I391J-83D01*
G37*
G36*
G01X161527Y123483D02*
X160905Y124105D01*
X159900Y123200D01*
X160905Y122295D01*
X161527Y122917D01*
G03Y123483I-283J283D01*
G37*
G36*
G01X165050Y22212D02*
X163300Y20300D01*
X165300Y18200D01*
X167300Y20300D01*
X165550Y22212D01*
G03X165050I-250J-312D01*
G37*
G36*
G01X165583Y24608D02*
X166537Y25563D01*
X165300Y27400D01*
X164063Y25563D01*
X165017Y24608D01*
G03X165583I283J283D01*
G37*
G36*
G01X181083Y22754D02*
X182214Y23886D01*
X180800Y25400D01*
X179386Y23886D01*
X180517Y22754D01*
G03X181083I283J283D01*
G37*
G36*
G01X180517Y21327D02*
X179895Y20705D01*
X180800Y19700D01*
X181705Y20705D01*
X181083Y21327D01*
G03X180517I-283J-283D01*
G37*
G36*
G01X169583Y43183D02*
X168800D01*
X168747Y42047D01*
X169883Y42100D01*
Y42883D01*
G03X169583Y43183I-300J0D01*
G37*
G36*
G01X175015Y48015D02*
X175861Y48015D01*
X178396Y48813D01*
X175132Y48980D01*
X174774Y48493D01*
G03X175015Y48015I242J-178D01*
G37*
G36*
G01X177988Y39963D02*
X176963Y38937D01*
X178200Y37125D01*
X179437Y38937D01*
X178412Y39963D01*
G03X177988I-212J-212D01*
G37*
G36*
G01X169081Y76588D02*
X169634Y76034D01*
X170475Y76800D01*
X169634Y77566D01*
X169081Y77012D01*
G03Y76588I212J-212D01*
G37*
G36*
G01X166422Y79354D02*
X167076Y78900D01*
X167875Y79706D01*
X167034Y80466D01*
X166381Y79812D01*
G03X166422Y79354I212J-212D01*
G37*
G36*
G01X167293Y83000D02*
X168400D01*
X169071Y83625D01*
X168234Y84366D01*
X167081Y83212D01*
X167293Y83000D01*
G37*
G36*
G01X172600Y84500D02*
Y82900D01*
X174553Y82847D01*
X174500Y84800D01*
X172900D01*
G03X172600Y84500I0J-300D01*
G37*
G36*
G01X170006Y121129D02*
X168200Y119200D01*
X170200Y117125D01*
X172200Y119200D01*
X170394Y121129D01*
G03X170006I-194J-229D01*
G37*
G36*
G01X174129Y117394D02*
X172200Y119200D01*
X170125Y117200D01*
X172200Y115200D01*
X174129Y117006D01*
G03Y117394I-229J194D01*
G37*
G36*
G01X176412Y114437D02*
X177437Y115463D01*
X176200Y117275D01*
X174963Y115463D01*
X175988Y114437D01*
G03X176412I212J212D01*
G37*
G36*
G01X173688Y116988D02*
X174538Y116138D01*
X176275Y117200D01*
X174538Y118262D01*
X173688Y117412D01*
G03Y116988I212J-212D01*
G37*
G36*
G01X177067Y112983D02*
Y112200D01*
X178203Y112147D01*
X178150Y113283D01*
X177367D01*
G03X177067Y112983I0J-300D01*
G37*
G36*
G01X163988Y113963D02*
X162963Y112937D01*
X164200Y111125D01*
X165437Y112937D01*
X164412Y113963D01*
G03X163988I-212J-212D01*
G37*
G36*
G01X164394Y113271D02*
X166200Y115200D01*
X164200Y117275D01*
X162200Y115200D01*
X164006Y113271D01*
G03X164394I194J229D01*
G37*
G36*
G01X172383Y111483D02*
X171833Y112033D01*
X170100Y111200D01*
X171833Y110367D01*
X172383Y110917D01*
G03Y111483I-283J283D01*
G37*
G36*
G01X171873Y110917D02*
X172495Y110295D01*
X173500Y111200D01*
X172495Y112105D01*
X171873Y111483D01*
G03Y110917I283J-283D01*
G37*
G36*
G01X168450Y125150D02*
X168450Y123700D01*
X170245Y123140D01*
X170200Y125450D01*
X168750Y125450D01*
G03X168450Y125150I0J-300D01*
G37*
G36*
G01X170412Y120437D02*
X171437Y121463D01*
X170200Y123275D01*
X168963Y121463D01*
X169988Y120437D01*
G03X170412I212J212D01*
G37*
G36*
G01X167412Y127688D02*
X168262Y128538D01*
X167200Y130275D01*
X166138Y128538D01*
X166988Y127688D01*
G03X167412I212J212D01*
G37*
G36*
G01X162017Y122917D02*
X162567Y122367D01*
X164300Y123200D01*
X162567Y124033D01*
X162017Y123483D01*
G03Y122917I283J-283D01*
G37*
G36*
G01X169150Y137950D02*
X167700Y137950D01*
X167140Y136155D01*
X169450Y136200D01*
X169450Y137650D01*
G03X169150Y137950I-300J0D01*
G37*
G36*
G01X174173Y140976D02*
X176250Y139022D01*
X179275Y141172D01*
X176250Y143322D01*
X174173Y141368D01*
G03Y140976I227J-196D01*
G37*
G36*
G01X75263Y75263D02*
Y83137D01*
X83137D01*
Y75263D01*
X75263D01*
G37*
G54D10*
X-7500Y47200D03*
X-3800Y53200D03*
X33200Y55507D03*
X112700Y132200D03*
X118700D03*
G54D11*
G01X50800Y10800D02*
X60800D01*
G01X70800D02*
X80800D01*
G01X70800D02*
X60800D01*
G01X90800D02*
X100800D01*
G01X80800D02*
X90800D01*
G01X110800D02*
X120800D01*
G01X100800D02*
X110800D01*
G01X120800D02*
X127794D01*
X128560Y11566D01*
X137200D01*
G01D02*
X133300Y15466D01*
Y22800D01*
X136700Y26200D01*
G01D02*
Y38600D01*
G01Y26200D02*
X140200D01*
G01X142500Y41400D02*
X144050Y42950D01*
X145718D01*
X146450Y43682D01*
Y45450D01*
X147200Y46200D01*
G01Y56200D02*
Y51200D01*
G01D02*
Y46200D01*
X0Y0D03*
Y177200D03*
X177200Y0D03*
Y177200D03*
G54D20*
X48200Y76200D03*
Y70200D03*
X54200D03*
Y76200D03*
X47800Y111800D03*
Y105800D03*
X42800Y111800D03*
Y105800D03*
X41700Y135700D03*
Y129700D03*
X47700Y135700D03*
Y129700D03*
X89200Y121200D03*
Y127200D03*
X135800Y52800D03*
Y58800D03*
X125700Y110500D03*
Y104500D03*
X131800Y104400D03*
Y110400D03*
X149200Y76700D03*
Y70700D03*
X154200Y78200D03*
Y72200D03*
X154800Y128800D03*
Y122800D03*
X167200Y136200D03*
Y130200D03*
G54D21*
X48200Y76200D03*
Y64200D03*
X51200Y79200D03*
X47800Y105800D03*
X42800Y111800D03*
X47800D03*
X63300Y47200D03*
X65350Y62050D03*
X77200Y98200D03*
X76500Y92000D03*
X66200Y91200D03*
X67061Y83039D03*
X71200Y117300D03*
X63300Y100300D03*
X94200Y35200D03*
Y29200D03*
X93800Y51800D03*
X93920Y77920D03*
X93300Y70800D03*
X83263Y95263D03*
X93800Y83039D03*
X96200Y127200D03*
X89200D03*
Y121200D03*
X99800Y51800D03*
X120483Y69200D03*
X108200Y78200D03*
X102200Y127200D03*
Y121200D03*
X127334Y-5166D03*
X137200Y-1300D03*
Y-5166D03*
X140200Y20200D03*
X141200Y46200D03*
Y51200D03*
Y56200D03*
X122523Y46877D03*
X126200Y74200D03*
X121800Y95600D03*
X126200Y80200D03*
X131800Y110400D03*
X121300Y107400D03*
X121700Y101400D03*
X125700Y110500D03*
X141200Y176200D03*
X135200D03*
X129200D03*
X123200D03*
X146566Y-5166D03*
X159300Y18300D03*
X147200Y32200D03*
X159300Y27300D03*
X147200Y37200D03*
X150502Y61598D03*
X148300Y92310D03*
X153153Y102153D03*
X148800Y107800D03*
X159200Y102200D03*
X154800Y122800D03*
X160000Y123200D03*
X154800Y128800D03*
X180800Y19800D03*
X162900Y42100D03*
X171200Y52200D03*
X166400D03*
X172300Y37300D03*
X166300Y58300D03*
X162600Y88800D03*
X182200Y117100D03*
X165300Y102200D03*
X173400Y111200D03*
X179228Y125228D03*
G54D12*
X-3800Y36200D03*
Y41200D03*
X32200Y75200D03*
Y81200D03*
Y93200D03*
Y87200D03*
Y99200D03*
Y117200D03*
Y105200D03*
Y111200D03*
X42200Y53200D03*
X47700Y129700D03*
Y135700D03*
X59700Y33700D03*
X69723Y31523D03*
X58023Y46877D03*
X76700Y49200D03*
X74700Y64700D03*
X68700D03*
X65700Y65200D03*
X71700Y64700D03*
X62200Y66700D03*
X88300Y29200D03*
X93300Y46300D03*
X81800D03*
X91300Y43800D03*
X84800D03*
X96300Y48300D03*
X79300Y51300D03*
X98300Y68300D03*
X94300Y66300D03*
X81700Y62200D03*
X84700D03*
X87700D03*
X78700D03*
X80300Y90800D03*
X80700Y107700D03*
X86700Y132700D03*
X92700D03*
X101377Y31523D03*
X113800Y34300D03*
X99800Y28400D03*
X117200Y41200D03*
X118200Y51200D03*
X116200Y37400D03*
X101023Y46877D03*
X118700Y65200D03*
X116200Y71200D03*
X114200Y65700D03*
X120800Y34300D03*
X122500Y28400D03*
X132700Y28200D03*
X141200Y32200D03*
X133800Y50800D03*
X121000Y37400D03*
X124200Y51200D03*
X131200Y66200D03*
X135200Y73200D03*
X131200Y71700D03*
X132200Y89165D03*
Y92131D03*
Y95096D03*
Y86200D03*
X123200Y169700D03*
X129200D03*
X135200D03*
X141200D03*
X148188Y68688D03*
X154227Y78173D03*
X149200Y76700D03*
X161600Y69700D03*
X171200Y52200D03*
X168800Y42100D03*
X171200Y58200D03*
X170400Y76800D03*
X167800Y79700D03*
X169000Y83600D03*
X178150Y112200D03*
G54D30*
X180800Y25300D03*
G54D22*
X75361Y71424D03*
Y86976D03*
X83039Y71424D03*
X80479D03*
X77920D03*
Y86976D03*
X80479D03*
X83039D03*
G54D13*
X13100Y38900D03*
X38200Y69600D03*
Y122200D03*
X155700Y37200D03*
G54D31*
X174500Y82900D03*
Y87900D03*
Y92900D03*
Y97900D03*
X179500Y87900D03*
Y92900D03*
Y97900D03*
X174500Y102900D03*
X179500D03*
G54D23*
X71424Y75361D03*
Y77920D03*
Y80479D03*
Y83039D03*
X86976Y75361D03*
Y83039D03*
Y80479D03*
Y77920D03*
G54D14*
X3200Y77200D03*
Y67200D03*
X13200Y77200D03*
X3200Y97200D03*
Y87200D03*
X13200Y97200D03*
Y87200D03*
X3200Y117200D03*
Y107200D03*
X13200Y117200D03*
Y107200D03*
X3200Y137200D03*
Y127200D03*
X13200Y137200D03*
Y127200D03*
G54D32*
X179500Y82900D03*
G54D15*
X13200Y67200D03*
G54D33*
X179200Y125228D03*
Y141172D03*
G54D24*
X100080Y97463D03*
Y105337D03*
Y103369D03*
Y101400D03*
Y99431D03*
X110120Y97463D03*
Y99431D03*
Y101400D03*
Y103369D03*
Y105337D03*
G54D25*
X120483Y69200D03*
X125917D03*
G54D16*
X32200Y75200D03*
Y81200D03*
Y87200D03*
Y93200D03*
Y99200D03*
Y105200D03*
Y111200D03*
Y117200D03*
X48200Y64200D03*
X54200D03*
X38200Y75200D03*
X48200Y89200D03*
X54200D03*
X48200Y83200D03*
X54200D03*
X38200Y81200D03*
Y87200D03*
Y93200D03*
Y99200D03*
Y105200D03*
Y111200D03*
Y117200D03*
X77200Y98200D03*
X71200D03*
X66200Y91200D03*
X60200D03*
X66200Y96200D03*
X60200D03*
X77200Y113200D03*
X71200D03*
X77200Y108200D03*
X71200D03*
X77200Y103200D03*
X71200D03*
X94200Y29200D03*
X88200D03*
Y35200D03*
X94200D03*
X99800Y51800D03*
X93800D03*
X96200Y121200D03*
Y127200D03*
X92700Y132700D03*
X86700D03*
X92700Y138200D03*
X86700D03*
X117800Y55800D03*
X120200Y74200D03*
X102200Y78200D03*
X108200D03*
X120200Y80200D03*
X102200Y121200D03*
Y127200D03*
X118700Y132200D03*
X112700D03*
X118700Y126700D03*
X112700D03*
X141200Y37200D03*
Y32200D03*
X140200Y26200D03*
X141200Y46200D03*
Y51200D03*
Y56200D03*
X123800Y55800D03*
X126200Y74200D03*
X137200Y77200D03*
X131200D03*
X126200Y80200D03*
X137200Y82200D03*
X131200D03*
X147200Y37200D03*
Y32200D03*
X146200Y26200D03*
X159300Y27300D03*
X147200Y46200D03*
Y51200D03*
Y56200D03*
X153200Y102200D03*
X159200D03*
X148800Y107800D03*
X154800D03*
X165300Y27300D03*
X178200Y37200D03*
X172200D03*
X170200Y111200D03*
X164200D03*
X182200Y117200D03*
X176200D03*
X170200Y123200D03*
X164200D03*
G54D34*
X179200Y129854D03*
Y136546D03*
G54D35*
G01X98345Y140500D02*
Y143600D01*
G01X99955D02*
Y140500D01*
G01Y142050D02*
X98345D01*
G01X101598Y142567D02*
Y141120D01*
X101752Y140758D01*
X101982Y140552D01*
X102250Y140500D01*
X102518Y140552D01*
X102748Y140758D01*
X102902Y141120D01*
G01Y140500D02*
Y142567D01*
G01X104698Y140500D02*
Y142567D01*
G01Y142050D02*
X104852Y142308D01*
X105082Y142515D01*
X105388Y142567D01*
X105657Y142515D01*
X105887Y142308D01*
X106002Y141947D01*
Y140500D01*
G01X109140D02*
Y142567D01*
G01Y142205D02*
X108987Y142412D01*
X108757Y142515D01*
X108488Y142567D01*
X108220Y142463D01*
X107990Y142257D01*
X107837Y141947D01*
X107760Y141533D01*
X107837Y141120D01*
X107990Y140810D01*
X108220Y140603D01*
X108488Y140500D01*
X108757Y140552D01*
X108987Y140707D01*
X109140Y140913D01*
G01X110898Y140500D02*
Y142567D01*
G01Y142050D02*
X111052Y142308D01*
X111282Y142515D01*
X111588Y142567D01*
X111857Y142515D01*
X112087Y142308D01*
X112202Y141947D01*
Y140500D01*
G01X116907Y143600D02*
Y141378D01*
X117060Y140913D01*
X117367Y140603D01*
X117750Y140500D01*
X118133Y140603D01*
X118440Y140913D01*
X118593Y141378D01*
Y143600D01*
G01X120198Y140500D02*
Y142567D01*
G01Y142050D02*
X120352Y142308D01*
X120582Y142515D01*
X120888Y142567D01*
X121157Y142515D01*
X121387Y142308D01*
X121502Y141947D01*
Y140500D01*
G01X123950Y142567D02*
Y140500D01*
G01Y143393D02*
X123873Y143445D01*
Y143548D01*
X123950Y143600D01*
X124027Y143548D01*
Y143445D01*
X123950Y143393D01*
G01X126360Y142567D02*
X127050Y140500D01*
X127740Y142567D01*
G01X129575Y141895D02*
X130802D01*
X130687Y142257D01*
X130495Y142463D01*
X130227Y142567D01*
X129958Y142515D01*
X129728Y142360D01*
X129575Y141998D01*
X129498Y141688D01*
Y141378D01*
X129575Y141068D01*
X129767Y140758D01*
X129997Y140552D01*
X130265Y140500D01*
X130533Y140603D01*
X130802Y140913D01*
G01X132713Y140500D02*
Y142567D01*
G01Y142153D02*
X132905Y142360D01*
X133097Y142515D01*
X133365Y142567D01*
X133557Y142515D01*
X133787Y142360D01*
G01X135775Y140862D02*
X135967Y140655D01*
X136235Y140500D01*
X136465D01*
X136695Y140603D01*
X136848Y140758D01*
X136925Y140965D01*
X136887Y141275D01*
X136733Y141430D01*
X136043Y141740D01*
X135890Y142102D01*
X135967Y142360D01*
X136120Y142515D01*
X136350Y142567D01*
X136580Y142515D01*
X136810Y142360D01*
G01X139450Y142567D02*
Y140500D01*
G01Y143393D02*
X139373Y143445D01*
Y143548D01*
X139450Y143600D01*
X139527Y143548D01*
Y143445D01*
X139450Y143393D01*
G01X142550Y143600D02*
Y140500D01*
G01X142013Y142567D02*
X143087D01*
G01X144845Y139570D02*
X145075Y139467D01*
X145382Y139570D01*
X145573Y139777D01*
X145727Y140035D01*
X145957Y140862D01*
X146455Y142567D01*
G01X145228D02*
X145957Y140862D01*
G01X99000Y151000D02*
X99887Y146000D01*
X100900Y151000D01*
X101913Y146000D01*
X102800Y151000D01*
G01X106000Y149333D02*
Y146000D01*
G01Y150667D02*
X105873Y150750D01*
Y150917D01*
X106000Y151000D01*
X106127Y150917D01*
Y150750D01*
X106000Y150667D01*
G01X111100Y146000D02*
Y151000D01*
G01X116200Y146000D02*
Y151000D01*
G01X125133D02*
Y146000D01*
X127667D01*
G01X130740Y151000D02*
X132260D01*
G01X131500D02*
Y146000D01*
G01X130740D02*
X132260D01*
G01X135143D02*
Y151000D01*
X138057Y146000D01*
Y151000D01*
G01X98307Y154000D02*
Y157100D01*
X99073D01*
X99380Y156945D01*
X99610Y156738D01*
X99802Y156428D01*
X99955Y156067D01*
X99993Y155550D01*
X99955Y155033D01*
X99802Y154672D01*
X99610Y154362D01*
X99380Y154155D01*
X99073Y154000D01*
X98307D01*
G01X101675Y155395D02*
X102902D01*
X102787Y155757D01*
X102595Y155963D01*
X102327Y156067D01*
X102058Y156015D01*
X101828Y155860D01*
X101675Y155498D01*
X101598Y155188D01*
Y154878D01*
X101675Y154568D01*
X101867Y154258D01*
X102097Y154052D01*
X102365Y154000D01*
X102633Y154103D01*
X102902Y154413D01*
G01X104775Y154362D02*
X104967Y154155D01*
X105235Y154000D01*
X105465D01*
X105695Y154103D01*
X105848Y154258D01*
X105925Y154465D01*
X105887Y154775D01*
X105733Y154930D01*
X105043Y155240D01*
X104890Y155602D01*
X104967Y155860D01*
X105120Y156015D01*
X105350Y156067D01*
X105580Y156015D01*
X105810Y155860D01*
G01X108450Y156067D02*
Y154000D01*
G01Y156893D02*
X108373Y156945D01*
Y157048D01*
X108450Y157100D01*
X108527Y157048D01*
Y156945D01*
X108450Y156893D01*
G01X111013Y153225D02*
X111282Y153018D01*
X111588Y152967D01*
X111857Y153018D01*
X112087Y153277D01*
X112240Y153638D01*
Y156067D01*
G01Y155653D02*
X112087Y155860D01*
X111857Y156015D01*
X111588Y156067D01*
X111282Y155963D01*
X111090Y155757D01*
X110937Y155395D01*
X110860Y155033D01*
X110898Y154723D01*
X111052Y154362D01*
X111282Y154103D01*
X111588Y154000D01*
X111818Y154052D01*
X112087Y154258D01*
X112240Y154465D01*
G01X113998Y154000D02*
Y156067D01*
G01Y155550D02*
X114152Y155808D01*
X114382Y156015D01*
X114688Y156067D01*
X114957Y156015D01*
X115187Y155808D01*
X115302Y155447D01*
Y154000D01*
G01X117175Y155395D02*
X118402D01*
X118287Y155757D01*
X118095Y155963D01*
X117827Y156067D01*
X117558Y156015D01*
X117328Y155860D01*
X117175Y155498D01*
X117098Y155188D01*
Y154878D01*
X117175Y154568D01*
X117367Y154258D01*
X117597Y154052D01*
X117865Y154000D01*
X118133Y154103D01*
X118402Y154413D01*
G01X121540Y157100D02*
Y154000D01*
G01Y154465D02*
X121387Y154207D01*
X121157Y154052D01*
X120888Y154000D01*
X120582Y154103D01*
X120352Y154362D01*
X120198Y154672D01*
X120160Y155033D01*
X120198Y155395D01*
X120352Y155705D01*
X120582Y155963D01*
X120888Y156067D01*
X121157Y156015D01*
X121348Y155912D01*
X121540Y155705D01*
G01X126360Y154000D02*
Y157100D01*
G01Y155550D02*
X126552Y155860D01*
X126782Y156015D01*
X127012Y156067D01*
X127357Y155963D01*
X127587Y155757D01*
X127740Y155395D01*
Y154982D01*
X127663Y154568D01*
X127510Y154258D01*
X127242Y154052D01*
X127012Y154000D01*
X126782Y154052D01*
X126552Y154207D01*
X126360Y154465D01*
G01X129345Y153070D02*
X129575Y152967D01*
X129882Y153070D01*
X130073Y153277D01*
X130227Y153535D01*
X130457Y154362D01*
X130955Y156067D01*
G01X129728D02*
X130457Y154362D01*
G01X126422Y137583D02*
X126652Y137893D01*
X126920Y138048D01*
X127227Y138100D01*
X127610Y137997D01*
X127878Y137738D01*
X127955Y137428D01*
X127917Y137118D01*
X127763Y136860D01*
X126997Y136343D01*
X126652Y135982D01*
X126422Y135465D01*
X126345Y135000D01*
X127955D01*
G01X130250Y138100D02*
X129943Y137997D01*
X129713Y137738D01*
X129560Y137428D01*
X129445Y137015D01*
X129407Y136550D01*
X129445Y136085D01*
X129560Y135672D01*
X129713Y135362D01*
X129943Y135103D01*
X130250Y135000D01*
X130557Y135103D01*
X130787Y135362D01*
X130940Y135672D01*
X131055Y136085D01*
X131093Y136550D01*
X131055Y137015D01*
X130940Y137428D01*
X130787Y137738D01*
X130557Y137997D01*
X130250Y138100D01*
G01X133350Y135000D02*
Y138100D01*
X132890Y137480D01*
G01Y135000D02*
X133810D01*
G01X136910D02*
Y138100D01*
X135492Y135878D01*
X137408D01*
G01X139550Y134897D02*
X139473Y134948D01*
Y135052D01*
X139550Y135103D01*
X139627Y135052D01*
Y134948D01*
X139550Y134897D01*
G01X142650Y138100D02*
X142343Y137997D01*
X142113Y137738D01*
X141960Y137428D01*
X141845Y137015D01*
X141807Y136550D01*
X141845Y136085D01*
X141960Y135672D01*
X142113Y135362D01*
X142343Y135103D01*
X142650Y135000D01*
X142957Y135103D01*
X143187Y135362D01*
X143340Y135672D01*
X143455Y136085D01*
X143493Y136550D01*
X143455Y137015D01*
X143340Y137428D01*
X143187Y137738D01*
X142957Y137997D01*
X142650Y138100D01*
G01X145750Y135000D02*
X146018Y135052D01*
X146325Y135207D01*
X146517Y135465D01*
X146593Y135827D01*
X146517Y136188D01*
X146287Y136498D01*
X145942Y136653D01*
X145558D01*
X145328Y136757D01*
X145137Y137015D01*
X145060Y137377D01*
X145175Y137738D01*
X145443Y137997D01*
X145750Y138100D01*
X146057Y137997D01*
X146325Y137738D01*
X146440Y137377D01*
X146363Y137015D01*
X146172Y136757D01*
X145942Y136653D01*
X145558D01*
X145213Y136498D01*
X144983Y136188D01*
X144907Y135827D01*
X144983Y135465D01*
X145175Y135207D01*
X145482Y135052D01*
X145750Y135000D01*
G54D17*
X50800Y800D03*
Y10800D03*
X55200Y179200D03*
X80800Y800D03*
Y10800D03*
X70800Y800D03*
Y10800D03*
X60800Y800D03*
Y10800D03*
X75200Y179200D03*
X65200D03*
X100800Y800D03*
Y10800D03*
X90800Y800D03*
Y10800D03*
X93200Y167200D03*
X120800Y800D03*
Y10800D03*
X110800Y800D03*
Y10800D03*
X113200Y167200D03*
X103200D03*
G54D26*
X103131Y96380D03*
X105100D03*
X107069D03*
Y106420D03*
X105100D03*
X103131D03*
G54D36*
G01X50800Y20800D02*
Y21300D01*
X55700Y26200D01*
X61200D01*
X71641Y36641D01*
X76322D01*
G01X74700Y64700D02*
Y50700D01*
X60641Y36641D01*
X54078D01*
G01X68700Y64700D02*
Y49000D01*
X61459Y41759D01*
X54078D01*
G01Y44318D02*
X58818D01*
X60400Y45900D01*
Y47382D01*
X61700Y48682D01*
Y62583D01*
X64317Y65200D01*
X65700D01*
G01X71700Y64700D02*
Y49962D01*
X60938Y39200D01*
X54078D01*
G01Y46877D02*
X58023D01*
G01X54200Y64200D02*
Y64700D01*
X58183Y68683D01*
X73604D01*
X75361Y70440D01*
Y71424D01*
G01X54200Y70200D02*
X48200D01*
G01X54200D02*
X57700D01*
X62861Y75361D01*
X71424D01*
G01X38200Y85900D02*
Y87200D01*
G01Y87700D02*
Y87200D01*
G01X63399Y82899D02*
X57098Y89200D01*
X54200D01*
G01Y83200D02*
X58200D01*
X63480Y77920D01*
X71424D01*
G01X70800Y20800D02*
Y21100D01*
X75800Y26100D01*
X79600D01*
X82800Y29300D01*
Y38800D01*
X79841Y41759D01*
X76322D01*
G01X60800Y20800D02*
Y21000D01*
X67900Y28100D01*
X79600D01*
X81400Y29900D01*
Y37700D01*
X79900Y39200D01*
X76322D01*
G01Y31523D02*
X69723D01*
G01X80800Y20800D02*
Y21300D01*
X84300Y24800D01*
Y40300D01*
X80282Y44318D01*
X76322D01*
G01X71424Y77920D02*
X72980D01*
X74000Y76900D01*
Y74963D01*
X74863Y74100D01*
X84500D01*
X85300Y73300D01*
X97100D01*
X102200Y68200D01*
X111700D01*
X114200Y65700D01*
G01X62200Y66700D02*
X62683Y67183D01*
X76217D01*
X79100Y64300D01*
X101100D01*
X102700Y62700D01*
X146200D01*
X152700Y69200D01*
X161100D01*
X161600Y69700D01*
G01X71424Y80479D02*
X65818D01*
X63399Y82899D01*
G01D02*
X75000Y94500D01*
X78500D01*
G01X75800Y86976D02*
X75361D01*
G01X99800Y28400D02*
X99400D01*
X91800Y20800D01*
X90800D01*
G01X88200Y35200D02*
Y29200D01*
G01X93300Y46300D02*
X93700Y45900D01*
Y44900D01*
X96841Y41759D01*
X108078D01*
G01X81800Y46300D02*
X81665Y46435D01*
Y60283D01*
X81700Y60317D01*
Y62200D01*
G01X91300Y43800D02*
X92300D01*
X96900Y39200D01*
X108078D01*
G01X84700Y62200D02*
Y43900D01*
X84800Y43800D01*
G01X87700Y62200D02*
Y41900D01*
X90300Y39300D01*
X94800D01*
X97459Y36641D01*
X108078D01*
G01X96300Y48300D02*
X96874Y47726D01*
Y47526D01*
X100082Y44318D01*
X108078D01*
G01X78700Y62200D02*
Y51900D01*
X79300Y51300D01*
G01X92800Y71200D02*
X88700D01*
X85700Y68200D01*
X83700D01*
X83039Y68861D01*
Y71424D01*
G01X98300Y68300D02*
X88996D01*
X87696Y67000D01*
X82431D01*
X80479Y68951D01*
Y71424D01*
G01X94300Y66300D02*
X93300D01*
X92800Y65800D01*
X79921D01*
X77920Y67800D01*
Y71424D01*
G01X118700Y65200D02*
X114200Y69700D01*
X102700D01*
X96700Y75700D01*
Y83700D01*
X88200Y92200D01*
X82800D01*
X80500Y94500D01*
X78500D01*
G01X103131Y96380D02*
Y88231D01*
X98000Y83100D01*
Y76400D01*
X103200Y71200D01*
X116200D01*
G01X93800Y83039D02*
X94039D01*
G01D02*
X94200Y83200D01*
G01X94039Y78039D02*
X94200Y78200D01*
G01X78500Y94500D02*
X81800Y97800D01*
G01X80300Y90800D02*
X80479Y90620D01*
Y86976D01*
G01X80700Y107700D02*
X77700D01*
X77200Y108200D01*
G01X116200Y37400D02*
Y26700D01*
X110800Y21300D01*
Y20800D01*
G01X100800D02*
X102300D01*
X113800Y32300D01*
Y34300D01*
G01X130322Y44318D02*
X124718D01*
X118700Y38300D01*
Y27046D01*
X120800Y24947D01*
Y20800D01*
G01X108078Y46877D02*
X101023D01*
G01X105100Y96380D02*
Y87700D01*
X99200Y81800D01*
Y76897D01*
X102897Y73200D01*
X116650D01*
X117650Y74200D01*
X120200D01*
G01X110120Y97463D02*
X118837D01*
X120600Y95700D01*
X121700D01*
X121800Y95600D01*
G01X102200Y78200D02*
Y82000D01*
X107069Y86869D01*
Y96380D01*
G01X110120Y101400D02*
X121700D01*
G01X125700Y104500D02*
Y100700D01*
X123300Y98300D01*
X120400D01*
X119269Y99431D01*
X110120D01*
G01X120800Y34300D02*
X125700Y39200D01*
X130322D01*
G01X122500Y28400D02*
Y32867D01*
X126274Y36641D01*
X130322D01*
G01X132700Y28200D02*
X130817D01*
X130322Y28695D01*
Y31523D01*
G01X121000Y37400D02*
X124759Y41159D01*
X125359Y41759D01*
X130322D01*
G01X125917Y69200D02*
X128483D01*
X131200Y66483D01*
G01X137200Y77200D02*
Y75200D01*
X135200Y73200D01*
G01X131200Y77200D02*
Y71917D01*
G01X120200Y74200D02*
Y80200D01*
G01X167800Y79700D02*
X167700Y79600D01*
X161497D01*
X157797Y83300D01*
X147800D01*
X141935Y89165D01*
X132200D01*
G01X169000Y83600D02*
X168400Y83000D01*
X159794D01*
X157994Y84800D01*
X148300D01*
X140969Y92131D01*
X132200D01*
G01X174500Y82900D02*
X171100Y86300D01*
X149300D01*
X140504Y95096D01*
X132200D01*
G01X170400Y76800D02*
X162600D01*
X157600Y81800D01*
X147300D01*
X142900Y86200D01*
X132200D01*
G01X137200Y77200D02*
Y82200D01*
G01X131200Y77200D02*
Y82200D01*
G01X125700Y104500D02*
X131700D01*
X131800Y104400D01*
G01X146200Y26200D02*
Y20200D01*
G01X141200Y37200D02*
Y32200D01*
G01X148188Y68688D02*
Y69688D01*
X149200Y70700D01*
G01X154200Y72200D02*
X150700D01*
X149200Y70700D01*
G01X168800Y42100D02*
X175502Y48802D01*
X178322D01*
G01Y43684D02*
Y40372D01*
X178200Y40250D01*
Y37200D01*
G01X176200Y117200D02*
X170200D01*
G01Y123200D02*
Y117200D01*
G01X176200D02*
Y114150D01*
X178150Y112200D01*
G01X164200Y117200D02*
Y111200D01*
G01X173400D02*
X173700D01*
G01X167200Y130200D02*
Y126624D01*
X168321Y125503D01*
X168397D01*
X170200Y123700D01*
Y123200D01*
G01X179200Y141172D02*
X172672D01*
X167700Y136200D01*
X167200D01*
G01X200Y-9800D02*
X177000D01*
G03X187000Y200I0J10000D01*
G01Y177000D01*
G03X177000Y187000I-10000J0D01*
G01X200D01*
G03X-9800Y177000I0J-10000D01*
G01Y200D01*
G03X200Y-9800I10000J0D01*
G54D18*
X50800Y20800D03*
X45200Y179200D03*
X80800Y20800D03*
X70800D03*
X60800D03*
X100800D03*
X90800D03*
X83200Y167200D03*
X120800Y20800D03*
X110800D03*
G54D27*
X137200Y-5166D03*
Y11566D03*
G54D37*
G01X51200Y79200D02*
X54200Y76200D01*
G01X48200Y83200D02*
Y76200D01*
G01Y89200D02*
Y83200D01*
G01X42800Y105800D02*
X47800D01*
G01X42800Y111800D02*
X47800D01*
G01X60200Y91200D02*
Y96200D01*
G01D02*
Y97200D01*
X63300Y100300D01*
G01X66200Y91200D02*
Y91100D01*
G01Y96200D02*
Y91200D01*
G01X71200Y108200D02*
Y113200D01*
G01D02*
Y117300D01*
G01Y98200D02*
Y103200D01*
G01X93300Y70800D02*
X92900Y71200D01*
X92800D01*
G01X93920Y77920D02*
X94039Y77802D01*
Y75361D01*
X86976D01*
G01Y83039D02*
X93800D01*
G01X86976Y77920D02*
X93920D01*
G01X94039Y78039D02*
X93920Y77920D01*
G01X94039Y80898D02*
X93620Y80479D01*
X86976D01*
G01X94039Y80898D02*
Y78039D01*
G01Y80898D02*
Y83039D01*
G01X81800Y97800D02*
X83431Y99431D01*
X100080D01*
G01X77200Y113200D02*
X80200D01*
X90031Y103369D01*
X96369D01*
X100080Y103369D01*
G01X77200Y108200D02*
Y103200D01*
G01X156076Y61598D02*
X155874Y61800D01*
X154800D01*
G01X148300Y92310D02*
X149876D01*
X157600Y100034D01*
Y100600D01*
X159200Y102200D01*
G01X153200D02*
Y106200D01*
X154800Y107800D01*
G01X164200Y123200D02*
X160000D01*
G01X165300Y27300D02*
Y18300D01*
G01X180800Y25300D02*
Y19800D01*
G01X170200Y111200D02*
X173400D01*
G01X179200Y125228D02*
X179228D01*
G01X182200Y117200D02*
Y117100D01*
G54D19*
X54078Y31523D03*
Y34082D03*
Y36641D03*
Y39200D03*
Y41759D03*
Y44318D03*
Y46877D03*
X76322Y34082D03*
Y31523D03*
Y46877D03*
Y44318D03*
Y41759D03*
Y39200D03*
Y36641D03*
X108078Y31523D03*
Y34082D03*
Y36641D03*
Y39200D03*
Y41759D03*
Y44318D03*
Y46877D03*
X130322Y34082D03*
Y31523D03*
Y46877D03*
Y44318D03*
Y41759D03*
Y39200D03*
Y36641D03*
X156078Y43684D03*
Y46243D03*
Y48802D03*
Y51361D03*
Y53921D03*
Y56479D03*
Y59039D03*
Y61598D03*
Y64157D03*
Y66716D03*
X178322Y56479D03*
Y53921D03*
Y51361D03*
Y48802D03*
Y46243D03*
Y43684D03*
Y66716D03*
Y64157D03*
Y61598D03*
Y59039D03*
G54D28*
X140200Y20200D03*
X123200Y170200D03*
Y176200D03*
X129200Y170200D03*
Y176200D03*
X135200Y170200D03*
Y176200D03*
X141200Y170200D03*
Y176200D03*
X146200Y20200D03*
X159300Y18300D03*
X165300D03*
X164200Y117200D03*
X170200D03*
G54D38*
G01X108078Y31523D02*
X101377D01*
G01X118200Y51200D02*
Y55400D01*
X117800Y55800D01*
G01X136700Y38600D02*
X137800Y39700D01*
G01X141200Y56200D02*
X139814D01*
X138214Y57800D01*
X136800D01*
X135800Y58800D01*
G01X133800Y50800D02*
X135800Y52800D01*
G01X124200Y51200D02*
Y55400D01*
X123800Y55800D01*
G01X137800Y39700D02*
Y44300D01*
X135223Y46877D01*
X130322D01*
G01X137800Y39700D02*
X139500Y41400D01*
X142500D01*
G01X130322Y46877D02*
X122523D01*
G01X155700Y37200D02*
X147200Y45700D01*
Y46200D01*
G01X166300Y58300D02*
Y58559D01*
X163261Y61598D01*
X156078D01*
G01D02*
X156076D01*
G01D02*
X150502D01*
G01X178322Y51361D02*
X172039D01*
X171200Y52200D01*
G01D02*
X166400D01*
G01X178322Y61598D02*
X174598D01*
X171200Y58200D01*
G01D02*
X166400D01*
X166300Y58300D01*
G54D29*
X131200Y66483D03*
Y71917D03*
G54D39*
G01X76322Y46877D02*
X73377D01*
X71200Y44700D01*
Y41700D01*
X58200Y28700D01*
X48700D01*
X42500Y22500D01*
Y14500D01*
X46200Y10800D01*
X50800D01*
G01X54078Y31523D02*
X57523D01*
X59700Y33700D01*
G01X38200Y75200D02*
Y81200D01*
G01Y75200D02*
Y69600D01*
G01Y81200D02*
Y85900D01*
G01Y99200D02*
Y93200D01*
G01D02*
Y87700D01*
G01Y117200D02*
Y111200D01*
G01D02*
Y105200D01*
G01D02*
Y99200D01*
G01Y117200D02*
Y122200D01*
G01X41700Y129700D02*
X47700D01*
G01X41700Y135700D02*
X47700D01*
G01X76700Y49200D02*
X77200Y48700D01*
Y47755D01*
X76322Y46877D01*
G01X71424Y83039D02*
Y86424D01*
X71976Y86976D01*
X75361D01*
G01X77920D02*
X75800D01*
G01X75361D02*
Y90861D01*
X76500Y92000D01*
G01X71424Y83039D02*
X67061D01*
G01X77200Y98200D02*
X80400Y101400D01*
X100080D01*
G01X83039Y86976D02*
X86024D01*
X86900Y86100D01*
Y83114D01*
X86976Y83039D01*
G01X83263Y95263D02*
X85463Y97463D01*
X100080D01*
G01X96200Y121200D02*
Y118300D01*
X103131Y111369D01*
Y106420D01*
G01X89200Y121200D02*
X89400Y121000D01*
Y107400D01*
X91463Y105337D01*
X100080D01*
G01X86700Y138200D02*
Y132700D01*
G01X96200Y121200D02*
Y127200D01*
G01X92700Y138200D02*
Y132700D01*
G01X110120Y105337D02*
X119237D01*
G01D02*
X121300Y107400D01*
G01X110120Y103369D02*
X117269D01*
X119237Y105337D01*
G01X107069Y106420D02*
Y116331D01*
X102200Y121200D01*
G01X112700Y126700D02*
Y132200D01*
G01X102200Y127200D02*
Y121200D01*
G01X118700Y126700D02*
Y132200D01*
G01X137200Y-5166D02*
X146566D01*
G01X137200D02*
X127334D01*
G01X137200D02*
Y-1300D01*
G01X156078Y46243D02*
X150093D01*
X150050Y46200D01*
X147200D01*
G01X156078Y56479D02*
X150330D01*
X150050Y56200D01*
X147200D01*
M02*
