G04 ================== begin FILE IDENTIFICATION RECORD ==================*
G04 Layout Name:  LAY-27943.brd*
G04 Film Name:    L1_PS.art*
G04 File Format:  Gerber RS274X*
G04 File Origin:  Cadence Allegro 16.6-S013*
G04 Origin Date:  Tue Sep 24 08:57:32 2013*
G04 *
G04 Layer:  PACKAGE GEOMETRY/SHORT_LAYER_TOP*
G04 Layer:  DRAWING FORMAT/FILM_TITLE_BLOCK*
G04 Layer:  VIA CLASS/TOP*
G04 Layer:  PIN/TOP*
G04 Layer:  ETCH/TOP*
G04 Layer:  BOARD GEOMETRY/OUTLINE*
G04 *
G04 Offset:    (0.00 0.00)*
G04 Mirror:    No*
G04 Mode:      Positive*
G04 Rotation:  0*
G04 FullContactRelief:  No*
G04 UndefLineWidth:     7.00*
G04 ================== end FILE IDENTIFICATION RECORD ====================*
%FSLAX55Y55*MOIN*%
%IR0*IPPOS*OFA0.00000B0.00000*MIA0B0*SFA1.00000B1.00000*%
%ADD62R,.04X.1*%
%ADD64R,.11X.029*%
%ADD49R,.125X.05*%
%ADD22C,.01*%
%ADD15C,.02*%
%ADD40R,.031X.008*%
%ADD33C,.04*%
%ADD59R,.115X.029*%
%ADD55C,.024*%
%ADD36R,.028X.126*%
%ADD21C,.06*%
%ADD12C,.025*%
%ADD32R,.138X.081*%
%ADD17R,.028X.155*%
%ADD38R,.008X.028*%
%AMMACRO47*
4,1,23,-.0055,-.008,
-.0055,.014,
.0055,.014,
.0055,-.008,
.0055,-.0085,
.005416,-.009455,
.005168,-.010381,
.004763,-.01125,
.004213,-.012035,
.003535,-.012713,
.00275,-.013263,
.001881,-.013668,
.000955,-.013916,
0.0,-.014,
-.000955,-.013916,
-.001881,-.013668,
-.00275,-.013263,
-.003535,-.012713,
-.004213,-.012035,
-.004763,-.01125,
-.005168,-.010381,
-.005416,-.009455,
-.0055,-.0085,
-.0055,-.008,
0.0*
%
%ADD47MACRO47*%
%AMMACRO45*
4,1,23,-.008,.0055,
.014,.0055,
.014,-.0055,
-.008,-.0055,
-.0085,-.0055,
-.009455,-.005416,
-.010381,-.005168,
-.01125,-.004763,
-.012035,-.004213,
-.012713,-.003535,
-.013263,-.00275,
-.013668,-.001881,
-.013916,-.000955,
-.014,0.0,
-.013916,.000955,
-.013668,.001881,
-.013263,.00275,
-.012713,.003535,
-.012035,.004213,
-.01125,.004763,
-.010381,.005168,
-.009455,.005416,
-.0085,.0055,
-.008,.0055,
0.0*
%
%ADD45MACRO45*%
%ADD41R,.028X.008*%
%ADD16R,.158X.081*%
%ADD19C,.065*%
%ADD53R,.032X.032*%
%ADD23R,.06X.06*%
%ADD60R,.098X.236*%
%ADD24R,.065X.065*%
%ADD50R,.066X.066*%
%ADD58R,.012X.032*%
%ADD57R,.032X.012*%
%ADD63R,.032X.024*%
%ADD43R,.011X.036*%
%ADD13R,.033X.031*%
%ADD56O,.035X.06*%
%ADD42R,.036X.011*%
%ADD35R,.09X.02*%
%ADD28O,.055X.042*%
%ADD20O,.045X.035*%
%ADD51R,.011X.048*%
%ADD48R,.048X.03*%
%ADD27R,.053X.016*%
%ADD18O,.035X.045*%
%ADD61R,.038X.041*%
%ADD14O,.042X.066*%
%ADD65R,.031X.039*%
%ADD39R,.05X.085*%
%ADD31R,.016X.083*%
%ADD25R,.059X.051*%
%ADD10R,.075X.071*%
%ADD29R,.051X.059*%
%ADD54R,.043X.079*%
%ADD52R,.055X.039*%
%ADD46R,.142X.142*%
%ADD11R,.075X.083*%
%AMMACRO44*
4,1,23,.0055,.008,
.0055,-.014,
-.0055,-.014,
-.0055,.008,
-.0055,.0085,
-.005416,.009455,
-.005168,.010381,
-.004763,.01125,
-.004213,.012035,
-.003535,.012713,
-.00275,.013263,
-.001881,.013668,
-.000955,.013916,
0.0,.014,
.000955,.013916,
.001881,.013668,
.00275,.013263,
.003535,.012713,
.004213,.012035,
.004763,.01125,
.005168,.010381,
.005416,.009455,
.0055,.0085,
.0055,.008,
0.0*
%
%ADD44MACRO44*%
%AMMACRO34*
4,1,23,.008,-.0055,
-.014,-.0055,
-.014,.0055,
.008,.0055,
.0085,.0055,
.009455,.005416,
.010381,.005168,
.01125,.004763,
.012035,.004213,
.012713,.003535,
.013263,.00275,
.013668,.001881,
.013916,.000955,
.014,0.0,
.013916,-.000955,
.013668,-.001881,
.013263,-.00275,
.012713,-.003535,
.012035,-.004213,
.01125,-.004763,
.010381,-.005168,
.009455,-.005416,
.0085,-.0055,
.008,-.0055,
0.0*
%
%ADD34MACRO34*%
%ADD37R,.157X.157*%
%ADD26R,.02756X.03543*%
%ADD30R,.03543X.02756*%
%ADD66C,.011*%
%ADD67C,.05*%
%ADD68C,.015*%
%ADD69C,.016*%
%ADD70C,.035*%
%ADD71C,.018*%
%ADD72C,.028*%
%ADD73C,.005*%
%ADD74C,.007*%
%ADD75C,.006*%
%ADD76C,.008*%
%ADD77C,.00525*%
%ADD78C,.0079*%
%ADD79C,.00575*%
%ADD82C,.03004*%
%ADD81C,.05004*%
%ADD83R,.12504X.03904*%
%ADD80R,.14804X.09102*%
%ADD84R,.04204X.03404*%
G75*
%LPD*%
G75*
G36*
G01X1311Y60588D02*
G03X2125Y60719I-1J2602D01*
G02X2650Y60339I125J-380D01*
G01Y49650D01*
X134Y47134D01*
G02X-548Y47417I-282J283D01*
G01Y51402D01*
X-7452D01*
Y44950D01*
X-10300D01*
X-14600Y49250D01*
Y52928D01*
X-6898D01*
Y57184D01*
X-3274D01*
Y64350D01*
X-2893D01*
G02X-2506Y63849I0J-400D01*
G03X11Y60588I2517J-659D01*
G01X1311D01*
G37*
G36*
G01X3250Y85300D02*
Y83287D01*
G02X2645Y82943I-400J0D01*
G03X1311Y83312I-1336J-2233D01*
G01X11D01*
G03X-2156Y79271I0J-2602D01*
G02X-2490Y78650I-333J-221D01*
G01X-3274D01*
Y86716D01*
X-6898D01*
Y90972D01*
X-14600D01*
Y92100D01*
X-3550D01*
X3250Y85300D01*
G37*
G36*
G01X-13150Y163100D02*
X-13757Y163707D01*
G02X-13474Y164390I283J283D01*
G01X1482D01*
Y173492D01*
X-14200D01*
Y176144D01*
X-10046D01*
Y200556D01*
X-14200D01*
Y203208D01*
X1482D01*
Y212310D01*
X-13124D01*
G02X-13407Y212993I0J400D01*
G01X-4500Y221900D01*
X2800D01*
X3400Y221300D01*
Y220476D01*
X-176D01*
Y213574D01*
X5926D01*
Y213700D01*
X7524D01*
Y213574D01*
X13626D01*
Y213700D01*
X16700D01*
X18250Y212150D01*
Y203250D01*
X16700Y201700D01*
X3850D01*
X1550Y199400D01*
Y178500D01*
X5200Y174850D01*
X16800D01*
X18550Y173100D01*
Y163800D01*
X17850Y163100D01*
X-13150D01*
G37*
G36*
G01X83850Y950D02*
X82350Y2450D01*
Y2868D01*
X82456Y2924D01*
G03Y5576I-706J1326D01*
G01X82350Y5632D01*
Y6148D01*
X83150D01*
G03Y12152I0J3002D01*
G01X82350D01*
Y27398D01*
X83075D01*
X86202Y30525D01*
Y36475D01*
X84434Y38243D01*
Y42550D01*
X87598D01*
Y36148D01*
X99250D01*
Y32152D01*
X87598D01*
Y26148D01*
X99250D01*
Y22152D01*
X87598D01*
Y16148D01*
X99250D01*
Y12152D01*
X87598D01*
Y6148D01*
X99250D01*
Y1950D01*
X98250Y950D01*
X83850D01*
G37*
G36*
G01X63030Y14500D02*
Y16402D01*
X61049D01*
X60650Y16800D01*
Y18177D01*
G03Y18323I-1500J73D01*
G01Y21250D01*
X63350Y23950D01*
X78750D01*
X80200Y22500D01*
Y22152D01*
X66598D01*
Y16148D01*
X79233D01*
G02X79516Y15466I0J-400D01*
G01X78550Y14500D01*
X63030D01*
G37*
G36*
G01X97950Y-18700D02*
X96900Y-17650D01*
Y-2900D01*
X98300Y-1500D01*
X106050D01*
X107050Y-500D01*
Y348D01*
X108772D01*
G03X112702Y1850I1678J1502D01*
G01Y2850D01*
G03X108772Y4352I-2252J0D01*
G01X107050D01*
Y7148D01*
X108572D01*
G03X112502Y8650I1678J1502D01*
G01Y9650D01*
G03X108572Y11152I-2252J0D01*
G01X107050D01*
Y17148D01*
X108572D01*
G03X112502Y18650I1678J1502D01*
G01Y19650D01*
G03X108572Y21152I-2252J0D01*
G01X107050D01*
Y27148D01*
X108572D01*
G03X112502Y28650I1678J1502D01*
G01Y29650D01*
G03X108572Y31152I-2252J0D01*
G01X107050D01*
Y37248D01*
X108672D01*
G03X112602Y38750I1678J1502D01*
G01Y39750D01*
G03X108672Y41252I-2252J0D01*
G01X107050D01*
Y44500D01*
X108300Y45750D01*
X113650D01*
X115550Y43850D01*
Y-17550D01*
X114400Y-18700D01*
X97950D01*
G37*
G36*
G01X139847Y71600D02*
X139902Y71488D01*
G03X140587Y70802I1348J662D01*
G02X140694Y70160I-176J-359D01*
G01X117372Y46838D01*
Y-28841D01*
G02X116700Y-29135I-400J0D01*
G01X116500Y-28950D01*
Y-18016D01*
X116552Y-17965D01*
Y44265D01*
X116500Y44316D01*
Y51250D01*
X127583Y62333D01*
X127687Y62312D01*
G03X132788Y67413I828J4273D01*
G01X132767Y67517D01*
X136850Y71600D01*
X139847D01*
G37*
G36*
G01X119689Y46164D02*
G03X122532Y47047I1361J635D01*
G01X122515Y47148D01*
X146967Y71600D01*
X147647D01*
X147702Y71488D01*
G03X148318Y70838I1349J661D01*
G02X148406Y70206I-195J-349D01*
G01X121352Y43152D01*
X119948D01*
Y36148D01*
X119950D01*
Y33152D01*
X119948D01*
Y26148D01*
X119950D01*
Y23152D01*
X119948D01*
Y16148D01*
X119950D01*
Y13152D01*
X119948D01*
Y6148D01*
X119950D01*
Y3152D01*
X119948D01*
Y-3852D01*
X119950D01*
Y-6848D01*
X119948D01*
Y-13852D01*
X119950D01*
Y-14100D01*
X120100D01*
X123350Y-17350D01*
Y-19900D01*
X119950Y-23300D01*
Y-28420D01*
X119660Y-28775D01*
G02X118950Y-28522I-310J253D01*
G01Y46184D01*
X119044Y46278D01*
G02X119689Y46164I283J-283D01*
G37*
G36*
G01X164000Y161650D02*
X161350Y164300D01*
Y183321D01*
X163220Y185192D01*
G02X163797Y185181I283J-283D01*
G03X166302Y186738I1103J1020D01*
G02X166606Y187275I373J143D01*
G03X167538Y187762I-308J1724D01*
G01X167625Y187848D01*
X168048D01*
Y187648D01*
X180552D01*
Y191552D01*
X168048D01*
Y191352D01*
X166175D01*
X165062Y190238D01*
G03X164737Y188210I1238J-1238D01*
G02X164489Y187645I-357J-180D01*
G03X163622Y186990I411J-1445D01*
G01X162785D01*
X162033Y186237D01*
G02X161350Y186520I-283J283D01*
G01Y189548D01*
G02X161981Y189875I400J0D01*
G03X164332Y191347I869J1225D01*
G01X164315Y191448D01*
X164590Y191723D01*
Y192986D01*
G03X165314Y193669I-791J1563D01*
G01X165372Y193768D01*
X168048Y193781D01*
Y192648D01*
X180552D01*
Y196552D01*
X168048D01*
Y195360D01*
X165364Y195347D01*
X165306Y195445D01*
G03X164713Y196045I-1506J-895D01*
G02X164641Y196311I104J171D01*
G03Y196789I-441J239D01*
G02X164713Y197055I176J95D01*
G03X164783Y197100I-912J1496D01*
G01X195429D01*
G02X195827Y196656I0J-400D01*
G03X195884Y196361I498J-57D01*
G02X195812Y196095I-176J-95D01*
G03X195161Y195390I912J-1496D01*
G01X194052D01*
Y196552D01*
X181548D01*
Y192648D01*
X194052D01*
Y193810D01*
X195161D01*
G03X196526Y192859I1564J790D01*
G02X196832Y192270I-45J-397D01*
G03X196649Y191603I1318J-720D01*
G02X196110Y191242I-400J14D01*
G03X195500Y191352I-611J-1642D01*
G01X194052D01*
Y191552D01*
X181548D01*
Y187648D01*
X194052D01*
Y187848D01*
X195500D01*
G03X197249Y189694I0J1752D01*
G02X197754Y190101I399J21D01*
G03X198940Y192828I397J1449D01*
G01Y193502D01*
X198392Y194049D01*
X198421Y194160D01*
G03X197638Y196095I-1696J440D01*
G02X197566Y196361I104J171D01*
G03X197623Y196656I-441J238D01*
G02X198021Y197100I398J44D01*
G01X199000D01*
X201450Y194650D01*
Y167400D01*
X198520Y164470D01*
X195498D01*
Y161650D01*
X166531D01*
G02X166272Y162355I0J400D01*
G03X164932Y162044I-972J1145D01*
G01X165083Y162006D01*
Y161650D01*
X164000D01*
G37*
G36*
G01X194052Y156352D02*
Y156552D01*
X182048D01*
X181634Y156966D01*
G02X181917Y157648I283J282D01*
G01X194052D01*
Y160648D01*
X196115D01*
X196533Y161066D01*
X199702D01*
Y164235D01*
X202416Y166950D01*
X220750D01*
X222450Y165250D01*
Y161900D01*
X221052Y160502D01*
X205975D01*
X205873Y160400D01*
X204000D01*
X199952Y156352D01*
X194052D01*
G37*
%LPC*%
G75*
G36*
G01X180552Y181552D02*
Y177648D01*
X168048D01*
Y178810D01*
X167135D01*
X165210Y180735D01*
Y181572D01*
G02X167019Y181747I789J1278D01*
G03X167008Y181170I272J-294D01*
G01X167366Y180813D01*
G03X168048Y181096I282J283D01*
G01Y181552D01*
X180552D01*
G37*
G36*
G01X194052Y173097D02*
Y172648D01*
X181548D01*
Y176552D01*
X194052D01*
Y176203D01*
G03X194682Y175876I400J0D01*
G02Y173424I868J-1226D01*
G03X194052Y173097I-230J-327D01*
G37*
G36*
G01X180552Y171552D02*
Y167648D01*
X168048D01*
Y168084D01*
G03X167407Y168403I-400J0D01*
G02Y170797I-907J1197D01*
G03X168048Y171116I241J319D01*
G01Y171552D01*
X180552D01*
G37*
G54D82*
X166100Y176550D03*
G54D81*
X109925Y-8575D03*
G54D83*
X187800Y164600D03*
Y169600D03*
X174300Y164600D03*
Y174600D03*
X187800Y179600D03*
Y184600D03*
X174300D03*
G54D80*
X9814Y168941D03*
Y207759D03*
G54D84*
X197600Y168282D03*
%LPD*%
G75*
G54D10*
X-11150Y76478D03*
Y67422D03*
G54D11*
Y57580D03*
Y86320D03*
G54D20*
X22450Y-5850D03*
Y-11850D03*
X10150Y-5850D03*
Y-11850D03*
X16150Y-5850D03*
Y-11850D03*
X6050Y39950D03*
Y45950D03*
X17750Y218450D03*
Y224450D03*
X28250Y-5850D03*
Y-11850D03*
X34050Y-5850D03*
Y-11850D03*
X27950Y132850D03*
Y126850D03*
X52600Y114350D03*
Y120350D03*
X46650Y162350D03*
Y168350D03*
X31150Y177050D03*
Y171050D03*
X36950Y177050D03*
Y171050D03*
X42650Y207450D03*
Y213450D03*
X81850Y195050D03*
Y201050D03*
X117800Y208350D03*
Y214350D03*
X147750Y219350D03*
Y225350D03*
X141850Y219350D03*
Y225350D03*
X128050Y219350D03*
Y225350D03*
X119650Y219350D03*
Y225350D03*
X163950Y58050D03*
Y52050D03*
X157650Y58050D03*
Y52050D03*
X162400Y153600D03*
Y159600D03*
X173850Y225350D03*
Y219350D03*
X179750Y219300D03*
Y225300D03*
X168050Y219350D03*
Y225350D03*
X162150Y219350D03*
Y225350D03*
X155550Y219350D03*
Y225350D03*
X197850Y219350D03*
Y225350D03*
X191850Y219350D03*
Y225350D03*
X185950Y219350D03*
Y225350D03*
X226650Y219200D03*
Y225200D03*
X253500Y169950D03*
Y175950D03*
X262150Y215800D03*
Y209800D03*
X256350Y215750D03*
Y209750D03*
X267950Y215850D03*
Y209850D03*
X273950Y215850D03*
Y209850D03*
X297650D03*
Y215850D03*
X285650Y209850D03*
X279850Y215850D03*
Y209850D03*
X303350Y215850D03*
Y209850D03*
X291750Y215850D03*
Y209850D03*
X285650Y215850D03*
G54D30*
X12509Y77050D03*
X7391D03*
G54D12*
G01X15799Y-38198D02*
Y-28150D01*
G01X11862Y-38198D02*
Y-28150D01*
G01X51Y-38198D02*
Y-28050D01*
G01X3950Y-25150D02*
Y-28660D01*
X3988Y-28698D01*
Y-38198D01*
G01X17750Y15650D02*
Y10250D01*
X15150Y7650D01*
Y2550D01*
G01X34222Y8050D02*
X23050D01*
X21250Y6250D01*
Y3700D01*
X21150Y3600D01*
Y2550D01*
G01X-4000Y40650D02*
X2000D01*
G01X21350Y65391D02*
X17209D01*
G01X6050Y45950D02*
X1950D01*
G01X7391Y77050D02*
Y84641D01*
X7400Y84650D01*
G01X3868Y77068D02*
X5518D01*
X5536Y77050D01*
X7391D01*
G01X27050Y105850D02*
X23350D01*
G01D02*
Y102450D01*
G01X12509Y77050D02*
X16750D01*
G01X21350Y81209D02*
Y85850D01*
G01X15100Y84650D02*
Y89300D01*
G01X13450Y140450D02*
Y131350D01*
G01X-3450Y106750D02*
X-3550Y109750D01*
G01X17450Y158250D02*
Y153050D01*
G01Y158250D02*
Y161250D01*
G01X-3650Y158350D02*
X-650D01*
G01X13450Y158250D02*
X10450D01*
G01X20450Y163650D02*
Y166800D01*
G01X9450Y140450D02*
X6050D01*
G01X21050Y207391D02*
Y200484D01*
X16150Y195584D01*
G01X25850Y175050D02*
X22650D01*
G01X25650Y181991D02*
X22050D01*
G01X21050Y207391D02*
X27241D01*
X27300Y207450D01*
G01X10575Y217025D02*
Y222025D01*
G01X21050Y212509D02*
X24859D01*
G01X51Y249452D02*
Y240349D01*
X1550Y238850D01*
G01X54678Y8050D02*
Y-1550D01*
X60178Y-7050D01*
X68150D01*
G01X52850Y24000D02*
Y20950D01*
G01X31125Y95550D02*
X25950D01*
G01X31125Y80550D02*
X26150D01*
G01X51375Y99550D02*
X47900D01*
G01X43150Y114700D02*
Y119950D01*
X41150Y121950D01*
Y124700D01*
G01X37350Y120850D02*
Y117150D01*
G01X52600Y114350D02*
X56350D01*
X57450Y115450D01*
G01X49475Y141075D02*
Y136598D01*
X51500Y134573D01*
G01X41150Y124700D02*
X37400D01*
X37350Y124750D01*
G01X48600Y143900D02*
Y143650D01*
X49475Y142775D01*
Y141075D01*
G01X46650Y162350D02*
X49850D01*
X50350Y162850D01*
X51650D01*
G01X46650Y162350D02*
X46600Y162400D01*
X44350D01*
X43800Y162950D01*
X41850D01*
G01X55000Y162750D02*
X51750D01*
X51650Y162850D01*
G01X24450Y163650D02*
Y166650D01*
G01X54750Y151650D02*
X55150D01*
X55850Y152350D01*
X58550D01*
G01X46650Y168350D02*
X46500Y168200D01*
X43100D01*
X41850Y166950D01*
G01X50650Y167850D02*
X50150Y168350D01*
X46650D01*
G01X47450Y201650D02*
Y175800D01*
G01X25750Y197809D02*
Y201800D01*
G01X41850Y175050D02*
Y178350D01*
G01X47450Y207450D02*
Y201650D01*
G01X42650Y207450D02*
X47450D01*
G01X42650Y213450D02*
X38500D01*
G01X47450Y211450D02*
Y214500D01*
G01X76750Y150D02*
Y-3050D01*
G01X114100Y48600D02*
X104250D01*
X103900Y48250D01*
X86600D01*
X82682Y44332D01*
Y37518D01*
X84450Y35750D01*
Y31250D01*
X82350Y29150D01*
X73350D01*
G01X100550Y66950D02*
X92700Y59100D01*
X86400D01*
X80550Y53250D01*
G01X73450Y124100D02*
Y113310D01*
X74900Y111860D01*
Y103600D01*
X76750Y101750D01*
G01X80550Y76950D02*
X90550D01*
G01X57450Y115450D02*
X60150D01*
X60800Y116100D01*
G01X62150Y147850D02*
X66400D01*
X73000Y154450D01*
Y174250D01*
X71850Y175400D01*
Y178150D01*
G01X67200Y157900D02*
X65309Y159791D01*
X61850D01*
G01X64550Y152350D02*
Y155150D01*
X61850Y157850D01*
Y159791D01*
G01Y176250D02*
Y167271D01*
G01D02*
X66729D01*
G01X65050Y197850D02*
Y197975D01*
X61275Y201750D01*
G01X68850Y197850D02*
X65050D01*
G01X69850Y191350D02*
X65750D01*
X65650Y191450D01*
G01X65850Y185750D02*
X66250Y185350D01*
X69950D01*
G01X81850Y195050D02*
X79250D01*
X76450Y197850D01*
G01D02*
Y202750D01*
G01X81850Y201050D02*
X85800D01*
G01X63043Y250902D02*
X63050Y250895D01*
Y241100D01*
G01X102413Y-38198D02*
Y-28213D01*
G01X87950Y-11050D02*
Y-14150D01*
G01X90823Y-5950D02*
X90050D01*
X89950Y-5850D01*
G01X90550Y76950D02*
X100550D01*
G01X109050Y166350D02*
X112050D01*
G01X89650Y170250D02*
Y165850D01*
G01X109050Y170150D02*
X112150D01*
G01X111300Y209150D02*
Y205150D01*
G01X230200Y-19150D02*
X225250D01*
X220050Y-24350D01*
X129400D01*
X125400Y-20350D01*
G01X122098Y-38198D02*
Y-28250D01*
G01X141783Y-38198D02*
Y-28300D01*
G01X146050Y52250D02*
X142900D01*
X142700Y52050D01*
G01X147800Y164600D02*
X155700D01*
G01X134300Y154600D02*
X134250Y154650D01*
X125800D01*
G01X134300Y164600D02*
X126250D01*
X126200Y164550D01*
G01X147800Y169600D02*
X155700D01*
G01X147800Y184600D02*
X153400D01*
X155350Y182650D01*
G01X126850Y184650D02*
X126900Y184600D01*
X134300D01*
G01Y169600D02*
X134200Y169700D01*
X126350D01*
G01X117800Y208350D02*
X117750Y208366D01*
Y204800D01*
G01X126035Y250902D02*
Y240650D01*
G01X170450Y33850D02*
Y30550D01*
G01X149550Y33850D02*
Y30550D01*
G01X173450Y26650D02*
X170300D01*
G01X171450Y57450D02*
Y43600D01*
X173300Y41750D01*
G01X162400Y159600D02*
X174300D01*
G01Y189600D02*
X166900D01*
X166300Y189000D01*
G01X177217Y250902D02*
Y240400D01*
G01X192965Y-38198D02*
Y-27800D01*
G01X183154Y44392D02*
X187250D01*
G01X187800Y154600D02*
X202550D01*
X206700Y158750D01*
X239750D01*
X253150Y145350D01*
X292850D01*
X292900Y145400D01*
X295650D01*
G01X187800Y189600D02*
X195500D01*
G01X196725Y201700D02*
Y198600D01*
G01X187800Y199600D02*
Y203350D01*
G01X196902Y250902D02*
Y241150D01*
G01X231400Y13650D02*
X231600Y13850D01*
X237175D01*
X237225Y13900D01*
G01X232150Y98450D02*
Y101150D01*
X233000Y102000D01*
G01X216550Y238700D02*
Y250865D01*
X216587Y250902D01*
G01X255957Y-38198D02*
Y-27607D01*
G01X264850Y155950D02*
X273050D01*
G01X264850Y160950D02*
X273150D01*
G01X264850Y150950D02*
X273050D01*
G01X253050Y160925D02*
X256875D01*
X256900Y160900D01*
G01X264850Y190950D02*
X256450D01*
G01X264850Y185950D02*
X256350D01*
G01X264850Y195950D02*
X256650D01*
G01X283350Y100450D02*
X291650D01*
X291700Y100500D01*
G01X283350Y90450D02*
X291900D01*
G01X283350Y120450D02*
X292100D01*
G01X283350Y110450D02*
X291800D01*
G01X290450Y199950D02*
X293850D01*
G01X303201Y250902D02*
Y240801D01*
X303200Y240800D01*
G01X318949Y-36748D02*
Y-28799D01*
X318100Y-27950D01*
G01X318050Y5950D02*
X321150D01*
G01X318050Y35950D02*
X321150D01*
G01X318050Y15950D02*
X318100Y16000D01*
X321150D01*
G01X318050Y25950D02*
X321150D01*
G01X326850Y62850D02*
Y77850D01*
G01D02*
Y84350D01*
G01Y133050D02*
Y148050D01*
G01X307550Y137050D02*
Y140750D01*
G01X326850Y148050D02*
Y154200D01*
G01X318949Y250902D02*
Y241000D01*
G01X307138Y250902D02*
Y240850D01*
X-7450Y106750D03*
X-7650Y158350D03*
X19350Y105850D03*
X-3450Y106750D03*
X23350Y105850D03*
X-3650Y158350D03*
X24450Y163650D03*
X20450D03*
X13450Y140450D03*
X9450D03*
X17450Y158250D03*
X13450D03*
X52850Y20950D03*
X51375Y95550D03*
Y99550D03*
X31050Y105850D03*
X27050D03*
X37350Y120850D03*
X33350D03*
Y124750D03*
X37350D03*
X49475Y141075D03*
X53475D03*
X51650Y162850D03*
Y158850D03*
X47650Y154950D03*
X51650D03*
X41850Y162950D03*
Y166950D03*
X25850Y171050D03*
Y175050D03*
X41850Y171050D03*
Y175050D03*
X47450Y207450D03*
Y211450D03*
X83950Y-11050D03*
X56850Y20950D03*
X57450Y115450D03*
Y119450D03*
X87950Y-11050D03*
X109050Y166350D03*
X105050D03*
Y170150D03*
X109050D03*
X146050Y57050D03*
Y52250D03*
X177450Y26650D03*
X173450D03*
X177450Y30550D03*
X173450D03*
X170450Y37850D03*
X149550D03*
Y33850D03*
X170450D03*
X150050Y57050D03*
Y52250D03*
X163800Y198550D03*
Y194550D03*
X196725Y198600D03*
Y194600D03*
X232150Y94450D03*
Y98450D03*
X253050Y160925D03*
Y164925D03*
X290450Y199950D03*
Y195950D03*
X318050Y5950D03*
X314050D03*
X318050Y35950D03*
X314050D03*
X318050Y25950D03*
X314050D03*
X318050Y15950D03*
X314050D03*
X320850Y85950D03*
X316850D03*
X307550Y137050D03*
Y133050D03*
G54D21*
X17750Y15650D03*
X17650Y29950D03*
X49475Y-7850D03*
X43850Y29950D03*
X56850Y30150D03*
X30850Y29950D03*
X55050Y53200D03*
X65050D03*
X80550Y76950D03*
X64850Y84375D03*
X84750Y147150D03*
X80350Y175650D03*
X61850Y176250D03*
X69400Y211950D03*
X79400D03*
X100550Y76950D03*
X90550D03*
Y66950D03*
Y53250D03*
X100550D03*
Y66950D03*
X90700Y94650D03*
X100700D03*
X90750Y108250D03*
X100750D03*
X90950Y121550D03*
X100950D03*
X98650Y147250D03*
X112375Y147350D03*
X133450Y-350D03*
Y9650D03*
Y-10350D03*
Y39650D03*
X143450Y19650D03*
X133450D03*
Y29650D03*
X177450Y6550D03*
X192000Y6700D03*
X207250Y94250D03*
X217575Y2800D03*
X216550Y37950D03*
X216500Y24200D03*
X217650Y51550D03*
X227650D03*
X220550Y94450D03*
X307300Y-4225D03*
X314450Y97375D03*
G54D31*
X20526Y112950D03*
X29974D03*
X25250D03*
G54D13*
X-7501Y101350D03*
X-7601Y153050D03*
X-1399Y101350D03*
X-1499Y153050D03*
X302199Y35950D03*
X302299Y25950D03*
Y15950D03*
X308301Y35950D03*
X308401Y25950D03*
Y15950D03*
G54D40*
X47678Y108850D03*
X69547Y134750D03*
G54D22*
G01X-33350Y-179250D02*
X366650D01*
G01X-33350Y-149250D02*
Y-129250D01*
X366650D01*
G01X16650Y-199250D02*
Y-179250D01*
G01X22700Y153005D02*
X17495D01*
X17450Y153050D01*
G01X25255Y159500D02*
X25205Y159550D01*
X22950D01*
G01X16150Y195584D02*
X15215Y194649D01*
X9715D01*
G01X48750Y105450D02*
X47909Y106291D01*
X46300D01*
G01X51500Y134573D02*
Y133807D01*
X51848Y133459D01*
Y131909D01*
G01X25250Y112950D02*
Y110150D01*
X27050Y108350D01*
Y105850D01*
G01X41772Y108850D02*
X38400D01*
G01X39045Y159500D02*
X40650D01*
X41850Y160700D01*
Y162950D01*
G01X24450Y163650D02*
X25250D01*
X27225Y161675D01*
Y159500D01*
G01X31250Y163100D02*
X31165Y163015D01*
Y159500D01*
G01X37075D02*
Y162650D01*
G01X62898Y104300D02*
X60500D01*
G01X60800Y116100D02*
X62898D01*
G01X115581Y191319D02*
X106570D01*
G01X116019Y187381D02*
X106570D01*
G01X96530Y185413D02*
X85589D01*
G01X96530Y193287D02*
X85589D01*
G01X103519Y194370D02*
Y205224D01*
G01X142150Y-199250D02*
Y-179250D01*
G01X141650Y-129250D02*
Y-99250D01*
G01X150050Y57050D02*
Y52250D01*
G01X149100Y49150D02*
X150050Y50100D01*
Y52250D01*
G01X155750Y70950D02*
X150050Y65250D01*
Y57050D01*
G01X176750Y73850D02*
Y68200D01*
X174350Y65800D01*
Y61838D01*
X171450Y58938D01*
Y57450D01*
G01X153073Y93603D02*
X155041Y95571D01*
G01X158978D02*
X158979D01*
X160950Y93600D01*
G01X155041Y91634D02*
X153073Y89666D01*
G01X160900Y89662D02*
X160950D01*
X158978Y91634D01*
G01X174300Y162448D02*
Y164600D01*
G01D02*
Y166752D01*
G01X167848Y164600D02*
X174300D01*
G01D02*
X180752D01*
G01X174300Y174600D02*
X167848D01*
G01X174300Y182448D02*
Y184600D01*
G01D02*
Y186752D01*
G01X167848Y184600D02*
X174300D01*
G01D02*
X180752D01*
G01X174300Y172448D02*
Y174600D01*
G01D02*
Y176752D01*
G01Y174600D02*
X180752D01*
G01X191650Y-199250D02*
Y-179250D01*
G01X197600Y166380D02*
Y168282D01*
G01X187800Y167448D02*
Y169600D01*
G01Y162448D02*
Y164600D01*
G01D02*
Y166752D01*
G01X181348Y164600D02*
X187800D01*
G01D02*
X194252D01*
G01X197600Y168282D02*
Y170184D01*
G01X195298Y168282D02*
X197600D01*
G01D02*
X199902D01*
G01X187800Y182448D02*
Y184600D01*
G01D02*
Y186752D01*
G01X181348Y184600D02*
X187800D01*
G01D02*
X194252D01*
G01X187800Y177448D02*
Y179600D01*
G01D02*
Y181752D01*
G01X181348Y179600D02*
X187800D01*
G01D02*
X194252D01*
G01X187800Y169600D02*
Y171752D01*
G01X181348Y169600D02*
X187800D01*
G01D02*
X194252D01*
G01X320850Y85950D02*
Y88950D01*
X0Y0D03*
X128515Y66585D03*
Y86585D03*
Y128495D03*
X141050Y148350D03*
Y205850D03*
X181050Y148350D03*
Y205850D03*
X190425Y66585D03*
Y128495D03*
Y118495D03*
X310750Y121050D03*
Y216250D03*
G54D14*
X-6550Y132550D03*
Y125150D03*
X13450Y132550D03*
X8450D03*
X3450D03*
X-1550D03*
X13450Y125150D03*
X8450D03*
X3450D03*
X-1550D03*
G54D50*
X80550Y66950D03*
G54D23*
X17650Y39950D03*
X43850D03*
X56850Y40150D03*
X30850Y39950D03*
X45050Y53200D03*
X80550Y53250D03*
X64850Y94375D03*
X80700Y94650D03*
X80750Y108250D03*
X80950Y121550D03*
X84750Y157150D03*
X59400Y211950D03*
X98650Y157250D03*
X112375Y157350D03*
X123450Y-350D03*
Y9650D03*
Y-10350D03*
Y19650D03*
Y29650D03*
Y39650D03*
X177450Y16550D03*
X192000Y16700D03*
X206550Y37950D03*
X206500Y24200D03*
X207650Y51550D03*
X207250Y104250D03*
X220550Y104450D03*
G54D41*
X41772Y108850D03*
X75453Y134750D03*
G54D32*
X9814Y168941D03*
Y207759D03*
G54D51*
X64866Y104300D03*
X66834D03*
X68802D03*
X62898D03*
X64866Y116100D03*
X66834D03*
X68802D03*
X62898D03*
G54D42*
X51848Y129941D03*
Y131909D03*
X64052Y129941D03*
Y131909D03*
G54D24*
X-1350Y30050D03*
G54D60*
X160450Y15150D03*
G54D33*
G01X94350Y9150D02*
X104250D01*
G01D02*
Y2550D01*
X104450Y2350D01*
G01X94350Y5948D02*
Y9150D01*
G01D02*
Y12352D01*
G01Y19150D02*
X104250D01*
G01X94350Y29150D02*
X104250D01*
G01X94350Y39150D02*
X104250D01*
X104350Y39250D01*
G01X94350Y25948D02*
Y29150D01*
G01D02*
Y32352D01*
G01Y35948D02*
Y39150D01*
G01X87398D02*
X94350D01*
G01Y15948D02*
Y19150D01*
G01D02*
Y22352D01*
G01X87398Y19150D02*
X94350D01*
X17450Y153050D03*
X47450Y201650D03*
X61275Y201750D03*
X109925Y-8575D03*
X144400Y45150D03*
X237225Y13900D03*
G54D15*
G01X366650Y-99250D02*
Y-199250D01*
X-33350D01*
G01D02*
Y-99250D01*
X366650D01*
G01X-3886Y-38198D02*
X-3750Y-38062D01*
Y-26600D01*
X-1400Y-24250D01*
Y-23050D01*
G01X16850Y182051D02*
X9715D01*
G01X-450Y233100D02*
Y235800D01*
X-3886Y239236D01*
Y250902D01*
G01X39350Y130350D02*
X42800D01*
G01X76750Y-11050D02*
X83950D01*
G01Y-5850D02*
Y-11050D01*
G01X81850Y195050D02*
X83826D01*
X85589Y193287D01*
G01X103519Y205224D02*
X105300Y207005D01*
Y209150D01*
G01X136550Y95550D02*
X136571Y95571D01*
X139293D01*
G01X147167Y91634D02*
X145216Y89684D01*
G01X147800Y154600D02*
X147850Y154550D01*
X155350D01*
G01X137500Y212500D02*
X137400Y212400D01*
X134050D01*
G01X173300Y41750D02*
X173450Y41600D01*
Y30550D01*
G01D02*
Y26650D01*
G01X174726Y75886D02*
Y75874D01*
X176750Y73850D01*
G01X162915Y91634D02*
X164883Y89666D01*
G01X166852Y91634D02*
X168820Y89666D01*
G01X166852Y95571D02*
X168820Y93603D01*
G01X158978Y99509D02*
X157010Y101477D01*
G01X162915Y95571D02*
X164850Y93636D01*
Y93600D01*
G01X162915Y99509D02*
X164883Y101477D01*
G01X155041Y99509D02*
X153073Y101477D01*
G01X155041Y103446D02*
X153073Y105414D01*
G01X158978Y103446D02*
X157010Y105414D01*
G01X162915Y103446D02*
X164883Y105414D01*
G01X166852Y103446D02*
X168820Y105414D01*
G01X166852Y99509D02*
X168820Y101477D01*
G01X162400Y153600D02*
X166450D01*
G01X163800Y198550D02*
Y201450D01*
X163750Y201500D01*
G01X319250Y-24550D02*
X322150Y-27450D01*
Y-29400D01*
X322886Y-30136D01*
Y-38198D01*
G01Y250902D02*
X322600Y250616D01*
Y239700D01*
X320450Y237550D01*
X-7050Y161550D03*
X-1400Y-23050D03*
X3950Y-25150D03*
X12750Y-23950D03*
X11862Y-28150D03*
X15799D03*
X51Y-28050D03*
X12950Y-2150D03*
X17750Y-1700D03*
X23862Y-1900D03*
X2000Y40650D03*
X11600Y55500D03*
X16500Y47800D03*
X4100Y66832D03*
X17209Y65391D03*
X1950Y45950D03*
X-1399Y97600D03*
X15100Y89300D03*
X16750Y77050D03*
X21350Y85850D03*
X9050Y89400D03*
X23350Y102450D03*
X18650Y121300D03*
X20200Y126250D03*
X16850Y113050D03*
X20400Y135500D03*
X-3550Y109750D03*
X20450Y166800D03*
X17450Y161250D03*
X-650Y158350D03*
X2950Y153050D03*
X3500Y143600D03*
X6050Y140450D03*
X10450Y158250D03*
X22950Y159550D03*
X22650Y140350D03*
X22050Y181991D03*
X20950Y196250D03*
X16850Y182051D03*
X22650Y175050D03*
X23700Y221500D03*
X10575Y222025D03*
X8250Y230550D03*
X14650Y222050D03*
X3150Y224300D03*
X9750Y224650D03*
X5100Y228088D03*
X14950Y215400D03*
X14100Y240000D03*
X21600Y232500D03*
X21650Y239800D03*
X17700Y232450D03*
X11900Y236200D03*
X-450Y233100D03*
X1550Y238850D03*
X32450Y-2050D03*
X54700Y-17150D03*
X37200Y-2100D03*
X46950Y19250D03*
X52850Y24000D03*
X28250Y66750D03*
X45000Y69150D03*
X47900Y99550D03*
X25950Y95550D03*
X54700Y99550D03*
X44725Y103125D03*
X32750Y88400D03*
X26150Y80550D03*
X48750Y105450D03*
X51375Y92525D03*
X53550Y104150D03*
X47850Y131150D03*
X49200Y122950D03*
X49000Y117650D03*
X38400Y108850D03*
X49700Y127300D03*
X50950Y107750D03*
X34450Y109050D03*
X36950Y136400D03*
X43250Y126900D03*
X40150Y119000D03*
X33350Y117200D03*
X37350Y117150D03*
X42800Y130350D03*
X31165Y137450D03*
X41150Y124700D03*
X39750Y136550D03*
X45450Y141700D03*
X48600Y143900D03*
X34450Y155900D03*
X45850Y145500D03*
X29850Y150250D03*
X29900Y155900D03*
X34250Y144200D03*
X29900D03*
X24450Y166650D03*
X27750Y167850D03*
X45765Y151035D03*
X54750Y154950D03*
Y151650D03*
X31250Y163100D03*
X37075Y162650D03*
X50650Y167850D03*
X55000Y162750D03*
X54150Y191300D03*
X32349Y182300D03*
X35700D03*
X36750Y188225D03*
Y191576D03*
X41850Y178350D03*
X47450Y175800D03*
X52850Y185400D03*
X35100Y212950D03*
X51450Y228150D03*
X24859Y212509D03*
X25750Y201800D03*
X38500Y213450D03*
X47450Y214500D03*
X39450Y238000D03*
X45450Y239900D03*
X36850Y239850D03*
X25900Y232500D03*
X28850Y232600D03*
X33700Y239950D03*
X50750Y231350D03*
X41550Y239900D03*
X31550Y232600D03*
X81750Y4250D03*
X76750Y150D03*
X83150Y9150D03*
X55688Y17750D03*
X64850Y16850D03*
X64600Y21100D03*
X59150Y18250D03*
X81400Y33000D03*
X61750Y20250D03*
X62950Y30650D03*
X63350Y34100D03*
X75600Y73050D03*
X65550Y68750D03*
X56300Y104100D03*
X76750Y101750D03*
X60500Y104300D03*
X57800Y92500D03*
X74650Y82050D03*
X82700Y102650D03*
X69200Y128350D03*
X68802Y120748D03*
X78600Y129600D03*
X71500Y126800D03*
X65865Y122650D03*
X59900Y122307D03*
X60800Y119450D03*
X78250Y132300D03*
X63400Y110800D03*
X61450Y108500D03*
X76500Y117650D03*
X84750Y115850D03*
X73450Y124100D03*
X72300Y144500D03*
X72600Y141500D03*
X59910Y140000D03*
X78550Y138900D03*
X65350Y141850D03*
X59750Y142750D03*
X67200Y157900D03*
X66729Y167271D03*
X62150Y147850D03*
X64400Y144500D03*
X57550Y158850D03*
X76200Y165750D03*
X56200Y144650D03*
X85800Y197600D03*
X68700Y177800D03*
X66750Y179900D03*
X65050Y197850D03*
X71850Y178150D03*
X67850Y171750D03*
X65850Y185750D03*
X65650Y191450D03*
X85900Y203900D03*
X65950Y227450D03*
X85800Y201050D03*
X59150Y223450D03*
X76450Y202750D03*
X85800Y239500D03*
X57200Y238550D03*
X69150Y236350D03*
X61200Y238500D03*
X80000Y239150D03*
X82750Y239100D03*
X76900Y239550D03*
X69150Y239350D03*
X63050Y241100D03*
X102413Y-28213D03*
X113850Y-21250D03*
X104050D03*
X97250Y-21150D03*
X98200Y-12550D03*
X98300Y-8050D03*
X110750Y-17600D03*
X103900Y-17300D03*
X98650Y-16650D03*
X114250Y-14750D03*
X108500Y-2650D03*
X87950Y-14150D03*
X94050Y-5950D03*
X105400Y-8500D03*
X113850Y-8600D03*
X94050Y-17350D03*
X86250Y3400D03*
X113650Y-2550D03*
X86400Y13900D03*
X108150Y43950D03*
X86350Y19250D03*
X108400Y14000D03*
X114150Y23950D03*
X86350Y23750D03*
X113550Y13850D03*
X98050Y44350D03*
X113950Y34650D03*
X86400Y28250D03*
X86350Y39200D03*
X108200Y34250D03*
X113750Y44050D03*
X108300Y24050D03*
X94950Y72200D03*
X106150Y74650D03*
X114750Y66350D03*
X114100Y48600D03*
X117000Y57350D03*
X91600Y100750D03*
X104300Y103800D03*
X106400Y78500D03*
X117250Y101477D03*
X104500Y84800D03*
Y89900D03*
X88400Y137400D03*
Y131400D03*
X95050Y119150D03*
X86800Y112250D03*
X106300Y112400D03*
X101645Y126199D03*
X108700Y116650D03*
X94850Y125550D03*
X105775Y116925D03*
X91900Y126600D03*
X93300Y115950D03*
X108400Y107750D03*
X87700Y142300D03*
X111300Y140250D03*
X90200Y141150D03*
X113850Y152500D03*
X108600Y142800D03*
X89650Y165850D03*
X112050Y166350D03*
X112150Y170150D03*
X113750Y215000D03*
X109450Y215050D03*
X111300Y205150D03*
X96450Y240950D03*
X92650Y239100D03*
X94250Y233550D03*
X88800Y239200D03*
X102706Y234050D03*
X86500Y232400D03*
X99250Y238150D03*
X106057Y234050D03*
X125400Y-20350D03*
X122098Y-28250D03*
X141783Y-28300D03*
X120800Y-17350D03*
X141700Y4800D03*
X142650Y13000D03*
X144100Y8800D03*
X147000Y10750D03*
X141050Y38650D03*
X141150Y28250D03*
X139500Y16250D03*
X136050Y67250D03*
X137850Y45700D03*
X143230Y75886D03*
X139293D03*
X147167D03*
X129850Y53050D03*
X126100Y57450D03*
X128950Y48450D03*
X142800Y55050D03*
X142700Y52050D03*
X141250Y72150D03*
X134850Y74100D03*
X121050Y46800D03*
X141250Y97550D03*
X137250Y105350D03*
X145216Y89684D03*
X143230Y79823D03*
Y87697D03*
X139293Y79823D03*
Y87697D03*
X147167D03*
X143230Y83760D03*
X139293D03*
X147167D03*
Y79823D03*
X139293Y99509D03*
X147167Y95571D03*
Y103446D03*
X143230D03*
X139293D03*
X147167Y99509D03*
X143230D03*
Y91634D03*
X139293D03*
Y95571D03*
X143230D03*
X147167Y91634D03*
X136550Y95550D03*
X117900Y80450D03*
X117300Y94200D03*
X132750Y99600D03*
X128850Y98550D03*
X134350Y81700D03*
X145199Y93603D03*
Y85729D03*
X135750Y88600D03*
X141262Y85729D03*
X145199Y81792D03*
X137325D03*
X141262D03*
X137325Y77855D03*
X145199D03*
X141262Y105414D03*
X145199D03*
X141262Y101477D03*
X145199D03*
X147167Y115257D03*
X143230D03*
X139293D03*
X147167Y111320D03*
X143230D03*
X139293D03*
X147167Y119194D03*
X143230D03*
X139293D03*
X147167Y107383D03*
X143230D03*
X139293D03*
X137200Y121400D03*
X128400Y106650D03*
X141200Y121200D03*
X126000Y119200D03*
X133200Y107350D03*
X141262Y109351D03*
X145199D03*
Y113288D03*
Y117225D03*
X123800Y165900D03*
X139950Y143450D03*
X125950Y151350D03*
X118350Y155550D03*
X129900Y141500D03*
X119000Y150400D03*
X136300Y137650D03*
X126200Y164550D03*
X125800Y154650D03*
X118050Y171950D03*
X126750Y181550D03*
X124150Y173750D03*
X126750Y189600D03*
Y194600D03*
X126350Y169700D03*
X126850Y184650D03*
X125250Y215000D03*
X123400Y230150D03*
X134500Y206100D03*
X140950Y212650D03*
X136700Y215700D03*
X122150Y213300D03*
X145200Y212750D03*
X117300Y201700D03*
X130200Y215700D03*
X117750Y204800D03*
X137500Y212500D03*
X127100Y203950D03*
X144850Y215450D03*
X148250Y207700D03*
X140150Y236650D03*
X143800Y238850D03*
X136050Y240300D03*
X126035Y240650D03*
X166200Y-900D03*
X156250Y-200D03*
X159000Y-1600D03*
X163000Y-1650D03*
X152450Y7250D03*
X170500Y4200D03*
X149500Y8450D03*
X162150Y-5350D03*
X170300Y26650D03*
X160450Y39750D03*
X153500Y27150D03*
X150000Y42600D03*
X170450Y30550D03*
X149550D03*
X168480Y51867D03*
X152850Y54600D03*
X152950Y59000D03*
X160200Y63900D03*
X158978Y75886D03*
X155041D03*
X170789D03*
X178663D03*
X166852D03*
X151104D03*
X174726D03*
X162915D03*
X152050Y62250D03*
X160100Y68250D03*
X176750Y73850D03*
X149100Y49150D03*
X165850Y66450D03*
X149050Y72150D03*
X170650Y70300D03*
X174750Y70200D03*
X168800Y73900D03*
X160900Y89662D03*
X168820Y93603D03*
Y101477D03*
Y89666D03*
X153073Y93603D03*
X164883Y89666D03*
Y105414D03*
X157010D03*
X153073D03*
X164883Y101477D03*
X153073D03*
X168820Y105414D03*
X151104Y79823D03*
X155041Y87697D03*
X158978D03*
X170789Y79823D03*
Y83760D03*
Y87697D03*
X174726Y79823D03*
X178663D03*
X174726Y83760D03*
X178663D03*
X158978D03*
X178663Y87697D03*
X174726D03*
X178663Y91634D03*
X162915Y83760D03*
Y79823D03*
Y87697D03*
X166852D03*
Y83760D03*
Y79823D03*
X174726Y91634D03*
X170789D03*
X178663Y103446D03*
X174726D03*
X170789D03*
X178663Y95571D03*
X174726D03*
X170789D03*
X178663Y99509D03*
X174726D03*
X170789D03*
X151104Y95571D03*
X155041Y83760D03*
X151104D03*
Y87697D03*
Y91634D03*
Y103446D03*
Y99509D03*
X155041Y79823D03*
X158978D03*
X155041Y103446D03*
X158978D03*
X162915D03*
X166852D03*
X155041Y99509D03*
X166852D03*
X155041Y91634D03*
Y95571D03*
X158978D03*
Y99509D03*
X162915D03*
Y95571D03*
X166852D03*
X162915Y91634D03*
X166852D03*
X158978D03*
X157010Y101477D03*
X164850Y93600D03*
X168850Y85650D03*
X149136Y81792D03*
X160950Y77850D03*
X176650Y93550D03*
X153073Y81792D03*
Y85729D03*
X172850Y81800D03*
X160950Y93600D03*
X149136Y93603D03*
X153073Y89666D03*
X149136D03*
Y85729D03*
Y105414D03*
Y101477D03*
X160900Y85700D03*
X164900Y85750D03*
X176694Y77855D03*
X168800Y81750D03*
X172757Y77855D03*
X164900Y81800D03*
X172757Y105414D03*
X176694D03*
X176750Y97550D03*
X176694Y81792D03*
X172757Y101477D03*
X176694Y85729D03*
X157010Y81792D03*
Y85729D03*
X176694Y89666D03*
X172800Y97550D03*
X174726Y119194D03*
Y115257D03*
Y111320D03*
X178663Y107383D03*
X174726D03*
X170789D03*
X178663Y111320D03*
Y115257D03*
X162915Y111320D03*
Y115257D03*
Y119194D03*
X158978Y107383D03*
Y111320D03*
Y115257D03*
Y119194D03*
X155041Y107383D03*
Y111320D03*
Y115257D03*
X178663Y119194D03*
X170789D03*
X166852Y107383D03*
Y111320D03*
Y115257D03*
Y119194D03*
X162915Y107383D03*
X155041Y119194D03*
X151104Y107383D03*
Y111320D03*
Y115257D03*
Y119194D03*
X170789Y111320D03*
Y115257D03*
X168250Y134150D03*
X160950Y113350D03*
X172200Y136550D03*
X160900Y121100D03*
X172757Y117225D03*
X168950Y125550D03*
X172757Y109351D03*
X162800Y132100D03*
X164883Y113288D03*
Y109351D03*
X168820Y113288D03*
Y109351D03*
Y117225D03*
X157010Y113288D03*
Y109351D03*
X153073Y117225D03*
Y113288D03*
Y109351D03*
X149100Y121500D03*
X149136Y113288D03*
Y109351D03*
X176694D03*
X172757Y113288D03*
X175500Y150950D03*
X165300Y163500D03*
X161500Y145850D03*
X170850Y144000D03*
X166450Y153600D03*
X166650Y156700D03*
X155700Y164600D03*
X155350Y154550D03*
X156950Y141600D03*
X166500Y173600D03*
X166100Y176550D03*
X157550Y173500D03*
X159100Y186250D03*
X159900Y195350D03*
X164900Y186200D03*
X155762Y196350D03*
X166000Y182850D03*
X166500Y169600D03*
X155350Y182650D03*
X155700Y169600D03*
X162850Y191100D03*
X166300Y189000D03*
X163750Y201500D03*
X166800Y201150D03*
X160400Y215050D03*
X154250Y214950D03*
X163450Y214700D03*
X157600Y214850D03*
X170900Y215900D03*
X175150Y229900D03*
X166450Y215750D03*
X158950Y201400D03*
X159500Y240500D03*
X148350Y238300D03*
X155500Y240650D03*
X149650Y240750D03*
X177217Y240400D03*
X157450Y233600D03*
X159400Y236200D03*
X151450Y238300D03*
X192965Y-27800D03*
X209400Y-5700D03*
X204500Y-6350D03*
X187250Y44392D03*
X199850Y44300D03*
X182600Y75886D03*
X192900Y51050D03*
X196650Y102050D03*
X186650Y76400D03*
X184625Y105475D03*
X182600Y83760D03*
Y87697D03*
Y91634D03*
Y103446D03*
Y95571D03*
Y99509D03*
Y79823D03*
X198950Y95800D03*
X194300Y81800D03*
X191650Y103450D03*
X180631Y105414D03*
X187050Y79800D03*
X194450Y95550D03*
X192450Y79750D03*
X184850Y101450D03*
X189450Y101300D03*
X186050Y89750D03*
X200050Y81792D03*
X192650Y85729D03*
X192600Y89650D03*
X186550Y85800D03*
X193350Y121450D03*
X182600Y107383D03*
Y111320D03*
Y115257D03*
Y119194D03*
X183400Y129400D03*
Y133550D03*
X206200Y117400D03*
X183100Y126600D03*
X184588Y113288D03*
X181250Y123800D03*
X187300Y121250D03*
X180631Y117225D03*
X205350Y144300D03*
X207800Y155150D03*
X185900Y151150D03*
X195350Y159600D03*
X183700Y138900D03*
X208650Y147550D03*
X199300Y175500D03*
X195500Y171200D03*
Y189600D03*
X198150Y191550D03*
X195550Y174650D03*
X196725Y201700D03*
X194400Y204250D03*
X207500Y203850D03*
X194100Y216050D03*
X182400Y215500D03*
X194150Y212300D03*
X188300Y212400D03*
X187800Y203350D03*
X206815Y229250D03*
X194775Y239000D03*
X187125Y236875D03*
X192088Y230850D03*
X191050Y238100D03*
X202550Y236450D03*
X196902Y241150D03*
X202650Y233350D03*
X196850Y234550D03*
X209150Y235500D03*
X183250Y237950D03*
X230200Y-19150D03*
X223550Y3300D03*
Y350D03*
X231400Y9950D03*
X223550Y6150D03*
X231500Y21950D03*
X231400Y13650D03*
X231450Y17850D03*
X213500Y58250D03*
X219800Y56950D03*
X210750Y58050D03*
X235250Y104600D03*
X214650Y96100D03*
X238000Y102000D03*
X233000D03*
X227500Y117500D03*
Y125350D03*
Y129000D03*
Y136500D03*
Y133000D03*
X220800Y133800D03*
X237500Y106950D03*
X213988Y111000D03*
X217400Y121500D03*
X224550Y111550D03*
X236950Y117400D03*
X236850Y111650D03*
X220200Y165000D03*
X225000Y147400D03*
X221400Y144850D03*
X220400Y151500D03*
X220350Y162100D03*
X220950Y141650D03*
X230950Y176100D03*
Y191350D03*
X214800Y196075D03*
X222350Y190850D03*
X220000Y171200D03*
X229200Y229300D03*
X222500Y223000D03*
X222900Y228000D03*
X230950Y200950D03*
X229850Y216150D03*
X238900Y213050D03*
X222750Y201000D03*
X226700Y212400D03*
X230350Y223000D03*
X239535Y226950D03*
X220500Y224950D03*
X222750Y207150D03*
X222450Y216950D03*
X226500Y229300D03*
X218650Y230550D03*
X222350Y232525D03*
X218700Y235600D03*
X222350Y237700D03*
X238100Y240650D03*
X230400Y240600D03*
X226450Y232100D03*
X234450Y236600D03*
X216550Y238700D03*
X215950Y233850D03*
X212100Y232850D03*
X234650Y232050D03*
X237450Y234550D03*
X255957Y-27607D03*
X251700Y100450D03*
X253250Y107200D03*
X256900Y160900D03*
X256200Y164900D03*
X256950Y167700D03*
X256800Y180900D03*
X256450Y190950D03*
X256650Y195950D03*
X256350Y185950D03*
Y201500D03*
X269900Y226400D03*
X262150Y206150D03*
X242150Y219900D03*
X262100Y220600D03*
X265450Y220800D03*
X242200Y217100D03*
X244150Y227750D03*
X246950Y225550D03*
X243750Y224600D03*
X257750Y228650D03*
X249200Y221800D03*
X263550Y229450D03*
X251150Y218050D03*
X265900Y238400D03*
X249250Y235350D03*
X275450Y47250D03*
X299300Y91200D03*
X291300Y95350D03*
X291900Y90450D03*
X291700Y100500D03*
X295850Y91750D03*
X288150Y130250D03*
X291425Y127225D03*
X273350Y121700D03*
X279850Y134650D03*
X292100Y120450D03*
X291800Y110450D03*
X288350Y139050D03*
X295650Y145400D03*
X300950Y158050D03*
X289600Y160950D03*
X273150D03*
X273050Y150950D03*
X290550Y155950D03*
X288350Y151000D03*
X273050Y155950D03*
X290150Y165950D03*
X273650Y186000D03*
X287925Y178475D03*
X285500Y199550D03*
X273500Y190850D03*
X290450Y180950D03*
Y175950D03*
Y190950D03*
X276750Y206250D03*
X303350Y205850D03*
X284150Y204150D03*
X279850Y205600D03*
X291750Y205350D03*
X293850Y199950D03*
X297700Y205750D03*
X277250Y227200D03*
X282800Y218900D03*
X274600Y220000D03*
X296400Y229400D03*
X303350Y229600D03*
X286450Y233050D03*
X303200Y240800D03*
X318100Y-27950D03*
X319250Y-24550D03*
X321150Y5950D03*
Y16000D03*
Y35950D03*
Y25950D03*
X316800Y89000D03*
X320850Y88950D03*
X326850Y84350D03*
X306350Y107700D03*
X304146Y115300D03*
X316750Y167750D03*
X326850Y154200D03*
X307550Y140750D03*
X311450Y205350D03*
X320450Y237550D03*
X311075Y238500D03*
X318949Y241000D03*
X307138Y240850D03*
X315012Y240900D03*
G54D70*
G01X42650Y207450D02*
X35000D01*
G01X94050Y-5950D02*
X90823D01*
G01X262150Y209800D02*
Y206150D01*
G54D34*
X22700Y154975D03*
Y151035D03*
Y149065D03*
Y147095D03*
Y145125D03*
Y143155D03*
Y153005D03*
Y156945D03*
G54D52*
X57950Y130925D03*
G54D25*
X-4000Y40650D03*
Y48350D03*
G54D61*
X177446Y44392D03*
Y37108D03*
X183154Y44392D03*
Y37108D03*
G54D43*
X54013Y125807D03*
Y136043D03*
X55981Y125807D03*
X57950Y136043D03*
X59919D03*
X61887D03*
X57950Y125807D03*
X61887D03*
X59919D03*
X55981Y136043D03*
G54D16*
X-6919Y168941D03*
Y207759D03*
G54D71*
G01X49000Y117650D02*
X49050Y117600D01*
Y115700D01*
X50400Y114350D01*
X52600D01*
G01X67750Y137050D02*
Y142350D01*
X69900Y144500D01*
X72300D01*
G54D26*
X21350Y76091D03*
Y65391D03*
Y70509D03*
Y81209D03*
X21050Y212509D03*
Y207391D03*
X25750Y197809D03*
Y192691D03*
X25650Y187109D03*
Y181991D03*
G54D44*
X35105Y140600D03*
X37075D03*
X31165D03*
X33135D03*
X39045D03*
X25255D03*
X29195D03*
X27225D03*
G54D35*
X9715Y188350D03*
Y191500D03*
Y182051D03*
Y185200D03*
Y194649D03*
G54D53*
X61850Y167271D03*
G54D17*
X3988Y-38198D03*
X-3886D03*
X7925D03*
X51D03*
X11862D03*
X15799D03*
X19736D03*
X23673D03*
X-3886Y250902D03*
X3988D03*
X7925D03*
X11862D03*
X15799D03*
X19736D03*
X23673D03*
X47295Y-38198D03*
X51232D03*
X55169D03*
X35484D03*
X31547D03*
X27610D03*
X55169Y250902D03*
X51232D03*
X47295D03*
X43358D03*
X27610D03*
X31547D03*
X39421D03*
X35484D03*
X78791Y-38198D03*
X74854D03*
X59106D03*
X63043D03*
X66980D03*
X70917D03*
X86665D03*
X82728D03*
X59106Y250902D03*
X70917D03*
X66980D03*
X63043D03*
X74854D03*
X78791D03*
X82728D03*
X86665D03*
X118161Y-38198D03*
X114224D03*
X102413D03*
X106350D03*
X110287D03*
X94539D03*
X98476D03*
X90602D03*
X114224Y250902D03*
X118161D03*
X90602D03*
X94539D03*
X98476D03*
X102413D03*
X110287D03*
X106350D03*
X141783Y-38198D03*
X122098D03*
X137846D03*
X126035D03*
X145720D03*
X133909D03*
X129972D03*
X126035Y250902D03*
X122098D03*
X129972D03*
X145720D03*
X141783D03*
X137846D03*
X133909D03*
X161469Y-38198D03*
X165406D03*
X169343D03*
X177217D03*
X173280D03*
X157531D03*
X153594D03*
X149657D03*
Y250902D03*
X177217D03*
X157531D03*
X153594D03*
X161469D03*
X165406D03*
X169343D03*
X173280D03*
X192965Y-38198D03*
X196902D03*
X200839D03*
X181154D03*
X204776D03*
X208713D03*
X185091D03*
X189028D03*
X200839Y250902D03*
X204776D03*
X208713D03*
X192965D03*
X196902D03*
X181154D03*
X185091D03*
X189028D03*
X240209Y-38198D03*
X236272D03*
X232335D03*
X228398D03*
X224461D03*
X220524D03*
X216587D03*
X212650D03*
Y250902D03*
X224461D03*
X220524D03*
X240209D03*
X216587D03*
X236272D03*
X232335D03*
X228398D03*
X259894Y-38198D03*
X263831D03*
X267768D03*
X271705D03*
X255957D03*
X244146D03*
X248083D03*
X252020D03*
X271705Y250902D03*
X267768D03*
X263831D03*
X244146D03*
X248083D03*
X252020D03*
X259894D03*
X255957D03*
X275642Y-38198D03*
X279579D03*
X283516D03*
X287453D03*
X291390D03*
X295327D03*
X299264D03*
X303201D03*
Y250902D03*
X299264D03*
X287453D03*
X283516D03*
X291390D03*
X295327D03*
X322886Y-38198D03*
X307138D03*
X311075D03*
X315012D03*
Y250902D03*
X322886D03*
X311075D03*
X318949D03*
X307138D03*
G54D62*
X155450Y37850D03*
X165450D03*
G54D72*
G01X315012Y250902D02*
Y240900D01*
G54D54*
X61850Y159791D03*
G54D18*
X15150Y2550D03*
X21150D03*
X22350Y121650D03*
X28350D03*
X33350Y130350D03*
X39350D03*
X83950Y-5850D03*
X64550Y152350D03*
X58550D03*
X69950Y185350D03*
X75950D03*
X75850Y191350D03*
X69850D03*
X89950Y-5850D03*
X104250Y9150D03*
X110250D03*
X104450Y2350D03*
X110450D03*
X104350Y39250D03*
X110350D03*
X104250Y29150D03*
X110250D03*
X104250Y19150D03*
X110250D03*
X117350Y84450D03*
X111350D03*
X117350Y90150D03*
X111350D03*
X89650Y170250D03*
X95650D03*
X105300Y209150D03*
X111300D03*
X134050Y212400D03*
X128050D03*
X171450Y57450D03*
X177450D03*
Y51250D03*
X163750Y46850D03*
X157750D03*
X189450Y57250D03*
X183450D03*
Y51250D03*
X226250Y207150D03*
X232250D03*
G54D27*
X-619Y74509D03*
Y71950D03*
Y69391D03*
Y66832D03*
Y77068D03*
G54D63*
X197600Y168282D03*
Y162768D03*
G54D45*
X41600Y153005D03*
Y154975D03*
Y147095D03*
Y149065D03*
Y143155D03*
Y145125D03*
Y151035D03*
Y156945D03*
G54D36*
X51Y249452D03*
X318949Y-36748D03*
G54D73*
G01X120896Y191319D02*
X115581D01*
G01X120896Y187381D02*
X116019D01*
G54D37*
X34222Y8050D03*
X54678D03*
G54D46*
X32150Y150050D03*
G54D28*
X661Y63190D03*
Y80710D03*
G54D19*
X-1350Y10050D03*
Y20050D03*
G54D55*
X85589Y193287D03*
Y189350D03*
X82204Y187381D03*
X85589Y185413D03*
X99581Y173476D03*
X101550Y170110D03*
X103519Y173476D03*
X117511Y185413D03*
Y189350D03*
Y193287D03*
X103519Y205224D03*
X101550Y208590D03*
X99581Y205224D03*
X120896Y187381D03*
Y191319D03*
X172150Y62750D03*
X167000Y62100D03*
G54D64*
X264850Y150950D03*
Y165950D03*
Y160950D03*
Y155950D03*
Y195950D03*
Y190950D03*
Y185950D03*
Y175950D03*
Y170950D03*
X280850Y150950D03*
Y165950D03*
Y160950D03*
Y155950D03*
Y195950D03*
Y190950D03*
Y185950D03*
Y180950D03*
Y175950D03*
Y170950D03*
G54D74*
G01X322850Y265050D02*
X283550D01*
X281550Y263050D01*
Y235150D01*
G02X273750I-3900J0D01*
G01Y263050D01*
X271750Y265050D01*
X-3850D01*
X-5850Y263050D01*
Y228150D01*
G02X-9850Y224200I-2871J-1093D01*
G01X-17650D01*
Y-11500D01*
X-9850D01*
G02X-5850Y-15450I1129J-2857D01*
G01Y-50350D01*
X-3850Y-52350D01*
X35450D01*
X37450Y-50350D01*
Y-22450D01*
G02X45250I3900J0D01*
G01Y-50350D01*
X47250Y-52350D01*
X322850D01*
X324850Y-50350D01*
Y-15450D01*
G02X328850Y-11500I2871J1093D01*
G01X336650D01*
Y224200D01*
X328850D01*
G02X324850Y228150I-1129J2857D01*
G01Y263050D01*
X322850Y265050D01*
G54D29*
X7400Y84650D03*
X15100D03*
X2875Y217025D03*
X10575D03*
X27300Y207450D03*
X35000D03*
G54D65*
X302150Y5950D03*
X308550D03*
G54D56*
X76450Y197850D03*
X68850D03*
G54D47*
X33135Y159500D03*
X35105D03*
X39045D03*
X27225D03*
X31165D03*
X29195D03*
X37075D03*
X25255D03*
G54D38*
X44725Y106291D03*
X43150D03*
X46300D03*
Y111409D03*
X44725D03*
X43150D03*
X70925Y132191D03*
X72500D03*
Y137309D03*
X74075D03*
Y132191D03*
X70925Y137309D03*
G54D75*
G01X-25980Y-196110D02*
Y-189810D01*
X-28878Y-194325D01*
X-24962D01*
G01X-14320Y-196110D02*
X-14947Y-196005D01*
X-15495Y-195585D01*
X-15965Y-194955D01*
X-16278Y-194220D01*
X-16435Y-193380D01*
Y-192540D01*
X-16278Y-191700D01*
X-15965Y-190965D01*
X-15495Y-190335D01*
X-14947Y-189915D01*
X-14320Y-189810D01*
X-13693Y-189915D01*
X-13145Y-190335D01*
X-12675Y-190965D01*
X-12362Y-191700D01*
X-12205Y-192540D01*
Y-193380D01*
X-12362Y-194220D01*
X-12675Y-194955D01*
X-13145Y-195585D01*
X-13693Y-196005D01*
X-14320Y-196110D01*
G01X-9508D02*
Y-189810D01*
X-6532D01*
G01X-7628Y-192855D02*
X-9508D01*
G01X4580Y-196110D02*
Y-189810D01*
X3640Y-191070D01*
G01Y-196110D02*
X5520D01*
G01X11820D02*
Y-189810D01*
X8922Y-194325D01*
X12838D01*
G01X-30323Y-111250D02*
Y-103750D01*
X-26777D01*
G01X-28083Y-107375D02*
X-30323D01*
G01X-22917Y-111250D02*
Y-103750D01*
X-20583D01*
X-19837Y-104125D01*
X-19370Y-104625D01*
X-19183Y-105625D01*
X-19370Y-106625D01*
X-19930Y-107250D01*
X-20583Y-107625D01*
X-22917D01*
G01X-20583D02*
X-19183Y-111250D01*
G01X-11683D02*
X-15417D01*
Y-103750D01*
X-11683D01*
G01X-13177Y-107375D02*
X-15417D01*
G01X-4183Y-111250D02*
X-7917D01*
Y-103750D01*
X-4183D01*
G01X-5677Y-107375D02*
X-7917D01*
G01X-510Y-110250D02*
X237Y-110875D01*
X1077Y-111250D01*
X1823D01*
X2570Y-110875D01*
X3130Y-110250D01*
X3410Y-109375D01*
X3223Y-108500D01*
X2757Y-107750D01*
X1917Y-107250D01*
X797Y-107000D01*
X143Y-106500D01*
X-137Y-105625D01*
X50Y-104750D01*
X517Y-104125D01*
X1170Y-103750D01*
X1823D01*
X2477Y-104000D01*
X3037Y-104625D01*
G01X11003Y-104375D02*
X10443Y-104000D01*
X9790Y-103750D01*
X9043D01*
X8203Y-104125D01*
X7550Y-104750D01*
X7083Y-105500D01*
X6710Y-106750D01*
X6617Y-107875D01*
X6803Y-109000D01*
X7083Y-109750D01*
X7643Y-110500D01*
X8297Y-111000D01*
X8950Y-111250D01*
X9603D01*
X10257Y-111000D01*
X10817Y-110625D01*
X11283Y-110125D01*
G01X14117Y-111250D02*
X16450Y-103750D01*
X18783Y-111250D01*
G01X17943Y-108625D02*
X14957D01*
G01X22083Y-103750D02*
Y-111250D01*
X25817D01*
G01X33317D02*
X29583D01*
Y-103750D01*
X33317D01*
G01X31823Y-107375D02*
X29583D01*
G01X45483Y-188050D02*
Y-194350D01*
X48617D01*
G01X53350D02*
Y-188050D01*
X52410Y-189310D01*
G01Y-194350D02*
X54290D01*
G01X57300Y-196450D02*
X62000D01*
G01X64383Y-194350D02*
Y-188050D01*
X66263D01*
X66890Y-188365D01*
X67360Y-189100D01*
X67517Y-189940D01*
X67360Y-190780D01*
X66968Y-191410D01*
X66263Y-191725D01*
X64383D01*
G01X70605Y-193510D02*
X71232Y-194035D01*
X71937Y-194350D01*
X72563D01*
X73190Y-194035D01*
X73660Y-193510D01*
X73895Y-192775D01*
X73738Y-192040D01*
X73347Y-191410D01*
X72642Y-190990D01*
X71702Y-190780D01*
X71153Y-190360D01*
X70918Y-189625D01*
X71075Y-188890D01*
X71467Y-188365D01*
X72015Y-188050D01*
X72563D01*
X73112Y-188260D01*
X73582Y-188785D01*
G01X159355Y-156250D02*
X162645Y-149950D01*
G01X159355D02*
X162645Y-156250D01*
G01X230000Y-194250D02*
Y-187950D01*
X229060Y-189210D01*
G01Y-194250D02*
X230940D01*
G01X236143D02*
X236300Y-192885D01*
X236535Y-191730D01*
X236848Y-190680D01*
X237240Y-189525D01*
X237867Y-187950D01*
X234733D01*
G01X242600D02*
X241973Y-188160D01*
X241503Y-188685D01*
X241190Y-189315D01*
X240955Y-190155D01*
X240877Y-191100D01*
X240955Y-192045D01*
X241190Y-192885D01*
X241503Y-193515D01*
X241973Y-194040D01*
X242600Y-194250D01*
X243227Y-194040D01*
X243697Y-193515D01*
X244010Y-192885D01*
X244245Y-192045D01*
X244323Y-191100D01*
X244245Y-190155D01*
X244010Y-189315D01*
X243697Y-188685D01*
X243227Y-188160D01*
X242600Y-187950D01*
G01X247882Y-192150D02*
X249918D01*
G01X253712Y-189000D02*
X254182Y-188370D01*
X254730Y-188055D01*
X255357Y-187950D01*
X256140Y-188160D01*
X256688Y-188685D01*
X256845Y-189315D01*
X256767Y-189945D01*
X256453Y-190470D01*
X254887Y-191520D01*
X254182Y-192255D01*
X253712Y-193305D01*
X253555Y-194250D01*
X256845D01*
G01X261343D02*
X261500Y-192885D01*
X261735Y-191730D01*
X262048Y-190680D01*
X262440Y-189525D01*
X263067Y-187950D01*
X259933D01*
G01X266468Y-193515D02*
X267017Y-194040D01*
X267643Y-194250D01*
X268270Y-194040D01*
X268818Y-193410D01*
X269210Y-192465D01*
X269367Y-191520D01*
Y-190365D01*
X269210Y-189420D01*
X268818Y-188580D01*
X268348Y-188160D01*
X267800Y-187950D01*
X267173Y-188160D01*
X266703Y-188580D01*
X266390Y-189210D01*
X266233Y-190050D01*
X266390Y-190785D01*
X266782Y-191520D01*
X267252Y-191940D01*
X267800Y-192045D01*
X268427Y-191835D01*
X268897Y-191310D01*
X269367Y-190365D01*
G01X275040Y-194250D02*
Y-187950D01*
X272142Y-192465D01*
X276058D01*
G01X278677Y-192990D02*
X279147Y-193725D01*
X279773Y-194145D01*
X280478Y-194250D01*
X281105Y-194145D01*
X281732Y-193620D01*
X282123Y-192990D01*
X282202Y-192360D01*
X282045Y-191625D01*
X281497Y-191100D01*
X280948Y-190890D01*
X280243D01*
G01X280948D02*
X281418Y-190575D01*
X281810Y-190050D01*
X281967Y-189420D01*
X281810Y-188790D01*
X281418Y-188265D01*
X280713Y-187950D01*
X280008Y-188055D01*
X279303Y-188475D01*
G01X310333Y-194250D02*
Y-187950D01*
X312292D01*
X312918Y-188265D01*
X313310Y-188685D01*
X313467Y-189525D01*
X313310Y-190365D01*
X312840Y-190890D01*
X312292Y-191205D01*
X310333D01*
G01X312292D02*
X313467Y-194250D01*
G01X319767D02*
X316633D01*
Y-187950D01*
X319767D01*
G01X318513Y-190995D02*
X316633D01*
G01X322542Y-187950D02*
X324500Y-194250D01*
X326458Y-187950D01*
G01X337727Y-190890D02*
X338040Y-190575D01*
X338275Y-190050D01*
X338432Y-189315D01*
X338275Y-188685D01*
X337962Y-188265D01*
X337413Y-187950D01*
X335298D01*
Y-194250D01*
X337883D01*
X338432Y-193830D01*
X338745Y-193200D01*
X338902Y-192465D01*
X338745Y-191730D01*
X338275Y-191100D01*
X337727Y-190890D01*
X335298D01*
G01X232000Y-114950D02*
Y-121250D01*
G01X230198Y-114950D02*
X233802D01*
G01X235950D02*
X237047Y-121250D01*
X238300Y-114950D01*
X239553Y-121250D01*
X240650Y-114950D01*
G01X243033Y-121250D02*
Y-114950D01*
X244992D01*
X245618Y-115265D01*
X246010Y-115685D01*
X246167Y-116525D01*
X246010Y-117365D01*
X245540Y-117890D01*
X244992Y-118205D01*
X243033D01*
G01X244992D02*
X246167Y-121250D01*
G01X249882Y-119150D02*
X251918D01*
G01X255477Y-121250D02*
Y-114950D01*
G01X258453D02*
X255477Y-118835D01*
G01X258923Y-121250D02*
X256808Y-117050D01*
G01X262012Y-118625D02*
X262560Y-117890D01*
X263030Y-117470D01*
X263657Y-117260D01*
X264205Y-117470D01*
X264597Y-117890D01*
X264910Y-118520D01*
X264988Y-119255D01*
X264910Y-119885D01*
X264597Y-120515D01*
X264127Y-121040D01*
X263578Y-121250D01*
X262952Y-121040D01*
X262403Y-120410D01*
X262090Y-119465D01*
X262012Y-118415D01*
X262168Y-117050D01*
X262403Y-116315D01*
X262795Y-115580D01*
X263343Y-115055D01*
X263892Y-114950D01*
X264440Y-115160D01*
X264832Y-115685D01*
G01X270740Y-121250D02*
Y-114950D01*
X267842Y-119465D01*
X271758D01*
G01X274612Y-121250D02*
Y-114950D01*
X277588D01*
G01X276492Y-117995D02*
X274612D01*
G01X282400Y-121250D02*
Y-114950D01*
X281460Y-116210D01*
G01Y-121250D02*
X283340D01*
G01X287212Y-116000D02*
X287682Y-115370D01*
X288230Y-115055D01*
X288857Y-114950D01*
X289640Y-115160D01*
X290188Y-115685D01*
X290345Y-116315D01*
X290267Y-116945D01*
X289953Y-117470D01*
X288387Y-118520D01*
X287682Y-119255D01*
X287212Y-120305D01*
X287055Y-121250D01*
X290345D01*
G01X295000Y-114950D02*
X294373Y-115160D01*
X293903Y-115685D01*
X293590Y-116315D01*
X293355Y-117155D01*
X293277Y-118100D01*
X293355Y-119045D01*
X293590Y-119885D01*
X293903Y-120515D01*
X294373Y-121040D01*
X295000Y-121250D01*
X295627Y-121040D01*
X296097Y-120515D01*
X296410Y-119885D01*
X296645Y-119045D01*
X296723Y-118100D01*
X296645Y-117155D01*
X296410Y-116315D01*
X296097Y-115685D01*
X295627Y-115160D01*
X295000Y-114950D01*
G01X299263Y-121250D02*
Y-114950D01*
X301300Y-120200D01*
X303337Y-114950D01*
Y-121250D01*
G54D66*
G01X29195Y159500D02*
Y162405D01*
X27750Y163850D01*
Y167850D01*
G01X68802Y116100D02*
Y104300D01*
G01Y116100D02*
Y120748D01*
G01D02*
Y122698D01*
X64052Y127448D01*
Y129941D01*
G01D02*
X58934D01*
X57950Y130925D01*
G54D39*
X31125Y95550D03*
Y80550D03*
X41125Y95550D03*
Y80550D03*
X316850Y77850D03*
Y62850D03*
X326850Y77850D03*
Y62850D03*
X316850Y133050D03*
X326850D03*
X316850Y148050D03*
X326850D03*
G54D48*
X76750Y-11050D03*
X68150Y-7050D03*
X76750Y-3050D03*
G54D57*
X96530Y191319D03*
Y185413D03*
X106570Y187381D03*
Y191319D03*
Y189350D03*
Y185413D03*
Y193287D03*
X96530Y189350D03*
Y187381D03*
Y193287D03*
G54D76*
G01X43150Y111409D02*
Y114700D01*
G01X47678Y108850D02*
X49850D01*
X50950Y107750D01*
G01X69547Y134750D02*
X68397D01*
X67360Y135787D01*
Y136660D01*
X67750Y137050D01*
G01X74075Y132191D02*
X74050Y132166D01*
Y130200D01*
X74650Y129600D01*
X78600D01*
G01X78250Y132300D02*
Y134100D01*
X77600Y134750D01*
X75453D01*
G01X70925Y137309D02*
Y139825D01*
X72600Y141500D01*
G01X141250Y97550D02*
X141874Y96926D01*
X141875D01*
X143230Y95571D01*
G01X158978Y79823D02*
X156950Y77795D01*
Y72150D01*
X155750Y70950D01*
G54D67*
G01X73350Y9150D02*
X83150D01*
G01X73350Y39150D02*
Y70800D01*
X75600Y73050D01*
G01X216550Y37950D02*
X215850Y38650D01*
Y43350D01*
X207650Y51550D01*
G54D58*
X101550Y194370D03*
X99581D03*
X103519Y184330D03*
X101550D03*
X99581D03*
X103519Y194370D03*
G54D49*
X73350Y9150D03*
Y39150D03*
Y29150D03*
Y19150D03*
X94350Y9150D03*
Y39150D03*
Y29150D03*
Y19150D03*
X262350Y5950D03*
Y15950D03*
Y25950D03*
Y35950D03*
Y100450D03*
Y90450D03*
Y120450D03*
Y110450D03*
X283350Y5950D03*
Y15950D03*
Y25950D03*
Y35950D03*
Y100450D03*
Y90450D03*
Y120450D03*
Y110450D03*
G54D77*
G01X-619Y74509D02*
X2460D01*
X3190Y73779D01*
X19038D01*
X21350Y76091D01*
G01X111350Y84450D02*
Y84950D01*
X109550Y86750D01*
X83806D01*
X69806Y72750D01*
X23591D01*
X21350Y70509D01*
G01X-619Y71950D02*
X2461D01*
X3190Y72679D01*
X19180D01*
X21350Y70509D01*
G01X111350Y90150D02*
Y89650D01*
X109550Y87850D01*
X83350D01*
X69350Y73850D01*
X23591D01*
X21350Y76091D01*
G01X25650Y187109D02*
Y187424D01*
X23700Y189374D01*
X15849D01*
X14825Y188350D01*
X9715D01*
G01X25750Y192691D02*
Y192524D01*
X23700Y190474D01*
X15850D01*
X14824Y191500D01*
X9715D01*
G01X31150Y171050D02*
X33500Y168700D01*
Y161800D01*
X33135Y161435D01*
Y159500D01*
G01X35105D02*
Y161395D01*
X34600Y161900D01*
Y168700D01*
X36950Y171050D01*
G01X25850D02*
X31150D01*
G01X36950D02*
X41850D01*
G01X36750Y188225D02*
X35625Y189350D01*
X27891D01*
X25650Y187109D01*
G01X36950Y177050D02*
X36025D01*
X34575Y178500D01*
Y181175D01*
X35700Y182300D01*
G01X25750Y192691D02*
X27991Y190450D01*
X35624D01*
X36750Y191576D01*
G01X31150Y177050D02*
X32025D01*
X33475Y178500D01*
Y181174D01*
X32349Y182300D01*
G01X82204Y191319D02*
X86819D01*
G01X82204Y187381D02*
X87019D01*
G01X101550Y208590D02*
Y204100D01*
G01Y170110D02*
Y174950D01*
G01X117300Y94200D02*
Y90200D01*
X117350Y90150D01*
G01D02*
Y89650D01*
X119150Y87850D01*
X121284D01*
X123550Y90116D01*
Y92150D01*
X125150Y93750D01*
X138650D01*
X138950Y93450D01*
X141414D01*
X143230Y91634D01*
G01X139293D02*
X139066D01*
X138050Y92650D01*
X125606D01*
X124650Y91694D01*
Y89660D01*
X121740Y86750D01*
X119150D01*
X117350Y84950D01*
Y84450D01*
G01D02*
Y81000D01*
X117900Y80450D01*
G54D68*
G01X-11150Y52728D02*
Y55513D01*
G01D02*
X-6698D01*
G01X-11150Y88387D02*
Y91172D01*
G01Y88387D02*
X-6698D01*
G01X661Y60388D02*
Y63190D01*
G01X-1065Y60388D02*
X661Y63190D01*
G01X-4000Y48350D02*
Y51602D01*
G01X-7652Y48350D02*
X-4000D01*
G01D02*
X-348D01*
G01X661Y80710D02*
Y83512D01*
G01Y80710D02*
X2387Y83512D01*
G01X9814Y164189D02*
Y168941D01*
G01X-6919Y164189D02*
Y168941D01*
G01X9814D02*
Y173693D01*
G01Y168941D02*
X17416D01*
G01X-6919D02*
Y173693D01*
G01X9814Y203007D02*
Y207759D01*
G01D02*
Y212511D01*
G01Y207759D02*
X17416D01*
G01X2875Y213373D02*
Y217025D01*
G01D02*
Y220677D01*
G01X-377Y217025D02*
X2875D01*
G01X-6919Y203007D02*
Y207759D01*
G01D02*
Y212511D01*
G01X73350Y15948D02*
Y19150D01*
G01D02*
Y22352D01*
G01X66398Y19150D02*
X73350D01*
G01X110450Y-602D02*
Y2350D01*
G01D02*
Y5302D01*
G01Y2350D02*
X112902D01*
G01X110250Y6198D02*
Y9150D01*
G01D02*
Y12102D01*
G01Y9150D02*
X112702D01*
G01X109925Y-11277D02*
Y-8575D01*
G01D02*
Y-5873D01*
G01X107223Y-8575D02*
X109925D01*
G01D02*
X112627D01*
G01X110250Y26198D02*
Y29150D01*
G01D02*
Y32102D01*
G01Y29150D02*
X112702D01*
G01X110350Y36298D02*
Y39250D01*
G01D02*
Y42202D01*
G01Y39250D02*
X112802D01*
G01X110250Y16198D02*
Y19150D01*
G01D02*
Y22102D01*
G01Y19150D02*
X112702D01*
G01X197600Y160866D02*
Y162768D01*
G01D02*
X199902D01*
G01X187800Y157448D02*
Y159600D01*
G01D02*
X194252D01*
G54D59*
X147800Y154600D03*
Y159600D03*
Y164600D03*
Y169600D03*
X134300Y154600D03*
Y159600D03*
Y164600D03*
Y169600D03*
X147800Y199600D03*
Y174600D03*
Y179600D03*
Y184600D03*
Y189600D03*
Y194600D03*
X134300Y199600D03*
Y174600D03*
Y179600D03*
Y184600D03*
Y189600D03*
Y194600D03*
X174300Y154600D03*
Y159600D03*
Y164600D03*
Y169600D03*
Y199600D03*
Y174600D03*
Y179600D03*
Y184600D03*
Y189600D03*
Y194600D03*
X187800Y154600D03*
Y159600D03*
Y164600D03*
Y169600D03*
Y199600D03*
Y174600D03*
Y179600D03*
Y184600D03*
Y189600D03*
Y194600D03*
G54D78*
G01X-21701Y-176250D02*
Y-171530D01*
X-19459D01*
G01X-20285Y-173811D02*
X-21701D01*
G01X-17040Y-176250D02*
Y-171530D01*
X-15565D01*
X-15093Y-171766D01*
X-14798Y-172081D01*
X-14680Y-172710D01*
X-14798Y-173339D01*
X-15152Y-173733D01*
X-15565Y-173969D01*
X-17040D01*
G01X-15565D02*
X-14680Y-176250D01*
G01X-9960D02*
X-12320D01*
Y-171530D01*
X-9960D01*
G01X-10904Y-173811D02*
X-12320D01*
G01X-5240Y-176250D02*
X-7600D01*
Y-171530D01*
X-5240D01*
G01X-6184Y-173811D02*
X-7600D01*
G01X-2939Y-175621D02*
X-2467Y-176014D01*
X-1936Y-176250D01*
X-1464D01*
X-992Y-176014D01*
X-638Y-175621D01*
X-461Y-175070D01*
X-579Y-174519D01*
X-874Y-174047D01*
X-1405Y-173733D01*
X-2113Y-173575D01*
X-2526Y-173261D01*
X-2703Y-172710D01*
X-2585Y-172159D01*
X-2290Y-171766D01*
X-1877Y-171530D01*
X-1464D01*
X-1051Y-171687D01*
X-697Y-172081D01*
G01X4318Y-171923D02*
X3964Y-171687D01*
X3551Y-171530D01*
X3079D01*
X2548Y-171766D01*
X2135Y-172159D01*
X1840Y-172631D01*
X1604Y-173418D01*
X1545Y-174126D01*
X1663Y-174834D01*
X1840Y-175306D01*
X2194Y-175778D01*
X2607Y-176093D01*
X3020Y-176250D01*
X3433D01*
X3846Y-176093D01*
X4200Y-175857D01*
X4495Y-175542D01*
G01X6265Y-176250D02*
X7740Y-171530D01*
X9215Y-176250D01*
G01X8684Y-174598D02*
X6796D01*
G01X11280Y-171530D02*
Y-176250D01*
X13640D01*
G01X18360D02*
X16000D01*
Y-171530D01*
X18360D01*
G01X17416Y-173811D02*
X16000D01*
G01X21900Y-176407D02*
X21782Y-176329D01*
Y-176171D01*
X21900Y-176093D01*
X22018Y-176171D01*
Y-176329D01*
X21900Y-176407D01*
G01X-29819Y-186621D02*
X-29347Y-187014D01*
X-28816Y-187250D01*
X-28344D01*
X-27872Y-187014D01*
X-27518Y-186621D01*
X-27341Y-186070D01*
X-27459Y-185519D01*
X-27754Y-185047D01*
X-28285Y-184733D01*
X-28993Y-184575D01*
X-29406Y-184261D01*
X-29583Y-183710D01*
X-29465Y-183159D01*
X-29170Y-182766D01*
X-28757Y-182530D01*
X-28344D01*
X-27931Y-182687D01*
X-27577Y-183081D01*
G01X-25099Y-187250D02*
Y-182530D01*
G01X-22621D02*
Y-187250D01*
G01Y-184890D02*
X-25099D01*
G01X-17960Y-187250D02*
X-20320D01*
Y-182530D01*
X-17960D01*
G01X-18904Y-184811D02*
X-20320D01*
G01X-13240Y-187250D02*
X-15600D01*
Y-182530D01*
X-13240D01*
G01X-14184Y-184811D02*
X-15600D01*
G01X-9700Y-182530D02*
Y-187250D01*
G01X-11057Y-182530D02*
X-8343D01*
G01X-21580Y-168250D02*
X-22052Y-168171D01*
X-22465Y-167857D01*
X-22819Y-167385D01*
X-23055Y-166834D01*
X-23173Y-166205D01*
Y-165575D01*
X-23055Y-164946D01*
X-22819Y-164395D01*
X-22465Y-163923D01*
X-22052Y-163609D01*
X-21580Y-163530D01*
X-21108Y-163609D01*
X-20695Y-163923D01*
X-20341Y-164395D01*
X-20105Y-164946D01*
X-19987Y-165575D01*
Y-166205D01*
X-20105Y-166834D01*
X-20341Y-167385D01*
X-20695Y-167857D01*
X-21108Y-168171D01*
X-21580Y-168250D01*
G01X-18040D02*
Y-163530D01*
X-16565D01*
X-16093Y-163766D01*
X-15798Y-164081D01*
X-15680Y-164710D01*
X-15798Y-165339D01*
X-16152Y-165733D01*
X-16565Y-165969D01*
X-18040D01*
G01X-16565D02*
X-15680Y-168250D01*
G01X-8128Y-163530D02*
X-6712D01*
G01X-7420D02*
Y-168250D01*
G01X-8128D02*
X-6712D01*
G01X-4057D02*
Y-163530D01*
X-1343Y-168250D01*
Y-163530D01*
G01X5560Y-168250D02*
Y-163530D01*
X6976D01*
X7448Y-163766D01*
X7802Y-164317D01*
X7920Y-164946D01*
X7802Y-165575D01*
X7507Y-166047D01*
X6976Y-166283D01*
X5560D01*
G01X9985Y-168250D02*
X11460Y-163530D01*
X12935Y-168250D01*
G01X12404Y-166598D02*
X10516D01*
G01X15000Y-168250D02*
Y-163530D01*
X16475D01*
X16947Y-163766D01*
X17242Y-164081D01*
X17360Y-164710D01*
X17242Y-165339D01*
X16888Y-165733D01*
X16475Y-165969D01*
X15000D01*
G01X16475D02*
X17360Y-168250D01*
G01X20900Y-163530D02*
Y-168250D01*
G01X19543Y-163530D02*
X22257D01*
G01X28570D02*
X29396Y-168250D01*
X30340Y-163530D01*
X31284Y-168250D01*
X32110Y-163530D01*
G01X34352D02*
X35768D01*
G01X35060D02*
Y-168250D01*
G01X34352D02*
X35768D01*
G01X39780Y-163530D02*
Y-168250D01*
G01X38423Y-163530D02*
X41137D01*
G01X43261Y-168250D02*
Y-163530D01*
G01X45739D02*
Y-168250D01*
G01Y-165890D02*
X43261D01*
G01X49220Y-168250D02*
X48748Y-168171D01*
X48335Y-167857D01*
X47981Y-167385D01*
X47745Y-166834D01*
X47627Y-166205D01*
Y-165575D01*
X47745Y-164946D01*
X47981Y-164395D01*
X48335Y-163923D01*
X48748Y-163609D01*
X49220Y-163530D01*
X49692Y-163609D01*
X50105Y-163923D01*
X50459Y-164395D01*
X50695Y-164946D01*
X50813Y-165575D01*
Y-166205D01*
X50695Y-166834D01*
X50459Y-167385D01*
X50105Y-167857D01*
X49692Y-168171D01*
X49220Y-168250D01*
G01X52642Y-163530D02*
Y-166913D01*
X52878Y-167621D01*
X53350Y-168093D01*
X53940Y-168250D01*
X54530Y-168093D01*
X55002Y-167621D01*
X55238Y-166913D01*
Y-163530D01*
G01X58660D02*
Y-168250D01*
G01X57303Y-163530D02*
X60017D01*
G01X68100D02*
Y-168250D01*
G01X66743Y-163530D02*
X69457D01*
G01X71581Y-168250D02*
Y-163530D01*
G01X74059D02*
Y-168250D01*
G01Y-165890D02*
X71581D01*
G01X78720Y-168250D02*
X76360D01*
Y-163530D01*
X78720D01*
G01X77776Y-165811D02*
X76360D01*
G01X88278Y-163923D02*
X87924Y-163687D01*
X87511Y-163530D01*
X87039D01*
X86508Y-163766D01*
X86095Y-164159D01*
X85800Y-164631D01*
X85564Y-165418D01*
X85505Y-166126D01*
X85623Y-166834D01*
X85800Y-167306D01*
X86154Y-167778D01*
X86567Y-168093D01*
X86980Y-168250D01*
X87393D01*
X87806Y-168093D01*
X88160Y-167857D01*
X88455Y-167542D01*
G01X91700Y-168250D02*
X91228Y-168171D01*
X90815Y-167857D01*
X90461Y-167385D01*
X90225Y-166834D01*
X90107Y-166205D01*
Y-165575D01*
X90225Y-164946D01*
X90461Y-164395D01*
X90815Y-163923D01*
X91228Y-163609D01*
X91700Y-163530D01*
X92172Y-163609D01*
X92585Y-163923D01*
X92939Y-164395D01*
X93175Y-164946D01*
X93293Y-165575D01*
Y-166205D01*
X93175Y-166834D01*
X92939Y-167385D01*
X92585Y-167857D01*
X92172Y-168171D01*
X91700Y-168250D01*
G01X95063D02*
Y-163530D01*
X97777Y-168250D01*
Y-163530D01*
G01X99901Y-167621D02*
X100373Y-168014D01*
X100904Y-168250D01*
X101376D01*
X101848Y-168014D01*
X102202Y-167621D01*
X102379Y-167070D01*
X102261Y-166519D01*
X101966Y-166047D01*
X101435Y-165733D01*
X100727Y-165575D01*
X100314Y-165261D01*
X100137Y-164710D01*
X100255Y-164159D01*
X100550Y-163766D01*
X100963Y-163530D01*
X101376D01*
X101789Y-163687D01*
X102143Y-164081D01*
G01X107040Y-168250D02*
X104680D01*
Y-163530D01*
X107040D01*
G01X106096Y-165811D02*
X104680D01*
G01X109223Y-168250D02*
Y-163530D01*
X111937Y-168250D01*
Y-163530D01*
G01X115300D02*
Y-168250D01*
G01X113943Y-163530D02*
X116657D01*
G01X124740Y-168250D02*
X124268Y-168171D01*
X123855Y-167857D01*
X123501Y-167385D01*
X123265Y-166834D01*
X123147Y-166205D01*
Y-165575D01*
X123265Y-164946D01*
X123501Y-164395D01*
X123855Y-163923D01*
X124268Y-163609D01*
X124740Y-163530D01*
X125212Y-163609D01*
X125625Y-163923D01*
X125979Y-164395D01*
X126215Y-164946D01*
X126333Y-165575D01*
Y-166205D01*
X126215Y-166834D01*
X125979Y-167385D01*
X125625Y-167857D01*
X125212Y-168171D01*
X124740Y-168250D01*
G01X128339D02*
Y-163530D01*
X130581D01*
G01X129755Y-165811D02*
X128339D01*
G01X-22760Y-160250D02*
Y-155530D01*
X-21344D01*
X-20872Y-155766D01*
X-20518Y-156317D01*
X-20400Y-156946D01*
X-20518Y-157575D01*
X-20813Y-158047D01*
X-21344Y-158283D01*
X-22760D01*
G01X-18040Y-160250D02*
Y-155530D01*
X-16565D01*
X-16093Y-155766D01*
X-15798Y-156081D01*
X-15680Y-156710D01*
X-15798Y-157339D01*
X-16152Y-157733D01*
X-16565Y-157969D01*
X-18040D01*
G01X-16565D02*
X-15680Y-160250D01*
G01X-12140D02*
X-12612Y-160171D01*
X-13025Y-159857D01*
X-13379Y-159385D01*
X-13615Y-158834D01*
X-13733Y-158205D01*
Y-157575D01*
X-13615Y-156946D01*
X-13379Y-156395D01*
X-13025Y-155923D01*
X-12612Y-155609D01*
X-12140Y-155530D01*
X-11668Y-155609D01*
X-11255Y-155923D01*
X-10901Y-156395D01*
X-10665Y-156946D01*
X-10547Y-157575D01*
Y-158205D01*
X-10665Y-158834D01*
X-10901Y-159385D01*
X-11255Y-159857D01*
X-11668Y-160171D01*
X-12140Y-160250D01*
G01X-6122Y-155923D02*
X-6476Y-155687D01*
X-6889Y-155530D01*
X-7361D01*
X-7892Y-155766D01*
X-8305Y-156159D01*
X-8600Y-156631D01*
X-8836Y-157418D01*
X-8895Y-158126D01*
X-8777Y-158834D01*
X-8600Y-159306D01*
X-8246Y-159778D01*
X-7833Y-160093D01*
X-7420Y-160250D01*
X-7007D01*
X-6594Y-160093D01*
X-6240Y-159857D01*
X-5945Y-159542D01*
G01X-3998Y-155530D02*
Y-158913D01*
X-3762Y-159621D01*
X-3290Y-160093D01*
X-2700Y-160250D01*
X-2110Y-160093D01*
X-1638Y-159621D01*
X-1402Y-158913D01*
Y-155530D01*
G01X840Y-160250D02*
Y-155530D01*
X2315D01*
X2787Y-155766D01*
X3082Y-156081D01*
X3200Y-156710D01*
X3082Y-157339D01*
X2728Y-157733D01*
X2315Y-157969D01*
X840D01*
G01X2315D02*
X3200Y-160250D01*
G01X7920D02*
X5560D01*
Y-155530D01*
X7920D01*
G01X6976Y-157811D02*
X5560D01*
G01X9926Y-160250D02*
Y-155530D01*
X11460Y-159463D01*
X12994Y-155530D01*
Y-160250D01*
G01X17360D02*
X15000D01*
Y-155530D01*
X17360D01*
G01X16416Y-157811D02*
X15000D01*
G01X19543Y-160250D02*
Y-155530D01*
X22257Y-160250D01*
Y-155530D01*
G01X25620D02*
Y-160250D01*
G01X24263Y-155530D02*
X26977D01*
G01X35060Y-160250D02*
X34588Y-160171D01*
X34175Y-159857D01*
X33821Y-159385D01*
X33585Y-158834D01*
X33467Y-158205D01*
Y-157575D01*
X33585Y-156946D01*
X33821Y-156395D01*
X34175Y-155923D01*
X34588Y-155609D01*
X35060Y-155530D01*
X35532Y-155609D01*
X35945Y-155923D01*
X36299Y-156395D01*
X36535Y-156946D01*
X36653Y-157575D01*
Y-158205D01*
X36535Y-158834D01*
X36299Y-159385D01*
X35945Y-159857D01*
X35532Y-160171D01*
X35060Y-160250D01*
G01X38600D02*
Y-155530D01*
X40075D01*
X40547Y-155766D01*
X40842Y-156081D01*
X40960Y-156710D01*
X40842Y-157339D01*
X40488Y-157733D01*
X40075Y-157969D01*
X38600D01*
G01X40075D02*
X40960Y-160250D01*
G01X47686D02*
Y-155530D01*
X49220Y-159463D01*
X50754Y-155530D01*
Y-160250D01*
G01X52465D02*
X53940Y-155530D01*
X55415Y-160250D01*
G01X54884Y-158598D02*
X52996D01*
G01X57303Y-160250D02*
Y-155530D01*
X60017Y-160250D01*
Y-155530D01*
G01X62082D02*
Y-158913D01*
X62318Y-159621D01*
X62790Y-160093D01*
X63380Y-160250D01*
X63970Y-160093D01*
X64442Y-159621D01*
X64678Y-158913D01*
Y-155530D01*
G01X66979Y-160250D02*
Y-155530D01*
X69221D01*
G01X68395Y-157811D02*
X66979D01*
G01X71345Y-160250D02*
X72820Y-155530D01*
X74295Y-160250D01*
G01X73764Y-158598D02*
X71876D01*
G01X78838Y-155923D02*
X78484Y-155687D01*
X78071Y-155530D01*
X77599D01*
X77068Y-155766D01*
X76655Y-156159D01*
X76360Y-156631D01*
X76124Y-157418D01*
X76065Y-158126D01*
X76183Y-158834D01*
X76360Y-159306D01*
X76714Y-159778D01*
X77127Y-160093D01*
X77540Y-160250D01*
X77953D01*
X78366Y-160093D01*
X78720Y-159857D01*
X79015Y-159542D01*
G01X82260Y-155530D02*
Y-160250D01*
G01X80903Y-155530D02*
X83617D01*
G01X85682D02*
Y-158913D01*
X85918Y-159621D01*
X86390Y-160093D01*
X86980Y-160250D01*
X87570Y-160093D01*
X88042Y-159621D01*
X88278Y-158913D01*
Y-155530D01*
G01X90520Y-160250D02*
Y-155530D01*
X91995D01*
X92467Y-155766D01*
X92762Y-156081D01*
X92880Y-156710D01*
X92762Y-157339D01*
X92408Y-157733D01*
X91995Y-157969D01*
X90520D01*
G01X91995D02*
X92880Y-160250D01*
G01X97600D02*
X95240D01*
Y-155530D01*
X97600D01*
G01X96656Y-157811D02*
X95240D01*
G01X105152Y-155530D02*
X106568D01*
G01X105860D02*
Y-160250D01*
G01X105152D02*
X106568D01*
G01X109223D02*
Y-155530D01*
X111937Y-160250D01*
Y-155530D01*
G01X118250D02*
X119076Y-160250D01*
X120020Y-155530D01*
X120964Y-160250D01*
X121790Y-155530D01*
G01X123501Y-160250D02*
Y-155530D01*
G01X125979D02*
Y-160250D01*
G01Y-157890D02*
X123501D01*
G01X129460Y-160250D02*
X128988Y-160171D01*
X128575Y-159857D01*
X128221Y-159385D01*
X127985Y-158834D01*
X127867Y-158205D01*
Y-157575D01*
X127985Y-156946D01*
X128221Y-156395D01*
X128575Y-155923D01*
X128988Y-155609D01*
X129460Y-155530D01*
X129932Y-155609D01*
X130345Y-155923D01*
X130699Y-156395D01*
X130935Y-156946D01*
X131053Y-157575D01*
Y-158205D01*
X130935Y-158834D01*
X130699Y-159385D01*
X130345Y-159857D01*
X129932Y-160171D01*
X129460Y-160250D01*
G01X133000Y-155530D02*
Y-160250D01*
X135360D01*
G01X140080D02*
X137720D01*
Y-155530D01*
X140080D01*
G01X139136Y-157811D02*
X137720D01*
G01X-22937Y-152250D02*
Y-147530D01*
X-20223Y-152250D01*
Y-147530D01*
G01X-16860Y-152250D02*
X-17332Y-152171D01*
X-17745Y-151857D01*
X-18099Y-151385D01*
X-18335Y-150834D01*
X-18453Y-150205D01*
Y-149575D01*
X-18335Y-148946D01*
X-18099Y-148395D01*
X-17745Y-147923D01*
X-17332Y-147609D01*
X-16860Y-147530D01*
X-16388Y-147609D01*
X-15975Y-147923D01*
X-15621Y-148395D01*
X-15385Y-148946D01*
X-15267Y-149575D01*
Y-150205D01*
X-15385Y-150834D01*
X-15621Y-151385D01*
X-15975Y-151857D01*
X-16388Y-152171D01*
X-16860Y-152250D01*
G01X-12140Y-147530D02*
Y-152250D01*
G01X-13497Y-147530D02*
X-10783D01*
G01X-2228Y-149733D02*
X-1992Y-149497D01*
X-1815Y-149103D01*
X-1697Y-148553D01*
X-1815Y-148081D01*
X-2051Y-147766D01*
X-2464Y-147530D01*
X-4057D01*
Y-152250D01*
X-2110D01*
X-1697Y-151935D01*
X-1461Y-151463D01*
X-1343Y-150913D01*
X-1461Y-150362D01*
X-1815Y-149890D01*
X-2228Y-149733D01*
X-4057D01*
G01X3200Y-152250D02*
X840D01*
Y-147530D01*
X3200D01*
G01X2256Y-149811D02*
X840D01*
G01X10162Y-147530D02*
Y-150913D01*
X10398Y-151621D01*
X10870Y-152093D01*
X11460Y-152250D01*
X12050Y-152093D01*
X12522Y-151621D01*
X12758Y-150913D01*
Y-147530D01*
G01X14941Y-151621D02*
X15413Y-152014D01*
X15944Y-152250D01*
X16416D01*
X16888Y-152014D01*
X17242Y-151621D01*
X17419Y-151070D01*
X17301Y-150519D01*
X17006Y-150047D01*
X16475Y-149733D01*
X15767Y-149575D01*
X15354Y-149261D01*
X15177Y-148710D01*
X15295Y-148159D01*
X15590Y-147766D01*
X16003Y-147530D01*
X16416D01*
X16829Y-147687D01*
X17183Y-148081D01*
G01X22080Y-152250D02*
X19720D01*
Y-147530D01*
X22080D01*
G01X21136Y-149811D02*
X19720D01*
G01X24322Y-152250D02*
Y-147530D01*
X25502D01*
X25974Y-147766D01*
X26328Y-148081D01*
X26623Y-148553D01*
X26859Y-149103D01*
X26918Y-149890D01*
X26859Y-150677D01*
X26623Y-151227D01*
X26328Y-151699D01*
X25974Y-152014D01*
X25502Y-152250D01*
X24322D01*
G01X33939D02*
Y-147530D01*
X36181D01*
G01X35355Y-149811D02*
X33939D01*
G01X39780Y-152250D02*
X39308Y-152171D01*
X38895Y-151857D01*
X38541Y-151385D01*
X38305Y-150834D01*
X38187Y-150205D01*
Y-149575D01*
X38305Y-148946D01*
X38541Y-148395D01*
X38895Y-147923D01*
X39308Y-147609D01*
X39780Y-147530D01*
X40252Y-147609D01*
X40665Y-147923D01*
X41019Y-148395D01*
X41255Y-148946D01*
X41373Y-149575D01*
Y-150205D01*
X41255Y-150834D01*
X41019Y-151385D01*
X40665Y-151857D01*
X40252Y-152171D01*
X39780Y-152250D01*
G01X43320D02*
Y-147530D01*
X44795D01*
X45267Y-147766D01*
X45562Y-148081D01*
X45680Y-148710D01*
X45562Y-149339D01*
X45208Y-149733D01*
X44795Y-149969D01*
X43320D01*
G01X44795D02*
X45680Y-152250D01*
G01X55120D02*
X52760D01*
Y-147530D01*
X55120D01*
G01X54176Y-149811D02*
X52760D01*
G01X57303Y-152250D02*
Y-147530D01*
X60017Y-152250D01*
Y-147530D01*
G01X63734Y-149890D02*
X64914D01*
Y-151306D01*
X64560Y-151778D01*
X64147Y-152093D01*
X63557Y-152250D01*
X62967Y-152093D01*
X62554Y-151778D01*
X62200Y-151306D01*
X61964Y-150755D01*
X61846Y-150126D01*
Y-149575D01*
X61964Y-149103D01*
X62200Y-148553D01*
X62554Y-148081D01*
X62908Y-147766D01*
X63380Y-147530D01*
X63793D01*
X64265Y-147687D01*
X64619Y-148002D01*
G01X67392Y-147530D02*
X68808D01*
G01X68100D02*
Y-152250D01*
G01X67392D02*
X68808D01*
G01X71463D02*
Y-147530D01*
X74177Y-152250D01*
Y-147530D01*
G01X78720Y-152250D02*
X76360D01*
Y-147530D01*
X78720D01*
G01X77776Y-149811D02*
X76360D01*
G01X83440Y-152250D02*
X81080D01*
Y-147530D01*
X83440D01*
G01X82496Y-149811D02*
X81080D01*
G01X85800Y-152250D02*
Y-147530D01*
X87275D01*
X87747Y-147766D01*
X88042Y-148081D01*
X88160Y-148710D01*
X88042Y-149339D01*
X87688Y-149733D01*
X87275Y-149969D01*
X85800D01*
G01X87275D02*
X88160Y-152250D01*
G01X90992Y-147530D02*
X92408D01*
G01X91700D02*
Y-152250D01*
G01X90992D02*
X92408D01*
G01X95063D02*
Y-147530D01*
X97777Y-152250D01*
Y-147530D01*
G01X101494Y-149890D02*
X102674D01*
Y-151306D01*
X102320Y-151778D01*
X101907Y-152093D01*
X101317Y-152250D01*
X100727Y-152093D01*
X100314Y-151778D01*
X99960Y-151306D01*
X99724Y-150755D01*
X99606Y-150126D01*
Y-149575D01*
X99724Y-149103D01*
X99960Y-148553D01*
X100314Y-148081D01*
X100668Y-147766D01*
X101140Y-147530D01*
X101553D01*
X102025Y-147687D01*
X102379Y-148002D01*
G01X109282Y-152250D02*
Y-147530D01*
X110462D01*
X110934Y-147766D01*
X111288Y-148081D01*
X111583Y-148553D01*
X111819Y-149103D01*
X111878Y-149890D01*
X111819Y-150677D01*
X111583Y-151227D01*
X111288Y-151699D01*
X110934Y-152014D01*
X110462Y-152250D01*
X109282D01*
G01X116480D02*
X114120D01*
Y-147530D01*
X116480D01*
G01X115536Y-149811D02*
X114120D01*
G01X118781Y-151621D02*
X119253Y-152014D01*
X119784Y-152250D01*
X120256D01*
X120728Y-152014D01*
X121082Y-151621D01*
X121259Y-151070D01*
X121141Y-150519D01*
X120846Y-150047D01*
X120315Y-149733D01*
X119607Y-149575D01*
X119194Y-149261D01*
X119017Y-148710D01*
X119135Y-148159D01*
X119430Y-147766D01*
X119843Y-147530D01*
X120256D01*
X120669Y-147687D01*
X121023Y-148081D01*
G01X124032Y-147530D02*
X125448D01*
G01X124740D02*
Y-152250D01*
G01X124032D02*
X125448D01*
G01X129814Y-149890D02*
X130994D01*
Y-151306D01*
X130640Y-151778D01*
X130227Y-152093D01*
X129637Y-152250D01*
X129047Y-152093D01*
X128634Y-151778D01*
X128280Y-151306D01*
X128044Y-150755D01*
X127926Y-150126D01*
Y-149575D01*
X128044Y-149103D01*
X128280Y-148553D01*
X128634Y-148081D01*
X128988Y-147766D01*
X129460Y-147530D01*
X129873D01*
X130345Y-147687D01*
X130699Y-148002D01*
G01X132823Y-152250D02*
Y-147530D01*
X135537Y-152250D01*
Y-147530D01*
G01X-22760Y-144250D02*
Y-139530D01*
X-21344D01*
X-20872Y-139766D01*
X-20518Y-140317D01*
X-20400Y-140946D01*
X-20518Y-141575D01*
X-20813Y-142047D01*
X-21344Y-142283D01*
X-22760D01*
G01X-18040Y-144250D02*
Y-139530D01*
X-16565D01*
X-16093Y-139766D01*
X-15798Y-140081D01*
X-15680Y-140710D01*
X-15798Y-141339D01*
X-16152Y-141733D01*
X-16565Y-141969D01*
X-18040D01*
G01X-16565D02*
X-15680Y-144250D01*
G01X-12140D02*
X-12612Y-144171D01*
X-13025Y-143857D01*
X-13379Y-143385D01*
X-13615Y-142834D01*
X-13733Y-142205D01*
Y-141575D01*
X-13615Y-140946D01*
X-13379Y-140395D01*
X-13025Y-139923D01*
X-12612Y-139609D01*
X-12140Y-139530D01*
X-11668Y-139609D01*
X-11255Y-139923D01*
X-10901Y-140395D01*
X-10665Y-140946D01*
X-10547Y-141575D01*
Y-142205D01*
X-10665Y-142834D01*
X-10901Y-143385D01*
X-11255Y-143857D01*
X-11668Y-144171D01*
X-12140Y-144250D01*
G01X-8600D02*
Y-139530D01*
X-7184D01*
X-6712Y-139766D01*
X-6358Y-140317D01*
X-6240Y-140946D01*
X-6358Y-141575D01*
X-6653Y-142047D01*
X-7184Y-142283D01*
X-8600D01*
G01X-3880Y-144250D02*
Y-139530D01*
X-2405D01*
X-1933Y-139766D01*
X-1638Y-140081D01*
X-1520Y-140710D01*
X-1638Y-141339D01*
X-1992Y-141733D01*
X-2405Y-141969D01*
X-3880D01*
G01X-2405D02*
X-1520Y-144250D01*
G01X1312Y-139530D02*
X2728D01*
G01X2020D02*
Y-144250D01*
G01X1312D02*
X2728D01*
G01X7920D02*
X5560D01*
Y-139530D01*
X7920D01*
G01X6976Y-141811D02*
X5560D01*
G01X11460Y-139530D02*
Y-144250D01*
G01X10103Y-139530D02*
X12817D01*
G01X14705Y-144250D02*
X16180Y-139530D01*
X17655Y-144250D01*
G01X17124Y-142598D02*
X15236D01*
G01X19720Y-144250D02*
Y-139530D01*
X21195D01*
X21667Y-139766D01*
X21962Y-140081D01*
X22080Y-140710D01*
X21962Y-141339D01*
X21608Y-141733D01*
X21195Y-141969D01*
X19720D01*
G01X21195D02*
X22080Y-144250D01*
G01X25620D02*
Y-142126D01*
X24440Y-139530D01*
G01X26800D02*
X25620Y-142126D01*
G01X35060Y-139530D02*
Y-144250D01*
G01X33703Y-139530D02*
X36417D01*
G01X39780Y-144250D02*
X39308Y-144171D01*
X38895Y-143857D01*
X38541Y-143385D01*
X38305Y-142834D01*
X38187Y-142205D01*
Y-141575D01*
X38305Y-140946D01*
X38541Y-140395D01*
X38895Y-139923D01*
X39308Y-139609D01*
X39780Y-139530D01*
X40252Y-139609D01*
X40665Y-139923D01*
X41019Y-140395D01*
X41255Y-140946D01*
X41373Y-141575D01*
Y-142205D01*
X41255Y-142834D01*
X41019Y-143385D01*
X40665Y-143857D01*
X40252Y-144171D01*
X39780Y-144250D01*
G01X48099D02*
Y-139530D01*
X50341D01*
G01X49515Y-141811D02*
X48099D01*
G01X52760Y-144250D02*
Y-139530D01*
X54235D01*
X54707Y-139766D01*
X55002Y-140081D01*
X55120Y-140710D01*
X55002Y-141339D01*
X54648Y-141733D01*
X54235Y-141969D01*
X52760D01*
G01X54235D02*
X55120Y-144250D01*
G01X59840D02*
X57480D01*
Y-139530D01*
X59840D01*
G01X58896Y-141811D02*
X57480D01*
G01X64560Y-144250D02*
X62200D01*
Y-139530D01*
X64560D01*
G01X63616Y-141811D02*
X62200D01*
G01X66861Y-143621D02*
X67333Y-144014D01*
X67864Y-144250D01*
X68336D01*
X68808Y-144014D01*
X69162Y-143621D01*
X69339Y-143070D01*
X69221Y-142519D01*
X68926Y-142047D01*
X68395Y-141733D01*
X67687Y-141575D01*
X67274Y-141261D01*
X67097Y-140710D01*
X67215Y-140159D01*
X67510Y-139766D01*
X67923Y-139530D01*
X68336D01*
X68749Y-139687D01*
X69103Y-140081D01*
G01X74118Y-139923D02*
X73764Y-139687D01*
X73351Y-139530D01*
X72879D01*
X72348Y-139766D01*
X71935Y-140159D01*
X71640Y-140631D01*
X71404Y-141418D01*
X71345Y-142126D01*
X71463Y-142834D01*
X71640Y-143306D01*
X71994Y-143778D01*
X72407Y-144093D01*
X72820Y-144250D01*
X73233D01*
X73646Y-144093D01*
X74000Y-143857D01*
X74295Y-143542D01*
G01X76065Y-144250D02*
X77540Y-139530D01*
X79015Y-144250D01*
G01X78484Y-142598D02*
X76596D01*
G01X81080Y-139530D02*
Y-144250D01*
X83440D01*
G01X88160D02*
X85800D01*
Y-139530D01*
X88160D01*
G01X87216Y-141811D02*
X85800D01*
G01X94945Y-144250D02*
X96420Y-139530D01*
X97895Y-144250D01*
G01X97364Y-142598D02*
X95476D01*
G01X99783Y-144250D02*
Y-139530D01*
X102497Y-144250D01*
Y-139530D01*
G01X104562Y-144250D02*
Y-139530D01*
X105742D01*
X106214Y-139766D01*
X106568Y-140081D01*
X106863Y-140553D01*
X107099Y-141103D01*
X107158Y-141890D01*
X107099Y-142677D01*
X106863Y-143227D01*
X106568Y-143699D01*
X106214Y-144014D01*
X105742Y-144250D01*
X104562D01*
G01X114061Y-143621D02*
X114533Y-144014D01*
X115064Y-144250D01*
X115536D01*
X116008Y-144014D01*
X116362Y-143621D01*
X116539Y-143070D01*
X116421Y-142519D01*
X116126Y-142047D01*
X115595Y-141733D01*
X114887Y-141575D01*
X114474Y-141261D01*
X114297Y-140710D01*
X114415Y-140159D01*
X114710Y-139766D01*
X115123Y-139530D01*
X115536D01*
X115949Y-139687D01*
X116303Y-140081D01*
G01X118781Y-144250D02*
Y-139530D01*
G01X121259D02*
Y-144250D01*
G01Y-141890D02*
X118781D01*
G01X123265Y-144250D02*
X124740Y-139530D01*
X126215Y-144250D01*
G01X125684Y-142598D02*
X123796D01*
G01X128280Y-139530D02*
Y-144250D01*
X130640D01*
G01X133000Y-139530D02*
Y-144250D01*
X135360D01*
G01X-30055Y-126250D02*
X-28580Y-121530D01*
X-27105Y-126250D01*
G01X-27636Y-124598D02*
X-29524D01*
G01X-25158Y-121530D02*
Y-124913D01*
X-24922Y-125621D01*
X-24450Y-126093D01*
X-23860Y-126250D01*
X-23270Y-126093D01*
X-22798Y-125621D01*
X-22562Y-124913D01*
Y-121530D01*
G01X-20379Y-125621D02*
X-19907Y-126014D01*
X-19376Y-126250D01*
X-18904D01*
X-18432Y-126014D01*
X-18078Y-125621D01*
X-17901Y-125070D01*
X-18019Y-124519D01*
X-18314Y-124047D01*
X-18845Y-123733D01*
X-19553Y-123575D01*
X-19966Y-123261D01*
X-20143Y-122710D01*
X-20025Y-122159D01*
X-19730Y-121766D01*
X-19317Y-121530D01*
X-18904D01*
X-18491Y-121687D01*
X-18137Y-122081D01*
G01X-14420Y-121530D02*
Y-126250D01*
G01X-15777Y-121530D02*
X-13063D01*
G01X-10408D02*
X-8992D01*
G01X-9700D02*
Y-126250D01*
G01X-10408D02*
X-8992D01*
G01X-6337D02*
Y-121530D01*
X-3623Y-126250D01*
Y-121530D01*
G01X-260Y-126407D02*
X-378Y-126329D01*
Y-126171D01*
X-260Y-126093D01*
X-142Y-126171D01*
Y-126329D01*
X-260Y-126407D01*
G01X9180Y-121530D02*
Y-126250D01*
G01X7823Y-121530D02*
X10537D01*
G01X15080Y-126250D02*
X12720D01*
Y-121530D01*
X15080D01*
G01X14136Y-123811D02*
X12720D01*
G01X17381Y-126250D02*
X19859Y-121530D01*
G01X17381D02*
X19859Y-126250D01*
G01X21865D02*
X23340Y-121530D01*
X24815Y-126250D01*
G01X24284Y-124598D02*
X22396D01*
G01X26821Y-125621D02*
X27293Y-126014D01*
X27824Y-126250D01*
X28296D01*
X28768Y-126014D01*
X29122Y-125621D01*
X29299Y-125070D01*
X29181Y-124519D01*
X28886Y-124047D01*
X28355Y-123733D01*
X27647Y-123575D01*
X27234Y-123261D01*
X27057Y-122710D01*
X27175Y-122159D01*
X27470Y-121766D01*
X27883Y-121530D01*
X28296D01*
X28709Y-121687D01*
X29063Y-122081D01*
G01X37382Y-126250D02*
X37500Y-125227D01*
X37677Y-124362D01*
X37913Y-123575D01*
X38208Y-122710D01*
X38680Y-121530D01*
X36320D01*
G01X42220Y-126250D02*
X42633Y-126171D01*
X43105Y-125935D01*
X43400Y-125542D01*
X43518Y-124991D01*
X43400Y-124441D01*
X43046Y-123969D01*
X42515Y-123733D01*
X41925D01*
X41571Y-123575D01*
X41276Y-123182D01*
X41158Y-122631D01*
X41335Y-122081D01*
X41748Y-121687D01*
X42220Y-121530D01*
X42692Y-121687D01*
X43105Y-122081D01*
X43282Y-122631D01*
X43164Y-123182D01*
X42869Y-123575D01*
X42515Y-123733D01*
X41925D01*
X41394Y-123969D01*
X41040Y-124441D01*
X40922Y-124991D01*
X41040Y-125542D01*
X41335Y-125935D01*
X41807Y-126171D01*
X42220Y-126250D01*
G01X46822D02*
X46940Y-125227D01*
X47117Y-124362D01*
X47353Y-123575D01*
X47648Y-122710D01*
X48120Y-121530D01*
X45760D01*
G01X50362Y-125306D02*
X50716Y-125857D01*
X51188Y-126171D01*
X51719Y-126250D01*
X52191Y-126171D01*
X52663Y-125778D01*
X52958Y-125306D01*
X53017Y-124834D01*
X52899Y-124283D01*
X52486Y-123890D01*
X52073Y-123733D01*
X51542D01*
G01X52073D02*
X52427Y-123497D01*
X52722Y-123103D01*
X52840Y-122631D01*
X52722Y-122159D01*
X52427Y-121766D01*
X51896Y-121530D01*
X51365Y-121609D01*
X50834Y-121923D01*
G01X55082Y-125542D02*
X55436Y-125935D01*
X55849Y-126171D01*
X56380Y-126250D01*
X56911Y-126093D01*
X57324Y-125778D01*
X57619Y-125227D01*
X57678Y-124598D01*
X57560Y-123969D01*
X57265Y-123575D01*
X56852Y-123261D01*
X56439Y-123182D01*
X56026Y-123261D01*
X55495Y-123575D01*
X55672Y-121530D01*
X57265D01*
G01X64522D02*
Y-124913D01*
X64758Y-125621D01*
X65230Y-126093D01*
X65820Y-126250D01*
X66410Y-126093D01*
X66882Y-125621D01*
X67118Y-124913D01*
Y-121530D01*
G01X69301Y-125621D02*
X69773Y-126014D01*
X70304Y-126250D01*
X70776D01*
X71248Y-126014D01*
X71602Y-125621D01*
X71779Y-125070D01*
X71661Y-124519D01*
X71366Y-124047D01*
X70835Y-123733D01*
X70127Y-123575D01*
X69714Y-123261D01*
X69537Y-122710D01*
X69655Y-122159D01*
X69950Y-121766D01*
X70363Y-121530D01*
X70776D01*
X71189Y-121687D01*
X71543Y-122081D01*
G01X73785Y-126250D02*
X75260Y-121530D01*
X76735Y-126250D01*
G01X76204Y-124598D02*
X74316D01*
G01X-29701Y-117283D02*
X-29288Y-116733D01*
X-28934Y-116418D01*
X-28462Y-116261D01*
X-28049Y-116418D01*
X-27754Y-116733D01*
X-27518Y-117205D01*
X-27459Y-117755D01*
X-27518Y-118227D01*
X-27754Y-118699D01*
X-28108Y-119093D01*
X-28521Y-119250D01*
X-28993Y-119093D01*
X-29406Y-118621D01*
X-29642Y-117913D01*
X-29701Y-117126D01*
X-29583Y-116103D01*
X-29406Y-115553D01*
X-29111Y-115002D01*
X-28698Y-114609D01*
X-28285Y-114530D01*
X-27872Y-114687D01*
X-27577Y-115081D01*
G01X-25158Y-118542D02*
X-24804Y-118935D01*
X-24391Y-119171D01*
X-23860Y-119250D01*
X-23329Y-119093D01*
X-22916Y-118778D01*
X-22621Y-118227D01*
X-22562Y-117598D01*
X-22680Y-116969D01*
X-22975Y-116575D01*
X-23388Y-116261D01*
X-23801Y-116182D01*
X-24214Y-116261D01*
X-24745Y-116575D01*
X-24568Y-114530D01*
X-22975D01*
G01X-19140D02*
X-19612Y-114687D01*
X-19966Y-115081D01*
X-20202Y-115553D01*
X-20379Y-116182D01*
X-20438Y-116890D01*
X-20379Y-117598D01*
X-20202Y-118227D01*
X-19966Y-118699D01*
X-19612Y-119093D01*
X-19140Y-119250D01*
X-18668Y-119093D01*
X-18314Y-118699D01*
X-18078Y-118227D01*
X-17901Y-117598D01*
X-17842Y-116890D01*
X-17901Y-116182D01*
X-18078Y-115553D01*
X-18314Y-115081D01*
X-18668Y-114687D01*
X-19140Y-114530D01*
G01X-14420Y-119250D02*
Y-114530D01*
X-15128Y-115474D01*
G01Y-119250D02*
X-13712D01*
G01X-6750Y-114530D02*
X-5924Y-119250D01*
X-4980Y-114530D01*
X-4036Y-119250D01*
X-3210Y-114530D01*
G01X-968D02*
X448D01*
G01X-260D02*
Y-119250D01*
G01X-968D02*
X448D01*
G01X3280Y-114530D02*
Y-119250D01*
X5640D01*
G01X8000Y-114530D02*
Y-119250D01*
X10360D01*
G01X13192Y-114530D02*
X14608D01*
G01X13900D02*
Y-119250D01*
G01X13192D02*
X14608D01*
G01X17145D02*
X18620Y-114530D01*
X20095Y-119250D01*
G01X19564Y-117598D02*
X17676D01*
G01X21806Y-119250D02*
Y-114530D01*
X23340Y-118463D01*
X24874Y-114530D01*
Y-119250D01*
G01X34078Y-114923D02*
X33724Y-114687D01*
X33311Y-114530D01*
X32839D01*
X32308Y-114766D01*
X31895Y-115159D01*
X31600Y-115631D01*
X31364Y-116418D01*
X31305Y-117126D01*
X31423Y-117834D01*
X31600Y-118306D01*
X31954Y-118778D01*
X32367Y-119093D01*
X32780Y-119250D01*
X33193D01*
X33606Y-119093D01*
X33960Y-118857D01*
X34255Y-118542D01*
G01X36025Y-119250D02*
X37500Y-114530D01*
X38975Y-119250D01*
G01X38444Y-117598D02*
X36556D01*
G01X40863Y-119250D02*
Y-114530D01*
X43577Y-119250D01*
Y-114530D01*
G01X45583Y-119250D02*
Y-114530D01*
X48297Y-119250D01*
Y-114530D01*
G01X51660Y-119250D02*
X51188Y-119171D01*
X50775Y-118857D01*
X50421Y-118385D01*
X50185Y-117834D01*
X50067Y-117205D01*
Y-116575D01*
X50185Y-115946D01*
X50421Y-115395D01*
X50775Y-114923D01*
X51188Y-114609D01*
X51660Y-114530D01*
X52132Y-114609D01*
X52545Y-114923D01*
X52899Y-115395D01*
X53135Y-115946D01*
X53253Y-116575D01*
Y-117205D01*
X53135Y-117834D01*
X52899Y-118385D01*
X52545Y-118857D01*
X52132Y-119171D01*
X51660Y-119250D01*
G01X55023D02*
Y-114530D01*
X57737Y-119250D01*
Y-114530D01*
G01X64522Y-119250D02*
Y-114530D01*
X65702D01*
X66174Y-114766D01*
X66528Y-115081D01*
X66823Y-115553D01*
X67059Y-116103D01*
X67118Y-116890D01*
X67059Y-117677D01*
X66823Y-118227D01*
X66528Y-118699D01*
X66174Y-119014D01*
X65702Y-119250D01*
X64522D01*
G01X69360D02*
Y-114530D01*
X70835D01*
X71307Y-114766D01*
X71602Y-115081D01*
X71720Y-115710D01*
X71602Y-116339D01*
X71248Y-116733D01*
X70835Y-116969D01*
X69360D01*
G01X70835D02*
X71720Y-119250D01*
G01X74552Y-114530D02*
X75968D01*
G01X75260D02*
Y-119250D01*
G01X74552D02*
X75968D01*
G01X78505Y-114530D02*
X79980Y-119250D01*
X81455Y-114530D01*
G01X85880Y-119250D02*
X83520D01*
Y-114530D01*
X85880D01*
G01X84936Y-116811D02*
X83520D01*
G01X92370Y-114530D02*
X93196Y-119250D01*
X94140Y-114530D01*
X95084Y-119250D01*
X95910Y-114530D01*
G01X100040Y-119250D02*
X97680D01*
Y-114530D01*
X100040D01*
G01X99096Y-116811D02*
X97680D01*
G01X102341Y-118621D02*
X102813Y-119014D01*
X103344Y-119250D01*
X103816D01*
X104288Y-119014D01*
X104642Y-118621D01*
X104819Y-118070D01*
X104701Y-117519D01*
X104406Y-117047D01*
X103875Y-116733D01*
X103167Y-116575D01*
X102754Y-116261D01*
X102577Y-115710D01*
X102695Y-115159D01*
X102990Y-114766D01*
X103403Y-114530D01*
X103816D01*
X104229Y-114687D01*
X104583Y-115081D01*
G01X108300Y-114530D02*
Y-119250D01*
G01X106943Y-114530D02*
X109657D01*
G01X-22580Y-131530D02*
Y-136250D01*
G01X-23937Y-131530D02*
X-21223D01*
G01X-19099Y-136250D02*
Y-131530D01*
G01X-16621D02*
Y-136250D01*
G01Y-133890D02*
X-19099D01*
G01X-13848Y-131530D02*
X-12432D01*
G01X-13140D02*
Y-136250D01*
G01X-13848D02*
X-12432D01*
G01X-9659Y-135621D02*
X-9187Y-136014D01*
X-8656Y-136250D01*
X-8184D01*
X-7712Y-136014D01*
X-7358Y-135621D01*
X-7181Y-135070D01*
X-7299Y-134519D01*
X-7594Y-134047D01*
X-8125Y-133733D01*
X-8833Y-133575D01*
X-9246Y-133261D01*
X-9423Y-132710D01*
X-9305Y-132159D01*
X-9010Y-131766D01*
X-8597Y-131530D01*
X-8184D01*
X-7771Y-131687D01*
X-7417Y-132081D01*
G01X-278Y-136250D02*
Y-131530D01*
X902D01*
X1374Y-131766D01*
X1728Y-132081D01*
X2023Y-132553D01*
X2259Y-133103D01*
X2318Y-133890D01*
X2259Y-134677D01*
X2023Y-135227D01*
X1728Y-135699D01*
X1374Y-136014D01*
X902Y-136250D01*
X-278D01*
G01X5740D02*
X5268Y-136171D01*
X4855Y-135857D01*
X4501Y-135385D01*
X4265Y-134834D01*
X4147Y-134205D01*
Y-133575D01*
X4265Y-132946D01*
X4501Y-132395D01*
X4855Y-131923D01*
X5268Y-131609D01*
X5740Y-131530D01*
X6212Y-131609D01*
X6625Y-131923D01*
X6979Y-132395D01*
X7215Y-132946D01*
X7333Y-133575D01*
Y-134205D01*
X7215Y-134834D01*
X6979Y-135385D01*
X6625Y-135857D01*
X6212Y-136171D01*
X5740Y-136250D01*
G01X11758Y-131923D02*
X11404Y-131687D01*
X10991Y-131530D01*
X10519D01*
X9988Y-131766D01*
X9575Y-132159D01*
X9280Y-132631D01*
X9044Y-133418D01*
X8985Y-134126D01*
X9103Y-134834D01*
X9280Y-135306D01*
X9634Y-135778D01*
X10047Y-136093D01*
X10460Y-136250D01*
X10873D01*
X11286Y-136093D01*
X11640Y-135857D01*
X11935Y-135542D01*
G01X13882Y-131530D02*
Y-134913D01*
X14118Y-135621D01*
X14590Y-136093D01*
X15180Y-136250D01*
X15770Y-136093D01*
X16242Y-135621D01*
X16478Y-134913D01*
Y-131530D01*
G01X18366Y-136250D02*
Y-131530D01*
X19900Y-135463D01*
X21434Y-131530D01*
Y-136250D01*
G01X25800D02*
X23440D01*
Y-131530D01*
X25800D01*
G01X24856Y-133811D02*
X23440D01*
G01X27983Y-136250D02*
Y-131530D01*
X30697Y-136250D01*
Y-131530D01*
G01X34060D02*
Y-136250D01*
G01X32703Y-131530D02*
X35417D01*
G01X44798Y-131923D02*
X44444Y-131687D01*
X44031Y-131530D01*
X43559D01*
X43028Y-131766D01*
X42615Y-132159D01*
X42320Y-132631D01*
X42084Y-133418D01*
X42025Y-134126D01*
X42143Y-134834D01*
X42320Y-135306D01*
X42674Y-135778D01*
X43087Y-136093D01*
X43500Y-136250D01*
X43913D01*
X44326Y-136093D01*
X44680Y-135857D01*
X44975Y-135542D01*
G01X48220Y-136250D02*
X47748Y-136171D01*
X47335Y-135857D01*
X46981Y-135385D01*
X46745Y-134834D01*
X46627Y-134205D01*
Y-133575D01*
X46745Y-132946D01*
X46981Y-132395D01*
X47335Y-131923D01*
X47748Y-131609D01*
X48220Y-131530D01*
X48692Y-131609D01*
X49105Y-131923D01*
X49459Y-132395D01*
X49695Y-132946D01*
X49813Y-133575D01*
Y-134205D01*
X49695Y-134834D01*
X49459Y-135385D01*
X49105Y-135857D01*
X48692Y-136171D01*
X48220Y-136250D01*
G01X51583D02*
Y-131530D01*
X54297Y-136250D01*
Y-131530D01*
G01X57660D02*
Y-136250D01*
G01X56303Y-131530D02*
X59017D01*
G01X60905Y-136250D02*
X62380Y-131530D01*
X63855Y-136250D01*
G01X63324Y-134598D02*
X61436D01*
G01X66392Y-131530D02*
X67808D01*
G01X67100D02*
Y-136250D01*
G01X66392D02*
X67808D01*
G01X70463D02*
Y-131530D01*
X73177Y-136250D01*
Y-131530D01*
G01X75301Y-135621D02*
X75773Y-136014D01*
X76304Y-136250D01*
X76776D01*
X77248Y-136014D01*
X77602Y-135621D01*
X77779Y-135070D01*
X77661Y-134519D01*
X77366Y-134047D01*
X76835Y-133733D01*
X76127Y-133575D01*
X75714Y-133261D01*
X75537Y-132710D01*
X75655Y-132159D01*
X75950Y-131766D01*
X76363Y-131530D01*
X76776D01*
X77189Y-131687D01*
X77543Y-132081D01*
G01X85272Y-131530D02*
X86688D01*
G01X85980D02*
Y-136250D01*
G01X85272D02*
X86688D01*
G01X89343D02*
Y-131530D01*
X92057Y-136250D01*
Y-131530D01*
G01X94299Y-136250D02*
Y-131530D01*
X96541D01*
G01X95715Y-133811D02*
X94299D01*
G01X100140Y-136250D02*
X99668Y-136171D01*
X99255Y-135857D01*
X98901Y-135385D01*
X98665Y-134834D01*
X98547Y-134205D01*
Y-133575D01*
X98665Y-132946D01*
X98901Y-132395D01*
X99255Y-131923D01*
X99668Y-131609D01*
X100140Y-131530D01*
X100612Y-131609D01*
X101025Y-131923D01*
X101379Y-132395D01*
X101615Y-132946D01*
X101733Y-133575D01*
Y-134205D01*
X101615Y-134834D01*
X101379Y-135385D01*
X101025Y-135857D01*
X100612Y-136171D01*
X100140Y-136250D01*
G01X103680D02*
Y-131530D01*
X105155D01*
X105627Y-131766D01*
X105922Y-132081D01*
X106040Y-132710D01*
X105922Y-133339D01*
X105568Y-133733D01*
X105155Y-133969D01*
X103680D01*
G01X105155D02*
X106040Y-136250D01*
G01X108046D02*
Y-131530D01*
X109580Y-135463D01*
X111114Y-131530D01*
Y-136250D01*
G01X112825D02*
X114300Y-131530D01*
X115775Y-136250D01*
G01X115244Y-134598D02*
X113356D01*
G01X119020Y-131530D02*
Y-136250D01*
G01X117663Y-131530D02*
X120377D01*
G01X123032D02*
X124448D01*
G01X123740D02*
Y-136250D01*
G01X123032D02*
X124448D01*
G01X128460D02*
X127988Y-136171D01*
X127575Y-135857D01*
X127221Y-135385D01*
X126985Y-134834D01*
X126867Y-134205D01*
Y-133575D01*
X126985Y-132946D01*
X127221Y-132395D01*
X127575Y-131923D01*
X127988Y-131609D01*
X128460Y-131530D01*
X128932Y-131609D01*
X129345Y-131923D01*
X129699Y-132395D01*
X129935Y-132946D01*
X130053Y-133575D01*
Y-134205D01*
X129935Y-134834D01*
X129699Y-135385D01*
X129345Y-135857D01*
X128932Y-136171D01*
X128460Y-136250D01*
G01X131823D02*
Y-131530D01*
X134537Y-136250D01*
Y-131530D01*
G01X20299Y-187250D02*
Y-182530D01*
X22541D01*
G01X21715Y-184811D02*
X20299D01*
G01X25432Y-182530D02*
X26848D01*
G01X26140D02*
Y-187250D01*
G01X25432D02*
X26848D01*
G01X29680Y-182530D02*
Y-187250D01*
X32040D01*
G01X34046D02*
Y-182530D01*
X35580Y-186463D01*
X37114Y-182530D01*
Y-187250D01*
G01X148420Y-190530D02*
X147948Y-190687D01*
X147594Y-191081D01*
X147358Y-191553D01*
X147181Y-192182D01*
X147122Y-192890D01*
X147181Y-193598D01*
X147358Y-194227D01*
X147594Y-194699D01*
X147948Y-195093D01*
X148420Y-195250D01*
X148892Y-195093D01*
X149246Y-194699D01*
X149482Y-194227D01*
X149659Y-193598D01*
X149718Y-192890D01*
X149659Y-192182D01*
X149482Y-191553D01*
X149246Y-191081D01*
X148892Y-190687D01*
X148420Y-190530D01*
G01X152137Y-194699D02*
X152550Y-195093D01*
X153022Y-195250D01*
X153494Y-195093D01*
X153907Y-194621D01*
X154202Y-193913D01*
X154320Y-193205D01*
Y-192339D01*
X154202Y-191631D01*
X153907Y-191002D01*
X153553Y-190687D01*
X153140Y-190530D01*
X152668Y-190687D01*
X152314Y-191002D01*
X152078Y-191474D01*
X151960Y-192103D01*
X152078Y-192654D01*
X152373Y-193205D01*
X152727Y-193519D01*
X153140Y-193598D01*
X153612Y-193441D01*
X153966Y-193047D01*
X154320Y-192339D01*
G01X157093Y-193677D02*
X158627D01*
G01X162580Y-195250D02*
Y-190530D01*
X161872Y-191474D01*
G01Y-195250D02*
X163288D01*
G01X166297Y-194699D02*
X166710Y-195093D01*
X167182Y-195250D01*
X167654Y-195093D01*
X168067Y-194621D01*
X168362Y-193913D01*
X168480Y-193205D01*
Y-192339D01*
X168362Y-191631D01*
X168067Y-191002D01*
X167713Y-190687D01*
X167300Y-190530D01*
X166828Y-190687D01*
X166474Y-191002D01*
X166238Y-191474D01*
X166120Y-192103D01*
X166238Y-192654D01*
X166533Y-193205D01*
X166887Y-193519D01*
X167300Y-193598D01*
X167772Y-193441D01*
X168126Y-193047D01*
X168480Y-192339D01*
G01X171253Y-193677D02*
X172787D01*
G01X176740Y-195250D02*
Y-190530D01*
X176032Y-191474D01*
G01Y-195250D02*
X177448D01*
G01X180162Y-194306D02*
X180516Y-194857D01*
X180988Y-195171D01*
X181519Y-195250D01*
X181991Y-195171D01*
X182463Y-194778D01*
X182758Y-194306D01*
X182817Y-193834D01*
X182699Y-193283D01*
X182286Y-192890D01*
X181873Y-192733D01*
X181342D01*
G01X181873D02*
X182227Y-192497D01*
X182522Y-192103D01*
X182640Y-191631D01*
X182522Y-191159D01*
X182227Y-190766D01*
X181696Y-190530D01*
X181165Y-190609D01*
X180634Y-190923D01*
G01X145122Y-187250D02*
Y-182530D01*
X146302D01*
X146774Y-182766D01*
X147128Y-183081D01*
X147423Y-183553D01*
X147659Y-184103D01*
X147718Y-184890D01*
X147659Y-185677D01*
X147423Y-186227D01*
X147128Y-186699D01*
X146774Y-187014D01*
X146302Y-187250D01*
X145122D01*
G01X149665D02*
X151140Y-182530D01*
X152615Y-187250D01*
G01X152084Y-185598D02*
X150196D01*
G01X155860Y-182530D02*
Y-187250D01*
G01X154503Y-182530D02*
X157217D01*
G01X161760Y-187250D02*
X159400D01*
Y-182530D01*
X161760D01*
G01X160816Y-184811D02*
X159400D01*
G01X145063Y-107250D02*
Y-102530D01*
X147777Y-107250D01*
Y-102530D01*
G01X149665Y-107250D02*
X151140Y-102530D01*
X152615Y-107250D01*
G01X152084Y-105598D02*
X150196D01*
G01X154326Y-107250D02*
Y-102530D01*
X155860Y-106463D01*
X157394Y-102530D01*
Y-107250D01*
G01X161760D02*
X159400D01*
Y-102530D01*
X161760D01*
G01X160816Y-104811D02*
X159400D01*
G01X154650Y-173323D02*
X158190D01*
G01X159370D02*
X162910D01*
G01X164090D02*
X167630D01*
G01X174179Y-171750D02*
Y-167030D01*
X176421D01*
G01X175595Y-169311D02*
X174179D01*
G01X181318Y-167423D02*
X180964Y-167187D01*
X180551Y-167030D01*
X180079D01*
X179548Y-167266D01*
X179135Y-167659D01*
X178840Y-168131D01*
X178604Y-168918D01*
X178545Y-169626D01*
X178663Y-170334D01*
X178840Y-170806D01*
X179194Y-171278D01*
X179607Y-171593D01*
X180020Y-171750D01*
X180433D01*
X180846Y-171593D01*
X181200Y-171357D01*
X181495Y-171042D01*
G01X183560Y-171750D02*
Y-167030D01*
X184976D01*
X185448Y-167266D01*
X185802Y-167817D01*
X185920Y-168446D01*
X185802Y-169075D01*
X185507Y-169547D01*
X184976Y-169783D01*
X183560D01*
G01X193885Y-173323D02*
X193295Y-172537D01*
X193000Y-171750D01*
Y-168603D01*
X193295Y-167817D01*
X193885Y-167030D01*
G01X197779Y-171750D02*
Y-167030D01*
X200021D01*
G01X199195Y-169311D02*
X197779D01*
G01X202440Y-171750D02*
Y-167030D01*
X203915D01*
X204387Y-167266D01*
X204682Y-167581D01*
X204800Y-168210D01*
X204682Y-168839D01*
X204328Y-169233D01*
X203915Y-169469D01*
X202440D01*
G01X203915D02*
X204800Y-171750D01*
G01X209520D02*
X207160D01*
Y-167030D01*
X209520D01*
G01X208576Y-169311D02*
X207160D01*
G01X214240Y-171750D02*
X211880D01*
Y-167030D01*
X214240D01*
G01X213296Y-169311D02*
X211880D01*
G01X216541Y-171121D02*
X217013Y-171514D01*
X217544Y-171750D01*
X218016D01*
X218488Y-171514D01*
X218842Y-171121D01*
X219019Y-170570D01*
X218901Y-170019D01*
X218606Y-169547D01*
X218075Y-169233D01*
X217367Y-169075D01*
X216954Y-168761D01*
X216777Y-168210D01*
X216895Y-167659D01*
X217190Y-167266D01*
X217603Y-167030D01*
X218016D01*
X218429Y-167187D01*
X218783Y-167581D01*
G01X223798Y-167423D02*
X223444Y-167187D01*
X223031Y-167030D01*
X222559D01*
X222028Y-167266D01*
X221615Y-167659D01*
X221320Y-168131D01*
X221084Y-168918D01*
X221025Y-169626D01*
X221143Y-170334D01*
X221320Y-170806D01*
X221674Y-171278D01*
X222087Y-171593D01*
X222500Y-171750D01*
X222913D01*
X223326Y-171593D01*
X223680Y-171357D01*
X223975Y-171042D01*
G01X225745Y-171750D02*
X227220Y-167030D01*
X228695Y-171750D01*
G01X228164Y-170098D02*
X226276D01*
G01X230760Y-167030D02*
Y-171750D01*
X233120D01*
G01X237840D02*
X235480D01*
Y-167030D01*
X237840D01*
G01X236896Y-169311D02*
X235480D01*
G01X247398Y-167423D02*
X247044Y-167187D01*
X246631Y-167030D01*
X246159D01*
X245628Y-167266D01*
X245215Y-167659D01*
X244920Y-168131D01*
X244684Y-168918D01*
X244625Y-169626D01*
X244743Y-170334D01*
X244920Y-170806D01*
X245274Y-171278D01*
X245687Y-171593D01*
X246100Y-171750D01*
X246513D01*
X246926Y-171593D01*
X247280Y-171357D01*
X247575Y-171042D01*
G01X250820Y-171750D02*
X250348Y-171671D01*
X249935Y-171357D01*
X249581Y-170885D01*
X249345Y-170334D01*
X249227Y-169705D01*
Y-169075D01*
X249345Y-168446D01*
X249581Y-167895D01*
X249935Y-167423D01*
X250348Y-167109D01*
X250820Y-167030D01*
X251292Y-167109D01*
X251705Y-167423D01*
X252059Y-167895D01*
X252295Y-168446D01*
X252413Y-169075D01*
Y-169705D01*
X252295Y-170334D01*
X252059Y-170885D01*
X251705Y-171357D01*
X251292Y-171671D01*
X250820Y-171750D01*
G01X254183D02*
Y-167030D01*
X256897Y-171750D01*
Y-167030D01*
G01X259139Y-171750D02*
Y-167030D01*
X261381D01*
G01X260555Y-169311D02*
X259139D01*
G01X264272Y-167030D02*
X265688D01*
G01X264980D02*
Y-171750D01*
G01X264272D02*
X265688D01*
G01X268402D02*
Y-167030D01*
X269582D01*
X270054Y-167266D01*
X270408Y-167581D01*
X270703Y-168053D01*
X270939Y-168603D01*
X270998Y-169390D01*
X270939Y-170177D01*
X270703Y-170727D01*
X270408Y-171199D01*
X270054Y-171514D01*
X269582Y-171750D01*
X268402D01*
G01X275600D02*
X273240D01*
Y-167030D01*
X275600D01*
G01X274656Y-169311D02*
X273240D01*
G01X277783Y-171750D02*
Y-167030D01*
X280497Y-171750D01*
Y-167030D01*
G01X283860D02*
Y-171750D01*
G01X282503Y-167030D02*
X285217D01*
G01X287872D02*
X289288D01*
G01X288580D02*
Y-171750D01*
G01X287872D02*
X289288D01*
G01X291825D02*
X293300Y-167030D01*
X294775Y-171750D01*
G01X294244Y-170098D02*
X292356D01*
G01X296840Y-167030D02*
Y-171750D01*
X299200D01*
G01X306280D02*
Y-167030D01*
X307696D01*
X308168Y-167266D01*
X308522Y-167817D01*
X308640Y-168446D01*
X308522Y-169075D01*
X308227Y-169547D01*
X307696Y-169783D01*
X306280D01*
G01X311000Y-171750D02*
Y-167030D01*
X312475D01*
X312947Y-167266D01*
X313242Y-167581D01*
X313360Y-168210D01*
X313242Y-168839D01*
X312888Y-169233D01*
X312475Y-169469D01*
X311000D01*
G01X312475D02*
X313360Y-171750D01*
G01X316900D02*
X316428Y-171671D01*
X316015Y-171357D01*
X315661Y-170885D01*
X315425Y-170334D01*
X315307Y-169705D01*
Y-169075D01*
X315425Y-168446D01*
X315661Y-167895D01*
X316015Y-167423D01*
X316428Y-167109D01*
X316900Y-167030D01*
X317372Y-167109D01*
X317785Y-167423D01*
X318139Y-167895D01*
X318375Y-168446D01*
X318493Y-169075D01*
Y-169705D01*
X318375Y-170334D01*
X318139Y-170885D01*
X317785Y-171357D01*
X317372Y-171671D01*
X316900Y-171750D01*
G01X320440D02*
Y-167030D01*
X321856D01*
X322328Y-167266D01*
X322682Y-167817D01*
X322800Y-168446D01*
X322682Y-169075D01*
X322387Y-169547D01*
X321856Y-169783D01*
X320440D01*
G01X325160Y-171750D02*
Y-167030D01*
X326635D01*
X327107Y-167266D01*
X327402Y-167581D01*
X327520Y-168210D01*
X327402Y-168839D01*
X327048Y-169233D01*
X326635Y-169469D01*
X325160D01*
G01X326635D02*
X327520Y-171750D01*
G01X330352Y-167030D02*
X331768D01*
G01X331060D02*
Y-171750D01*
G01X330352D02*
X331768D01*
G01X336960D02*
X334600D01*
Y-167030D01*
X336960D01*
G01X336016Y-169311D02*
X334600D01*
G01X340500Y-167030D02*
Y-171750D01*
G01X339143Y-167030D02*
X341857D01*
G01X343745Y-171750D02*
X345220Y-167030D01*
X346695Y-171750D01*
G01X346164Y-170098D02*
X344276D01*
G01X348760Y-171750D02*
Y-167030D01*
X350235D01*
X350707Y-167266D01*
X351002Y-167581D01*
X351120Y-168210D01*
X351002Y-168839D01*
X350648Y-169233D01*
X350235Y-169469D01*
X348760D01*
G01X350235D02*
X351120Y-171750D01*
G01X354660D02*
Y-169626D01*
X353480Y-167030D01*
G01X355840D02*
X354660Y-169626D01*
G01X359675Y-173323D02*
X360265Y-172537D01*
X360560Y-171750D01*
Y-168603D01*
X360265Y-167817D01*
X359675Y-167030D01*
G01X154650Y-156823D02*
X158190D01*
G01X159370D02*
X162910D01*
G01X164090D02*
X167630D01*
G01X174179Y-155250D02*
Y-150530D01*
X176421D01*
G01X175595Y-152811D02*
X174179D01*
G01X179312Y-150530D02*
X180728D01*
G01X180020D02*
Y-155250D01*
G01X179312D02*
X180728D01*
G01X183442Y-150530D02*
Y-153913D01*
X183678Y-154621D01*
X184150Y-155093D01*
X184740Y-155250D01*
X185330Y-155093D01*
X185802Y-154621D01*
X186038Y-153913D01*
Y-150530D01*
G01X189460Y-155250D02*
X188988Y-155171D01*
X188575Y-154857D01*
X188221Y-154385D01*
X187985Y-153834D01*
X187867Y-153205D01*
Y-152575D01*
X187985Y-151946D01*
X188221Y-151395D01*
X188575Y-150923D01*
X188988Y-150609D01*
X189460Y-150530D01*
X189932Y-150609D01*
X190345Y-150923D01*
X190699Y-151395D01*
X190935Y-151946D01*
X191053Y-152575D01*
Y-153205D01*
X190935Y-153834D01*
X190699Y-154385D01*
X190345Y-154857D01*
X189932Y-155171D01*
X189460Y-155250D01*
G01X198605Y-156823D02*
X198015Y-156037D01*
X197720Y-155250D01*
Y-152103D01*
X198015Y-151317D01*
X198605Y-150530D01*
G01X202499Y-155250D02*
Y-150530D01*
X204741D01*
G01X203915Y-152811D02*
X202499D01*
G01X207160Y-155250D02*
Y-150530D01*
X208635D01*
X209107Y-150766D01*
X209402Y-151081D01*
X209520Y-151710D01*
X209402Y-152339D01*
X209048Y-152733D01*
X208635Y-152969D01*
X207160D01*
G01X208635D02*
X209520Y-155250D01*
G01X214240D02*
X211880D01*
Y-150530D01*
X214240D01*
G01X213296Y-152811D02*
X211880D01*
G01X218960Y-155250D02*
X216600D01*
Y-150530D01*
X218960D01*
G01X218016Y-152811D02*
X216600D01*
G01X221261Y-154621D02*
X221733Y-155014D01*
X222264Y-155250D01*
X222736D01*
X223208Y-155014D01*
X223562Y-154621D01*
X223739Y-154070D01*
X223621Y-153519D01*
X223326Y-153047D01*
X222795Y-152733D01*
X222087Y-152575D01*
X221674Y-152261D01*
X221497Y-151710D01*
X221615Y-151159D01*
X221910Y-150766D01*
X222323Y-150530D01*
X222736D01*
X223149Y-150687D01*
X223503Y-151081D01*
G01X228518Y-150923D02*
X228164Y-150687D01*
X227751Y-150530D01*
X227279D01*
X226748Y-150766D01*
X226335Y-151159D01*
X226040Y-151631D01*
X225804Y-152418D01*
X225745Y-153126D01*
X225863Y-153834D01*
X226040Y-154306D01*
X226394Y-154778D01*
X226807Y-155093D01*
X227220Y-155250D01*
X227633D01*
X228046Y-155093D01*
X228400Y-154857D01*
X228695Y-154542D01*
G01X230465Y-155250D02*
X231940Y-150530D01*
X233415Y-155250D01*
G01X232884Y-153598D02*
X230996D01*
G01X235480Y-150530D02*
Y-155250D01*
X237840D01*
G01X242560D02*
X240200D01*
Y-150530D01*
X242560D01*
G01X241616Y-152811D02*
X240200D01*
G01X250112Y-150530D02*
X251528D01*
G01X250820D02*
Y-155250D01*
G01X250112D02*
X251528D01*
G01X254183D02*
Y-150530D01*
X256897Y-155250D01*
Y-150530D01*
G01X260260D02*
Y-155250D01*
G01X258903Y-150530D02*
X261617D01*
G01X266160Y-155250D02*
X263800D01*
Y-150530D01*
X266160D01*
G01X265216Y-152811D02*
X263800D01*
G01X268520Y-155250D02*
Y-150530D01*
X269995D01*
X270467Y-150766D01*
X270762Y-151081D01*
X270880Y-151710D01*
X270762Y-152339D01*
X270408Y-152733D01*
X269995Y-152969D01*
X268520D01*
G01X269995D02*
X270880Y-155250D01*
G01X273063D02*
Y-150530D01*
X275777Y-155250D01*
Y-150530D01*
G01X277665Y-155250D02*
X279140Y-150530D01*
X280615Y-155250D01*
G01X280084Y-153598D02*
X278196D01*
G01X282680Y-150530D02*
Y-155250D01*
X285040D01*
G01X292002Y-150530D02*
Y-153913D01*
X292238Y-154621D01*
X292710Y-155093D01*
X293300Y-155250D01*
X293890Y-155093D01*
X294362Y-154621D01*
X294598Y-153913D01*
Y-150530D01*
G01X296781Y-154621D02*
X297253Y-155014D01*
X297784Y-155250D01*
X298256D01*
X298728Y-155014D01*
X299082Y-154621D01*
X299259Y-154070D01*
X299141Y-153519D01*
X298846Y-153047D01*
X298315Y-152733D01*
X297607Y-152575D01*
X297194Y-152261D01*
X297017Y-151710D01*
X297135Y-151159D01*
X297430Y-150766D01*
X297843Y-150530D01*
X298256D01*
X298669Y-150687D01*
X299023Y-151081D01*
G01X303920Y-155250D02*
X301560D01*
Y-150530D01*
X303920D01*
G01X302976Y-152811D02*
X301560D01*
G01X312180Y-155250D02*
X311708Y-155171D01*
X311295Y-154857D01*
X310941Y-154385D01*
X310705Y-153834D01*
X310587Y-153205D01*
Y-152575D01*
X310705Y-151946D01*
X310941Y-151395D01*
X311295Y-150923D01*
X311708Y-150609D01*
X312180Y-150530D01*
X312652Y-150609D01*
X313065Y-150923D01*
X313419Y-151395D01*
X313655Y-151946D01*
X313773Y-152575D01*
Y-153205D01*
X313655Y-153834D01*
X313419Y-154385D01*
X313065Y-154857D01*
X312652Y-155171D01*
X312180Y-155250D01*
G01X315543D02*
Y-150530D01*
X318257Y-155250D01*
Y-150530D01*
G01X320440D02*
Y-155250D01*
X322800D01*
G01X326340D02*
Y-153126D01*
X325160Y-150530D01*
G01X327520D02*
X326340Y-153126D01*
G01X331355Y-156823D02*
X331945Y-156037D01*
X332240Y-155250D01*
Y-152103D01*
X331945Y-151317D01*
X331355Y-150530D01*
G01X154650Y-140823D02*
X158190D01*
G01X159370D02*
X162910D01*
G01X164090D02*
X167630D01*
G01X174120Y-139250D02*
Y-134530D01*
X175536D01*
X176008Y-134766D01*
X176362Y-135317D01*
X176480Y-135946D01*
X176362Y-136575D01*
X176067Y-137047D01*
X175536Y-137283D01*
X174120D01*
G01X178722Y-134530D02*
Y-137913D01*
X178958Y-138621D01*
X179430Y-139093D01*
X180020Y-139250D01*
X180610Y-139093D01*
X181082Y-138621D01*
X181318Y-137913D01*
Y-134530D01*
G01X185212Y-136733D02*
X185448Y-136497D01*
X185625Y-136103D01*
X185743Y-135553D01*
X185625Y-135081D01*
X185389Y-134766D01*
X184976Y-134530D01*
X183383D01*
Y-139250D01*
X185330D01*
X185743Y-138935D01*
X185979Y-138463D01*
X186097Y-137913D01*
X185979Y-137362D01*
X185625Y-136890D01*
X185212Y-136733D01*
X183383D01*
G01X188752Y-134530D02*
X190168D01*
G01X189460D02*
Y-139250D01*
G01X188752D02*
X190168D01*
G01X198605Y-140823D02*
X198015Y-140037D01*
X197720Y-139250D01*
Y-136103D01*
X198015Y-135317D01*
X198605Y-134530D01*
G01X202440Y-139250D02*
Y-134530D01*
X203856D01*
X204328Y-134766D01*
X204682Y-135317D01*
X204800Y-135946D01*
X204682Y-136575D01*
X204387Y-137047D01*
X203856Y-137283D01*
X202440D01*
G01X207042Y-134530D02*
Y-137913D01*
X207278Y-138621D01*
X207750Y-139093D01*
X208340Y-139250D01*
X208930Y-139093D01*
X209402Y-138621D01*
X209638Y-137913D01*
Y-134530D01*
G01X213532Y-136733D02*
X213768Y-136497D01*
X213945Y-136103D01*
X214063Y-135553D01*
X213945Y-135081D01*
X213709Y-134766D01*
X213296Y-134530D01*
X211703D01*
Y-139250D01*
X213650D01*
X214063Y-138935D01*
X214299Y-138463D01*
X214417Y-137913D01*
X214299Y-137362D01*
X213945Y-136890D01*
X213532Y-136733D01*
X211703D01*
G01X216600Y-134530D02*
Y-139250D01*
X218960D01*
G01X221792Y-134530D02*
X223208D01*
G01X222500D02*
Y-139250D01*
G01X221792D02*
X223208D01*
G01X228518Y-134923D02*
X228164Y-134687D01*
X227751Y-134530D01*
X227279D01*
X226748Y-134766D01*
X226335Y-135159D01*
X226040Y-135631D01*
X225804Y-136418D01*
X225745Y-137126D01*
X225863Y-137834D01*
X226040Y-138306D01*
X226394Y-138778D01*
X226807Y-139093D01*
X227220Y-139250D01*
X227633D01*
X228046Y-139093D01*
X228400Y-138857D01*
X228695Y-138542D01*
G01X235952Y-134530D02*
X237368D01*
G01X236660D02*
Y-139250D01*
G01X235952D02*
X237368D01*
G01X240023D02*
Y-134530D01*
X242737Y-139250D01*
Y-134530D01*
G01X244979Y-139250D02*
Y-134530D01*
X247221D01*
G01X246395Y-136811D02*
X244979D01*
G01X250820Y-139250D02*
X250348Y-139171D01*
X249935Y-138857D01*
X249581Y-138385D01*
X249345Y-137834D01*
X249227Y-137205D01*
Y-136575D01*
X249345Y-135946D01*
X249581Y-135395D01*
X249935Y-134923D01*
X250348Y-134609D01*
X250820Y-134530D01*
X251292Y-134609D01*
X251705Y-134923D01*
X252059Y-135395D01*
X252295Y-135946D01*
X252413Y-136575D01*
Y-137205D01*
X252295Y-137834D01*
X252059Y-138385D01*
X251705Y-138857D01*
X251292Y-139171D01*
X250820Y-139250D01*
G01X254360D02*
Y-134530D01*
X255835D01*
X256307Y-134766D01*
X256602Y-135081D01*
X256720Y-135710D01*
X256602Y-136339D01*
X256248Y-136733D01*
X255835Y-136969D01*
X254360D01*
G01X255835D02*
X256720Y-139250D01*
G01X258726D02*
Y-134530D01*
X260260Y-138463D01*
X261794Y-134530D01*
Y-139250D01*
G01X263505D02*
X264980Y-134530D01*
X266455Y-139250D01*
G01X265924Y-137598D02*
X264036D01*
G01X269700Y-134530D02*
Y-139250D01*
G01X268343Y-134530D02*
X271057D01*
G01X273712D02*
X275128D01*
G01X274420D02*
Y-139250D01*
G01X273712D02*
X275128D01*
G01X279140D02*
X278668Y-139171D01*
X278255Y-138857D01*
X277901Y-138385D01*
X277665Y-137834D01*
X277547Y-137205D01*
Y-136575D01*
X277665Y-135946D01*
X277901Y-135395D01*
X278255Y-134923D01*
X278668Y-134609D01*
X279140Y-134530D01*
X279612Y-134609D01*
X280025Y-134923D01*
X280379Y-135395D01*
X280615Y-135946D01*
X280733Y-136575D01*
Y-137205D01*
X280615Y-137834D01*
X280379Y-138385D01*
X280025Y-138857D01*
X279612Y-139171D01*
X279140Y-139250D01*
G01X282503D02*
Y-134530D01*
X285217Y-139250D01*
Y-134530D01*
G01X288875Y-140823D02*
X289465Y-140037D01*
X289760Y-139250D01*
Y-136103D01*
X289465Y-135317D01*
X288875Y-134530D01*
G01X195063Y-187250D02*
Y-182530D01*
X197777Y-187250D01*
Y-182530D01*
G01X199842D02*
Y-185913D01*
X200078Y-186621D01*
X200550Y-187093D01*
X201140Y-187250D01*
X201730Y-187093D01*
X202202Y-186621D01*
X202438Y-185913D01*
Y-182530D01*
G01X204326Y-187250D02*
Y-182530D01*
X205860Y-186463D01*
X207394Y-182530D01*
Y-187250D01*
G01X211052Y-184733D02*
X211288Y-184497D01*
X211465Y-184103D01*
X211583Y-183553D01*
X211465Y-183081D01*
X211229Y-182766D01*
X210816Y-182530D01*
X209223D01*
Y-187250D01*
X211170D01*
X211583Y-186935D01*
X211819Y-186463D01*
X211937Y-185913D01*
X211819Y-185362D01*
X211465Y-184890D01*
X211052Y-184733D01*
X209223D01*
G01X216480Y-187250D02*
X214120D01*
Y-182530D01*
X216480D01*
G01X215536Y-184811D02*
X214120D01*
G01X218840Y-187250D02*
Y-182530D01*
X220315D01*
X220787Y-182766D01*
X221082Y-183081D01*
X221200Y-183710D01*
X221082Y-184339D01*
X220728Y-184733D01*
X220315Y-184969D01*
X218840D01*
G01X220315D02*
X221200Y-187250D01*
G54D69*
G01X-619Y66832D02*
X4100D01*
G01X-619Y77068D02*
X3868D01*
G54D79*
G01X22700Y151035D02*
X19435D01*
X16050Y147650D01*
X-5100D01*
X-12050Y140700D01*
Y120900D01*
X-8400Y117250D01*
X4638D01*
X8450Y121062D01*
Y126350D01*
G01X-1550D02*
Y121062D01*
X-3712Y118900D01*
X-7750D01*
X-10500Y121650D01*
Y139500D01*
X-4450Y145550D01*
X16350D01*
X19865Y149065D01*
X22700D01*
G01X10150Y-11850D02*
Y-18150D01*
X19750Y-27750D01*
Y-29646D01*
X19736Y-29660D01*
Y-38198D01*
G01X16150Y-11850D02*
Y-18150D01*
X23673Y-25673D01*
Y-38198D01*
G01X22450Y-11850D02*
Y-20350D01*
X27610Y-25510D01*
Y-38198D01*
G01X12750Y-23950D02*
X7925Y-28775D01*
Y-38198D01*
G01X16150Y-5850D02*
Y-3300D01*
X17750Y-1700D01*
G01X23862Y-1900D02*
X22450Y-3312D01*
Y-5850D01*
G01X10150D02*
X10650D01*
X12950Y-3550D01*
Y-2150D01*
G01X-1350Y20050D02*
X3350D01*
X6050Y22750D01*
Y39950D01*
G01D02*
X17650D01*
G01X30850D02*
Y44950D01*
X6409Y69391D01*
X-619D01*
G01X44725Y103125D02*
X42850Y101250D01*
X27150D01*
X26200Y100300D01*
X4050D01*
X3000Y101350D01*
X-1399D01*
G01D02*
Y97600D01*
G01X-7450Y106750D02*
Y104712D01*
X-7501Y104661D01*
Y101350D01*
G01X13450Y126350D02*
X16750Y129650D01*
Y141363D01*
X20512Y145125D01*
X22700D01*
G01X20526Y112950D02*
Y107026D01*
X19350Y105850D01*
G01X20526Y112950D02*
Y116300D01*
X22350Y118124D01*
Y121650D01*
G01D02*
Y133650D01*
X25255Y136555D01*
Y140600D01*
G01X22650Y140350D02*
X22700Y140400D01*
Y143155D01*
G01X3500Y143600D02*
X16700D01*
X20195Y147095D01*
X22700D01*
G01X2950Y153050D02*
X-1499D01*
G01X-7650Y158350D02*
Y155437D01*
X-7601Y155388D01*
Y153050D01*
G01X17750Y224450D02*
Y226988D01*
X15250Y229488D01*
Y236050D01*
X11862Y239438D01*
Y250902D01*
G01X14650Y222050D02*
X17050Y224450D01*
X17750D01*
G01X3150Y224300D02*
Y233450D01*
X3988Y234288D01*
Y250902D01*
G01X7925D02*
Y236575D01*
X11015Y233485D01*
Y225915D01*
X9750Y224650D01*
G01X14950Y215400D02*
X17238D01*
X17750Y215912D01*
Y218450D01*
G01X21600Y232500D02*
X19736Y234364D01*
Y250902D01*
G01X17700Y232450D02*
Y239150D01*
X15799Y241051D01*
Y250902D01*
G01X28250Y-11850D02*
Y-22050D01*
X31547Y-25347D01*
Y-38198D01*
G01X34050Y-11850D02*
Y-23250D01*
X35484Y-24684D01*
Y-38198D01*
G01X32450Y-2050D02*
X29512D01*
X28250Y-3312D01*
Y-5850D01*
G01X34050D02*
X34550D01*
X37200Y-3200D01*
Y-2100D01*
G01X55050Y53200D02*
Y59100D01*
X45000Y69150D01*
G01X41125Y95550D02*
Y80550D01*
G01X51375Y95550D02*
X41125D01*
G01X51375D02*
Y92525D01*
G01X44725Y106291D02*
Y103125D01*
G01X33135Y140600D02*
Y136865D01*
X35750Y134250D01*
X42750D01*
X44600Y132400D01*
Y128100D01*
X45250Y127450D01*
Y115350D01*
X46300Y114300D01*
Y111409D01*
G01X33350Y130350D02*
Y133950D01*
X32450Y134850D01*
X31150D01*
X29195Y136805D01*
Y140600D01*
G01X33350Y130350D02*
Y124750D01*
G01Y120850D02*
Y117200D01*
G01Y124750D02*
Y120850D01*
G01X27950Y132850D02*
Y135650D01*
X27225Y136375D01*
Y140600D01*
G01X29974Y112950D02*
Y106926D01*
X31050Y105850D01*
G01X27950Y126850D02*
Y122150D01*
X28350Y121650D01*
G01D02*
Y117924D01*
X29974Y116300D01*
Y112950D01*
G01X54013Y125807D02*
Y121763D01*
X52600Y120350D01*
G01X51848Y129941D02*
Y126634D01*
X52675Y125807D01*
X54013D01*
G01X57800Y92500D02*
Y94288D01*
X58088Y94576D01*
Y105962D01*
X54200Y109850D01*
X50650D01*
X49091Y111409D01*
X46300D01*
G01X66834Y116100D02*
Y113184D01*
X66400Y112750D01*
X59000D01*
X57500Y111250D01*
X51050D01*
X46850Y115450D01*
Y128600D01*
X45950Y129500D01*
Y136900D01*
X41600Y141250D01*
Y143155D01*
G01X45850Y145500D02*
X47115Y146765D01*
X49085D01*
X51285Y144565D01*
Y144485D01*
X52033Y143737D01*
Y142517D01*
X53475Y141075D01*
G01X31165Y140600D02*
Y137450D01*
G01X54013Y136043D02*
Y140537D01*
X53475Y141075D01*
G01X51650Y158850D02*
X45693D01*
X43788Y156945D01*
X41600D01*
G01X57550Y158850D02*
X51650D01*
G01X47650Y154950D02*
X43950D01*
X43925Y154975D01*
X41600D01*
G01Y151035D02*
X45765D01*
G01X51650Y154950D02*
X54750D01*
G01X41600Y147095D02*
X44145D01*
X45000Y147950D01*
X50050D01*
X55981Y142019D01*
Y136043D01*
G01X41600Y149065D02*
X56035D01*
X63450Y141650D01*
Y134502D01*
X64052Y133900D01*
Y131909D01*
G01X39750Y136550D02*
X39045Y137255D01*
Y140600D01*
G01X45450Y141700D02*
X44185Y142965D01*
Y144465D01*
X43525Y145125D01*
X41600D01*
G01X43358Y250902D02*
Y222742D01*
X50400Y215700D01*
Y187850D01*
X52850Y185400D01*
G01X54150Y191300D02*
X52000Y193450D01*
Y219600D01*
X47295Y224305D01*
Y250902D01*
G01X51232D02*
Y242364D01*
X51200Y242332D01*
Y237000D01*
X53700Y234500D01*
Y201700D01*
X56700Y198700D01*
Y186950D01*
X65850Y177800D01*
X68700D01*
G01X35100Y212950D02*
Y235100D01*
X31547Y238653D01*
Y250902D01*
G01X23673D02*
Y223315D01*
X23700Y223288D01*
Y221500D01*
G01X41550Y239900D02*
X39421Y242029D01*
Y250902D01*
G01X33700Y239950D02*
X35484Y241734D01*
Y250902D01*
G01X25900Y232500D02*
Y234850D01*
X27610Y236560D01*
Y250902D01*
G01X56850Y20950D02*
Y30150D01*
G01Y20950D02*
Y18912D01*
X55688Y17750D01*
G01X84750Y147150D02*
Y118200D01*
X84188Y117638D01*
X82088D01*
X76938Y112488D01*
Y104812D01*
X78900Y102850D01*
Y100200D01*
X74650Y95950D01*
Y82050D01*
G01X71500Y126800D02*
Y125012D01*
X71150Y124662D01*
Y110650D01*
X72200Y109600D01*
Y102150D01*
X69900Y99850D01*
X67950D01*
X66750Y101050D01*
Y104216D01*
X66834Y104300D01*
G01X64866D02*
Y98179D01*
X64850Y98163D01*
Y94375D01*
G01X84750Y115850D02*
X89550D01*
X95950Y109450D01*
Y105800D01*
X99800Y101950D01*
X107250D01*
X115000Y109700D01*
X137673D01*
X139293Y111320D01*
G01X65350Y141850D02*
Y134900D01*
X68059Y132191D01*
X70925D01*
G01X61887Y136043D02*
Y140613D01*
X59750Y142750D01*
G01D02*
X57950Y140950D01*
Y136043D01*
G01X59910Y140000D02*
Y138940D01*
X59919Y138931D01*
Y136043D01*
G01X60800Y119450D02*
X57450D01*
G01D02*
Y122719D01*
X57950Y123219D01*
Y125807D01*
G01X64866Y116100D02*
Y119288D01*
X61887Y122267D01*
Y125807D01*
G01X59900Y122307D02*
Y125788D01*
X59919Y125807D01*
G01X72500Y137309D02*
Y138750D01*
X74550Y140800D01*
X76650D01*
X78550Y138900D01*
G01X75850Y191350D02*
X78426D01*
X78457Y191319D01*
X82204D01*
G01X86819D02*
X96530D01*
G01X55169Y250902D02*
Y237181D01*
X56350Y236000D01*
Y222750D01*
X55500Y221900D01*
Y203350D01*
X61100Y197750D01*
Y185550D01*
X66750Y179900D01*
G01X147800Y159600D02*
X143500D01*
X141100Y157200D01*
X121150D01*
X116600Y161750D01*
X89200D01*
X86000Y164950D01*
Y178050D01*
X82500Y181550D01*
X79250D01*
X75950Y184850D01*
Y185350D01*
G01X82204Y187381D02*
X80173Y185350D01*
X75950D01*
G01X87019Y187381D02*
X96530D01*
G01X59150Y223450D02*
Y242320D01*
X59106Y242364D01*
Y250902D01*
G01X78791D02*
Y241441D01*
X76900Y239550D01*
G01D02*
X74854Y241596D01*
Y250902D01*
G01X69150Y236350D02*
X71650Y238850D01*
Y241631D01*
X70917Y242364D01*
Y250902D01*
G01X69150Y239350D02*
X66980Y241520D01*
Y250902D01*
G01X85800Y239500D02*
X83900Y241400D01*
X83692D01*
X82728Y242364D01*
Y250902D01*
G01X101645Y126199D02*
X101544Y126300D01*
X99650D01*
X94900Y121550D01*
X90950D01*
G01X91900Y126600D02*
X93400Y128100D01*
X108500D01*
X117515Y119085D01*
X122215D01*
X124075Y117225D01*
X141262D01*
X143230Y115257D01*
G01X93300Y115950D02*
X94565Y114685D01*
X136933D01*
X137505Y115257D01*
X139293D01*
G01X143230Y111320D02*
X141400Y113150D01*
X113800D01*
X108400Y107750D01*
G01X134300Y159600D02*
X125800D01*
X121900Y163500D01*
X99362D01*
X95650Y167212D01*
Y170250D01*
G01X105050Y170150D02*
Y166350D01*
G01X106570Y193287D02*
X117511D01*
G01X101550Y204100D02*
Y194370D01*
G01X99581Y205224D02*
Y194370D01*
G01X96530Y189350D02*
X85589D01*
G01X103519Y184330D02*
Y173476D01*
G01X99581Y184330D02*
Y173476D01*
G01D02*
Y171488D01*
X98343Y170250D01*
X95650D01*
G01X106570Y185413D02*
X117511D01*
G01X105050Y170150D02*
X105010Y170110D01*
X101550D01*
G01Y174950D02*
Y184330D01*
G01X106570Y189350D02*
X117511D01*
G01X117300Y201700D02*
X115512D01*
X114381Y202831D01*
Y211219D01*
X111750Y213850D01*
Y235050D01*
X114224Y237524D01*
Y250902D01*
G01X99250Y238150D02*
X102413Y241313D01*
Y250902D01*
G01X98476D02*
Y242364D01*
X99250Y241590D01*
Y238150D01*
G01X92650Y239100D02*
X90602Y241148D01*
Y250902D01*
G01X94539D02*
Y240989D01*
X92650Y239100D01*
G01X86665Y250902D02*
Y242153D01*
X85800Y241288D01*
Y239500D01*
G01X143230Y75886D02*
Y71580D01*
X118161Y46511D01*
Y-38198D01*
G01X262350Y15950D02*
X255312D01*
X231112Y-8250D01*
X157800D01*
X147000Y2550D01*
Y10750D01*
G01X262350Y5950D02*
X253150D01*
X237050Y-10150D01*
X156400D01*
X144100Y2150D01*
Y8800D01*
G01X142800Y55050D02*
X128750Y41000D01*
Y4150D01*
X123450Y-350D01*
G01X146050Y57050D02*
X140850D01*
X123450Y39650D01*
G01X133450D02*
X138900D01*
X144400Y45150D01*
G01X139293Y75886D02*
X137507Y74100D01*
X134850D01*
G01X143230Y79823D02*
X141250Y77843D01*
Y72150D01*
G01X155041Y79823D02*
X152950Y77732D01*
Y70800D01*
X146050Y63900D01*
Y57050D01*
G01X147167Y75886D02*
Y72917D01*
X121050Y46800D01*
G01X151104Y75886D02*
Y70604D01*
X128950Y48450D01*
G01X147167Y99509D02*
X145199Y101477D01*
G01X143230Y99509D02*
X141262Y101477D01*
G01X137250Y105350D02*
X137389D01*
X139293Y103446D01*
G01X147167D02*
X145199Y105414D01*
G01X143230Y103446D02*
X141262Y105414D01*
G01X139293Y87697D02*
X136653D01*
X135750Y88600D01*
G01X139293Y83760D02*
X137325Y81792D01*
G01X143230Y83760D02*
X141262Y81792D01*
G01X143230Y87697D02*
X141262Y85729D01*
G01X147167Y83760D02*
X145199Y81792D01*
G01X139293Y79823D02*
X137325Y77855D01*
G01X147167Y79823D02*
X145199Y77855D01*
G01X147167Y87697D02*
X145199Y85729D01*
G01X147167Y95571D02*
X145199Y93603D01*
G01X117250Y101477D02*
X118515Y102742D01*
X136060D01*
X139293Y99509D01*
G01Y119194D02*
X128194D01*
X128188Y119200D01*
X126000D01*
G01X118350Y155550D02*
Y153762D01*
X127762Y144350D01*
X133800D01*
X138150Y140000D01*
X143050D01*
X153350Y129700D01*
Y120885D01*
X155041Y119194D01*
G01X151104D02*
Y126596D01*
X140050Y137650D01*
X136300D01*
G01X147167Y115257D02*
X145199Y117225D01*
G01X143230Y107383D02*
X141262Y109351D01*
G01X147167Y107383D02*
X145199Y109351D01*
G01X139293Y107383D02*
X135205D01*
X135172Y107350D01*
X133200D01*
G01X143230Y119194D02*
X141224Y121200D01*
X141200D01*
G01X147167Y119194D02*
Y120982D01*
X142499Y125650D01*
X141550D01*
X119000Y148200D01*
Y150400D01*
G01X147167Y111320D02*
X145199Y113288D01*
G01X165050Y132700D02*
Y146150D01*
X159250Y151950D01*
Y158850D01*
X156050Y162050D01*
X141050D01*
X138600Y159600D01*
X134300D01*
G01X124150Y173750D02*
X126912D01*
X127762Y174600D01*
X134300D01*
G01X126750Y194600D02*
X134300D01*
G01X155762Y196350D02*
X154700D01*
X153950Y197100D01*
X141100D01*
X138600Y199600D01*
X134300D01*
G01X126750Y181550D02*
Y181000D01*
X128150Y179600D01*
X134300D01*
G01Y189600D02*
X126750D01*
G01X141850Y225350D02*
X142350D01*
X153594Y236594D01*
Y250902D01*
G01X134300Y199600D02*
X134250Y199550D01*
X128250D01*
X127100Y200700D01*
Y203950D01*
G01X128050Y225350D02*
Y230600D01*
X122098Y236552D01*
Y250902D01*
G01X118161D02*
Y231350D01*
X119650Y229861D01*
Y225350D01*
G01X144850Y215450D02*
Y216850D01*
X142350Y219350D01*
X141850D01*
G01X168050D02*
Y216812D01*
X168250Y216612D01*
Y214250D01*
X166750Y212750D01*
X145200D01*
G01X123400Y230150D02*
Y220062D01*
X122688Y219350D01*
X119650D01*
G01D02*
Y216200D01*
X117800Y214350D01*
G01X128050Y212400D02*
Y210650D01*
X130700Y208000D01*
X137300D01*
X139300Y210000D01*
X142850D01*
X147600Y205250D01*
X173650D01*
X178400Y210000D01*
X182950D01*
X186850Y206100D01*
X197750D01*
X207800Y196050D01*
X212362D01*
X212387Y196075D01*
X214800D01*
G01X128050Y219350D02*
Y212400D01*
G01X140150Y236650D02*
Y240060D01*
X137846Y242364D01*
Y250902D01*
G01X143800Y238850D02*
X141783Y240867D01*
Y250902D01*
G01X133909D02*
Y242364D01*
X134708Y241565D01*
X134785D01*
X136050Y240300D01*
G01X151450Y238300D02*
X147850Y234700D01*
X134956D01*
X129972Y239684D01*
Y250902D01*
G01X148350Y238300D02*
X145720Y240930D01*
Y250902D01*
G01X149500Y8450D02*
Y3250D01*
X156200Y-3450D01*
X229200D01*
X258600Y25950D01*
X262350D01*
G01X155450Y37850D02*
X149550D01*
G01X155450D02*
Y44050D01*
X157750Y46350D01*
Y46850D01*
G01X170450Y37850D02*
X165450D01*
G01D02*
Y45150D01*
X163750Y46850D01*
G01X177450Y30550D02*
Y26650D01*
G01Y30550D02*
Y33288D01*
X177446Y33292D01*
Y37108D01*
G01X177450Y16550D02*
Y26650D01*
G01X166852Y79823D02*
X168800Y77875D01*
Y73900D01*
G01X170789Y75886D02*
X172054Y74621D01*
Y72896D01*
X174750Y70200D01*
G01X162915Y79823D02*
X164950Y77788D01*
Y72100D01*
X165850Y71200D01*
Y66450D01*
G01X162915Y75886D02*
Y71085D01*
X163950Y70050D01*
Y58050D01*
G01X151104Y79823D02*
X149050Y77769D01*
Y72150D01*
G01X157650Y52050D02*
X157750Y51950D01*
Y46850D01*
G01X158978Y75886D02*
Y71228D01*
X157650Y69900D01*
Y58050D01*
G01X163950Y52050D02*
Y47050D01*
X163750Y46850D01*
G01X166852Y75886D02*
Y72310D01*
X168862Y70300D01*
X170650D01*
G01X177450Y51250D02*
Y44396D01*
X177446Y44392D01*
G01X178663Y75886D02*
Y66513D01*
X177450Y65300D01*
Y57450D01*
G01X174726Y103446D02*
X176694Y105414D01*
G01X174726Y91634D02*
X176694Y89666D01*
G01X158978Y83760D02*
X157010Y81792D01*
G01X162915Y87697D02*
X162897D01*
X160900Y85700D01*
G01X166852Y87697D02*
X164905Y85750D01*
X164900D01*
G01X166852Y83760D02*
X164900Y81808D01*
Y81800D01*
G01X170789Y79823D02*
X172757Y77855D01*
G01X170789Y83760D02*
X168800Y81771D01*
Y81750D01*
G01X151104Y103446D02*
X149136Y105414D01*
G01X170789Y87697D02*
Y87639D01*
X168850Y85700D01*
Y85650D01*
G01X174726Y79823D02*
X176694Y77855D01*
G01X174726Y83760D02*
X176694Y81792D01*
G01X170789Y91634D02*
X172850Y89573D01*
Y81800D01*
G01X151104Y95571D02*
X149136Y93603D01*
G01X151104Y99509D02*
X149136Y101477D01*
G01X162915Y83760D02*
X160950Y81795D01*
Y77850D01*
G01X155041Y87697D02*
X153073Y85729D01*
G01X170789Y99509D02*
X172757Y101477D01*
G01X174726Y99509D02*
X176667Y101450D01*
X184850D01*
G01X178663Y95571D02*
X176650Y93558D01*
Y93550D01*
G01X174726Y95571D02*
Y95582D01*
X176694Y97550D01*
X176750D01*
G01X170789Y95571D02*
X170821D01*
X172800Y97550D01*
G01X170789Y103446D02*
X172757Y105414D01*
G01X158978Y87697D02*
X157010Y85729D01*
G01X174726Y87697D02*
X176694Y85729D01*
G01X155041Y83760D02*
X153073Y81792D01*
G01X151104Y87697D02*
X149136Y85729D01*
G01X151104Y91634D02*
X149136Y89666D01*
G01X151104Y83760D02*
X149136Y81792D01*
G01X162915Y107383D02*
X164883Y109351D01*
G01X151104Y111320D02*
X149136Y113288D01*
G01X151104Y107383D02*
X149136Y109351D01*
G01X151104Y115257D02*
X149100Y117261D01*
Y121500D01*
G01X166852Y119194D02*
X168950Y121292D01*
Y125550D01*
G01X162915Y115257D02*
X165050Y117392D01*
Y132700D01*
G01X158978Y119194D02*
X158994D01*
X160900Y121100D01*
G01X155041Y107383D02*
X153073Y109351D01*
G01X155041Y115257D02*
X153073Y117225D01*
G01X166852Y115257D02*
X168820Y117225D01*
G01X166852Y111320D02*
X168820Y113288D01*
G01X158978Y107383D02*
X157010Y109351D01*
G01X170789Y107383D02*
X172757Y109351D01*
G01X174726Y107383D02*
X176694Y109351D01*
G01X178663Y111320D02*
X176800Y113183D01*
Y124750D01*
X178650Y126600D01*
X183100D01*
G01X170789Y119194D02*
Y128217D01*
X181472Y138900D01*
X183700D01*
G01X166852Y107383D02*
X168820Y109351D01*
G01X162915Y119194D02*
Y130197D01*
X162800Y130312D01*
Y132100D01*
G01X158978Y115257D02*
X156850Y117385D01*
Y139712D01*
X156950Y139812D01*
Y141600D01*
G01X162915Y111320D02*
X164883Y113288D01*
G01X158978Y111320D02*
X157010Y113288D01*
G01X170789Y115257D02*
X172757Y117225D01*
G01D02*
Y125157D01*
X177000Y129400D01*
X183400D01*
G01X170789Y111320D02*
X172757Y113288D01*
G01X155041Y111320D02*
X153073Y113288D01*
G01X166650Y156700D02*
X168750Y154600D01*
X174300D01*
G01X161500Y145850D02*
X157900Y149450D01*
Y156400D01*
X154700Y159600D01*
X147800D01*
G01X166000Y182850D02*
Y181062D01*
X167462Y179600D01*
X174300D01*
G01Y169600D02*
X166500D01*
G01X174300Y194600D02*
X163800Y194550D01*
G01D02*
Y192050D01*
X162850Y191100D01*
G01X159900Y195350D02*
X158635Y194085D01*
X155265D01*
X154750Y194600D01*
X147800D01*
G01Y189600D02*
X155750D01*
X159100Y186250D01*
G01X164900Y186200D02*
X163112D01*
X156512Y179600D01*
X147800D01*
G01X157550Y173500D02*
X155762D01*
X154662Y174600D01*
X147800D01*
G01X148250Y207700D02*
X170250D01*
X174250Y211700D01*
X183700D01*
X186950Y208450D01*
X199550D01*
X207000Y201000D01*
X222750D01*
G01X154250Y214950D02*
X155550Y216250D01*
Y219350D01*
G01X169343Y250902D02*
Y229843D01*
X168050Y228550D01*
Y225350D01*
G01X165406Y250902D02*
Y234306D01*
X162150Y231050D01*
Y225350D01*
G01X161469Y250902D02*
Y234569D01*
X155550Y228650D01*
Y225350D01*
G01X166800Y201150D02*
X168350Y199600D01*
X174300D01*
G01X175150Y229900D02*
X173850Y228600D01*
Y225350D01*
G01X157450Y233600D02*
X151300Y227450D01*
Y219862D01*
X150788Y219350D01*
X147750D01*
G01X157531Y250902D02*
Y237669D01*
X147750Y227888D01*
Y225350D01*
G01X168050Y219350D02*
X173850D01*
G01X160400Y215050D02*
X162150Y216800D01*
Y219350D01*
G01X158950Y201400D02*
X156400D01*
X154600Y199600D01*
X147800D01*
G01X179750Y225300D02*
Y230180D01*
X173280Y236650D01*
Y250902D01*
G01X192000Y16700D02*
X183154Y25546D01*
Y37108D01*
G01X262350Y110450D02*
X255600Y103700D01*
X248750D01*
X217700Y72650D01*
Y59700D01*
X213800Y55800D01*
X201650D01*
X196900Y51050D01*
X192900D01*
G01X183450Y57250D02*
Y51250D01*
G01X182600Y75886D02*
Y69650D01*
X183450Y68800D01*
Y57250D01*
G01X210750Y58050D02*
X193850D01*
X193050Y57250D01*
X189450D01*
G01X178663Y87697D02*
X180560Y85800D01*
X186550D01*
G01X178663Y83760D02*
X180723Y81700D01*
X188712D01*
X190662Y79750D01*
X192450D01*
G01X186650Y76400D02*
X185100Y77950D01*
X180536D01*
X178663Y79823D01*
G01X182600Y83760D02*
X194990D01*
X196958Y81792D01*
X200050D01*
G01X182600Y79823D02*
X184527D01*
X184550Y79800D01*
X187050D01*
G01X253250Y107200D02*
X251462D01*
X249437Y109225D01*
X216725D01*
X211750Y104250D01*
X207250D01*
G01X182600Y91634D02*
X190616D01*
X192600Y89650D01*
G01X178663Y91634D02*
X180547Y89750D01*
X186050D01*
G01X182600Y99509D02*
X187659D01*
X189450Y101300D01*
G01X178663Y99509D02*
X180622Y97550D01*
X197200D01*
X198950Y95800D01*
G01X184625Y105475D02*
Y105471D01*
X182600Y103446D01*
G01X178663D02*
X180631Y105414D01*
G01X182600Y95571D02*
X192641D01*
X192662Y95550D01*
X194450D01*
G01X182600Y87697D02*
X190682D01*
X192650Y85729D01*
G01X178663Y107383D02*
X180631Y109351D01*
X191151D01*
X197100Y115300D01*
X234850D01*
X236950Y117400D01*
G01X207800Y155150D02*
X197100Y144450D01*
Y119100D01*
X191288Y113288D01*
X184588D01*
G01X184568D02*
X184588D01*
G01X182600Y111320D02*
X184568Y113288D01*
G01X182600Y107383D02*
X193883D01*
X199900Y113400D01*
X227050D01*
X228800Y111650D01*
X236850D01*
G01X182600Y115257D02*
X186035Y118692D01*
Y119985D01*
X187300Y121250D01*
G01X178663Y119194D02*
X181250Y121781D01*
Y123800D01*
G01X182600Y119194D02*
Y121050D01*
X185600Y124050D01*
Y132100D01*
X188700Y135200D01*
Y148350D01*
X185900Y151150D01*
G01X178663Y115257D02*
X180631Y117225D01*
G01X187800Y194600D02*
X196725D01*
G01D02*
X198150Y193175D01*
Y191550D01*
G01X187800Y174600D02*
X195500D01*
X195550Y174650D01*
G01X207500Y203850D02*
X234650D01*
X255550Y182950D01*
X273800D01*
X276800Y185950D01*
X280850D01*
G01X179750Y219300D02*
Y215450D01*
X181700Y213500D01*
X184150D01*
X187300Y210350D01*
X201000D01*
X207500Y203850D01*
G01X185091Y250902D02*
Y234647D01*
X191850Y227888D01*
Y225350D01*
G01X189028Y250902D02*
Y236710D01*
X197850Y227888D01*
Y225350D01*
G01X182400Y215500D02*
X184800D01*
X185950Y216650D01*
Y219350D01*
G01Y225350D02*
Y227888D01*
X181154Y232684D01*
Y250902D01*
G01X188300Y212400D02*
X191850Y215950D01*
Y219350D01*
G01X194150Y212300D02*
X197850Y216000D01*
Y219350D01*
G01X191050Y238100D02*
Y239888D01*
X192965Y241803D01*
Y250902D01*
G01X212100Y232850D02*
Y235700D01*
X208713Y239087D01*
Y250902D01*
G01X218650Y230550D02*
X210962D01*
X204776Y236736D01*
Y250902D01*
G01X202550Y236450D02*
X200839Y238161D01*
Y250902D01*
G01X262350Y35950D02*
X254350D01*
X233350Y56950D01*
X219800D01*
G01X220550Y94450D02*
X232150D01*
G01X262350Y120450D02*
X246550D01*
X245500Y121500D01*
X217400D01*
G01X222750Y201000D02*
X224538D01*
X246538Y179000D01*
X271250D01*
X272900Y177350D01*
Y172612D01*
X274562Y170950D01*
X280850D01*
G01X230350Y223000D02*
Y224788D01*
X231000Y225438D01*
Y230850D01*
X228400Y233450D01*
Y238200D01*
X228398Y238202D01*
Y250902D01*
G01X226650Y225200D02*
Y229050D01*
X226500Y229200D01*
Y229300D01*
G01D02*
X224450Y231350D01*
Y242353D01*
X224461Y242364D01*
Y250902D01*
G01X222750Y207150D02*
X226250D01*
G01X239535Y226950D02*
Y235665D01*
X236272Y238928D01*
Y250902D01*
G01X229850Y216150D02*
X229700Y216300D01*
Y216650D01*
X227150Y219200D01*
X226650D01*
G01X220524Y250902D02*
Y226762D01*
X220500Y226738D01*
Y224950D01*
G01X232250Y207150D02*
Y250817D01*
X232335Y250902D01*
G01X243750Y224600D02*
X241800Y226550D01*
Y237500D01*
X240209Y239091D01*
Y250902D01*
G01X215950Y233850D02*
Y235650D01*
X212650Y238950D01*
Y250902D01*
G01X273350Y121700D02*
Y94412D01*
X269388Y90450D01*
X262350D01*
G01X251700Y100450D02*
X262350D01*
G01X253500Y169950D02*
Y167400D01*
X253050Y166950D01*
Y164925D01*
G01X264850Y170950D02*
Y165950D01*
G01D02*
X258300D01*
X257425Y165075D01*
X256375D01*
X256200Y164900D01*
G01X253500Y175950D02*
X264850D01*
G01X256950Y167700D02*
X254700Y169950D01*
X253500D01*
G01X252020Y250902D02*
Y233520D01*
X250000Y231500D01*
Y224388D01*
X249200Y223588D01*
Y221800D01*
G01X273650Y186000D02*
X271600Y188050D01*
Y203662D01*
X267950Y207312D01*
Y209850D01*
G01X265450Y220800D02*
Y218600D01*
X262650Y215800D01*
X262150D01*
G01X244146Y250902D02*
Y229542D01*
X244150Y229538D01*
Y227750D01*
G01X259894Y250902D02*
Y241494D01*
X257750Y239350D01*
Y228650D01*
G01X248083Y250902D02*
Y239383D01*
X246950Y238250D01*
Y225550D01*
G01X242150Y219900D02*
X250100D01*
X251800Y221600D01*
Y226700D01*
X255957Y230857D01*
Y250902D01*
G01X242200Y217100D02*
X244115Y215185D01*
X251335D01*
X261450Y225300D01*
Y230750D01*
X262750Y232050D01*
X267650D01*
X269747Y234147D01*
Y237915D01*
X271705Y239873D01*
Y250902D01*
G01X256350Y201500D02*
Y209750D01*
G01X263831Y250902D02*
Y241181D01*
X259650Y237000D01*
Y226550D01*
X251150Y218050D01*
G01X287453Y250902D02*
Y242364D01*
X288450Y241367D01*
Y231850D01*
X279350Y222750D01*
X272312D01*
X267950Y218388D01*
Y215850D01*
G01X256350Y215750D02*
X256850D01*
X258645Y217545D01*
Y219945D01*
X263050Y224350D01*
X277850D01*
X284500Y231000D01*
Y238350D01*
X283516Y239334D01*
Y250902D01*
G01X267768D02*
Y240268D01*
X265900Y238400D01*
G01X283350Y5950D02*
X302150D01*
G01X283350Y35950D02*
X302199D01*
G01X283350Y25950D02*
X302299D01*
G01X283350Y15950D02*
X302299D01*
G01X295850Y91750D02*
X298000Y93900D01*
Y190725D01*
X292775Y195950D01*
X290450D01*
G01X280850Y150950D02*
X288300D01*
X288350Y151000D01*
G01X280850Y155950D02*
X290550D01*
G01X280850Y165950D02*
X290150D01*
G01X280850Y160950D02*
X289600D01*
G01X300950Y158050D02*
Y198000D01*
X316050Y213100D01*
Y236300D01*
X311075Y241275D01*
Y250902D01*
G01X280850Y175950D02*
X290450D01*
G01X280850Y195950D02*
X290450D01*
G01X280850Y190950D02*
X290450D01*
G01X273500Y190850D02*
Y205600D01*
X273950Y206050D01*
Y209850D01*
G01X280850Y180950D02*
X290450D01*
G01X282800Y218900D02*
X280362D01*
X279850Y218388D01*
Y215850D01*
G01X284150Y204150D02*
X285650Y205650D01*
Y209850D01*
G01X296400Y229400D02*
X291750Y224750D01*
Y215850D01*
G01X297700Y205750D02*
Y209800D01*
X297650Y209850D01*
G01X279850Y205600D02*
Y209850D01*
G01X291750D02*
Y205350D01*
G01X297650Y215850D02*
Y222388D01*
X299264Y224002D01*
Y250902D01*
G01X285650Y215850D02*
Y222388D01*
X295327Y232065D01*
Y250902D01*
G01X273950Y215850D02*
X274450D01*
X279650Y221050D01*
X281050D01*
X291390Y231390D01*
Y250902D01*
G01X314050Y5950D02*
X308550D01*
G01X314050Y25950D02*
X308401D01*
G01X314050Y15950D02*
X308401D01*
G01X308301Y35950D02*
X314050D01*
G01X316850Y77850D02*
Y62850D01*
G01Y77850D02*
Y85950D01*
G01X316800Y89000D02*
Y86000D01*
X316850Y85950D01*
G01X304146Y115300D02*
Y129646D01*
X307550Y133050D01*
G01X316850Y148050D02*
Y133050D01*
G01D02*
X307550D01*
G01X316850Y148050D02*
Y157250D01*
X311500Y162600D01*
Y203512D01*
X311450Y203562D01*
Y205350D01*
G01X303350Y215850D02*
Y229600D01*
G01Y209850D02*
Y205850D01*
M02*
