G04 ================== begin FILE IDENTIFICATION RECORD ==================*
G04 Layout Name:  LAY-27943.brd*
G04 Film Name:    L6_INT_2*
G04 File Format:  Gerber RS274X*
G04 File Origin:  Cadence Allegro 16.6-S013*
G04 Origin Date:  Tue Sep 24 08:57:33 2013*
G04 *
G04 Layer:  VIA CLASS/L6_INT_2*
G04 Layer:  PIN/L6_INT_2*
G04 Layer:  ETCH/L6_INT_2*
G04 Layer:  DRAWING FORMAT/FILM_TITLE_BLOCK*
G04 Layer:  BOARD GEOMETRY/OUTLINE*
G04 *
G04 Offset:    (0.00 0.00)*
G04 Mirror:    No*
G04 Mode:      Positive*
G04 Rotation:  0*
G04 FullContactRelief:  No*
G04 UndefLineWidth:     7.00*
G04 ================== end FILE IDENTIFICATION RECORD ====================*
%FSLAX55Y55*MOIN*%
%IR0*IPPOS*OFA0.00000B0.00000*MIA0B0*SFA1.00000B1.00000*%
%ADD11C,.01*%
%ADD10C,.02*%
%ADD15C,.024*%
%ADD13C,.06*%
%ADD14C,.066*%
%ADD12O,.042X.066*%
%ADD16C,.025*%
%ADD17C,.005*%
%ADD18C,.007*%
%ADD19C,.006*%
%ADD20C,.008*%
%ADD21C,.0079*%
%ADD22C,.03004*%
G75*
%LPD*%
G75*
G36*
G01X116252Y92412D02*
G02X116788Y92788I400J0D01*
G03X117773Y92774I513J1412D01*
G02X118298Y92395I125J-380D01*
G01Y82839D01*
X127789Y73348D01*
X133550D01*
G03Y74852I1300J752D01*
G01X128411D01*
X119802Y83461D01*
Y136139D01*
X142902Y159239D01*
Y165439D01*
X159561Y182098D01*
X161370D01*
G02X161653Y181416I0J-400D01*
G01X145848Y165611D01*
Y156611D01*
X142839Y153602D01*
X138939D01*
X129689Y144352D01*
X128639D01*
X120598Y136311D01*
Y84939D01*
X128434Y77104D01*
X136025D01*
G03X138629Y78600I1300J751D01*
G02X138976Y79198I347J198D01*
G01X139731D01*
X140871Y80338D01*
X140976Y80318D01*
G03X142657Y82350I286J1474D01*
G02X143028Y82898I371J148D01*
G01X143439D01*
X143857Y82480D01*
X143807Y82357D01*
G03X146152Y80631I1392J-565D01*
G01X146292Y80746D01*
X150998Y76039D01*
Y69561D01*
X142048Y60611D01*
Y56350D01*
G03X141838Y53896I752J-1300D01*
G02X141817Y53265I-256J-307D01*
G03X143662Y53204I883J-1215D01*
G02X143683Y53835I256J307D01*
G03X143552Y56350I-883J1215D01*
G01Y59989D01*
X151816Y68253D01*
G02X152498Y67970I282J-283D01*
G01Y67611D01*
X146548Y61661D01*
Y22036D01*
G02X145849Y21771I-400J0D01*
G03Y17529I-2399J-2121D01*
G02X146548Y17264I299J-265D01*
G01Y16211D01*
X144337Y14000D01*
G02X143759Y14013I-283J283D01*
G03X143950Y12248I-1109J-1013D01*
G01X144711D01*
X148052Y15589D01*
Y28997D01*
G02X148682Y29324I400J0D01*
G03Y31776I868J1226D01*
G02X148052Y32103I-230J327D01*
G01Y47362D01*
G02X148588Y47738I400J0D01*
G03Y50562I512J1412D01*
G02X148052Y50938I-136J376D01*
G01Y61039D01*
X153416Y66403D01*
G02X154098Y66120I282J-283D01*
G01Y47761D01*
X150391Y44054D01*
X150286Y44074D01*
G03X151474Y42886I-286J-1474D01*
G01X151454Y42991D01*
X155602Y47139D01*
Y77949D01*
G02X155944Y78090I200J0D01*
G01X156148Y77885D01*
Y31215D01*
X153586Y28652D01*
X153502D01*
G03X155002Y27152I-2J-1502D01*
G01Y27236D01*
X158152Y30385D01*
Y68652D01*
G02X158493Y68794I200J0D01*
G01X158646Y68641D01*
X158626Y68536D01*
G03X160032Y69750I1474J-286D01*
G02X159614Y70149I-18J400D01*
G01Y76195D01*
G02X160210Y76543I400J0D01*
G03Y79157I740J1307D01*
G02X159614Y79505I-196J348D01*
G01Y84188D01*
X158464Y85338D01*
X158484Y85443D01*
G03X156490Y87138I-1474J286D01*
G02X155952Y87513I-138J375D01*
G01Y91999D01*
X154562Y93388D01*
X154570Y93481D01*
G03X152543Y95008I-1497J122D01*
G02X152002Y95382I-141J374D01*
G01Y99698D01*
G02X152543Y100072I400J0D01*
G03Y102882I530J1405D01*
G02X152002Y103256I-141J374D01*
G01Y103635D01*
G02X152543Y104009I400J0D01*
G03Y106819I530J1405D01*
G02X152002Y107193I-141J374D01*
G01Y107572D01*
G02X152543Y107946I400J0D01*
G03Y110756I530J1405D01*
G02X152002Y111130I-141J374D01*
G01Y111509D01*
G02X152543Y111883I400J0D01*
G03Y114693I530J1405D01*
G02X152002Y115067I-141J374D01*
G01Y115446D01*
G02X152543Y115820I400J0D01*
G03X152304Y118515I530J1405D01*
G02X152002Y118687I-102J172D01*
G01Y118985D01*
X156952Y123935D01*
Y128285D01*
X160656Y131990D01*
G02X161330Y131790I283J-283D01*
G03X163707Y130903I1470J310D01*
G02X164348Y130584I241J-319D01*
G01Y130411D01*
X156258Y122321D01*
Y114588D01*
G03X157762I752J-1300D01*
G01Y121699D01*
X165852Y129789D01*
Y133889D01*
X166090Y134127D01*
G02X166768Y133909I283J-283D01*
G03X168491Y135632I1482J241D01*
G02X168273Y136310I65J395D01*
G01X171602Y139639D01*
Y142700D01*
G03X171379Y145406I-752J1300D01*
G02X171238Y146063I142J374D01*
G01X173879Y148704D01*
X174529D01*
X175285Y149461D01*
X175378Y149453D01*
G03X174003Y150828I122J1497D01*
G01X174011Y150735D01*
X173783Y150508D01*
X173133D01*
X167848Y145223D01*
Y142487D01*
X167831Y142449D01*
G03X167748Y142050I919J-399D01*
G01Y141915D01*
X154948Y129115D01*
Y124765D01*
X151281Y121097D01*
G02X150599Y121405I-283J283D01*
G03X149584Y120078I-1499J95D01*
G02X150109Y119643I129J-379D01*
G03X150181Y119101I991J-144D01*
G01X150198Y119063D01*
Y115071D01*
G02X149659Y114696I-400J0D01*
G03Y111880I-523J-1408D01*
G02X150198Y111505I139J-375D01*
G01Y111134D01*
G02X149659Y110759I-400J0D01*
G03Y107943I-523J-1408D01*
G02X150198Y107568I139J-375D01*
G01Y107197D01*
G02X149659Y106822I-400J0D01*
G03Y104006I-523J-1408D01*
G02X150198Y103631I139J-375D01*
G01Y103260D01*
G02X149659Y102885I-400J0D01*
G03Y100069I-523J-1408D01*
G02X150198Y99694I139J-375D01*
G01Y95386D01*
G02X149659Y95011I-400J0D01*
G03Y92195I-523J-1408D01*
G02X150198Y91820I139J-375D01*
G01Y91266D01*
X150285Y91179D01*
X150031Y90884D01*
X149887Y90967D01*
G03X147662Y89380I-751J-1301D01*
G01X147682Y89275D01*
X146348Y87941D01*
Y87477D01*
G02X145791Y87109I-400J0D01*
G03X144913Y87203I-592J-1380D01*
G01X144808Y87183D01*
X144102Y87889D01*
Y88248D01*
G02X144409Y88417I200J0D01*
G03X144652Y91076I807J1267D01*
G02X144102Y91446I-150J371D01*
G01Y91834D01*
G02X144648Y92206I400J0D01*
G03Y95000I551J1397D01*
G02X144102Y95372I-146J372D01*
G01Y99708D01*
G02X144648Y100080I400J0D01*
G03Y102874I551J1397D01*
G02X144102Y103246I-146J372D01*
G01Y103645D01*
G02X144648Y104017I400J0D01*
G03Y106811I551J1397D01*
G02X144102Y107183I-146J372D01*
G01Y107582D01*
G02X144648Y107954I400J0D01*
G03Y110748I551J1397D01*
G02X144102Y111120I-146J372D01*
G01Y111519D01*
G02X144648Y111891I400J0D01*
G03Y114685I551J1397D01*
G02X144102Y115057I-146J372D01*
G01Y115456D01*
G02X144648Y115828I400J0D01*
G03Y118622I551J1397D01*
G02X144102Y118994I-146J372D01*
G01Y121739D01*
X145836Y123474D01*
X147086D01*
X167252Y143639D01*
Y147039D01*
X175511Y155298D01*
X177261D01*
X195159Y173196D01*
X195264Y173176D01*
G03X194076Y174364I286J1474D01*
G01X194096Y174259D01*
X176639Y156802D01*
X174889D01*
X165748Y147661D01*
Y144261D01*
X146464Y124976D01*
X145214D01*
X142383Y122146D01*
X142242Y122282D01*
G03X141441Y122682I-1041J-1083D01*
G02X141223Y123360I65J395D01*
G01X146136Y128274D01*
X148236D01*
X164952Y144989D01*
Y147739D01*
X174302Y157089D01*
Y162739D01*
X188361Y176798D01*
X200111D01*
X210802Y187489D01*
Y210561D01*
X207566Y213796D01*
Y227950D01*
G03X206063I-752J1300D01*
G01Y213174D01*
X209298Y209939D01*
Y205139D01*
G02X208604Y204868I-400J0D01*
G03Y202832I-1104J-1018D01*
G02X209298Y202561I294J-271D01*
G01Y188111D01*
X199489Y178302D01*
X187739D01*
X172798Y163361D01*
Y157711D01*
X168622Y153535D01*
G02X167942Y153772I-283J283D01*
G03X167394Y154768I-1492J-172D01*
G02X167436Y155420I251J311D01*
G03X165706Y155532I-786J1280D01*
G02X165664Y154880I-251J-311D01*
G03X166278Y152108I786J-1280D01*
G02X166515Y151428I-46J-397D01*
G01X163448Y148361D01*
Y145611D01*
X163188Y145351D01*
X162978Y145562D01*
X162990Y145660D01*
G03X161293Y144362I-1490J190D01*
G02X161521Y143683I-55J-396D01*
G01X159135Y141297D01*
G02X158452Y141584I-283J283D01*
G03X156966Y140098I-1502J16D01*
G02X157253Y139415I4J-400D01*
G01X147614Y129776D01*
X145514D01*
X138598Y122861D01*
Y122609D01*
G02X138257Y122467I-200J0D01*
G03X137807Y122774I-1057J-1067D01*
G02X137685Y123423I161J366D01*
G01X140102Y125839D01*
Y128289D01*
X163852Y152039D01*
Y156689D01*
X187361Y180198D01*
X199411D01*
X205202Y185989D01*
Y209261D01*
X203302Y211161D01*
Y228589D01*
X208759Y234046D01*
X208864Y234026D01*
G03X207676Y235214I286J1474D01*
G01X207696Y235109D01*
X201798Y229211D01*
Y210539D01*
X203698Y208639D01*
Y186611D01*
X198789Y181702D01*
X186739D01*
X162348Y157311D01*
Y152661D01*
X138598Y128911D01*
Y126461D01*
X134298Y122161D01*
Y109119D01*
G02X133752Y108747I-400J0D01*
G03X132254Y108516I-551J-1397D01*
G02X131602Y108826I-252J311D01*
G01Y120039D01*
X137402Y125839D01*
Y128589D01*
X159152Y150339D01*
Y159439D01*
X163147Y163435D01*
G02X163823Y163225I283J-283D01*
G03X165575Y164977I1477J275D01*
G02X165365Y165653I73J393D01*
G01X167252Y167539D01*
Y168300D01*
G03X167802Y170349I-752J1300D01*
G02X168148Y170948I347J199D01*
G01X171761D01*
X184211Y183398D01*
X198661D01*
X203102Y187839D01*
Y206361D01*
X200302Y209161D01*
Y229939D01*
X202259Y231896D01*
X202364Y231876D01*
G03X203480Y234602I286J1474D01*
G02X203459Y235254I221J333D01*
G03X201720Y235198I-909J1196D01*
G02X201741Y234546I-221J-333D01*
G03X201176Y233064I909J-1195D01*
G01X201196Y232959D01*
X198798Y230561D01*
Y208539D01*
X201598Y205739D01*
Y188461D01*
X198039Y184902D01*
X183589D01*
X171139Y172452D01*
X165089D01*
X157723Y165085D01*
G02X157074Y165207I-283J283D01*
G03X156361Y165949I-1374J-607D01*
G02X156254Y166591I176J359D01*
G01X162452Y172789D01*
Y175239D01*
X163919Y176707D01*
G02X164601Y176450I283J-283D01*
G03X167497Y177102I1499J100D01*
G02X167869Y177648I372J146D01*
G01X171361D01*
X180111Y186398D01*
X197561D01*
X200902Y189739D01*
Y204411D01*
X197602Y207711D01*
Y233250D01*
G03X196098I-752J1300D01*
G01Y207089D01*
X199398Y203789D01*
Y193252D01*
G02X198820Y192894I-400J0D01*
G03X196850Y192302I-670J-1344D01*
G01X178939D01*
X168439Y181802D01*
X167788D01*
G02X167412Y182338I0J400D01*
G03X164700Y183602I-1412J512D01*
G01X158939D01*
X157526Y182189D01*
G02X156845Y182509I-283J283D01*
G03X155491Y181155I-1495J141D01*
G02X155811Y180474I37J-398D01*
G01X141398Y166061D01*
Y159861D01*
X138934Y157397D01*
G02X138252Y157680I-282J283D01*
G01Y166139D01*
X151202Y179089D01*
Y182389D01*
X159161Y190348D01*
X161550D01*
G03Y191852I1300J752D01*
G01X158539D01*
X149698Y183011D01*
Y179711D01*
X136748Y166761D01*
Y157411D01*
X116648Y137311D01*
Y105711D01*
X115434Y104497D01*
G02X114751Y104780I-283J283D01*
G01Y108739D01*
X115602Y109589D01*
Y137189D01*
X134102Y155689D01*
Y168589D01*
X146252Y180739D01*
Y184239D01*
X154636Y192624D01*
X161686D01*
X163311Y194248D01*
X185461D01*
X191852Y200639D01*
Y216789D01*
X192840Y217777D01*
Y229550D01*
G03X191336I-752J1300D01*
G01Y218399D01*
X190348Y217411D01*
Y201261D01*
X184839Y195752D01*
X162689D01*
X162083Y195146D01*
G02X161401Y195412I-283J283D01*
G03X158546Y194700I-1501J-62D01*
G02X158186Y194126I-360J-174D01*
G01X154014D01*
X144748Y184861D01*
Y181361D01*
X132598Y169211D01*
Y156311D01*
X128016Y151729D01*
G02X127358Y151872I-283J283D01*
G03X126635Y152687I-1409J-521D01*
G02X126603Y153381I182J356D01*
G03X125936Y156146I-803J1269D01*
G02X125690Y156827I37J398D01*
G01X129852Y160989D01*
Y174389D01*
X153511Y198048D01*
X154373D01*
G02X154665Y197375I0J-400D01*
G03X156859I1097J-1025D01*
G02X157151Y198048I292J273D01*
G01X180611D01*
X185685Y203122D01*
G02X186353Y202947I283J-283D01*
G03X186932Y204576I1447J403D01*
G02X186302Y204903I-230J327D01*
G01Y214189D01*
X188052Y215939D01*
Y234039D01*
X190659Y236646D01*
X190764Y236626D01*
G03X189576Y237814I286J1474D01*
G01X189596Y237709D01*
X186548Y234661D01*
Y216561D01*
X184798Y214811D01*
Y208470D01*
G02X184084Y208224I-400J1D01*
G03X181451Y202019I-3034J-2374D01*
G02X181776Y201338I42J-398D01*
G01X179989Y199552D01*
X168276D01*
G02X167966Y200204I1J400D01*
G03X165697Y202169I-1166J946D01*
G02X165055Y202243I-294J272D01*
G03X164184Y200062I-1305J-743D01*
G01X164212Y200071D01*
X164444D01*
Y199552D01*
X160182D01*
G02X159923Y200256I1J400D01*
G03X157977I-973J1144D01*
G02X157718Y199552I-260J-304D01*
G01X152889D01*
X128348Y175011D01*
Y161611D01*
X123248Y156511D01*
Y149811D01*
X113483Y140046D01*
G02X112801Y140312I-283J283D01*
G03X111581Y141726I-1501J-62D01*
G01X111520Y141737D01*
X111335Y141922D01*
X111561Y142148D01*
X113761D01*
X117602Y145989D01*
Y149102D01*
X117881Y149381D01*
X118022Y149260D01*
G03X120474Y150686I978J1140D01*
G01X120454Y150791D01*
X122652Y152989D01*
Y168689D01*
X124180Y170217D01*
G02X124859Y169885I282J-283D01*
G03X126165Y171191I1491J-185D01*
G02X125833Y171870I-49J397D01*
G01X127252Y173289D01*
Y176767D01*
X144750Y193871D01*
Y204450D01*
X144669Y204531D01*
G03X139731Y209469I-3619J1319D01*
G01X139100Y210100D01*
Y214100D01*
X139150Y214150D01*
Y214200D01*
X139950Y215000D01*
X142200D01*
X143100Y214100D01*
Y212650D01*
X145350Y210400D01*
X163800D01*
Y210350D01*
X173950D01*
X184450Y220850D01*
Y235500D01*
X192100Y243150D01*
X215150D01*
X220871Y237429D01*
X220884Y237372D01*
G03X222022Y236234I1466J328D01*
G01X222079Y236221D01*
X223550Y234750D01*
Y229885D01*
G02X223097Y229489I-400J0D01*
G03Y226511I-197J-1489D01*
G02X223550Y226115I53J-396D01*
G01Y218718D01*
G02X223003Y218347I-400J1D01*
G03Y215553I-553J-1397D01*
G02X223550Y215182I147J-372D01*
G01Y209009D01*
G02X223066Y208618I-400J0D01*
G03Y205682I-316J-1468D01*
G02X223550Y205291I84J-391D01*
G01Y202859D01*
G02X223066Y202468I-400J0D01*
G03Y199532I-316J-1468D01*
G02X223550Y199141I84J-391D01*
G01Y192576D01*
G02X222982Y192213I-400J0D01*
G03Y189487I-632J-1363D01*
G02X223550Y189124I168J-363D01*
G01Y174250D01*
X221594Y172294D01*
G02X221036Y172288I-282J283D01*
G03X218912Y170164I-1036J-1088D01*
G02X218906Y169606I-289J-276D01*
G01X208400Y159100D01*
Y157041D01*
G02X207958Y156644I-400J1D01*
G03Y153656I-158J-1494D01*
G02X208400Y153259I42J-398D01*
G01Y149039D01*
X208253Y148999D01*
G03Y146101I397J-1449D01*
G01X208400Y146061D01*
Y144650D01*
X199700Y135950D01*
Y109413D01*
X193803Y103515D01*
G02X193127Y103725I-283J283D01*
G03X190822Y104703I-1477J-275D01*
G02X190202Y105037I-220J334D01*
G01Y111739D01*
X196702Y118239D01*
Y141839D01*
X205302Y150439D01*
Y161139D01*
X220402Y176239D01*
Y220761D01*
X219402Y221761D01*
Y223181D01*
G02X219948Y223553I400J0D01*
G03Y226347I552J1397D01*
G02X219402Y226719I-146J372D01*
G01Y229250D01*
G03X217898I-752J1300D01*
G01Y221139D01*
X218898Y220139D01*
Y176861D01*
X203798Y161761D01*
Y151061D01*
X195198Y142461D01*
Y118861D01*
X193893Y117556D01*
G02X193218Y117919I-283J282D01*
G03X189338Y121132I-2793J576D01*
G02X188789Y121449I-153J370D01*
G03X187290Y119748I-1489J-199D01*
G02X187673Y119243I-3J-400D01*
G03X187615Y118983I2751J-750D01*
G03X190913Y115685I2810J-488D01*
G03X191001Y115702I-497J2808D01*
G02X191364Y115027I81J-392D01*
G01X188698Y112361D01*
Y102600D01*
G03X189209Y99818I752J-1300D01*
G02X189427Y99140I-65J-395D01*
G01X186439Y96152D01*
X178368D01*
G02X178028Y96761I1J400D01*
G03X178224Y97836I-1278J788D01*
G01X178204Y97941D01*
X179402Y99139D01*
Y103703D01*
G02X179976Y104062I400J-1D01*
G03Y106766I655J1352D01*
G02X179402Y107125I-174J360D01*
G01Y115514D01*
G02X179976Y115873I400J-1D01*
G03Y118577I655J1352D01*
G02X179402Y118936I-174J360D01*
G01Y122568D01*
G02X180106Y122827I400J-1D01*
G03X182570Y124516I1143J974D01*
G02X182960Y125105I352J191D01*
G03X184222Y127598I140J1495D01*
G02X184286Y128187I299J265D01*
G03X184763Y130031I-886J1213D01*
G02X185126Y130598I363J167D01*
G01X185211D01*
X193652Y139039D01*
Y143039D01*
X201452Y150839D01*
Y162589D01*
X218302Y179439D01*
Y198211D01*
X216702Y199811D01*
Y232550D01*
G03X215198I-752J1300D01*
G01Y199189D01*
X216798Y197589D01*
Y180061D01*
X199948Y163211D01*
Y151461D01*
X192148Y143661D01*
Y139661D01*
X185576Y133089D01*
G02X184895Y133409I-283J283D01*
G03X183657Y135030I-1495J141D01*
G01X183491Y135059D01*
Y135448D01*
X185611D01*
X191102Y140939D01*
Y144239D01*
X198702Y151839D01*
Y166189D01*
X215552Y183039D01*
Y194775D01*
G03X214048I-752J1300D01*
G01Y183661D01*
X197198Y166811D01*
Y160832D01*
G02X196494Y160573I-400J1D01*
G03Y158627I-1144J-973D01*
G02X197198Y158368I304J-260D01*
G01Y152461D01*
X189598Y144861D01*
Y141561D01*
X184989Y136952D01*
X181289D01*
X174898Y130561D01*
Y116492D01*
X173148Y114742D01*
X173043Y114762D01*
G03X172042Y114609I-287J-1474D01*
G02X171452Y114960I-190J352D01*
G01Y115553D01*
G02X172042Y115904I400J-1D01*
G03Y118546I715J1321D01*
G02X171452Y118897I-190J352D01*
G01Y123339D01*
X173602Y125489D01*
Y131489D01*
X181530Y139417D01*
G02X182209Y139085I282J-283D01*
G03X183515Y140391I1491J-185D01*
G02X183183Y141070I-49J397D01*
G01X191676Y149564D01*
Y162414D01*
X212852Y183589D01*
Y231550D01*
G03X211348I-752J1300D01*
G01Y184211D01*
X190174Y163036D01*
Y150186D01*
X172098Y132111D01*
Y126111D01*
X171131Y125144D01*
G02X170449Y125452I-283J283D01*
G03X168082Y126776I-1499J98D01*
G02X167452Y127103I-230J327D01*
G01Y128039D01*
X172952Y133539D01*
Y135250D01*
G03X171448I-752J1300D01*
G01Y134161D01*
X165948Y128661D01*
Y126717D01*
G02X165266Y126434I-400J0D01*
G01X164950Y126750D01*
X164550D01*
X160259Y122459D01*
X160229Y122444D01*
G03X160194Y119774I671J-1344D01*
G01X160300Y119718D01*
Y114704D01*
G03Y111996I650J-1354D01*
G01Y95545D01*
X160761Y95345D01*
X160644Y95073D01*
X160551Y95048D01*
G03X161072Y92103I399J-1448D01*
G01X161165Y92111D01*
X161948Y91327D01*
Y87488D01*
G02X161412Y87112I-400J0D01*
G03X161580Y84361I-512J-1412D01*
G02X161867Y84144I91J-178D01*
G03X161848Y83950I983J-194D01*
G01Y80335D01*
X162998Y79185D01*
Y67965D01*
X161748Y66715D01*
Y17965D01*
X152536Y8752D01*
X152452D01*
G03X151595Y8485I-2J-1502D01*
G02X150974Y8737I-228J328D01*
G03X148970Y9856I-1474J-287D01*
G02X148445Y10339I-140J374D01*
G03X147530Y9344I-1445J411D01*
G02X148055Y8861I140J-374D01*
G03X150355Y7215I1445J-411D01*
G02X150976Y6963I228J-328D01*
G03X153952Y7252I1474J288D01*
G01Y7336D01*
X163752Y17135D01*
Y65885D01*
X163828Y65962D01*
G02X164477Y65841I283J-283D01*
G03X164650Y65547I1373J610D01*
G01Y5900D01*
X169650Y900D01*
Y-3150D01*
X168600Y-4200D01*
X163116D01*
G03X161184I-966J-1150D01*
G01X143700D01*
Y-15700D01*
X140700Y-18700D01*
X120200D01*
X119600Y-18100D01*
Y-15150D01*
X120200Y-14550D01*
X136400D01*
X139300Y-11650D01*
Y50D01*
X137350Y2000D01*
Y43850D01*
X125250Y55950D01*
X125244D01*
X110152Y70674D01*
Y93411D01*
X109650Y93913D01*
Y106917D01*
G03Y108583I-1250J833D01*
G01Y115487D01*
G03Y117813I-950J1163D01*
G01Y138817D01*
G02X110313Y139118I400J0D01*
G03X111238Y138749I988J1132D01*
G02X111504Y138067I-17J-399D01*
G01X111048Y137611D01*
Y71789D01*
X123939Y58898D01*
X136861D01*
X148659Y70696D01*
X148764Y70676D01*
G03X147576Y71864I286J1474D01*
G01X147596Y71759D01*
X136239Y60402D01*
X124561D01*
X112552Y72411D01*
Y136989D01*
X124752Y149189D01*
Y149624D01*
G02X125319Y149987I400J0D01*
G03X125428Y149942I627J1365D01*
G02X125571Y149284I-140J-375D01*
G01X114098Y137811D01*
Y110211D01*
X113248Y109361D01*
Y77889D01*
X122124Y69014D01*
Y64814D01*
X125839Y61098D01*
X135711D01*
X145950Y71338D01*
Y76555D01*
G03X144448I-751J1300D01*
G01Y71960D01*
X135089Y62602D01*
X131636D01*
G02X131373Y63303I0J400D01*
G03X130694Y70352I-2858J3282D01*
G02X130894Y71098I200J346D01*
G01X131039D01*
X133089Y69048D01*
X139211D01*
X140859Y70696D01*
X140964Y70676D01*
G03X139776Y71864I286J1474D01*
G01X139796Y71759D01*
X138589Y70552D01*
X133711D01*
X131661Y72602D01*
X123711D01*
X118007Y78306D01*
G02X118208Y78980I283J283D01*
G03X116914Y81583I-308J1470D01*
G02X116252Y81885I-262J302D01*
G01Y92412D01*
G37*
G36*
G01X225150Y7900D02*
Y-2000D01*
X222000D01*
Y7900D01*
X225150D01*
G37*
%LPC*%
G75*
G36*
G01X184784Y149295D02*
G02X183735Y151112I-3734J-945D01*
G03X184411Y151346I279J286D01*
G02X185325Y149762I1489J-196D01*
G03X184784Y149295I-153J-369D01*
G37*
G36*
G01X166216Y186924D02*
G02X164690Y187687I-1316J-724D01*
G03X164984Y188276I-56J396D01*
G02X166510Y187513I1316J724D01*
G03X166216Y186924I56J-396D01*
G37*
G36*
G01X186137Y129239D02*
G02X191169Y124207I4288J-744D01*
G02X186137Y129239I-744J4288D01*
G37*
G54D22*
X216550Y238700D03*
X196902Y241150D03*
X194150Y212300D03*
X188300Y212400D03*
X182400Y215500D03*
X194400Y204250D03*
X196725Y201700D03*
X194100Y216050D03*
X184588Y113288D03*
X184625Y105475D03*
X184850Y101450D03*
X159100Y186250D03*
X157010Y109351D03*
Y105414D03*
Y101477D03*
X152050Y62250D03*
X148250Y207700D03*
X126200Y164550D03*
X144100Y8800D03*
%LPD*%
G75*
G54D10*
G01X366650Y-99250D02*
Y-199250D01*
X-33350D01*
G01D02*
Y-99250D01*
X366650D01*
G01X72569Y120681D02*
X66350Y126900D01*
X-7050Y161550D03*
X-1400Y-23050D03*
X3950Y-25150D03*
X12750Y-23950D03*
X11862Y-28150D03*
X15799D03*
X51Y-28050D03*
X12950Y-2150D03*
X17750Y-1700D03*
X23862Y-1900D03*
X2000Y40650D03*
X11600Y55500D03*
X16500Y47800D03*
X4100Y66832D03*
X17209Y65391D03*
X1950Y45950D03*
X-1399Y97600D03*
X15100Y89300D03*
X16750Y77050D03*
X21350Y85850D03*
X9050Y89400D03*
X23350Y102450D03*
X18650Y121300D03*
X20200Y126250D03*
X16850Y113050D03*
X20400Y135500D03*
X-3550Y109750D03*
X20450Y166800D03*
X17450Y161250D03*
X-650Y158350D03*
X2950Y153050D03*
X3500Y143600D03*
X6050Y140450D03*
X10450Y158250D03*
X22950Y159550D03*
X22650Y140350D03*
X22050Y181991D03*
X20950Y196250D03*
X16850Y182051D03*
X22650Y175050D03*
X23700Y221500D03*
X10575Y222025D03*
X8250Y230550D03*
X14650Y222050D03*
X3150Y224300D03*
X9750Y224650D03*
X5100Y228088D03*
X14950Y215400D03*
X14100Y240000D03*
X21600Y232500D03*
X21650Y239800D03*
X17700Y232450D03*
X11900Y236200D03*
X-450Y233100D03*
X1550Y238850D03*
X32450Y-2050D03*
X54700Y-17150D03*
X37200Y-2100D03*
X46950Y19250D03*
X52850Y24000D03*
X28250Y66750D03*
X45000Y69150D03*
X47900Y99550D03*
X25950Y95550D03*
X54700Y99550D03*
X44725Y103125D03*
X32750Y88400D03*
X26150Y80550D03*
X48750Y105450D03*
X51375Y92525D03*
X53550Y104150D03*
X47850Y131150D03*
X49200Y122950D03*
X49000Y117650D03*
X38400Y108850D03*
X49700Y127300D03*
X50950Y107750D03*
X34450Y109050D03*
X36950Y136400D03*
X43250Y126900D03*
X40150Y119000D03*
X33350Y117200D03*
X37350Y117150D03*
X42800Y130350D03*
X31165Y137450D03*
X41150Y124700D03*
X39750Y136550D03*
X45450Y141700D03*
X48600Y143900D03*
X34450Y155900D03*
X45850Y145500D03*
X29850Y150250D03*
X29900Y155900D03*
X34250Y144200D03*
X29900D03*
X24450Y166650D03*
X27750Y167850D03*
X45765Y151035D03*
X54750Y154950D03*
Y151650D03*
X31250Y163100D03*
X37075Y162650D03*
X50650Y167850D03*
X55000Y162750D03*
X54150Y191300D03*
X32349Y182300D03*
X35700D03*
X36750Y188225D03*
Y191576D03*
X41850Y178350D03*
X47450Y175800D03*
X52850Y185400D03*
X35100Y212950D03*
X51450Y228150D03*
X24859Y212509D03*
X25750Y201800D03*
X38500Y213450D03*
X47450Y214500D03*
X39450Y238000D03*
X45450Y239900D03*
X36850Y239850D03*
X25900Y232500D03*
X28850Y232600D03*
X33700Y239950D03*
X50750Y231350D03*
X41550Y239900D03*
X31550Y232600D03*
X81750Y4250D03*
X76750Y150D03*
X83150Y9150D03*
X55688Y17750D03*
X64850Y16850D03*
X64600Y21100D03*
X59150Y18250D03*
X81400Y33000D03*
X61750Y20250D03*
X62950Y30650D03*
X63350Y34100D03*
X75600Y73050D03*
X65550Y68750D03*
X56300Y104100D03*
X76750Y101750D03*
X60500Y104300D03*
X57800Y92500D03*
X74650Y82050D03*
X82700Y102650D03*
X69200Y128350D03*
X68802Y120748D03*
X78600Y129600D03*
X71500Y126800D03*
X65865Y122650D03*
X59900Y122307D03*
X60800Y119450D03*
X78250Y132300D03*
X63400Y110800D03*
X61450Y108500D03*
X76500Y117650D03*
X84750Y115850D03*
X73450Y124100D03*
X72300Y144500D03*
X72600Y141500D03*
X59910Y140000D03*
X78550Y138900D03*
X65350Y141850D03*
X59750Y142750D03*
X67200Y157900D03*
X66729Y167271D03*
X62150Y147850D03*
X64400Y144500D03*
X57550Y158850D03*
X76200Y165750D03*
X56200Y144650D03*
X85800Y197600D03*
X68700Y177800D03*
X66750Y179900D03*
X65050Y197850D03*
X71850Y178150D03*
X67850Y171750D03*
X65850Y185750D03*
X65650Y191450D03*
X85900Y203900D03*
X65950Y227450D03*
X85800Y201050D03*
X59150Y223450D03*
X76450Y202750D03*
X85800Y239500D03*
X57200Y238550D03*
X69150Y236350D03*
X61200Y238500D03*
X80000Y239150D03*
X82750Y239100D03*
X76900Y239550D03*
X69150Y239350D03*
X63050Y241100D03*
X102413Y-28213D03*
X113850Y-21250D03*
X104050D03*
X97250Y-21150D03*
X98200Y-12550D03*
X98300Y-8050D03*
X110750Y-17600D03*
X103900Y-17300D03*
X98650Y-16650D03*
X114250Y-14750D03*
X108500Y-2650D03*
X87950Y-14150D03*
X94050Y-5950D03*
X105400Y-8500D03*
X113850Y-8600D03*
X94050Y-17350D03*
X86250Y3400D03*
X113650Y-2550D03*
X86400Y13900D03*
X108150Y43950D03*
X86350Y19250D03*
X108400Y14000D03*
X114150Y23950D03*
X86350Y23750D03*
X113550Y13850D03*
X98050Y44350D03*
X113950Y34650D03*
X86400Y28250D03*
X86350Y39200D03*
X108200Y34250D03*
X113750Y44050D03*
X108300Y24050D03*
X94950Y72200D03*
X106150Y74650D03*
X114750Y66350D03*
X114100Y48600D03*
X117000Y57350D03*
X91600Y100750D03*
X104300Y103800D03*
X106400Y78500D03*
X117250Y101477D03*
X104500Y84800D03*
Y89900D03*
X88400Y137400D03*
Y131400D03*
X95050Y119150D03*
X86800Y112250D03*
X106300Y112400D03*
X101645Y126199D03*
X108700Y116650D03*
X94850Y125550D03*
X105775Y116925D03*
X91900Y126600D03*
X93300Y115950D03*
X108400Y107750D03*
X87700Y142300D03*
X111300Y140250D03*
X90200Y141150D03*
X113850Y152500D03*
X108600Y142800D03*
X89650Y165850D03*
X112050Y166350D03*
X112150Y170150D03*
X113750Y215000D03*
X109450Y215050D03*
X111300Y205150D03*
X96450Y240950D03*
X92650Y239100D03*
X94250Y233550D03*
X88800Y239200D03*
X102706Y234050D03*
X86500Y232400D03*
X99250Y238150D03*
X106057Y234050D03*
X125400Y-20350D03*
X122098Y-28250D03*
X141783Y-28300D03*
X120800Y-17350D03*
X141700Y4800D03*
X142650Y13000D03*
X144100Y8800D03*
X147000Y10750D03*
X141050Y38650D03*
X141150Y28250D03*
X139500Y16250D03*
X136050Y67250D03*
X137850Y45700D03*
X129850Y53050D03*
X126100Y57450D03*
X128950Y48450D03*
X142800Y55050D03*
X142700Y52050D03*
X141250Y72150D03*
X134850Y74100D03*
X121050Y46800D03*
X141250Y97550D03*
X137250Y105350D03*
X145216Y89684D03*
X136550Y95550D03*
X117900Y80450D03*
X117300Y94200D03*
X132750Y99600D03*
X128850Y98550D03*
X134350Y81700D03*
X145199Y93603D03*
Y85729D03*
X135750Y88600D03*
X141262Y85729D03*
X145199Y81792D03*
X137325D03*
X141262D03*
X137325Y77855D03*
X145199D03*
X141262Y105414D03*
X145199D03*
X141262Y101477D03*
X145199D03*
X137200Y121400D03*
X128400Y106650D03*
X141200Y121200D03*
X126000Y119200D03*
X133200Y107350D03*
X141262Y109351D03*
X145199D03*
Y113288D03*
Y117225D03*
X123800Y165900D03*
X139950Y143450D03*
X125950Y151350D03*
X118350Y155550D03*
X129900Y141500D03*
X119000Y150400D03*
X136300Y137650D03*
X126200Y164550D03*
X125800Y154650D03*
X118050Y171950D03*
X126750Y181550D03*
X124150Y173750D03*
X126750Y189600D03*
Y194600D03*
X126350Y169700D03*
X126850Y184650D03*
X125250Y215000D03*
X123400Y230150D03*
X134500Y206100D03*
X140950Y212650D03*
X136700Y215700D03*
X122150Y213300D03*
X145200Y212750D03*
X117300Y201700D03*
X130200Y215700D03*
X117750Y204800D03*
X137500Y212500D03*
X127100Y203950D03*
X144850Y215450D03*
X148250Y207700D03*
X140150Y236650D03*
X143800Y238850D03*
X136050Y240300D03*
X126035Y240650D03*
X166200Y-900D03*
X156250Y-200D03*
X159000Y-1600D03*
X163000Y-1650D03*
X152450Y7250D03*
X170500Y4200D03*
X149500Y8450D03*
X162150Y-5350D03*
X170300Y26650D03*
X160450Y39750D03*
X153500Y27150D03*
X150000Y42600D03*
X170450Y30550D03*
X149550D03*
X168480Y51867D03*
X152850Y54600D03*
X152950Y59000D03*
X160200Y63900D03*
X152050Y62250D03*
X160100Y68250D03*
X176750Y73850D03*
X149100Y49150D03*
X165850Y66450D03*
X149050Y72150D03*
X170650Y70300D03*
X174750Y70200D03*
X168800Y73900D03*
X160900Y89662D03*
X168820Y93603D03*
Y101477D03*
Y89666D03*
X153073Y93603D03*
X164883Y89666D03*
Y105414D03*
X157010D03*
X153073D03*
X164883Y101477D03*
X153073D03*
X168820Y105414D03*
X157010Y101477D03*
X164850Y93600D03*
X168850Y85650D03*
X149136Y81792D03*
X160950Y77850D03*
X176650Y93550D03*
X153073Y81792D03*
Y85729D03*
X172850Y81800D03*
X160950Y93600D03*
X149136Y93603D03*
X153073Y89666D03*
X149136D03*
Y85729D03*
Y105414D03*
Y101477D03*
X160900Y85700D03*
X164900Y85750D03*
X176694Y77855D03*
X168800Y81750D03*
X172757Y77855D03*
X164900Y81800D03*
X172757Y105414D03*
X176694D03*
X176750Y97550D03*
X176694Y81792D03*
X172757Y101477D03*
X176694Y85729D03*
X157010Y81792D03*
Y85729D03*
X176694Y89666D03*
X172800Y97550D03*
X168250Y134150D03*
X160950Y113350D03*
X172200Y136550D03*
X160900Y121100D03*
X172757Y117225D03*
X168950Y125550D03*
X172757Y109351D03*
X162800Y132100D03*
X164883Y113288D03*
Y109351D03*
X168820Y113288D03*
Y109351D03*
Y117225D03*
X157010Y113288D03*
Y109351D03*
X153073Y117225D03*
Y113288D03*
Y109351D03*
X149100Y121500D03*
X149136Y113288D03*
Y109351D03*
X176694D03*
X172757Y113288D03*
X175500Y150950D03*
X165300Y163500D03*
X161500Y145850D03*
X170850Y144000D03*
X166450Y153600D03*
X166650Y156700D03*
X155700Y164600D03*
X155350Y154550D03*
X156950Y141600D03*
X166500Y173600D03*
X166100Y176550D03*
X157550Y173500D03*
X159100Y186250D03*
X159900Y195350D03*
X164900Y186200D03*
X155762Y196350D03*
X166000Y182850D03*
X166500Y169600D03*
X155350Y182650D03*
X155700Y169600D03*
X162850Y191100D03*
X166300Y189000D03*
X163750Y201500D03*
X166800Y201150D03*
X160400Y215050D03*
X154250Y214950D03*
X163450Y214700D03*
X157600Y214850D03*
X170900Y215900D03*
X175150Y229900D03*
X166450Y215750D03*
X158950Y201400D03*
X159500Y240500D03*
X148350Y238300D03*
X155500Y240650D03*
X149650Y240750D03*
X177217Y240400D03*
X157450Y233600D03*
X159400Y236200D03*
X151450Y238300D03*
X192965Y-27800D03*
X209400Y-5700D03*
X204500Y-6350D03*
X187250Y44392D03*
X199850Y44300D03*
X192900Y51050D03*
X196650Y102050D03*
X186650Y76400D03*
X184625Y105475D03*
X198950Y95800D03*
X194300Y81800D03*
X191650Y103450D03*
X180631Y105414D03*
X187050Y79800D03*
X194450Y95550D03*
X192450Y79750D03*
X184850Y101450D03*
X189450Y101300D03*
X186050Y89750D03*
X200050Y81792D03*
X192650Y85729D03*
X192600Y89650D03*
X186550Y85800D03*
X193350Y121450D03*
X183400Y129400D03*
Y133550D03*
X206200Y117400D03*
X183100Y126600D03*
X184588Y113288D03*
X181250Y123800D03*
X187300Y121250D03*
X180631Y117225D03*
X205350Y144300D03*
X207800Y155150D03*
X185900Y151150D03*
X195350Y159600D03*
X183700Y138900D03*
X208650Y147550D03*
X199300Y175500D03*
X195500Y171200D03*
Y189600D03*
X198150Y191550D03*
X195550Y174650D03*
X196725Y201700D03*
X194400Y204250D03*
X207500Y203850D03*
X194100Y216050D03*
X182400Y215500D03*
X194150Y212300D03*
X188300Y212400D03*
X187800Y203350D03*
X206815Y229250D03*
X194775Y239000D03*
X187125Y236875D03*
X192088Y230850D03*
X191050Y238100D03*
X202550Y236450D03*
X196902Y241150D03*
X202650Y233350D03*
X196850Y234550D03*
X209150Y235500D03*
X183250Y237950D03*
X230200Y-19150D03*
X223550Y3300D03*
Y350D03*
X231400Y9950D03*
X223550Y6150D03*
X231500Y21950D03*
X231400Y13650D03*
X231450Y17850D03*
X213500Y58250D03*
X219800Y56950D03*
X210750Y58050D03*
X235250Y104600D03*
X214650Y96100D03*
X238000Y102000D03*
X233000D03*
X227500Y117500D03*
Y125350D03*
Y129000D03*
Y136500D03*
Y133000D03*
X220800Y133800D03*
X237500Y106950D03*
X213988Y111000D03*
X217400Y121500D03*
X224550Y111550D03*
X236950Y117400D03*
X236850Y111650D03*
X220200Y165000D03*
X225000Y147400D03*
X221400Y144850D03*
X220400Y151500D03*
X220350Y162100D03*
X220950Y141650D03*
X230950Y176100D03*
Y191350D03*
X214800Y196075D03*
X222350Y190850D03*
X220000Y171200D03*
X229200Y229300D03*
X222500Y223000D03*
X222900Y228000D03*
X230950Y200950D03*
X229850Y216150D03*
X238900Y213050D03*
X222750Y201000D03*
X226700Y212400D03*
X230350Y223000D03*
X239535Y226950D03*
X220500Y224950D03*
X222750Y207150D03*
X222450Y216950D03*
X226500Y229300D03*
X218650Y230550D03*
X222350Y232525D03*
X218700Y235600D03*
X222350Y237700D03*
X238100Y240650D03*
X230400Y240600D03*
X226450Y232100D03*
X234450Y236600D03*
X216550Y238700D03*
X215950Y233850D03*
X212100Y232850D03*
X234650Y232050D03*
X237450Y234550D03*
X255957Y-27607D03*
X251700Y100450D03*
X253250Y107200D03*
X256900Y160900D03*
X256200Y164900D03*
X256950Y167700D03*
X256800Y180900D03*
X256450Y190950D03*
X256650Y195950D03*
X256350Y185950D03*
Y201500D03*
X269900Y226400D03*
X262150Y206150D03*
X242150Y219900D03*
X262100Y220600D03*
X265450Y220800D03*
X242200Y217100D03*
X244150Y227750D03*
X246950Y225550D03*
X243750Y224600D03*
X257750Y228650D03*
X249200Y221800D03*
X263550Y229450D03*
X251150Y218050D03*
X265900Y238400D03*
X249250Y235350D03*
X275450Y47250D03*
X299300Y91200D03*
X291300Y95350D03*
X291900Y90450D03*
X291700Y100500D03*
X295850Y91750D03*
X288150Y130250D03*
X291425Y127225D03*
X273350Y121700D03*
X279850Y134650D03*
X292100Y120450D03*
X291800Y110450D03*
X288350Y139050D03*
X295650Y145400D03*
X300950Y158050D03*
X289600Y160950D03*
X273150D03*
X273050Y150950D03*
X290550Y155950D03*
X288350Y151000D03*
X273050Y155950D03*
X290150Y165950D03*
X273650Y186000D03*
X287925Y178475D03*
X285500Y199550D03*
X273500Y190850D03*
X290450Y180950D03*
Y175950D03*
Y190950D03*
X276750Y206250D03*
X303350Y205850D03*
X284150Y204150D03*
X279850Y205600D03*
X291750Y205350D03*
X293850Y199950D03*
X297700Y205750D03*
X277250Y227200D03*
X282800Y218900D03*
X274600Y220000D03*
X296400Y229400D03*
X303350Y229600D03*
X286450Y233050D03*
X303200Y240800D03*
X318100Y-27950D03*
X319250Y-24550D03*
X321150Y5950D03*
Y16000D03*
Y35950D03*
Y25950D03*
X316800Y89000D03*
X320850Y88950D03*
X326850Y84350D03*
X306350Y107700D03*
X304146Y115300D03*
X316750Y167750D03*
X326850Y154200D03*
X307550Y140750D03*
X311450Y205350D03*
X320450Y237550D03*
X311075Y238500D03*
X318949Y241000D03*
X307138Y240850D03*
X315012Y240900D03*
G54D20*
G01X160950Y93600D02*
X162850Y91700D01*
Y83950D01*
G01X155050Y80400D02*
Y91626D01*
X153073Y93603D01*
G01Y89666D02*
X151100Y91639D01*
Y119500D01*
G01X168750Y142050D02*
Y144850D01*
X173506Y149606D01*
X174156D01*
X175500Y150950D01*
G54D11*
G01X-33350Y-179250D02*
X366650D01*
G01X-33350Y-149250D02*
Y-129250D01*
X366650D01*
G01X16650Y-199250D02*
Y-179250D01*
G01X50950Y103250D02*
Y107750D01*
G01X142150Y-199250D02*
Y-179250D01*
G01X141650Y-129250D02*
Y-99250D01*
G01X162850Y83950D02*
Y80750D01*
X164000Y79600D01*
Y67550D01*
X162750Y66300D01*
Y17550D01*
X152450Y7250D01*
G01X153500Y27150D02*
X157150Y30800D01*
Y78300D01*
X155050Y80400D01*
G01X151100Y119500D02*
X155950Y124350D01*
Y128700D01*
X168750Y141500D01*
Y142050D01*
G01X191650Y-199250D02*
Y-179250D01*
X0Y0D03*
X128515Y66585D03*
Y86585D03*
Y128495D03*
X141050Y148350D03*
Y205850D03*
X181050Y148350D03*
Y205850D03*
X190425Y66585D03*
Y128495D03*
Y118495D03*
X310750Y121050D03*
Y216250D03*
G54D21*
G01X-21701Y-176250D02*
Y-171530D01*
X-19459D01*
G01X-20285Y-173811D02*
X-21701D01*
G01X-17040Y-176250D02*
Y-171530D01*
X-15565D01*
X-15093Y-171766D01*
X-14798Y-172081D01*
X-14680Y-172710D01*
X-14798Y-173339D01*
X-15152Y-173733D01*
X-15565Y-173969D01*
X-17040D01*
G01X-15565D02*
X-14680Y-176250D01*
G01X-9960D02*
X-12320D01*
Y-171530D01*
X-9960D01*
G01X-10904Y-173811D02*
X-12320D01*
G01X-5240Y-176250D02*
X-7600D01*
Y-171530D01*
X-5240D01*
G01X-6184Y-173811D02*
X-7600D01*
G01X-2939Y-175621D02*
X-2467Y-176014D01*
X-1936Y-176250D01*
X-1464D01*
X-992Y-176014D01*
X-638Y-175621D01*
X-461Y-175070D01*
X-579Y-174519D01*
X-874Y-174047D01*
X-1405Y-173733D01*
X-2113Y-173575D01*
X-2526Y-173261D01*
X-2703Y-172710D01*
X-2585Y-172159D01*
X-2290Y-171766D01*
X-1877Y-171530D01*
X-1464D01*
X-1051Y-171687D01*
X-697Y-172081D01*
G01X4318Y-171923D02*
X3964Y-171687D01*
X3551Y-171530D01*
X3079D01*
X2548Y-171766D01*
X2135Y-172159D01*
X1840Y-172631D01*
X1604Y-173418D01*
X1545Y-174126D01*
X1663Y-174834D01*
X1840Y-175306D01*
X2194Y-175778D01*
X2607Y-176093D01*
X3020Y-176250D01*
X3433D01*
X3846Y-176093D01*
X4200Y-175857D01*
X4495Y-175542D01*
G01X6265Y-176250D02*
X7740Y-171530D01*
X9215Y-176250D01*
G01X8684Y-174598D02*
X6796D01*
G01X11280Y-171530D02*
Y-176250D01*
X13640D01*
G01X18360D02*
X16000D01*
Y-171530D01*
X18360D01*
G01X17416Y-173811D02*
X16000D01*
G01X21900Y-176407D02*
X21782Y-176329D01*
Y-176171D01*
X21900Y-176093D01*
X22018Y-176171D01*
Y-176329D01*
X21900Y-176407D01*
G01X-29819Y-186621D02*
X-29347Y-187014D01*
X-28816Y-187250D01*
X-28344D01*
X-27872Y-187014D01*
X-27518Y-186621D01*
X-27341Y-186070D01*
X-27459Y-185519D01*
X-27754Y-185047D01*
X-28285Y-184733D01*
X-28993Y-184575D01*
X-29406Y-184261D01*
X-29583Y-183710D01*
X-29465Y-183159D01*
X-29170Y-182766D01*
X-28757Y-182530D01*
X-28344D01*
X-27931Y-182687D01*
X-27577Y-183081D01*
G01X-25099Y-187250D02*
Y-182530D01*
G01X-22621D02*
Y-187250D01*
G01Y-184890D02*
X-25099D01*
G01X-17960Y-187250D02*
X-20320D01*
Y-182530D01*
X-17960D01*
G01X-18904Y-184811D02*
X-20320D01*
G01X-13240Y-187250D02*
X-15600D01*
Y-182530D01*
X-13240D01*
G01X-14184Y-184811D02*
X-15600D01*
G01X-9700Y-182530D02*
Y-187250D01*
G01X-11057Y-182530D02*
X-8343D01*
G01X-21580Y-168250D02*
X-22052Y-168171D01*
X-22465Y-167857D01*
X-22819Y-167385D01*
X-23055Y-166834D01*
X-23173Y-166205D01*
Y-165575D01*
X-23055Y-164946D01*
X-22819Y-164395D01*
X-22465Y-163923D01*
X-22052Y-163609D01*
X-21580Y-163530D01*
X-21108Y-163609D01*
X-20695Y-163923D01*
X-20341Y-164395D01*
X-20105Y-164946D01*
X-19987Y-165575D01*
Y-166205D01*
X-20105Y-166834D01*
X-20341Y-167385D01*
X-20695Y-167857D01*
X-21108Y-168171D01*
X-21580Y-168250D01*
G01X-18040D02*
Y-163530D01*
X-16565D01*
X-16093Y-163766D01*
X-15798Y-164081D01*
X-15680Y-164710D01*
X-15798Y-165339D01*
X-16152Y-165733D01*
X-16565Y-165969D01*
X-18040D01*
G01X-16565D02*
X-15680Y-168250D01*
G01X-8128Y-163530D02*
X-6712D01*
G01X-7420D02*
Y-168250D01*
G01X-8128D02*
X-6712D01*
G01X-4057D02*
Y-163530D01*
X-1343Y-168250D01*
Y-163530D01*
G01X5560Y-168250D02*
Y-163530D01*
X6976D01*
X7448Y-163766D01*
X7802Y-164317D01*
X7920Y-164946D01*
X7802Y-165575D01*
X7507Y-166047D01*
X6976Y-166283D01*
X5560D01*
G01X9985Y-168250D02*
X11460Y-163530D01*
X12935Y-168250D01*
G01X12404Y-166598D02*
X10516D01*
G01X15000Y-168250D02*
Y-163530D01*
X16475D01*
X16947Y-163766D01*
X17242Y-164081D01*
X17360Y-164710D01*
X17242Y-165339D01*
X16888Y-165733D01*
X16475Y-165969D01*
X15000D01*
G01X16475D02*
X17360Y-168250D01*
G01X20900Y-163530D02*
Y-168250D01*
G01X19543Y-163530D02*
X22257D01*
G01X28570D02*
X29396Y-168250D01*
X30340Y-163530D01*
X31284Y-168250D01*
X32110Y-163530D01*
G01X34352D02*
X35768D01*
G01X35060D02*
Y-168250D01*
G01X34352D02*
X35768D01*
G01X39780Y-163530D02*
Y-168250D01*
G01X38423Y-163530D02*
X41137D01*
G01X43261Y-168250D02*
Y-163530D01*
G01X45739D02*
Y-168250D01*
G01Y-165890D02*
X43261D01*
G01X49220Y-168250D02*
X48748Y-168171D01*
X48335Y-167857D01*
X47981Y-167385D01*
X47745Y-166834D01*
X47627Y-166205D01*
Y-165575D01*
X47745Y-164946D01*
X47981Y-164395D01*
X48335Y-163923D01*
X48748Y-163609D01*
X49220Y-163530D01*
X49692Y-163609D01*
X50105Y-163923D01*
X50459Y-164395D01*
X50695Y-164946D01*
X50813Y-165575D01*
Y-166205D01*
X50695Y-166834D01*
X50459Y-167385D01*
X50105Y-167857D01*
X49692Y-168171D01*
X49220Y-168250D01*
G01X52642Y-163530D02*
Y-166913D01*
X52878Y-167621D01*
X53350Y-168093D01*
X53940Y-168250D01*
X54530Y-168093D01*
X55002Y-167621D01*
X55238Y-166913D01*
Y-163530D01*
G01X58660D02*
Y-168250D01*
G01X57303Y-163530D02*
X60017D01*
G01X68100D02*
Y-168250D01*
G01X66743Y-163530D02*
X69457D01*
G01X71581Y-168250D02*
Y-163530D01*
G01X74059D02*
Y-168250D01*
G01Y-165890D02*
X71581D01*
G01X78720Y-168250D02*
X76360D01*
Y-163530D01*
X78720D01*
G01X77776Y-165811D02*
X76360D01*
G01X88278Y-163923D02*
X87924Y-163687D01*
X87511Y-163530D01*
X87039D01*
X86508Y-163766D01*
X86095Y-164159D01*
X85800Y-164631D01*
X85564Y-165418D01*
X85505Y-166126D01*
X85623Y-166834D01*
X85800Y-167306D01*
X86154Y-167778D01*
X86567Y-168093D01*
X86980Y-168250D01*
X87393D01*
X87806Y-168093D01*
X88160Y-167857D01*
X88455Y-167542D01*
G01X91700Y-168250D02*
X91228Y-168171D01*
X90815Y-167857D01*
X90461Y-167385D01*
X90225Y-166834D01*
X90107Y-166205D01*
Y-165575D01*
X90225Y-164946D01*
X90461Y-164395D01*
X90815Y-163923D01*
X91228Y-163609D01*
X91700Y-163530D01*
X92172Y-163609D01*
X92585Y-163923D01*
X92939Y-164395D01*
X93175Y-164946D01*
X93293Y-165575D01*
Y-166205D01*
X93175Y-166834D01*
X92939Y-167385D01*
X92585Y-167857D01*
X92172Y-168171D01*
X91700Y-168250D01*
G01X95063D02*
Y-163530D01*
X97777Y-168250D01*
Y-163530D01*
G01X99901Y-167621D02*
X100373Y-168014D01*
X100904Y-168250D01*
X101376D01*
X101848Y-168014D01*
X102202Y-167621D01*
X102379Y-167070D01*
X102261Y-166519D01*
X101966Y-166047D01*
X101435Y-165733D01*
X100727Y-165575D01*
X100314Y-165261D01*
X100137Y-164710D01*
X100255Y-164159D01*
X100550Y-163766D01*
X100963Y-163530D01*
X101376D01*
X101789Y-163687D01*
X102143Y-164081D01*
G01X107040Y-168250D02*
X104680D01*
Y-163530D01*
X107040D01*
G01X106096Y-165811D02*
X104680D01*
G01X109223Y-168250D02*
Y-163530D01*
X111937Y-168250D01*
Y-163530D01*
G01X115300D02*
Y-168250D01*
G01X113943Y-163530D02*
X116657D01*
G01X124740Y-168250D02*
X124268Y-168171D01*
X123855Y-167857D01*
X123501Y-167385D01*
X123265Y-166834D01*
X123147Y-166205D01*
Y-165575D01*
X123265Y-164946D01*
X123501Y-164395D01*
X123855Y-163923D01*
X124268Y-163609D01*
X124740Y-163530D01*
X125212Y-163609D01*
X125625Y-163923D01*
X125979Y-164395D01*
X126215Y-164946D01*
X126333Y-165575D01*
Y-166205D01*
X126215Y-166834D01*
X125979Y-167385D01*
X125625Y-167857D01*
X125212Y-168171D01*
X124740Y-168250D01*
G01X128339D02*
Y-163530D01*
X130581D01*
G01X129755Y-165811D02*
X128339D01*
G01X-22760Y-160250D02*
Y-155530D01*
X-21344D01*
X-20872Y-155766D01*
X-20518Y-156317D01*
X-20400Y-156946D01*
X-20518Y-157575D01*
X-20813Y-158047D01*
X-21344Y-158283D01*
X-22760D01*
G01X-18040Y-160250D02*
Y-155530D01*
X-16565D01*
X-16093Y-155766D01*
X-15798Y-156081D01*
X-15680Y-156710D01*
X-15798Y-157339D01*
X-16152Y-157733D01*
X-16565Y-157969D01*
X-18040D01*
G01X-16565D02*
X-15680Y-160250D01*
G01X-12140D02*
X-12612Y-160171D01*
X-13025Y-159857D01*
X-13379Y-159385D01*
X-13615Y-158834D01*
X-13733Y-158205D01*
Y-157575D01*
X-13615Y-156946D01*
X-13379Y-156395D01*
X-13025Y-155923D01*
X-12612Y-155609D01*
X-12140Y-155530D01*
X-11668Y-155609D01*
X-11255Y-155923D01*
X-10901Y-156395D01*
X-10665Y-156946D01*
X-10547Y-157575D01*
Y-158205D01*
X-10665Y-158834D01*
X-10901Y-159385D01*
X-11255Y-159857D01*
X-11668Y-160171D01*
X-12140Y-160250D01*
G01X-6122Y-155923D02*
X-6476Y-155687D01*
X-6889Y-155530D01*
X-7361D01*
X-7892Y-155766D01*
X-8305Y-156159D01*
X-8600Y-156631D01*
X-8836Y-157418D01*
X-8895Y-158126D01*
X-8777Y-158834D01*
X-8600Y-159306D01*
X-8246Y-159778D01*
X-7833Y-160093D01*
X-7420Y-160250D01*
X-7007D01*
X-6594Y-160093D01*
X-6240Y-159857D01*
X-5945Y-159542D01*
G01X-3998Y-155530D02*
Y-158913D01*
X-3762Y-159621D01*
X-3290Y-160093D01*
X-2700Y-160250D01*
X-2110Y-160093D01*
X-1638Y-159621D01*
X-1402Y-158913D01*
Y-155530D01*
G01X840Y-160250D02*
Y-155530D01*
X2315D01*
X2787Y-155766D01*
X3082Y-156081D01*
X3200Y-156710D01*
X3082Y-157339D01*
X2728Y-157733D01*
X2315Y-157969D01*
X840D01*
G01X2315D02*
X3200Y-160250D01*
G01X7920D02*
X5560D01*
Y-155530D01*
X7920D01*
G01X6976Y-157811D02*
X5560D01*
G01X9926Y-160250D02*
Y-155530D01*
X11460Y-159463D01*
X12994Y-155530D01*
Y-160250D01*
G01X17360D02*
X15000D01*
Y-155530D01*
X17360D01*
G01X16416Y-157811D02*
X15000D01*
G01X19543Y-160250D02*
Y-155530D01*
X22257Y-160250D01*
Y-155530D01*
G01X25620D02*
Y-160250D01*
G01X24263Y-155530D02*
X26977D01*
G01X35060Y-160250D02*
X34588Y-160171D01*
X34175Y-159857D01*
X33821Y-159385D01*
X33585Y-158834D01*
X33467Y-158205D01*
Y-157575D01*
X33585Y-156946D01*
X33821Y-156395D01*
X34175Y-155923D01*
X34588Y-155609D01*
X35060Y-155530D01*
X35532Y-155609D01*
X35945Y-155923D01*
X36299Y-156395D01*
X36535Y-156946D01*
X36653Y-157575D01*
Y-158205D01*
X36535Y-158834D01*
X36299Y-159385D01*
X35945Y-159857D01*
X35532Y-160171D01*
X35060Y-160250D01*
G01X38600D02*
Y-155530D01*
X40075D01*
X40547Y-155766D01*
X40842Y-156081D01*
X40960Y-156710D01*
X40842Y-157339D01*
X40488Y-157733D01*
X40075Y-157969D01*
X38600D01*
G01X40075D02*
X40960Y-160250D01*
G01X47686D02*
Y-155530D01*
X49220Y-159463D01*
X50754Y-155530D01*
Y-160250D01*
G01X52465D02*
X53940Y-155530D01*
X55415Y-160250D01*
G01X54884Y-158598D02*
X52996D01*
G01X57303Y-160250D02*
Y-155530D01*
X60017Y-160250D01*
Y-155530D01*
G01X62082D02*
Y-158913D01*
X62318Y-159621D01*
X62790Y-160093D01*
X63380Y-160250D01*
X63970Y-160093D01*
X64442Y-159621D01*
X64678Y-158913D01*
Y-155530D01*
G01X66979Y-160250D02*
Y-155530D01*
X69221D01*
G01X68395Y-157811D02*
X66979D01*
G01X71345Y-160250D02*
X72820Y-155530D01*
X74295Y-160250D01*
G01X73764Y-158598D02*
X71876D01*
G01X78838Y-155923D02*
X78484Y-155687D01*
X78071Y-155530D01*
X77599D01*
X77068Y-155766D01*
X76655Y-156159D01*
X76360Y-156631D01*
X76124Y-157418D01*
X76065Y-158126D01*
X76183Y-158834D01*
X76360Y-159306D01*
X76714Y-159778D01*
X77127Y-160093D01*
X77540Y-160250D01*
X77953D01*
X78366Y-160093D01*
X78720Y-159857D01*
X79015Y-159542D01*
G01X82260Y-155530D02*
Y-160250D01*
G01X80903Y-155530D02*
X83617D01*
G01X85682D02*
Y-158913D01*
X85918Y-159621D01*
X86390Y-160093D01*
X86980Y-160250D01*
X87570Y-160093D01*
X88042Y-159621D01*
X88278Y-158913D01*
Y-155530D01*
G01X90520Y-160250D02*
Y-155530D01*
X91995D01*
X92467Y-155766D01*
X92762Y-156081D01*
X92880Y-156710D01*
X92762Y-157339D01*
X92408Y-157733D01*
X91995Y-157969D01*
X90520D01*
G01X91995D02*
X92880Y-160250D01*
G01X97600D02*
X95240D01*
Y-155530D01*
X97600D01*
G01X96656Y-157811D02*
X95240D01*
G01X105152Y-155530D02*
X106568D01*
G01X105860D02*
Y-160250D01*
G01X105152D02*
X106568D01*
G01X109223D02*
Y-155530D01*
X111937Y-160250D01*
Y-155530D01*
G01X118250D02*
X119076Y-160250D01*
X120020Y-155530D01*
X120964Y-160250D01*
X121790Y-155530D01*
G01X123501Y-160250D02*
Y-155530D01*
G01X125979D02*
Y-160250D01*
G01Y-157890D02*
X123501D01*
G01X129460Y-160250D02*
X128988Y-160171D01*
X128575Y-159857D01*
X128221Y-159385D01*
X127985Y-158834D01*
X127867Y-158205D01*
Y-157575D01*
X127985Y-156946D01*
X128221Y-156395D01*
X128575Y-155923D01*
X128988Y-155609D01*
X129460Y-155530D01*
X129932Y-155609D01*
X130345Y-155923D01*
X130699Y-156395D01*
X130935Y-156946D01*
X131053Y-157575D01*
Y-158205D01*
X130935Y-158834D01*
X130699Y-159385D01*
X130345Y-159857D01*
X129932Y-160171D01*
X129460Y-160250D01*
G01X133000Y-155530D02*
Y-160250D01*
X135360D01*
G01X140080D02*
X137720D01*
Y-155530D01*
X140080D01*
G01X139136Y-157811D02*
X137720D01*
G01X-22937Y-152250D02*
Y-147530D01*
X-20223Y-152250D01*
Y-147530D01*
G01X-16860Y-152250D02*
X-17332Y-152171D01*
X-17745Y-151857D01*
X-18099Y-151385D01*
X-18335Y-150834D01*
X-18453Y-150205D01*
Y-149575D01*
X-18335Y-148946D01*
X-18099Y-148395D01*
X-17745Y-147923D01*
X-17332Y-147609D01*
X-16860Y-147530D01*
X-16388Y-147609D01*
X-15975Y-147923D01*
X-15621Y-148395D01*
X-15385Y-148946D01*
X-15267Y-149575D01*
Y-150205D01*
X-15385Y-150834D01*
X-15621Y-151385D01*
X-15975Y-151857D01*
X-16388Y-152171D01*
X-16860Y-152250D01*
G01X-12140Y-147530D02*
Y-152250D01*
G01X-13497Y-147530D02*
X-10783D01*
G01X-2228Y-149733D02*
X-1992Y-149497D01*
X-1815Y-149103D01*
X-1697Y-148553D01*
X-1815Y-148081D01*
X-2051Y-147766D01*
X-2464Y-147530D01*
X-4057D01*
Y-152250D01*
X-2110D01*
X-1697Y-151935D01*
X-1461Y-151463D01*
X-1343Y-150913D01*
X-1461Y-150362D01*
X-1815Y-149890D01*
X-2228Y-149733D01*
X-4057D01*
G01X3200Y-152250D02*
X840D01*
Y-147530D01*
X3200D01*
G01X2256Y-149811D02*
X840D01*
G01X10162Y-147530D02*
Y-150913D01*
X10398Y-151621D01*
X10870Y-152093D01*
X11460Y-152250D01*
X12050Y-152093D01*
X12522Y-151621D01*
X12758Y-150913D01*
Y-147530D01*
G01X14941Y-151621D02*
X15413Y-152014D01*
X15944Y-152250D01*
X16416D01*
X16888Y-152014D01*
X17242Y-151621D01*
X17419Y-151070D01*
X17301Y-150519D01*
X17006Y-150047D01*
X16475Y-149733D01*
X15767Y-149575D01*
X15354Y-149261D01*
X15177Y-148710D01*
X15295Y-148159D01*
X15590Y-147766D01*
X16003Y-147530D01*
X16416D01*
X16829Y-147687D01*
X17183Y-148081D01*
G01X22080Y-152250D02*
X19720D01*
Y-147530D01*
X22080D01*
G01X21136Y-149811D02*
X19720D01*
G01X24322Y-152250D02*
Y-147530D01*
X25502D01*
X25974Y-147766D01*
X26328Y-148081D01*
X26623Y-148553D01*
X26859Y-149103D01*
X26918Y-149890D01*
X26859Y-150677D01*
X26623Y-151227D01*
X26328Y-151699D01*
X25974Y-152014D01*
X25502Y-152250D01*
X24322D01*
G01X33939D02*
Y-147530D01*
X36181D01*
G01X35355Y-149811D02*
X33939D01*
G01X39780Y-152250D02*
X39308Y-152171D01*
X38895Y-151857D01*
X38541Y-151385D01*
X38305Y-150834D01*
X38187Y-150205D01*
Y-149575D01*
X38305Y-148946D01*
X38541Y-148395D01*
X38895Y-147923D01*
X39308Y-147609D01*
X39780Y-147530D01*
X40252Y-147609D01*
X40665Y-147923D01*
X41019Y-148395D01*
X41255Y-148946D01*
X41373Y-149575D01*
Y-150205D01*
X41255Y-150834D01*
X41019Y-151385D01*
X40665Y-151857D01*
X40252Y-152171D01*
X39780Y-152250D01*
G01X43320D02*
Y-147530D01*
X44795D01*
X45267Y-147766D01*
X45562Y-148081D01*
X45680Y-148710D01*
X45562Y-149339D01*
X45208Y-149733D01*
X44795Y-149969D01*
X43320D01*
G01X44795D02*
X45680Y-152250D01*
G01X55120D02*
X52760D01*
Y-147530D01*
X55120D01*
G01X54176Y-149811D02*
X52760D01*
G01X57303Y-152250D02*
Y-147530D01*
X60017Y-152250D01*
Y-147530D01*
G01X63734Y-149890D02*
X64914D01*
Y-151306D01*
X64560Y-151778D01*
X64147Y-152093D01*
X63557Y-152250D01*
X62967Y-152093D01*
X62554Y-151778D01*
X62200Y-151306D01*
X61964Y-150755D01*
X61846Y-150126D01*
Y-149575D01*
X61964Y-149103D01*
X62200Y-148553D01*
X62554Y-148081D01*
X62908Y-147766D01*
X63380Y-147530D01*
X63793D01*
X64265Y-147687D01*
X64619Y-148002D01*
G01X67392Y-147530D02*
X68808D01*
G01X68100D02*
Y-152250D01*
G01X67392D02*
X68808D01*
G01X71463D02*
Y-147530D01*
X74177Y-152250D01*
Y-147530D01*
G01X78720Y-152250D02*
X76360D01*
Y-147530D01*
X78720D01*
G01X77776Y-149811D02*
X76360D01*
G01X83440Y-152250D02*
X81080D01*
Y-147530D01*
X83440D01*
G01X82496Y-149811D02*
X81080D01*
G01X85800Y-152250D02*
Y-147530D01*
X87275D01*
X87747Y-147766D01*
X88042Y-148081D01*
X88160Y-148710D01*
X88042Y-149339D01*
X87688Y-149733D01*
X87275Y-149969D01*
X85800D01*
G01X87275D02*
X88160Y-152250D01*
G01X90992Y-147530D02*
X92408D01*
G01X91700D02*
Y-152250D01*
G01X90992D02*
X92408D01*
G01X95063D02*
Y-147530D01*
X97777Y-152250D01*
Y-147530D01*
G01X101494Y-149890D02*
X102674D01*
Y-151306D01*
X102320Y-151778D01*
X101907Y-152093D01*
X101317Y-152250D01*
X100727Y-152093D01*
X100314Y-151778D01*
X99960Y-151306D01*
X99724Y-150755D01*
X99606Y-150126D01*
Y-149575D01*
X99724Y-149103D01*
X99960Y-148553D01*
X100314Y-148081D01*
X100668Y-147766D01*
X101140Y-147530D01*
X101553D01*
X102025Y-147687D01*
X102379Y-148002D01*
G01X109282Y-152250D02*
Y-147530D01*
X110462D01*
X110934Y-147766D01*
X111288Y-148081D01*
X111583Y-148553D01*
X111819Y-149103D01*
X111878Y-149890D01*
X111819Y-150677D01*
X111583Y-151227D01*
X111288Y-151699D01*
X110934Y-152014D01*
X110462Y-152250D01*
X109282D01*
G01X116480D02*
X114120D01*
Y-147530D01*
X116480D01*
G01X115536Y-149811D02*
X114120D01*
G01X118781Y-151621D02*
X119253Y-152014D01*
X119784Y-152250D01*
X120256D01*
X120728Y-152014D01*
X121082Y-151621D01*
X121259Y-151070D01*
X121141Y-150519D01*
X120846Y-150047D01*
X120315Y-149733D01*
X119607Y-149575D01*
X119194Y-149261D01*
X119017Y-148710D01*
X119135Y-148159D01*
X119430Y-147766D01*
X119843Y-147530D01*
X120256D01*
X120669Y-147687D01*
X121023Y-148081D01*
G01X124032Y-147530D02*
X125448D01*
G01X124740D02*
Y-152250D01*
G01X124032D02*
X125448D01*
G01X129814Y-149890D02*
X130994D01*
Y-151306D01*
X130640Y-151778D01*
X130227Y-152093D01*
X129637Y-152250D01*
X129047Y-152093D01*
X128634Y-151778D01*
X128280Y-151306D01*
X128044Y-150755D01*
X127926Y-150126D01*
Y-149575D01*
X128044Y-149103D01*
X128280Y-148553D01*
X128634Y-148081D01*
X128988Y-147766D01*
X129460Y-147530D01*
X129873D01*
X130345Y-147687D01*
X130699Y-148002D01*
G01X132823Y-152250D02*
Y-147530D01*
X135537Y-152250D01*
Y-147530D01*
G01X-22760Y-144250D02*
Y-139530D01*
X-21344D01*
X-20872Y-139766D01*
X-20518Y-140317D01*
X-20400Y-140946D01*
X-20518Y-141575D01*
X-20813Y-142047D01*
X-21344Y-142283D01*
X-22760D01*
G01X-18040Y-144250D02*
Y-139530D01*
X-16565D01*
X-16093Y-139766D01*
X-15798Y-140081D01*
X-15680Y-140710D01*
X-15798Y-141339D01*
X-16152Y-141733D01*
X-16565Y-141969D01*
X-18040D01*
G01X-16565D02*
X-15680Y-144250D01*
G01X-12140D02*
X-12612Y-144171D01*
X-13025Y-143857D01*
X-13379Y-143385D01*
X-13615Y-142834D01*
X-13733Y-142205D01*
Y-141575D01*
X-13615Y-140946D01*
X-13379Y-140395D01*
X-13025Y-139923D01*
X-12612Y-139609D01*
X-12140Y-139530D01*
X-11668Y-139609D01*
X-11255Y-139923D01*
X-10901Y-140395D01*
X-10665Y-140946D01*
X-10547Y-141575D01*
Y-142205D01*
X-10665Y-142834D01*
X-10901Y-143385D01*
X-11255Y-143857D01*
X-11668Y-144171D01*
X-12140Y-144250D01*
G01X-8600D02*
Y-139530D01*
X-7184D01*
X-6712Y-139766D01*
X-6358Y-140317D01*
X-6240Y-140946D01*
X-6358Y-141575D01*
X-6653Y-142047D01*
X-7184Y-142283D01*
X-8600D01*
G01X-3880Y-144250D02*
Y-139530D01*
X-2405D01*
X-1933Y-139766D01*
X-1638Y-140081D01*
X-1520Y-140710D01*
X-1638Y-141339D01*
X-1992Y-141733D01*
X-2405Y-141969D01*
X-3880D01*
G01X-2405D02*
X-1520Y-144250D01*
G01X1312Y-139530D02*
X2728D01*
G01X2020D02*
Y-144250D01*
G01X1312D02*
X2728D01*
G01X7920D02*
X5560D01*
Y-139530D01*
X7920D01*
G01X6976Y-141811D02*
X5560D01*
G01X11460Y-139530D02*
Y-144250D01*
G01X10103Y-139530D02*
X12817D01*
G01X14705Y-144250D02*
X16180Y-139530D01*
X17655Y-144250D01*
G01X17124Y-142598D02*
X15236D01*
G01X19720Y-144250D02*
Y-139530D01*
X21195D01*
X21667Y-139766D01*
X21962Y-140081D01*
X22080Y-140710D01*
X21962Y-141339D01*
X21608Y-141733D01*
X21195Y-141969D01*
X19720D01*
G01X21195D02*
X22080Y-144250D01*
G01X25620D02*
Y-142126D01*
X24440Y-139530D01*
G01X26800D02*
X25620Y-142126D01*
G01X35060Y-139530D02*
Y-144250D01*
G01X33703Y-139530D02*
X36417D01*
G01X39780Y-144250D02*
X39308Y-144171D01*
X38895Y-143857D01*
X38541Y-143385D01*
X38305Y-142834D01*
X38187Y-142205D01*
Y-141575D01*
X38305Y-140946D01*
X38541Y-140395D01*
X38895Y-139923D01*
X39308Y-139609D01*
X39780Y-139530D01*
X40252Y-139609D01*
X40665Y-139923D01*
X41019Y-140395D01*
X41255Y-140946D01*
X41373Y-141575D01*
Y-142205D01*
X41255Y-142834D01*
X41019Y-143385D01*
X40665Y-143857D01*
X40252Y-144171D01*
X39780Y-144250D01*
G01X48099D02*
Y-139530D01*
X50341D01*
G01X49515Y-141811D02*
X48099D01*
G01X52760Y-144250D02*
Y-139530D01*
X54235D01*
X54707Y-139766D01*
X55002Y-140081D01*
X55120Y-140710D01*
X55002Y-141339D01*
X54648Y-141733D01*
X54235Y-141969D01*
X52760D01*
G01X54235D02*
X55120Y-144250D01*
G01X59840D02*
X57480D01*
Y-139530D01*
X59840D01*
G01X58896Y-141811D02*
X57480D01*
G01X64560Y-144250D02*
X62200D01*
Y-139530D01*
X64560D01*
G01X63616Y-141811D02*
X62200D01*
G01X66861Y-143621D02*
X67333Y-144014D01*
X67864Y-144250D01*
X68336D01*
X68808Y-144014D01*
X69162Y-143621D01*
X69339Y-143070D01*
X69221Y-142519D01*
X68926Y-142047D01*
X68395Y-141733D01*
X67687Y-141575D01*
X67274Y-141261D01*
X67097Y-140710D01*
X67215Y-140159D01*
X67510Y-139766D01*
X67923Y-139530D01*
X68336D01*
X68749Y-139687D01*
X69103Y-140081D01*
G01X74118Y-139923D02*
X73764Y-139687D01*
X73351Y-139530D01*
X72879D01*
X72348Y-139766D01*
X71935Y-140159D01*
X71640Y-140631D01*
X71404Y-141418D01*
X71345Y-142126D01*
X71463Y-142834D01*
X71640Y-143306D01*
X71994Y-143778D01*
X72407Y-144093D01*
X72820Y-144250D01*
X73233D01*
X73646Y-144093D01*
X74000Y-143857D01*
X74295Y-143542D01*
G01X76065Y-144250D02*
X77540Y-139530D01*
X79015Y-144250D01*
G01X78484Y-142598D02*
X76596D01*
G01X81080Y-139530D02*
Y-144250D01*
X83440D01*
G01X88160D02*
X85800D01*
Y-139530D01*
X88160D01*
G01X87216Y-141811D02*
X85800D01*
G01X94945Y-144250D02*
X96420Y-139530D01*
X97895Y-144250D01*
G01X97364Y-142598D02*
X95476D01*
G01X99783Y-144250D02*
Y-139530D01*
X102497Y-144250D01*
Y-139530D01*
G01X104562Y-144250D02*
Y-139530D01*
X105742D01*
X106214Y-139766D01*
X106568Y-140081D01*
X106863Y-140553D01*
X107099Y-141103D01*
X107158Y-141890D01*
X107099Y-142677D01*
X106863Y-143227D01*
X106568Y-143699D01*
X106214Y-144014D01*
X105742Y-144250D01*
X104562D01*
G01X114061Y-143621D02*
X114533Y-144014D01*
X115064Y-144250D01*
X115536D01*
X116008Y-144014D01*
X116362Y-143621D01*
X116539Y-143070D01*
X116421Y-142519D01*
X116126Y-142047D01*
X115595Y-141733D01*
X114887Y-141575D01*
X114474Y-141261D01*
X114297Y-140710D01*
X114415Y-140159D01*
X114710Y-139766D01*
X115123Y-139530D01*
X115536D01*
X115949Y-139687D01*
X116303Y-140081D01*
G01X118781Y-144250D02*
Y-139530D01*
G01X121259D02*
Y-144250D01*
G01Y-141890D02*
X118781D01*
G01X123265Y-144250D02*
X124740Y-139530D01*
X126215Y-144250D01*
G01X125684Y-142598D02*
X123796D01*
G01X128280Y-139530D02*
Y-144250D01*
X130640D01*
G01X133000Y-139530D02*
Y-144250D01*
X135360D01*
G01X-30055Y-126250D02*
X-28580Y-121530D01*
X-27105Y-126250D01*
G01X-27636Y-124598D02*
X-29524D01*
G01X-25158Y-121530D02*
Y-124913D01*
X-24922Y-125621D01*
X-24450Y-126093D01*
X-23860Y-126250D01*
X-23270Y-126093D01*
X-22798Y-125621D01*
X-22562Y-124913D01*
Y-121530D01*
G01X-20379Y-125621D02*
X-19907Y-126014D01*
X-19376Y-126250D01*
X-18904D01*
X-18432Y-126014D01*
X-18078Y-125621D01*
X-17901Y-125070D01*
X-18019Y-124519D01*
X-18314Y-124047D01*
X-18845Y-123733D01*
X-19553Y-123575D01*
X-19966Y-123261D01*
X-20143Y-122710D01*
X-20025Y-122159D01*
X-19730Y-121766D01*
X-19317Y-121530D01*
X-18904D01*
X-18491Y-121687D01*
X-18137Y-122081D01*
G01X-14420Y-121530D02*
Y-126250D01*
G01X-15777Y-121530D02*
X-13063D01*
G01X-10408D02*
X-8992D01*
G01X-9700D02*
Y-126250D01*
G01X-10408D02*
X-8992D01*
G01X-6337D02*
Y-121530D01*
X-3623Y-126250D01*
Y-121530D01*
G01X-260Y-126407D02*
X-378Y-126329D01*
Y-126171D01*
X-260Y-126093D01*
X-142Y-126171D01*
Y-126329D01*
X-260Y-126407D01*
G01X9180Y-121530D02*
Y-126250D01*
G01X7823Y-121530D02*
X10537D01*
G01X15080Y-126250D02*
X12720D01*
Y-121530D01*
X15080D01*
G01X14136Y-123811D02*
X12720D01*
G01X17381Y-126250D02*
X19859Y-121530D01*
G01X17381D02*
X19859Y-126250D01*
G01X21865D02*
X23340Y-121530D01*
X24815Y-126250D01*
G01X24284Y-124598D02*
X22396D01*
G01X26821Y-125621D02*
X27293Y-126014D01*
X27824Y-126250D01*
X28296D01*
X28768Y-126014D01*
X29122Y-125621D01*
X29299Y-125070D01*
X29181Y-124519D01*
X28886Y-124047D01*
X28355Y-123733D01*
X27647Y-123575D01*
X27234Y-123261D01*
X27057Y-122710D01*
X27175Y-122159D01*
X27470Y-121766D01*
X27883Y-121530D01*
X28296D01*
X28709Y-121687D01*
X29063Y-122081D01*
G01X37382Y-126250D02*
X37500Y-125227D01*
X37677Y-124362D01*
X37913Y-123575D01*
X38208Y-122710D01*
X38680Y-121530D01*
X36320D01*
G01X42220Y-126250D02*
X42633Y-126171D01*
X43105Y-125935D01*
X43400Y-125542D01*
X43518Y-124991D01*
X43400Y-124441D01*
X43046Y-123969D01*
X42515Y-123733D01*
X41925D01*
X41571Y-123575D01*
X41276Y-123182D01*
X41158Y-122631D01*
X41335Y-122081D01*
X41748Y-121687D01*
X42220Y-121530D01*
X42692Y-121687D01*
X43105Y-122081D01*
X43282Y-122631D01*
X43164Y-123182D01*
X42869Y-123575D01*
X42515Y-123733D01*
X41925D01*
X41394Y-123969D01*
X41040Y-124441D01*
X40922Y-124991D01*
X41040Y-125542D01*
X41335Y-125935D01*
X41807Y-126171D01*
X42220Y-126250D01*
G01X46822D02*
X46940Y-125227D01*
X47117Y-124362D01*
X47353Y-123575D01*
X47648Y-122710D01*
X48120Y-121530D01*
X45760D01*
G01X50362Y-125306D02*
X50716Y-125857D01*
X51188Y-126171D01*
X51719Y-126250D01*
X52191Y-126171D01*
X52663Y-125778D01*
X52958Y-125306D01*
X53017Y-124834D01*
X52899Y-124283D01*
X52486Y-123890D01*
X52073Y-123733D01*
X51542D01*
G01X52073D02*
X52427Y-123497D01*
X52722Y-123103D01*
X52840Y-122631D01*
X52722Y-122159D01*
X52427Y-121766D01*
X51896Y-121530D01*
X51365Y-121609D01*
X50834Y-121923D01*
G01X55082Y-125542D02*
X55436Y-125935D01*
X55849Y-126171D01*
X56380Y-126250D01*
X56911Y-126093D01*
X57324Y-125778D01*
X57619Y-125227D01*
X57678Y-124598D01*
X57560Y-123969D01*
X57265Y-123575D01*
X56852Y-123261D01*
X56439Y-123182D01*
X56026Y-123261D01*
X55495Y-123575D01*
X55672Y-121530D01*
X57265D01*
G01X64522D02*
Y-124913D01*
X64758Y-125621D01*
X65230Y-126093D01*
X65820Y-126250D01*
X66410Y-126093D01*
X66882Y-125621D01*
X67118Y-124913D01*
Y-121530D01*
G01X69301Y-125621D02*
X69773Y-126014D01*
X70304Y-126250D01*
X70776D01*
X71248Y-126014D01*
X71602Y-125621D01*
X71779Y-125070D01*
X71661Y-124519D01*
X71366Y-124047D01*
X70835Y-123733D01*
X70127Y-123575D01*
X69714Y-123261D01*
X69537Y-122710D01*
X69655Y-122159D01*
X69950Y-121766D01*
X70363Y-121530D01*
X70776D01*
X71189Y-121687D01*
X71543Y-122081D01*
G01X73785Y-126250D02*
X75260Y-121530D01*
X76735Y-126250D01*
G01X76204Y-124598D02*
X74316D01*
G01X-29701Y-117283D02*
X-29288Y-116733D01*
X-28934Y-116418D01*
X-28462Y-116261D01*
X-28049Y-116418D01*
X-27754Y-116733D01*
X-27518Y-117205D01*
X-27459Y-117755D01*
X-27518Y-118227D01*
X-27754Y-118699D01*
X-28108Y-119093D01*
X-28521Y-119250D01*
X-28993Y-119093D01*
X-29406Y-118621D01*
X-29642Y-117913D01*
X-29701Y-117126D01*
X-29583Y-116103D01*
X-29406Y-115553D01*
X-29111Y-115002D01*
X-28698Y-114609D01*
X-28285Y-114530D01*
X-27872Y-114687D01*
X-27577Y-115081D01*
G01X-25158Y-118542D02*
X-24804Y-118935D01*
X-24391Y-119171D01*
X-23860Y-119250D01*
X-23329Y-119093D01*
X-22916Y-118778D01*
X-22621Y-118227D01*
X-22562Y-117598D01*
X-22680Y-116969D01*
X-22975Y-116575D01*
X-23388Y-116261D01*
X-23801Y-116182D01*
X-24214Y-116261D01*
X-24745Y-116575D01*
X-24568Y-114530D01*
X-22975D01*
G01X-19140D02*
X-19612Y-114687D01*
X-19966Y-115081D01*
X-20202Y-115553D01*
X-20379Y-116182D01*
X-20438Y-116890D01*
X-20379Y-117598D01*
X-20202Y-118227D01*
X-19966Y-118699D01*
X-19612Y-119093D01*
X-19140Y-119250D01*
X-18668Y-119093D01*
X-18314Y-118699D01*
X-18078Y-118227D01*
X-17901Y-117598D01*
X-17842Y-116890D01*
X-17901Y-116182D01*
X-18078Y-115553D01*
X-18314Y-115081D01*
X-18668Y-114687D01*
X-19140Y-114530D01*
G01X-14420Y-119250D02*
Y-114530D01*
X-15128Y-115474D01*
G01Y-119250D02*
X-13712D01*
G01X-6750Y-114530D02*
X-5924Y-119250D01*
X-4980Y-114530D01*
X-4036Y-119250D01*
X-3210Y-114530D01*
G01X-968D02*
X448D01*
G01X-260D02*
Y-119250D01*
G01X-968D02*
X448D01*
G01X3280Y-114530D02*
Y-119250D01*
X5640D01*
G01X8000Y-114530D02*
Y-119250D01*
X10360D01*
G01X13192Y-114530D02*
X14608D01*
G01X13900D02*
Y-119250D01*
G01X13192D02*
X14608D01*
G01X17145D02*
X18620Y-114530D01*
X20095Y-119250D01*
G01X19564Y-117598D02*
X17676D01*
G01X21806Y-119250D02*
Y-114530D01*
X23340Y-118463D01*
X24874Y-114530D01*
Y-119250D01*
G01X34078Y-114923D02*
X33724Y-114687D01*
X33311Y-114530D01*
X32839D01*
X32308Y-114766D01*
X31895Y-115159D01*
X31600Y-115631D01*
X31364Y-116418D01*
X31305Y-117126D01*
X31423Y-117834D01*
X31600Y-118306D01*
X31954Y-118778D01*
X32367Y-119093D01*
X32780Y-119250D01*
X33193D01*
X33606Y-119093D01*
X33960Y-118857D01*
X34255Y-118542D01*
G01X36025Y-119250D02*
X37500Y-114530D01*
X38975Y-119250D01*
G01X38444Y-117598D02*
X36556D01*
G01X40863Y-119250D02*
Y-114530D01*
X43577Y-119250D01*
Y-114530D01*
G01X45583Y-119250D02*
Y-114530D01*
X48297Y-119250D01*
Y-114530D01*
G01X51660Y-119250D02*
X51188Y-119171D01*
X50775Y-118857D01*
X50421Y-118385D01*
X50185Y-117834D01*
X50067Y-117205D01*
Y-116575D01*
X50185Y-115946D01*
X50421Y-115395D01*
X50775Y-114923D01*
X51188Y-114609D01*
X51660Y-114530D01*
X52132Y-114609D01*
X52545Y-114923D01*
X52899Y-115395D01*
X53135Y-115946D01*
X53253Y-116575D01*
Y-117205D01*
X53135Y-117834D01*
X52899Y-118385D01*
X52545Y-118857D01*
X52132Y-119171D01*
X51660Y-119250D01*
G01X55023D02*
Y-114530D01*
X57737Y-119250D01*
Y-114530D01*
G01X64522Y-119250D02*
Y-114530D01*
X65702D01*
X66174Y-114766D01*
X66528Y-115081D01*
X66823Y-115553D01*
X67059Y-116103D01*
X67118Y-116890D01*
X67059Y-117677D01*
X66823Y-118227D01*
X66528Y-118699D01*
X66174Y-119014D01*
X65702Y-119250D01*
X64522D01*
G01X69360D02*
Y-114530D01*
X70835D01*
X71307Y-114766D01*
X71602Y-115081D01*
X71720Y-115710D01*
X71602Y-116339D01*
X71248Y-116733D01*
X70835Y-116969D01*
X69360D01*
G01X70835D02*
X71720Y-119250D01*
G01X74552Y-114530D02*
X75968D01*
G01X75260D02*
Y-119250D01*
G01X74552D02*
X75968D01*
G01X78505Y-114530D02*
X79980Y-119250D01*
X81455Y-114530D01*
G01X85880Y-119250D02*
X83520D01*
Y-114530D01*
X85880D01*
G01X84936Y-116811D02*
X83520D01*
G01X92370Y-114530D02*
X93196Y-119250D01*
X94140Y-114530D01*
X95084Y-119250D01*
X95910Y-114530D01*
G01X100040Y-119250D02*
X97680D01*
Y-114530D01*
X100040D01*
G01X99096Y-116811D02*
X97680D01*
G01X102341Y-118621D02*
X102813Y-119014D01*
X103344Y-119250D01*
X103816D01*
X104288Y-119014D01*
X104642Y-118621D01*
X104819Y-118070D01*
X104701Y-117519D01*
X104406Y-117047D01*
X103875Y-116733D01*
X103167Y-116575D01*
X102754Y-116261D01*
X102577Y-115710D01*
X102695Y-115159D01*
X102990Y-114766D01*
X103403Y-114530D01*
X103816D01*
X104229Y-114687D01*
X104583Y-115081D01*
G01X108300Y-114530D02*
Y-119250D01*
G01X106943Y-114530D02*
X109657D01*
G01X-22580Y-131530D02*
Y-136250D01*
G01X-23937Y-131530D02*
X-21223D01*
G01X-19099Y-136250D02*
Y-131530D01*
G01X-16621D02*
Y-136250D01*
G01Y-133890D02*
X-19099D01*
G01X-13848Y-131530D02*
X-12432D01*
G01X-13140D02*
Y-136250D01*
G01X-13848D02*
X-12432D01*
G01X-9659Y-135621D02*
X-9187Y-136014D01*
X-8656Y-136250D01*
X-8184D01*
X-7712Y-136014D01*
X-7358Y-135621D01*
X-7181Y-135070D01*
X-7299Y-134519D01*
X-7594Y-134047D01*
X-8125Y-133733D01*
X-8833Y-133575D01*
X-9246Y-133261D01*
X-9423Y-132710D01*
X-9305Y-132159D01*
X-9010Y-131766D01*
X-8597Y-131530D01*
X-8184D01*
X-7771Y-131687D01*
X-7417Y-132081D01*
G01X-278Y-136250D02*
Y-131530D01*
X902D01*
X1374Y-131766D01*
X1728Y-132081D01*
X2023Y-132553D01*
X2259Y-133103D01*
X2318Y-133890D01*
X2259Y-134677D01*
X2023Y-135227D01*
X1728Y-135699D01*
X1374Y-136014D01*
X902Y-136250D01*
X-278D01*
G01X5740D02*
X5268Y-136171D01*
X4855Y-135857D01*
X4501Y-135385D01*
X4265Y-134834D01*
X4147Y-134205D01*
Y-133575D01*
X4265Y-132946D01*
X4501Y-132395D01*
X4855Y-131923D01*
X5268Y-131609D01*
X5740Y-131530D01*
X6212Y-131609D01*
X6625Y-131923D01*
X6979Y-132395D01*
X7215Y-132946D01*
X7333Y-133575D01*
Y-134205D01*
X7215Y-134834D01*
X6979Y-135385D01*
X6625Y-135857D01*
X6212Y-136171D01*
X5740Y-136250D01*
G01X11758Y-131923D02*
X11404Y-131687D01*
X10991Y-131530D01*
X10519D01*
X9988Y-131766D01*
X9575Y-132159D01*
X9280Y-132631D01*
X9044Y-133418D01*
X8985Y-134126D01*
X9103Y-134834D01*
X9280Y-135306D01*
X9634Y-135778D01*
X10047Y-136093D01*
X10460Y-136250D01*
X10873D01*
X11286Y-136093D01*
X11640Y-135857D01*
X11935Y-135542D01*
G01X13882Y-131530D02*
Y-134913D01*
X14118Y-135621D01*
X14590Y-136093D01*
X15180Y-136250D01*
X15770Y-136093D01*
X16242Y-135621D01*
X16478Y-134913D01*
Y-131530D01*
G01X18366Y-136250D02*
Y-131530D01*
X19900Y-135463D01*
X21434Y-131530D01*
Y-136250D01*
G01X25800D02*
X23440D01*
Y-131530D01*
X25800D01*
G01X24856Y-133811D02*
X23440D01*
G01X27983Y-136250D02*
Y-131530D01*
X30697Y-136250D01*
Y-131530D01*
G01X34060D02*
Y-136250D01*
G01X32703Y-131530D02*
X35417D01*
G01X44798Y-131923D02*
X44444Y-131687D01*
X44031Y-131530D01*
X43559D01*
X43028Y-131766D01*
X42615Y-132159D01*
X42320Y-132631D01*
X42084Y-133418D01*
X42025Y-134126D01*
X42143Y-134834D01*
X42320Y-135306D01*
X42674Y-135778D01*
X43087Y-136093D01*
X43500Y-136250D01*
X43913D01*
X44326Y-136093D01*
X44680Y-135857D01*
X44975Y-135542D01*
G01X48220Y-136250D02*
X47748Y-136171D01*
X47335Y-135857D01*
X46981Y-135385D01*
X46745Y-134834D01*
X46627Y-134205D01*
Y-133575D01*
X46745Y-132946D01*
X46981Y-132395D01*
X47335Y-131923D01*
X47748Y-131609D01*
X48220Y-131530D01*
X48692Y-131609D01*
X49105Y-131923D01*
X49459Y-132395D01*
X49695Y-132946D01*
X49813Y-133575D01*
Y-134205D01*
X49695Y-134834D01*
X49459Y-135385D01*
X49105Y-135857D01*
X48692Y-136171D01*
X48220Y-136250D01*
G01X51583D02*
Y-131530D01*
X54297Y-136250D01*
Y-131530D01*
G01X57660D02*
Y-136250D01*
G01X56303Y-131530D02*
X59017D01*
G01X60905Y-136250D02*
X62380Y-131530D01*
X63855Y-136250D01*
G01X63324Y-134598D02*
X61436D01*
G01X66392Y-131530D02*
X67808D01*
G01X67100D02*
Y-136250D01*
G01X66392D02*
X67808D01*
G01X70463D02*
Y-131530D01*
X73177Y-136250D01*
Y-131530D01*
G01X75301Y-135621D02*
X75773Y-136014D01*
X76304Y-136250D01*
X76776D01*
X77248Y-136014D01*
X77602Y-135621D01*
X77779Y-135070D01*
X77661Y-134519D01*
X77366Y-134047D01*
X76835Y-133733D01*
X76127Y-133575D01*
X75714Y-133261D01*
X75537Y-132710D01*
X75655Y-132159D01*
X75950Y-131766D01*
X76363Y-131530D01*
X76776D01*
X77189Y-131687D01*
X77543Y-132081D01*
G01X85272Y-131530D02*
X86688D01*
G01X85980D02*
Y-136250D01*
G01X85272D02*
X86688D01*
G01X89343D02*
Y-131530D01*
X92057Y-136250D01*
Y-131530D01*
G01X94299Y-136250D02*
Y-131530D01*
X96541D01*
G01X95715Y-133811D02*
X94299D01*
G01X100140Y-136250D02*
X99668Y-136171D01*
X99255Y-135857D01*
X98901Y-135385D01*
X98665Y-134834D01*
X98547Y-134205D01*
Y-133575D01*
X98665Y-132946D01*
X98901Y-132395D01*
X99255Y-131923D01*
X99668Y-131609D01*
X100140Y-131530D01*
X100612Y-131609D01*
X101025Y-131923D01*
X101379Y-132395D01*
X101615Y-132946D01*
X101733Y-133575D01*
Y-134205D01*
X101615Y-134834D01*
X101379Y-135385D01*
X101025Y-135857D01*
X100612Y-136171D01*
X100140Y-136250D01*
G01X103680D02*
Y-131530D01*
X105155D01*
X105627Y-131766D01*
X105922Y-132081D01*
X106040Y-132710D01*
X105922Y-133339D01*
X105568Y-133733D01*
X105155Y-133969D01*
X103680D01*
G01X105155D02*
X106040Y-136250D01*
G01X108046D02*
Y-131530D01*
X109580Y-135463D01*
X111114Y-131530D01*
Y-136250D01*
G01X112825D02*
X114300Y-131530D01*
X115775Y-136250D01*
G01X115244Y-134598D02*
X113356D01*
G01X119020Y-131530D02*
Y-136250D01*
G01X117663Y-131530D02*
X120377D01*
G01X123032D02*
X124448D01*
G01X123740D02*
Y-136250D01*
G01X123032D02*
X124448D01*
G01X128460D02*
X127988Y-136171D01*
X127575Y-135857D01*
X127221Y-135385D01*
X126985Y-134834D01*
X126867Y-134205D01*
Y-133575D01*
X126985Y-132946D01*
X127221Y-132395D01*
X127575Y-131923D01*
X127988Y-131609D01*
X128460Y-131530D01*
X128932Y-131609D01*
X129345Y-131923D01*
X129699Y-132395D01*
X129935Y-132946D01*
X130053Y-133575D01*
Y-134205D01*
X129935Y-134834D01*
X129699Y-135385D01*
X129345Y-135857D01*
X128932Y-136171D01*
X128460Y-136250D01*
G01X131823D02*
Y-131530D01*
X134537Y-136250D01*
Y-131530D01*
G01X20299Y-187250D02*
Y-182530D01*
X22541D01*
G01X21715Y-184811D02*
X20299D01*
G01X25432Y-182530D02*
X26848D01*
G01X26140D02*
Y-187250D01*
G01X25432D02*
X26848D01*
G01X29680Y-182530D02*
Y-187250D01*
X32040D01*
G01X34046D02*
Y-182530D01*
X35580Y-186463D01*
X37114Y-182530D01*
Y-187250D01*
G01X148420Y-190530D02*
X147948Y-190687D01*
X147594Y-191081D01*
X147358Y-191553D01*
X147181Y-192182D01*
X147122Y-192890D01*
X147181Y-193598D01*
X147358Y-194227D01*
X147594Y-194699D01*
X147948Y-195093D01*
X148420Y-195250D01*
X148892Y-195093D01*
X149246Y-194699D01*
X149482Y-194227D01*
X149659Y-193598D01*
X149718Y-192890D01*
X149659Y-192182D01*
X149482Y-191553D01*
X149246Y-191081D01*
X148892Y-190687D01*
X148420Y-190530D01*
G01X152137Y-194699D02*
X152550Y-195093D01*
X153022Y-195250D01*
X153494Y-195093D01*
X153907Y-194621D01*
X154202Y-193913D01*
X154320Y-193205D01*
Y-192339D01*
X154202Y-191631D01*
X153907Y-191002D01*
X153553Y-190687D01*
X153140Y-190530D01*
X152668Y-190687D01*
X152314Y-191002D01*
X152078Y-191474D01*
X151960Y-192103D01*
X152078Y-192654D01*
X152373Y-193205D01*
X152727Y-193519D01*
X153140Y-193598D01*
X153612Y-193441D01*
X153966Y-193047D01*
X154320Y-192339D01*
G01X157093Y-193677D02*
X158627D01*
G01X162580Y-195250D02*
Y-190530D01*
X161872Y-191474D01*
G01Y-195250D02*
X163288D01*
G01X166297Y-194699D02*
X166710Y-195093D01*
X167182Y-195250D01*
X167654Y-195093D01*
X168067Y-194621D01*
X168362Y-193913D01*
X168480Y-193205D01*
Y-192339D01*
X168362Y-191631D01*
X168067Y-191002D01*
X167713Y-190687D01*
X167300Y-190530D01*
X166828Y-190687D01*
X166474Y-191002D01*
X166238Y-191474D01*
X166120Y-192103D01*
X166238Y-192654D01*
X166533Y-193205D01*
X166887Y-193519D01*
X167300Y-193598D01*
X167772Y-193441D01*
X168126Y-193047D01*
X168480Y-192339D01*
G01X171253Y-193677D02*
X172787D01*
G01X176740Y-195250D02*
Y-190530D01*
X176032Y-191474D01*
G01Y-195250D02*
X177448D01*
G01X180162Y-194306D02*
X180516Y-194857D01*
X180988Y-195171D01*
X181519Y-195250D01*
X181991Y-195171D01*
X182463Y-194778D01*
X182758Y-194306D01*
X182817Y-193834D01*
X182699Y-193283D01*
X182286Y-192890D01*
X181873Y-192733D01*
X181342D01*
G01X181873D02*
X182227Y-192497D01*
X182522Y-192103D01*
X182640Y-191631D01*
X182522Y-191159D01*
X182227Y-190766D01*
X181696Y-190530D01*
X181165Y-190609D01*
X180634Y-190923D01*
G01X145122Y-187250D02*
Y-182530D01*
X146302D01*
X146774Y-182766D01*
X147128Y-183081D01*
X147423Y-183553D01*
X147659Y-184103D01*
X147718Y-184890D01*
X147659Y-185677D01*
X147423Y-186227D01*
X147128Y-186699D01*
X146774Y-187014D01*
X146302Y-187250D01*
X145122D01*
G01X149665D02*
X151140Y-182530D01*
X152615Y-187250D01*
G01X152084Y-185598D02*
X150196D01*
G01X155860Y-182530D02*
Y-187250D01*
G01X154503Y-182530D02*
X157217D01*
G01X161760Y-187250D02*
X159400D01*
Y-182530D01*
X161760D01*
G01X160816Y-184811D02*
X159400D01*
G01X145063Y-107250D02*
Y-102530D01*
X147777Y-107250D01*
Y-102530D01*
G01X149665Y-107250D02*
X151140Y-102530D01*
X152615Y-107250D01*
G01X152084Y-105598D02*
X150196D01*
G01X154326Y-107250D02*
Y-102530D01*
X155860Y-106463D01*
X157394Y-102530D01*
Y-107250D01*
G01X161760D02*
X159400D01*
Y-102530D01*
X161760D01*
G01X160816Y-104811D02*
X159400D01*
G01X154650Y-173323D02*
X158190D01*
G01X159370D02*
X162910D01*
G01X164090D02*
X167630D01*
G01X174179Y-171750D02*
Y-167030D01*
X176421D01*
G01X175595Y-169311D02*
X174179D01*
G01X181318Y-167423D02*
X180964Y-167187D01*
X180551Y-167030D01*
X180079D01*
X179548Y-167266D01*
X179135Y-167659D01*
X178840Y-168131D01*
X178604Y-168918D01*
X178545Y-169626D01*
X178663Y-170334D01*
X178840Y-170806D01*
X179194Y-171278D01*
X179607Y-171593D01*
X180020Y-171750D01*
X180433D01*
X180846Y-171593D01*
X181200Y-171357D01*
X181495Y-171042D01*
G01X183560Y-171750D02*
Y-167030D01*
X184976D01*
X185448Y-167266D01*
X185802Y-167817D01*
X185920Y-168446D01*
X185802Y-169075D01*
X185507Y-169547D01*
X184976Y-169783D01*
X183560D01*
G01X193885Y-173323D02*
X193295Y-172537D01*
X193000Y-171750D01*
Y-168603D01*
X193295Y-167817D01*
X193885Y-167030D01*
G01X197779Y-171750D02*
Y-167030D01*
X200021D01*
G01X199195Y-169311D02*
X197779D01*
G01X202440Y-171750D02*
Y-167030D01*
X203915D01*
X204387Y-167266D01*
X204682Y-167581D01*
X204800Y-168210D01*
X204682Y-168839D01*
X204328Y-169233D01*
X203915Y-169469D01*
X202440D01*
G01X203915D02*
X204800Y-171750D01*
G01X209520D02*
X207160D01*
Y-167030D01*
X209520D01*
G01X208576Y-169311D02*
X207160D01*
G01X214240Y-171750D02*
X211880D01*
Y-167030D01*
X214240D01*
G01X213296Y-169311D02*
X211880D01*
G01X216541Y-171121D02*
X217013Y-171514D01*
X217544Y-171750D01*
X218016D01*
X218488Y-171514D01*
X218842Y-171121D01*
X219019Y-170570D01*
X218901Y-170019D01*
X218606Y-169547D01*
X218075Y-169233D01*
X217367Y-169075D01*
X216954Y-168761D01*
X216777Y-168210D01*
X216895Y-167659D01*
X217190Y-167266D01*
X217603Y-167030D01*
X218016D01*
X218429Y-167187D01*
X218783Y-167581D01*
G01X223798Y-167423D02*
X223444Y-167187D01*
X223031Y-167030D01*
X222559D01*
X222028Y-167266D01*
X221615Y-167659D01*
X221320Y-168131D01*
X221084Y-168918D01*
X221025Y-169626D01*
X221143Y-170334D01*
X221320Y-170806D01*
X221674Y-171278D01*
X222087Y-171593D01*
X222500Y-171750D01*
X222913D01*
X223326Y-171593D01*
X223680Y-171357D01*
X223975Y-171042D01*
G01X225745Y-171750D02*
X227220Y-167030D01*
X228695Y-171750D01*
G01X228164Y-170098D02*
X226276D01*
G01X230760Y-167030D02*
Y-171750D01*
X233120D01*
G01X237840D02*
X235480D01*
Y-167030D01*
X237840D01*
G01X236896Y-169311D02*
X235480D01*
G01X247398Y-167423D02*
X247044Y-167187D01*
X246631Y-167030D01*
X246159D01*
X245628Y-167266D01*
X245215Y-167659D01*
X244920Y-168131D01*
X244684Y-168918D01*
X244625Y-169626D01*
X244743Y-170334D01*
X244920Y-170806D01*
X245274Y-171278D01*
X245687Y-171593D01*
X246100Y-171750D01*
X246513D01*
X246926Y-171593D01*
X247280Y-171357D01*
X247575Y-171042D01*
G01X250820Y-171750D02*
X250348Y-171671D01*
X249935Y-171357D01*
X249581Y-170885D01*
X249345Y-170334D01*
X249227Y-169705D01*
Y-169075D01*
X249345Y-168446D01*
X249581Y-167895D01*
X249935Y-167423D01*
X250348Y-167109D01*
X250820Y-167030D01*
X251292Y-167109D01*
X251705Y-167423D01*
X252059Y-167895D01*
X252295Y-168446D01*
X252413Y-169075D01*
Y-169705D01*
X252295Y-170334D01*
X252059Y-170885D01*
X251705Y-171357D01*
X251292Y-171671D01*
X250820Y-171750D01*
G01X254183D02*
Y-167030D01*
X256897Y-171750D01*
Y-167030D01*
G01X259139Y-171750D02*
Y-167030D01*
X261381D01*
G01X260555Y-169311D02*
X259139D01*
G01X264272Y-167030D02*
X265688D01*
G01X264980D02*
Y-171750D01*
G01X264272D02*
X265688D01*
G01X268402D02*
Y-167030D01*
X269582D01*
X270054Y-167266D01*
X270408Y-167581D01*
X270703Y-168053D01*
X270939Y-168603D01*
X270998Y-169390D01*
X270939Y-170177D01*
X270703Y-170727D01*
X270408Y-171199D01*
X270054Y-171514D01*
X269582Y-171750D01*
X268402D01*
G01X275600D02*
X273240D01*
Y-167030D01*
X275600D01*
G01X274656Y-169311D02*
X273240D01*
G01X277783Y-171750D02*
Y-167030D01*
X280497Y-171750D01*
Y-167030D01*
G01X283860D02*
Y-171750D01*
G01X282503Y-167030D02*
X285217D01*
G01X287872D02*
X289288D01*
G01X288580D02*
Y-171750D01*
G01X287872D02*
X289288D01*
G01X291825D02*
X293300Y-167030D01*
X294775Y-171750D01*
G01X294244Y-170098D02*
X292356D01*
G01X296840Y-167030D02*
Y-171750D01*
X299200D01*
G01X306280D02*
Y-167030D01*
X307696D01*
X308168Y-167266D01*
X308522Y-167817D01*
X308640Y-168446D01*
X308522Y-169075D01*
X308227Y-169547D01*
X307696Y-169783D01*
X306280D01*
G01X311000Y-171750D02*
Y-167030D01*
X312475D01*
X312947Y-167266D01*
X313242Y-167581D01*
X313360Y-168210D01*
X313242Y-168839D01*
X312888Y-169233D01*
X312475Y-169469D01*
X311000D01*
G01X312475D02*
X313360Y-171750D01*
G01X316900D02*
X316428Y-171671D01*
X316015Y-171357D01*
X315661Y-170885D01*
X315425Y-170334D01*
X315307Y-169705D01*
Y-169075D01*
X315425Y-168446D01*
X315661Y-167895D01*
X316015Y-167423D01*
X316428Y-167109D01*
X316900Y-167030D01*
X317372Y-167109D01*
X317785Y-167423D01*
X318139Y-167895D01*
X318375Y-168446D01*
X318493Y-169075D01*
Y-169705D01*
X318375Y-170334D01*
X318139Y-170885D01*
X317785Y-171357D01*
X317372Y-171671D01*
X316900Y-171750D01*
G01X320440D02*
Y-167030D01*
X321856D01*
X322328Y-167266D01*
X322682Y-167817D01*
X322800Y-168446D01*
X322682Y-169075D01*
X322387Y-169547D01*
X321856Y-169783D01*
X320440D01*
G01X325160Y-171750D02*
Y-167030D01*
X326635D01*
X327107Y-167266D01*
X327402Y-167581D01*
X327520Y-168210D01*
X327402Y-168839D01*
X327048Y-169233D01*
X326635Y-169469D01*
X325160D01*
G01X326635D02*
X327520Y-171750D01*
G01X330352Y-167030D02*
X331768D01*
G01X331060D02*
Y-171750D01*
G01X330352D02*
X331768D01*
G01X336960D02*
X334600D01*
Y-167030D01*
X336960D01*
G01X336016Y-169311D02*
X334600D01*
G01X340500Y-167030D02*
Y-171750D01*
G01X339143Y-167030D02*
X341857D01*
G01X343745Y-171750D02*
X345220Y-167030D01*
X346695Y-171750D01*
G01X346164Y-170098D02*
X344276D01*
G01X348760Y-171750D02*
Y-167030D01*
X350235D01*
X350707Y-167266D01*
X351002Y-167581D01*
X351120Y-168210D01*
X351002Y-168839D01*
X350648Y-169233D01*
X350235Y-169469D01*
X348760D01*
G01X350235D02*
X351120Y-171750D01*
G01X354660D02*
Y-169626D01*
X353480Y-167030D01*
G01X355840D02*
X354660Y-169626D01*
G01X359675Y-173323D02*
X360265Y-172537D01*
X360560Y-171750D01*
Y-168603D01*
X360265Y-167817D01*
X359675Y-167030D01*
G01X154650Y-156823D02*
X158190D01*
G01X159370D02*
X162910D01*
G01X164090D02*
X167630D01*
G01X174179Y-155250D02*
Y-150530D01*
X176421D01*
G01X175595Y-152811D02*
X174179D01*
G01X179312Y-150530D02*
X180728D01*
G01X180020D02*
Y-155250D01*
G01X179312D02*
X180728D01*
G01X183442Y-150530D02*
Y-153913D01*
X183678Y-154621D01*
X184150Y-155093D01*
X184740Y-155250D01*
X185330Y-155093D01*
X185802Y-154621D01*
X186038Y-153913D01*
Y-150530D01*
G01X189460Y-155250D02*
X188988Y-155171D01*
X188575Y-154857D01*
X188221Y-154385D01*
X187985Y-153834D01*
X187867Y-153205D01*
Y-152575D01*
X187985Y-151946D01*
X188221Y-151395D01*
X188575Y-150923D01*
X188988Y-150609D01*
X189460Y-150530D01*
X189932Y-150609D01*
X190345Y-150923D01*
X190699Y-151395D01*
X190935Y-151946D01*
X191053Y-152575D01*
Y-153205D01*
X190935Y-153834D01*
X190699Y-154385D01*
X190345Y-154857D01*
X189932Y-155171D01*
X189460Y-155250D01*
G01X198605Y-156823D02*
X198015Y-156037D01*
X197720Y-155250D01*
Y-152103D01*
X198015Y-151317D01*
X198605Y-150530D01*
G01X202499Y-155250D02*
Y-150530D01*
X204741D01*
G01X203915Y-152811D02*
X202499D01*
G01X207160Y-155250D02*
Y-150530D01*
X208635D01*
X209107Y-150766D01*
X209402Y-151081D01*
X209520Y-151710D01*
X209402Y-152339D01*
X209048Y-152733D01*
X208635Y-152969D01*
X207160D01*
G01X208635D02*
X209520Y-155250D01*
G01X214240D02*
X211880D01*
Y-150530D01*
X214240D01*
G01X213296Y-152811D02*
X211880D01*
G01X218960Y-155250D02*
X216600D01*
Y-150530D01*
X218960D01*
G01X218016Y-152811D02*
X216600D01*
G01X221261Y-154621D02*
X221733Y-155014D01*
X222264Y-155250D01*
X222736D01*
X223208Y-155014D01*
X223562Y-154621D01*
X223739Y-154070D01*
X223621Y-153519D01*
X223326Y-153047D01*
X222795Y-152733D01*
X222087Y-152575D01*
X221674Y-152261D01*
X221497Y-151710D01*
X221615Y-151159D01*
X221910Y-150766D01*
X222323Y-150530D01*
X222736D01*
X223149Y-150687D01*
X223503Y-151081D01*
G01X228518Y-150923D02*
X228164Y-150687D01*
X227751Y-150530D01*
X227279D01*
X226748Y-150766D01*
X226335Y-151159D01*
X226040Y-151631D01*
X225804Y-152418D01*
X225745Y-153126D01*
X225863Y-153834D01*
X226040Y-154306D01*
X226394Y-154778D01*
X226807Y-155093D01*
X227220Y-155250D01*
X227633D01*
X228046Y-155093D01*
X228400Y-154857D01*
X228695Y-154542D01*
G01X230465Y-155250D02*
X231940Y-150530D01*
X233415Y-155250D01*
G01X232884Y-153598D02*
X230996D01*
G01X235480Y-150530D02*
Y-155250D01*
X237840D01*
G01X242560D02*
X240200D01*
Y-150530D01*
X242560D01*
G01X241616Y-152811D02*
X240200D01*
G01X250112Y-150530D02*
X251528D01*
G01X250820D02*
Y-155250D01*
G01X250112D02*
X251528D01*
G01X254183D02*
Y-150530D01*
X256897Y-155250D01*
Y-150530D01*
G01X260260D02*
Y-155250D01*
G01X258903Y-150530D02*
X261617D01*
G01X266160Y-155250D02*
X263800D01*
Y-150530D01*
X266160D01*
G01X265216Y-152811D02*
X263800D01*
G01X268520Y-155250D02*
Y-150530D01*
X269995D01*
X270467Y-150766D01*
X270762Y-151081D01*
X270880Y-151710D01*
X270762Y-152339D01*
X270408Y-152733D01*
X269995Y-152969D01*
X268520D01*
G01X269995D02*
X270880Y-155250D01*
G01X273063D02*
Y-150530D01*
X275777Y-155250D01*
Y-150530D01*
G01X277665Y-155250D02*
X279140Y-150530D01*
X280615Y-155250D01*
G01X280084Y-153598D02*
X278196D01*
G01X282680Y-150530D02*
Y-155250D01*
X285040D01*
G01X292002Y-150530D02*
Y-153913D01*
X292238Y-154621D01*
X292710Y-155093D01*
X293300Y-155250D01*
X293890Y-155093D01*
X294362Y-154621D01*
X294598Y-153913D01*
Y-150530D01*
G01X296781Y-154621D02*
X297253Y-155014D01*
X297784Y-155250D01*
X298256D01*
X298728Y-155014D01*
X299082Y-154621D01*
X299259Y-154070D01*
X299141Y-153519D01*
X298846Y-153047D01*
X298315Y-152733D01*
X297607Y-152575D01*
X297194Y-152261D01*
X297017Y-151710D01*
X297135Y-151159D01*
X297430Y-150766D01*
X297843Y-150530D01*
X298256D01*
X298669Y-150687D01*
X299023Y-151081D01*
G01X303920Y-155250D02*
X301560D01*
Y-150530D01*
X303920D01*
G01X302976Y-152811D02*
X301560D01*
G01X312180Y-155250D02*
X311708Y-155171D01*
X311295Y-154857D01*
X310941Y-154385D01*
X310705Y-153834D01*
X310587Y-153205D01*
Y-152575D01*
X310705Y-151946D01*
X310941Y-151395D01*
X311295Y-150923D01*
X311708Y-150609D01*
X312180Y-150530D01*
X312652Y-150609D01*
X313065Y-150923D01*
X313419Y-151395D01*
X313655Y-151946D01*
X313773Y-152575D01*
Y-153205D01*
X313655Y-153834D01*
X313419Y-154385D01*
X313065Y-154857D01*
X312652Y-155171D01*
X312180Y-155250D01*
G01X315543D02*
Y-150530D01*
X318257Y-155250D01*
Y-150530D01*
G01X320440D02*
Y-155250D01*
X322800D01*
G01X326340D02*
Y-153126D01*
X325160Y-150530D01*
G01X327520D02*
X326340Y-153126D01*
G01X331355Y-156823D02*
X331945Y-156037D01*
X332240Y-155250D01*
Y-152103D01*
X331945Y-151317D01*
X331355Y-150530D01*
G01X154650Y-140823D02*
X158190D01*
G01X159370D02*
X162910D01*
G01X164090D02*
X167630D01*
G01X174120Y-139250D02*
Y-134530D01*
X175536D01*
X176008Y-134766D01*
X176362Y-135317D01*
X176480Y-135946D01*
X176362Y-136575D01*
X176067Y-137047D01*
X175536Y-137283D01*
X174120D01*
G01X178722Y-134530D02*
Y-137913D01*
X178958Y-138621D01*
X179430Y-139093D01*
X180020Y-139250D01*
X180610Y-139093D01*
X181082Y-138621D01*
X181318Y-137913D01*
Y-134530D01*
G01X185212Y-136733D02*
X185448Y-136497D01*
X185625Y-136103D01*
X185743Y-135553D01*
X185625Y-135081D01*
X185389Y-134766D01*
X184976Y-134530D01*
X183383D01*
Y-139250D01*
X185330D01*
X185743Y-138935D01*
X185979Y-138463D01*
X186097Y-137913D01*
X185979Y-137362D01*
X185625Y-136890D01*
X185212Y-136733D01*
X183383D01*
G01X188752Y-134530D02*
X190168D01*
G01X189460D02*
Y-139250D01*
G01X188752D02*
X190168D01*
G01X198605Y-140823D02*
X198015Y-140037D01*
X197720Y-139250D01*
Y-136103D01*
X198015Y-135317D01*
X198605Y-134530D01*
G01X202440Y-139250D02*
Y-134530D01*
X203856D01*
X204328Y-134766D01*
X204682Y-135317D01*
X204800Y-135946D01*
X204682Y-136575D01*
X204387Y-137047D01*
X203856Y-137283D01*
X202440D01*
G01X207042Y-134530D02*
Y-137913D01*
X207278Y-138621D01*
X207750Y-139093D01*
X208340Y-139250D01*
X208930Y-139093D01*
X209402Y-138621D01*
X209638Y-137913D01*
Y-134530D01*
G01X213532Y-136733D02*
X213768Y-136497D01*
X213945Y-136103D01*
X214063Y-135553D01*
X213945Y-135081D01*
X213709Y-134766D01*
X213296Y-134530D01*
X211703D01*
Y-139250D01*
X213650D01*
X214063Y-138935D01*
X214299Y-138463D01*
X214417Y-137913D01*
X214299Y-137362D01*
X213945Y-136890D01*
X213532Y-136733D01*
X211703D01*
G01X216600Y-134530D02*
Y-139250D01*
X218960D01*
G01X221792Y-134530D02*
X223208D01*
G01X222500D02*
Y-139250D01*
G01X221792D02*
X223208D01*
G01X228518Y-134923D02*
X228164Y-134687D01*
X227751Y-134530D01*
X227279D01*
X226748Y-134766D01*
X226335Y-135159D01*
X226040Y-135631D01*
X225804Y-136418D01*
X225745Y-137126D01*
X225863Y-137834D01*
X226040Y-138306D01*
X226394Y-138778D01*
X226807Y-139093D01*
X227220Y-139250D01*
X227633D01*
X228046Y-139093D01*
X228400Y-138857D01*
X228695Y-138542D01*
G01X235952Y-134530D02*
X237368D01*
G01X236660D02*
Y-139250D01*
G01X235952D02*
X237368D01*
G01X240023D02*
Y-134530D01*
X242737Y-139250D01*
Y-134530D01*
G01X244979Y-139250D02*
Y-134530D01*
X247221D01*
G01X246395Y-136811D02*
X244979D01*
G01X250820Y-139250D02*
X250348Y-139171D01*
X249935Y-138857D01*
X249581Y-138385D01*
X249345Y-137834D01*
X249227Y-137205D01*
Y-136575D01*
X249345Y-135946D01*
X249581Y-135395D01*
X249935Y-134923D01*
X250348Y-134609D01*
X250820Y-134530D01*
X251292Y-134609D01*
X251705Y-134923D01*
X252059Y-135395D01*
X252295Y-135946D01*
X252413Y-136575D01*
Y-137205D01*
X252295Y-137834D01*
X252059Y-138385D01*
X251705Y-138857D01*
X251292Y-139171D01*
X250820Y-139250D01*
G01X254360D02*
Y-134530D01*
X255835D01*
X256307Y-134766D01*
X256602Y-135081D01*
X256720Y-135710D01*
X256602Y-136339D01*
X256248Y-136733D01*
X255835Y-136969D01*
X254360D01*
G01X255835D02*
X256720Y-139250D01*
G01X258726D02*
Y-134530D01*
X260260Y-138463D01*
X261794Y-134530D01*
Y-139250D01*
G01X263505D02*
X264980Y-134530D01*
X266455Y-139250D01*
G01X265924Y-137598D02*
X264036D01*
G01X269700Y-134530D02*
Y-139250D01*
G01X268343Y-134530D02*
X271057D01*
G01X273712D02*
X275128D01*
G01X274420D02*
Y-139250D01*
G01X273712D02*
X275128D01*
G01X279140D02*
X278668Y-139171D01*
X278255Y-138857D01*
X277901Y-138385D01*
X277665Y-137834D01*
X277547Y-137205D01*
Y-136575D01*
X277665Y-135946D01*
X277901Y-135395D01*
X278255Y-134923D01*
X278668Y-134609D01*
X279140Y-134530D01*
X279612Y-134609D01*
X280025Y-134923D01*
X280379Y-135395D01*
X280615Y-135946D01*
X280733Y-136575D01*
Y-137205D01*
X280615Y-137834D01*
X280379Y-138385D01*
X280025Y-138857D01*
X279612Y-139171D01*
X279140Y-139250D01*
G01X282503D02*
Y-134530D01*
X285217Y-139250D01*
Y-134530D01*
G01X288875Y-140823D02*
X289465Y-140037D01*
X289760Y-139250D01*
Y-136103D01*
X289465Y-135317D01*
X288875Y-134530D01*
G01X195063Y-187250D02*
Y-182530D01*
X197777Y-187250D01*
Y-182530D01*
G01X199842D02*
Y-185913D01*
X200078Y-186621D01*
X200550Y-187093D01*
X201140Y-187250D01*
X201730Y-187093D01*
X202202Y-186621D01*
X202438Y-185913D01*
Y-182530D01*
G01X204326Y-187250D02*
Y-182530D01*
X205860Y-186463D01*
X207394Y-182530D01*
Y-187250D01*
G01X211052Y-184733D02*
X211288Y-184497D01*
X211465Y-184103D01*
X211583Y-183553D01*
X211465Y-183081D01*
X211229Y-182766D01*
X210816Y-182530D01*
X209223D01*
Y-187250D01*
X211170D01*
X211583Y-186935D01*
X211819Y-186463D01*
X211937Y-185913D01*
X211819Y-185362D01*
X211465Y-184890D01*
X211052Y-184733D01*
X209223D01*
G01X216480Y-187250D02*
X214120D01*
Y-182530D01*
X216480D01*
G01X215536Y-184811D02*
X214120D01*
G01X218840Y-187250D02*
Y-182530D01*
X220315D01*
X220787Y-182766D01*
X221082Y-183081D01*
X221200Y-183710D01*
X221082Y-184339D01*
X220728Y-184733D01*
X220315Y-184969D01*
X218840D01*
G01X220315D02*
X221200Y-187250D01*
G54D12*
X3450Y125150D03*
G54D13*
X43850Y39950D03*
X56850Y30150D03*
X30850Y29950D03*
X84750Y157150D03*
X79400Y211950D03*
G54D14*
X80550Y66950D03*
G54D15*
X85589Y193287D03*
Y189350D03*
X82204Y187381D03*
X85589Y185413D03*
X99581Y173476D03*
X101550Y170110D03*
X103519Y173476D03*
X117511Y185413D03*
Y189350D03*
Y193287D03*
X103519Y205224D03*
X101550Y208590D03*
X99581Y205224D03*
X120896Y187381D03*
Y191319D03*
X172150Y62750D03*
X167000Y62100D03*
G54D16*
G01X96450Y240950D02*
X92900Y244500D01*
X68900D01*
X66050Y241650D01*
Y238650D01*
X61700Y234300D01*
X49500D01*
X48400Y233200D01*
X34950D01*
X32650Y235500D01*
X15650D01*
X13500Y233350D01*
X5100D01*
X-300Y227950D01*
Y219200D01*
X-11750Y207750D01*
Y99600D01*
X-4600Y92450D01*
Y58400D01*
X6000Y47800D01*
X16500D01*
G01X223550Y350D02*
Y-16400D01*
X215100Y-24850D01*
X62400D01*
X54700Y-17150D01*
G01Y99550D02*
X54600Y99650D01*
X53150D01*
X50950Y101850D01*
Y103250D01*
G01X49000Y117650D02*
Y109700D01*
X50950Y107750D01*
G01X80550Y66950D02*
X80200Y66600D01*
X73300D01*
X70800Y69100D01*
Y99700D01*
X72569Y101469D01*
Y120681D01*
G01X66350Y126900D02*
Y138700D01*
X69101Y141451D01*
Y154901D01*
X70600Y156400D01*
Y163400D01*
X66729Y167271D01*
G01X170300Y26650D02*
X183000D01*
X187250Y30900D01*
Y44392D01*
G01X230200Y-19150D02*
X235100Y-24050D01*
X302950D01*
X330250Y3250D01*
Y69700D01*
X300950Y99000D01*
Y124450D01*
X297595Y127805D01*
Y143455D01*
X295650Y145400D01*
G01D02*
X310500Y160250D01*
Y184700D01*
X318800Y193000D01*
Y210550D01*
X318750Y210600D01*
Y233100D01*
X320450Y234800D01*
Y237550D01*
G54D17*
G01X3500Y143600D02*
X-3400D01*
X-9500Y137500D01*
Y120700D01*
X-7450Y118650D01*
X1500D01*
X3400Y120550D01*
Y126300D01*
X3450Y126350D01*
G01X12750Y-23950D02*
Y-18000D01*
X20075Y-10675D01*
Y25D01*
X50950Y30900D01*
Y66900D01*
X55850Y71800D01*
Y95800D01*
X58050Y98000D01*
Y118950D01*
X49700Y127300D01*
G01X17750Y-1700D02*
Y7600D01*
X38650Y28500D01*
Y106150D01*
X41388Y108888D01*
Y117762D01*
X40150Y119000D01*
G01X14650Y222050D02*
X11500Y218900D01*
Y161050D01*
X16200Y156350D01*
Y137100D01*
X18400Y134900D01*
Y123850D01*
X16850Y122300D01*
Y113050D01*
G01X18650Y121300D02*
X22800Y125450D01*
Y133650D01*
X22200Y134250D01*
Y137350D01*
X20900Y138650D01*
Y161950D01*
X22400Y163450D01*
Y167850D01*
X19000Y171250D01*
Y211450D01*
X21600Y214050D01*
Y232500D01*
G01X17700Y232450D02*
Y214150D01*
X14400Y210850D01*
Y161350D01*
X19000Y156750D01*
Y136900D01*
X20400Y135500D01*
G01X136050Y240300D02*
X134100Y238350D01*
X106950D01*
X102650Y242650D01*
X100350D01*
X94600Y248400D01*
X59950D01*
X47750Y236200D01*
X36500D01*
X34650Y238050D01*
X13750D01*
X11900Y236200D01*
G01X23862Y-1900D02*
X27762Y2000D01*
X54750D01*
X69700Y16950D01*
Y43000D01*
X76350Y49650D01*
X81800D01*
X97200Y65050D01*
Y80350D01*
X95150Y82400D01*
Y110950D01*
X87700Y118400D01*
Y125100D01*
X89200Y126600D01*
X91900D01*
G01X106300Y112400D02*
Y93500D01*
X108200Y91600D01*
Y69200D01*
X94800Y55800D01*
Y51200D01*
X91450Y47850D01*
X78700D01*
X74700Y43850D01*
Y18750D01*
X55700Y-250D01*
X34250D01*
X32450Y-2050D01*
G01X37200Y-2100D02*
X57450D01*
X76650Y17100D01*
Y42550D01*
X79800Y45700D01*
X91700D01*
X97050Y51050D01*
Y55400D01*
X109400Y67750D01*
Y93100D01*
X108400Y94100D01*
Y107750D01*
G01X43850Y39950D02*
X41050Y42750D01*
Y79300D01*
X46850Y85100D01*
Y94300D01*
X45300Y95850D01*
Y101000D01*
X46850Y102550D01*
Y129350D01*
X42400Y133800D01*
X39550D01*
X36950Y136400D01*
G01X32750Y88400D02*
Y46450D01*
X35750Y43450D01*
Y34850D01*
X30850Y29950D01*
G01X43250Y126900D02*
X41500D01*
X34250Y134150D01*
Y140950D01*
X36850Y143550D01*
Y158200D01*
X35200Y159850D01*
Y164450D01*
X25600Y174050D01*
Y195150D01*
X23100Y197650D01*
Y213500D01*
X25900Y216300D01*
Y232500D01*
G01X59900Y122307D02*
Y127250D01*
X45450Y141700D01*
G01X28850Y232600D02*
Y174400D01*
X40500Y162750D01*
Y143000D01*
X36950Y139450D01*
Y136400D01*
G01X56850Y30150D02*
X61150Y34450D01*
Y48800D01*
X58650Y51300D01*
Y89050D01*
X59600Y90000D01*
Y94300D01*
X65250Y99950D01*
Y113200D01*
X64050Y114400D01*
Y138100D01*
X62100Y140050D01*
Y145100D01*
X64050Y147050D01*
Y163750D01*
X57400Y170400D01*
Y184550D01*
X32800Y209150D01*
Y230850D01*
X32788Y230862D01*
Y231362D01*
X31550Y232600D01*
G01X226450Y232100D02*
Y241000D01*
X222100Y245350D01*
X136900D01*
X135250Y243700D01*
X101350D01*
X95150Y249900D01*
X58600D01*
X48600Y239900D01*
X45450D01*
G01X55688Y17750D02*
Y20688D01*
X65200Y30200D01*
Y36050D01*
X62950Y38300D01*
Y49100D01*
X61250Y50800D01*
Y56900D01*
X65100Y60750D01*
X82150D01*
X85150Y63750D01*
Y81300D01*
X76700Y89750D01*
Y96900D01*
X79350Y99550D01*
Y103450D01*
X74700Y108100D01*
Y119100D01*
X75450Y119850D01*
Y125325D01*
X71187Y129588D01*
X70438D01*
X69200Y128350D01*
G01X82700Y102650D02*
X84875Y100475D01*
Y84375D01*
X86700Y82550D01*
Y62900D01*
X82700Y58900D01*
X77150D01*
X66200Y47950D01*
Y29200D01*
X59150Y22150D01*
Y18250D01*
G01X78550Y138900D02*
X81650Y135800D01*
Y127950D01*
X77600Y123900D01*
Y119050D01*
X84850Y111800D01*
Y102800D01*
X86550Y101100D01*
Y87950D01*
X94950Y79550D01*
Y72200D01*
G01X84750Y115850D02*
Y118000D01*
X84738Y118012D01*
Y138962D01*
X78150Y145550D01*
Y167750D01*
X75400Y170500D01*
Y182650D01*
X74700Y183350D01*
Y232900D01*
X76900Y235100D01*
Y239550D01*
G01X59910Y140000D02*
X62450Y137460D01*
Y121100D01*
X60800Y119450D01*
G01X155500Y240650D02*
X153550Y242600D01*
X143200D01*
X136500Y235900D01*
X104800D01*
X100700Y240000D01*
X98500D01*
X97100Y238600D01*
X95650D01*
X92500Y241750D01*
X75700D01*
X73200Y239250D01*
Y182150D01*
X73900Y181450D01*
Y164300D01*
X76500Y161700D01*
Y137950D01*
X80500Y133950D01*
Y128300D01*
X76500Y124300D01*
Y117650D01*
G01X91600Y100750D02*
X94000Y103150D01*
Y109950D01*
X86150Y117800D01*
Y140300D01*
X79675Y146775D01*
Y170225D01*
X76600Y173300D01*
Y179900D01*
X79400Y182700D01*
Y211950D01*
G01X84750Y157150D02*
Y179300D01*
X88650Y183200D01*
Y194750D01*
X85800Y197600D01*
G01X90200Y141150D02*
Y160900D01*
X86850Y164250D01*
Y176600D01*
X90350Y180100D01*
Y200300D01*
X88450Y202200D01*
Y210550D01*
X80500Y218500D01*
Y232450D01*
X85800Y237750D01*
Y239500D01*
G01X159500Y240500D02*
X156000Y244000D01*
X142550D01*
X135700Y237150D01*
X106000D01*
X101950Y241200D01*
X100000D01*
X94100Y247100D01*
X65750D01*
X57200Y238550D01*
G01X191050Y238100D02*
X187300Y234350D01*
Y216250D01*
X185550Y214500D01*
Y204050D01*
X180300Y198800D01*
X153200D01*
X129100Y174700D01*
Y161300D01*
X124000Y156200D01*
Y149500D01*
X111800Y137300D01*
Y72100D01*
X124250Y59650D01*
X136550D01*
X149050Y72150D01*
G01X104500Y89900D02*
X102450Y87850D01*
X98506D01*
X97400Y88956D01*
Y111100D01*
X105700Y119400D01*
Y125849D01*
X104700Y126849D01*
Y166594D01*
X106650Y168544D01*
Y216556D01*
X104931Y218275D01*
Y232881D01*
X106057Y234007D01*
Y234050D01*
G01X104500Y84800D02*
X102550Y86750D01*
X98050D01*
X96300Y88500D01*
Y111556D01*
X104600Y119856D01*
Y125393D01*
X103600Y126393D01*
Y167050D01*
X105550Y169000D01*
Y216100D01*
X103831Y217819D01*
Y232925D01*
X102706Y234050D01*
G01X106400Y78500D02*
Y80250D01*
X107088Y80938D01*
Y90712D01*
X104300Y93500D01*
Y103800D01*
G01X141250Y72150D02*
X138900Y69800D01*
X133400D01*
X131350Y71850D01*
X123400D01*
X115500Y79750D01*
Y103500D01*
X117400Y105400D01*
Y137000D01*
X137500Y157100D01*
Y166450D01*
X150450Y179400D01*
Y182700D01*
X158850Y191100D01*
X162850D01*
G01X192088Y230850D02*
Y218088D01*
X191100Y217100D01*
Y200950D01*
X185150Y195000D01*
X163000D01*
X161375Y193375D01*
X154325D01*
X145500Y184550D01*
Y181050D01*
X133350Y168900D01*
Y156000D01*
X114850Y137500D01*
Y109900D01*
X114000Y109050D01*
Y78200D01*
X122875Y69325D01*
Y65125D01*
X126150Y61850D01*
X135400D01*
X145199Y71649D01*
Y77855D01*
G01X143800Y238850D02*
Y236600D01*
X127600Y220400D01*
Y207050D01*
X124725Y204175D01*
Y183375D01*
X121500Y180150D01*
Y170700D01*
X120550Y169750D01*
Y154800D01*
X116850Y151100D01*
Y146300D01*
X113450Y142900D01*
X111250D01*
X108700Y140350D01*
Y116650D01*
G01X105775Y116925D02*
X106850Y118000D01*
Y160500D01*
X109450Y163100D01*
Y215050D01*
G01X94850Y125550D02*
X96550Y127250D01*
Y132950D01*
X92100Y137400D01*
Y203600D01*
X90250Y205450D01*
Y234350D01*
X88800Y235800D01*
Y239200D01*
G01X93300Y115950D02*
X95200D01*
X96800Y117550D01*
Y122850D01*
X99850Y125900D01*
Y135300D01*
X94700Y140450D01*
Y161450D01*
X96500Y163250D01*
Y232900D01*
X99250Y235650D01*
Y238150D01*
G01X95050Y119150D02*
Y122750D01*
X98550Y126250D01*
Y133400D01*
X93500Y138450D01*
Y163200D01*
X94400Y164100D01*
Y204450D01*
X91850Y207000D01*
Y235650D01*
X92650Y236450D01*
Y239100D01*
G01X113850Y152500D02*
X116300Y154950D01*
Y182252D01*
X117511Y183463D01*
Y185413D01*
G01X108600Y142800D02*
Y159350D01*
X114100Y164850D01*
Y212900D01*
X113750Y213250D01*
Y215000D01*
G01X149136Y85729D02*
X151300Y83565D01*
Y79350D01*
X153250Y77400D01*
Y67300D01*
X147300Y61350D01*
Y15900D01*
X144400Y13000D01*
X142650D01*
G01X166000Y182850D02*
X159250D01*
X142150Y165750D01*
Y159550D01*
X119050Y136450D01*
Y83150D01*
X128100Y74100D01*
X134850D01*
G01X149136Y89666D02*
X147100Y87630D01*
Y81000D01*
X151750Y76350D01*
Y69250D01*
X142800Y60300D01*
Y55050D01*
G01X135750Y88600D02*
Y91250D01*
X134500Y92500D01*
Y97950D01*
X135050Y98500D01*
Y121850D01*
X139350Y126150D01*
Y128600D01*
X163100Y152350D01*
Y157000D01*
X187050Y180950D01*
X199100D01*
X204450Y186300D01*
Y208950D01*
X202550Y210850D01*
Y228900D01*
X209150Y235500D01*
G01X137325Y81792D02*
X131750Y87367D01*
Y88450D01*
X126250Y93950D01*
Y108150D01*
X128600Y110500D01*
Y120900D01*
X133950Y126250D01*
Y130550D01*
X152950Y149550D01*
Y159250D01*
X165400Y171700D01*
X171450D01*
X183900Y184150D01*
X198350D01*
X202350Y188150D01*
Y206050D01*
X199550Y208850D01*
Y230250D01*
X202650Y233350D01*
G01X196850Y234550D02*
Y207400D01*
X200150Y204100D01*
Y190050D01*
X197250Y187150D01*
X179800D01*
X171050Y178400D01*
X164550D01*
X161700Y175550D01*
Y173100D01*
X149750Y161150D01*
Y149850D01*
X140150Y140250D01*
X133350D01*
X123750Y130650D01*
Y86350D01*
X130150Y79950D01*
X139420D01*
X141262Y81792D01*
G01Y85729D02*
X139350Y87641D01*
Y122550D01*
X145825Y129025D01*
X147925D01*
X164200Y145300D01*
Y148050D01*
X173550Y157400D01*
Y163050D01*
X188050Y177550D01*
X199800D01*
X210050Y187800D01*
Y210250D01*
X206815Y213485D01*
Y229250D01*
G01X145199Y81792D02*
Y82201D01*
X143750Y83650D01*
X137900D01*
X133550Y88000D01*
Y90500D01*
X130850Y93200D01*
Y120350D01*
X136650Y126150D01*
Y128900D01*
X158400Y150650D01*
Y159750D01*
X166500Y167850D01*
Y169600D01*
G01X198150Y191550D02*
X179250D01*
X168750Y181050D01*
X162350D01*
X146600Y165300D01*
Y156300D01*
X143150Y152850D01*
X139250D01*
X130000Y143600D01*
X128950D01*
X121350Y136000D01*
Y85250D01*
X128745Y77855D01*
X137325D01*
G01X145199Y85729D02*
X143350Y87578D01*
Y122050D01*
X145525Y124225D01*
X146775D01*
X166500Y143950D01*
Y147350D01*
X175200Y156050D01*
X176950D01*
X195550Y174650D01*
G01X140150Y236650D02*
X120200Y216700D01*
Y212100D01*
X123200Y209100D01*
Y186000D01*
X120000Y182800D01*
Y171200D01*
X118350Y169550D01*
Y155550D01*
G01X119000Y150400D02*
X121900Y153300D01*
Y169000D01*
X126500Y173600D01*
Y177700D01*
X136750Y187950D01*
Y207950D01*
X134950Y209750D01*
Y217150D01*
X136650Y218850D01*
X145350D01*
X151150Y213050D01*
X158400D01*
X160400Y215050D01*
G01X134500Y206100D02*
X132150Y208450D01*
Y220800D01*
X146325Y234975D01*
Y239275D01*
X147800Y240750D01*
X149650D01*
G01X153073Y81792D02*
Y79877D01*
X154850Y78100D01*
Y47450D01*
X150000Y42600D01*
G01X168800Y73900D02*
Y68800D01*
X171900Y65700D01*
X173373D01*
X175100Y63973D01*
Y62500D01*
X182200Y55400D01*
X202100D01*
X211850Y65150D01*
X245050D01*
X279500Y99600D01*
Y125227D01*
X279207Y125520D01*
X278993D01*
X278700Y125813D01*
Y126227D01*
X278993Y126520D01*
X279207D01*
X279500Y126813D01*
Y127227D01*
X279207Y127520D01*
X278993D01*
X278700Y127813D01*
Y128227D01*
X278993Y128520D01*
X279207D01*
X279500Y128813D01*
Y131000D01*
X277600Y132900D01*
Y136150D01*
X279750Y138300D01*
Y200100D01*
X274600Y205250D01*
Y220000D01*
G01X174750Y70200D02*
X184500Y60450D01*
X197850D01*
X208350Y70950D01*
X242100D01*
X270550Y99400D01*
Y106747D01*
X270257Y107040D01*
X269343D01*
X269050Y107333D01*
Y107747D01*
X269343Y108040D01*
X270257D01*
X270550Y108333D01*
Y108747D01*
X270257Y109040D01*
X269343D01*
X269050Y109333D01*
Y109747D01*
X269343Y110040D01*
X270257D01*
X270550Y110333D01*
Y110747D01*
X270257Y111040D01*
X269343D01*
X269050Y111333D01*
Y111747D01*
X269343Y112040D01*
X270257D01*
X270550Y112333D01*
Y112747D01*
X270257Y113040D01*
X269343D01*
X269050Y113333D01*
Y113747D01*
X269343Y114040D01*
X270257D01*
X270550Y114333D01*
Y114747D01*
X270257Y115040D01*
X269343D01*
X269050Y115333D01*
Y115747D01*
X269343Y116040D01*
X270257D01*
X270550Y116333D01*
Y117400D01*
X269100Y118850D01*
Y165253D01*
X269393Y165546D01*
X271557D01*
X271850Y165839D01*
Y166253D01*
X271557Y166546D01*
X269393D01*
X269100Y166839D01*
Y167253D01*
X269393Y167546D01*
X271557D01*
X271850Y167839D01*
Y168253D01*
X271557Y168546D01*
X269393D01*
X269100Y168839D01*
Y169253D01*
X269393Y169546D01*
X271557D01*
X271850Y169839D01*
Y170253D01*
X271557Y170546D01*
X269393D01*
X269100Y170839D01*
Y171253D01*
X269393Y171546D01*
X271557D01*
X271850Y171839D01*
Y172253D01*
X271557Y172546D01*
X269393D01*
X269100Y172839D01*
Y173253D01*
X269393Y173546D01*
X271557D01*
X271850Y173839D01*
Y174253D01*
X271557Y174546D01*
X269393D01*
X269100Y174839D01*
Y223150D01*
X266500Y225750D01*
Y229000D01*
X263550Y231950D01*
X260050D01*
X256650Y235350D01*
X249250D01*
G01X172757Y77855D02*
Y76443D01*
X174950Y74250D01*
Y72550D01*
X175800Y71700D01*
X177800D01*
X187550Y61950D01*
X195650D01*
X196382Y62682D01*
Y63096D01*
X195621Y63857D01*
Y64271D01*
X195915Y64565D01*
X196329D01*
X197090Y63804D01*
X197504D01*
X197798Y64098D01*
Y64512D01*
X197037Y65273D01*
Y65687D01*
X197331Y65981D01*
X197745D01*
X198506Y65220D01*
X198920D01*
X199214Y65514D01*
Y65928D01*
X198453Y66689D01*
Y67103D01*
X198747Y67397D01*
X199161D01*
X199922Y66636D01*
X200336D01*
X200630Y66930D01*
Y67344D01*
X199869Y68105D01*
Y68519D01*
X200163Y68813D01*
X200577D01*
X201338Y68052D01*
X201752D01*
X202046Y68346D01*
Y68760D01*
X201285Y69521D01*
Y69935D01*
X201579Y70229D01*
X201993D01*
X202754Y69468D01*
X203168D01*
X203462Y69762D01*
Y70176D01*
X202701Y70937D01*
Y71351D01*
X202995Y71645D01*
X203409D01*
X204170Y70884D01*
X204584D01*
X206150Y72450D01*
X238750D01*
X245099Y78799D01*
X245513D01*
X246174Y78138D01*
X246588D01*
X246882Y78432D01*
Y78846D01*
X246221Y79507D01*
Y79921D01*
X246932Y80632D01*
X247346D01*
X248032Y79946D01*
X248446D01*
X248740Y80240D01*
Y80654D01*
X248054Y81340D01*
Y81754D01*
X248348Y82048D01*
X248762D01*
X249448Y81362D01*
X249862D01*
X250156Y81656D01*
Y82070D01*
X249470Y82756D01*
Y83170D01*
X249764Y83464D01*
X250178D01*
X250864Y82778D01*
X251278D01*
X251572Y83072D01*
Y83486D01*
X250886Y84172D01*
Y84586D01*
X251180Y84880D01*
X251594D01*
X252280Y84194D01*
X252694D01*
X252988Y84488D01*
Y84902D01*
X252302Y85588D01*
Y86002D01*
X252596Y86296D01*
X253010D01*
X253696Y85610D01*
X254110D01*
X254404Y85904D01*
Y86318D01*
X253718Y87004D01*
Y87418D01*
X254012Y87712D01*
X254426D01*
X255112Y87026D01*
X255526D01*
X255820Y87320D01*
Y87734D01*
X255134Y88420D01*
Y88834D01*
X255428Y89128D01*
X255842D01*
X256528Y88442D01*
X256942D01*
X257236Y88736D01*
Y89150D01*
X256550Y89836D01*
Y90250D01*
X256844Y90544D01*
X257258D01*
X257944Y89858D01*
X258358D01*
X258652Y90152D01*
Y90566D01*
X257966Y91252D01*
Y91666D01*
X258260Y91960D01*
X258674D01*
X259360Y91274D01*
X259774D01*
X260068Y91568D01*
Y91982D01*
X259382Y92668D01*
Y93082D01*
X259676Y93376D01*
X260090D01*
X260776Y92690D01*
X261190D01*
X261484Y92984D01*
Y93398D01*
X260798Y94084D01*
Y94498D01*
X261092Y94792D01*
X261506D01*
X262192Y94106D01*
X262606D01*
X262900Y94400D01*
Y94814D01*
X262214Y95500D01*
Y95914D01*
X262508Y96208D01*
X262922D01*
X263608Y95522D01*
X264022D01*
X264316Y95816D01*
Y96230D01*
X263630Y96916D01*
Y97330D01*
X263924Y97624D01*
X264338D01*
X265024Y96938D01*
X265438D01*
X265732Y97232D01*
Y97646D01*
X265046Y98332D01*
Y98746D01*
X265340Y99040D01*
X265754D01*
X266440Y98354D01*
X266854D01*
X267148Y98648D01*
Y99062D01*
X266462Y99748D01*
Y100162D01*
X267550Y101250D01*
Y221850D01*
X263550Y225850D01*
Y229450D01*
G01X172850Y81800D02*
Y80700D01*
X170750Y78600D01*
Y73600D01*
X172500Y71850D01*
Y69878D01*
X183678Y58700D01*
X198950D01*
X209100Y68850D01*
X242450D01*
X272300Y98700D01*
Y118288D01*
X271138Y119450D01*
Y125469D01*
X271431Y125762D01*
X272957D01*
X273250Y126055D01*
Y126469D01*
X272957Y126762D01*
X271431D01*
X271138Y127055D01*
Y127469D01*
X271431Y127762D01*
X272957D01*
X273250Y128055D01*
Y128469D01*
X272957Y128762D01*
X271431D01*
X271138Y129055D01*
Y129469D01*
X271431Y129762D01*
X272957D01*
X273250Y130055D01*
Y130469D01*
X272957Y130762D01*
X271431D01*
X271138Y131055D01*
Y131469D01*
X271431Y131762D01*
X272957D01*
X273250Y132055D01*
Y132469D01*
X272957Y132762D01*
X271431D01*
X271138Y133055D01*
Y133469D01*
X271431Y133762D01*
X272957D01*
X273250Y134055D01*
Y134469D01*
X272957Y134762D01*
X271431D01*
X271138Y135055D01*
Y135469D01*
X271431Y135762D01*
X272957D01*
X273250Y136055D01*
Y136469D01*
X272957Y136762D01*
X271431D01*
X271138Y137055D01*
Y137469D01*
X271431Y137762D01*
X272957D01*
X273250Y138055D01*
Y138469D01*
X272957Y138762D01*
X271431D01*
X271138Y139055D01*
Y162150D01*
X275600Y166612D01*
Y196700D01*
X271138Y201162D01*
Y225162D01*
X269900Y226400D01*
G01X157010Y85729D02*
X158862Y83877D01*
Y69488D01*
X160100Y68250D01*
G01X170650Y70300D02*
X171888Y69062D01*
Y68262D01*
X173450Y66700D01*
X173788D01*
X176100Y64388D01*
Y64050D01*
X183000Y57150D01*
X200350D01*
X210100Y66900D01*
X243950D01*
X273950Y96900D01*
Y98322D01*
X274243Y98615D01*
X275807D01*
X276100Y98908D01*
Y99322D01*
X275807Y99615D01*
X274243D01*
X273950Y99908D01*
Y100322D01*
X274243Y100615D01*
X275807D01*
X276100Y100908D01*
Y101322D01*
X275807Y101615D01*
X274243D01*
X273950Y101908D01*
Y102322D01*
X274243Y102615D01*
X275807D01*
X276100Y102908D01*
Y103322D01*
X275807Y103615D01*
X274243D01*
X273950Y103908D01*
Y104322D01*
X274243Y104615D01*
X275807D01*
X276100Y104908D01*
Y105322D01*
X275807Y105615D01*
X274243D01*
X273950Y105908D01*
Y106322D01*
X274243Y106615D01*
X275807D01*
X276100Y106908D01*
Y107322D01*
X275807Y107615D01*
X274243D01*
X273950Y107908D01*
Y108322D01*
X274243Y108615D01*
X275807D01*
X276100Y108908D01*
Y109322D01*
X275807Y109615D01*
X274243D01*
X273950Y109908D01*
Y110322D01*
X274243Y110615D01*
X275807D01*
X276100Y110908D01*
Y111322D01*
X275807Y111615D01*
X274243D01*
X273950Y111908D01*
Y112322D01*
X274243Y112615D01*
X275807D01*
X276100Y112908D01*
Y113322D01*
X275807Y113615D01*
X274243D01*
X273950Y113908D01*
Y114322D01*
X274243Y114615D01*
X275807D01*
X276100Y114908D01*
Y117500D01*
X275450Y118150D01*
Y141800D01*
X277700Y144050D01*
Y198950D01*
X272800Y203850D01*
Y229750D01*
X268512Y234038D01*
Y234452D01*
X269048Y234988D01*
Y235402D01*
X268754Y235696D01*
X268340D01*
X267804Y235160D01*
X267390D01*
X265900Y236650D01*
Y238400D01*
G01X277250Y227200D02*
Y220650D01*
X281750Y216150D01*
Y99150D01*
X244975Y62375D01*
X211375D01*
X201950Y52950D01*
X182150D01*
X174100Y61000D01*
Y63558D01*
X172958Y64700D01*
X170400D01*
X166750Y68350D01*
Y78850D01*
X167900Y80000D01*
X169850D01*
X170900Y81050D01*
Y83100D01*
X173529Y85729D01*
X176694D01*
G01Y89666D02*
X178650Y87710D01*
Y84550D01*
X177800Y83700D01*
X175600D01*
X174750Y82850D01*
Y77050D01*
X175950Y75850D01*
X177350D01*
X181250Y71950D01*
X188850D01*
X191050Y74150D01*
X192520D01*
X192813Y73857D01*
Y72093D01*
X193106Y71800D01*
X193520D01*
X193813Y72093D01*
Y73857D01*
X194106Y74150D01*
X194520D01*
X194813Y73857D01*
Y72093D01*
X195106Y71800D01*
X195520D01*
X195813Y72093D01*
Y73857D01*
X196106Y74150D01*
X196520D01*
X196813Y73857D01*
Y72093D01*
X197106Y71800D01*
X197520D01*
X197813Y72093D01*
Y73857D01*
X198106Y74150D01*
X198520D01*
X198813Y73857D01*
Y72093D01*
X199106Y71800D01*
X199520D01*
X199813Y72093D01*
Y73857D01*
X200106Y74150D01*
X238300D01*
X239469Y75319D01*
Y75733D01*
X238944Y76258D01*
Y76672D01*
X239238Y76966D01*
X239652D01*
X240177Y76441D01*
X240591D01*
X240885Y76735D01*
Y77149D01*
X240360Y77674D01*
Y78088D01*
X240654Y78382D01*
X241068D01*
X241593Y77857D01*
X242007D01*
X242301Y78151D01*
Y78565D01*
X241776Y79090D01*
Y79504D01*
X242070Y79798D01*
X242484D01*
X243009Y79273D01*
X243423D01*
X243717Y79567D01*
Y79981D01*
X243192Y80506D01*
Y80920D01*
X243486Y81214D01*
X243900D01*
X244425Y80689D01*
X244839D01*
X245133Y80983D01*
Y81397D01*
X244608Y81922D01*
Y82336D01*
X244902Y82630D01*
X245316D01*
X245841Y82105D01*
X246255D01*
X246549Y82399D01*
Y82813D01*
X246024Y83338D01*
Y83752D01*
X246318Y84046D01*
X246732D01*
X247257Y83521D01*
X247671D01*
X247965Y83815D01*
Y84229D01*
X247440Y84754D01*
Y85168D01*
X247734Y85462D01*
X248148D01*
X248673Y84937D01*
X249087D01*
X249381Y85231D01*
Y85645D01*
X248856Y86170D01*
Y86584D01*
X249150Y86878D01*
X249564D01*
X250089Y86353D01*
X250503D01*
X250797Y86647D01*
Y87061D01*
X250272Y87586D01*
Y88000D01*
X250566Y88294D01*
X250980D01*
X251505Y87769D01*
X251919D01*
X252213Y88063D01*
Y88477D01*
X251688Y89002D01*
Y89416D01*
X251982Y89710D01*
X252396D01*
X252921Y89185D01*
X253335D01*
X253629Y89479D01*
Y89893D01*
X253104Y90418D01*
Y90832D01*
X253398Y91126D01*
X253812D01*
X254337Y90601D01*
X254751D01*
X255045Y90895D01*
Y91309D01*
X254520Y91834D01*
Y92248D01*
X254814Y92542D01*
X255228D01*
X255753Y92017D01*
X256167D01*
X256461Y92311D01*
Y92725D01*
X255936Y93250D01*
Y93664D01*
X256230Y93958D01*
X256644D01*
X257169Y93433D01*
X257583D01*
X257877Y93727D01*
Y94141D01*
X257352Y94666D01*
Y95080D01*
X257646Y95374D01*
X258060D01*
X258585Y94849D01*
X258999D01*
X259293Y95143D01*
Y95557D01*
X258768Y96082D01*
Y96496D01*
X259062Y96790D01*
X259476D01*
X260001Y96265D01*
X260415D01*
X260709Y96559D01*
Y96973D01*
X260184Y97498D01*
Y97912D01*
X260478Y98206D01*
X260892D01*
X261417Y97681D01*
X261831D01*
X262125Y97975D01*
Y98389D01*
X261600Y98914D01*
Y99328D01*
X261894Y99622D01*
X262308D01*
X262833Y99097D01*
X263247D01*
X263541Y99391D01*
Y99805D01*
X263016Y100330D01*
Y100744D01*
X263310Y101038D01*
X263724D01*
X264249Y100513D01*
X264663D01*
X265900Y101750D01*
Y218500D01*
X265400Y219000D01*
X265450Y219050D01*
Y220800D01*
G01X164900Y85750D02*
Y87050D01*
X166700Y88850D01*
Y128350D01*
X172200Y133850D01*
Y136550D01*
G01X168800Y81750D02*
X166850Y83700D01*
Y86150D01*
X168400Y87700D01*
X169600D01*
X171150Y89250D01*
Y91300D01*
X175250Y95400D01*
X186750D01*
X200250Y108900D01*
X227850D01*
X231850Y112900D01*
Y116397D01*
X231557Y116690D01*
X230093D01*
X229800Y116983D01*
Y117397D01*
X230093Y117690D01*
X231557D01*
X231850Y117983D01*
Y118397D01*
X231557Y118690D01*
X230093D01*
X229800Y118983D01*
Y119397D01*
X230093Y119690D01*
X231557D01*
X231850Y119983D01*
Y120397D01*
X231557Y120690D01*
X230093D01*
X229800Y120983D01*
Y121397D01*
X230093Y121690D01*
X231557D01*
X231850Y121983D01*
Y122397D01*
X231557Y122690D01*
X230093D01*
X229800Y122983D01*
Y123397D01*
X230093Y123690D01*
X231557D01*
X231850Y123983D01*
Y124397D01*
X231557Y124690D01*
X230093D01*
X229800Y124983D01*
Y125397D01*
X230093Y125690D01*
X231557D01*
X231850Y125983D01*
Y126397D01*
X231557Y126690D01*
X230093D01*
X229800Y126983D01*
Y127397D01*
X230093Y127690D01*
X231557D01*
X231850Y127983D01*
Y128397D01*
X231557Y128690D01*
X230093D01*
X229800Y128983D01*
Y129397D01*
X230093Y129690D01*
X231557D01*
X231850Y129983D01*
Y130397D01*
X231557Y130690D01*
X230093D01*
X229800Y130983D01*
Y131397D01*
X230093Y131690D01*
X231557D01*
X231850Y131983D01*
Y132397D01*
X231557Y132690D01*
X230093D01*
X229800Y132983D01*
Y133397D01*
X230093Y133690D01*
X231557D01*
X231850Y133983D01*
Y134397D01*
X231557Y134690D01*
X230093D01*
X229800Y134983D01*
Y135397D01*
X230093Y135690D01*
X231557D01*
X231850Y135983D01*
Y136397D01*
X231557Y136690D01*
X230093D01*
X229800Y136983D01*
Y137397D01*
X230093Y137690D01*
X231557D01*
X231850Y137983D01*
Y138397D01*
X231557Y138690D01*
X230093D01*
X229800Y138983D01*
Y139397D01*
X230093Y139690D01*
X231557D01*
X231850Y139983D01*
Y140397D01*
X231557Y140690D01*
X230093D01*
X229800Y140983D01*
Y141397D01*
X230093Y141690D01*
X231557D01*
X231850Y141983D01*
Y142397D01*
X231557Y142690D01*
X230093D01*
X229800Y142983D01*
Y143397D01*
X230093Y143690D01*
X231557D01*
X231850Y143983D01*
Y144397D01*
X231557Y144690D01*
X230093D01*
X229800Y144983D01*
Y145397D01*
X230093Y145690D01*
X231557D01*
X231850Y145983D01*
Y146397D01*
X231557Y146690D01*
X230093D01*
X229800Y146983D01*
Y147397D01*
X230093Y147690D01*
X231557D01*
X231850Y147983D01*
Y148397D01*
X231557Y148690D01*
X230093D01*
X229800Y148983D01*
Y149397D01*
X230093Y149690D01*
X231557D01*
X231850Y149983D01*
Y150397D01*
X231557Y150690D01*
X230093D01*
X229800Y150983D01*
Y151397D01*
X230093Y151690D01*
X231557D01*
X231850Y151983D01*
Y152397D01*
X231557Y152690D01*
X230093D01*
X229800Y152983D01*
Y153397D01*
X230093Y153690D01*
X231557D01*
X231850Y153983D01*
Y154397D01*
X231557Y154690D01*
X230093D01*
X229800Y154983D01*
Y155397D01*
X230093Y155690D01*
X231557D01*
X231850Y155983D01*
Y156397D01*
X231557Y156690D01*
X230093D01*
X229800Y156983D01*
Y157397D01*
X230093Y157690D01*
X231557D01*
X231850Y157983D01*
Y158397D01*
X231557Y158690D01*
X230093D01*
X229800Y158983D01*
Y159397D01*
X230093Y159690D01*
X231557D01*
X231850Y159983D01*
Y160397D01*
X231557Y160690D01*
X230093D01*
X229800Y160983D01*
Y161397D01*
X230093Y161690D01*
X231557D01*
X231850Y161983D01*
Y162397D01*
X231557Y162690D01*
X230093D01*
X229800Y162983D01*
Y163397D01*
X230093Y163690D01*
X231557D01*
X231850Y163983D01*
Y164397D01*
X231557Y164690D01*
X230093D01*
X229800Y164983D01*
Y165397D01*
X230093Y165690D01*
X231557D01*
X231850Y165983D01*
Y166397D01*
X231557Y166690D01*
X230093D01*
X229800Y166983D01*
Y167397D01*
X230093Y167690D01*
X231557D01*
X231850Y167983D01*
Y168397D01*
X231557Y168690D01*
X230093D01*
X229800Y168983D01*
Y169397D01*
X230093Y169690D01*
X231557D01*
X231850Y169983D01*
Y170397D01*
X231557Y170690D01*
X230093D01*
X229800Y170983D01*
Y171397D01*
X230093Y171690D01*
X231557D01*
X232850Y172983D01*
Y230250D01*
X234650Y232050D01*
G01X168850Y85650D02*
X171150D01*
X174350Y88850D01*
Y90100D01*
X175900Y91650D01*
X185350D01*
X193750Y100050D01*
X222800D01*
X234650Y111900D01*
Y132448D01*
X234943Y132741D01*
X235757D01*
X236050Y133034D01*
Y133448D01*
X235757Y133741D01*
X234943D01*
X234650Y134034D01*
Y135034D01*
X234943Y135327D01*
X235607D01*
X235900Y135620D01*
Y136034D01*
X235607Y136327D01*
X234943D01*
X234650Y136620D01*
Y137034D01*
X234943Y137327D01*
X235607D01*
X235900Y137620D01*
Y138034D01*
X235607Y138327D01*
X234943D01*
X234650Y138620D01*
Y139034D01*
X234943Y139327D01*
X235607D01*
X235900Y139620D01*
Y140034D01*
X235607Y140327D01*
X234943D01*
X234650Y140620D01*
Y141034D01*
X234943Y141327D01*
X235607D01*
X235900Y141620D01*
Y142034D01*
X235607Y142327D01*
X234943D01*
X234650Y142620D01*
Y143034D01*
X234943Y143327D01*
X235607D01*
X235900Y143620D01*
Y144034D01*
X235607Y144327D01*
X234943D01*
X234650Y144620D01*
Y145034D01*
X234943Y145327D01*
X235607D01*
X235900Y145620D01*
Y146034D01*
X235607Y146327D01*
X234943D01*
X234650Y146620D01*
Y147034D01*
X234943Y147327D01*
X235607D01*
X235900Y147620D01*
Y148034D01*
X235607Y148327D01*
X234943D01*
X234650Y148620D01*
Y149034D01*
X234943Y149327D01*
X235607D01*
X235900Y149620D01*
Y150034D01*
X235607Y150327D01*
X234943D01*
X234650Y150620D01*
Y151034D01*
X234943Y151327D01*
X235607D01*
X235900Y151620D01*
Y152034D01*
X235607Y152327D01*
X234943D01*
X234650Y152620D01*
Y153034D01*
X234943Y153327D01*
X235607D01*
X235900Y153620D01*
Y154034D01*
X235607Y154327D01*
X234943D01*
X234650Y154620D01*
Y155034D01*
X234943Y155327D01*
X235607D01*
X235900Y155620D01*
Y156034D01*
X235607Y156327D01*
X234943D01*
X234650Y156620D01*
Y157034D01*
X234943Y157327D01*
X235607D01*
X235900Y157620D01*
Y158034D01*
X235607Y158327D01*
X234943D01*
X234650Y158620D01*
Y159034D01*
X234943Y159327D01*
X235607D01*
X235900Y159620D01*
Y160034D01*
X235607Y160327D01*
X234943D01*
X234650Y160620D01*
Y161034D01*
X234943Y161327D01*
X235607D01*
X235900Y161620D01*
Y162034D01*
X235607Y162327D01*
X234943D01*
X234650Y162620D01*
Y163034D01*
X234943Y163327D01*
X235607D01*
X235900Y163620D01*
Y164034D01*
X235607Y164327D01*
X234943D01*
X234650Y164620D01*
Y165034D01*
X234943Y165327D01*
X235607D01*
X235900Y165620D01*
Y166034D01*
X235607Y166327D01*
X234943D01*
X234650Y166620D01*
Y167034D01*
X234943Y167327D01*
X235607D01*
X235900Y167620D01*
Y168034D01*
X235607Y168327D01*
X234943D01*
X234650Y168620D01*
Y169034D01*
X234943Y169327D01*
X235607D01*
X235900Y169620D01*
Y170034D01*
X235607Y170327D01*
X234943D01*
X234650Y170620D01*
Y171034D01*
X234943Y171327D01*
X235607D01*
X235900Y171620D01*
Y172034D01*
X235607Y172327D01*
X234943D01*
X234650Y172620D01*
Y173034D01*
X234943Y173327D01*
X235607D01*
X235900Y173620D01*
Y174034D01*
X235607Y174327D01*
X234943D01*
X234650Y174620D01*
Y175034D01*
X234943Y175327D01*
X235607D01*
X235900Y175620D01*
Y176034D01*
X235607Y176327D01*
X234943D01*
X234650Y176620D01*
Y177034D01*
X234943Y177327D01*
X235607D01*
X235900Y177620D01*
Y178034D01*
X235607Y178327D01*
X234943D01*
X234650Y178620D01*
Y179034D01*
X234943Y179327D01*
X235607D01*
X235900Y179620D01*
Y180034D01*
X235607Y180327D01*
X234943D01*
X234650Y180620D01*
Y181034D01*
X234943Y181327D01*
X235607D01*
X235900Y181620D01*
Y182034D01*
X235607Y182327D01*
X234943D01*
X234650Y182620D01*
Y183034D01*
X234943Y183327D01*
X235607D01*
X235900Y183620D01*
Y184034D01*
X235607Y184327D01*
X234943D01*
X234650Y184620D01*
Y185034D01*
X234943Y185327D01*
X235607D01*
X235900Y185620D01*
Y186034D01*
X235607Y186327D01*
X234943D01*
X234650Y186620D01*
Y187034D01*
X234943Y187327D01*
X235607D01*
X235900Y187620D01*
Y188034D01*
X235607Y188327D01*
X234943D01*
X234650Y188620D01*
Y189034D01*
X234943Y189327D01*
X235607D01*
X235900Y189620D01*
Y190034D01*
X235607Y190327D01*
X234943D01*
X234650Y190620D01*
Y191034D01*
X234943Y191327D01*
X235607D01*
X235900Y191620D01*
Y192034D01*
X235607Y192327D01*
X234943D01*
X234650Y192620D01*
Y193034D01*
X234943Y193327D01*
X235607D01*
X235900Y193620D01*
Y194034D01*
X235607Y194327D01*
X234943D01*
X234650Y194620D01*
Y195034D01*
X234943Y195327D01*
X235607D01*
X235900Y195620D01*
Y196034D01*
X235607Y196327D01*
X234943D01*
X234650Y196620D01*
Y197034D01*
X234943Y197327D01*
X235607D01*
X235900Y197620D01*
Y198034D01*
X235607Y198327D01*
X234943D01*
X234650Y198620D01*
Y199034D01*
X234943Y199327D01*
X235607D01*
X235900Y199620D01*
Y200034D01*
X235607Y200327D01*
X234943D01*
X234650Y200620D01*
Y201034D01*
X234943Y201327D01*
X235607D01*
X235900Y201620D01*
Y202034D01*
X235607Y202327D01*
X234943D01*
X234650Y202620D01*
Y203034D01*
X234943Y203327D01*
X235607D01*
X235900Y203620D01*
Y204034D01*
X235607Y204327D01*
X234943D01*
X234650Y204620D01*
Y205034D01*
X234943Y205327D01*
X235607D01*
X235900Y205620D01*
Y206034D01*
X235607Y206327D01*
X234943D01*
X234650Y206620D01*
Y207034D01*
X234943Y207327D01*
X235607D01*
X235900Y207620D01*
Y208034D01*
X235607Y208327D01*
X234943D01*
X234650Y208620D01*
Y209034D01*
X234943Y209327D01*
X235607D01*
X235900Y209620D01*
Y210034D01*
X235607Y210327D01*
X234943D01*
X234650Y210620D01*
Y211034D01*
X234943Y211327D01*
X235607D01*
X235900Y211620D01*
Y212034D01*
X235607Y212327D01*
X234943D01*
X234650Y212620D01*
Y213034D01*
X234943Y213327D01*
X235607D01*
X235900Y213620D01*
Y214034D01*
X235607Y214327D01*
X234943D01*
X234650Y214620D01*
Y215034D01*
X234943Y215327D01*
X235607D01*
X235900Y215620D01*
Y216034D01*
X235607Y216327D01*
X234943D01*
X234650Y216620D01*
Y217620D01*
X234943Y217913D01*
X238307D01*
X238600Y218206D01*
Y218620D01*
X238307Y218913D01*
X234943D01*
X234650Y219206D01*
Y219620D01*
X234943Y219913D01*
X238307D01*
X238600Y220206D01*
Y220620D01*
X238307Y220913D01*
X234943D01*
X234650Y221206D01*
Y221620D01*
X234943Y221913D01*
X238307D01*
X238600Y222206D01*
Y222620D01*
X238307Y222913D01*
X234943D01*
X234650Y223206D01*
Y223620D01*
X234943Y223913D01*
X238307D01*
X238600Y224206D01*
Y224620D01*
X238307Y224913D01*
X234943D01*
X234650Y225206D01*
Y227750D01*
X237450Y230550D01*
Y234550D01*
G01X176694Y77855D02*
X177545D01*
X181450Y73950D01*
X188350D01*
X190050Y75650D01*
X235800D01*
X238207Y78057D01*
Y78471D01*
X237783Y78895D01*
Y79309D01*
X238077Y79603D01*
X238491D01*
X238915Y79179D01*
X239329D01*
X239623Y79473D01*
Y79887D01*
X239199Y80311D01*
Y80725D01*
X239493Y81019D01*
X239907D01*
X240331Y80595D01*
X240745D01*
X241039Y80889D01*
Y81303D01*
X240615Y81727D01*
Y82141D01*
X240909Y82435D01*
X241323D01*
X241747Y82011D01*
X242161D01*
X242455Y82305D01*
Y82719D01*
X242031Y83143D01*
Y83557D01*
X242325Y83851D01*
X242739D01*
X243163Y83427D01*
X243577D01*
X243871Y83721D01*
Y84135D01*
X243447Y84559D01*
Y84973D01*
X243741Y85267D01*
X244155D01*
X244579Y84843D01*
X244993D01*
X245287Y85137D01*
Y85551D01*
X244863Y85975D01*
Y86389D01*
X245157Y86683D01*
X245571D01*
X245995Y86259D01*
X246409D01*
X246703Y86553D01*
Y86967D01*
X246279Y87391D01*
Y87805D01*
X246573Y88099D01*
X246987D01*
X247411Y87675D01*
X247825D01*
X248119Y87969D01*
Y88383D01*
X247695Y88807D01*
Y89221D01*
X247989Y89515D01*
X248403D01*
X248827Y89091D01*
X249241D01*
X249535Y89385D01*
Y89799D01*
X249111Y90223D01*
Y90637D01*
X249405Y90931D01*
X249819D01*
X250243Y90507D01*
X250657D01*
X250951Y90801D01*
Y91215D01*
X250527Y91639D01*
Y92053D01*
X250821Y92347D01*
X251235D01*
X251659Y91923D01*
X252073D01*
X252367Y92217D01*
Y92631D01*
X251943Y93055D01*
Y93469D01*
X252237Y93763D01*
X252651D01*
X253075Y93339D01*
X253489D01*
X253783Y93633D01*
Y94047D01*
X253359Y94471D01*
Y94885D01*
X253653Y95179D01*
X254067D01*
X254491Y94755D01*
X254905D01*
X255199Y95049D01*
Y95463D01*
X254775Y95887D01*
Y96301D01*
X255069Y96595D01*
X255483D01*
X255907Y96171D01*
X256321D01*
X256615Y96465D01*
Y96879D01*
X256191Y97303D01*
Y97717D01*
X256485Y98011D01*
X256899D01*
X257323Y97587D01*
X257737D01*
X258031Y97881D01*
Y98295D01*
X257607Y98719D01*
Y99133D01*
X257901Y99427D01*
X258315D01*
X258739Y99003D01*
X259153D01*
X259447Y99297D01*
Y99711D01*
X259023Y100135D01*
Y100549D01*
X259317Y100843D01*
X259731D01*
X260155Y100419D01*
X260569D01*
X260863Y100713D01*
Y101127D01*
X260439Y101551D01*
Y101965D01*
X260733Y102259D01*
X261147D01*
X261571Y101835D01*
X261985D01*
X262279Y102129D01*
Y102543D01*
X261855Y102967D01*
Y103381D01*
X262149Y103675D01*
X262563D01*
X262987Y103251D01*
X263401D01*
X264250Y104100D01*
Y183192D01*
X263957Y183485D01*
X262493D01*
X262200Y183778D01*
Y184192D01*
X262493Y184485D01*
X263957D01*
X264250Y184778D01*
Y185192D01*
X263957Y185485D01*
X262493D01*
X262200Y185778D01*
Y186192D01*
X262493Y186485D01*
X263957D01*
X264250Y186778D01*
Y187192D01*
X263957Y187485D01*
X262493D01*
X262200Y187778D01*
Y188192D01*
X262493Y188485D01*
X263957D01*
X264250Y188778D01*
Y189192D01*
X263957Y189485D01*
X262493D01*
X262200Y189778D01*
Y190192D01*
X262493Y190485D01*
X263957D01*
X264250Y190778D01*
Y191192D01*
X263957Y191485D01*
X262493D01*
X262200Y191778D01*
Y192192D01*
X262493Y192485D01*
X263957D01*
X264250Y192778D01*
Y193192D01*
X263957Y193485D01*
X262493D01*
X262200Y193778D01*
Y194192D01*
X262493Y194485D01*
X263957D01*
X264250Y194778D01*
Y195192D01*
X263957Y195485D01*
X262493D01*
X262200Y195778D01*
Y196192D01*
X262493Y196485D01*
X263957D01*
X264250Y196778D01*
Y197192D01*
X263957Y197485D01*
X262493D01*
X262200Y197778D01*
Y198192D01*
X262493Y198485D01*
X263957D01*
X264250Y198778D01*
Y199192D01*
X263957Y199485D01*
X262493D01*
X262200Y199778D01*
Y200192D01*
X262493Y200485D01*
X263957D01*
X264250Y200778D01*
Y201192D01*
X263957Y201485D01*
X262493D01*
X262200Y201778D01*
Y202192D01*
X262493Y202485D01*
X263957D01*
X264250Y202778D01*
Y211350D01*
X262100Y213500D01*
Y214500D01*
X262393Y214793D01*
X263857D01*
X264150Y215086D01*
Y215500D01*
X263857Y215793D01*
X262393D01*
X262100Y216086D01*
Y216500D01*
X262393Y216793D01*
X263857D01*
X264150Y217086D01*
Y217500D01*
X263857Y217793D01*
X262393D01*
X262100Y218086D01*
Y220600D01*
G01X243750Y224600D02*
X244988Y223362D01*
X247562D01*
X248450Y224250D01*
X251550D01*
X252950Y222850D01*
Y154028D01*
X252657Y153735D01*
X251593D01*
X251300Y153442D01*
Y153028D01*
X251593Y152735D01*
X252657D01*
X252950Y152442D01*
Y151442D01*
X252657Y151149D01*
X251043D01*
X250750Y150856D01*
Y150442D01*
X251043Y150149D01*
X252657D01*
X252950Y149856D01*
Y149442D01*
X252657Y149149D01*
X251043D01*
X250750Y148856D01*
Y148442D01*
X251043Y148149D01*
X252657D01*
X252950Y147856D01*
Y147442D01*
X252657Y147149D01*
X251043D01*
X250750Y146856D01*
Y146442D01*
X251043Y146149D01*
X252657D01*
X252950Y145856D01*
Y145442D01*
X252657Y145149D01*
X251043D01*
X250750Y144856D01*
Y144442D01*
X251043Y144149D01*
X252657D01*
X252950Y143856D01*
Y143442D01*
X252657Y143149D01*
X251043D01*
X250750Y142856D01*
Y142442D01*
X251043Y142149D01*
X252657D01*
X252950Y141856D01*
Y141442D01*
X252657Y141149D01*
X251043D01*
X250750Y140856D01*
Y140442D01*
X251043Y140149D01*
X252657D01*
X252950Y139856D01*
Y139442D01*
X252657Y139149D01*
X251043D01*
X250750Y138856D01*
Y138442D01*
X251043Y138149D01*
X252657D01*
X252950Y137856D01*
Y137442D01*
X252657Y137149D01*
X251043D01*
X250750Y136856D01*
Y136442D01*
X251043Y136149D01*
X252657D01*
X252950Y135856D01*
Y134856D01*
X252657Y134563D01*
X250693D01*
X250400Y134270D01*
Y133856D01*
X250693Y133563D01*
X252657D01*
X252950Y133270D01*
Y132856D01*
X252657Y132563D01*
X250693D01*
X250400Y132270D01*
Y131856D01*
X250693Y131563D01*
X252657D01*
X252950Y131270D01*
Y130856D01*
X252657Y130563D01*
X250693D01*
X250400Y130270D01*
Y129856D01*
X250693Y129563D01*
X252657D01*
X252950Y129270D01*
Y128856D01*
X252657Y128563D01*
X250693D01*
X250400Y128270D01*
Y127856D01*
X250693Y127563D01*
X252657D01*
X252950Y127270D01*
Y126856D01*
X252657Y126563D01*
X250693D01*
X250400Y126270D01*
Y125856D01*
X250693Y125563D01*
X252657D01*
X252950Y125270D01*
Y124856D01*
X252657Y124563D01*
X250693D01*
X250400Y124270D01*
Y123856D01*
X250693Y123563D01*
X252657D01*
X252950Y123270D01*
Y122856D01*
X252657Y122563D01*
X250693D01*
X250400Y122270D01*
Y121856D01*
X250693Y121563D01*
X252657D01*
X252950Y121270D01*
Y120856D01*
X252657Y120563D01*
X250693D01*
X250400Y120270D01*
Y119856D01*
X250693Y119563D01*
X252657D01*
X252950Y119270D01*
Y118856D01*
X252657Y118563D01*
X250693D01*
X250400Y118270D01*
Y117856D01*
X250693Y117563D01*
X252657D01*
X252950Y117270D01*
Y116856D01*
X252657Y116563D01*
X250693D01*
X250400Y116270D01*
Y115856D01*
X250693Y115563D01*
X252657D01*
X252950Y115270D01*
Y114856D01*
X252657Y114563D01*
X250693D01*
X250400Y114270D01*
Y113856D01*
X250693Y113563D01*
X252657D01*
X252950Y113270D01*
Y112856D01*
X252657Y112563D01*
X250693D01*
X250400Y112270D01*
Y111856D01*
X250693Y111563D01*
X252657D01*
X252950Y111270D01*
Y109900D01*
X226800Y83750D01*
X185050D01*
X183092Y81792D01*
X176694D01*
G01X215950Y233850D02*
Y199500D01*
X217550Y197900D01*
Y179750D01*
X200700Y162900D01*
Y151150D01*
X192900Y143350D01*
Y139350D01*
X184900Y131350D01*
X182450D01*
X178650Y127550D01*
Y99450D01*
X176750Y97550D01*
G01X212100Y232850D02*
Y183900D01*
X190925Y162725D01*
Y149875D01*
X172850Y131800D01*
Y125800D01*
X170700Y123650D01*
Y99650D01*
X172800Y97550D01*
G01X172757Y109351D02*
X177300Y113894D01*
Y127900D01*
X181712Y132312D01*
X182162D01*
X183400Y133550D01*
G01X157010Y113288D02*
Y122010D01*
X165100Y130100D01*
Y134200D01*
X170850Y139950D01*
Y144000D01*
G01X214800Y196075D02*
Y183350D01*
X197950Y166500D01*
Y152150D01*
X190350Y144550D01*
Y141250D01*
X185300Y136200D01*
X181600D01*
X175650Y130250D01*
Y116181D01*
X172757Y113288D01*
G01X157600Y214850D02*
Y227500D01*
X161400Y231300D01*
Y238600D01*
X159500Y240500D01*
G01X222350Y237700D02*
X215900Y244150D01*
X163150D01*
X159500Y240500D01*
G01X242150Y219900D02*
X244250Y217800D01*
Y213000D01*
X243050Y211800D01*
Y206728D01*
X243343Y206435D01*
X244407D01*
X244700Y206142D01*
Y205728D01*
X244407Y205435D01*
X243343D01*
X243050Y205142D01*
Y204728D01*
X243343Y204435D01*
X244407D01*
X244700Y204142D01*
Y203728D01*
X244407Y203435D01*
X243343D01*
X243050Y203142D01*
Y202728D01*
X243343Y202435D01*
X244407D01*
X244700Y202142D01*
Y201728D01*
X244407Y201435D01*
X243343D01*
X243050Y201142D01*
Y200728D01*
X243343Y200435D01*
X244407D01*
X244700Y200142D01*
Y199728D01*
X244407Y199435D01*
X243343D01*
X243050Y199142D01*
Y198728D01*
X243343Y198435D01*
X244407D01*
X244700Y198142D01*
Y197728D01*
X244407Y197435D01*
X243343D01*
X243050Y197142D01*
Y196728D01*
X243343Y196435D01*
X244407D01*
X244700Y196142D01*
Y195728D01*
X244407Y195435D01*
X243343D01*
X243050Y195142D01*
Y194728D01*
X243343Y194435D01*
X244407D01*
X244700Y194142D01*
Y193728D01*
X244407Y193435D01*
X243343D01*
X243050Y193142D01*
Y192728D01*
X243343Y192435D01*
X244407D01*
X244700Y192142D01*
Y191728D01*
X244407Y191435D01*
X243343D01*
X243050Y191142D01*
Y190728D01*
X243343Y190435D01*
X244407D01*
X244700Y190142D01*
Y189728D01*
X244407Y189435D01*
X243343D01*
X243050Y189142D01*
Y188728D01*
X243343Y188435D01*
X244407D01*
X244700Y188142D01*
Y187728D01*
X244407Y187435D01*
X243343D01*
X243050Y187142D01*
Y172083D01*
X242757Y171790D01*
X241993D01*
X241700Y171497D01*
Y171083D01*
X241993Y170790D01*
X242757D01*
X243050Y170497D01*
Y169497D01*
X242757Y169204D01*
X241693D01*
X241400Y168911D01*
Y168497D01*
X241693Y168204D01*
X242757D01*
X243050Y167911D01*
Y167497D01*
X242757Y167204D01*
X241693D01*
X241400Y166911D01*
Y166497D01*
X241693Y166204D01*
X242757D01*
X243050Y165911D01*
Y165497D01*
X242757Y165204D01*
X241693D01*
X241400Y164911D01*
Y164497D01*
X241693Y164204D01*
X242757D01*
X243050Y163911D01*
Y163497D01*
X242757Y163204D01*
X241693D01*
X241400Y162911D01*
Y162497D01*
X241693Y162204D01*
X242757D01*
X243050Y161911D01*
Y161497D01*
X242757Y161204D01*
X241693D01*
X241400Y160911D01*
Y160497D01*
X241693Y160204D01*
X242757D01*
X243050Y159911D01*
Y159497D01*
X242757Y159204D01*
X241693D01*
X241400Y158911D01*
Y158497D01*
X241693Y158204D01*
X242757D01*
X243050Y157911D01*
Y157497D01*
X242757Y157204D01*
X241693D01*
X241400Y156911D01*
Y156497D01*
X241693Y156204D01*
X242757D01*
X243050Y155911D01*
Y155497D01*
X242757Y155204D01*
X241693D01*
X241400Y154911D01*
Y154497D01*
X241693Y154204D01*
X242757D01*
X243050Y153911D01*
Y153497D01*
X242757Y153204D01*
X241693D01*
X241400Y152911D01*
Y152497D01*
X241693Y152204D01*
X242757D01*
X243050Y151911D01*
Y151497D01*
X242757Y151204D01*
X241693D01*
X241400Y150911D01*
Y150497D01*
X241693Y150204D01*
X242757D01*
X243050Y149911D01*
Y149497D01*
X242757Y149204D01*
X241693D01*
X241400Y148911D01*
Y148497D01*
X241693Y148204D01*
X242757D01*
X243050Y147911D01*
Y147497D01*
X242757Y147204D01*
X241693D01*
X241400Y146911D01*
Y146497D01*
X241693Y146204D01*
X242757D01*
X243050Y145911D01*
Y145497D01*
X242757Y145204D01*
X241693D01*
X241400Y144911D01*
Y144497D01*
X241693Y144204D01*
X242757D01*
X243050Y143911D01*
Y143497D01*
X242757Y143204D01*
X241693D01*
X241400Y142911D01*
Y142497D01*
X241693Y142204D01*
X242757D01*
X243050Y141911D01*
Y141497D01*
X242757Y141204D01*
X241693D01*
X241400Y140911D01*
Y140497D01*
X241693Y140204D01*
X242757D01*
X243050Y139911D01*
Y139497D01*
X242757Y139204D01*
X241693D01*
X241400Y138911D01*
Y138497D01*
X241693Y138204D01*
X242757D01*
X243050Y137911D01*
Y137497D01*
X242757Y137204D01*
X241693D01*
X241400Y136911D01*
Y136497D01*
X241693Y136204D01*
X242757D01*
X243050Y135911D01*
Y135497D01*
X242757Y135204D01*
X241693D01*
X241400Y134911D01*
Y134497D01*
X241693Y134204D01*
X242757D01*
X243050Y133911D01*
Y133497D01*
X242757Y133204D01*
X241693D01*
X241400Y132911D01*
Y132497D01*
X241693Y132204D01*
X242757D01*
X243050Y131911D01*
Y131497D01*
X242757Y131204D01*
X241693D01*
X241400Y130911D01*
Y130497D01*
X241693Y130204D01*
X242757D01*
X243050Y129911D01*
Y129497D01*
X242757Y129204D01*
X241693D01*
X241400Y128911D01*
Y128497D01*
X241693Y128204D01*
X242757D01*
X243050Y127911D01*
Y127497D01*
X242757Y127204D01*
X241693D01*
X241400Y126911D01*
Y126497D01*
X241693Y126204D01*
X242757D01*
X243050Y125911D01*
Y125497D01*
X242757Y125204D01*
X241693D01*
X241400Y124911D01*
Y124497D01*
X241693Y124204D01*
X242757D01*
X243050Y123911D01*
Y123497D01*
X242757Y123204D01*
X241693D01*
X241400Y122911D01*
Y122497D01*
X241693Y122204D01*
X242757D01*
X243050Y121911D01*
Y121497D01*
X242757Y121204D01*
X241693D01*
X241400Y120911D01*
Y120497D01*
X241693Y120204D01*
X242757D01*
X243050Y119911D01*
Y119497D01*
X242757Y119204D01*
X241693D01*
X241400Y118911D01*
Y118497D01*
X241693Y118204D01*
X242757D01*
X243050Y117911D01*
Y117497D01*
X242757Y117204D01*
X241693D01*
X241400Y116911D01*
Y116497D01*
X241693Y116204D01*
X242757D01*
X243050Y115911D01*
Y115497D01*
X242757Y115204D01*
X241693D01*
X241400Y114911D01*
Y114497D01*
X241693Y114204D01*
X242757D01*
X243050Y113911D01*
Y113497D01*
X242757Y113204D01*
X241693D01*
X241400Y112911D01*
Y112497D01*
X241693Y112204D01*
X242757D01*
X243050Y111911D01*
Y109550D01*
X223166Y89666D01*
X194366D01*
X194350Y89650D01*
X192600D01*
G01X249200Y221800D02*
X246650Y219250D01*
Y186859D01*
X246357Y186566D01*
X245743D01*
X245450Y186273D01*
Y185859D01*
X245743Y185566D01*
X246357D01*
X246650Y185273D01*
Y184273D01*
X246357Y183980D01*
X245343D01*
X245050Y183687D01*
Y183273D01*
X245343Y182980D01*
X246357D01*
X246650Y182687D01*
Y181687D01*
X246357Y181394D01*
X245343D01*
X245050Y181101D01*
Y180687D01*
X245343Y180394D01*
X246357D01*
X246650Y180101D01*
Y179687D01*
X246357Y179394D01*
X245343D01*
X245050Y179101D01*
Y178687D01*
X245343Y178394D01*
X246357D01*
X246650Y178101D01*
Y177687D01*
X246357Y177394D01*
X245343D01*
X245050Y177101D01*
Y176687D01*
X245343Y176394D01*
X246357D01*
X246650Y176101D01*
Y175687D01*
X246357Y175394D01*
X245343D01*
X245050Y175101D01*
Y174687D01*
X245343Y174394D01*
X246357D01*
X246650Y174101D01*
Y173687D01*
X246357Y173394D01*
X245343D01*
X245050Y173101D01*
Y172687D01*
X245343Y172394D01*
X246357D01*
X246650Y172101D01*
Y171687D01*
X246357Y171394D01*
X245343D01*
X245050Y171101D01*
Y170687D01*
X245343Y170394D01*
X246357D01*
X246650Y170101D01*
Y169687D01*
X246357Y169394D01*
X245343D01*
X245050Y169101D01*
Y168687D01*
X245343Y168394D01*
X246357D01*
X246650Y168101D01*
Y167687D01*
X246357Y167394D01*
X245343D01*
X245050Y167101D01*
Y166687D01*
X245343Y166394D01*
X246357D01*
X246650Y166101D01*
Y165687D01*
X246357Y165394D01*
X245343D01*
X245050Y165101D01*
Y164687D01*
X245343Y164394D01*
X246357D01*
X246650Y164101D01*
Y163687D01*
X246357Y163394D01*
X245343D01*
X245050Y163101D01*
Y162687D01*
X245343Y162394D01*
X246357D01*
X246650Y162101D01*
Y161687D01*
X246357Y161394D01*
X245343D01*
X245050Y161101D01*
Y160687D01*
X245343Y160394D01*
X246357D01*
X246650Y160101D01*
Y159687D01*
X246357Y159394D01*
X245343D01*
X245050Y159101D01*
Y158687D01*
X245343Y158394D01*
X246357D01*
X246650Y158101D01*
Y157687D01*
X246357Y157394D01*
X245343D01*
X245050Y157101D01*
Y156687D01*
X245343Y156394D01*
X246357D01*
X246650Y156101D01*
Y155101D01*
X246357Y154808D01*
X245143D01*
X244850Y154515D01*
Y154101D01*
X245143Y153808D01*
X246357D01*
X246650Y153515D01*
Y153101D01*
X246357Y152808D01*
X245143D01*
X244850Y152515D01*
Y152101D01*
X245143Y151808D01*
X246357D01*
X246650Y151515D01*
Y151101D01*
X246357Y150808D01*
X245143D01*
X244850Y150515D01*
Y150101D01*
X245143Y149808D01*
X246357D01*
X246650Y149515D01*
Y149101D01*
X246357Y148808D01*
X245143D01*
X244850Y148515D01*
Y148101D01*
X245143Y147808D01*
X246357D01*
X246650Y147515D01*
Y147101D01*
X246357Y146808D01*
X245143D01*
X244850Y146515D01*
Y146101D01*
X245143Y145808D01*
X246357D01*
X246650Y145515D01*
Y145101D01*
X246357Y144808D01*
X245143D01*
X244850Y144515D01*
Y144101D01*
X245143Y143808D01*
X246357D01*
X246650Y143515D01*
Y143101D01*
X246357Y142808D01*
X245143D01*
X244850Y142515D01*
Y142101D01*
X245143Y141808D01*
X246357D01*
X246650Y141515D01*
Y141101D01*
X246357Y140808D01*
X245143D01*
X244850Y140515D01*
Y140101D01*
X245143Y139808D01*
X246357D01*
X246650Y139515D01*
Y139101D01*
X246357Y138808D01*
X245143D01*
X244850Y138515D01*
Y138101D01*
X245143Y137808D01*
X246357D01*
X246650Y137515D01*
Y137101D01*
X246357Y136808D01*
X245143D01*
X244850Y136515D01*
Y136101D01*
X245143Y135808D01*
X246357D01*
X246650Y135515D01*
Y135101D01*
X246357Y134808D01*
X245143D01*
X244850Y134515D01*
Y134101D01*
X245143Y133808D01*
X246357D01*
X246650Y133515D01*
Y133101D01*
X246357Y132808D01*
X245143D01*
X244850Y132515D01*
Y132101D01*
X245143Y131808D01*
X246357D01*
X246650Y131515D01*
Y131101D01*
X246357Y130808D01*
X245143D01*
X244850Y130515D01*
Y130101D01*
X245143Y129808D01*
X246357D01*
X246650Y129515D01*
Y129101D01*
X246357Y128808D01*
X245143D01*
X244850Y128515D01*
Y128101D01*
X245143Y127808D01*
X246357D01*
X246650Y127515D01*
Y127101D01*
X246357Y126808D01*
X245143D01*
X244850Y126515D01*
Y126101D01*
X245143Y125808D01*
X246357D01*
X246650Y125515D01*
Y125101D01*
X246357Y124808D01*
X245143D01*
X244850Y124515D01*
Y124101D01*
X245143Y123808D01*
X246357D01*
X246650Y123515D01*
Y123101D01*
X246357Y122808D01*
X245143D01*
X244850Y122515D01*
Y122101D01*
X245143Y121808D01*
X246357D01*
X246650Y121515D01*
Y121101D01*
X246357Y120808D01*
X245143D01*
X244850Y120515D01*
Y120101D01*
X245143Y119808D01*
X246357D01*
X246650Y119515D01*
Y119101D01*
X246357Y118808D01*
X245143D01*
X244850Y118515D01*
Y118101D01*
X245143Y117808D01*
X246357D01*
X246650Y117515D01*
Y117101D01*
X246357Y116808D01*
X245143D01*
X244850Y116515D01*
Y116101D01*
X245143Y115808D01*
X246357D01*
X246650Y115515D01*
Y115101D01*
X246357Y114808D01*
X245143D01*
X244850Y114515D01*
Y114101D01*
X245143Y113808D01*
X246357D01*
X246650Y113515D01*
Y113101D01*
X246357Y112808D01*
X245143D01*
X244850Y112515D01*
Y112101D01*
X245143Y111808D01*
X246357D01*
X246650Y111515D01*
Y111101D01*
X246357Y110808D01*
X245143D01*
X244850Y110515D01*
Y110101D01*
X245143Y109808D01*
X246357D01*
X246650Y109515D01*
Y109101D01*
X246357Y108808D01*
X245143D01*
X244850Y108515D01*
Y106300D01*
X226200Y87650D01*
X188400D01*
X186550Y85800D01*
G01X192450Y79750D02*
X230250D01*
X248475Y97975D01*
X251875D01*
X255875Y101975D01*
X255975D01*
X260550Y106550D01*
Y108354D01*
X260257Y108647D01*
X257843D01*
X257550Y108940D01*
Y109354D01*
X257843Y109647D01*
X260257D01*
X260550Y109940D01*
Y110354D01*
X260257Y110647D01*
X257843D01*
X257550Y110940D01*
Y111354D01*
X257843Y111647D01*
X260257D01*
X260550Y111940D01*
Y112354D01*
X260257Y112647D01*
X257843D01*
X257550Y112940D01*
Y113354D01*
X257843Y113647D01*
X260257D01*
X260550Y113940D01*
Y114354D01*
X260257Y114647D01*
X257843D01*
X257550Y114940D01*
Y115354D01*
X257843Y115647D01*
X260257D01*
X260550Y115940D01*
Y116354D01*
X260257Y116647D01*
X257843D01*
X257550Y116940D01*
Y117354D01*
X257843Y117647D01*
X260257D01*
X260550Y117940D01*
Y118354D01*
X260257Y118647D01*
X257843D01*
X257550Y118940D01*
Y119354D01*
X257843Y119647D01*
X260257D01*
X260550Y119940D01*
Y120354D01*
X260257Y120647D01*
X257843D01*
X257550Y120940D01*
Y121354D01*
X257843Y121647D01*
X260257D01*
X260550Y121940D01*
Y122354D01*
X260257Y122647D01*
X257843D01*
X257550Y122940D01*
Y123354D01*
X257843Y123647D01*
X260257D01*
X260600Y123990D01*
Y126649D01*
X260307Y126942D01*
X259443D01*
X259150Y127235D01*
Y127649D01*
X259443Y127942D01*
X260307D01*
X260600Y128235D01*
Y128649D01*
X260307Y128942D01*
X259443D01*
X259150Y129235D01*
Y129649D01*
X259443Y129942D01*
X260307D01*
X260600Y130235D01*
Y130649D01*
X260307Y130942D01*
X259443D01*
X259150Y131235D01*
Y131649D01*
X259443Y131942D01*
X260307D01*
X260600Y132235D01*
Y132649D01*
X260307Y132942D01*
X259443D01*
X259150Y133235D01*
Y133649D01*
X259443Y133942D01*
X260307D01*
X260600Y134235D01*
Y134649D01*
X260307Y134942D01*
X259443D01*
X259150Y135235D01*
Y135649D01*
X259443Y135942D01*
X260307D01*
X260600Y136235D01*
Y136649D01*
X260307Y136942D01*
X259443D01*
X259150Y137235D01*
Y137649D01*
X259443Y137942D01*
X260307D01*
X260600Y138235D01*
Y138649D01*
X260307Y138942D01*
X259443D01*
X259150Y139235D01*
Y139649D01*
X259443Y139942D01*
X260307D01*
X260600Y140235D01*
Y140649D01*
X260307Y140942D01*
X259443D01*
X259150Y141235D01*
Y141649D01*
X259443Y141942D01*
X260307D01*
X260600Y142235D01*
Y142649D01*
X260307Y142942D01*
X259443D01*
X259150Y143235D01*
Y143649D01*
X259443Y143942D01*
X260307D01*
X260600Y144235D01*
Y144649D01*
X260307Y144942D01*
X259443D01*
X259150Y145235D01*
Y145649D01*
X259443Y145942D01*
X260307D01*
X260600Y146235D01*
Y146649D01*
X260307Y146942D01*
X259443D01*
X259150Y147235D01*
Y147649D01*
X259443Y147942D01*
X260307D01*
X260600Y148235D01*
Y148649D01*
X260307Y148942D01*
X259443D01*
X259150Y149235D01*
Y149649D01*
X259443Y149942D01*
X260307D01*
X260600Y150235D01*
Y150649D01*
X260307Y150942D01*
X259443D01*
X259150Y151235D01*
Y151649D01*
X259443Y151942D01*
X260307D01*
X260600Y152235D01*
Y152649D01*
X260307Y152942D01*
X259443D01*
X259150Y153235D01*
Y153649D01*
X259443Y153942D01*
X260307D01*
X260600Y154235D01*
Y175600D01*
X258900Y177300D01*
Y202000D01*
X257350Y203550D01*
Y224750D01*
X253250Y228850D01*
X247000D01*
X245900Y227750D01*
X244150D01*
G01X257750Y228650D02*
X258988Y227412D01*
Y224819D01*
X259281Y224526D01*
X259957D01*
X260250Y224233D01*
Y223819D01*
X259957Y223526D01*
X259281D01*
X258988Y223233D01*
Y222233D01*
X259281Y221940D01*
X260057D01*
X260350Y221647D01*
Y221233D01*
X260057Y220940D01*
X259281D01*
X258988Y220647D01*
Y220233D01*
X259281Y219940D01*
X260057D01*
X260350Y219647D01*
Y219233D01*
X260057Y218940D01*
X259281D01*
X258988Y218647D01*
Y218233D01*
X259281Y217940D01*
X260057D01*
X260350Y217647D01*
Y217233D01*
X260057Y216940D01*
X259281D01*
X258988Y216647D01*
Y216233D01*
X259281Y215940D01*
X260057D01*
X260350Y215647D01*
Y215233D01*
X260057Y214940D01*
X259281D01*
X258988Y214647D01*
Y214233D01*
X259281Y213940D01*
X260057D01*
X260350Y213647D01*
Y213233D01*
X260057Y212940D01*
X259281D01*
X258988Y212647D01*
Y204912D01*
X260700Y203200D01*
Y179900D01*
X262750Y177850D01*
Y106400D01*
X251024Y94674D01*
X250610D01*
X249226Y96058D01*
X248812D01*
X248518Y95764D01*
Y95350D01*
X249902Y93966D01*
Y93552D01*
X249608Y93258D01*
X249194D01*
X247810Y94642D01*
X247396D01*
X247102Y94348D01*
Y93934D01*
X248486Y92550D01*
Y92136D01*
X248192Y91842D01*
X247778D01*
X246394Y93226D01*
X245980D01*
X245686Y92932D01*
Y92518D01*
X247070Y91134D01*
Y90720D01*
X246776Y90426D01*
X246362D01*
X244978Y91810D01*
X244564D01*
X244270Y91516D01*
Y91102D01*
X245654Y89718D01*
Y89304D01*
X245360Y89010D01*
X244946D01*
X243562Y90394D01*
X243148D01*
X242854Y90100D01*
Y89686D01*
X244238Y88302D01*
Y87888D01*
X243944Y87594D01*
X243530D01*
X242146Y88978D01*
X241732D01*
X241438Y88684D01*
Y88270D01*
X242822Y86886D01*
Y86472D01*
X242528Y86178D01*
X242114D01*
X240730Y87562D01*
X240316D01*
X240022Y87268D01*
Y86854D01*
X241406Y85470D01*
Y85056D01*
X241112Y84762D01*
X240698D01*
X239314Y86146D01*
X238900D01*
X238606Y85852D01*
Y85438D01*
X239990Y84054D01*
Y83640D01*
X239696Y83346D01*
X239282D01*
X237898Y84730D01*
X237484D01*
X237190Y84436D01*
Y84022D01*
X238574Y82638D01*
Y82224D01*
X238280Y81930D01*
X237866D01*
X236482Y83314D01*
X236068D01*
X235774Y83020D01*
Y82606D01*
X237158Y81222D01*
Y80808D01*
X236864Y80514D01*
X236450D01*
X235066Y81898D01*
X234652D01*
X234358Y81604D01*
Y81190D01*
X235742Y79806D01*
Y79392D01*
X233650Y77300D01*
X229997D01*
X229704Y77593D01*
Y77957D01*
X229411Y78250D01*
X228997D01*
X228704Y77957D01*
Y77593D01*
X228411Y77300D01*
X227997D01*
X227704Y77593D01*
Y77957D01*
X227411Y78250D01*
X226997D01*
X226704Y77957D01*
Y77593D01*
X226411Y77300D01*
X225997D01*
X225704Y77593D01*
Y77957D01*
X225411Y78250D01*
X224997D01*
X224704Y77957D01*
Y77593D01*
X224411Y77300D01*
X223997D01*
X223704Y77593D01*
Y77957D01*
X223411Y78250D01*
X222997D01*
X222704Y77957D01*
Y77593D01*
X222411Y77300D01*
X221997D01*
X221704Y77593D01*
Y77957D01*
X221411Y78250D01*
X220997D01*
X220704Y77957D01*
Y77593D01*
X220411Y77300D01*
X219997D01*
X219704Y77593D01*
Y77957D01*
X219411Y78250D01*
X218997D01*
X218704Y77957D01*
Y77593D01*
X218411Y77300D01*
X217997D01*
X217704Y77593D01*
Y77957D01*
X217411Y78250D01*
X216997D01*
X216704Y77957D01*
Y77593D01*
X216411Y77300D01*
X215997D01*
X215704Y77593D01*
Y77957D01*
X215411Y78250D01*
X214997D01*
X214704Y77957D01*
Y77593D01*
X214411Y77300D01*
X213997D01*
X213704Y77593D01*
Y77957D01*
X213411Y78250D01*
X212997D01*
X212704Y77957D01*
Y77593D01*
X212411Y77300D01*
X211997D01*
X211704Y77593D01*
Y77957D01*
X211411Y78250D01*
X210997D01*
X210704Y77957D01*
Y77593D01*
X210411Y77300D01*
X209997D01*
X209704Y77593D01*
Y77957D01*
X209411Y78250D01*
X208997D01*
X208704Y77957D01*
Y77593D01*
X208411Y77300D01*
X207997D01*
X207704Y77593D01*
Y77957D01*
X207411Y78250D01*
X206997D01*
X206704Y77957D01*
Y77593D01*
X206411Y77300D01*
X205997D01*
X205704Y77593D01*
Y77957D01*
X205411Y78250D01*
X204997D01*
X204704Y77957D01*
Y77593D01*
X204411Y77300D01*
X203997D01*
X203704Y77593D01*
Y77957D01*
X203411Y78250D01*
X202997D01*
X202704Y77957D01*
Y77593D01*
X202411Y77300D01*
X201997D01*
X201704Y77593D01*
Y77957D01*
X201411Y78250D01*
X200997D01*
X200704Y77957D01*
Y77593D01*
X200411Y77300D01*
X199997D01*
X199704Y77593D01*
Y77957D01*
X199411Y78250D01*
X198997D01*
X198704Y77957D01*
Y77593D01*
X198411Y77300D01*
X197997D01*
X197704Y77593D01*
Y77957D01*
X197411Y78250D01*
X196997D01*
X196704Y77957D01*
Y77593D01*
X196411Y77300D01*
X195997D01*
X195704Y77593D01*
Y77957D01*
X195411Y78250D01*
X194997D01*
X194704Y77957D01*
Y77593D01*
X194411Y77300D01*
X189300D01*
X188400Y76400D01*
X186650D01*
G01X200050Y81792D02*
X227792D01*
X229734Y83734D01*
X230148D01*
X230921Y82961D01*
X231335D01*
X231629Y83255D01*
Y83669D01*
X230856Y84442D01*
Y84856D01*
X231150Y85150D01*
X231564D01*
X232337Y84377D01*
X232751D01*
X233045Y84671D01*
Y85085D01*
X232272Y85858D01*
Y86272D01*
X232566Y86566D01*
X232980D01*
X233753Y85793D01*
X234167D01*
X234461Y86087D01*
Y86501D01*
X233688Y87274D01*
Y87688D01*
X233982Y87982D01*
X234396D01*
X235169Y87209D01*
X235583D01*
X235877Y87503D01*
Y87917D01*
X235104Y88690D01*
Y89104D01*
X235398Y89398D01*
X235812D01*
X236585Y88625D01*
X236999D01*
X237293Y88919D01*
Y89333D01*
X236520Y90106D01*
Y90520D01*
X236814Y90814D01*
X237228D01*
X238001Y90041D01*
X238415D01*
X238709Y90335D01*
Y90749D01*
X237936Y91522D01*
Y91936D01*
X238230Y92230D01*
X238644D01*
X239417Y91457D01*
X239831D01*
X240125Y91751D01*
Y92165D01*
X239352Y92938D01*
Y93352D01*
X239646Y93646D01*
X240060D01*
X240833Y92873D01*
X241247D01*
X241541Y93167D01*
Y93581D01*
X240768Y94354D01*
Y94768D01*
X241062Y95062D01*
X241476D01*
X242249Y94289D01*
X242663D01*
X242957Y94583D01*
Y94997D01*
X242184Y95770D01*
Y96184D01*
X242478Y96478D01*
X242892D01*
X243665Y95705D01*
X244079D01*
X244373Y95999D01*
Y96413D01*
X243600Y97186D01*
Y97600D01*
X243894Y97894D01*
X244308D01*
X245081Y97121D01*
X245495D01*
X245789Y97415D01*
Y97829D01*
X245016Y98602D01*
Y99016D01*
X248900Y102900D01*
X253150D01*
X255600Y105350D01*
Y125586D01*
X255893Y125879D01*
X257007D01*
X257300Y126172D01*
Y126586D01*
X257007Y126879D01*
X255893D01*
X255600Y127172D01*
Y127586D01*
X255893Y127879D01*
X257007D01*
X257300Y128172D01*
Y128586D01*
X257007Y128879D01*
X255893D01*
X255600Y129172D01*
Y129586D01*
X255893Y129879D01*
X257007D01*
X257300Y130172D01*
Y130586D01*
X257007Y130879D01*
X255893D01*
X255600Y131172D01*
Y131586D01*
X255893Y131879D01*
X257007D01*
X257300Y132172D01*
Y132586D01*
X257007Y132879D01*
X255893D01*
X255600Y133172D01*
Y133586D01*
X255893Y133879D01*
X257007D01*
X257300Y134172D01*
Y134586D01*
X257007Y134879D01*
X255893D01*
X255600Y135172D01*
Y136326D01*
X255893Y136619D01*
X257357D01*
X257650Y136912D01*
Y137326D01*
X257357Y137619D01*
X255893D01*
X255600Y137912D01*
Y138326D01*
X255893Y138619D01*
X257357D01*
X257650Y138912D01*
Y139326D01*
X257357Y139619D01*
X255893D01*
X255600Y139912D01*
Y140326D01*
X255893Y140619D01*
X257357D01*
X257650Y140912D01*
Y141326D01*
X257357Y141619D01*
X255893D01*
X255600Y141912D01*
Y142326D01*
X255893Y142619D01*
X257357D01*
X257650Y142912D01*
Y143326D01*
X257357Y143619D01*
X255893D01*
X255600Y143912D01*
Y144326D01*
X255893Y144619D01*
X257357D01*
X257650Y144912D01*
Y145326D01*
X257357Y145619D01*
X255893D01*
X255600Y145912D01*
Y146326D01*
X255893Y146619D01*
X257357D01*
X257650Y146912D01*
Y147326D01*
X257357Y147619D01*
X255893D01*
X255600Y147912D01*
Y148326D01*
X255893Y148619D01*
X257357D01*
X257650Y148912D01*
Y149326D01*
X257357Y149619D01*
X255893D01*
X255600Y149912D01*
Y150326D01*
X255893Y150619D01*
X257357D01*
X257650Y150912D01*
Y151326D01*
X257357Y151619D01*
X255893D01*
X255600Y151912D01*
Y152326D01*
X255893Y152619D01*
X257357D01*
X257650Y152912D01*
Y153326D01*
X257357Y153619D01*
X255893D01*
X255600Y153912D01*
Y154326D01*
X255893Y154619D01*
X257357D01*
X257650Y154912D01*
Y155326D01*
X257357Y155619D01*
X255893D01*
X255450Y156062D01*
Y156300D01*
X259000Y159850D01*
Y168350D01*
X257922Y169428D01*
Y169842D01*
X259183Y171103D01*
Y171517D01*
X258889Y171811D01*
X258475D01*
X257214Y170550D01*
X256800D01*
X256506Y170844D01*
Y171258D01*
X257767Y172519D01*
Y172933D01*
X257473Y173227D01*
X257059D01*
X255798Y171966D01*
X255384D01*
X254500Y172850D01*
Y224300D01*
X252012Y226788D01*
X248188D01*
X246950Y225550D01*
G01X186050Y89750D02*
X194550Y98250D01*
X226000D01*
X239900Y112150D01*
Y143632D01*
X239607Y143925D01*
X239143D01*
X238850Y144218D01*
Y144632D01*
X239143Y144925D01*
X239607D01*
X239900Y145218D01*
Y146218D01*
X239607Y146511D01*
X238493D01*
X238200Y146804D01*
Y147218D01*
X238493Y147511D01*
X239607D01*
X239900Y147804D01*
Y148218D01*
X239607Y148511D01*
X238493D01*
X238200Y148804D01*
Y149218D01*
X238493Y149511D01*
X239607D01*
X239900Y149804D01*
Y150218D01*
X239607Y150511D01*
X238493D01*
X238200Y150804D01*
Y151218D01*
X238493Y151511D01*
X239607D01*
X239900Y151804D01*
Y152218D01*
X239607Y152511D01*
X238493D01*
X238200Y152804D01*
Y153218D01*
X238493Y153511D01*
X239607D01*
X239900Y153804D01*
Y154218D01*
X239607Y154511D01*
X238493D01*
X238200Y154804D01*
Y155218D01*
X238493Y155511D01*
X239607D01*
X239900Y155804D01*
Y156218D01*
X239607Y156511D01*
X238493D01*
X238200Y156804D01*
Y157218D01*
X238493Y157511D01*
X239607D01*
X239900Y157804D01*
Y158218D01*
X239607Y158511D01*
X238493D01*
X238200Y158804D01*
Y159218D01*
X238493Y159511D01*
X239607D01*
X239900Y159804D01*
Y160218D01*
X239607Y160511D01*
X238493D01*
X238200Y160804D01*
Y161218D01*
X238493Y161511D01*
X239607D01*
X239900Y161804D01*
Y162218D01*
X239607Y162511D01*
X238493D01*
X238200Y162804D01*
Y163218D01*
X238493Y163511D01*
X239607D01*
X239900Y163804D01*
Y164218D01*
X239607Y164511D01*
X238493D01*
X238200Y164804D01*
Y165218D01*
X238493Y165511D01*
X239607D01*
X239900Y165804D01*
Y167294D01*
X239607Y167587D01*
X238243D01*
X237950Y167880D01*
Y168294D01*
X238243Y168587D01*
X239607D01*
X239900Y168880D01*
Y169294D01*
X239607Y169587D01*
X238243D01*
X237950Y169880D01*
Y170294D01*
X238243Y170587D01*
X239607D01*
X239900Y170880D01*
Y171294D01*
X239607Y171587D01*
X238243D01*
X237950Y171880D01*
Y172294D01*
X238243Y172587D01*
X239607D01*
X239900Y172880D01*
Y173294D01*
X239607Y173587D01*
X238243D01*
X237950Y173880D01*
Y174294D01*
X238243Y174587D01*
X239607D01*
X239900Y174880D01*
Y175294D01*
X239607Y175587D01*
X238243D01*
X237950Y175880D01*
Y176294D01*
X238243Y176587D01*
X239607D01*
X239900Y176880D01*
Y177294D01*
X239607Y177587D01*
X238243D01*
X237950Y177880D01*
Y178294D01*
X238243Y178587D01*
X239607D01*
X239900Y178880D01*
Y179294D01*
X239607Y179587D01*
X238243D01*
X237950Y179880D01*
Y180294D01*
X238243Y180587D01*
X239607D01*
X239900Y180880D01*
Y181294D01*
X239607Y181587D01*
X238243D01*
X237950Y181880D01*
Y182294D01*
X238243Y182587D01*
X239607D01*
X239900Y182880D01*
Y183294D01*
X239607Y183587D01*
X238243D01*
X237950Y183880D01*
Y184294D01*
X238243Y184587D01*
X239607D01*
X239900Y184880D01*
Y185294D01*
X239607Y185587D01*
X238243D01*
X237950Y185880D01*
Y186294D01*
X238243Y186587D01*
X239607D01*
X239900Y186880D01*
Y187294D01*
X239607Y187587D01*
X238243D01*
X237950Y187880D01*
Y188294D01*
X238243Y188587D01*
X239607D01*
X239900Y188880D01*
Y189294D01*
X239607Y189587D01*
X238243D01*
X237950Y189880D01*
Y190294D01*
X238243Y190587D01*
X239607D01*
X239900Y190880D01*
Y191294D01*
X239607Y191587D01*
X238243D01*
X237950Y191880D01*
Y192294D01*
X238243Y192587D01*
X239607D01*
X239900Y192880D01*
Y193294D01*
X239607Y193587D01*
X238243D01*
X237950Y193880D01*
Y194294D01*
X238243Y194587D01*
X239607D01*
X239900Y194880D01*
Y195294D01*
X239607Y195587D01*
X238243D01*
X237950Y195880D01*
Y196294D01*
X238243Y196587D01*
X239607D01*
X239900Y196880D01*
Y197294D01*
X239607Y197587D01*
X238243D01*
X237950Y197880D01*
Y198294D01*
X238243Y198587D01*
X239607D01*
X239900Y198880D01*
Y199294D01*
X239607Y199587D01*
X238243D01*
X237950Y199880D01*
Y200294D01*
X238243Y200587D01*
X239607D01*
X239900Y200880D01*
Y201294D01*
X239607Y201587D01*
X238243D01*
X237950Y201880D01*
Y202294D01*
X238243Y202587D01*
X239607D01*
X239900Y202880D01*
Y203294D01*
X239607Y203587D01*
X238243D01*
X237950Y203880D01*
Y204294D01*
X238243Y204587D01*
X239607D01*
X239900Y204880D01*
Y205294D01*
X239607Y205587D01*
X238243D01*
X237950Y205880D01*
Y206294D01*
X238243Y206587D01*
X239607D01*
X239900Y206880D01*
Y211250D01*
X242200Y213550D01*
Y217100D01*
G01X189450Y101300D02*
Y112050D01*
X195950Y118550D01*
Y142150D01*
X204550Y150750D01*
Y161450D01*
X219650Y176550D01*
Y220450D01*
X218650Y221450D01*
Y230550D01*
G01X192650Y85729D02*
X226579D01*
X248450Y107600D01*
Y155208D01*
X248743Y155501D01*
X249407D01*
X249700Y155794D01*
Y156208D01*
X249407Y156501D01*
X248743D01*
X248450Y156794D01*
Y157794D01*
X248743Y158087D01*
X250007D01*
X250300Y158380D01*
Y158794D01*
X250007Y159087D01*
X248743D01*
X248450Y159380D01*
Y159794D01*
X248743Y160087D01*
X250007D01*
X250300Y160380D01*
Y160794D01*
X250007Y161087D01*
X248743D01*
X248450Y161380D01*
Y161794D01*
X248743Y162087D01*
X250007D01*
X250300Y162380D01*
Y162794D01*
X250007Y163087D01*
X248743D01*
X248450Y163380D01*
Y163794D01*
X248743Y164087D01*
X250007D01*
X250300Y164380D01*
Y164794D01*
X250007Y165087D01*
X248743D01*
X248450Y165380D01*
Y165794D01*
X248743Y166087D01*
X250007D01*
X250300Y166380D01*
Y166794D01*
X250007Y167087D01*
X248743D01*
X248450Y167380D01*
Y167794D01*
X248743Y168087D01*
X250007D01*
X250300Y168380D01*
Y168794D01*
X250007Y169087D01*
X248743D01*
X248450Y169380D01*
Y169794D01*
X248743Y170087D01*
X250007D01*
X250300Y170380D01*
Y170794D01*
X250007Y171087D01*
X248743D01*
X248450Y171380D01*
Y171794D01*
X248743Y172087D01*
X250007D01*
X250300Y172380D01*
Y172794D01*
X250007Y173087D01*
X248743D01*
X248450Y173380D01*
Y173794D01*
X248743Y174087D01*
X250007D01*
X250300Y174380D01*
Y174794D01*
X250007Y175087D01*
X248743D01*
X248450Y175380D01*
Y175794D01*
X248743Y176087D01*
X250007D01*
X250300Y176380D01*
Y176794D01*
X250007Y177087D01*
X248743D01*
X248450Y177380D01*
Y177794D01*
X248743Y178087D01*
X250007D01*
X250300Y178380D01*
Y178794D01*
X250007Y179087D01*
X248743D01*
X248450Y179380D01*
Y179794D01*
X248743Y180087D01*
X250007D01*
X250300Y180380D01*
Y180794D01*
X250007Y181087D01*
X248743D01*
X248450Y181380D01*
Y181794D01*
X248743Y182087D01*
X250007D01*
X250300Y182380D01*
Y182794D01*
X250007Y183087D01*
X248743D01*
X248450Y183380D01*
Y183794D01*
X248743Y184087D01*
X250007D01*
X250300Y184380D01*
Y184794D01*
X250007Y185087D01*
X248743D01*
X248450Y185380D01*
Y185794D01*
X248743Y186087D01*
X250007D01*
X250300Y186380D01*
Y186794D01*
X250007Y187087D01*
X248743D01*
X248450Y187380D01*
Y187794D01*
X248743Y188087D01*
X250007D01*
X250300Y188380D01*
Y188794D01*
X250007Y189087D01*
X248743D01*
X248450Y189380D01*
Y189794D01*
X248743Y190087D01*
X250007D01*
X250300Y190380D01*
Y190794D01*
X250007Y191087D01*
X248743D01*
X248450Y191380D01*
Y191794D01*
X248743Y192087D01*
X250007D01*
X250300Y192380D01*
Y192794D01*
X250007Y193087D01*
X248743D01*
X248450Y193380D01*
Y193794D01*
X248743Y194087D01*
X250007D01*
X250300Y194380D01*
Y194794D01*
X250007Y195087D01*
X248743D01*
X248450Y195380D01*
Y198023D01*
X248743Y198316D01*
X251157D01*
X251450Y198609D01*
Y199023D01*
X251157Y199316D01*
X248743D01*
X248450Y199609D01*
Y200023D01*
X248743Y200316D01*
X251157D01*
X251450Y200609D01*
Y201023D01*
X251157Y201316D01*
X248743D01*
X248450Y201609D01*
Y202023D01*
X248743Y202316D01*
X251157D01*
X251450Y202609D01*
Y203023D01*
X251157Y203316D01*
X248743D01*
X248450Y203609D01*
Y204023D01*
X248743Y204316D01*
X251157D01*
X251450Y204609D01*
Y205023D01*
X251157Y205316D01*
X248743D01*
X248450Y205609D01*
Y206023D01*
X248743Y206316D01*
X251157D01*
X251450Y206609D01*
Y207023D01*
X251157Y207316D01*
X248743D01*
X248450Y207609D01*
Y208023D01*
X248743Y208316D01*
X251157D01*
X251450Y208609D01*
Y209023D01*
X251157Y209316D01*
X248743D01*
X248450Y209609D01*
Y210023D01*
X248743Y210316D01*
X251157D01*
X251450Y210609D01*
Y211023D01*
X251157Y211316D01*
X248743D01*
X248450Y211609D01*
Y212023D01*
X248743Y212316D01*
X251157D01*
X251450Y212609D01*
Y213023D01*
X251157Y213316D01*
X248743D01*
X248450Y213609D01*
Y215350D01*
X251150Y218050D01*
G01X226450Y232100D02*
X224700Y230350D01*
Y163650D01*
X211000Y149950D01*
Y128750D01*
X206200Y123950D01*
Y117400D01*
G01X220400Y151500D02*
X213988Y145088D01*
Y111000D01*
G01X226700Y212400D02*
Y210650D01*
X227300Y210050D01*
Y145350D01*
X224550Y142600D01*
Y111550D01*
G01X291300Y95350D02*
X285350Y101300D01*
Y185850D01*
X290450Y190950D01*
G01Y180950D02*
X293200Y178200D01*
Y127350D01*
X294800Y125750D01*
Y95700D01*
X299300Y91200D01*
G01X286450Y233050D02*
Y202250D01*
X285500Y201300D01*
Y199550D01*
G01X316750Y167750D02*
Y165100D01*
X316800Y165050D01*
Y89000D01*
G54D18*
G01X322850Y265050D02*
X283550D01*
X281550Y263050D01*
Y235150D01*
G02X273750I-3900J0D01*
G01Y263050D01*
X271750Y265050D01*
X-3850D01*
X-5850Y263050D01*
Y228150D01*
G02X-9850Y224200I-2871J-1093D01*
G01X-17650D01*
Y-11500D01*
X-9850D01*
G02X-5850Y-15450I1129J-2857D01*
G01Y-50350D01*
X-3850Y-52350D01*
X35450D01*
X37450Y-50350D01*
Y-22450D01*
G02X45250I3900J0D01*
G01Y-50350D01*
X47250Y-52350D01*
X322850D01*
X324850Y-50350D01*
Y-15450D01*
G02X328850Y-11500I2871J1093D01*
G01X336650D01*
Y224200D01*
X328850D01*
G02X324850Y228150I-1129J2857D01*
G01Y263050D01*
X322850Y265050D01*
G54D19*
G01X-28782Y-195215D02*
X-28233Y-195740D01*
X-27607Y-195950D01*
X-26980Y-195740D01*
X-26432Y-195110D01*
X-26040Y-194165D01*
X-25883Y-193220D01*
Y-192065D01*
X-26040Y-191120D01*
X-26432Y-190280D01*
X-26902Y-189860D01*
X-27450Y-189650D01*
X-28077Y-189860D01*
X-28547Y-190280D01*
X-28860Y-190910D01*
X-29017Y-191750D01*
X-28860Y-192485D01*
X-28468Y-193220D01*
X-27998Y-193640D01*
X-27450Y-193745D01*
X-26823Y-193535D01*
X-26353Y-193010D01*
X-25883Y-192065D01*
G01X-14850Y-195950D02*
X-15477Y-195845D01*
X-16025Y-195425D01*
X-16495Y-194795D01*
X-16808Y-194060D01*
X-16965Y-193220D01*
Y-192380D01*
X-16808Y-191540D01*
X-16495Y-190805D01*
X-16025Y-190175D01*
X-15477Y-189755D01*
X-14850Y-189650D01*
X-14223Y-189755D01*
X-13675Y-190175D01*
X-13205Y-190805D01*
X-12892Y-191540D01*
X-12735Y-192380D01*
Y-193220D01*
X-12892Y-194060D01*
X-13205Y-194795D01*
X-13675Y-195425D01*
X-14223Y-195845D01*
X-14850Y-195950D01*
G01X-10038D02*
Y-189650D01*
X-7062D01*
G01X-8158Y-192695D02*
X-10038D01*
G01X4050Y-195950D02*
Y-189650D01*
X3110Y-190910D01*
G01Y-195950D02*
X4990D01*
G01X11290D02*
Y-189650D01*
X8392Y-194165D01*
X12308D01*
G01X-30323Y-111250D02*
Y-103750D01*
X-26777D01*
G01X-28083Y-107375D02*
X-30323D01*
G01X-22917Y-111250D02*
Y-103750D01*
X-20583D01*
X-19837Y-104125D01*
X-19370Y-104625D01*
X-19183Y-105625D01*
X-19370Y-106625D01*
X-19930Y-107250D01*
X-20583Y-107625D01*
X-22917D01*
G01X-20583D02*
X-19183Y-111250D01*
G01X-11683D02*
X-15417D01*
Y-103750D01*
X-11683D01*
G01X-13177Y-107375D02*
X-15417D01*
G01X-4183Y-111250D02*
X-7917D01*
Y-103750D01*
X-4183D01*
G01X-5677Y-107375D02*
X-7917D01*
G01X-510Y-110250D02*
X237Y-110875D01*
X1077Y-111250D01*
X1823D01*
X2570Y-110875D01*
X3130Y-110250D01*
X3410Y-109375D01*
X3223Y-108500D01*
X2757Y-107750D01*
X1917Y-107250D01*
X797Y-107000D01*
X143Y-106500D01*
X-137Y-105625D01*
X50Y-104750D01*
X517Y-104125D01*
X1170Y-103750D01*
X1823D01*
X2477Y-104000D01*
X3037Y-104625D01*
G01X11003Y-104375D02*
X10443Y-104000D01*
X9790Y-103750D01*
X9043D01*
X8203Y-104125D01*
X7550Y-104750D01*
X7083Y-105500D01*
X6710Y-106750D01*
X6617Y-107875D01*
X6803Y-109000D01*
X7083Y-109750D01*
X7643Y-110500D01*
X8297Y-111000D01*
X8950Y-111250D01*
X9603D01*
X10257Y-111000D01*
X10817Y-110625D01*
X11283Y-110125D01*
G01X14117Y-111250D02*
X16450Y-103750D01*
X18783Y-111250D01*
G01X17943Y-108625D02*
X14957D01*
G01X22083Y-103750D02*
Y-111250D01*
X25817D01*
G01X33317D02*
X29583D01*
Y-103750D01*
X33317D01*
G01X31823Y-107375D02*
X29583D01*
G01X45533Y-188050D02*
Y-194350D01*
X48667D01*
G01X51912Y-191725D02*
X52460Y-190990D01*
X52930Y-190570D01*
X53557Y-190360D01*
X54105Y-190570D01*
X54497Y-190990D01*
X54810Y-191620D01*
X54888Y-192355D01*
X54810Y-192985D01*
X54497Y-193615D01*
X54027Y-194140D01*
X53478Y-194350D01*
X52852Y-194140D01*
X52303Y-193510D01*
X51990Y-192565D01*
X51912Y-191515D01*
X52068Y-190150D01*
X52303Y-189415D01*
X52695Y-188680D01*
X53243Y-188155D01*
X53792Y-188050D01*
X54340Y-188260D01*
X54732Y-188785D01*
G01X57350Y-196450D02*
X62050D01*
G01X65060Y-188050D02*
X66940D01*
G01X66000D02*
Y-194350D01*
G01X65060D02*
X66940D01*
G01X70498D02*
Y-188050D01*
X74102Y-194350D01*
Y-188050D01*
G01X78600D02*
Y-194350D01*
G01X76798Y-188050D02*
X80402D01*
G01X82550Y-196450D02*
X87250D01*
G01X89712Y-189100D02*
X90182Y-188470D01*
X90730Y-188155D01*
X91357Y-188050D01*
X92140Y-188260D01*
X92688Y-188785D01*
X92845Y-189415D01*
X92767Y-190045D01*
X92453Y-190570D01*
X90887Y-191620D01*
X90182Y-192355D01*
X89712Y-193405D01*
X89555Y-194350D01*
X92845D01*
G01X159355Y-156250D02*
X162645Y-149950D01*
G01X159355D02*
X162645Y-156250D01*
G01X230000Y-194250D02*
Y-187950D01*
X229060Y-189210D01*
G01Y-194250D02*
X230940D01*
G01X236143D02*
X236300Y-192885D01*
X236535Y-191730D01*
X236848Y-190680D01*
X237240Y-189525D01*
X237867Y-187950D01*
X234733D01*
G01X242600D02*
X241973Y-188160D01*
X241503Y-188685D01*
X241190Y-189315D01*
X240955Y-190155D01*
X240877Y-191100D01*
X240955Y-192045D01*
X241190Y-192885D01*
X241503Y-193515D01*
X241973Y-194040D01*
X242600Y-194250D01*
X243227Y-194040D01*
X243697Y-193515D01*
X244010Y-192885D01*
X244245Y-192045D01*
X244323Y-191100D01*
X244245Y-190155D01*
X244010Y-189315D01*
X243697Y-188685D01*
X243227Y-188160D01*
X242600Y-187950D01*
G01X247882Y-192150D02*
X249918D01*
G01X253712Y-189000D02*
X254182Y-188370D01*
X254730Y-188055D01*
X255357Y-187950D01*
X256140Y-188160D01*
X256688Y-188685D01*
X256845Y-189315D01*
X256767Y-189945D01*
X256453Y-190470D01*
X254887Y-191520D01*
X254182Y-192255D01*
X253712Y-193305D01*
X253555Y-194250D01*
X256845D01*
G01X261343D02*
X261500Y-192885D01*
X261735Y-191730D01*
X262048Y-190680D01*
X262440Y-189525D01*
X263067Y-187950D01*
X259933D01*
G01X266468Y-193515D02*
X267017Y-194040D01*
X267643Y-194250D01*
X268270Y-194040D01*
X268818Y-193410D01*
X269210Y-192465D01*
X269367Y-191520D01*
Y-190365D01*
X269210Y-189420D01*
X268818Y-188580D01*
X268348Y-188160D01*
X267800Y-187950D01*
X267173Y-188160D01*
X266703Y-188580D01*
X266390Y-189210D01*
X266233Y-190050D01*
X266390Y-190785D01*
X266782Y-191520D01*
X267252Y-191940D01*
X267800Y-192045D01*
X268427Y-191835D01*
X268897Y-191310D01*
X269367Y-190365D01*
G01X275040Y-194250D02*
Y-187950D01*
X272142Y-192465D01*
X276058D01*
G01X278677Y-192990D02*
X279147Y-193725D01*
X279773Y-194145D01*
X280478Y-194250D01*
X281105Y-194145D01*
X281732Y-193620D01*
X282123Y-192990D01*
X282202Y-192360D01*
X282045Y-191625D01*
X281497Y-191100D01*
X280948Y-190890D01*
X280243D01*
G01X280948D02*
X281418Y-190575D01*
X281810Y-190050D01*
X281967Y-189420D01*
X281810Y-188790D01*
X281418Y-188265D01*
X280713Y-187950D01*
X280008Y-188055D01*
X279303Y-188475D01*
G01X310333Y-194250D02*
Y-187950D01*
X312292D01*
X312918Y-188265D01*
X313310Y-188685D01*
X313467Y-189525D01*
X313310Y-190365D01*
X312840Y-190890D01*
X312292Y-191205D01*
X310333D01*
G01X312292D02*
X313467Y-194250D01*
G01X319767D02*
X316633D01*
Y-187950D01*
X319767D01*
G01X318513Y-190995D02*
X316633D01*
G01X322542Y-187950D02*
X324500Y-194250D01*
X326458Y-187950D01*
G01X337727Y-190890D02*
X338040Y-190575D01*
X338275Y-190050D01*
X338432Y-189315D01*
X338275Y-188685D01*
X337962Y-188265D01*
X337413Y-187950D01*
X335298D01*
Y-194250D01*
X337883D01*
X338432Y-193830D01*
X338745Y-193200D01*
X338902Y-192465D01*
X338745Y-191730D01*
X338275Y-191100D01*
X337727Y-190890D01*
X335298D01*
G01X232000Y-114950D02*
Y-121250D01*
G01X230198Y-114950D02*
X233802D01*
G01X235950D02*
X237047Y-121250D01*
X238300Y-114950D01*
X239553Y-121250D01*
X240650Y-114950D01*
G01X243033Y-121250D02*
Y-114950D01*
X244992D01*
X245618Y-115265D01*
X246010Y-115685D01*
X246167Y-116525D01*
X246010Y-117365D01*
X245540Y-117890D01*
X244992Y-118205D01*
X243033D01*
G01X244992D02*
X246167Y-121250D01*
G01X249882Y-119150D02*
X251918D01*
G01X255477Y-121250D02*
Y-114950D01*
G01X258453D02*
X255477Y-118835D01*
G01X258923Y-121250D02*
X256808Y-117050D01*
G01X262012Y-118625D02*
X262560Y-117890D01*
X263030Y-117470D01*
X263657Y-117260D01*
X264205Y-117470D01*
X264597Y-117890D01*
X264910Y-118520D01*
X264988Y-119255D01*
X264910Y-119885D01*
X264597Y-120515D01*
X264127Y-121040D01*
X263578Y-121250D01*
X262952Y-121040D01*
X262403Y-120410D01*
X262090Y-119465D01*
X262012Y-118415D01*
X262168Y-117050D01*
X262403Y-116315D01*
X262795Y-115580D01*
X263343Y-115055D01*
X263892Y-114950D01*
X264440Y-115160D01*
X264832Y-115685D01*
G01X270740Y-121250D02*
Y-114950D01*
X267842Y-119465D01*
X271758D01*
G01X274612Y-121250D02*
Y-114950D01*
X277588D01*
G01X276492Y-117995D02*
X274612D01*
G01X282400Y-121250D02*
Y-114950D01*
X281460Y-116210D01*
G01Y-121250D02*
X283340D01*
G01X287212Y-116000D02*
X287682Y-115370D01*
X288230Y-115055D01*
X288857Y-114950D01*
X289640Y-115160D01*
X290188Y-115685D01*
X290345Y-116315D01*
X290267Y-116945D01*
X289953Y-117470D01*
X288387Y-118520D01*
X287682Y-119255D01*
X287212Y-120305D01*
X287055Y-121250D01*
X290345D01*
G01X295000Y-114950D02*
X294373Y-115160D01*
X293903Y-115685D01*
X293590Y-116315D01*
X293355Y-117155D01*
X293277Y-118100D01*
X293355Y-119045D01*
X293590Y-119885D01*
X293903Y-120515D01*
X294373Y-121040D01*
X295000Y-121250D01*
X295627Y-121040D01*
X296097Y-120515D01*
X296410Y-119885D01*
X296645Y-119045D01*
X296723Y-118100D01*
X296645Y-117155D01*
X296410Y-116315D01*
X296097Y-115685D01*
X295627Y-115160D01*
X295000Y-114950D01*
G01X299263Y-121250D02*
Y-114950D01*
X301300Y-120200D01*
X303337Y-114950D01*
Y-121250D01*
M02*
