G04 ================== begin FILE IDENTIFICATION RECORD ==================*
G04 Layout Name:  LAY-27943.brd*
G04 Film Name:    SSM.art*
G04 File Format:  Gerber RS274X*
G04 File Origin:  Cadence Allegro 16.6-S013*
G04 Origin Date:  Tue Sep 24 08:57:32 2013*
G04 *
G04 Layer:  PACKAGE GEOMETRY/SOLDERMASK_BOTTOM*
G04 Layer:  VIA CLASS/SOLDERMASK_BOTTOM*
G04 Layer:  DRAWING FORMAT/FILM_TITLE_BLOCK*
G04 Layer:  PIN/SOLDERMASK_BOTTOM*
G04 Layer:  BOARD GEOMETRY/OUTLINE*
G04 Layer:  BOARD GEOMETRY/SOLDERMASK_BOTTOM*
G04 *
G04 Offset:    (0.00 0.00)*
G04 Mirror:    No*
G04 Mode:      Positive*
G04 Rotation:  0*
G04 FullContactRelief:  No*
G04 UndefLineWidth:     7.00*
G04 ================== end FILE IDENTIFICATION RECORD ====================*
%FSLAX55Y55*MOIN*%
%IR0*IPPOS*OFA0.00000B0.00000*MIA0B0*SFA1.00000B1.00000*%
%ADD43R,.102X.032*%
%ADD14R,.032X.13*%
%ADD41R,.102X.035*%
%ADD40R,.102X.047*%
%ADD42R,.102X.067*%
%ADD33R,.091X.151*%
%ADD12C,.024*%
%ADD30C,.07*%
%ADD28C,.034*%
%ADD13R,.032X.159*%
%ADD26C,.044*%
%ADD48C,.063*%
%ADD36C,.037*%
%ADD34C,.028*%
%ADD16C,.064*%
%ADD17C,.029*%
%ADD37C,.057*%
%ADD35C,.067*%
%ADD29R,.07X.07*%
%ADD15C,.069*%
%ADD18R,.064X.064*%
%ADD19R,.069X.069*%
%ADD22C,.12*%
%ADD47R,.162X.108*%
%ADD31R,.034X.052*%
%ADD11O,.046X.07*%
%ADD27R,.091X.051*%
%ADD25R,.016X.054*%
%ADD32R,.052X.028*%
%ADD38R,.036X.028*%
%ADD39R,.028X.036*%
%ADD20O,.059X.046*%
%ADD46R,.204X.204*%
%ADD24O,.049X.039*%
%ADD45R,.044X.059*%
%ADD21O,.039X.049*%
%ADD23R,.084X.029*%
%ADD10O,.079X.047*%
%ADD44C,.787*%
%ADD49C,.01*%
%ADD50C,.02*%
%ADD51C,.007*%
%ADD52C,.006*%
%ADD53C,.0079*%
G75*
%LPD*%
G75*
G36*
G01X324850Y-29498D02*
Y-50348D01*
X322850Y-52348D01*
X-3850D01*
X-5850Y-50348D01*
Y-29498D01*
X324850D01*
G37*
G36*
G01Y263052D02*
Y242202D01*
X-5850Y242203D01*
Y263052D01*
X-3850Y265052D01*
X322850D01*
X324850Y263052D01*
G37*
G54D10*
X-11150Y55513D03*
Y88387D03*
G54D20*
X661Y63190D03*
Y80710D03*
G54D11*
X-6550Y132550D03*
Y125150D03*
X13450Y132550D03*
X8450D03*
X3450D03*
X-1550D03*
X13450Y125150D03*
X8450D03*
X3450D03*
X-1550D03*
G54D21*
X15050Y84650D03*
X9050D03*
X61400Y134375D03*
X67400D03*
X111000Y53300D03*
X117000D03*
X117400Y84450D03*
X111400D03*
X117300Y90150D03*
X111300D03*
X310350Y107800D03*
X316350D03*
G54D30*
X80550Y76950D03*
X100550D03*
X90550D03*
Y66950D03*
X100550D03*
G54D12*
X12750Y-23950D03*
X23862Y-1900D03*
X16500Y47800D03*
X15100Y89300D03*
X-3550Y109750D03*
X3500Y143600D03*
X8250Y230550D03*
X5100Y228088D03*
X11900Y236200D03*
X52850Y24000D03*
X40150Y119000D03*
X33350Y117200D03*
X39750Y136550D03*
X45850Y145500D03*
X45765Y151035D03*
X54750Y154950D03*
X47450Y175800D03*
X35100Y212950D03*
X28850Y232600D03*
X50750Y231350D03*
X74650Y82050D03*
X57550Y158850D03*
X65950Y227450D03*
X108150Y43950D03*
X114100Y48600D03*
X117250Y101477D03*
X95050Y119150D03*
X93300Y115950D03*
X90200Y141150D03*
X109450Y215050D03*
X94250Y233550D03*
X102706Y234050D03*
X86500Y232400D03*
X106057Y234050D03*
X144100Y8800D03*
X128950Y48450D03*
X141250Y72150D03*
X121050Y46800D03*
X132750Y99600D03*
X145199Y93603D03*
Y85729D03*
X135750Y88600D03*
X145199Y81792D03*
X141262D03*
X145199Y77855D03*
X141262Y105414D03*
X145199D03*
Y101477D03*
X126000Y119200D03*
X133200Y107350D03*
X145199Y109351D03*
X139950Y143450D03*
X126750Y189600D03*
Y194600D03*
X125250Y215000D03*
X127100Y203950D03*
X140150Y236650D03*
X163000Y-1650D03*
X170500Y4200D03*
X153500Y27150D03*
X149100Y49150D03*
X165850Y66450D03*
X149050Y72150D03*
X170650Y70300D03*
X174750Y70200D03*
X168800Y73900D03*
X168850Y85650D03*
X149136Y81792D03*
X176650Y93550D03*
X153073Y81792D03*
Y85729D03*
X172850Y81800D03*
X149136Y93603D03*
X153073Y89666D03*
X149136D03*
Y85729D03*
Y105414D03*
Y101477D03*
X164900Y85750D03*
X176694Y77855D03*
X168800Y81750D03*
X172757Y77855D03*
X164900Y81800D03*
X172757Y105414D03*
X176694D03*
Y81792D03*
Y85729D03*
X157010Y81792D03*
Y85729D03*
X176694Y89666D03*
X172800Y97550D03*
X160900Y121100D03*
X172757Y117225D03*
X168950Y125550D03*
X172757Y109351D03*
X162800Y132100D03*
X164883Y113288D03*
X168820Y109351D03*
Y117225D03*
X157010Y113288D03*
Y109351D03*
X149100Y121500D03*
X149136Y113288D03*
Y109351D03*
X172757Y113288D03*
X166650Y156700D03*
X156950Y141600D03*
X164900Y186200D03*
X155762Y196350D03*
X166000Y182850D03*
X166800Y201150D03*
X163450Y214700D03*
X157600Y214850D03*
X175150Y229900D03*
X158950Y201400D03*
X157450Y233600D03*
X209400Y-5700D03*
X204500Y-6350D03*
X199850Y44300D03*
X186650Y76400D03*
X191650Y103450D03*
X180631Y105414D03*
X194450Y95550D03*
X192450Y79750D03*
X189450Y101300D03*
X186050Y89750D03*
X200050Y81792D03*
X192650Y85729D03*
X192600Y89650D03*
X186550Y85800D03*
X183100Y126600D03*
X184588Y113288D03*
X198150Y191550D03*
X182400Y215500D03*
X206815Y229250D03*
X202550Y236450D03*
X202650Y233350D03*
X230200Y-19150D03*
X235250Y104600D03*
X226500Y229300D03*
X234450Y236600D03*
X215950Y233850D03*
X282800Y218900D03*
X296400Y229400D03*
X303350Y229600D03*
X286450Y233050D03*
G54D31*
X75750Y146350D03*
X71750Y154950D03*
X67750Y146350D03*
G54D22*
X49600Y-7975D03*
X307300Y-4225D03*
X314450Y97475D03*
G54D13*
X3988Y-38198D03*
X7925D03*
X51D03*
X11862D03*
X15799D03*
X19736D03*
X23673D03*
X-3886Y250902D03*
X3988D03*
X7925D03*
X11862D03*
X15799D03*
X19736D03*
X23673D03*
X51D03*
X51232Y-38198D03*
X55169D03*
X27610D03*
X47295D03*
X35484D03*
X31547D03*
X43358Y250902D03*
X47295D03*
X51232D03*
X55169D03*
X27610D03*
X31547D03*
X35484D03*
X39421D03*
X59106Y-38198D03*
X78791D03*
X74854D03*
X63043D03*
X66980D03*
X70917D03*
X82728D03*
X86665D03*
X66980Y250902D03*
X59106D03*
X63043D03*
X82728D03*
X86665D03*
X78791D03*
X74854D03*
X70917D03*
X110287Y-38198D03*
X106350D03*
X118161D03*
X114224D03*
X102413D03*
X90602D03*
X94539D03*
X98476D03*
X118161Y250902D03*
X114224D03*
X110287D03*
X90602D03*
X106350D03*
X102413D03*
X98476D03*
X94539D03*
X141783Y-38198D03*
X122098D03*
X126035D03*
X137846D03*
X145720D03*
X133909D03*
X129972D03*
X133909Y250902D03*
X129972D03*
X126035D03*
X122098D03*
X145720D03*
X137846D03*
X141783D03*
X149657Y-38198D03*
X157531D03*
X153594D03*
X173280D03*
X169343D03*
X161469D03*
X165406D03*
X177217D03*
Y250902D03*
X161469D03*
X165406D03*
X169343D03*
X173280D03*
X157531D03*
X153594D03*
X149657D03*
X192965Y-38198D03*
X196902D03*
X200839D03*
X204776D03*
X208713D03*
X189028D03*
X185091D03*
X181154D03*
X200839Y250902D03*
X204776D03*
X208713D03*
X192965D03*
X196902D03*
X181154D03*
X185091D03*
X189028D03*
X236272Y-38198D03*
X228398D03*
X232335D03*
X240209D03*
X220524D03*
X224461D03*
X212650D03*
X216587D03*
X212650Y250902D03*
X240209D03*
X216587D03*
X224461D03*
X220524D03*
X232335D03*
X228398D03*
X236272D03*
X267768Y-38198D03*
X263831D03*
X259894D03*
X271705D03*
X255957D03*
X244146D03*
X248083D03*
X252020D03*
X271705Y250902D03*
X267768D03*
X263831D03*
X259894D03*
X244146D03*
X248083D03*
X252020D03*
X255957D03*
X275642Y-38198D03*
X279579D03*
X303201D03*
X299264D03*
X295327D03*
X291390D03*
X287453D03*
X283516D03*
X303201Y250902D03*
X283516D03*
X287453D03*
X291390D03*
X299264D03*
X295327D03*
X322886Y-38198D03*
X307138D03*
X318949D03*
X311075D03*
X315012D03*
Y250902D03*
X311075D03*
X307138D03*
X318949D03*
G54D40*
X213350Y116950D03*
G54D50*
G01X366650Y-99250D02*
Y-199250D01*
X-33350D01*
G01D02*
Y-99250D01*
X366650D01*
G54D23*
X57325Y61750D03*
X35325Y66750D03*
Y71750D03*
Y61750D03*
X57325Y71750D03*
Y66750D03*
Y76750D03*
X35325D03*
G54D32*
X61929Y165750D03*
X71771Y162010D03*
X61929D03*
X71771Y165750D03*
Y169490D03*
X61929D03*
G54D41*
X213350Y131850D03*
Y141650D03*
Y151550D03*
Y181050D03*
Y200450D03*
Y171150D03*
Y190850D03*
Y207150D03*
G54D14*
X-3886Y-36748D03*
X322886Y249452D03*
G54D51*
G01X322850Y265050D02*
X283550D01*
X281550Y263050D01*
Y235150D01*
G02X273750I-3900J0D01*
G01Y263050D01*
X271750Y265050D01*
X-3850D01*
X-5850Y263050D01*
Y228150D01*
G02X-9850Y224200I-2871J-1093D01*
G01X-17650D01*
Y-11500D01*
X-9850D01*
G02X-5850Y-15450I1129J-2857D01*
G01Y-50350D01*
X-3850Y-52350D01*
X35450D01*
X37450Y-50350D01*
Y-22450D01*
G02X45250I3900J0D01*
G01Y-50350D01*
X47250Y-52350D01*
X322850D01*
X324850Y-50350D01*
Y-15450D01*
G02X328850Y-11500I2871J1093D01*
G01X336650D01*
Y224200D01*
X328850D01*
G02X324850Y228150I-1129J2857D01*
G01Y263050D01*
X322850Y265050D01*
G54D24*
X44750Y107625D03*
X55800Y134400D03*
X44750Y113625D03*
X55800Y140400D03*
X54550Y169750D03*
Y175750D03*
X67050Y-1850D03*
Y4150D03*
Y24650D03*
Y30650D03*
X67150Y41950D03*
Y35950D03*
X74850Y225050D03*
Y219050D03*
X102650Y225050D03*
Y219050D03*
X114450Y225050D03*
Y219050D03*
X108350Y225050D03*
Y219050D03*
X146350Y-14050D03*
Y-8050D03*
X143950Y225050D03*
Y219050D03*
X138150Y225050D03*
Y219050D03*
X131750Y225050D03*
Y219050D03*
X126050Y225050D03*
Y219050D03*
X120150Y225050D03*
Y219050D03*
X153050Y-14050D03*
Y-8050D03*
X159050Y-14050D03*
Y-8050D03*
X165250Y-14050D03*
Y-8050D03*
X171350Y-14050D03*
Y-8050D03*
X177250Y-14050D03*
Y-8050D03*
X173300Y225300D03*
Y219300D03*
X167250Y225350D03*
Y219350D03*
X161350Y225050D03*
Y219050D03*
X155450Y225050D03*
Y219050D03*
X183150Y-14050D03*
Y-8050D03*
X188950Y-14050D03*
Y-8050D03*
X204500Y168975D03*
Y162975D03*
X196350Y225050D03*
Y219050D03*
X184250Y225050D03*
Y219050D03*
G54D15*
X-1350Y10050D03*
Y20050D03*
G54D33*
X99955Y4250D03*
X99755Y33050D03*
G54D42*
X213350Y162970D03*
G54D52*
G01X-29950Y-196350D02*
Y-190050D01*
X-30890Y-191310D01*
G01Y-196350D02*
X-29010D01*
G01X-25138Y-191100D02*
X-24668Y-190470D01*
X-24120Y-190155D01*
X-23493Y-190050D01*
X-22710Y-190260D01*
X-22162Y-190785D01*
X-22005Y-191415D01*
X-22083Y-192045D01*
X-22397Y-192570D01*
X-23963Y-193620D01*
X-24668Y-194355D01*
X-25138Y-195405D01*
X-25295Y-196350D01*
X-22005D01*
G01X-11050D02*
X-11677Y-196245D01*
X-12225Y-195825D01*
X-12695Y-195195D01*
X-13008Y-194460D01*
X-13165Y-193620D01*
Y-192780D01*
X-13008Y-191940D01*
X-12695Y-191205D01*
X-12225Y-190575D01*
X-11677Y-190155D01*
X-11050Y-190050D01*
X-10423Y-190155D01*
X-9875Y-190575D01*
X-9405Y-191205D01*
X-9092Y-191940D01*
X-8935Y-192780D01*
Y-193620D01*
X-9092Y-194460D01*
X-9405Y-195195D01*
X-9875Y-195825D01*
X-10423Y-196245D01*
X-11050Y-196350D01*
G01X-6238D02*
Y-190050D01*
X-3262D01*
G01X-4358Y-193095D02*
X-6238D01*
G01X7850Y-196350D02*
Y-190050D01*
X6910Y-191310D01*
G01Y-196350D02*
X8790D01*
G01X15090D02*
Y-190050D01*
X12192Y-194565D01*
X16108D01*
G01X-30323Y-111250D02*
Y-103750D01*
X-26777D01*
G01X-28083Y-107375D02*
X-30323D01*
G01X-22917Y-111250D02*
Y-103750D01*
X-20583D01*
X-19837Y-104125D01*
X-19370Y-104625D01*
X-19183Y-105625D01*
X-19370Y-106625D01*
X-19930Y-107250D01*
X-20583Y-107625D01*
X-22917D01*
G01X-20583D02*
X-19183Y-111250D01*
G01X-11683D02*
X-15417D01*
Y-103750D01*
X-11683D01*
G01X-13177Y-107375D02*
X-15417D01*
G01X-4183Y-111250D02*
X-7917D01*
Y-103750D01*
X-4183D01*
G01X-5677Y-107375D02*
X-7917D01*
G01X-510Y-110250D02*
X237Y-110875D01*
X1077Y-111250D01*
X1823D01*
X2570Y-110875D01*
X3130Y-110250D01*
X3410Y-109375D01*
X3223Y-108500D01*
X2757Y-107750D01*
X1917Y-107250D01*
X797Y-107000D01*
X143Y-106500D01*
X-137Y-105625D01*
X50Y-104750D01*
X517Y-104125D01*
X1170Y-103750D01*
X1823D01*
X2477Y-104000D01*
X3037Y-104625D01*
G01X11003Y-104375D02*
X10443Y-104000D01*
X9790Y-103750D01*
X9043D01*
X8203Y-104125D01*
X7550Y-104750D01*
X7083Y-105500D01*
X6710Y-106750D01*
X6617Y-107875D01*
X6803Y-109000D01*
X7083Y-109750D01*
X7643Y-110500D01*
X8297Y-111000D01*
X8950Y-111250D01*
X9603D01*
X10257Y-111000D01*
X10817Y-110625D01*
X11283Y-110125D01*
G01X14117Y-111250D02*
X16450Y-103750D01*
X18783Y-111250D01*
G01X17943Y-108625D02*
X14957D01*
G01X22083Y-103750D02*
Y-111250D01*
X25817D01*
G01X33317D02*
X29583D01*
Y-103750D01*
X33317D01*
G01X31823Y-107375D02*
X29583D01*
G01X18155Y-195510D02*
X18782Y-196035D01*
X19487Y-196350D01*
X20113D01*
X20740Y-196035D01*
X21210Y-195510D01*
X21445Y-194775D01*
X21288Y-194040D01*
X20897Y-193410D01*
X20192Y-192990D01*
X19252Y-192780D01*
X18703Y-192360D01*
X18468Y-191625D01*
X18625Y-190890D01*
X19017Y-190365D01*
X19565Y-190050D01*
X20113D01*
X20662Y-190260D01*
X21132Y-190785D01*
G01X27667Y-196350D02*
X24533D01*
Y-190050D01*
X27667D01*
G01X26413Y-193095D02*
X24533D01*
G01X34123Y-190575D02*
X33653Y-190260D01*
X33105Y-190050D01*
X32478D01*
X31773Y-190365D01*
X31225Y-190890D01*
X30833Y-191520D01*
X30520Y-192570D01*
X30442Y-193515D01*
X30598Y-194460D01*
X30833Y-195090D01*
X31303Y-195720D01*
X31852Y-196140D01*
X32400Y-196350D01*
X32948D01*
X33497Y-196140D01*
X33967Y-195825D01*
X34358Y-195405D01*
G01X38700Y-196350D02*
X38073Y-196245D01*
X37525Y-195825D01*
X37055Y-195195D01*
X36742Y-194460D01*
X36585Y-193620D01*
Y-192780D01*
X36742Y-191940D01*
X37055Y-191205D01*
X37525Y-190575D01*
X38073Y-190155D01*
X38700Y-190050D01*
X39327Y-190155D01*
X39875Y-190575D01*
X40345Y-191205D01*
X40658Y-191940D01*
X40815Y-192780D01*
Y-193620D01*
X40658Y-194460D01*
X40345Y-195195D01*
X39875Y-195825D01*
X39327Y-196245D01*
X38700Y-196350D01*
G01X43198D02*
Y-190050D01*
X46802Y-196350D01*
Y-190050D01*
G01X49577Y-196350D02*
Y-190050D01*
X51143D01*
X51770Y-190365D01*
X52240Y-190785D01*
X52632Y-191415D01*
X52945Y-192150D01*
X53023Y-193200D01*
X52945Y-194250D01*
X52632Y-194985D01*
X52240Y-195615D01*
X51770Y-196035D01*
X51143Y-196350D01*
X49577D01*
G01X55642D02*
X57600Y-190050D01*
X59558Y-196350D01*
G01X58853Y-194145D02*
X56347D01*
G01X62333Y-196350D02*
Y-190050D01*
X64292D01*
X64918Y-190365D01*
X65310Y-190785D01*
X65467Y-191625D01*
X65310Y-192465D01*
X64840Y-192990D01*
X64292Y-193305D01*
X62333D01*
G01X64292D02*
X65467Y-196350D01*
G01X70200D02*
Y-193515D01*
X68633Y-190050D01*
G01X71767D02*
X70200Y-193515D01*
G01X81155Y-195510D02*
X81782Y-196035D01*
X82487Y-196350D01*
X83113D01*
X83740Y-196035D01*
X84210Y-195510D01*
X84445Y-194775D01*
X84288Y-194040D01*
X83897Y-193410D01*
X83192Y-192990D01*
X82252Y-192780D01*
X81703Y-192360D01*
X81468Y-191625D01*
X81625Y-190890D01*
X82017Y-190365D01*
X82565Y-190050D01*
X83113D01*
X83662Y-190260D01*
X84132Y-190785D01*
G01X89100Y-196350D02*
X88473Y-196245D01*
X87925Y-195825D01*
X87455Y-195195D01*
X87142Y-194460D01*
X86985Y-193620D01*
Y-192780D01*
X87142Y-191940D01*
X87455Y-191205D01*
X87925Y-190575D01*
X88473Y-190155D01*
X89100Y-190050D01*
X89727Y-190155D01*
X90275Y-190575D01*
X90745Y-191205D01*
X91058Y-191940D01*
X91215Y-192780D01*
Y-193620D01*
X91058Y-194460D01*
X90745Y-195195D01*
X90275Y-195825D01*
X89727Y-196245D01*
X89100Y-196350D01*
G01X93833Y-190050D02*
Y-196350D01*
X96967D01*
G01X99977D02*
Y-190050D01*
X101543D01*
X102170Y-190365D01*
X102640Y-190785D01*
X103032Y-191415D01*
X103345Y-192150D01*
X103423Y-193200D01*
X103345Y-194250D01*
X103032Y-194985D01*
X102640Y-195615D01*
X102170Y-196035D01*
X101543Y-196350D01*
X99977D01*
G01X109567D02*
X106433D01*
Y-190050D01*
X109567D01*
G01X108313Y-193095D02*
X106433D01*
G01X112733Y-196350D02*
Y-190050D01*
X114692D01*
X115318Y-190365D01*
X115710Y-190785D01*
X115867Y-191625D01*
X115710Y-192465D01*
X115240Y-192990D01*
X114692Y-193305D01*
X112733D01*
G01X114692D02*
X115867Y-196350D01*
G01X118563D02*
Y-190050D01*
X120600Y-195300D01*
X122637Y-190050D01*
Y-196350D01*
G01X124942D02*
X126900Y-190050D01*
X128858Y-196350D01*
G01X128153Y-194145D02*
X125647D01*
G01X131555Y-195510D02*
X132182Y-196035D01*
X132887Y-196350D01*
X133513D01*
X134140Y-196035D01*
X134610Y-195510D01*
X134845Y-194775D01*
X134688Y-194040D01*
X134297Y-193410D01*
X133592Y-192990D01*
X132652Y-192780D01*
X132103Y-192360D01*
X131868Y-191625D01*
X132025Y-190890D01*
X132417Y-190365D01*
X132965Y-190050D01*
X133513D01*
X134062Y-190260D01*
X134532Y-190785D01*
G01X137777Y-196350D02*
Y-190050D01*
G01X140753D02*
X137777Y-193935D01*
G01X141223Y-196350D02*
X139108Y-192150D01*
G01X159355Y-156250D02*
X162645Y-149950D01*
G01X159355D02*
X162645Y-156250D01*
G01X230000Y-194250D02*
Y-187950D01*
X229060Y-189210D01*
G01Y-194250D02*
X230940D01*
G01X236143D02*
X236300Y-192885D01*
X236535Y-191730D01*
X236848Y-190680D01*
X237240Y-189525D01*
X237867Y-187950D01*
X234733D01*
G01X242600D02*
X241973Y-188160D01*
X241503Y-188685D01*
X241190Y-189315D01*
X240955Y-190155D01*
X240877Y-191100D01*
X240955Y-192045D01*
X241190Y-192885D01*
X241503Y-193515D01*
X241973Y-194040D01*
X242600Y-194250D01*
X243227Y-194040D01*
X243697Y-193515D01*
X244010Y-192885D01*
X244245Y-192045D01*
X244323Y-191100D01*
X244245Y-190155D01*
X244010Y-189315D01*
X243697Y-188685D01*
X243227Y-188160D01*
X242600Y-187950D01*
G01X247882Y-192150D02*
X249918D01*
G01X253712Y-189000D02*
X254182Y-188370D01*
X254730Y-188055D01*
X255357Y-187950D01*
X256140Y-188160D01*
X256688Y-188685D01*
X256845Y-189315D01*
X256767Y-189945D01*
X256453Y-190470D01*
X254887Y-191520D01*
X254182Y-192255D01*
X253712Y-193305D01*
X253555Y-194250D01*
X256845D01*
G01X261343D02*
X261500Y-192885D01*
X261735Y-191730D01*
X262048Y-190680D01*
X262440Y-189525D01*
X263067Y-187950D01*
X259933D01*
G01X266468Y-193515D02*
X267017Y-194040D01*
X267643Y-194250D01*
X268270Y-194040D01*
X268818Y-193410D01*
X269210Y-192465D01*
X269367Y-191520D01*
Y-190365D01*
X269210Y-189420D01*
X268818Y-188580D01*
X268348Y-188160D01*
X267800Y-187950D01*
X267173Y-188160D01*
X266703Y-188580D01*
X266390Y-189210D01*
X266233Y-190050D01*
X266390Y-190785D01*
X266782Y-191520D01*
X267252Y-191940D01*
X267800Y-192045D01*
X268427Y-191835D01*
X268897Y-191310D01*
X269367Y-190365D01*
G01X275040Y-194250D02*
Y-187950D01*
X272142Y-192465D01*
X276058D01*
G01X278677Y-192990D02*
X279147Y-193725D01*
X279773Y-194145D01*
X280478Y-194250D01*
X281105Y-194145D01*
X281732Y-193620D01*
X282123Y-192990D01*
X282202Y-192360D01*
X282045Y-191625D01*
X281497Y-191100D01*
X280948Y-190890D01*
X280243D01*
G01X280948D02*
X281418Y-190575D01*
X281810Y-190050D01*
X281967Y-189420D01*
X281810Y-188790D01*
X281418Y-188265D01*
X280713Y-187950D01*
X280008Y-188055D01*
X279303Y-188475D01*
G01X310333Y-194250D02*
Y-187950D01*
X312292D01*
X312918Y-188265D01*
X313310Y-188685D01*
X313467Y-189525D01*
X313310Y-190365D01*
X312840Y-190890D01*
X312292Y-191205D01*
X310333D01*
G01X312292D02*
X313467Y-194250D01*
G01X319767D02*
X316633D01*
Y-187950D01*
X319767D01*
G01X318513Y-190995D02*
X316633D01*
G01X322542Y-187950D02*
X324500Y-194250D01*
X326458Y-187950D01*
G01X337727Y-190890D02*
X338040Y-190575D01*
X338275Y-190050D01*
X338432Y-189315D01*
X338275Y-188685D01*
X337962Y-188265D01*
X337413Y-187950D01*
X335298D01*
Y-194250D01*
X337883D01*
X338432Y-193830D01*
X338745Y-193200D01*
X338902Y-192465D01*
X338745Y-191730D01*
X338275Y-191100D01*
X337727Y-190890D01*
X335298D01*
G01X232000Y-114950D02*
Y-121250D01*
G01X230198Y-114950D02*
X233802D01*
G01X235950D02*
X237047Y-121250D01*
X238300Y-114950D01*
X239553Y-121250D01*
X240650Y-114950D01*
G01X243033Y-121250D02*
Y-114950D01*
X244992D01*
X245618Y-115265D01*
X246010Y-115685D01*
X246167Y-116525D01*
X246010Y-117365D01*
X245540Y-117890D01*
X244992Y-118205D01*
X243033D01*
G01X244992D02*
X246167Y-121250D01*
G01X249882Y-119150D02*
X251918D01*
G01X255477Y-121250D02*
Y-114950D01*
G01X258453D02*
X255477Y-118835D01*
G01X258923Y-121250D02*
X256808Y-117050D01*
G01X262012Y-118625D02*
X262560Y-117890D01*
X263030Y-117470D01*
X263657Y-117260D01*
X264205Y-117470D01*
X264597Y-117890D01*
X264910Y-118520D01*
X264988Y-119255D01*
X264910Y-119885D01*
X264597Y-120515D01*
X264127Y-121040D01*
X263578Y-121250D01*
X262952Y-121040D01*
X262403Y-120410D01*
X262090Y-119465D01*
X262012Y-118415D01*
X262168Y-117050D01*
X262403Y-116315D01*
X262795Y-115580D01*
X263343Y-115055D01*
X263892Y-114950D01*
X264440Y-115160D01*
X264832Y-115685D01*
G01X270740Y-121250D02*
Y-114950D01*
X267842Y-119465D01*
X271758D01*
G01X274612Y-121250D02*
Y-114950D01*
X277588D01*
G01X276492Y-117995D02*
X274612D01*
G01X282400Y-121250D02*
Y-114950D01*
X281460Y-116210D01*
G01Y-121250D02*
X283340D01*
G01X287212Y-116000D02*
X287682Y-115370D01*
X288230Y-115055D01*
X288857Y-114950D01*
X289640Y-115160D01*
X290188Y-115685D01*
X290345Y-116315D01*
X290267Y-116945D01*
X289953Y-117470D01*
X288387Y-118520D01*
X287682Y-119255D01*
X287212Y-120305D01*
X287055Y-121250D01*
X290345D01*
G01X295000Y-114950D02*
X294373Y-115160D01*
X293903Y-115685D01*
X293590Y-116315D01*
X293355Y-117155D01*
X293277Y-118100D01*
X293355Y-119045D01*
X293590Y-119885D01*
X293903Y-120515D01*
X294373Y-121040D01*
X295000Y-121250D01*
X295627Y-121040D01*
X296097Y-120515D01*
X296410Y-119885D01*
X296645Y-119045D01*
X296723Y-118100D01*
X296645Y-117155D01*
X296410Y-116315D01*
X296097Y-115685D01*
X295627Y-115160D01*
X295000Y-114950D01*
G01X299263Y-121250D02*
Y-114950D01*
X301300Y-120200D01*
X303337Y-114950D01*
Y-121250D01*
G54D25*
X53840Y108475D03*
Y115475D03*
X58960Y108475D03*
X56400D03*
X70985Y108350D03*
X68425D03*
X65865D03*
X80940Y131000D03*
Y138000D03*
X83500D03*
Y131000D03*
X86060D03*
Y138000D03*
X58960Y115475D03*
X56400D03*
X70985Y115350D03*
X68425D03*
X65865D03*
G54D16*
X17750Y15650D03*
X17650Y29950D03*
X43850D03*
X56850Y30150D03*
X30850Y29950D03*
X55050Y53200D03*
X65050D03*
X64850Y84375D03*
X84750Y147150D03*
X80350Y175650D03*
X61850Y176250D03*
X69400Y211950D03*
X79400D03*
X90550Y53250D03*
X100550D03*
X90700Y94650D03*
X100700D03*
X90750Y108250D03*
X100750D03*
X90950Y121550D03*
X100950D03*
X98650Y147250D03*
X112375Y147350D03*
X133450Y-350D03*
Y9650D03*
Y-10350D03*
Y39650D03*
X143450Y19650D03*
X133450D03*
Y29650D03*
X177450Y6550D03*
X192000Y6700D03*
X207250Y94250D03*
X217575Y2800D03*
X216550Y37950D03*
X216500Y24200D03*
X217650Y51550D03*
X227650D03*
X220550Y94450D03*
G54D34*
X99581Y173476D03*
X101550Y170110D03*
X103519Y173476D03*
X117511Y185413D03*
Y189350D03*
Y193287D03*
X101550Y208590D03*
X99581Y205224D03*
G54D43*
X213350Y213050D03*
Y216950D03*
G54D53*
G01X-21701Y-176250D02*
Y-171530D01*
X-19459D01*
G01X-20285Y-173811D02*
X-21701D01*
G01X-17040Y-176250D02*
Y-171530D01*
X-15565D01*
X-15093Y-171766D01*
X-14798Y-172081D01*
X-14680Y-172710D01*
X-14798Y-173339D01*
X-15152Y-173733D01*
X-15565Y-173969D01*
X-17040D01*
G01X-15565D02*
X-14680Y-176250D01*
G01X-9960D02*
X-12320D01*
Y-171530D01*
X-9960D01*
G01X-10904Y-173811D02*
X-12320D01*
G01X-5240Y-176250D02*
X-7600D01*
Y-171530D01*
X-5240D01*
G01X-6184Y-173811D02*
X-7600D01*
G01X-2939Y-175621D02*
X-2467Y-176014D01*
X-1936Y-176250D01*
X-1464D01*
X-992Y-176014D01*
X-638Y-175621D01*
X-461Y-175070D01*
X-579Y-174519D01*
X-874Y-174047D01*
X-1405Y-173733D01*
X-2113Y-173575D01*
X-2526Y-173261D01*
X-2703Y-172710D01*
X-2585Y-172159D01*
X-2290Y-171766D01*
X-1877Y-171530D01*
X-1464D01*
X-1051Y-171687D01*
X-697Y-172081D01*
G01X4318Y-171923D02*
X3964Y-171687D01*
X3551Y-171530D01*
X3079D01*
X2548Y-171766D01*
X2135Y-172159D01*
X1840Y-172631D01*
X1604Y-173418D01*
X1545Y-174126D01*
X1663Y-174834D01*
X1840Y-175306D01*
X2194Y-175778D01*
X2607Y-176093D01*
X3020Y-176250D01*
X3433D01*
X3846Y-176093D01*
X4200Y-175857D01*
X4495Y-175542D01*
G01X6265Y-176250D02*
X7740Y-171530D01*
X9215Y-176250D01*
G01X8684Y-174598D02*
X6796D01*
G01X11280Y-171530D02*
Y-176250D01*
X13640D01*
G01X18360D02*
X16000D01*
Y-171530D01*
X18360D01*
G01X17416Y-173811D02*
X16000D01*
G01X21900Y-176407D02*
X21782Y-176329D01*
Y-176171D01*
X21900Y-176093D01*
X22018Y-176171D01*
Y-176329D01*
X21900Y-176407D01*
G01X-29819Y-186621D02*
X-29347Y-187014D01*
X-28816Y-187250D01*
X-28344D01*
X-27872Y-187014D01*
X-27518Y-186621D01*
X-27341Y-186070D01*
X-27459Y-185519D01*
X-27754Y-185047D01*
X-28285Y-184733D01*
X-28993Y-184575D01*
X-29406Y-184261D01*
X-29583Y-183710D01*
X-29465Y-183159D01*
X-29170Y-182766D01*
X-28757Y-182530D01*
X-28344D01*
X-27931Y-182687D01*
X-27577Y-183081D01*
G01X-25099Y-187250D02*
Y-182530D01*
G01X-22621D02*
Y-187250D01*
G01Y-184890D02*
X-25099D01*
G01X-17960Y-187250D02*
X-20320D01*
Y-182530D01*
X-17960D01*
G01X-18904Y-184811D02*
X-20320D01*
G01X-13240Y-187250D02*
X-15600D01*
Y-182530D01*
X-13240D01*
G01X-14184Y-184811D02*
X-15600D01*
G01X-9700Y-182530D02*
Y-187250D01*
G01X-11057Y-182530D02*
X-8343D01*
G01X-21580Y-168250D02*
X-22052Y-168171D01*
X-22465Y-167857D01*
X-22819Y-167385D01*
X-23055Y-166834D01*
X-23173Y-166205D01*
Y-165575D01*
X-23055Y-164946D01*
X-22819Y-164395D01*
X-22465Y-163923D01*
X-22052Y-163609D01*
X-21580Y-163530D01*
X-21108Y-163609D01*
X-20695Y-163923D01*
X-20341Y-164395D01*
X-20105Y-164946D01*
X-19987Y-165575D01*
Y-166205D01*
X-20105Y-166834D01*
X-20341Y-167385D01*
X-20695Y-167857D01*
X-21108Y-168171D01*
X-21580Y-168250D01*
G01X-18040D02*
Y-163530D01*
X-16565D01*
X-16093Y-163766D01*
X-15798Y-164081D01*
X-15680Y-164710D01*
X-15798Y-165339D01*
X-16152Y-165733D01*
X-16565Y-165969D01*
X-18040D01*
G01X-16565D02*
X-15680Y-168250D01*
G01X-8128Y-163530D02*
X-6712D01*
G01X-7420D02*
Y-168250D01*
G01X-8128D02*
X-6712D01*
G01X-4057D02*
Y-163530D01*
X-1343Y-168250D01*
Y-163530D01*
G01X5560Y-168250D02*
Y-163530D01*
X6976D01*
X7448Y-163766D01*
X7802Y-164317D01*
X7920Y-164946D01*
X7802Y-165575D01*
X7507Y-166047D01*
X6976Y-166283D01*
X5560D01*
G01X9985Y-168250D02*
X11460Y-163530D01*
X12935Y-168250D01*
G01X12404Y-166598D02*
X10516D01*
G01X15000Y-168250D02*
Y-163530D01*
X16475D01*
X16947Y-163766D01*
X17242Y-164081D01*
X17360Y-164710D01*
X17242Y-165339D01*
X16888Y-165733D01*
X16475Y-165969D01*
X15000D01*
G01X16475D02*
X17360Y-168250D01*
G01X20900Y-163530D02*
Y-168250D01*
G01X19543Y-163530D02*
X22257D01*
G01X28570D02*
X29396Y-168250D01*
X30340Y-163530D01*
X31284Y-168250D01*
X32110Y-163530D01*
G01X34352D02*
X35768D01*
G01X35060D02*
Y-168250D01*
G01X34352D02*
X35768D01*
G01X39780Y-163530D02*
Y-168250D01*
G01X38423Y-163530D02*
X41137D01*
G01X43261Y-168250D02*
Y-163530D01*
G01X45739D02*
Y-168250D01*
G01Y-165890D02*
X43261D01*
G01X49220Y-168250D02*
X48748Y-168171D01*
X48335Y-167857D01*
X47981Y-167385D01*
X47745Y-166834D01*
X47627Y-166205D01*
Y-165575D01*
X47745Y-164946D01*
X47981Y-164395D01*
X48335Y-163923D01*
X48748Y-163609D01*
X49220Y-163530D01*
X49692Y-163609D01*
X50105Y-163923D01*
X50459Y-164395D01*
X50695Y-164946D01*
X50813Y-165575D01*
Y-166205D01*
X50695Y-166834D01*
X50459Y-167385D01*
X50105Y-167857D01*
X49692Y-168171D01*
X49220Y-168250D01*
G01X52642Y-163530D02*
Y-166913D01*
X52878Y-167621D01*
X53350Y-168093D01*
X53940Y-168250D01*
X54530Y-168093D01*
X55002Y-167621D01*
X55238Y-166913D01*
Y-163530D01*
G01X58660D02*
Y-168250D01*
G01X57303Y-163530D02*
X60017D01*
G01X68100D02*
Y-168250D01*
G01X66743Y-163530D02*
X69457D01*
G01X71581Y-168250D02*
Y-163530D01*
G01X74059D02*
Y-168250D01*
G01Y-165890D02*
X71581D01*
G01X78720Y-168250D02*
X76360D01*
Y-163530D01*
X78720D01*
G01X77776Y-165811D02*
X76360D01*
G01X88278Y-163923D02*
X87924Y-163687D01*
X87511Y-163530D01*
X87039D01*
X86508Y-163766D01*
X86095Y-164159D01*
X85800Y-164631D01*
X85564Y-165418D01*
X85505Y-166126D01*
X85623Y-166834D01*
X85800Y-167306D01*
X86154Y-167778D01*
X86567Y-168093D01*
X86980Y-168250D01*
X87393D01*
X87806Y-168093D01*
X88160Y-167857D01*
X88455Y-167542D01*
G01X91700Y-168250D02*
X91228Y-168171D01*
X90815Y-167857D01*
X90461Y-167385D01*
X90225Y-166834D01*
X90107Y-166205D01*
Y-165575D01*
X90225Y-164946D01*
X90461Y-164395D01*
X90815Y-163923D01*
X91228Y-163609D01*
X91700Y-163530D01*
X92172Y-163609D01*
X92585Y-163923D01*
X92939Y-164395D01*
X93175Y-164946D01*
X93293Y-165575D01*
Y-166205D01*
X93175Y-166834D01*
X92939Y-167385D01*
X92585Y-167857D01*
X92172Y-168171D01*
X91700Y-168250D01*
G01X95063D02*
Y-163530D01*
X97777Y-168250D01*
Y-163530D01*
G01X99901Y-167621D02*
X100373Y-168014D01*
X100904Y-168250D01*
X101376D01*
X101848Y-168014D01*
X102202Y-167621D01*
X102379Y-167070D01*
X102261Y-166519D01*
X101966Y-166047D01*
X101435Y-165733D01*
X100727Y-165575D01*
X100314Y-165261D01*
X100137Y-164710D01*
X100255Y-164159D01*
X100550Y-163766D01*
X100963Y-163530D01*
X101376D01*
X101789Y-163687D01*
X102143Y-164081D01*
G01X107040Y-168250D02*
X104680D01*
Y-163530D01*
X107040D01*
G01X106096Y-165811D02*
X104680D01*
G01X109223Y-168250D02*
Y-163530D01*
X111937Y-168250D01*
Y-163530D01*
G01X115300D02*
Y-168250D01*
G01X113943Y-163530D02*
X116657D01*
G01X124740Y-168250D02*
X124268Y-168171D01*
X123855Y-167857D01*
X123501Y-167385D01*
X123265Y-166834D01*
X123147Y-166205D01*
Y-165575D01*
X123265Y-164946D01*
X123501Y-164395D01*
X123855Y-163923D01*
X124268Y-163609D01*
X124740Y-163530D01*
X125212Y-163609D01*
X125625Y-163923D01*
X125979Y-164395D01*
X126215Y-164946D01*
X126333Y-165575D01*
Y-166205D01*
X126215Y-166834D01*
X125979Y-167385D01*
X125625Y-167857D01*
X125212Y-168171D01*
X124740Y-168250D01*
G01X128339D02*
Y-163530D01*
X130581D01*
G01X129755Y-165811D02*
X128339D01*
G01X-22760Y-160250D02*
Y-155530D01*
X-21344D01*
X-20872Y-155766D01*
X-20518Y-156317D01*
X-20400Y-156946D01*
X-20518Y-157575D01*
X-20813Y-158047D01*
X-21344Y-158283D01*
X-22760D01*
G01X-18040Y-160250D02*
Y-155530D01*
X-16565D01*
X-16093Y-155766D01*
X-15798Y-156081D01*
X-15680Y-156710D01*
X-15798Y-157339D01*
X-16152Y-157733D01*
X-16565Y-157969D01*
X-18040D01*
G01X-16565D02*
X-15680Y-160250D01*
G01X-12140D02*
X-12612Y-160171D01*
X-13025Y-159857D01*
X-13379Y-159385D01*
X-13615Y-158834D01*
X-13733Y-158205D01*
Y-157575D01*
X-13615Y-156946D01*
X-13379Y-156395D01*
X-13025Y-155923D01*
X-12612Y-155609D01*
X-12140Y-155530D01*
X-11668Y-155609D01*
X-11255Y-155923D01*
X-10901Y-156395D01*
X-10665Y-156946D01*
X-10547Y-157575D01*
Y-158205D01*
X-10665Y-158834D01*
X-10901Y-159385D01*
X-11255Y-159857D01*
X-11668Y-160171D01*
X-12140Y-160250D01*
G01X-6122Y-155923D02*
X-6476Y-155687D01*
X-6889Y-155530D01*
X-7361D01*
X-7892Y-155766D01*
X-8305Y-156159D01*
X-8600Y-156631D01*
X-8836Y-157418D01*
X-8895Y-158126D01*
X-8777Y-158834D01*
X-8600Y-159306D01*
X-8246Y-159778D01*
X-7833Y-160093D01*
X-7420Y-160250D01*
X-7007D01*
X-6594Y-160093D01*
X-6240Y-159857D01*
X-5945Y-159542D01*
G01X-3998Y-155530D02*
Y-158913D01*
X-3762Y-159621D01*
X-3290Y-160093D01*
X-2700Y-160250D01*
X-2110Y-160093D01*
X-1638Y-159621D01*
X-1402Y-158913D01*
Y-155530D01*
G01X840Y-160250D02*
Y-155530D01*
X2315D01*
X2787Y-155766D01*
X3082Y-156081D01*
X3200Y-156710D01*
X3082Y-157339D01*
X2728Y-157733D01*
X2315Y-157969D01*
X840D01*
G01X2315D02*
X3200Y-160250D01*
G01X7920D02*
X5560D01*
Y-155530D01*
X7920D01*
G01X6976Y-157811D02*
X5560D01*
G01X9926Y-160250D02*
Y-155530D01*
X11460Y-159463D01*
X12994Y-155530D01*
Y-160250D01*
G01X17360D02*
X15000D01*
Y-155530D01*
X17360D01*
G01X16416Y-157811D02*
X15000D01*
G01X19543Y-160250D02*
Y-155530D01*
X22257Y-160250D01*
Y-155530D01*
G01X25620D02*
Y-160250D01*
G01X24263Y-155530D02*
X26977D01*
G01X35060Y-160250D02*
X34588Y-160171D01*
X34175Y-159857D01*
X33821Y-159385D01*
X33585Y-158834D01*
X33467Y-158205D01*
Y-157575D01*
X33585Y-156946D01*
X33821Y-156395D01*
X34175Y-155923D01*
X34588Y-155609D01*
X35060Y-155530D01*
X35532Y-155609D01*
X35945Y-155923D01*
X36299Y-156395D01*
X36535Y-156946D01*
X36653Y-157575D01*
Y-158205D01*
X36535Y-158834D01*
X36299Y-159385D01*
X35945Y-159857D01*
X35532Y-160171D01*
X35060Y-160250D01*
G01X38600D02*
Y-155530D01*
X40075D01*
X40547Y-155766D01*
X40842Y-156081D01*
X40960Y-156710D01*
X40842Y-157339D01*
X40488Y-157733D01*
X40075Y-157969D01*
X38600D01*
G01X40075D02*
X40960Y-160250D01*
G01X47686D02*
Y-155530D01*
X49220Y-159463D01*
X50754Y-155530D01*
Y-160250D01*
G01X52465D02*
X53940Y-155530D01*
X55415Y-160250D01*
G01X54884Y-158598D02*
X52996D01*
G01X57303Y-160250D02*
Y-155530D01*
X60017Y-160250D01*
Y-155530D01*
G01X62082D02*
Y-158913D01*
X62318Y-159621D01*
X62790Y-160093D01*
X63380Y-160250D01*
X63970Y-160093D01*
X64442Y-159621D01*
X64678Y-158913D01*
Y-155530D01*
G01X66979Y-160250D02*
Y-155530D01*
X69221D01*
G01X68395Y-157811D02*
X66979D01*
G01X71345Y-160250D02*
X72820Y-155530D01*
X74295Y-160250D01*
G01X73764Y-158598D02*
X71876D01*
G01X78838Y-155923D02*
X78484Y-155687D01*
X78071Y-155530D01*
X77599D01*
X77068Y-155766D01*
X76655Y-156159D01*
X76360Y-156631D01*
X76124Y-157418D01*
X76065Y-158126D01*
X76183Y-158834D01*
X76360Y-159306D01*
X76714Y-159778D01*
X77127Y-160093D01*
X77540Y-160250D01*
X77953D01*
X78366Y-160093D01*
X78720Y-159857D01*
X79015Y-159542D01*
G01X82260Y-155530D02*
Y-160250D01*
G01X80903Y-155530D02*
X83617D01*
G01X85682D02*
Y-158913D01*
X85918Y-159621D01*
X86390Y-160093D01*
X86980Y-160250D01*
X87570Y-160093D01*
X88042Y-159621D01*
X88278Y-158913D01*
Y-155530D01*
G01X90520Y-160250D02*
Y-155530D01*
X91995D01*
X92467Y-155766D01*
X92762Y-156081D01*
X92880Y-156710D01*
X92762Y-157339D01*
X92408Y-157733D01*
X91995Y-157969D01*
X90520D01*
G01X91995D02*
X92880Y-160250D01*
G01X97600D02*
X95240D01*
Y-155530D01*
X97600D01*
G01X96656Y-157811D02*
X95240D01*
G01X105152Y-155530D02*
X106568D01*
G01X105860D02*
Y-160250D01*
G01X105152D02*
X106568D01*
G01X109223D02*
Y-155530D01*
X111937Y-160250D01*
Y-155530D01*
G01X118250D02*
X119076Y-160250D01*
X120020Y-155530D01*
X120964Y-160250D01*
X121790Y-155530D01*
G01X123501Y-160250D02*
Y-155530D01*
G01X125979D02*
Y-160250D01*
G01Y-157890D02*
X123501D01*
G01X129460Y-160250D02*
X128988Y-160171D01*
X128575Y-159857D01*
X128221Y-159385D01*
X127985Y-158834D01*
X127867Y-158205D01*
Y-157575D01*
X127985Y-156946D01*
X128221Y-156395D01*
X128575Y-155923D01*
X128988Y-155609D01*
X129460Y-155530D01*
X129932Y-155609D01*
X130345Y-155923D01*
X130699Y-156395D01*
X130935Y-156946D01*
X131053Y-157575D01*
Y-158205D01*
X130935Y-158834D01*
X130699Y-159385D01*
X130345Y-159857D01*
X129932Y-160171D01*
X129460Y-160250D01*
G01X133000Y-155530D02*
Y-160250D01*
X135360D01*
G01X140080D02*
X137720D01*
Y-155530D01*
X140080D01*
G01X139136Y-157811D02*
X137720D01*
G01X-22937Y-152250D02*
Y-147530D01*
X-20223Y-152250D01*
Y-147530D01*
G01X-16860Y-152250D02*
X-17332Y-152171D01*
X-17745Y-151857D01*
X-18099Y-151385D01*
X-18335Y-150834D01*
X-18453Y-150205D01*
Y-149575D01*
X-18335Y-148946D01*
X-18099Y-148395D01*
X-17745Y-147923D01*
X-17332Y-147609D01*
X-16860Y-147530D01*
X-16388Y-147609D01*
X-15975Y-147923D01*
X-15621Y-148395D01*
X-15385Y-148946D01*
X-15267Y-149575D01*
Y-150205D01*
X-15385Y-150834D01*
X-15621Y-151385D01*
X-15975Y-151857D01*
X-16388Y-152171D01*
X-16860Y-152250D01*
G01X-12140Y-147530D02*
Y-152250D01*
G01X-13497Y-147530D02*
X-10783D01*
G01X-2228Y-149733D02*
X-1992Y-149497D01*
X-1815Y-149103D01*
X-1697Y-148553D01*
X-1815Y-148081D01*
X-2051Y-147766D01*
X-2464Y-147530D01*
X-4057D01*
Y-152250D01*
X-2110D01*
X-1697Y-151935D01*
X-1461Y-151463D01*
X-1343Y-150913D01*
X-1461Y-150362D01*
X-1815Y-149890D01*
X-2228Y-149733D01*
X-4057D01*
G01X3200Y-152250D02*
X840D01*
Y-147530D01*
X3200D01*
G01X2256Y-149811D02*
X840D01*
G01X10162Y-147530D02*
Y-150913D01*
X10398Y-151621D01*
X10870Y-152093D01*
X11460Y-152250D01*
X12050Y-152093D01*
X12522Y-151621D01*
X12758Y-150913D01*
Y-147530D01*
G01X14941Y-151621D02*
X15413Y-152014D01*
X15944Y-152250D01*
X16416D01*
X16888Y-152014D01*
X17242Y-151621D01*
X17419Y-151070D01*
X17301Y-150519D01*
X17006Y-150047D01*
X16475Y-149733D01*
X15767Y-149575D01*
X15354Y-149261D01*
X15177Y-148710D01*
X15295Y-148159D01*
X15590Y-147766D01*
X16003Y-147530D01*
X16416D01*
X16829Y-147687D01*
X17183Y-148081D01*
G01X22080Y-152250D02*
X19720D01*
Y-147530D01*
X22080D01*
G01X21136Y-149811D02*
X19720D01*
G01X24322Y-152250D02*
Y-147530D01*
X25502D01*
X25974Y-147766D01*
X26328Y-148081D01*
X26623Y-148553D01*
X26859Y-149103D01*
X26918Y-149890D01*
X26859Y-150677D01*
X26623Y-151227D01*
X26328Y-151699D01*
X25974Y-152014D01*
X25502Y-152250D01*
X24322D01*
G01X33939D02*
Y-147530D01*
X36181D01*
G01X35355Y-149811D02*
X33939D01*
G01X39780Y-152250D02*
X39308Y-152171D01*
X38895Y-151857D01*
X38541Y-151385D01*
X38305Y-150834D01*
X38187Y-150205D01*
Y-149575D01*
X38305Y-148946D01*
X38541Y-148395D01*
X38895Y-147923D01*
X39308Y-147609D01*
X39780Y-147530D01*
X40252Y-147609D01*
X40665Y-147923D01*
X41019Y-148395D01*
X41255Y-148946D01*
X41373Y-149575D01*
Y-150205D01*
X41255Y-150834D01*
X41019Y-151385D01*
X40665Y-151857D01*
X40252Y-152171D01*
X39780Y-152250D01*
G01X43320D02*
Y-147530D01*
X44795D01*
X45267Y-147766D01*
X45562Y-148081D01*
X45680Y-148710D01*
X45562Y-149339D01*
X45208Y-149733D01*
X44795Y-149969D01*
X43320D01*
G01X44795D02*
X45680Y-152250D01*
G01X55120D02*
X52760D01*
Y-147530D01*
X55120D01*
G01X54176Y-149811D02*
X52760D01*
G01X57303Y-152250D02*
Y-147530D01*
X60017Y-152250D01*
Y-147530D01*
G01X63734Y-149890D02*
X64914D01*
Y-151306D01*
X64560Y-151778D01*
X64147Y-152093D01*
X63557Y-152250D01*
X62967Y-152093D01*
X62554Y-151778D01*
X62200Y-151306D01*
X61964Y-150755D01*
X61846Y-150126D01*
Y-149575D01*
X61964Y-149103D01*
X62200Y-148553D01*
X62554Y-148081D01*
X62908Y-147766D01*
X63380Y-147530D01*
X63793D01*
X64265Y-147687D01*
X64619Y-148002D01*
G01X67392Y-147530D02*
X68808D01*
G01X68100D02*
Y-152250D01*
G01X67392D02*
X68808D01*
G01X71463D02*
Y-147530D01*
X74177Y-152250D01*
Y-147530D01*
G01X78720Y-152250D02*
X76360D01*
Y-147530D01*
X78720D01*
G01X77776Y-149811D02*
X76360D01*
G01X83440Y-152250D02*
X81080D01*
Y-147530D01*
X83440D01*
G01X82496Y-149811D02*
X81080D01*
G01X85800Y-152250D02*
Y-147530D01*
X87275D01*
X87747Y-147766D01*
X88042Y-148081D01*
X88160Y-148710D01*
X88042Y-149339D01*
X87688Y-149733D01*
X87275Y-149969D01*
X85800D01*
G01X87275D02*
X88160Y-152250D01*
G01X90992Y-147530D02*
X92408D01*
G01X91700D02*
Y-152250D01*
G01X90992D02*
X92408D01*
G01X95063D02*
Y-147530D01*
X97777Y-152250D01*
Y-147530D01*
G01X101494Y-149890D02*
X102674D01*
Y-151306D01*
X102320Y-151778D01*
X101907Y-152093D01*
X101317Y-152250D01*
X100727Y-152093D01*
X100314Y-151778D01*
X99960Y-151306D01*
X99724Y-150755D01*
X99606Y-150126D01*
Y-149575D01*
X99724Y-149103D01*
X99960Y-148553D01*
X100314Y-148081D01*
X100668Y-147766D01*
X101140Y-147530D01*
X101553D01*
X102025Y-147687D01*
X102379Y-148002D01*
G01X109282Y-152250D02*
Y-147530D01*
X110462D01*
X110934Y-147766D01*
X111288Y-148081D01*
X111583Y-148553D01*
X111819Y-149103D01*
X111878Y-149890D01*
X111819Y-150677D01*
X111583Y-151227D01*
X111288Y-151699D01*
X110934Y-152014D01*
X110462Y-152250D01*
X109282D01*
G01X116480D02*
X114120D01*
Y-147530D01*
X116480D01*
G01X115536Y-149811D02*
X114120D01*
G01X118781Y-151621D02*
X119253Y-152014D01*
X119784Y-152250D01*
X120256D01*
X120728Y-152014D01*
X121082Y-151621D01*
X121259Y-151070D01*
X121141Y-150519D01*
X120846Y-150047D01*
X120315Y-149733D01*
X119607Y-149575D01*
X119194Y-149261D01*
X119017Y-148710D01*
X119135Y-148159D01*
X119430Y-147766D01*
X119843Y-147530D01*
X120256D01*
X120669Y-147687D01*
X121023Y-148081D01*
G01X124032Y-147530D02*
X125448D01*
G01X124740D02*
Y-152250D01*
G01X124032D02*
X125448D01*
G01X129814Y-149890D02*
X130994D01*
Y-151306D01*
X130640Y-151778D01*
X130227Y-152093D01*
X129637Y-152250D01*
X129047Y-152093D01*
X128634Y-151778D01*
X128280Y-151306D01*
X128044Y-150755D01*
X127926Y-150126D01*
Y-149575D01*
X128044Y-149103D01*
X128280Y-148553D01*
X128634Y-148081D01*
X128988Y-147766D01*
X129460Y-147530D01*
X129873D01*
X130345Y-147687D01*
X130699Y-148002D01*
G01X132823Y-152250D02*
Y-147530D01*
X135537Y-152250D01*
Y-147530D01*
G01X-22760Y-144250D02*
Y-139530D01*
X-21344D01*
X-20872Y-139766D01*
X-20518Y-140317D01*
X-20400Y-140946D01*
X-20518Y-141575D01*
X-20813Y-142047D01*
X-21344Y-142283D01*
X-22760D01*
G01X-18040Y-144250D02*
Y-139530D01*
X-16565D01*
X-16093Y-139766D01*
X-15798Y-140081D01*
X-15680Y-140710D01*
X-15798Y-141339D01*
X-16152Y-141733D01*
X-16565Y-141969D01*
X-18040D01*
G01X-16565D02*
X-15680Y-144250D01*
G01X-12140D02*
X-12612Y-144171D01*
X-13025Y-143857D01*
X-13379Y-143385D01*
X-13615Y-142834D01*
X-13733Y-142205D01*
Y-141575D01*
X-13615Y-140946D01*
X-13379Y-140395D01*
X-13025Y-139923D01*
X-12612Y-139609D01*
X-12140Y-139530D01*
X-11668Y-139609D01*
X-11255Y-139923D01*
X-10901Y-140395D01*
X-10665Y-140946D01*
X-10547Y-141575D01*
Y-142205D01*
X-10665Y-142834D01*
X-10901Y-143385D01*
X-11255Y-143857D01*
X-11668Y-144171D01*
X-12140Y-144250D01*
G01X-8600D02*
Y-139530D01*
X-7184D01*
X-6712Y-139766D01*
X-6358Y-140317D01*
X-6240Y-140946D01*
X-6358Y-141575D01*
X-6653Y-142047D01*
X-7184Y-142283D01*
X-8600D01*
G01X-3880Y-144250D02*
Y-139530D01*
X-2405D01*
X-1933Y-139766D01*
X-1638Y-140081D01*
X-1520Y-140710D01*
X-1638Y-141339D01*
X-1992Y-141733D01*
X-2405Y-141969D01*
X-3880D01*
G01X-2405D02*
X-1520Y-144250D01*
G01X1312Y-139530D02*
X2728D01*
G01X2020D02*
Y-144250D01*
G01X1312D02*
X2728D01*
G01X7920D02*
X5560D01*
Y-139530D01*
X7920D01*
G01X6976Y-141811D02*
X5560D01*
G01X11460Y-139530D02*
Y-144250D01*
G01X10103Y-139530D02*
X12817D01*
G01X14705Y-144250D02*
X16180Y-139530D01*
X17655Y-144250D01*
G01X17124Y-142598D02*
X15236D01*
G01X19720Y-144250D02*
Y-139530D01*
X21195D01*
X21667Y-139766D01*
X21962Y-140081D01*
X22080Y-140710D01*
X21962Y-141339D01*
X21608Y-141733D01*
X21195Y-141969D01*
X19720D01*
G01X21195D02*
X22080Y-144250D01*
G01X25620D02*
Y-142126D01*
X24440Y-139530D01*
G01X26800D02*
X25620Y-142126D01*
G01X35060Y-139530D02*
Y-144250D01*
G01X33703Y-139530D02*
X36417D01*
G01X39780Y-144250D02*
X39308Y-144171D01*
X38895Y-143857D01*
X38541Y-143385D01*
X38305Y-142834D01*
X38187Y-142205D01*
Y-141575D01*
X38305Y-140946D01*
X38541Y-140395D01*
X38895Y-139923D01*
X39308Y-139609D01*
X39780Y-139530D01*
X40252Y-139609D01*
X40665Y-139923D01*
X41019Y-140395D01*
X41255Y-140946D01*
X41373Y-141575D01*
Y-142205D01*
X41255Y-142834D01*
X41019Y-143385D01*
X40665Y-143857D01*
X40252Y-144171D01*
X39780Y-144250D01*
G01X48099D02*
Y-139530D01*
X50341D01*
G01X49515Y-141811D02*
X48099D01*
G01X52760Y-144250D02*
Y-139530D01*
X54235D01*
X54707Y-139766D01*
X55002Y-140081D01*
X55120Y-140710D01*
X55002Y-141339D01*
X54648Y-141733D01*
X54235Y-141969D01*
X52760D01*
G01X54235D02*
X55120Y-144250D01*
G01X59840D02*
X57480D01*
Y-139530D01*
X59840D01*
G01X58896Y-141811D02*
X57480D01*
G01X64560Y-144250D02*
X62200D01*
Y-139530D01*
X64560D01*
G01X63616Y-141811D02*
X62200D01*
G01X66861Y-143621D02*
X67333Y-144014D01*
X67864Y-144250D01*
X68336D01*
X68808Y-144014D01*
X69162Y-143621D01*
X69339Y-143070D01*
X69221Y-142519D01*
X68926Y-142047D01*
X68395Y-141733D01*
X67687Y-141575D01*
X67274Y-141261D01*
X67097Y-140710D01*
X67215Y-140159D01*
X67510Y-139766D01*
X67923Y-139530D01*
X68336D01*
X68749Y-139687D01*
X69103Y-140081D01*
G01X74118Y-139923D02*
X73764Y-139687D01*
X73351Y-139530D01*
X72879D01*
X72348Y-139766D01*
X71935Y-140159D01*
X71640Y-140631D01*
X71404Y-141418D01*
X71345Y-142126D01*
X71463Y-142834D01*
X71640Y-143306D01*
X71994Y-143778D01*
X72407Y-144093D01*
X72820Y-144250D01*
X73233D01*
X73646Y-144093D01*
X74000Y-143857D01*
X74295Y-143542D01*
G01X76065Y-144250D02*
X77540Y-139530D01*
X79015Y-144250D01*
G01X78484Y-142598D02*
X76596D01*
G01X81080Y-139530D02*
Y-144250D01*
X83440D01*
G01X88160D02*
X85800D01*
Y-139530D01*
X88160D01*
G01X87216Y-141811D02*
X85800D01*
G01X94945Y-144250D02*
X96420Y-139530D01*
X97895Y-144250D01*
G01X97364Y-142598D02*
X95476D01*
G01X99783Y-144250D02*
Y-139530D01*
X102497Y-144250D01*
Y-139530D01*
G01X104562Y-144250D02*
Y-139530D01*
X105742D01*
X106214Y-139766D01*
X106568Y-140081D01*
X106863Y-140553D01*
X107099Y-141103D01*
X107158Y-141890D01*
X107099Y-142677D01*
X106863Y-143227D01*
X106568Y-143699D01*
X106214Y-144014D01*
X105742Y-144250D01*
X104562D01*
G01X114061Y-143621D02*
X114533Y-144014D01*
X115064Y-144250D01*
X115536D01*
X116008Y-144014D01*
X116362Y-143621D01*
X116539Y-143070D01*
X116421Y-142519D01*
X116126Y-142047D01*
X115595Y-141733D01*
X114887Y-141575D01*
X114474Y-141261D01*
X114297Y-140710D01*
X114415Y-140159D01*
X114710Y-139766D01*
X115123Y-139530D01*
X115536D01*
X115949Y-139687D01*
X116303Y-140081D01*
G01X118781Y-144250D02*
Y-139530D01*
G01X121259D02*
Y-144250D01*
G01Y-141890D02*
X118781D01*
G01X123265Y-144250D02*
X124740Y-139530D01*
X126215Y-144250D01*
G01X125684Y-142598D02*
X123796D01*
G01X128280Y-139530D02*
Y-144250D01*
X130640D01*
G01X133000Y-139530D02*
Y-144250D01*
X135360D01*
G01X-30055Y-126250D02*
X-28580Y-121530D01*
X-27105Y-126250D01*
G01X-27636Y-124598D02*
X-29524D01*
G01X-25158Y-121530D02*
Y-124913D01*
X-24922Y-125621D01*
X-24450Y-126093D01*
X-23860Y-126250D01*
X-23270Y-126093D01*
X-22798Y-125621D01*
X-22562Y-124913D01*
Y-121530D01*
G01X-20379Y-125621D02*
X-19907Y-126014D01*
X-19376Y-126250D01*
X-18904D01*
X-18432Y-126014D01*
X-18078Y-125621D01*
X-17901Y-125070D01*
X-18019Y-124519D01*
X-18314Y-124047D01*
X-18845Y-123733D01*
X-19553Y-123575D01*
X-19966Y-123261D01*
X-20143Y-122710D01*
X-20025Y-122159D01*
X-19730Y-121766D01*
X-19317Y-121530D01*
X-18904D01*
X-18491Y-121687D01*
X-18137Y-122081D01*
G01X-14420Y-121530D02*
Y-126250D01*
G01X-15777Y-121530D02*
X-13063D01*
G01X-10408D02*
X-8992D01*
G01X-9700D02*
Y-126250D01*
G01X-10408D02*
X-8992D01*
G01X-6337D02*
Y-121530D01*
X-3623Y-126250D01*
Y-121530D01*
G01X-260Y-126407D02*
X-378Y-126329D01*
Y-126171D01*
X-260Y-126093D01*
X-142Y-126171D01*
Y-126329D01*
X-260Y-126407D01*
G01X9180Y-121530D02*
Y-126250D01*
G01X7823Y-121530D02*
X10537D01*
G01X15080Y-126250D02*
X12720D01*
Y-121530D01*
X15080D01*
G01X14136Y-123811D02*
X12720D01*
G01X17381Y-126250D02*
X19859Y-121530D01*
G01X17381D02*
X19859Y-126250D01*
G01X21865D02*
X23340Y-121530D01*
X24815Y-126250D01*
G01X24284Y-124598D02*
X22396D01*
G01X26821Y-125621D02*
X27293Y-126014D01*
X27824Y-126250D01*
X28296D01*
X28768Y-126014D01*
X29122Y-125621D01*
X29299Y-125070D01*
X29181Y-124519D01*
X28886Y-124047D01*
X28355Y-123733D01*
X27647Y-123575D01*
X27234Y-123261D01*
X27057Y-122710D01*
X27175Y-122159D01*
X27470Y-121766D01*
X27883Y-121530D01*
X28296D01*
X28709Y-121687D01*
X29063Y-122081D01*
G01X37382Y-126250D02*
X37500Y-125227D01*
X37677Y-124362D01*
X37913Y-123575D01*
X38208Y-122710D01*
X38680Y-121530D01*
X36320D01*
G01X42220Y-126250D02*
X42633Y-126171D01*
X43105Y-125935D01*
X43400Y-125542D01*
X43518Y-124991D01*
X43400Y-124441D01*
X43046Y-123969D01*
X42515Y-123733D01*
X41925D01*
X41571Y-123575D01*
X41276Y-123182D01*
X41158Y-122631D01*
X41335Y-122081D01*
X41748Y-121687D01*
X42220Y-121530D01*
X42692Y-121687D01*
X43105Y-122081D01*
X43282Y-122631D01*
X43164Y-123182D01*
X42869Y-123575D01*
X42515Y-123733D01*
X41925D01*
X41394Y-123969D01*
X41040Y-124441D01*
X40922Y-124991D01*
X41040Y-125542D01*
X41335Y-125935D01*
X41807Y-126171D01*
X42220Y-126250D01*
G01X46822D02*
X46940Y-125227D01*
X47117Y-124362D01*
X47353Y-123575D01*
X47648Y-122710D01*
X48120Y-121530D01*
X45760D01*
G01X50362Y-125306D02*
X50716Y-125857D01*
X51188Y-126171D01*
X51719Y-126250D01*
X52191Y-126171D01*
X52663Y-125778D01*
X52958Y-125306D01*
X53017Y-124834D01*
X52899Y-124283D01*
X52486Y-123890D01*
X52073Y-123733D01*
X51542D01*
G01X52073D02*
X52427Y-123497D01*
X52722Y-123103D01*
X52840Y-122631D01*
X52722Y-122159D01*
X52427Y-121766D01*
X51896Y-121530D01*
X51365Y-121609D01*
X50834Y-121923D01*
G01X55082Y-125542D02*
X55436Y-125935D01*
X55849Y-126171D01*
X56380Y-126250D01*
X56911Y-126093D01*
X57324Y-125778D01*
X57619Y-125227D01*
X57678Y-124598D01*
X57560Y-123969D01*
X57265Y-123575D01*
X56852Y-123261D01*
X56439Y-123182D01*
X56026Y-123261D01*
X55495Y-123575D01*
X55672Y-121530D01*
X57265D01*
G01X64522D02*
Y-124913D01*
X64758Y-125621D01*
X65230Y-126093D01*
X65820Y-126250D01*
X66410Y-126093D01*
X66882Y-125621D01*
X67118Y-124913D01*
Y-121530D01*
G01X69301Y-125621D02*
X69773Y-126014D01*
X70304Y-126250D01*
X70776D01*
X71248Y-126014D01*
X71602Y-125621D01*
X71779Y-125070D01*
X71661Y-124519D01*
X71366Y-124047D01*
X70835Y-123733D01*
X70127Y-123575D01*
X69714Y-123261D01*
X69537Y-122710D01*
X69655Y-122159D01*
X69950Y-121766D01*
X70363Y-121530D01*
X70776D01*
X71189Y-121687D01*
X71543Y-122081D01*
G01X73785Y-126250D02*
X75260Y-121530D01*
X76735Y-126250D01*
G01X76204Y-124598D02*
X74316D01*
G01X-29701Y-117283D02*
X-29288Y-116733D01*
X-28934Y-116418D01*
X-28462Y-116261D01*
X-28049Y-116418D01*
X-27754Y-116733D01*
X-27518Y-117205D01*
X-27459Y-117755D01*
X-27518Y-118227D01*
X-27754Y-118699D01*
X-28108Y-119093D01*
X-28521Y-119250D01*
X-28993Y-119093D01*
X-29406Y-118621D01*
X-29642Y-117913D01*
X-29701Y-117126D01*
X-29583Y-116103D01*
X-29406Y-115553D01*
X-29111Y-115002D01*
X-28698Y-114609D01*
X-28285Y-114530D01*
X-27872Y-114687D01*
X-27577Y-115081D01*
G01X-25158Y-118542D02*
X-24804Y-118935D01*
X-24391Y-119171D01*
X-23860Y-119250D01*
X-23329Y-119093D01*
X-22916Y-118778D01*
X-22621Y-118227D01*
X-22562Y-117598D01*
X-22680Y-116969D01*
X-22975Y-116575D01*
X-23388Y-116261D01*
X-23801Y-116182D01*
X-24214Y-116261D01*
X-24745Y-116575D01*
X-24568Y-114530D01*
X-22975D01*
G01X-19140D02*
X-19612Y-114687D01*
X-19966Y-115081D01*
X-20202Y-115553D01*
X-20379Y-116182D01*
X-20438Y-116890D01*
X-20379Y-117598D01*
X-20202Y-118227D01*
X-19966Y-118699D01*
X-19612Y-119093D01*
X-19140Y-119250D01*
X-18668Y-119093D01*
X-18314Y-118699D01*
X-18078Y-118227D01*
X-17901Y-117598D01*
X-17842Y-116890D01*
X-17901Y-116182D01*
X-18078Y-115553D01*
X-18314Y-115081D01*
X-18668Y-114687D01*
X-19140Y-114530D01*
G01X-14420Y-119250D02*
Y-114530D01*
X-15128Y-115474D01*
G01Y-119250D02*
X-13712D01*
G01X-6750Y-114530D02*
X-5924Y-119250D01*
X-4980Y-114530D01*
X-4036Y-119250D01*
X-3210Y-114530D01*
G01X-968D02*
X448D01*
G01X-260D02*
Y-119250D01*
G01X-968D02*
X448D01*
G01X3280Y-114530D02*
Y-119250D01*
X5640D01*
G01X8000Y-114530D02*
Y-119250D01*
X10360D01*
G01X13192Y-114530D02*
X14608D01*
G01X13900D02*
Y-119250D01*
G01X13192D02*
X14608D01*
G01X17145D02*
X18620Y-114530D01*
X20095Y-119250D01*
G01X19564Y-117598D02*
X17676D01*
G01X21806Y-119250D02*
Y-114530D01*
X23340Y-118463D01*
X24874Y-114530D01*
Y-119250D01*
G01X34078Y-114923D02*
X33724Y-114687D01*
X33311Y-114530D01*
X32839D01*
X32308Y-114766D01*
X31895Y-115159D01*
X31600Y-115631D01*
X31364Y-116418D01*
X31305Y-117126D01*
X31423Y-117834D01*
X31600Y-118306D01*
X31954Y-118778D01*
X32367Y-119093D01*
X32780Y-119250D01*
X33193D01*
X33606Y-119093D01*
X33960Y-118857D01*
X34255Y-118542D01*
G01X36025Y-119250D02*
X37500Y-114530D01*
X38975Y-119250D01*
G01X38444Y-117598D02*
X36556D01*
G01X40863Y-119250D02*
Y-114530D01*
X43577Y-119250D01*
Y-114530D01*
G01X45583Y-119250D02*
Y-114530D01*
X48297Y-119250D01*
Y-114530D01*
G01X51660Y-119250D02*
X51188Y-119171D01*
X50775Y-118857D01*
X50421Y-118385D01*
X50185Y-117834D01*
X50067Y-117205D01*
Y-116575D01*
X50185Y-115946D01*
X50421Y-115395D01*
X50775Y-114923D01*
X51188Y-114609D01*
X51660Y-114530D01*
X52132Y-114609D01*
X52545Y-114923D01*
X52899Y-115395D01*
X53135Y-115946D01*
X53253Y-116575D01*
Y-117205D01*
X53135Y-117834D01*
X52899Y-118385D01*
X52545Y-118857D01*
X52132Y-119171D01*
X51660Y-119250D01*
G01X55023D02*
Y-114530D01*
X57737Y-119250D01*
Y-114530D01*
G01X64522Y-119250D02*
Y-114530D01*
X65702D01*
X66174Y-114766D01*
X66528Y-115081D01*
X66823Y-115553D01*
X67059Y-116103D01*
X67118Y-116890D01*
X67059Y-117677D01*
X66823Y-118227D01*
X66528Y-118699D01*
X66174Y-119014D01*
X65702Y-119250D01*
X64522D01*
G01X69360D02*
Y-114530D01*
X70835D01*
X71307Y-114766D01*
X71602Y-115081D01*
X71720Y-115710D01*
X71602Y-116339D01*
X71248Y-116733D01*
X70835Y-116969D01*
X69360D01*
G01X70835D02*
X71720Y-119250D01*
G01X74552Y-114530D02*
X75968D01*
G01X75260D02*
Y-119250D01*
G01X74552D02*
X75968D01*
G01X78505Y-114530D02*
X79980Y-119250D01*
X81455Y-114530D01*
G01X85880Y-119250D02*
X83520D01*
Y-114530D01*
X85880D01*
G01X84936Y-116811D02*
X83520D01*
G01X92370Y-114530D02*
X93196Y-119250D01*
X94140Y-114530D01*
X95084Y-119250D01*
X95910Y-114530D01*
G01X100040Y-119250D02*
X97680D01*
Y-114530D01*
X100040D01*
G01X99096Y-116811D02*
X97680D01*
G01X102341Y-118621D02*
X102813Y-119014D01*
X103344Y-119250D01*
X103816D01*
X104288Y-119014D01*
X104642Y-118621D01*
X104819Y-118070D01*
X104701Y-117519D01*
X104406Y-117047D01*
X103875Y-116733D01*
X103167Y-116575D01*
X102754Y-116261D01*
X102577Y-115710D01*
X102695Y-115159D01*
X102990Y-114766D01*
X103403Y-114530D01*
X103816D01*
X104229Y-114687D01*
X104583Y-115081D01*
G01X108300Y-114530D02*
Y-119250D01*
G01X106943Y-114530D02*
X109657D01*
G01X-22580Y-131530D02*
Y-136250D01*
G01X-23937Y-131530D02*
X-21223D01*
G01X-19099Y-136250D02*
Y-131530D01*
G01X-16621D02*
Y-136250D01*
G01Y-133890D02*
X-19099D01*
G01X-13848Y-131530D02*
X-12432D01*
G01X-13140D02*
Y-136250D01*
G01X-13848D02*
X-12432D01*
G01X-9659Y-135621D02*
X-9187Y-136014D01*
X-8656Y-136250D01*
X-8184D01*
X-7712Y-136014D01*
X-7358Y-135621D01*
X-7181Y-135070D01*
X-7299Y-134519D01*
X-7594Y-134047D01*
X-8125Y-133733D01*
X-8833Y-133575D01*
X-9246Y-133261D01*
X-9423Y-132710D01*
X-9305Y-132159D01*
X-9010Y-131766D01*
X-8597Y-131530D01*
X-8184D01*
X-7771Y-131687D01*
X-7417Y-132081D01*
G01X-278Y-136250D02*
Y-131530D01*
X902D01*
X1374Y-131766D01*
X1728Y-132081D01*
X2023Y-132553D01*
X2259Y-133103D01*
X2318Y-133890D01*
X2259Y-134677D01*
X2023Y-135227D01*
X1728Y-135699D01*
X1374Y-136014D01*
X902Y-136250D01*
X-278D01*
G01X5740D02*
X5268Y-136171D01*
X4855Y-135857D01*
X4501Y-135385D01*
X4265Y-134834D01*
X4147Y-134205D01*
Y-133575D01*
X4265Y-132946D01*
X4501Y-132395D01*
X4855Y-131923D01*
X5268Y-131609D01*
X5740Y-131530D01*
X6212Y-131609D01*
X6625Y-131923D01*
X6979Y-132395D01*
X7215Y-132946D01*
X7333Y-133575D01*
Y-134205D01*
X7215Y-134834D01*
X6979Y-135385D01*
X6625Y-135857D01*
X6212Y-136171D01*
X5740Y-136250D01*
G01X11758Y-131923D02*
X11404Y-131687D01*
X10991Y-131530D01*
X10519D01*
X9988Y-131766D01*
X9575Y-132159D01*
X9280Y-132631D01*
X9044Y-133418D01*
X8985Y-134126D01*
X9103Y-134834D01*
X9280Y-135306D01*
X9634Y-135778D01*
X10047Y-136093D01*
X10460Y-136250D01*
X10873D01*
X11286Y-136093D01*
X11640Y-135857D01*
X11935Y-135542D01*
G01X13882Y-131530D02*
Y-134913D01*
X14118Y-135621D01*
X14590Y-136093D01*
X15180Y-136250D01*
X15770Y-136093D01*
X16242Y-135621D01*
X16478Y-134913D01*
Y-131530D01*
G01X18366Y-136250D02*
Y-131530D01*
X19900Y-135463D01*
X21434Y-131530D01*
Y-136250D01*
G01X25800D02*
X23440D01*
Y-131530D01*
X25800D01*
G01X24856Y-133811D02*
X23440D01*
G01X27983Y-136250D02*
Y-131530D01*
X30697Y-136250D01*
Y-131530D01*
G01X34060D02*
Y-136250D01*
G01X32703Y-131530D02*
X35417D01*
G01X44798Y-131923D02*
X44444Y-131687D01*
X44031Y-131530D01*
X43559D01*
X43028Y-131766D01*
X42615Y-132159D01*
X42320Y-132631D01*
X42084Y-133418D01*
X42025Y-134126D01*
X42143Y-134834D01*
X42320Y-135306D01*
X42674Y-135778D01*
X43087Y-136093D01*
X43500Y-136250D01*
X43913D01*
X44326Y-136093D01*
X44680Y-135857D01*
X44975Y-135542D01*
G01X48220Y-136250D02*
X47748Y-136171D01*
X47335Y-135857D01*
X46981Y-135385D01*
X46745Y-134834D01*
X46627Y-134205D01*
Y-133575D01*
X46745Y-132946D01*
X46981Y-132395D01*
X47335Y-131923D01*
X47748Y-131609D01*
X48220Y-131530D01*
X48692Y-131609D01*
X49105Y-131923D01*
X49459Y-132395D01*
X49695Y-132946D01*
X49813Y-133575D01*
Y-134205D01*
X49695Y-134834D01*
X49459Y-135385D01*
X49105Y-135857D01*
X48692Y-136171D01*
X48220Y-136250D01*
G01X51583D02*
Y-131530D01*
X54297Y-136250D01*
Y-131530D01*
G01X57660D02*
Y-136250D01*
G01X56303Y-131530D02*
X59017D01*
G01X60905Y-136250D02*
X62380Y-131530D01*
X63855Y-136250D01*
G01X63324Y-134598D02*
X61436D01*
G01X66392Y-131530D02*
X67808D01*
G01X67100D02*
Y-136250D01*
G01X66392D02*
X67808D01*
G01X70463D02*
Y-131530D01*
X73177Y-136250D01*
Y-131530D01*
G01X75301Y-135621D02*
X75773Y-136014D01*
X76304Y-136250D01*
X76776D01*
X77248Y-136014D01*
X77602Y-135621D01*
X77779Y-135070D01*
X77661Y-134519D01*
X77366Y-134047D01*
X76835Y-133733D01*
X76127Y-133575D01*
X75714Y-133261D01*
X75537Y-132710D01*
X75655Y-132159D01*
X75950Y-131766D01*
X76363Y-131530D01*
X76776D01*
X77189Y-131687D01*
X77543Y-132081D01*
G01X85272Y-131530D02*
X86688D01*
G01X85980D02*
Y-136250D01*
G01X85272D02*
X86688D01*
G01X89343D02*
Y-131530D01*
X92057Y-136250D01*
Y-131530D01*
G01X94299Y-136250D02*
Y-131530D01*
X96541D01*
G01X95715Y-133811D02*
X94299D01*
G01X100140Y-136250D02*
X99668Y-136171D01*
X99255Y-135857D01*
X98901Y-135385D01*
X98665Y-134834D01*
X98547Y-134205D01*
Y-133575D01*
X98665Y-132946D01*
X98901Y-132395D01*
X99255Y-131923D01*
X99668Y-131609D01*
X100140Y-131530D01*
X100612Y-131609D01*
X101025Y-131923D01*
X101379Y-132395D01*
X101615Y-132946D01*
X101733Y-133575D01*
Y-134205D01*
X101615Y-134834D01*
X101379Y-135385D01*
X101025Y-135857D01*
X100612Y-136171D01*
X100140Y-136250D01*
G01X103680D02*
Y-131530D01*
X105155D01*
X105627Y-131766D01*
X105922Y-132081D01*
X106040Y-132710D01*
X105922Y-133339D01*
X105568Y-133733D01*
X105155Y-133969D01*
X103680D01*
G01X105155D02*
X106040Y-136250D01*
G01X108046D02*
Y-131530D01*
X109580Y-135463D01*
X111114Y-131530D01*
Y-136250D01*
G01X112825D02*
X114300Y-131530D01*
X115775Y-136250D01*
G01X115244Y-134598D02*
X113356D01*
G01X119020Y-131530D02*
Y-136250D01*
G01X117663Y-131530D02*
X120377D01*
G01X123032D02*
X124448D01*
G01X123740D02*
Y-136250D01*
G01X123032D02*
X124448D01*
G01X128460D02*
X127988Y-136171D01*
X127575Y-135857D01*
X127221Y-135385D01*
X126985Y-134834D01*
X126867Y-134205D01*
Y-133575D01*
X126985Y-132946D01*
X127221Y-132395D01*
X127575Y-131923D01*
X127988Y-131609D01*
X128460Y-131530D01*
X128932Y-131609D01*
X129345Y-131923D01*
X129699Y-132395D01*
X129935Y-132946D01*
X130053Y-133575D01*
Y-134205D01*
X129935Y-134834D01*
X129699Y-135385D01*
X129345Y-135857D01*
X128932Y-136171D01*
X128460Y-136250D01*
G01X131823D02*
Y-131530D01*
X134537Y-136250D01*
Y-131530D01*
G01X20299Y-187250D02*
Y-182530D01*
X22541D01*
G01X21715Y-184811D02*
X20299D01*
G01X25432Y-182530D02*
X26848D01*
G01X26140D02*
Y-187250D01*
G01X25432D02*
X26848D01*
G01X29680Y-182530D02*
Y-187250D01*
X32040D01*
G01X34046D02*
Y-182530D01*
X35580Y-186463D01*
X37114Y-182530D01*
Y-187250D01*
G01X148420Y-190530D02*
X147948Y-190687D01*
X147594Y-191081D01*
X147358Y-191553D01*
X147181Y-192182D01*
X147122Y-192890D01*
X147181Y-193598D01*
X147358Y-194227D01*
X147594Y-194699D01*
X147948Y-195093D01*
X148420Y-195250D01*
X148892Y-195093D01*
X149246Y-194699D01*
X149482Y-194227D01*
X149659Y-193598D01*
X149718Y-192890D01*
X149659Y-192182D01*
X149482Y-191553D01*
X149246Y-191081D01*
X148892Y-190687D01*
X148420Y-190530D01*
G01X152137Y-194699D02*
X152550Y-195093D01*
X153022Y-195250D01*
X153494Y-195093D01*
X153907Y-194621D01*
X154202Y-193913D01*
X154320Y-193205D01*
Y-192339D01*
X154202Y-191631D01*
X153907Y-191002D01*
X153553Y-190687D01*
X153140Y-190530D01*
X152668Y-190687D01*
X152314Y-191002D01*
X152078Y-191474D01*
X151960Y-192103D01*
X152078Y-192654D01*
X152373Y-193205D01*
X152727Y-193519D01*
X153140Y-193598D01*
X153612Y-193441D01*
X153966Y-193047D01*
X154320Y-192339D01*
G01X157093Y-193677D02*
X158627D01*
G01X162580Y-195250D02*
Y-190530D01*
X161872Y-191474D01*
G01Y-195250D02*
X163288D01*
G01X166297Y-194699D02*
X166710Y-195093D01*
X167182Y-195250D01*
X167654Y-195093D01*
X168067Y-194621D01*
X168362Y-193913D01*
X168480Y-193205D01*
Y-192339D01*
X168362Y-191631D01*
X168067Y-191002D01*
X167713Y-190687D01*
X167300Y-190530D01*
X166828Y-190687D01*
X166474Y-191002D01*
X166238Y-191474D01*
X166120Y-192103D01*
X166238Y-192654D01*
X166533Y-193205D01*
X166887Y-193519D01*
X167300Y-193598D01*
X167772Y-193441D01*
X168126Y-193047D01*
X168480Y-192339D01*
G01X171253Y-193677D02*
X172787D01*
G01X176740Y-195250D02*
Y-190530D01*
X176032Y-191474D01*
G01Y-195250D02*
X177448D01*
G01X180162Y-194306D02*
X180516Y-194857D01*
X180988Y-195171D01*
X181519Y-195250D01*
X181991Y-195171D01*
X182463Y-194778D01*
X182758Y-194306D01*
X182817Y-193834D01*
X182699Y-193283D01*
X182286Y-192890D01*
X181873Y-192733D01*
X181342D01*
G01X181873D02*
X182227Y-192497D01*
X182522Y-192103D01*
X182640Y-191631D01*
X182522Y-191159D01*
X182227Y-190766D01*
X181696Y-190530D01*
X181165Y-190609D01*
X180634Y-190923D01*
G01X145122Y-187250D02*
Y-182530D01*
X146302D01*
X146774Y-182766D01*
X147128Y-183081D01*
X147423Y-183553D01*
X147659Y-184103D01*
X147718Y-184890D01*
X147659Y-185677D01*
X147423Y-186227D01*
X147128Y-186699D01*
X146774Y-187014D01*
X146302Y-187250D01*
X145122D01*
G01X149665D02*
X151140Y-182530D01*
X152615Y-187250D01*
G01X152084Y-185598D02*
X150196D01*
G01X155860Y-182530D02*
Y-187250D01*
G01X154503Y-182530D02*
X157217D01*
G01X161760Y-187250D02*
X159400D01*
Y-182530D01*
X161760D01*
G01X160816Y-184811D02*
X159400D01*
G01X145063Y-107250D02*
Y-102530D01*
X147777Y-107250D01*
Y-102530D01*
G01X149665Y-107250D02*
X151140Y-102530D01*
X152615Y-107250D01*
G01X152084Y-105598D02*
X150196D01*
G01X154326Y-107250D02*
Y-102530D01*
X155860Y-106463D01*
X157394Y-102530D01*
Y-107250D01*
G01X161760D02*
X159400D01*
Y-102530D01*
X161760D01*
G01X160816Y-104811D02*
X159400D01*
G01X154650Y-173323D02*
X158190D01*
G01X159370D02*
X162910D01*
G01X164090D02*
X167630D01*
G01X174179Y-171750D02*
Y-167030D01*
X176421D01*
G01X175595Y-169311D02*
X174179D01*
G01X181318Y-167423D02*
X180964Y-167187D01*
X180551Y-167030D01*
X180079D01*
X179548Y-167266D01*
X179135Y-167659D01*
X178840Y-168131D01*
X178604Y-168918D01*
X178545Y-169626D01*
X178663Y-170334D01*
X178840Y-170806D01*
X179194Y-171278D01*
X179607Y-171593D01*
X180020Y-171750D01*
X180433D01*
X180846Y-171593D01*
X181200Y-171357D01*
X181495Y-171042D01*
G01X183560Y-171750D02*
Y-167030D01*
X184976D01*
X185448Y-167266D01*
X185802Y-167817D01*
X185920Y-168446D01*
X185802Y-169075D01*
X185507Y-169547D01*
X184976Y-169783D01*
X183560D01*
G01X193885Y-173323D02*
X193295Y-172537D01*
X193000Y-171750D01*
Y-168603D01*
X193295Y-167817D01*
X193885Y-167030D01*
G01X197779Y-171750D02*
Y-167030D01*
X200021D01*
G01X199195Y-169311D02*
X197779D01*
G01X202440Y-171750D02*
Y-167030D01*
X203915D01*
X204387Y-167266D01*
X204682Y-167581D01*
X204800Y-168210D01*
X204682Y-168839D01*
X204328Y-169233D01*
X203915Y-169469D01*
X202440D01*
G01X203915D02*
X204800Y-171750D01*
G01X209520D02*
X207160D01*
Y-167030D01*
X209520D01*
G01X208576Y-169311D02*
X207160D01*
G01X214240Y-171750D02*
X211880D01*
Y-167030D01*
X214240D01*
G01X213296Y-169311D02*
X211880D01*
G01X216541Y-171121D02*
X217013Y-171514D01*
X217544Y-171750D01*
X218016D01*
X218488Y-171514D01*
X218842Y-171121D01*
X219019Y-170570D01*
X218901Y-170019D01*
X218606Y-169547D01*
X218075Y-169233D01*
X217367Y-169075D01*
X216954Y-168761D01*
X216777Y-168210D01*
X216895Y-167659D01*
X217190Y-167266D01*
X217603Y-167030D01*
X218016D01*
X218429Y-167187D01*
X218783Y-167581D01*
G01X223798Y-167423D02*
X223444Y-167187D01*
X223031Y-167030D01*
X222559D01*
X222028Y-167266D01*
X221615Y-167659D01*
X221320Y-168131D01*
X221084Y-168918D01*
X221025Y-169626D01*
X221143Y-170334D01*
X221320Y-170806D01*
X221674Y-171278D01*
X222087Y-171593D01*
X222500Y-171750D01*
X222913D01*
X223326Y-171593D01*
X223680Y-171357D01*
X223975Y-171042D01*
G01X225745Y-171750D02*
X227220Y-167030D01*
X228695Y-171750D01*
G01X228164Y-170098D02*
X226276D01*
G01X230760Y-167030D02*
Y-171750D01*
X233120D01*
G01X237840D02*
X235480D01*
Y-167030D01*
X237840D01*
G01X236896Y-169311D02*
X235480D01*
G01X247398Y-167423D02*
X247044Y-167187D01*
X246631Y-167030D01*
X246159D01*
X245628Y-167266D01*
X245215Y-167659D01*
X244920Y-168131D01*
X244684Y-168918D01*
X244625Y-169626D01*
X244743Y-170334D01*
X244920Y-170806D01*
X245274Y-171278D01*
X245687Y-171593D01*
X246100Y-171750D01*
X246513D01*
X246926Y-171593D01*
X247280Y-171357D01*
X247575Y-171042D01*
G01X250820Y-171750D02*
X250348Y-171671D01*
X249935Y-171357D01*
X249581Y-170885D01*
X249345Y-170334D01*
X249227Y-169705D01*
Y-169075D01*
X249345Y-168446D01*
X249581Y-167895D01*
X249935Y-167423D01*
X250348Y-167109D01*
X250820Y-167030D01*
X251292Y-167109D01*
X251705Y-167423D01*
X252059Y-167895D01*
X252295Y-168446D01*
X252413Y-169075D01*
Y-169705D01*
X252295Y-170334D01*
X252059Y-170885D01*
X251705Y-171357D01*
X251292Y-171671D01*
X250820Y-171750D01*
G01X254183D02*
Y-167030D01*
X256897Y-171750D01*
Y-167030D01*
G01X259139Y-171750D02*
Y-167030D01*
X261381D01*
G01X260555Y-169311D02*
X259139D01*
G01X264272Y-167030D02*
X265688D01*
G01X264980D02*
Y-171750D01*
G01X264272D02*
X265688D01*
G01X268402D02*
Y-167030D01*
X269582D01*
X270054Y-167266D01*
X270408Y-167581D01*
X270703Y-168053D01*
X270939Y-168603D01*
X270998Y-169390D01*
X270939Y-170177D01*
X270703Y-170727D01*
X270408Y-171199D01*
X270054Y-171514D01*
X269582Y-171750D01*
X268402D01*
G01X275600D02*
X273240D01*
Y-167030D01*
X275600D01*
G01X274656Y-169311D02*
X273240D01*
G01X277783Y-171750D02*
Y-167030D01*
X280497Y-171750D01*
Y-167030D01*
G01X283860D02*
Y-171750D01*
G01X282503Y-167030D02*
X285217D01*
G01X287872D02*
X289288D01*
G01X288580D02*
Y-171750D01*
G01X287872D02*
X289288D01*
G01X291825D02*
X293300Y-167030D01*
X294775Y-171750D01*
G01X294244Y-170098D02*
X292356D01*
G01X296840Y-167030D02*
Y-171750D01*
X299200D01*
G01X306280D02*
Y-167030D01*
X307696D01*
X308168Y-167266D01*
X308522Y-167817D01*
X308640Y-168446D01*
X308522Y-169075D01*
X308227Y-169547D01*
X307696Y-169783D01*
X306280D01*
G01X311000Y-171750D02*
Y-167030D01*
X312475D01*
X312947Y-167266D01*
X313242Y-167581D01*
X313360Y-168210D01*
X313242Y-168839D01*
X312888Y-169233D01*
X312475Y-169469D01*
X311000D01*
G01X312475D02*
X313360Y-171750D01*
G01X316900D02*
X316428Y-171671D01*
X316015Y-171357D01*
X315661Y-170885D01*
X315425Y-170334D01*
X315307Y-169705D01*
Y-169075D01*
X315425Y-168446D01*
X315661Y-167895D01*
X316015Y-167423D01*
X316428Y-167109D01*
X316900Y-167030D01*
X317372Y-167109D01*
X317785Y-167423D01*
X318139Y-167895D01*
X318375Y-168446D01*
X318493Y-169075D01*
Y-169705D01*
X318375Y-170334D01*
X318139Y-170885D01*
X317785Y-171357D01*
X317372Y-171671D01*
X316900Y-171750D01*
G01X320440D02*
Y-167030D01*
X321856D01*
X322328Y-167266D01*
X322682Y-167817D01*
X322800Y-168446D01*
X322682Y-169075D01*
X322387Y-169547D01*
X321856Y-169783D01*
X320440D01*
G01X325160Y-171750D02*
Y-167030D01*
X326635D01*
X327107Y-167266D01*
X327402Y-167581D01*
X327520Y-168210D01*
X327402Y-168839D01*
X327048Y-169233D01*
X326635Y-169469D01*
X325160D01*
G01X326635D02*
X327520Y-171750D01*
G01X330352Y-167030D02*
X331768D01*
G01X331060D02*
Y-171750D01*
G01X330352D02*
X331768D01*
G01X336960D02*
X334600D01*
Y-167030D01*
X336960D01*
G01X336016Y-169311D02*
X334600D01*
G01X340500Y-167030D02*
Y-171750D01*
G01X339143Y-167030D02*
X341857D01*
G01X343745Y-171750D02*
X345220Y-167030D01*
X346695Y-171750D01*
G01X346164Y-170098D02*
X344276D01*
G01X348760Y-171750D02*
Y-167030D01*
X350235D01*
X350707Y-167266D01*
X351002Y-167581D01*
X351120Y-168210D01*
X351002Y-168839D01*
X350648Y-169233D01*
X350235Y-169469D01*
X348760D01*
G01X350235D02*
X351120Y-171750D01*
G01X354660D02*
Y-169626D01*
X353480Y-167030D01*
G01X355840D02*
X354660Y-169626D01*
G01X359675Y-173323D02*
X360265Y-172537D01*
X360560Y-171750D01*
Y-168603D01*
X360265Y-167817D01*
X359675Y-167030D01*
G01X154650Y-156823D02*
X158190D01*
G01X159370D02*
X162910D01*
G01X164090D02*
X167630D01*
G01X174179Y-155250D02*
Y-150530D01*
X176421D01*
G01X175595Y-152811D02*
X174179D01*
G01X179312Y-150530D02*
X180728D01*
G01X180020D02*
Y-155250D01*
G01X179312D02*
X180728D01*
G01X183442Y-150530D02*
Y-153913D01*
X183678Y-154621D01*
X184150Y-155093D01*
X184740Y-155250D01*
X185330Y-155093D01*
X185802Y-154621D01*
X186038Y-153913D01*
Y-150530D01*
G01X189460Y-155250D02*
X188988Y-155171D01*
X188575Y-154857D01*
X188221Y-154385D01*
X187985Y-153834D01*
X187867Y-153205D01*
Y-152575D01*
X187985Y-151946D01*
X188221Y-151395D01*
X188575Y-150923D01*
X188988Y-150609D01*
X189460Y-150530D01*
X189932Y-150609D01*
X190345Y-150923D01*
X190699Y-151395D01*
X190935Y-151946D01*
X191053Y-152575D01*
Y-153205D01*
X190935Y-153834D01*
X190699Y-154385D01*
X190345Y-154857D01*
X189932Y-155171D01*
X189460Y-155250D01*
G01X198605Y-156823D02*
X198015Y-156037D01*
X197720Y-155250D01*
Y-152103D01*
X198015Y-151317D01*
X198605Y-150530D01*
G01X202499Y-155250D02*
Y-150530D01*
X204741D01*
G01X203915Y-152811D02*
X202499D01*
G01X207160Y-155250D02*
Y-150530D01*
X208635D01*
X209107Y-150766D01*
X209402Y-151081D01*
X209520Y-151710D01*
X209402Y-152339D01*
X209048Y-152733D01*
X208635Y-152969D01*
X207160D01*
G01X208635D02*
X209520Y-155250D01*
G01X214240D02*
X211880D01*
Y-150530D01*
X214240D01*
G01X213296Y-152811D02*
X211880D01*
G01X218960Y-155250D02*
X216600D01*
Y-150530D01*
X218960D01*
G01X218016Y-152811D02*
X216600D01*
G01X221261Y-154621D02*
X221733Y-155014D01*
X222264Y-155250D01*
X222736D01*
X223208Y-155014D01*
X223562Y-154621D01*
X223739Y-154070D01*
X223621Y-153519D01*
X223326Y-153047D01*
X222795Y-152733D01*
X222087Y-152575D01*
X221674Y-152261D01*
X221497Y-151710D01*
X221615Y-151159D01*
X221910Y-150766D01*
X222323Y-150530D01*
X222736D01*
X223149Y-150687D01*
X223503Y-151081D01*
G01X228518Y-150923D02*
X228164Y-150687D01*
X227751Y-150530D01*
X227279D01*
X226748Y-150766D01*
X226335Y-151159D01*
X226040Y-151631D01*
X225804Y-152418D01*
X225745Y-153126D01*
X225863Y-153834D01*
X226040Y-154306D01*
X226394Y-154778D01*
X226807Y-155093D01*
X227220Y-155250D01*
X227633D01*
X228046Y-155093D01*
X228400Y-154857D01*
X228695Y-154542D01*
G01X230465Y-155250D02*
X231940Y-150530D01*
X233415Y-155250D01*
G01X232884Y-153598D02*
X230996D01*
G01X235480Y-150530D02*
Y-155250D01*
X237840D01*
G01X242560D02*
X240200D01*
Y-150530D01*
X242560D01*
G01X241616Y-152811D02*
X240200D01*
G01X250112Y-150530D02*
X251528D01*
G01X250820D02*
Y-155250D01*
G01X250112D02*
X251528D01*
G01X254183D02*
Y-150530D01*
X256897Y-155250D01*
Y-150530D01*
G01X260260D02*
Y-155250D01*
G01X258903Y-150530D02*
X261617D01*
G01X266160Y-155250D02*
X263800D01*
Y-150530D01*
X266160D01*
G01X265216Y-152811D02*
X263800D01*
G01X268520Y-155250D02*
Y-150530D01*
X269995D01*
X270467Y-150766D01*
X270762Y-151081D01*
X270880Y-151710D01*
X270762Y-152339D01*
X270408Y-152733D01*
X269995Y-152969D01*
X268520D01*
G01X269995D02*
X270880Y-155250D01*
G01X273063D02*
Y-150530D01*
X275777Y-155250D01*
Y-150530D01*
G01X277665Y-155250D02*
X279140Y-150530D01*
X280615Y-155250D01*
G01X280084Y-153598D02*
X278196D01*
G01X282680Y-150530D02*
Y-155250D01*
X285040D01*
G01X292002Y-150530D02*
Y-153913D01*
X292238Y-154621D01*
X292710Y-155093D01*
X293300Y-155250D01*
X293890Y-155093D01*
X294362Y-154621D01*
X294598Y-153913D01*
Y-150530D01*
G01X296781Y-154621D02*
X297253Y-155014D01*
X297784Y-155250D01*
X298256D01*
X298728Y-155014D01*
X299082Y-154621D01*
X299259Y-154070D01*
X299141Y-153519D01*
X298846Y-153047D01*
X298315Y-152733D01*
X297607Y-152575D01*
X297194Y-152261D01*
X297017Y-151710D01*
X297135Y-151159D01*
X297430Y-150766D01*
X297843Y-150530D01*
X298256D01*
X298669Y-150687D01*
X299023Y-151081D01*
G01X303920Y-155250D02*
X301560D01*
Y-150530D01*
X303920D01*
G01X302976Y-152811D02*
X301560D01*
G01X312180Y-155250D02*
X311708Y-155171D01*
X311295Y-154857D01*
X310941Y-154385D01*
X310705Y-153834D01*
X310587Y-153205D01*
Y-152575D01*
X310705Y-151946D01*
X310941Y-151395D01*
X311295Y-150923D01*
X311708Y-150609D01*
X312180Y-150530D01*
X312652Y-150609D01*
X313065Y-150923D01*
X313419Y-151395D01*
X313655Y-151946D01*
X313773Y-152575D01*
Y-153205D01*
X313655Y-153834D01*
X313419Y-154385D01*
X313065Y-154857D01*
X312652Y-155171D01*
X312180Y-155250D01*
G01X315543D02*
Y-150530D01*
X318257Y-155250D01*
Y-150530D01*
G01X320440D02*
Y-155250D01*
X322800D01*
G01X326340D02*
Y-153126D01*
X325160Y-150530D01*
G01X327520D02*
X326340Y-153126D01*
G01X331355Y-156823D02*
X331945Y-156037D01*
X332240Y-155250D01*
Y-152103D01*
X331945Y-151317D01*
X331355Y-150530D01*
G01X154650Y-140823D02*
X158190D01*
G01X159370D02*
X162910D01*
G01X164090D02*
X167630D01*
G01X174120Y-139250D02*
Y-134530D01*
X175536D01*
X176008Y-134766D01*
X176362Y-135317D01*
X176480Y-135946D01*
X176362Y-136575D01*
X176067Y-137047D01*
X175536Y-137283D01*
X174120D01*
G01X178722Y-134530D02*
Y-137913D01*
X178958Y-138621D01*
X179430Y-139093D01*
X180020Y-139250D01*
X180610Y-139093D01*
X181082Y-138621D01*
X181318Y-137913D01*
Y-134530D01*
G01X185212Y-136733D02*
X185448Y-136497D01*
X185625Y-136103D01*
X185743Y-135553D01*
X185625Y-135081D01*
X185389Y-134766D01*
X184976Y-134530D01*
X183383D01*
Y-139250D01*
X185330D01*
X185743Y-138935D01*
X185979Y-138463D01*
X186097Y-137913D01*
X185979Y-137362D01*
X185625Y-136890D01*
X185212Y-136733D01*
X183383D01*
G01X188752Y-134530D02*
X190168D01*
G01X189460D02*
Y-139250D01*
G01X188752D02*
X190168D01*
G01X198605Y-140823D02*
X198015Y-140037D01*
X197720Y-139250D01*
Y-136103D01*
X198015Y-135317D01*
X198605Y-134530D01*
G01X202440Y-139250D02*
Y-134530D01*
X203856D01*
X204328Y-134766D01*
X204682Y-135317D01*
X204800Y-135946D01*
X204682Y-136575D01*
X204387Y-137047D01*
X203856Y-137283D01*
X202440D01*
G01X207042Y-134530D02*
Y-137913D01*
X207278Y-138621D01*
X207750Y-139093D01*
X208340Y-139250D01*
X208930Y-139093D01*
X209402Y-138621D01*
X209638Y-137913D01*
Y-134530D01*
G01X213532Y-136733D02*
X213768Y-136497D01*
X213945Y-136103D01*
X214063Y-135553D01*
X213945Y-135081D01*
X213709Y-134766D01*
X213296Y-134530D01*
X211703D01*
Y-139250D01*
X213650D01*
X214063Y-138935D01*
X214299Y-138463D01*
X214417Y-137913D01*
X214299Y-137362D01*
X213945Y-136890D01*
X213532Y-136733D01*
X211703D01*
G01X216600Y-134530D02*
Y-139250D01*
X218960D01*
G01X221792Y-134530D02*
X223208D01*
G01X222500D02*
Y-139250D01*
G01X221792D02*
X223208D01*
G01X228518Y-134923D02*
X228164Y-134687D01*
X227751Y-134530D01*
X227279D01*
X226748Y-134766D01*
X226335Y-135159D01*
X226040Y-135631D01*
X225804Y-136418D01*
X225745Y-137126D01*
X225863Y-137834D01*
X226040Y-138306D01*
X226394Y-138778D01*
X226807Y-139093D01*
X227220Y-139250D01*
X227633D01*
X228046Y-139093D01*
X228400Y-138857D01*
X228695Y-138542D01*
G01X235952Y-134530D02*
X237368D01*
G01X236660D02*
Y-139250D01*
G01X235952D02*
X237368D01*
G01X240023D02*
Y-134530D01*
X242737Y-139250D01*
Y-134530D01*
G01X244979Y-139250D02*
Y-134530D01*
X247221D01*
G01X246395Y-136811D02*
X244979D01*
G01X250820Y-139250D02*
X250348Y-139171D01*
X249935Y-138857D01*
X249581Y-138385D01*
X249345Y-137834D01*
X249227Y-137205D01*
Y-136575D01*
X249345Y-135946D01*
X249581Y-135395D01*
X249935Y-134923D01*
X250348Y-134609D01*
X250820Y-134530D01*
X251292Y-134609D01*
X251705Y-134923D01*
X252059Y-135395D01*
X252295Y-135946D01*
X252413Y-136575D01*
Y-137205D01*
X252295Y-137834D01*
X252059Y-138385D01*
X251705Y-138857D01*
X251292Y-139171D01*
X250820Y-139250D01*
G01X254360D02*
Y-134530D01*
X255835D01*
X256307Y-134766D01*
X256602Y-135081D01*
X256720Y-135710D01*
X256602Y-136339D01*
X256248Y-136733D01*
X255835Y-136969D01*
X254360D01*
G01X255835D02*
X256720Y-139250D01*
G01X258726D02*
Y-134530D01*
X260260Y-138463D01*
X261794Y-134530D01*
Y-139250D01*
G01X263505D02*
X264980Y-134530D01*
X266455Y-139250D01*
G01X265924Y-137598D02*
X264036D01*
G01X269700Y-134530D02*
Y-139250D01*
G01X268343Y-134530D02*
X271057D01*
G01X273712D02*
X275128D01*
G01X274420D02*
Y-139250D01*
G01X273712D02*
X275128D01*
G01X279140D02*
X278668Y-139171D01*
X278255Y-138857D01*
X277901Y-138385D01*
X277665Y-137834D01*
X277547Y-137205D01*
Y-136575D01*
X277665Y-135946D01*
X277901Y-135395D01*
X278255Y-134923D01*
X278668Y-134609D01*
X279140Y-134530D01*
X279612Y-134609D01*
X280025Y-134923D01*
X280379Y-135395D01*
X280615Y-135946D01*
X280733Y-136575D01*
Y-137205D01*
X280615Y-137834D01*
X280379Y-138385D01*
X280025Y-138857D01*
X279612Y-139171D01*
X279140Y-139250D01*
G01X282503D02*
Y-134530D01*
X285217Y-139250D01*
Y-134530D01*
G01X288875Y-140823D02*
X289465Y-140037D01*
X289760Y-139250D01*
Y-136103D01*
X289465Y-135317D01*
X288875Y-134530D01*
G01X195063Y-187250D02*
Y-182530D01*
X197777Y-187250D01*
Y-182530D01*
G01X199842D02*
Y-185913D01*
X200078Y-186621D01*
X200550Y-187093D01*
X201140Y-187250D01*
X201730Y-187093D01*
X202202Y-186621D01*
X202438Y-185913D01*
Y-182530D01*
G01X204326Y-187250D02*
Y-182530D01*
X205860Y-186463D01*
X207394Y-182530D01*
Y-187250D01*
G01X211052Y-184733D02*
X211288Y-184497D01*
X211465Y-184103D01*
X211583Y-183553D01*
X211465Y-183081D01*
X211229Y-182766D01*
X210816Y-182530D01*
X209223D01*
Y-187250D01*
X211170D01*
X211583Y-186935D01*
X211819Y-186463D01*
X211937Y-185913D01*
X211819Y-185362D01*
X211465Y-184890D01*
X211052Y-184733D01*
X209223D01*
G01X216480Y-187250D02*
X214120D01*
Y-182530D01*
X216480D01*
G01X215536Y-184811D02*
X214120D01*
G01X218840Y-187250D02*
Y-182530D01*
X220315D01*
X220787Y-182766D01*
X221082Y-183081D01*
X221200Y-183710D01*
X221082Y-184339D01*
X220728Y-184733D01*
X220315Y-184969D01*
X218840D01*
G01X220315D02*
X221200Y-187250D01*
G54D44*
X276350Y47250D03*
G54D35*
X128515Y66585D03*
Y128495D03*
X190425Y66585D03*
Y128495D03*
G54D17*
X0Y0D03*
X43850Y23250D03*
Y19250D03*
X55750Y129850D03*
X50850Y138050D03*
Y134050D03*
X32850Y165650D03*
X36850D03*
X32850Y169450D03*
X36850D03*
X65550Y65750D03*
Y61750D03*
X73925Y98650D03*
Y94650D03*
X59750Y129850D03*
X71775Y134375D03*
Y130375D03*
X75725Y134400D03*
Y130400D03*
X62150Y150950D03*
Y154950D03*
X58250D03*
Y150950D03*
X71850Y174950D03*
X67850D03*
X133450Y95450D03*
X129450D03*
X159650Y13900D03*
X168150Y13700D03*
X164150D03*
X155550Y13900D03*
X159650Y17900D03*
X168150Y17600D03*
X164150D03*
X155550Y17900D03*
X167500Y58650D03*
Y54650D03*
X171325Y58650D03*
Y54650D03*
X168750Y97550D03*
X164750D03*
X153150Y97350D03*
X157150D03*
X160950Y105850D03*
Y101450D03*
Y97450D03*
X157100Y93650D03*
Y89650D03*
X160950Y109850D03*
X204950Y147550D03*
Y151550D03*
X224350Y9950D03*
X228350D03*
X224350Y13650D03*
X228350D03*
X224350Y17850D03*
X228350D03*
X224350Y21950D03*
X228350D03*
G54D26*
X30000Y210850D03*
X165400Y29850D03*
X157125Y29700D03*
G54D45*
X231790Y29920D03*
X224310D03*
X228050Y38580D03*
G54D27*
X75545Y4250D03*
Y13305D03*
Y-4805D03*
X75345Y33050D03*
Y23995D03*
Y42105D03*
G54D18*
X17650Y39950D03*
X43850D03*
X56850Y40150D03*
X30850Y39950D03*
X45050Y53200D03*
X80550Y53250D03*
X64850Y94375D03*
X80700Y94650D03*
X80750Y108250D03*
X80950Y121550D03*
X84750Y157150D03*
X59400Y211950D03*
X98650Y157250D03*
X112375Y157350D03*
X123450Y-350D03*
Y9650D03*
Y-10350D03*
Y19650D03*
Y29650D03*
Y39650D03*
X177450Y16550D03*
X192000Y16700D03*
X206550Y37950D03*
X206500Y24200D03*
X207650Y51550D03*
X207250Y104250D03*
X220550Y104450D03*
G54D36*
X128515Y86585D03*
X190425Y118495D03*
G54D46*
X276350Y-3242D03*
Y97742D03*
G54D19*
X-1350Y30050D03*
G54D37*
X141050Y148350D03*
Y205850D03*
X181050Y148350D03*
Y205850D03*
G54D28*
X67150Y46600D03*
X146350Y-19250D03*
X165250D03*
X159700Y-18900D03*
X153100Y-19200D03*
X177250Y-19400D03*
X171350Y-19500D03*
X183150Y-19450D03*
X189028Y-19250D03*
X256150Y-5800D03*
G54D38*
X166100Y9707D03*
Y4193D03*
X216450Y9693D03*
Y15207D03*
G54D47*
X326130Y124470D03*
Y212830D03*
G54D29*
X80550Y66950D03*
G54D39*
X155943Y9250D03*
X161457D03*
X159843Y22650D03*
X165357D03*
G54D48*
X310750Y121050D03*
Y216250D03*
G54D49*
G01X-33350Y-179250D02*
X366650D01*
G01X-33350Y-149250D02*
Y-129250D01*
X366650D01*
G01X16650Y-199250D02*
Y-179250D01*
G01X142150Y-199250D02*
Y-179250D01*
G01X141650Y-129250D02*
Y-99250D01*
G01X191650Y-199250D02*
Y-179250D01*
M02*
