G04 ================== begin FILE IDENTIFICATION RECORD ==================*
G04 Layout Name:  G:/lwj/My project/PCB/tunnel lighting/allegro/tunnel lighting2.brd*
G04 Film Name:    BOTTOM*
G04 File Format:  Gerber RS274X*
G04 File Origin:  Cadence Allegro 16.5-P002*
G04 Origin Date:  Sat Oct 27 20:26:59 2012*
G04 *
G04 Layer:  BOARD GEOMETRY/OUTLINE*
G04 Layer:  ETCH/BOTTOM*
G04 Layer:  PIN/BOTTOM*
G04 Layer:  VIA CLASS/BOTTOM*
G04 *
G04 Offset:    (0.000 0.000)*
G04 Mirror:    No*
G04 Mode:      Positive*
G04 Rotation:  0*
G04 FullContactRelief:  No*
G04 UndefLineWidth:     6.000*
G04 ================== end FILE IDENTIFICATION RECORD ====================*
%FSLAX25Y25*MOIN*%
%IR0*IPPOS*OFA0.00000B0.00000*MIA0B0*SFA1.00000B1.00000*%
%ADD17C,.15*%
%ADD15C,.137795*%
%AMMACRO25*
4,1,40,-.035429,-.018701,
-.035429,.018701,
-.03537,.019385,
-.035193,.020048,
-.034904,.02067,
-.03451,.021233,
-.034026,.021718,
-.033464,.022113,
-.032842,.022403,
-.03218,.022582,
-.0315,.022642,
.0315,.022642,
.032184,.022581,
.032846,.022402,
.033467,.022111,
.034029,.021716,
.034513,.021229,
.034906,.020667,
.035194,.020044,
.035371,.019381,
.035429,.018701,
.035429,-.018701,
.03537,-.019385,
.035193,-.020048,
.034904,-.02067,
.03451,-.021233,
.034026,-.021718,
.033464,-.022113,
.032842,-.022403,
.03218,-.022582,
.0315,-.022642,
-.0315,-.022642,
-.032184,-.022581,
-.032846,-.022402,
-.033467,-.022111,
-.034029,-.021716,
-.034513,-.021229,
-.034906,-.020667,
-.035194,-.020044,
-.035371,-.019381,
-.035429,-.018701,
0.0*
%
%ADD25MACRO25*%
%ADD16R,.137795X.137795*%
%ADD24R,.04X.06*%
%ADD31C,.01*%
%ADD30C,.06*%
%ADD10C,.025*%
%ADD34C,.073*%
%ADD33C,.065*%
%ADD32C,.084*%
%ADD18C,.066*%
%ADD36R,.065X.065*%
%ADD27C,.035433*%
%ADD19C,.021654*%
%ADD20R,.066X.066*%
%ADD23C,.041339*%
%ADD29C,.025591*%
%ADD37C,.031496*%
%ADD26C,.059055*%
%ADD13C,.086614*%
%ADD22R,.051181X.059055*%
%ADD11C,.07874*%
%ADD21R,.059055X.051181*%
%ADD35O,.015748X.053543*%
%ADD28R,.059055X.059055*%
%ADD14R,.086614X.086614*%
%ADD12R,.07874X.07874*%
%ADD38O,.064961X.015748*%
%ADD39C,.1*%
%ADD40C,.12*%
%ADD41C,.008*%
%ADD42C,.02*%
%ADD43C,.03*%
%ADD44C,.012*%
%ADD45C,.015*%
%ADD46C,.006*%
G75*
%LPD*%
G75*
G36*
G01X142783Y25852D02*
X143266Y26335D01*
X142500Y27200D01*
X141734Y26335D01*
X142217Y25852D01*
G03X142783I283J283D01*
G37*
G36*
G01X155900Y-27100D02*
Y-30000D01*
X159271Y-30071D01*
X159200Y-26700D01*
X156300D01*
G03X155900Y-27100I0J-400D01*
G37*
G36*
G01X197738Y-46846D02*
X195047Y-49701D01*
X198000Y-52360D01*
X200953Y-49701D01*
X198262Y-46846D01*
G03X197738I-262J-303D01*
G37*
G36*
G01X197883Y-44283D02*
X201262Y-40903D01*
X197600Y-35500D01*
X193938Y-40903D01*
X197317Y-44283D01*
G03X197883I283J283D01*
G37*
G36*
G01X198717Y62248D02*
X198234Y61765D01*
X199000Y60900D01*
X199766Y61765D01*
X199283Y62248D01*
G03X198717I-283J-283D01*
G37*
G36*
G01X199283Y67752D02*
X199766Y68235D01*
X199000Y69100D01*
X198234Y68235D01*
X198717Y67752D01*
G03X199283I283J283D01*
G37*
G36*
G01X249634Y140740D02*
X252047Y138701D01*
X255250Y141260D01*
X252047Y143819D01*
X249634Y141780D01*
G03Y140740I854J-520D01*
G37*
G36*
G01X255458Y136312D02*
X257914Y138701D01*
X255000Y141510D01*
X252086Y138701D01*
X254542Y136312D01*
G03X255458I458J889D01*
G37*
G36*
G01X255740Y130366D02*
X253701Y127953D01*
X256260Y124750D01*
X258819Y127953D01*
X256780Y130366D01*
G03X255740I-520J-854D01*
G37*
G36*
G01X256780Y309634D02*
X258819Y312047D01*
X256260Y315250D01*
X253701Y312047D01*
X255740Y309634D01*
G03X256780I520J854D01*
G37*
G36*
G01X255740Y310366D02*
X253701Y307953D01*
X256260Y304750D01*
X258819Y307953D01*
X256780Y310366D01*
G03X255740I-520J-854D01*
G37*
G36*
G01Y320366D02*
X253701Y317953D01*
X256260Y314750D01*
X258819Y317953D01*
X256780Y320366D01*
G03X255740I-520J-854D01*
G37*
G36*
G01X280366Y111780D02*
X277953Y113819D01*
X274750Y111260D01*
X277953Y108701D01*
X280366Y110739D01*
G03Y111780I-854J520D01*
G37*
G36*
G01X272114Y127309D02*
X277953Y128701D01*
X275177Y131437D01*
X272047Y133819D01*
X271047Y128307D01*
G03X272114Y127309I1000J0D01*
G37*
G36*
G01X275552Y125914D02*
X277953Y128701D01*
X275000Y131510D01*
X272047Y128701D01*
X274448Y125914D01*
G03X275552I552J834D01*
G37*
G36*
G01X274448Y124086D02*
X272047Y121299D01*
X275000Y118490D01*
X277953Y121299D01*
X275552Y124086D01*
G03X274448I-552J-834D01*
G37*
G36*
G01X269086Y125552D02*
X266299Y127953D01*
X263490Y125000D01*
X266299Y122047D01*
X269086Y124448D01*
G03Y125552I-834J552D01*
G37*
G36*
G01X274448Y144086D02*
X272047Y141299D01*
X275000Y138490D01*
X277953Y141299D01*
X275552Y144086D01*
G03X274448I-552J-834D01*
G37*
G36*
G01X260366Y149260D02*
X257953Y151299D01*
X254750Y148740D01*
X257953Y146181D01*
X260366Y148220D01*
G03Y149260I-854J520D01*
G37*
G36*
G01X280366Y286780D02*
X277953Y288819D01*
X274750Y286260D01*
X277953Y283701D01*
X280366Y285740D01*
G03Y286780I-854J520D01*
G37*
G36*
G01X274448Y299086D02*
X272047Y296299D01*
X275000Y293490D01*
X277953Y296299D01*
X275552Y299086D01*
G03X274448I-552J-834D01*
G37*
G36*
G01X269634Y305740D02*
X272047Y303701D01*
X275250Y306260D01*
X272047Y308819D01*
X269634Y306780D01*
G03Y305740I854J-520D01*
G37*
G36*
G01X275552Y300914D02*
X277953Y303701D01*
X275000Y306510D01*
X272047Y303701D01*
X274448Y300914D01*
G03X275552I552J834D01*
G37*
G36*
G01X269978Y307144D02*
X266299Y307953D01*
X263496Y304947D01*
X266299Y302047D01*
X270307Y305653D01*
G03X269978Y307144I-795J606D01*
G37*
G36*
G01X269086Y315552D02*
X266299Y317953D01*
X263490Y315000D01*
X266299Y312047D01*
X269086Y314448D01*
G03Y315552I-834J552D01*
G37*
G36*
G01X269684Y313234D02*
X272047Y311181D01*
X275250Y313740D01*
X272047Y316299D01*
X269684Y314246D01*
G03Y313234I863J-506D01*
G37*
G36*
G01X295217Y-21752D02*
X294734Y-22235D01*
X295500Y-23100D01*
X296266Y-22235D01*
X295783Y-21752D01*
G03X295217I-283J-283D01*
G37*
G36*
G01X295783Y23352D02*
X296266Y23835D01*
X295500Y24700D01*
X294734Y23835D01*
X295217Y23352D01*
G03X295783I283J283D01*
G37*
G36*
G01X291457Y105102D02*
X291457Y99213D01*
X298523Y99036D01*
X298346Y106102D01*
X292457Y106102D01*
G03X291457Y105102I0J-1000D01*
G37*
G36*
G01X292457Y171063D02*
X298346Y171063D01*
X298523Y178130D01*
X291457Y177953D01*
X291457Y172063D01*
G03X292457Y171063I1000J0D01*
G37*
G36*
G01X289310Y196931D02*
X293475Y192766D01*
X298596Y197638D01*
X293475Y202510D01*
X289310Y198345D01*
G03Y196931I707J-707D01*
G37*
G36*
G01X297922Y298532D02*
X293475Y294084D01*
X298346Y289063D01*
X303218Y294084D01*
X298771Y298532D01*
G03X297922I-424J-424D01*
G37*
G36*
G01X289310Y288506D02*
X293475Y284341D01*
X298596Y289213D01*
X293475Y294084D01*
X289310Y289920D01*
G03Y288506I707J-707D01*
G37*
G36*
G01X298945Y302192D02*
X298000Y307500D01*
X295894Y304606D01*
X294411Y301554D01*
X298437Y301560D01*
G03X298945Y302192I-90J593D01*
G37*
G36*
G01X291132Y314125D02*
X294000Y311500D01*
X296150Y314500D01*
X294000Y317500D01*
X291132Y314875D01*
G03Y314125I469J-375D01*
G37*
G36*
G01X299054Y358916D02*
X303218Y363081D01*
X298346Y368203D01*
X293475Y363081D01*
X297639Y358916D01*
G03X299054I707J707D01*
G37*
G36*
G01X289310Y386931D02*
X293475Y382766D01*
X298596Y387638D01*
X293475Y392510D01*
X289310Y388345D01*
G03Y386931I707J-707D01*
G37*
G36*
G01X300900Y-37900D02*
X298000D01*
X297929Y-41271D01*
X301300Y-41200D01*
Y-38300D01*
G03X300900Y-37900I-400J0D01*
G37*
G36*
G01X314200D02*
X308800D01*
X308712Y-41247D01*
X312003Y-41461D01*
X314503Y-38561D01*
G03X314200Y-37900I-303J261D01*
G37*
G36*
G01X303117Y-25616D02*
X301067Y-27667D01*
X303400Y-30100D01*
X305733Y-27667D01*
X303683Y-25616D01*
G03X303117I-283J-283D01*
G37*
G36*
G01X315783Y3252D02*
X316266Y3735D01*
X315500Y4600D01*
X314734Y3735D01*
X315217Y3252D01*
G03X315783I283J283D01*
G37*
G36*
G01X301748Y24983D02*
X301265Y25466D01*
X300400Y24700D01*
X301265Y23934D01*
X301748Y24417D01*
G03Y24983I-283J283D01*
G37*
G36*
G01X305236Y92723D02*
X305236Y99213D01*
X298276Y99283D01*
X298346Y92323D01*
X304836Y92323D01*
G03X305236Y92723I0J400D01*
G37*
G36*
G01X304236Y296102D02*
X298346Y296102D01*
X298170Y289036D01*
X305236Y289213D01*
X305236Y295102D01*
G03X304236Y296102I-1000J0D01*
G37*
G36*
G01X319572Y321502D02*
X315353Y325319D01*
X312160Y322830D01*
X309447Y320201D01*
X318855Y319893D01*
G03X319572Y321502I-74J997D01*
G37*
G36*
G01X312952Y317414D02*
X315353Y320201D01*
X312400Y323010D01*
X309447Y320201D01*
X311848Y317414D01*
G03X312952I552J834D01*
G37*
G36*
G01X318855Y333108D02*
X309447Y332799D01*
X312160Y330170D01*
X315353Y327681D01*
X319572Y331498D01*
G03X318855Y333108I-791J612D01*
G37*
G36*
G01X311848Y335586D02*
X309447Y332799D01*
X312400Y329990D01*
X315353Y332799D01*
X312952Y335586D01*
G03X311848I-552J-834D01*
G37*
G36*
G01X305236Y362063D02*
X305236Y367953D01*
X298170Y368130D01*
X298346Y361063D01*
X304236Y361063D01*
G03X305236Y362063I0J1000D01*
G37*
G36*
G01X320034Y3715D02*
X320417Y4298D01*
X319591Y5100D01*
X318834Y4235D01*
X319417Y3652D01*
G03X320034Y3715I283J283D01*
G37*
G36*
G01X318846Y87738D02*
X321701Y85047D01*
X324360Y88000D01*
X321701Y90953D01*
X318846Y88262D01*
G03Y87738I303J-262D01*
G37*
G36*
G01X353307Y-45307D02*
X357711Y-40903D01*
X352600Y-35350D01*
X347489Y-40903D01*
X351893Y-45307D01*
G03X353307I707J707D01*
G37*
G36*
G01X352448Y-46914D02*
X350047Y-49701D01*
X353000Y-52510D01*
X355953Y-49701D01*
X353552Y-46914D01*
G03X352448I-552J-834D01*
G37*
G36*
G01X352583Y57683D02*
X351900D01*
X351829Y56529D01*
X352983Y56600D01*
Y57283D01*
G03X352583Y57683I-400J0D01*
G37*
G36*
G01X359383Y60883D02*
X358700D01*
X358629Y59729D01*
X359783Y59800D01*
Y60483D01*
G03X359383Y60883I-400J0D01*
G37*
G36*
G01X346276Y55176D02*
X344657D01*
X344564Y54055D01*
X345594Y54094D01*
X346276Y54776D01*
Y55176D01*
G37*
G36*
G01X339617Y52448D02*
X339134Y51965D01*
X339900Y51100D01*
X340666Y51965D01*
X340183Y52448D01*
G03X339617I-283J-283D01*
G37*
G36*
G01X357684Y221461D02*
X359489Y223266D01*
X357402Y225454D01*
X355314Y223266D01*
X357119Y221461D01*
G03X357684I283J283D01*
G37*
G36*
G01X354849Y230276D02*
X357402Y230276D01*
X357472Y233299D01*
X354449Y233228D01*
X354449Y230676D01*
G03X354849Y230276I400J0D01*
G37*
G36*
G01Y246024D02*
X357402Y246024D01*
X357472Y249047D01*
X354449Y248976D01*
X354449Y246424D01*
G03X354849Y246024I400J0D01*
G37*
G36*
G01Y238150D02*
X357402Y238150D01*
X357472Y241173D01*
X354449Y241102D01*
X354449Y238550D01*
G03X354849Y238150I400J0D01*
G37*
G36*
G01X372548Y64283D02*
X372065Y64766D01*
X371200Y64000D01*
X372065Y63235D01*
X372548Y63717D01*
G03Y64283I-283J283D01*
G37*
G36*
G01X371983Y70083D02*
X371300D01*
X371229Y68929D01*
X372383Y69000D01*
Y69683D01*
G03X371983Y70083I-400J0D01*
G37*
G36*
G01X389248Y44783D02*
X388765Y45266D01*
X387900Y44500D01*
X388765Y43735D01*
X389248Y44217D01*
G03Y44783I-283J283D01*
G37*
G36*
G01X397508Y40023D02*
X397025Y40506D01*
X396160Y39740D01*
X397025Y38975D01*
X397508Y39457D01*
G03Y40023I-283J283D01*
G37*
G36*
G01X394917Y204483D02*
Y203800D01*
X396071Y203729D01*
X396000Y204883D01*
X395317D01*
G03X394917Y204483I0J-400D01*
G37*
G36*
G01X387252Y203717D02*
X387735Y203235D01*
X388600Y204000D01*
X387735Y204766D01*
X387252Y204283D01*
G03Y203717I283J-283D01*
G37*
G36*
G01X419583Y-48998D02*
X422047Y-51299D01*
X425100Y-48740D01*
X422047Y-46181D01*
X419583Y-48482D01*
G03Y-48998I306J-258D01*
G37*
G36*
G01X422388Y-48451D02*
X419299Y-46047D01*
X416640Y-49005D01*
X419299Y-51953D01*
X422413Y-49004D01*
G03X422388Y-48451I-301J263D01*
G37*
G36*
G01X420283Y-9313D02*
X422298Y-7298D01*
X420000Y-4900D01*
X417702Y-7298D01*
X419717Y-9313D01*
G03X420283I283J283D01*
G37*
G36*
G01X411531Y47000D02*
X410765Y47766D01*
X409902Y47022D01*
X410584Y46130D01*
X411349Y46330D01*
G03X411531Y47000I-101J387D01*
G37*
G36*
G01X415748Y49283D02*
X415265Y49765D01*
X414400Y49000D01*
X415265Y48234D01*
X415748Y48717D01*
G03Y49283I-283J283D01*
G37*
G36*
G01X419748Y52283D02*
X419265Y52766D01*
X418400Y52000D01*
X419265Y51235D01*
X419748Y51717D01*
G03Y52283I-283J283D01*
G37*
G36*
G01X421752Y55817D02*
X422235Y55335D01*
X423100Y56100D01*
X422235Y56866D01*
X421752Y56383D01*
G03Y55817I283J-283D01*
G37*
G36*
G01X403783Y59117D02*
Y59800D01*
X402629Y59871D01*
X402700Y58717D01*
X403383D01*
G03X403783Y59117I0J400D01*
G37*
G36*
G01X407252Y198617D02*
X407735Y198134D01*
X408600Y198900D01*
X407735Y199666D01*
X407252Y199183D01*
G03Y198617I283J-283D01*
G37*
G36*
G01X401252Y200917D02*
X401735Y200435D01*
X402600Y201200D01*
X401735Y201966D01*
X401252Y201483D01*
G03Y200917I283J-283D01*
G37*
G36*
G01X405846Y267738D02*
X408701Y265047D01*
X411360Y268000D01*
X408701Y270953D01*
X405846Y268262D01*
G03Y267738I303J-262D01*
G37*
G36*
G01X405180Y269143D02*
X403341Y270981D01*
X401120Y268860D01*
X403341Y266739D01*
X405180Y268577D01*
G03Y269143I-283J283D01*
G37*
G36*
G01X446417Y-48482D02*
X443953Y-46181D01*
X440900Y-48740D01*
X443953Y-51299D01*
X446417Y-48998D01*
G03Y-48482I-306J258D01*
G37*
G36*
G01X427583Y-48998D02*
X430047Y-51299D01*
X433100Y-48740D01*
X430047Y-46181D01*
X427583Y-48482D01*
G03Y-48998I306J-258D01*
G37*
G36*
G01X430417Y-48482D02*
X427953Y-46181D01*
X424900Y-48740D01*
X427953Y-51299D01*
X430417Y-48998D01*
G03Y-48482I-306J258D01*
G37*
G36*
G01X440738Y-35846D02*
X438047Y-38701D01*
X441000Y-41360D01*
X443953Y-38701D01*
X441262Y-35846D01*
G03X440738I-262J-303D01*
G37*
G36*
G01X434717Y-31777D02*
X433747Y-32747D01*
X435000Y-34100D01*
X436253Y-32747D01*
X435283Y-31777D01*
G03X434717I-283J-283D01*
G37*
G36*
G01X425283Y687D02*
X427298Y2702D01*
X425000Y5100D01*
X422702Y2702D01*
X424717Y687D01*
G03X425283I283J283D01*
G37*
G36*
G01X429358Y57183D02*
X428875Y57666D01*
X428010Y56900D01*
X428875Y56135D01*
X429358Y56617D01*
G03Y57183I-283J283D01*
G37*
G36*
G01X437238Y84493D02*
X436755Y84976D01*
X435890Y84210D01*
X436755Y83445D01*
X437238Y83927D01*
G03Y84493I-283J283D01*
G37*
G36*
G01X423583Y104483D02*
X422900D01*
X422829Y103329D01*
X423983Y103400D01*
Y104083D01*
G03X423583Y104483I-400J0D01*
G37*
G36*
G01X430117Y104683D02*
Y104000D01*
X431271Y103929D01*
X431200Y105083D01*
X430517D01*
G03X430117Y104683I0J-400D01*
G37*
G36*
G01X441348Y90383D02*
X440865Y90866D01*
X440000Y90100D01*
X440865Y89334D01*
X441348Y89817D01*
G03Y90383I-283J283D01*
G37*
G36*
G01X454417Y-48482D02*
X451953Y-46181D01*
X448900Y-48740D01*
X451953Y-51299D01*
X454417Y-48998D01*
G03Y-48482I-306J258D01*
G37*
G36*
G01X443583Y-48998D02*
X446047Y-51299D01*
X449100Y-48740D01*
X446047Y-46181D01*
X443583Y-48482D01*
G03Y-48998I306J-258D01*
G37*
G36*
G01X452587Y-49004D02*
X455701Y-51953D01*
X458360Y-49005D01*
X455701Y-46047D01*
X452612Y-48451D01*
G03X452587Y-49004I277J-289D01*
G37*
G36*
G01X450283Y-9313D02*
X452298Y-7298D01*
X450000Y-4900D01*
X447702Y-7298D01*
X449717Y-9313D01*
G03X450283I283J283D01*
G37*
G36*
G01X444717Y9283D02*
X442732Y7298D01*
X445000Y4900D01*
X447268Y7298D01*
X445283Y9283D01*
G03X444717I-283J-283D01*
G37*
G36*
G01X447323Y40817D02*
Y41500D01*
X446170Y41571D01*
X446240Y40417D01*
X446923D01*
G03X447323Y40817I0J400D01*
G37*
G36*
G01X448717Y28879D02*
X446419Y26581D01*
X449000Y23900D01*
X451581Y26581D01*
X449283Y28879D01*
G03X448717I-283J-283D01*
G37*
G36*
G01X453678Y51454D02*
X453165Y51966D01*
X452276Y51213D01*
X453072Y50361D01*
X453584Y50673D01*
G03X453678Y51454I-260J427D01*
G37*
G36*
G01X450448Y48383D02*
X449965Y48866D01*
X449100Y48100D01*
X449965Y47334D01*
X450448Y47817D01*
G03Y48383I-283J283D01*
G37*
G36*
G01X455248Y80083D02*
X454765Y80566D01*
X453900Y79800D01*
X454765Y79035D01*
X455248Y79517D01*
G03Y80083I-283J283D01*
G37*
G36*
G01X455252Y83927D02*
X455735Y83445D01*
X456600Y84210D01*
X455735Y84976D01*
X455252Y84493D01*
G03Y83927I283J-283D01*
G37*
G36*
G01X461252Y89817D02*
X461735Y89334D01*
X462600Y90100D01*
X461735Y90866D01*
X461252Y90383D01*
G03Y89817I283J-283D01*
G37*
G36*
G01X453317Y153217D02*
X454000D01*
X454071Y154371D01*
X452917Y154300D01*
Y153617D01*
G03X453317Y153217I400J0D01*
G37*
G36*
G01X458370Y156982D02*
X458652Y157664D01*
X457783Y158399D01*
X457035Y157534D01*
X457717Y156852D01*
G03X458370Y156982I283J283D01*
G37*
G36*
G01X460917Y193483D02*
Y192800D01*
X462071Y192729D01*
X462000Y193883D01*
X461317D01*
G03X460917Y193483I0J-400D01*
G37*
G36*
G01X450845Y267738D02*
X453701Y265047D01*
X456360Y268000D01*
X453701Y270953D01*
X450845Y268262D01*
G03Y267738I303J-262D01*
G37*
G36*
G01X448680Y268000D02*
X447080D01*
X448163Y266917D01*
X448963Y267717D01*
X448680Y268000D01*
G37*
G36*
G01X479502Y4917D02*
X477201Y2453D01*
X479760Y-600D01*
X482319Y2453D01*
X480018Y4917D01*
G03X479502I-258J-306D01*
G37*
G36*
G01X480018Y2083D02*
X482319Y4547D01*
X479760Y7600D01*
X477201Y4547D01*
X479502Y2083D01*
G03X480018I258J306D01*
G37*
G36*
G01X474346Y7238D02*
X477201Y4547D01*
X479860Y7500D01*
X477201Y10453D01*
X474346Y7762D01*
G03Y7238I303J-262D01*
G37*
G36*
G01X476717Y32483D02*
Y31800D01*
X477871Y31729D01*
X477800Y32883D01*
X477117D01*
G03X476717Y32483I0J-400D01*
G37*
G36*
G01X466082Y58646D02*
X466494Y58234D01*
X467385Y59000D01*
X466494Y59765D01*
X466082Y59354D01*
G03Y58646I353J-354D01*
G37*
G36*
G01X466122Y50746D02*
X466535Y50335D01*
X467425Y51100D01*
X466535Y51866D01*
X466122Y51454D01*
G03Y50746I353J-354D01*
G37*
G36*
G01X484583Y84983D02*
X483900D01*
X483829Y83829D01*
X484983Y83900D01*
Y84583D01*
G03X484583Y84983I-400J0D01*
G37*
G36*
G01X485348Y90283D02*
X484865Y90766D01*
X484000Y90000D01*
X484865Y89234D01*
X485348Y89717D01*
G03Y90283I-283J283D01*
G37*
G36*
G01X469752Y100517D02*
X470235Y100034D01*
X471100Y100800D01*
X470235Y101566D01*
X469752Y101083D01*
G03Y100517I283J-283D01*
G37*
G36*
G01X466752Y95517D02*
X467235Y95034D01*
X468100Y95800D01*
X467235Y96566D01*
X466752Y96083D01*
G03Y95517I283J-283D01*
G37*
G36*
G01X465983Y127117D02*
Y127800D01*
X464829Y127871D01*
X464900Y126717D01*
X465583D01*
G03X465983Y127117I0J400D01*
G37*
G36*
G01X479583Y170617D02*
Y171300D01*
X478429Y171371D01*
X478500Y170217D01*
X479183D01*
G03X479583Y170617I0J400D01*
G37*
G36*
G01X479930Y176330D02*
X479247D01*
X479177Y175177D01*
X480330Y175247D01*
Y175930D01*
G03X479930Y176330I-400J0D01*
G37*
G36*
G01X479468Y213897D02*
X478986Y213414D01*
X479751Y212549D01*
X480517Y213414D01*
X480034Y213897D01*
G03X479468I-283J-283D01*
G37*
G36*
G01X479469Y220806D02*
X480726Y222047D01*
X479260Y225100D01*
X477794Y222047D01*
X479051Y220806D01*
G03X479469I209J341D01*
G37*
G36*
G01X493717Y62248D02*
X493235Y61765D01*
X494000Y60900D01*
X494766Y61765D01*
X494283Y62248D01*
G03X493717I-283J-283D01*
G37*
G36*
G01X499283Y118752D02*
X499766Y119235D01*
X499000Y120100D01*
X498235Y119235D01*
X498717Y118752D01*
G03X499283I283J283D01*
G37*
G36*
G01X495283Y148252D02*
X495766Y148735D01*
X495000Y149600D01*
X494235Y148735D01*
X494717Y148252D01*
G03X495283I283J283D01*
G37*
G36*
G01X498417Y169518D02*
X495953Y171819D01*
X492900Y169260D01*
X495953Y166701D01*
X498417Y169002D01*
G03Y169518I-306J258D01*
G37*
G36*
G01X487583Y169002D02*
X490047Y166701D01*
X493100Y169260D01*
X490047Y171819D01*
X487583Y169518D01*
G03Y169002I306J-258D01*
G37*
G36*
G01X495583D02*
X498047Y166701D01*
X501100Y169260D01*
X498047Y171819D01*
X495583Y169518D01*
G03Y169002I306J-258D01*
G37*
G36*
G01X503083Y152817D02*
Y153500D01*
X501929Y153571D01*
X502000Y152417D01*
X502683D01*
G03X503083Y152817I0J400D01*
G37*
G36*
G01X499283Y150252D02*
X499766Y150735D01*
X499000Y151600D01*
X498235Y150735D01*
X498717Y150252D01*
G03X499283I283J283D01*
G37*
G36*
G01X505583Y154880D02*
Y155562D01*
X504429Y155633D01*
X504500Y154480D01*
X505183D01*
G03X505583Y154880I0J400D01*
G37*
G36*
G01X498417Y176998D02*
X495953Y179299D01*
X492900Y176740D01*
X495953Y174181D01*
X498417Y176482D01*
G03Y176998I-306J258D01*
G37*
G36*
G01X487583Y176482D02*
X490047Y174181D01*
X493100Y176740D01*
X490047Y179299D01*
X487583Y176998D01*
G03Y176482I306J-258D01*
G37*
G36*
G01X495583D02*
X498047Y174181D01*
X501100Y176740D01*
X498047Y179299D01*
X495583Y176998D01*
G03Y176482I306J-258D01*
G37*
G36*
G01X495748Y199683D02*
X495265Y200166D01*
X494400Y199400D01*
X495265Y198634D01*
X495748Y199117D01*
G03Y199683I-283J283D01*
G37*
G36*
G01X496647Y199213D02*
X497047Y193701D01*
X500071Y196189D01*
X502953Y198819D01*
X497074Y199612D01*
G03X496647Y199213I-27J-399D01*
G37*
G36*
G01X505417Y196518D02*
X502953Y198819D01*
X499900Y196260D01*
X502953Y193701D01*
X505417Y196002D01*
G03Y196518I-306J258D01*
G37*
G36*
G01X502583Y196002D02*
X505047Y193701D01*
X508100Y196260D01*
X505047Y198819D01*
X502583Y196518D01*
G03Y196002I306J-258D01*
G37*
G36*
G01X493955Y203089D02*
X493472Y203572D01*
X492606Y202806D01*
X493472Y202041D01*
X493955Y202523D01*
G03Y203089I-283J283D01*
G37*
G36*
G01X505417Y203998D02*
X502953Y206299D01*
X499900Y203740D01*
X502953Y201181D01*
X505417Y203482D01*
G03Y203998I-306J258D01*
G37*
G36*
G01X495806Y203531D02*
X497047Y202274D01*
X500100Y203740D01*
X497047Y205206D01*
X495806Y203950D01*
G03Y203531I341J-209D01*
G37*
G36*
G01X502583Y203482D02*
X505047Y201181D01*
X508100Y203740D01*
X505047Y206299D01*
X502583Y203998D01*
G03Y203482I306J-258D01*
G37*
G36*
G01X497117Y227017D02*
X497800D01*
X497871Y228171D01*
X496717Y228100D01*
Y227417D01*
G03X497117Y227017I400J0D01*
G37*
G36*
G01X494125Y227607D02*
X489299Y227953D01*
X486644Y224971D01*
X489299Y222047D01*
X494358Y226941D01*
G03X494125Y227607I-294J271D01*
G37*
G36*
G01X514752Y28717D02*
X515235Y28234D01*
X516100Y29000D01*
X515235Y29766D01*
X514752Y29283D01*
G03Y28717I283J-283D01*
G37*
G36*
G01X511194Y28950D02*
X509953Y30206D01*
X506900Y28740D01*
X509953Y27274D01*
X511194Y28531D01*
G03Y28950I-341J209D01*
G37*
G36*
G01X515417Y40683D02*
X516100Y40000D01*
X517092Y39960D01*
X517000Y41083D01*
X515417D01*
Y40683D01*
G37*
G36*
G01X510729Y45895D02*
X509953Y46713D01*
X506900Y45740D01*
X509953Y44767D01*
X510729Y45586D01*
G03Y45895I-369J154D01*
G37*
G36*
G01X507317Y102917D02*
X508000D01*
X508071Y104071D01*
X506917Y104000D01*
Y103317D01*
G03X507317Y102917I400J0D01*
G37*
G36*
G01X511519Y110749D02*
X512002Y110267D01*
X512868Y111032D01*
X512002Y111798D01*
X511519Y111315D01*
G03Y110749I283J-283D01*
G37*
G36*
G01X510116Y113916D02*
X510799D01*
X510870Y115070D01*
X509717Y114999D01*
Y114316D01*
G03X510116Y113916I400J0D01*
G37*
G36*
G01X518283Y149083D02*
X517600D01*
X517529Y147929D01*
X518683Y148000D01*
Y148683D01*
G03X518283Y149083I-400J0D01*
G37*
G36*
G01X521583Y146083D02*
X520900D01*
X520829Y144929D01*
X521983Y145000D01*
Y145683D01*
G03X521583Y146083I-400J0D01*
G37*
G36*
G01X512152Y183717D02*
X512935Y182934D01*
X513797Y183677D01*
X513126Y184572D01*
X512344Y184390D01*
G03X512152Y183717I91J-390D01*
G37*
G36*
G01X509452Y181317D02*
X509935Y180834D01*
X510800Y181600D01*
X509935Y182366D01*
X509452Y181883D01*
G03Y181317I283J-283D01*
G37*
G36*
G01X514969Y185700D02*
X516034Y184634D01*
X516894Y185365D01*
X516217Y185983D01*
X515252D01*
X514969Y185700D01*
G37*
G36*
G01X518152Y187417D02*
X518834Y186734D01*
X519699Y187483D01*
X518964Y188352D01*
X518282Y188070D01*
G03X518152Y187417I153J-370D01*
G37*
G36*
G01X509083Y176317D02*
Y177000D01*
X507929Y177071D01*
X508000Y175917D01*
X508683D01*
G03X509083Y176317I0J400D01*
G37*
G36*
G01X519983Y201552D02*
X520466Y202035D01*
X519700Y202900D01*
X518935Y202035D01*
X519417Y201552D01*
G03X519983I283J283D01*
G37*
G36*
G01X523983Y198352D02*
X524466Y198835D01*
X523700Y199700D01*
X522935Y198835D01*
X523417Y198352D01*
G03X523983I283J283D01*
G37*
G36*
G01X539961Y-34062D02*
X540362Y-33662D01*
X538900Y-31825D01*
X537438Y-33662D01*
X537839Y-34062D01*
G03X539961I1061J1061D01*
G37*
G36*
G01X545467Y-9433D02*
X544400Y-9433D01*
X544223Y-11677D01*
X546467Y-11500D01*
X546467Y-10433D01*
G03X545467Y-9433I-1000J0D01*
G37*
G36*
G01X548207Y16484D02*
X548962Y17239D01*
X547500Y18950D01*
X546038Y17239D01*
X546793Y16484D01*
G03X548207I707J707D01*
G37*
G36*
G01X530883Y82483D02*
X530200D01*
X530129Y81329D01*
X531283Y81400D01*
Y82083D01*
G03X530883Y82483I-400J0D01*
G37*
G36*
G01X533917Y91048D02*
X533435Y90565D01*
X534200Y89700D01*
X534966Y90565D01*
X534483Y91048D01*
G03X533917I-283J-283D01*
G37*
G36*
G01X536217Y93148D02*
X535734Y92665D01*
X536500Y91800D01*
X537266Y92665D01*
X536783Y93148D01*
G03X536217I-283J-283D01*
G37*
G36*
G01X543683Y189747D02*
X544166Y190230D01*
X543400Y191095D01*
X542634Y190230D01*
X543117Y189747D01*
G03X543683I283J283D01*
G37*
G36*
G01X545858Y205972D02*
X546321Y206434D01*
X546316Y207281D01*
X545575Y206517D01*
Y206254D01*
X545858Y205972D01*
G37*
G36*
G01X539644Y206117D02*
X540327D01*
X540398Y207271D01*
X539244Y207200D01*
Y206517D01*
G03X539644Y206117I400J0D01*
G37*
G36*
G01X545085Y197215D02*
X544402Y197898D01*
X543307Y197935D01*
X543400Y196815D01*
X545085D01*
Y197215D01*
G37*
G36*
G01X542892Y205927D02*
X543400Y206434D01*
X543349Y207282D01*
X542610Y206517D01*
Y206209D01*
X542892Y205927D01*
G37*
G36*
G01X544483Y194250D02*
X544483Y194932D01*
X543329Y195003D01*
X543400Y193850D01*
X544083D01*
G03X544483Y194250I0J400D01*
G37*
G36*
G01X553333Y-10533D02*
X553333Y-11600D01*
X555577Y-11777D01*
X555400Y-9533D01*
X554333Y-9533D01*
G03X553333Y-10533I0J-1000D01*
G37*
G36*
G01X553207Y17184D02*
X553962Y17939D01*
X552500Y19650D01*
X551038Y17939D01*
X551793Y17184D01*
G03X553207I707J707D01*
G37*
G36*
G01X552317Y85783D02*
Y85100D01*
X553471Y85029D01*
X553400Y86183D01*
X552717D01*
G03X552317Y85783I0J-400D01*
G37*
G36*
G01X564443Y82708D02*
Y82026D01*
X565596Y81955D01*
X565526Y83108D01*
X564843D01*
G03X564443Y82708I0J-400D01*
G37*
G36*
G01X554004Y89470D02*
X554004Y88787D01*
X555158Y88716D01*
X555087Y89870D01*
X554404D01*
G03X554004Y89470I0J-400D01*
G37*
G36*
G01X559666Y108385D02*
X559283Y107802D01*
X560109Y107000D01*
X560866Y107865D01*
X560283Y108448D01*
G03X559666Y108385I-283J-283D01*
G37*
G36*
G01X560283Y124452D02*
X560766Y124935D01*
X560000Y125800D01*
X559235Y124935D01*
X559717Y124452D01*
G03X560283I283J283D01*
G37*
G36*
G01X553573Y204599D02*
X555819Y207047D01*
X553260Y210125D01*
X550701Y207047D01*
X552946Y204599D01*
G03X553573I313J390D01*
G37*
G36*
G01X552946Y207401D02*
X550701Y204953D01*
X553260Y201875D01*
X555819Y204953D01*
X553573Y207401D01*
G03X552946I-313J-390D01*
G37*
G36*
G01X561054Y204599D02*
X563299Y207047D01*
X560740Y210125D01*
X558181Y207047D01*
X560427Y204599D01*
G03X561054I313J390D01*
G37*
G36*
G01X560427Y207401D02*
X558181Y204953D01*
X560740Y201875D01*
X563299Y204953D01*
X561054Y207401D01*
G03X560427I-313J-390D01*
G37*
G36*
G01X567783Y245652D02*
X568266Y246135D01*
X567500Y247000D01*
X566734Y246135D01*
X567217Y245652D01*
G03X567783I283J283D01*
G37*
G36*
G01X581317Y28517D02*
X582000D01*
X582071Y29671D01*
X580917Y29600D01*
Y28917D01*
G03X581317Y28517I400J0D01*
G37*
G36*
G01X578417Y28998D02*
X575953Y31299D01*
X572900Y28740D01*
X575953Y26181D01*
X578417Y28482D01*
G03Y28998I-306J258D01*
G37*
G36*
G01X581417Y40776D02*
Y39300D01*
X582542Y39209D01*
X582500Y40093D01*
X581817Y40776D01*
X581417D01*
G37*
G36*
G01X577194Y45950D02*
X575953Y47206D01*
X572900Y45740D01*
X575953Y44274D01*
X577194Y45531D01*
G03Y45950I-341J209D01*
G37*
G36*
G01X580717Y97548D02*
X580235Y97065D01*
X581000Y96200D01*
X581766Y97065D01*
X581283Y97548D01*
G03X580717I-283J-283D01*
G37*
G36*
G01X581283Y142352D02*
X581766Y142835D01*
X581000Y143700D01*
X580235Y142835D01*
X580717Y142352D01*
G03X581283I283J283D01*
G37*
G36*
G01X589783Y156282D02*
X590266Y156765D01*
X589500Y157631D01*
X588735Y156765D01*
X589217Y156282D01*
G03X589783I283J283D01*
G37*
G36*
G01X582217Y231448D02*
X581734Y230965D01*
X582500Y230100D01*
X583266Y230965D01*
X582783Y231448D01*
G03X582217I-283J-283D01*
G37*
G36*
G01X573017Y233248D02*
X572535Y232765D01*
X573300Y231900D01*
X574066Y232765D01*
X573583Y233248D01*
G03X573017I-283J-283D01*
G37*
G36*
G01X575817Y231448D02*
X575334Y230965D01*
X576100Y230100D01*
X576866Y230965D01*
X576383Y231448D01*
G03X575817I-283J-283D01*
G37*
G36*
G01X570500Y240534D02*
Y241500D01*
X569968Y242095D01*
X569234Y241234D01*
X570217Y240252D01*
X570500Y240534D01*
G37*
G36*
G01X570217Y234948D02*
X569734Y234465D01*
X570500Y233600D01*
X571266Y234465D01*
X570783Y234948D01*
G03X570217I-283J-283D01*
G37*
G36*
G01X576383Y250752D02*
X576866Y251235D01*
X576100Y252100D01*
X575334Y251235D01*
X575817Y250752D01*
G03X576383I283J283D01*
G37*
G36*
G01X580170Y240682D02*
X580452Y241364D01*
X579583Y242099D01*
X578834Y241234D01*
X579517Y240552D01*
G03X580170Y240682I283J283D01*
G37*
G36*
G01X579517Y238148D02*
X579034Y237665D01*
X579800Y236800D01*
X580566Y237665D01*
X580083Y238148D01*
G03X579517I-283J-283D01*
G37*
G36*
G01X582783Y255752D02*
X583266Y256235D01*
X582500Y257100D01*
X581734Y256235D01*
X582217Y255752D01*
G03X582783I283J283D01*
G37*
G36*
G01X573300Y255434D02*
Y256400D01*
X572768Y256995D01*
X572034Y256134D01*
X573017Y255152D01*
X573300Y255434D01*
G37*
G36*
G01X604061Y-33579D02*
X604462Y-33178D01*
X603000Y-31341D01*
X601538Y-33178D01*
X601939Y-33579D01*
G03X604061I1061J1061D01*
G37*
G36*
G01X611067Y-8933D02*
X610000Y-8933D01*
X609823Y-11177D01*
X612067Y-11000D01*
X612067Y-9933D01*
G03X611067Y-8933I-1000J0D01*
G37*
G36*
G01X609347Y115753D02*
X609347Y113200D01*
X612371Y113129D01*
X612300Y116153D01*
X609747Y116153D01*
G03X609347Y115753I0J-400D01*
G37*
G36*
G01Y125753D02*
X609347Y123200D01*
X612371Y123129D01*
X612300Y126153D01*
X609747Y126153D01*
G03X609347Y125753I0J-400D01*
G37*
G36*
G01X592683Y153252D02*
X593166Y153735D01*
X592400Y154600D01*
X591635Y153735D01*
X592117Y153252D01*
G03X592683I283J283D01*
G37*
G36*
G01X605948Y210983D02*
X605465Y211466D01*
X604600Y210700D01*
X605465Y209934D01*
X605948Y210417D01*
G03Y210983I-283J283D01*
G37*
G36*
G01X609648Y208383D02*
X609165Y208866D01*
X608300Y208100D01*
X609165Y207334D01*
X609648Y207817D01*
G03Y208383I-283J283D01*
G37*
G36*
G01X600548Y215783D02*
X600065Y216266D01*
X599200Y215500D01*
X600065Y214734D01*
X600548Y215217D01*
G03Y215783I-283J283D01*
G37*
G36*
G01X603348Y213383D02*
X602865Y213866D01*
X602000Y213100D01*
X602865Y212334D01*
X603348Y212817D01*
G03Y213383I-283J283D01*
G37*
G36*
G01X617933Y-9933D02*
X617933Y-11000D01*
X620177Y-11177D01*
X620000Y-8933D01*
X618933Y-8933D01*
G03X617933Y-9933I0J-1000D01*
G37*
G36*
G01X618207Y17784D02*
X618962Y18539D01*
X617500Y20250D01*
X616039Y18539D01*
X616793Y17784D01*
G03X618207I707J707D01*
G37*
G36*
G01X613207Y16684D02*
X613962Y17439D01*
X612500Y19150D01*
X611038Y17439D01*
X611793Y16684D01*
G03X613207I707J707D01*
G37*
G36*
G01X631893Y192030D02*
X630962Y192962D01*
X629312Y191500D01*
X630962Y190038D01*
X631893Y190970D01*
G03Y192030I-530J530D01*
G37*
G36*
G01X612548Y205883D02*
X612065Y206366D01*
X611200Y205600D01*
X612065Y204834D01*
X612548Y205317D01*
G03Y205883I-283J283D01*
G37*
G36*
G01X615836Y202061D02*
X614892Y202082D01*
X614305Y201169D01*
X615166Y200435D01*
X616110Y201379D01*
G03X615836Y202061I-283J283D01*
G37*
G36*
G01X619148Y196683D02*
X618665Y197166D01*
X617800Y196400D01*
X618665Y195634D01*
X619148Y196117D01*
G03Y196683I-283J283D01*
G37*
G36*
G01X648752Y28617D02*
X649235Y28134D01*
X650100Y28900D01*
X649235Y29666D01*
X648752Y29183D01*
G03Y28617I283J-283D01*
G37*
G36*
G01X642194Y28950D02*
X640953Y30206D01*
X637900Y28740D01*
X640953Y27274D01*
X642194Y28531D01*
G03Y28950I-341J209D01*
G37*
G36*
G01X647752Y39517D02*
X648235Y39035D01*
X649100Y39800D01*
X648235Y40566D01*
X647752Y40083D01*
G03Y39517I283J-283D01*
G37*
G36*
G01X642410Y43263D02*
X640953Y48299D01*
X637916Y45794D01*
X635047Y43181D01*
X642019Y42781D01*
G03X642410Y43263I0J400D01*
G37*
G36*
G01X646201Y170364D02*
X645719Y169881D01*
X646484Y169016D01*
X647250Y169881D01*
X646767Y170364D01*
G03X646201I-283J-283D01*
G37*
G36*
G01X643878Y165887D02*
X643396Y165404D01*
X644161Y164539D01*
X644927Y165404D01*
X644444Y165887D01*
G03X643878I-283J-283D01*
G37*
G36*
G01X649433Y193067D02*
X649433Y191500D01*
X651588Y191412D01*
X651500Y193567D01*
X649933Y193567D01*
G03X649433Y193067I0J-500D01*
G37*
G36*
G01X654002Y227417D02*
X651701Y224953D01*
X654260Y221900D01*
X656819Y224953D01*
X654518Y227417D01*
G03X654002I-258J-306D01*
G37*
G36*
G01X654518Y224583D02*
X656819Y227047D01*
X654260Y230100D01*
X651701Y227047D01*
X654002Y224583D01*
G03X654518I258J306D01*
G37*
G36*
G01X654002Y235417D02*
X651701Y232953D01*
X654260Y229900D01*
X656819Y232953D01*
X654518Y235417D01*
G03X654002I-258J-306D01*
G37*
G36*
G01X654518Y232583D02*
X656819Y235047D01*
X654260Y238100D01*
X651701Y235047D01*
X654002Y232583D01*
G03X654518I258J306D01*
G37*
G36*
G01X654002Y243417D02*
X651701Y240953D01*
X654260Y237900D01*
X656819Y240953D01*
X654518Y243417D01*
G03X654002I-258J-306D01*
G37*
G36*
G01X654518Y240583D02*
X656819Y243047D01*
X654260Y246100D01*
X651701Y243047D01*
X654002Y240583D01*
G03X654518I258J306D01*
G37*
G36*
G01X654002Y251417D02*
X651701Y248953D01*
X654260Y245900D01*
X656819Y248953D01*
X654518Y251417D01*
G03X654002I-258J-306D01*
G37*
G36*
G01X654518Y248583D02*
X656819Y251047D01*
X654260Y254100D01*
X651701Y251047D01*
X654002Y248583D01*
G03X654518I258J306D01*
G37*
G36*
G01X654002Y259417D02*
X651701Y256953D01*
X654260Y253900D01*
X656819Y256953D01*
X654518Y259417D01*
G03X654002I-258J-306D01*
G37*
G36*
G01X654518Y256583D02*
X656819Y259047D01*
X654260Y262100D01*
X651701Y259047D01*
X654002Y256583D01*
G03X654518I258J306D01*
G37*
G36*
G01X669961Y-34062D02*
X670362Y-33662D01*
X668900Y-31825D01*
X667438Y-33662D01*
X667839Y-34062D01*
G03X669961I1061J1061D01*
G37*
G36*
G01X660683Y84183D02*
X660000D01*
X659929Y83029D01*
X661083Y83100D01*
Y83783D01*
G03X660683Y84183I-400J0D01*
G37*
G36*
G01X670683Y84383D02*
X670000D01*
X669929Y83229D01*
X671083Y83300D01*
Y83983D01*
G03X670683Y84383I-400J0D01*
G37*
G36*
G01X663917Y169283D02*
Y168600D01*
X665071Y168529D01*
X665000Y169683D01*
X664317D01*
G03X663917Y169283I0J-400D01*
G37*
G36*
G01X663817Y164183D02*
Y163500D01*
X664971Y163429D01*
X664900Y164583D01*
X664217D01*
G03X663817Y164183I0J-400D01*
G37*
G36*
G01X658022Y182320D02*
X658705Y182536D01*
X658645Y183680D01*
X657502Y183600D01*
Y182702D01*
G03X658022Y182320I400J0D01*
G37*
G36*
G01X663685Y187254D02*
X664168Y187737D01*
X663402Y188602D01*
X662637Y187737D01*
X663120Y187254D01*
G03X663685I283J283D01*
G37*
G36*
G01X660208Y179577D02*
X660691Y180060D01*
X659925Y180925D01*
X659160Y180060D01*
X659642Y179577D01*
G03X660208I283J283D01*
G37*
G36*
G01X660817Y189417D02*
X661500Y190100D01*
X661538Y191154D01*
X660417Y191061D01*
Y189417D01*
X660817D01*
G37*
G36*
G01X669917Y208048D02*
X669434Y207565D01*
X670200Y206700D01*
X670966Y207565D01*
X670483Y208048D01*
G03X669917I-283J-283D01*
G37*
G36*
G01X668952Y206517D02*
X669435Y206034D01*
X670300Y206800D01*
X669435Y207566D01*
X668952Y207083D01*
G03Y206517I283J-283D01*
G37*
G36*
G01X672534Y205875D02*
X672052Y205392D01*
X672817Y204527D01*
X673583Y205392D01*
X673100Y205875D01*
G03X672534I-283J-283D01*
G37*
G36*
G01X671411Y203822D02*
X672300Y203746D01*
X672913Y204655D01*
X672052Y205392D01*
X671163Y204503D01*
G03X671411Y203822I283J-283D01*
G37*
G36*
G01X663914Y211562D02*
X664499Y211182D01*
X665300Y212010D01*
X664435Y212766D01*
X663849Y212180D01*
G03X663914Y211562I283J-283D01*
G37*
G36*
G01X667317Y210748D02*
X666834Y210265D01*
X667600Y209400D01*
X668366Y210265D01*
X667883Y210748D01*
G03X667317I-283J-283D01*
G37*
G36*
G01X666295Y208981D02*
X666939Y208659D01*
X667699Y209514D01*
X666834Y210266D01*
X666190Y209622D01*
G03X666295Y208981I283J-283D01*
G37*
G36*
G01X657166Y213989D02*
X658187Y214252D01*
X658117Y216147D01*
X656228Y216000D01*
X656228Y214715D01*
G03X657166Y213989I750J0D01*
G37*
G36*
G01X661998Y216583D02*
X664299Y219047D01*
X661740Y222100D01*
X659181Y219047D01*
X661482Y216583D01*
G03X661998I258J306D01*
G37*
G36*
G01X664117Y212683D02*
Y212000D01*
X665271Y211929D01*
X665200Y213083D01*
X664517D01*
G03X664117Y212683I0J-400D01*
G37*
G36*
G01X665928Y230229D02*
X664299Y231867D01*
X661640Y230000D01*
X664299Y228134D01*
X665928Y229771D01*
G03Y230229I-328J229D01*
G37*
G36*
G01X667154Y254262D02*
X664299Y256953D01*
X661640Y254000D01*
X664299Y251047D01*
X667154Y253738D01*
G03Y254262I-303J262D01*
G37*
G36*
G01Y238262D02*
X664299Y240953D01*
X661640Y238000D01*
X664299Y235047D01*
X667154Y237738D01*
G03Y238262I-303J262D01*
G37*
G36*
G01X666026Y246232D02*
X664299Y247967D01*
X661640Y246000D01*
X664299Y244034D01*
X666026Y245768D01*
G03Y246232I-326J232D01*
G37*
G36*
G01X667154Y262262D02*
X664299Y264953D01*
X661640Y262000D01*
X664299Y259047D01*
X667154Y261738D01*
G03Y262262I-303J262D01*
G37*
G36*
G01X675467Y-9433D02*
X674400Y-9433D01*
X674223Y-11677D01*
X676467Y-11500D01*
X676467Y-10433D01*
G03X675467Y-9433I-1000J0D01*
G37*
G36*
G01X683333Y-10533D02*
X683333Y-11600D01*
X685577Y-11777D01*
X685400Y-9533D01*
X684333Y-9533D01*
G03X683333Y-10533I0J-1000D01*
G37*
G36*
G01X678207Y16484D02*
X678962Y17239D01*
X677500Y18950D01*
X676038Y17239D01*
X676793Y16484D01*
G03X678207I707J707D01*
G37*
G36*
G01X683207Y17184D02*
X683962Y17939D01*
X682500Y19650D01*
X681038Y17939D01*
X681793Y17184D01*
G03X683207I707J707D01*
G37*
G36*
G01X680683Y84283D02*
X680000D01*
X679929Y83129D01*
X681083Y83200D01*
Y83883D01*
G03X680683Y84283I-400J0D01*
G37*
G36*
G01X679183Y160183D02*
X678500D01*
X678429Y159029D01*
X679583Y159100D01*
Y159783D01*
G03X679183Y160183I-400J0D01*
G37*
G36*
G01X682283Y184695D02*
X682766Y185178D01*
X682000Y186043D01*
X681234Y185178D01*
X681717Y184695D01*
G03X682283I283J283D01*
G37*
G36*
G01X674817Y202910D02*
X674335Y202427D01*
X675100Y201561D01*
X675866Y202427D01*
X675383Y202910D01*
G03X674817I-283J-283D01*
G37*
G36*
G01X673852Y201378D02*
X674335Y200896D01*
X675200Y201661D01*
X674335Y202427D01*
X673852Y201944D01*
G03Y201378I283J-283D01*
G37*
G36*
G01X675783Y197626D02*
X675100D01*
X675029Y196473D01*
X676183Y196543D01*
Y197226D01*
G03X675783Y197626I-400J0D01*
G37*
G36*
G01X673852Y196260D02*
X674335Y195778D01*
X675200Y196543D01*
X674335Y197309D01*
X673852Y196826D01*
G03Y196260I283J-283D01*
G37*
G36*
G01X682483Y215617D02*
Y216300D01*
X681329Y216371D01*
X681400Y215217D01*
X682083D01*
G03X682483Y215617I0J400D01*
G37*
G36*
G01X689483Y217852D02*
X689966Y218335D01*
X689200Y219200D01*
X688435Y218335D01*
X688917Y217852D01*
G03X689483I283J283D01*
G37*
G36*
G01X686783Y221417D02*
Y222100D01*
X685629Y222171D01*
X685700Y221017D01*
X686383D01*
G03X686783Y221417I0J400D01*
G37*
G36*
G01X709600Y29479D02*
X705953Y30299D01*
X702902Y27720D01*
X705953Y25181D01*
X709769Y28833D01*
G03X709600Y29479I-298J267D01*
G37*
G36*
G01X709217Y42083D02*
Y41400D01*
X710371Y41329D01*
X710300Y42483D01*
X709617D01*
G03X709217Y42083I0J-400D01*
G37*
G36*
G01X707297Y44956D02*
X705953Y46313D01*
X702900Y44740D01*
X705953Y43167D01*
X707297Y44524D01*
G03Y44956I-337J216D01*
G37*
G36*
G01X701217Y94883D02*
Y94200D01*
X702371Y94129D01*
X702300Y95283D01*
X701617D01*
G03X701217Y94883I0J-400D01*
G37*
G36*
G01X714617Y97083D02*
Y96400D01*
X715771Y96329D01*
X715700Y97483D01*
X715017D01*
G03X714617Y97083I0J-400D01*
G37*
G36*
G01X709817Y92483D02*
Y91800D01*
X710971Y91729D01*
X710900Y92883D01*
X710217D01*
G03X709817Y92483I0J-400D01*
G37*
G36*
G01X703800Y210417D02*
X704600D01*
X704676Y211565D01*
X703523Y211568D01*
X703406Y210885D01*
G03X703800Y210417I394J-68D01*
G37*
G36*
G01X695883Y223081D02*
X696366Y223564D01*
X695600Y224429D01*
X694835Y223564D01*
X695317Y223081D01*
G03X695883I283J283D01*
G37*
G36*
G01X708390Y212845D02*
X708873Y213328D01*
X708107Y214193D01*
X707342Y213328D01*
X707824Y212845D01*
G03X708390I283J283D01*
G37*
G36*
G01X734961Y-34062D02*
X735362Y-33662D01*
X733900Y-31825D01*
X732438Y-33662D01*
X732839Y-34062D01*
G03X734961I1061J1061D01*
G37*
G36*
G01X715852Y28817D02*
X716335Y28334D01*
X717200Y29100D01*
X716335Y29866D01*
X715852Y29383D01*
G03Y28817I283J-283D01*
G37*
G36*
G01X738003Y168067D02*
X740819Y171047D01*
X738269Y174100D01*
X735701Y171047D01*
X737422Y168126D01*
G03X738003Y168067I318J242D01*
G37*
G36*
G01X737482Y171417D02*
X735181Y168953D01*
X737740Y165900D01*
X740299Y168953D01*
X737998Y171417D01*
G03X737482I-258J-306D01*
G37*
G36*
G01X729946Y187401D02*
X727701Y184953D01*
X730260Y181875D01*
X732819Y184953D01*
X730573Y187401D01*
G03X729946I-313J-390D01*
G37*
G36*
G01X730573Y184599D02*
X732819Y187047D01*
X730260Y190125D01*
X727701Y187047D01*
X729946Y184599D01*
G03X730573I313J390D01*
G37*
G36*
G01X737998Y176583D02*
X740299Y179047D01*
X737740Y182100D01*
X735181Y179047D01*
X737482Y176583D01*
G03X737998I258J306D01*
G37*
G36*
G01X737482Y187417D02*
X735181Y184953D01*
X737740Y181900D01*
X740299Y184953D01*
X737998Y187417D01*
G03X737482I-258J-306D01*
G37*
G36*
G01X737998Y184583D02*
X740299Y187047D01*
X737740Y190100D01*
X735181Y187047D01*
X737482Y184583D01*
G03X737998I258J306D01*
G37*
G36*
G01X737422Y179874D02*
X735701Y176953D01*
X738269Y173900D01*
X740819Y176953D01*
X738003Y179933D01*
G03X737422Y179874I-263J-302D01*
G37*
G36*
G01X740467Y-9433D02*
X739400Y-9433D01*
X739223Y-11677D01*
X741467Y-11500D01*
X741467Y-10433D01*
G03X740467Y-9433I-1000J0D01*
G37*
G36*
G01X748333Y-10533D02*
X748333Y-11600D01*
X750577Y-11777D01*
X750400Y-9533D01*
X749333Y-9533D01*
G03X748333Y-10533I0J-1000D01*
G37*
G36*
G01X743207Y16484D02*
X743962Y17239D01*
X742500Y18950D01*
X741039Y17239D01*
X741793Y16484D01*
G03X743207I707J707D01*
G37*
G36*
G01X748207Y17184D02*
X748962Y17939D01*
X747500Y19650D01*
X746038Y17939D01*
X746793Y17184D01*
G03X748207I707J707D01*
G37*
G36*
G01X755474Y168879D02*
X758053Y171701D01*
X755100Y174410D01*
X752147Y171701D01*
X754726Y168879D01*
G03X755474I374J469D01*
G37*
G36*
G01X754729Y171643D02*
X752281Y168953D01*
X754833Y165850D01*
X757399Y168953D01*
X755517Y171603D01*
G03X754729Y171643I-417J-432D01*
G37*
G36*
G01X781917Y202018D02*
X779453Y204319D01*
X776400Y201760D01*
X779453Y199201D01*
X781917Y201502D01*
G03Y202018I-306J258D01*
G37*
G36*
G01X764550Y223193D02*
X764891Y223534D01*
X764126Y224450D01*
X763360Y223534D01*
X763702Y223193D01*
G03X764550I424J424D01*
G37*
G36*
G01X767516D02*
X767857Y223534D01*
X767091Y224450D01*
X766326Y223534D01*
X766667Y223193D01*
G03X767516I424J424D01*
G37*
G36*
G01X761585D02*
X761926Y223534D01*
X761160Y224450D01*
X760395Y223534D01*
X760736Y223193D01*
G03X761585I424J424D01*
G37*
G36*
G01X770481D02*
X770822Y223534D01*
X770057Y224450D01*
X769291Y223534D01*
X769632Y223193D01*
G03X770481I424J424D01*
G37*
G36*
G01X783959Y142772D02*
X783618Y143114D01*
X782702Y142348D01*
X783618Y141582D01*
X783959Y141924D01*
G03Y142772I-424J424D01*
G37*
G36*
G01X785738Y190655D02*
X783047Y187799D01*
X786000Y185140D01*
X788953Y187799D01*
X786262Y190655D01*
G03X785738I-262J-303D01*
G37*
G36*
G01X786290Y187853D02*
X788299Y190547D01*
X785735Y193600D01*
X783181Y190547D01*
X785740Y187825D01*
G03X786290Y187853I260J304D01*
G37*
G36*
G01X779083Y201502D02*
X781547Y199201D01*
X784600Y201760D01*
X781547Y204319D01*
X779083Y202018D01*
G03Y201502I306J-258D01*
G37*
G36*
G01X784762Y196346D02*
X787453Y199201D01*
X784500Y201860D01*
X781547Y199201D01*
X784238Y196346D01*
G03X784762I262J303D01*
G37*
G36*
G01X784127Y199997D02*
X783181Y196453D01*
X785759Y193402D01*
X788299Y196453D01*
X784767Y200150D01*
G03X784127Y199997I-267J-298D01*
G37*
G36*
G01X800876Y4107D02*
X800534Y3766D01*
X801300Y2850D01*
X802066Y3766D01*
X801724Y4107D01*
G03X800876I-424J-424D01*
G37*
G36*
G01X812703Y193138D02*
Y193620D01*
X811514Y193727D01*
X811621Y192538D01*
X812103D01*
G03X812703Y193138I0J600D01*
G37*
G36*
G01X829393Y13576D02*
X829734Y13234D01*
X830650Y14000D01*
X829734Y14766D01*
X829393Y14424D01*
G03Y13576I424J-424D01*
G37*
G36*
G01X820893Y2876D02*
X821234Y2534D01*
X822150Y3300D01*
X821234Y4066D01*
X820893Y3724D01*
G03Y2876I424J-424D01*
G37*
G36*
G01X824593Y6076D02*
X824934Y5734D01*
X825850Y6500D01*
X824934Y7266D01*
X824593Y6924D01*
G03Y6076I424J-424D01*
G37*
G36*
G01X831915Y17976D02*
X832395Y17495D01*
X833450Y18400D01*
X832395Y19305D01*
X831915Y18824D01*
G03Y17976I424J-424D01*
G37*
G36*
G01X827493Y9276D02*
X827834Y8934D01*
X828750Y9700D01*
X827834Y10466D01*
X827493Y10124D01*
G03Y9276I424J-424D01*
G37*
G36*
G01X837714Y92569D02*
X837532Y90811D01*
X838928Y89704D01*
X840153Y91053D01*
X838395Y92811D01*
G03X837714Y92569I-283J-283D01*
G37*
G36*
G01X838395Y161664D02*
X838877Y162146D01*
X838112Y163012D01*
X837346Y162146D01*
X837829Y161664D01*
G03X838395I283J283D01*
G37*
G36*
G01X836960Y213583D02*
X835121Y215421D01*
X832900Y213300D01*
X835121Y211179D01*
X836960Y213017D01*
G03Y213583I-283J283D01*
G37*
G36*
G01X839791Y211540D02*
X838534Y210299D01*
X840000Y207640D01*
X841466Y210299D01*
X840209Y211540D01*
G03X839791I-209J-341D01*
G37*
G36*
G01X840170Y196838D02*
X841067Y197701D01*
X840000Y200360D01*
X838933Y197701D01*
X839830Y196838D01*
G03X840170I170J362D01*
G37*
G36*
G01X836960Y194583D02*
X835121Y196421D01*
X832900Y194300D01*
X835121Y192179D01*
X836960Y194017D01*
G03Y194583I-283J283D01*
G37*
G36*
G01X847728Y63272D02*
X847728Y61300D01*
X849557Y61218D01*
X849660Y63038D01*
X848289Y63638D01*
G03X847728Y63272I-160J-366D01*
G37*
G36*
G01X844030Y159104D02*
X844513Y159587D01*
X843747Y160453D01*
X842982Y159587D01*
X843464Y159104D01*
G03X844030I283J283D01*
G37*
G36*
G01X964220Y86260D02*
Y88860D01*
X961149Y88931D01*
X961220Y85860D01*
X963820D01*
G03X964220Y86260I0J400D01*
G37*
G36*
G01Y116260D02*
Y118860D01*
X961149Y118931D01*
X961220Y115860D01*
X963820D01*
G03X964220Y116260I0J400D01*
G37*
G36*
G01Y146260D02*
Y148860D01*
X961149Y148931D01*
X961220Y145860D01*
X963820D01*
G03X964220Y146260I0J400D01*
G37*
G36*
G01Y176260D02*
Y178860D01*
X961149Y178931D01*
X961220Y175860D01*
X963820D01*
G03X964220Y176260I0J400D01*
G37*
G36*
G01Y206260D02*
Y208860D01*
X961149Y208931D01*
X961220Y205860D01*
X963820D01*
G03X964220Y206260I0J400D01*
G37*
G36*
G01X964320Y236360D02*
Y238960D01*
X961249Y239031D01*
X961320Y235960D01*
X963920D01*
G03X964320Y236360I0J400D01*
G37*
G36*
G01X964220Y266260D02*
Y268860D01*
X961149Y268931D01*
X961220Y265860D01*
X963820D01*
G03X964220Y266260I0J400D01*
G37*
G36*
G01Y296260D02*
Y298860D01*
X961149Y298931D01*
X961220Y295860D01*
X963820D01*
G03X964220Y296260I0J400D01*
G37*
G36*
G01X980953Y34447D02*
X980953Y37000D01*
X977929Y37071D01*
X978000Y34047D01*
X980553Y34047D01*
G03X980953Y34447I0J400D01*
G37*
G36*
G01X999852Y25917D02*
X1000335Y25434D01*
X1001200Y26200D01*
X1000335Y26965D01*
X999852Y26483D01*
G03Y25917I283J-283D01*
G37*
G54D10*
X55000Y-55000D03*
Y405000D03*
X338800Y409200D03*
X500000Y-55000D03*
X990000D03*
Y405000D03*
G54D11*
X52548Y10372D03*
X429528Y405748D03*
X479528D03*
X530472Y-55748D03*
X529528Y405748D03*
X579528D03*
X595472Y-55748D03*
X629528Y405748D03*
X660472Y-55748D03*
X719528Y405748D03*
X725472Y-55748D03*
X779528Y405748D03*
X809528Y-54252D03*
X839528Y405748D03*
X859528Y-54252D03*
X899528Y405748D03*
X914528Y-54252D03*
X964528D03*
X959528Y405748D03*
G54D20*
X170000Y-30000D03*
X325000D03*
G54D12*
X52548Y30057D03*
X409843Y405748D03*
X459843D03*
X509843D03*
X550158Y-55748D03*
X559843Y405748D03*
X615158Y-55748D03*
X609843Y405748D03*
X680158Y-55748D03*
X699842Y405748D03*
X745158Y-55748D03*
X759843Y405748D03*
X789842Y-54252D03*
X819842Y405748D03*
X839842Y-54252D03*
X879842Y405748D03*
X894842Y-54252D03*
X944842D03*
X939842Y405748D03*
G54D21*
X198000Y-59740D03*
Y-52260D03*
X255000Y141260D03*
Y148740D03*
X275000Y118740D03*
Y111260D03*
Y138740D03*
Y131260D03*
Y293740D03*
Y286260D03*
Y313740D03*
Y306260D03*
X312400Y330240D03*
Y322760D03*
X353000Y-59740D03*
Y-52260D03*
X413500Y76760D03*
Y84240D03*
X433000Y-41260D03*
Y-48740D03*
X441000Y-41260D03*
Y-48740D03*
X425000Y-41260D03*
Y-48740D03*
X449000Y-41260D03*
Y-48740D03*
X507000Y21260D03*
Y28740D03*
Y38260D03*
Y45740D03*
X493000Y169260D03*
X501000D03*
X493000Y176740D03*
X501000D03*
X500000Y196260D03*
Y203740D03*
X508000Y196260D03*
Y203740D03*
X573000Y21260D03*
Y28740D03*
Y38260D03*
Y45740D03*
X638000Y21260D03*
Y28740D03*
Y38260D03*
Y45740D03*
X703000Y20260D03*
Y27740D03*
Y37260D03*
Y44740D03*
X755100Y181740D03*
Y174260D03*
X776500Y209240D03*
Y201760D03*
X786000Y177760D03*
Y185240D03*
X784500Y209240D03*
Y201760D03*
X840000Y207740D03*
Y200260D03*
G54D30*
X401220Y251140D03*
Y268860D03*
X428780Y251140D03*
Y268860D03*
X446220Y251140D03*
Y268860D03*
X473780Y251140D03*
Y268860D03*
X833000Y194300D03*
Y213300D03*
X907500Y32433D03*
Y111567D03*
X961220Y88860D03*
Y71140D03*
Y101140D03*
Y118860D03*
Y148860D03*
Y131140D03*
Y161140D03*
Y178860D03*
Y191140D03*
Y208860D03*
X961320Y221240D03*
X961220Y251140D03*
X961320Y238960D03*
X961220Y268860D03*
Y298860D03*
Y281140D03*
X988780Y71140D03*
Y88860D03*
Y101140D03*
Y118860D03*
Y131140D03*
Y148860D03*
Y161140D03*
Y178860D03*
Y191140D03*
Y208860D03*
X988880Y221240D03*
X988780Y251140D03*
X988880Y238960D03*
X988780Y268860D03*
Y281140D03*
Y298860D03*
G54D40*
G01X50000Y210000D02*
Y105433D01*
X85748Y69685D01*
G01Y207480D02*
Y227152D01*
X62900Y250000D01*
X50000D01*
G01X85748Y138583D02*
X119600Y172435D01*
Y294731D01*
X85748Y328583D01*
G54D22*
X256260Y125000D03*
Y305000D03*
Y315000D03*
X263740Y125000D03*
Y305000D03*
Y315000D03*
X324260Y88000D03*
X331740D03*
X409260Y-49000D03*
X416740D03*
X411260Y268000D03*
X418740D03*
X465740Y-49000D03*
X458260D03*
X456260Y268000D03*
X463740D03*
X487240Y-500D03*
X479760D03*
Y7500D03*
X487240D03*
X479260Y225000D03*
X486740D03*
X553260Y210000D03*
X560740D03*
X553260Y202000D03*
X560740D03*
X654260Y230000D03*
Y222000D03*
Y254000D03*
Y246000D03*
Y238000D03*
Y262000D03*
X661740Y230000D03*
Y222000D03*
Y254000D03*
Y246000D03*
Y238000D03*
Y262000D03*
X730260Y166000D03*
X737740D03*
X738260Y174000D03*
X730260Y182000D03*
X737740D03*
X730260Y190000D03*
X737740D03*
X747360Y166000D03*
X754840D03*
X745740Y174000D03*
X778260Y193500D03*
X785740D03*
X971260Y80000D03*
X978740D03*
X971260Y110000D03*
X978740D03*
X971260Y140000D03*
X978740D03*
X971260Y170000D03*
X978740D03*
X971260Y200000D03*
X978740D03*
X971260Y230000D03*
X978740D03*
X971260Y260000D03*
X978740D03*
X971260Y290000D03*
X978740D03*
G54D13*
X50000Y210000D03*
Y230000D03*
G54D31*
G01X452800Y59900D02*
X453700Y59000D01*
X467260D01*
G01X452400Y51200D02*
X452500Y51100D01*
X467300D01*
G01X553260Y210000D02*
Y202000D01*
G01D02*
X553500D01*
G01X560740Y210000D02*
Y202000D01*
G01D02*
X560500D01*
G01X651500Y191500D02*
X649000Y194000D01*
X647102D01*
X646102Y195000D01*
Y198102D01*
X647102Y199102D01*
X652222D01*
G01X730260Y182000D02*
Y190000D01*
X415000Y-30000D03*
X460000D03*
G54D41*
G01X142500Y27100D02*
Y-13300D01*
X159200Y-30000D01*
G01X198000Y-52260D02*
Y-44400D01*
X197600Y-44000D01*
Y-35600D01*
G01X199000Y69000D02*
Y61000D01*
G01X295500Y24600D02*
Y-23000D01*
G01X298000Y-41200D02*
X301450Y-37750D01*
X303850D01*
X308900Y-32700D01*
Y-26700D01*
X315500Y-20100D01*
Y4500D01*
G01X319600Y5000D02*
X319700Y4900D01*
Y-32800D01*
X311300Y-41200D01*
X308800D01*
G01X300500Y24700D02*
X302000D01*
X303400Y23300D01*
Y-30000D01*
G01X324260Y88000D02*
X309559D01*
X298346Y99213D01*
G01X351900Y56600D02*
X424700Y129400D01*
Y131874D01*
X476826Y184000D01*
X513400D01*
X513700Y183700D01*
G01X358700Y59800D02*
X426300Y127400D01*
Y131212D01*
X476688Y181600D01*
X510700D01*
G01X516800Y185400D02*
X516217Y185983D01*
X476546D01*
X423100Y132537D01*
Y131600D01*
X345594Y54094D01*
X344657D01*
G01X339900Y51200D02*
Y52800D01*
X474800Y187700D01*
X519400D01*
X519600Y187500D01*
G01X408500Y198900D02*
X360200D01*
X344700Y214400D01*
Y236275D01*
X357402Y248976D01*
G01X402500Y201200D02*
X362800D01*
X347600Y216400D01*
Y231301D01*
X357402Y241102D01*
G01X388500Y204000D02*
X364900D01*
X350200Y218700D01*
Y226027D01*
X357402Y233228D01*
G01Y225354D02*
Y216998D01*
X367400Y207000D01*
X392800D01*
X396000Y203800D01*
G01X468000Y95800D02*
X405171D01*
X373371Y64000D01*
X371300D01*
G01X471000Y100800D02*
X403100D01*
X371300Y69000D01*
G01X396260Y39740D02*
X429740D01*
X450517Y60517D01*
Y60846D01*
X451854Y62183D01*
X452183D01*
X509800Y119800D01*
Y175200D01*
X508000Y177000D01*
G01X388000Y44500D02*
X432000D01*
X448917Y61417D01*
Y61509D01*
X451192Y63783D01*
X451283D01*
X507900Y120400D01*
Y152162D01*
X504500Y155562D01*
G01X425000Y-48740D02*
X417000D01*
X416740Y-49000D01*
G01X420000Y-5000D02*
Y-14200D01*
X429225Y-23425D01*
X432441D01*
G01X499000Y120000D02*
Y113763D01*
X450620Y65383D01*
X450529D01*
X447317Y62171D01*
Y62080D01*
X431954Y46717D01*
X410283D01*
X410000Y47000D01*
G01X414500Y49000D02*
X431974D01*
X445717Y62743D01*
Y62834D01*
X449866Y66983D01*
X449957D01*
X495000Y112026D01*
Y139500D01*
X503000Y147500D01*
Y152500D01*
X502000Y153500D01*
G01X418500Y52000D02*
X432712D01*
X444117Y63406D01*
Y63497D01*
X449203Y68583D01*
X449294D01*
X493100Y112388D01*
Y140600D01*
X499000Y146500D01*
Y151500D01*
G01X423000Y56100D02*
X406400D01*
X402700Y59800D01*
G01X411260Y268000D02*
X405980D01*
X405120Y268860D01*
X401220D01*
G01X441000Y-48740D02*
X449000D01*
G01X433000D02*
X425000D01*
G01X433000Y-41260D02*
X432606D01*
X429411Y-38064D01*
Y-32889D01*
X432441Y-29859D01*
Y-23425D01*
G01X441000Y-41260D02*
Y-33800D01*
X437559Y-30359D01*
Y-23425D01*
G01X435000D02*
Y-34000D01*
G01X450000Y-5000D02*
Y-14100D01*
X440675Y-23425D01*
X437559D01*
G01X425000Y5000D02*
Y-7900D01*
X427800Y-10700D01*
X428456D01*
X431248Y-13492D01*
X432441Y-14685D01*
Y-16575D01*
G01X437559D02*
Y-14685D01*
X438752Y-13492D01*
X438808D01*
X445200Y-7100D01*
Y-2100D01*
X448414Y1114D01*
X451114D01*
X455000Y5000D01*
G01X428110Y56900D02*
X435349D01*
X442517Y64068D01*
Y64160D01*
X448540Y70183D01*
X448631D01*
X491500Y113051D01*
Y142500D01*
X495000Y146000D01*
Y149500D01*
G01X435990Y84210D02*
X456500D01*
G01X454000Y154300D02*
X452598Y152898D01*
Y152798D01*
X427900Y128100D01*
Y108400D01*
X422900Y103400D01*
G01X457800Y158300D02*
X458000Y158100D01*
Y154800D01*
X429500Y126300D01*
Y105700D01*
X431200Y104000D01*
G01X440100Y90100D02*
X462500D01*
G01X449000Y-48740D02*
X458000D01*
X458260Y-49000D01*
G01X479760Y7500D02*
X470000D01*
X465500Y12000D01*
X448000D01*
X445000Y9000D01*
Y5000D01*
G01X449000Y24000D02*
Y38740D01*
X446240Y41500D01*
G01X449200Y48100D02*
X461500D01*
X477800Y31800D01*
G01X454000Y79800D02*
X455983D01*
X477700Y101517D01*
Y115000D01*
X464900Y127800D01*
G01X462000Y192800D02*
X458300Y196500D01*
Y256780D01*
X447080Y268000D01*
G01D02*
X446220Y268860D01*
G01X456260Y268000D02*
X447080D01*
G01X479760Y-500D02*
Y7500D01*
G01X512768Y111032D02*
X511032D01*
X483900Y83900D01*
G01X510799Y114999D02*
X485800Y90000D01*
X484100D01*
G01X478500Y171300D02*
X480540Y169260D01*
X493000D01*
G01X479247Y175247D02*
X480740Y176740D01*
X493000D01*
G01X479751Y212649D02*
Y220656D01*
X479260Y221147D01*
Y225000D01*
G01X508000Y104000D02*
X494000Y90000D01*
Y61000D01*
G01X493000Y169260D02*
X501000D01*
G01X493000Y176740D02*
X501000D01*
G01X500000Y196260D02*
X508000D01*
G01X494500Y199400D02*
X496860D01*
X500000Y196260D01*
G01Y203740D02*
X508000D01*
G01X492706Y202806D02*
X495213D01*
X496147Y203740D01*
X500000D01*
G01X497800Y228100D02*
X496912Y227212D01*
X488952D01*
X486740Y225000D01*
G01X516000Y29000D02*
X511113D01*
X510853Y28740D01*
X507000D01*
G01X517000Y40000D02*
X516100D01*
X510360Y45740D01*
X507000D01*
G01X519700Y202800D02*
Y199400D01*
X521883Y197217D01*
Y183517D01*
X521900Y183500D01*
Y152300D01*
X517600Y148000D01*
G01X523700Y199600D02*
Y147800D01*
X520900Y145000D01*
G01X546258Y207200D02*
X545575Y206517D01*
Y206254D01*
X538900Y199579D01*
Y90100D01*
X530200Y81400D01*
G01X553400Y85100D02*
X543400Y95100D01*
Y190995D01*
G01X534200Y89800D02*
Y201073D01*
X540327Y207200D01*
G01X536500Y91900D02*
Y200100D01*
X542610Y206209D01*
Y206517D01*
X543292Y207200D01*
G01X555087Y88787D02*
X546500Y97374D01*
Y191832D01*
X543400Y194932D01*
G01X565526Y82026D02*
X549400Y98151D01*
Y192900D01*
X544402Y197898D01*
X543400D01*
G01X560100Y107100D02*
X560000Y107200D01*
Y125700D01*
G01X567500Y246900D02*
Y235600D01*
X566700Y234800D01*
G01X573000Y13260D02*
Y13100D01*
G01Y38260D02*
Y38200D01*
G01X582000Y29600D02*
X581140Y28740D01*
X573000D01*
G01Y45740D02*
X576853D01*
X582500Y40093D01*
Y39300D01*
G01X581000Y143600D02*
Y96300D01*
G01X589500Y157531D02*
Y136000D01*
X612300Y113200D01*
G01X582500Y257000D02*
Y230200D01*
G01X572800Y256900D02*
X573300Y256400D01*
Y232000D01*
G01X576100Y230200D02*
Y252000D01*
G01X570500Y233700D02*
Y241500D01*
X570000Y242000D01*
G01X579600D02*
X579800Y241800D01*
Y236900D01*
G01X592400Y154500D02*
Y143100D01*
X612300Y123200D01*
G01X604700Y210700D02*
X615400D01*
X616761Y209339D01*
X629978D01*
G01X608400Y208100D02*
X614400D01*
X615720Y206780D01*
X629978D01*
G01X599300Y215500D02*
X617000D01*
X618043Y214457D01*
X629978D01*
G01X602100Y213100D02*
X616200D01*
X617402Y211898D01*
X629978D01*
G01X611300Y205600D02*
X613600D01*
X614980Y204220D01*
X629978D01*
G01Y201661D02*
X614861D01*
X614400Y201200D01*
G01X629978Y196543D02*
X620026D01*
X619883Y196400D01*
X617900D01*
G01X650000Y28900D02*
X642013D01*
X641853Y28740D01*
X638000D01*
G01X649000Y39800D02*
X645400D01*
X639460Y45740D01*
X638000D01*
G01X646484Y169116D02*
Y171284D01*
X658584Y183384D01*
Y183600D01*
G01X661500Y191061D02*
Y190100D01*
X644161Y172761D01*
Y164639D01*
G01X652222Y201661D02*
X675100D01*
G01X670200Y206800D02*
X668217D01*
X668197Y206780D01*
X652222D01*
G01Y204220D02*
X672411D01*
X672817Y204627D01*
G01X665200Y212000D02*
X665098Y211898D01*
X652222D01*
G01X667600Y209500D02*
X667439Y209339D01*
X652222D01*
G01Y196543D02*
X675100D01*
G01X660000Y83100D02*
X685000Y108100D01*
Y212700D01*
X681400Y216300D01*
G01X670000Y83300D02*
X687000Y100300D01*
Y218072D01*
X686917Y218154D01*
Y220883D01*
X685700Y222100D01*
G01X663402Y188502D02*
Y170198D01*
X665000Y168600D01*
G01X659925Y180825D02*
Y168475D01*
X664900Y163500D01*
G01X670200Y206800D02*
Y234700D01*
X666900Y238000D01*
X661740D01*
G01X672817Y204627D02*
Y238883D01*
X665700Y246000D01*
X661740D01*
G01Y222000D02*
Y215460D01*
X665200Y212000D01*
G01X667600Y209500D02*
Y228000D01*
X665600Y230000D01*
X661740D01*
G01X654260D02*
Y238000D01*
G01Y222000D02*
Y230000D01*
G01Y254000D02*
Y262000D01*
G01Y246000D02*
Y254000D01*
G01Y238000D02*
Y246000D01*
G01X661740Y254000D02*
X667200D01*
X675100Y246100D01*
Y203681D01*
X675100Y201661D01*
G01Y196543D02*
X678300Y199743D01*
Y251000D01*
X667300Y262000D01*
X661740D01*
G01X680000Y83200D02*
X689200Y92400D01*
Y219100D01*
G01X682000Y185943D02*
Y162600D01*
X678500Y159100D01*
G01X717100Y29100D02*
X704360D01*
X703000Y27740D01*
G01X710300Y41400D02*
X706960Y44740D01*
X703000D01*
G01X695600Y224329D02*
Y100900D01*
X702300Y94200D01*
G01X708107Y214093D02*
Y103993D01*
X715700Y96400D01*
G01X704600Y211500D02*
X704483D01*
X702500Y209517D01*
Y100200D01*
X710900Y91800D01*
G01X737740Y166000D02*
Y173480D01*
X738260Y174000D01*
G01X737740Y182000D02*
Y174520D01*
X738260Y174000D01*
G01X737740Y190000D02*
Y182000D01*
G01X784500Y201760D02*
X776500D01*
G01X786000Y185240D02*
Y193240D01*
X785740Y193500D01*
G01X784500Y201760D02*
Y194740D01*
X785740Y193500D01*
G01X838112Y162912D02*
Y90588D01*
X838900Y89800D01*
G01X840000Y207740D02*
Y211199D01*
X837899Y213300D01*
X833000D01*
G01Y194300D02*
X837100D01*
X840000Y197200D01*
Y200260D01*
G01X849500Y61300D02*
Y61900D01*
X843747Y67653D01*
Y160353D01*
G01X971260Y80000D02*
Y80394D01*
X968064Y83589D01*
X966491D01*
X961220Y88860D01*
G01X971260Y110000D02*
Y110394D01*
X968064Y113589D01*
X966491D01*
X961220Y118860D01*
G01X971260Y140000D02*
Y140394D01*
X968064Y143589D01*
X966491D01*
X961220Y148860D01*
G01X971260Y170000D02*
Y170394D01*
X968064Y173589D01*
X966491D01*
X961220Y178860D01*
G01X971260Y200000D02*
Y200394D01*
X968064Y203589D01*
X966491D01*
X961220Y208860D01*
G01X971260Y230000D02*
Y230394D01*
X968064Y233589D01*
X966691D01*
X961320Y238960D01*
G01X971260Y260000D02*
Y260394D01*
X968064Y263589D01*
X966491D01*
X961220Y268860D01*
G01X971260Y290000D02*
Y290394D01*
X968064Y293589D01*
X966491D01*
X961220Y298860D01*
G01X978000Y37000D02*
X983100Y31900D01*
X991900D01*
X997600Y26200D01*
X1001100D01*
G54D14*
X50000Y250000D03*
G54D23*
X286000Y122000D03*
Y130000D03*
X298000Y140000D03*
X290000D03*
X294000Y148000D03*
X286000D03*
X310000Y114000D03*
Y122000D03*
X306000Y140000D03*
X310000Y148000D03*
X302000D03*
X339000Y88000D03*
X331000D03*
X362000Y150000D03*
X372000D03*
X382000D03*
X362000Y160000D03*
X372000D03*
X382000D03*
Y170000D03*
X372000D03*
X362000D03*
X392000Y150000D03*
Y160000D03*
Y170000D03*
X411600Y358200D03*
X430900Y65800D03*
X439100Y74300D03*
X430800Y74200D03*
X435000Y70000D03*
X443945Y314055D03*
X463900Y358000D03*
X495445Y314055D03*
X512200Y61000D03*
X520200D03*
X512200Y69000D03*
X519200D03*
X513600Y358000D03*
X538900Y-32200D03*
X544400Y-11500D03*
X547500Y18700D03*
X529500Y106500D03*
X529945Y116055D03*
Y123555D03*
X530484Y211784D03*
X534421Y215379D03*
X541284Y241684D03*
Y250184D03*
Y258184D03*
Y266184D03*
X544945Y314055D03*
X555400Y-11600D03*
X552500Y19400D03*
X567700Y61000D03*
X560200D03*
X567700Y69000D03*
X560200D03*
X565445Y116055D03*
Y124055D03*
X563600Y358000D03*
X578200Y61000D03*
X585200D03*
X578200Y69000D03*
X585200D03*
X572945Y116055D03*
Y124055D03*
X587945Y164055D03*
Y171555D03*
Y186055D03*
Y193555D03*
X603000Y-31716D03*
X610000Y-11000D03*
X612500Y18900D03*
X595945Y164055D03*
Y171555D03*
Y186055D03*
Y193555D03*
X601884Y254884D03*
X609784Y236684D03*
X601984Y247284D03*
X609784Y265184D03*
X596055Y314055D03*
X613100Y358000D03*
X620000Y-11000D03*
X617500Y20000D03*
X632200Y61000D03*
X624200D03*
X632200Y69000D03*
X624200D03*
X622100Y183200D03*
Y190900D03*
X629500Y191500D03*
X642200Y61000D03*
X650200D03*
X642200Y69000D03*
X650200D03*
X653000Y142000D03*
Y150000D03*
X643900Y183400D03*
Y190900D03*
X651500Y191500D03*
X654184Y221784D03*
X654284Y262084D03*
X645445Y314055D03*
X668900Y-32200D03*
X674400Y-11500D03*
X660500Y142000D03*
X661000Y150000D03*
X656000Y132000D03*
X685400Y-11600D03*
X677500Y18700D03*
X682500Y19400D03*
X690200Y61000D03*
Y69000D03*
X678000Y175000D03*
X681445Y335055D03*
X708200Y61000D03*
X697200D03*
X715200D03*
X708200Y69000D03*
X697200D03*
X715200D03*
X733900Y-32200D03*
X730200Y165900D03*
Y190500D03*
X730300Y182000D03*
X738300Y174000D03*
X739400Y-11500D03*
X750400Y-11600D03*
X742500Y18700D03*
X747500Y19400D03*
X755200Y61000D03*
Y69000D03*
X744700Y103000D03*
X741445Y335055D03*
X762200Y61000D03*
Y69000D03*
X780300Y133000D03*
X785500Y193500D03*
X801445Y335055D03*
X850200Y40000D03*
Y32000D03*
X861445Y335055D03*
X920945D03*
X969800Y-29900D03*
X963600Y-15400D03*
X1001100Y-30100D03*
G54D32*
X406500Y-18000D03*
X468500D03*
G54D42*
G01X298346Y197638D02*
X265338D01*
X239900Y172200D01*
Y147200D01*
X245840Y141260D01*
X255000D01*
G01X256260Y125000D02*
Y135941D01*
X255000Y137201D01*
Y141260D01*
G01X275000Y111260D02*
X286299D01*
X298346Y99213D01*
G01X275000Y118740D02*
Y131260D01*
G01X263740Y125000D02*
X268740D01*
X275000Y131260D01*
G01Y138740D02*
Y154606D01*
X298346Y177953D01*
G01X255000Y148740D02*
X264606D01*
X274606Y138740D01*
X275000D01*
G01Y286260D02*
X287004D01*
X289957Y289213D01*
X298346D01*
G01X275000Y306260D02*
Y293740D01*
G01Y306260D02*
X265000D01*
X263740Y305000D01*
G01X298346Y387638D02*
X270338D01*
X256260Y373560D01*
Y315000D01*
G01Y305000D02*
Y315000D01*
G01X263740D02*
X269287D01*
X270547Y313740D01*
X275000D01*
G01X298346Y367953D02*
Y337087D01*
X275760Y314500D01*
G01D02*
X275000Y313740D01*
G01X312400Y322760D02*
Y303266D01*
X298346Y289213D01*
G01X322900Y320890D02*
X314270D01*
X312400Y322760D01*
G01Y330240D02*
Y353899D01*
X298346Y367953D01*
G01X322900Y332110D02*
X314270D01*
X312400Y330240D01*
G01X353000Y-52260D02*
Y-45000D01*
X352600Y-44600D01*
Y-35600D01*
G01X547500Y18700D02*
Y-8400D01*
X544400Y-11500D01*
G01X552500Y19400D02*
Y-8700D01*
X555400Y-11600D01*
G01X612500Y18900D02*
Y-8500D01*
X610000Y-11000D01*
G01X617500Y20000D02*
Y-8500D01*
X620000Y-11000D01*
G01X677500Y18700D02*
Y-8400D01*
X674400Y-11500D01*
G01X682500Y19400D02*
Y-8700D01*
X685400Y-11600D01*
G01X742500Y18700D02*
Y-8400D01*
X739400Y-11500D01*
G01X747500Y19400D02*
Y-8700D01*
X750400Y-11600D01*
G54D33*
X425000Y5000D03*
X420000Y-5000D03*
X435000Y5000D03*
X445000D03*
X430000Y-5000D03*
X440000D03*
X450000D03*
G54D24*
X296000Y314500D03*
Y304500D03*
G54D15*
X85748Y69685D03*
Y138583D03*
Y259685D03*
Y328583D03*
X298346Y99213D03*
Y197638D03*
Y177953D03*
Y289213D03*
Y367953D03*
Y387638D03*
G54D43*
G01X411600Y358000D02*
Y358200D01*
G01X538900Y-32200D02*
Y-44490D01*
X550158Y-55748D01*
G01X603000Y-31716D02*
Y-43590D01*
X615158Y-55748D01*
G01X668900Y-32200D02*
Y-44490D01*
X680158Y-55748D01*
G01X733900Y-32200D02*
Y-44490D01*
X745158Y-55748D01*
G54D34*
X426000Y24000D03*
X416000D03*
X459000D03*
X449000D03*
G54D16*
X85748Y207480D03*
Y397480D03*
G54D25*
X322900Y332110D03*
Y320890D03*
G54D44*
G01X298346Y289213D02*
Y302154D01*
X296000Y304500D01*
G01Y314500D02*
X275760D01*
G01X755100Y174260D02*
Y166260D01*
X754840Y166000D01*
G01X822000Y3300D02*
X818700D01*
X806000Y16000D01*
Y54000D01*
X764126Y95874D01*
Y224300D01*
G01X801300Y3000D02*
Y53119D01*
X761160Y93258D01*
Y173232D01*
X761173Y173244D01*
Y180356D01*
X761160Y180551D01*
Y224300D01*
G01X825700Y6500D02*
X823500D01*
X810000Y20000D01*
Y56000D01*
X767091Y98909D01*
Y224300D01*
G01X828600Y9700D02*
X826300D01*
X814000Y22000D01*
Y58000D01*
X770057Y101943D01*
Y224300D01*
G01X830500Y14000D02*
X828000D01*
X818000Y24000D01*
Y60000D01*
X796496Y81504D01*
Y135504D01*
X789652Y142348D01*
X782852D01*
G01X833300Y18400D02*
X829600D01*
X822000Y26000D01*
Y183241D01*
X811621Y193620D01*
G54D35*
X437559Y-16575D03*
X435000D03*
X432441D03*
Y-23425D03*
X435000D03*
X437559D03*
G54D26*
X357402Y233228D03*
Y225354D03*
Y256850D03*
Y248976D03*
Y241102D03*
X365276Y233228D03*
Y256850D03*
Y248976D03*
Y241102D03*
X612300Y113200D03*
Y123200D03*
Y133200D03*
Y143200D03*
X978000Y27000D03*
Y47000D03*
Y37000D03*
X988000Y47000D03*
Y37000D03*
G54D17*
X99200Y-35600D03*
X197600D03*
X254200D03*
X352600D03*
G54D45*
G01X629500Y191500D02*
X634102D01*
X635602Y193000D01*
Y197602D01*
X634102Y199102D01*
X629978D01*
G01X652222Y214457D02*
X656720D01*
X658000Y215737D01*
Y216000D01*
G54D27*
X366000Y90000D03*
X372000Y96000D03*
X376000Y102000D03*
X380000Y108000D03*
X382000Y130000D03*
X381354Y225354D03*
X384000Y102000D03*
X388000Y108000D03*
X396000Y124000D03*
X390000Y130000D03*
X396000Y114000D03*
X409260Y-49000D03*
X413100Y35900D03*
X413950Y77550D03*
X403450Y87050D03*
X413500Y84000D03*
X413450Y92050D03*
X418354Y268354D03*
X435000Y-34000D03*
X465740Y-49000D03*
X463354Y268354D03*
X474650Y42950D03*
X474750Y67050D03*
X474550Y51050D03*
X474450Y74950D03*
X468900Y225300D03*
X484154Y236154D03*
X469900Y235300D03*
X491750Y41150D03*
X658000Y216000D03*
X729800Y229000D03*
X729400Y224300D03*
X718300Y256000D03*
X733800Y255500D03*
X718300Y272000D03*
Y264000D03*
X723945Y334055D03*
X747100Y165900D03*
X754700D03*
X755200Y181900D03*
X745400Y173800D03*
X778400Y193300D03*
X770100Y247400D03*
X770300Y255200D03*
X783945Y334055D03*
X838900Y89800D03*
X841945Y334055D03*
X849500Y61300D03*
X854500Y97200D03*
X856745Y194755D03*
X856645Y211855D03*
X876445Y211955D03*
Y219755D03*
X902000Y334055D03*
X917845Y133355D03*
Y141355D03*
Y149355D03*
Y157355D03*
Y165355D03*
Y173355D03*
Y181355D03*
Y188855D03*
X963945Y334055D03*
X978945Y80055D03*
Y110055D03*
Y140055D03*
Y170055D03*
Y200055D03*
Y230055D03*
Y260055D03*
Y290055D03*
G54D36*
X455000Y5000D03*
G54D18*
X126800Y-30000D03*
X132200Y-41200D03*
X143000D03*
X137600Y-30000D03*
X148400D03*
X153800Y-41200D03*
X164600D03*
X159200Y-30000D03*
X287200Y-41200D03*
X298000D03*
X281800Y-30000D03*
X292600D03*
X308800Y-41200D03*
X319600D03*
X303400Y-30000D03*
X314200D03*
G54D46*
G01X45000Y425000D02*
X1000000D01*
G02X1010000Y415000I0J-10000D01*
G01Y-65000D01*
G02X1000000Y-75000I-10000J0D01*
G01X45000D01*
G02X35000Y-65000I0J10000D01*
G01Y415000D01*
G02X45000Y425000I10000J0D01*
G54D28*
X365276Y225354D03*
X988000Y27000D03*
G54D37*
X450000Y206953D03*
Y201047D03*
G54D19*
X128000Y45000D03*
Y37000D03*
Y29000D03*
X136000Y45000D03*
Y37000D03*
Y29000D03*
X142500Y27100D03*
X184000Y1000D03*
Y9000D03*
X198000Y-60000D03*
X199000Y61000D03*
Y69000D03*
X222600Y9200D03*
X222700Y17000D03*
X266000Y7000D03*
X295500Y-23000D03*
X288000Y45000D03*
Y37000D03*
Y29000D03*
X280000Y37000D03*
Y29000D03*
X295500Y24600D03*
X315500Y4500D03*
X300500Y24700D03*
X327000Y-13000D03*
X319600Y5000D03*
X353000Y-60000D03*
X351900Y56600D03*
X358700Y59800D03*
X344657Y54094D03*
X339900Y51200D03*
X362000Y-10000D03*
Y-2000D03*
Y7000D03*
Y15000D03*
X371300Y64000D03*
Y69000D03*
X388000Y44500D03*
X396260Y39740D03*
X396000Y203800D03*
X388500Y204000D03*
X400000Y224900D03*
X391500Y262000D03*
X410000Y47000D03*
X414500Y49000D03*
X418500Y52000D03*
X402700Y59800D03*
X423000Y56100D03*
X422900Y103400D03*
X415000Y151800D03*
Y159800D03*
Y167800D03*
Y176300D03*
X423000Y198000D03*
X423200Y205800D03*
X408500Y198900D03*
X402500Y201200D03*
X425000Y-41400D03*
X428110Y56900D03*
X435990Y84210D03*
X431200Y104000D03*
X440100Y90100D03*
X441400Y214900D03*
X449000Y-41300D03*
X446240Y41500D03*
X452800Y59900D03*
X452400Y51200D03*
X449200Y48100D03*
X454000Y79800D03*
X456500Y84210D03*
X462500Y90100D03*
X464900Y127800D03*
X454000Y154300D03*
X457800Y158300D03*
X462000Y192800D03*
X477800Y31800D03*
X467260Y59000D03*
X467300Y51100D03*
X483900Y83900D03*
X484100Y90000D03*
X471000Y100800D03*
X468000Y95800D03*
X478500Y171300D03*
X479247Y175247D03*
X479751Y212649D03*
X487500Y-300D03*
X507000Y13200D03*
Y21200D03*
Y38200D03*
X494000Y61000D03*
X499000Y120000D03*
X495000Y149500D03*
X502000Y153500D03*
X499000Y151500D03*
X504500Y155562D03*
X494500Y199400D03*
X492706Y202806D03*
X497800Y228100D03*
X515500Y33000D03*
X516000Y29000D03*
X517000Y40000D03*
X508000Y104000D03*
X512768Y111032D03*
X510799Y114999D03*
X517600Y148000D03*
X520900Y145000D03*
X513700Y183700D03*
X510700Y181600D03*
X516800Y185400D03*
X519600Y187500D03*
X508000Y177000D03*
X519700Y202800D03*
X523700Y199600D03*
X515940Y236260D03*
X530200Y81400D03*
X534200Y89800D03*
X536500Y91900D03*
X543400Y190995D03*
X546258Y207200D03*
X540327D03*
X543400Y197898D03*
X543292Y207200D03*
X543400Y194932D03*
X553400Y85100D03*
X565526Y82026D03*
X560100Y107100D03*
X555087Y88787D03*
X560000Y125700D03*
X553500Y202000D03*
X553000Y210000D03*
X560500Y202000D03*
X561000Y210000D03*
X566700Y234800D03*
X567500Y246900D03*
X570000Y242000D03*
X573000Y13100D03*
Y13260D03*
X573040Y20740D03*
X581100Y32900D03*
X573000Y38200D03*
X582000Y29600D03*
X582500Y39300D03*
X581000Y96300D03*
Y143600D03*
X589500Y157531D03*
X582500Y230200D03*
X573300Y232000D03*
X570500Y233700D03*
X576100Y230200D03*
Y252000D03*
X579800Y236900D03*
X579600Y242000D03*
X582500Y257000D03*
X572800Y256900D03*
X592400Y154500D03*
X602100Y213100D03*
X611300Y205600D03*
X604700Y210700D03*
X608400Y208100D03*
X599300Y215500D03*
X614400Y201200D03*
X617900Y196400D03*
X638000Y13100D03*
Y21000D03*
X646900Y33000D03*
X637900Y37900D03*
X650000Y28900D03*
X649000Y39800D03*
X646484Y169116D03*
X644161Y164639D03*
X660000Y83100D03*
X670000Y83300D03*
X665000Y168600D03*
X664900Y163500D03*
X658584Y183600D03*
X663402Y188502D03*
X659925Y180825D03*
X661500Y191061D03*
X675100Y201661D03*
X670200Y206800D03*
X672817Y204627D03*
X665200Y212000D03*
X667600Y209500D03*
X675100Y196543D03*
X680000Y83200D03*
X692740Y152000D03*
Y160000D03*
Y168000D03*
X678500Y159100D03*
X682000Y185943D03*
X681400Y216300D03*
X695600Y224329D03*
X689200Y219100D03*
X685700Y222100D03*
X703100Y12200D03*
X702900Y19900D03*
X712300Y33200D03*
X702800Y37000D03*
X717100Y29100D03*
X710300Y41400D03*
X702300Y94200D03*
X715700Y96400D03*
X710900Y91800D03*
X704600Y211500D03*
X708107Y214093D03*
X737740Y103000D03*
X724740Y114000D03*
Y122000D03*
Y130000D03*
X764126Y224300D03*
X767091D03*
X761160D03*
X770057D03*
X787740Y108000D03*
Y116000D03*
Y124000D03*
X787640Y132900D03*
X782852Y142348D03*
X822000Y3300D03*
X801300Y3000D03*
X811621Y193620D03*
X830500Y14000D03*
X825700Y6500D03*
X828600Y9700D03*
X830740Y55000D03*
X831740Y90000D03*
X838112Y162912D03*
X857740Y32000D03*
Y40000D03*
X843747Y160353D03*
X971600Y7900D03*
X980900Y5800D03*
X983200Y15800D03*
X1001000Y33900D03*
X1001100Y26200D03*
G54D38*
X629978Y211898D03*
Y209339D03*
Y206780D03*
Y204220D03*
Y201661D03*
Y199102D03*
Y196543D03*
Y214457D03*
X652222Y196543D03*
Y199102D03*
Y201661D03*
Y204220D03*
Y206780D03*
Y209339D03*
Y211898D03*
Y214457D03*
G54D29*
X402000Y135260D03*
X403000Y52260D03*
X418000Y135260D03*
X407000D03*
X439600Y98300D03*
X447800D03*
X464900Y110000D03*
X465100Y113900D03*
X463800Y144200D03*
X463900Y151700D03*
X485000Y32260D03*
X475000Y59260D03*
X472000Y144300D03*
Y151800D03*
X488000Y23260D03*
X487000Y7260D03*
X757594Y146400D03*
X776402Y209098D03*
X785802Y177798D03*
X795002Y188502D03*
X794202Y201298D03*
X791239Y198739D03*
X784602Y209298D03*
X833300Y18400D03*
G54D39*
G01X411600Y358000D02*
X395300D01*
X326513Y289213D01*
X298346D01*
G01X463900Y358000D02*
X411600D01*
G01X513600D02*
X463900D01*
G01X563600D02*
X513600D01*
G01X613100D02*
X563600D01*
M02*
