G04 ================== begin FILE IDENTIFICATION RECORD ==================*
G04 Layout Name:  G:/lwj/My project/PCB/tunnel lighting/allegro/tunnel lighting2.brd*
G04 Film Name:    SILKSCREEN_BOTTOM*
G04 File Format:  Gerber RS274X*
G04 File Origin:  Cadence Allegro 16.5-P002*
G04 Origin Date:  Sat Oct 27 20:26:59 2012*
G04 *
G04 Layer:  REF DES/SILKSCREEN_BOTTOM*
G04 Layer:  PACKAGE GEOMETRY/SILKSCREEN_BOTTOM*
G04 Layer:  BOARD GEOMETRY/OUTLINE*
G04 Layer:  BOARD GEOMETRY/SILKSCREEN_BOTTOM*
G04 *
G04 Offset:    (0.000 0.000)*
G04 Mirror:    No*
G04 Mode:      Positive*
G04 Rotation:  0*
G04 FullContactRelief:  No*
G04 UndefLineWidth:     6.000*
G04 ================== end FILE IDENTIFICATION RECORD ====================*
%FSLAX25Y25*MOIN*%
%IR0*IPPOS*OFA0.00000B0.00000*MIA0B0*SFA1.00000B1.00000*%
%ADD10C,.006*%
%ADD11C,.009843*%
%ADD12C,.007874*%
%ADD13C,.01*%
G75*
%LPD*%
G75*
G54D10*
G01X299500Y301000D02*
X299700Y300900D01*
X299670Y301150D01*
X299640Y318160D01*
X292370D01*
Y300830D01*
X299620Y300810D01*
X299500Y301000D01*
G01X290200Y310400D02*
X288200D01*
G01X289200Y307900D02*
Y306300D01*
G01Y310400D02*
X291700Y307900D01*
X286700D01*
X289200Y310400D01*
G01Y312700D02*
Y310400D01*
G01X45000Y425000D02*
X1000000D01*
G02X1010000Y415000I0J-10000D01*
G01Y-65000D01*
G02X1000000Y-75000I-10000J0D01*
G01X45000D01*
G02X35000Y-65000I0J10000D01*
G01Y415000D01*
G02X45000Y425000I10000J0D01*
G01X125465Y-20393D02*
X125207Y-20163D01*
X125052Y-19895D01*
X125000Y-19550D01*
X125103Y-19205D01*
X125310Y-18937D01*
X125672Y-18745D01*
X126085Y-18707D01*
X126498Y-18783D01*
X126757Y-18975D01*
X126963Y-19243D01*
X127015Y-19512D01*
X126963Y-19780D01*
X126757Y-20125D01*
X128100Y-20010D01*
Y-18975D01*
G01X164317Y-21380D02*
X164125Y-21690D01*
X163895Y-21897D01*
X163627Y-22000D01*
X163320Y-21897D01*
X163090Y-21690D01*
X162860Y-21380D01*
X162783Y-20967D01*
Y-18900D01*
G01X161178Y-19417D02*
X160948Y-19107D01*
X160680Y-18952D01*
X160373Y-18900D01*
X159990Y-19003D01*
X159722Y-19262D01*
X159645Y-19572D01*
X159683Y-19882D01*
X159837Y-20140D01*
X160603Y-20657D01*
X160948Y-21018D01*
X161178Y-21535D01*
X161255Y-22000D01*
X159645D01*
G01X168550Y-19000D02*
X171650D01*
X171030Y-19460D01*
G01X168550D02*
Y-18540D01*
G01X199617Y-66900D02*
Y-70000D01*
X198083D01*
G01X196478Y-67417D02*
X196248Y-67107D01*
X195980Y-66952D01*
X195673Y-66900D01*
X195290Y-67003D01*
X195022Y-67262D01*
X194945Y-67572D01*
X194983Y-67882D01*
X195137Y-68140D01*
X195903Y-68657D01*
X196248Y-69018D01*
X196478Y-69535D01*
X196555Y-70000D01*
X194945D01*
G01X249617Y122000D02*
Y125100D01*
X248658D01*
X248352Y124945D01*
X248160Y124738D01*
X248083Y124325D01*
X248160Y123912D01*
X248390Y123653D01*
X248658Y123498D01*
X249617D01*
G01X248658D02*
X248083Y122000D01*
G01X246402Y122362D02*
X246133Y122103D01*
X245827Y122000D01*
X245520Y122103D01*
X245252Y122413D01*
X245060Y122878D01*
X244983Y123343D01*
Y123912D01*
X245060Y124377D01*
X245252Y124790D01*
X245482Y124997D01*
X245750Y125100D01*
X246057Y124997D01*
X246287Y124790D01*
X246440Y124480D01*
X246517Y124067D01*
X246440Y123705D01*
X246248Y123343D01*
X246018Y123137D01*
X245750Y123085D01*
X245443Y123188D01*
X245213Y123447D01*
X244983Y123912D01*
G01X243378Y124583D02*
X243148Y124893D01*
X242880Y125048D01*
X242573Y125100D01*
X242190Y124997D01*
X241922Y124738D01*
X241845Y124428D01*
X241883Y124118D01*
X242037Y123860D01*
X242803Y123343D01*
X243148Y122982D01*
X243378Y122465D01*
X243455Y122000D01*
X241845D01*
G01X257617Y156000D02*
Y159100D01*
X256658D01*
X256352Y158945D01*
X256160Y158738D01*
X256083Y158325D01*
X256160Y157912D01*
X256390Y157653D01*
X256658Y157498D01*
X257617D01*
G01X256658D02*
X256083Y156000D01*
G01X254402Y156362D02*
X254133Y156103D01*
X253827Y156000D01*
X253520Y156103D01*
X253252Y156413D01*
X253060Y156878D01*
X252983Y157343D01*
Y157912D01*
X253060Y158377D01*
X253252Y158790D01*
X253482Y158997D01*
X253750Y159100D01*
X254057Y158997D01*
X254287Y158790D01*
X254440Y158480D01*
X254517Y158067D01*
X254440Y157705D01*
X254248Y157343D01*
X254018Y157137D01*
X253750Y157085D01*
X253443Y157188D01*
X253213Y157447D01*
X252983Y157912D01*
G01X251493Y156620D02*
X251263Y156258D01*
X250957Y156052D01*
X250612Y156000D01*
X250305Y156052D01*
X249998Y156310D01*
X249807Y156620D01*
X249768Y156930D01*
X249845Y157292D01*
X250113Y157550D01*
X250382Y157653D01*
X250727D01*
G01X250382D02*
X250152Y157808D01*
X249960Y158067D01*
X249883Y158377D01*
X249960Y158687D01*
X250152Y158945D01*
X250497Y159100D01*
X250842Y159048D01*
X251187Y158842D01*
G01X249617Y304000D02*
Y307100D01*
X248658D01*
X248352Y306945D01*
X248160Y306738D01*
X248083Y306325D01*
X248160Y305912D01*
X248390Y305653D01*
X248658Y305498D01*
X249617D01*
G01X248658D02*
X248083Y304000D01*
G01X245750D02*
Y307100D01*
X246210Y306480D01*
G01Y304000D02*
X245290D01*
G01X243378Y306583D02*
X243148Y306893D01*
X242880Y307048D01*
X242573Y307100D01*
X242190Y306997D01*
X241922Y306738D01*
X241845Y306428D01*
X241883Y306118D01*
X242037Y305860D01*
X242803Y305343D01*
X243148Y304982D01*
X243378Y304465D01*
X243455Y304000D01*
X241845D01*
G01X239550Y307100D02*
X239857Y306997D01*
X240087Y306738D01*
X240240Y306428D01*
X240355Y306015D01*
X240393Y305550D01*
X240355Y305085D01*
X240240Y304672D01*
X240087Y304362D01*
X239857Y304103D01*
X239550Y304000D01*
X239243Y304103D01*
X239013Y304362D01*
X238860Y304672D01*
X238745Y305085D01*
X238707Y305550D01*
X238745Y306015D01*
X238860Y306428D01*
X239013Y306738D01*
X239243Y306997D01*
X239550Y307100D01*
G01X249617Y314000D02*
Y317100D01*
X248658D01*
X248352Y316945D01*
X248160Y316738D01*
X248083Y316325D01*
X248160Y315912D01*
X248390Y315653D01*
X248658Y315498D01*
X249617D01*
G01X248658D02*
X248083Y314000D01*
G01X245750D02*
Y317100D01*
X246210Y316480D01*
G01Y314000D02*
X245290D01*
G01X243378Y316583D02*
X243148Y316893D01*
X242880Y317048D01*
X242573Y317100D01*
X242190Y316997D01*
X241922Y316738D01*
X241845Y316428D01*
X241883Y316118D01*
X242037Y315860D01*
X242803Y315343D01*
X243148Y314982D01*
X243378Y314465D01*
X243455Y314000D01*
X241845D01*
G01X239090D02*
Y317100D01*
X240508Y314878D01*
X238592D01*
G01X279617Y102000D02*
Y105100D01*
X278658D01*
X278352Y104945D01*
X278160Y104738D01*
X278083Y104325D01*
X278160Y103912D01*
X278390Y103653D01*
X278658Y103498D01*
X279617D01*
G01X278658D02*
X278083Y102000D01*
G01X276402Y102362D02*
X276133Y102103D01*
X275827Y102000D01*
X275520Y102103D01*
X275252Y102413D01*
X275060Y102878D01*
X274983Y103343D01*
Y103912D01*
X275060Y104377D01*
X275252Y104790D01*
X275482Y104997D01*
X275750Y105100D01*
X276057Y104997D01*
X276287Y104790D01*
X276440Y104480D01*
X276517Y104067D01*
X276440Y103705D01*
X276248Y103343D01*
X276018Y103137D01*
X275750Y103085D01*
X275443Y103188D01*
X275213Y103447D01*
X274983Y103912D01*
G01X272650Y105100D02*
X272957Y104997D01*
X273187Y104738D01*
X273340Y104428D01*
X273455Y104015D01*
X273493Y103550D01*
X273455Y103085D01*
X273340Y102672D01*
X273187Y102362D01*
X272957Y102103D01*
X272650Y102000D01*
X272343Y102103D01*
X272113Y102362D01*
X271960Y102672D01*
X271845Y103085D01*
X271807Y103550D01*
X271845Y104015D01*
X271960Y104428D01*
X272113Y104738D01*
X272343Y104997D01*
X272650Y105100D01*
G01X279617Y146000D02*
Y149100D01*
X278658D01*
X278352Y148945D01*
X278160Y148738D01*
X278083Y148325D01*
X278160Y147912D01*
X278390Y147653D01*
X278658Y147498D01*
X279617D01*
G01X278658D02*
X278083Y146000D01*
G01X276402Y146362D02*
X276133Y146103D01*
X275827Y146000D01*
X275520Y146103D01*
X275252Y146413D01*
X275060Y146878D01*
X274983Y147343D01*
Y147912D01*
X275060Y148377D01*
X275252Y148790D01*
X275482Y148997D01*
X275750Y149100D01*
X276057Y148997D01*
X276287Y148790D01*
X276440Y148480D01*
X276517Y148067D01*
X276440Y147705D01*
X276248Y147343D01*
X276018Y147137D01*
X275750Y147085D01*
X275443Y147188D01*
X275213Y147447D01*
X274983Y147912D01*
G01X273493Y146465D02*
X273263Y146207D01*
X272995Y146052D01*
X272650Y146000D01*
X272305Y146103D01*
X272037Y146310D01*
X271845Y146672D01*
X271807Y147085D01*
X271883Y147498D01*
X272075Y147757D01*
X272343Y147963D01*
X272612Y148015D01*
X272880Y147963D01*
X273225Y147757D01*
X273110Y149100D01*
X272075D01*
G01X279617Y276000D02*
Y279100D01*
X278658D01*
X278352Y278945D01*
X278160Y278738D01*
X278083Y278325D01*
X278160Y277912D01*
X278390Y277653D01*
X278658Y277498D01*
X279617D01*
G01X278658D02*
X278083Y276000D01*
G01X275750D02*
Y279100D01*
X276210Y278480D01*
G01Y276000D02*
X275290D01*
G01X272650D02*
Y279100D01*
X273110Y278480D01*
G01Y276000D02*
X272190D01*
G01X270202Y276362D02*
X269933Y276103D01*
X269627Y276000D01*
X269320Y276103D01*
X269052Y276413D01*
X268860Y276878D01*
X268783Y277343D01*
Y277912D01*
X268860Y278377D01*
X269052Y278790D01*
X269282Y278997D01*
X269550Y279100D01*
X269857Y278997D01*
X270087Y278790D01*
X270240Y278480D01*
X270317Y278067D01*
X270240Y277705D01*
X270048Y277343D01*
X269818Y277137D01*
X269550Y277085D01*
X269243Y277188D01*
X269013Y277447D01*
X268783Y277912D01*
G01X281617Y320000D02*
Y323100D01*
X280658D01*
X280352Y322945D01*
X280160Y322738D01*
X280083Y322325D01*
X280160Y321912D01*
X280390Y321653D01*
X280658Y321498D01*
X281617D01*
G01X280658D02*
X280083Y320000D01*
G01X277750D02*
Y323100D01*
X278210Y322480D01*
G01Y320000D02*
X277290D01*
G01X275378Y322583D02*
X275148Y322893D01*
X274880Y323048D01*
X274573Y323100D01*
X274190Y322997D01*
X273922Y322738D01*
X273845Y322428D01*
X273883Y322118D01*
X274037Y321860D01*
X274803Y321343D01*
X275148Y320982D01*
X275378Y320465D01*
X275455Y320000D01*
X273845D01*
G01X272278Y321292D02*
X272010Y321653D01*
X271780Y321860D01*
X271473Y321963D01*
X271205Y321860D01*
X271013Y321653D01*
X270860Y321343D01*
X270822Y320982D01*
X270860Y320672D01*
X271013Y320362D01*
X271243Y320103D01*
X271512Y320000D01*
X271818Y320103D01*
X272087Y320413D01*
X272240Y320878D01*
X272278Y321395D01*
X272202Y322067D01*
X272087Y322428D01*
X271895Y322790D01*
X271627Y323048D01*
X271358Y323100D01*
X271090Y322997D01*
X270898Y322738D01*
G01X280465Y-20393D02*
X280207Y-20163D01*
X280052Y-19895D01*
X280000Y-19550D01*
X280103Y-19205D01*
X280310Y-18937D01*
X280672Y-18745D01*
X281085Y-18707D01*
X281498Y-18783D01*
X281757Y-18975D01*
X281963Y-19243D01*
X282015Y-19512D01*
X281963Y-19780D01*
X281757Y-20125D01*
X283100Y-20010D01*
Y-18975D01*
G01X310317Y-19380D02*
X310125Y-19690D01*
X309895Y-19897D01*
X309627Y-20000D01*
X309320Y-19897D01*
X309090Y-19690D01*
X308860Y-19380D01*
X308783Y-18967D01*
Y-16900D01*
G01X305990Y-20000D02*
Y-16900D01*
X307408Y-19122D01*
X305492D01*
G01X301000Y307307D02*
X304100D01*
Y308073D01*
X303945Y308380D01*
X303738Y308610D01*
X303428Y308802D01*
X303067Y308955D01*
X302550Y308993D01*
X302033Y308955D01*
X301672Y308802D01*
X301362Y308610D01*
X301155Y308380D01*
X301000Y308073D01*
Y307307D01*
G01X303583Y310522D02*
X303893Y310752D01*
X304048Y311020D01*
X304100Y311327D01*
X303997Y311710D01*
X303738Y311978D01*
X303428Y312055D01*
X303118Y312017D01*
X302860Y311863D01*
X302343Y311097D01*
X301982Y310752D01*
X301465Y310522D01*
X301000Y310445D01*
Y312055D01*
G01X301362Y313698D02*
X301103Y313967D01*
X301000Y314273D01*
X301103Y314580D01*
X301413Y314848D01*
X301878Y315040D01*
X302343Y315117D01*
X302912D01*
X303377Y315040D01*
X303790Y314848D01*
X303997Y314618D01*
X304100Y314350D01*
X303997Y314043D01*
X303790Y313813D01*
X303480Y313660D01*
X303067Y313583D01*
X302705Y313660D01*
X302343Y313852D01*
X302137Y314082D01*
X302085Y314350D01*
X302188Y314657D01*
X302447Y314887D01*
X302912Y315117D01*
G01X314007Y340842D02*
X314237Y340997D01*
X314505Y341100D01*
X314812D01*
X315157Y340945D01*
X315425Y340687D01*
X315617Y340377D01*
X315770Y339860D01*
X315808Y339395D01*
X315732Y338930D01*
X315617Y338620D01*
X315387Y338310D01*
X315118Y338103D01*
X314850Y338000D01*
X314582D01*
X314313Y338103D01*
X314083Y338258D01*
X313892Y338465D01*
G01X311750Y338000D02*
Y341100D01*
X312210Y340480D01*
G01Y338000D02*
X311290D01*
G01X309378Y340583D02*
X309148Y340893D01*
X308880Y341048D01*
X308573Y341100D01*
X308190Y340997D01*
X307922Y340738D01*
X307845Y340428D01*
X307883Y340118D01*
X308037Y339860D01*
X308803Y339343D01*
X309148Y338982D01*
X309378Y338465D01*
X309455Y338000D01*
X307845D01*
G01X305550Y341100D02*
X305857Y340997D01*
X306087Y340738D01*
X306240Y340428D01*
X306355Y340015D01*
X306393Y339550D01*
X306355Y339085D01*
X306240Y338672D01*
X306087Y338362D01*
X305857Y338103D01*
X305550Y338000D01*
X305243Y338103D01*
X305013Y338362D01*
X304860Y338672D01*
X304745Y339085D01*
X304707Y339550D01*
X304745Y340015D01*
X304860Y340428D01*
X305013Y340738D01*
X305243Y340997D01*
X305550Y341100D01*
G01X323550Y-19000D02*
X326650D01*
X326030Y-19460D01*
G01X323550D02*
Y-18540D01*
G01X331617Y94000D02*
Y97100D01*
X330658D01*
X330352Y96945D01*
X330160Y96738D01*
X330083Y96325D01*
X330160Y95912D01*
X330390Y95653D01*
X330658Y95498D01*
X331617D01*
G01X330658D02*
X330083Y94000D01*
G01X327750D02*
Y97100D01*
X328210Y96480D01*
G01Y94000D02*
X327290D01*
G01X324650Y97100D02*
X324957Y96997D01*
X325187Y96738D01*
X325340Y96428D01*
X325455Y96015D01*
X325493Y95550D01*
X325455Y95085D01*
X325340Y94672D01*
X325187Y94362D01*
X324957Y94103D01*
X324650Y94000D01*
X324343Y94103D01*
X324113Y94362D01*
X323960Y94672D01*
X323845Y95085D01*
X323807Y95550D01*
X323845Y96015D01*
X323960Y96428D01*
X324113Y96738D01*
X324343Y96997D01*
X324650Y97100D01*
G01X321550D02*
X321857Y96997D01*
X322087Y96738D01*
X322240Y96428D01*
X322355Y96015D01*
X322393Y95550D01*
X322355Y95085D01*
X322240Y94672D01*
X322087Y94362D01*
X321857Y94103D01*
X321550Y94000D01*
X321243Y94103D01*
X321013Y94362D01*
X320860Y94672D01*
X320745Y95085D01*
X320707Y95550D01*
X320745Y96015D01*
X320860Y96428D01*
X321013Y96738D01*
X321243Y96997D01*
X321550Y97100D01*
G01X329807Y340842D02*
X330037Y340997D01*
X330305Y341100D01*
X330612D01*
X330957Y340945D01*
X331225Y340687D01*
X331417Y340377D01*
X331570Y339860D01*
X331608Y339395D01*
X331532Y338930D01*
X331417Y338620D01*
X331187Y338310D01*
X330918Y338103D01*
X330650Y338000D01*
X330382D01*
X330113Y338103D01*
X329883Y338258D01*
X329692Y338465D01*
G01X327550Y338000D02*
Y341100D01*
X328010Y340480D01*
G01Y338000D02*
X327090D01*
G01X324450D02*
Y341100D01*
X324910Y340480D01*
G01Y338000D02*
X323990D01*
G01X322002Y338362D02*
X321733Y338103D01*
X321427Y338000D01*
X321120Y338103D01*
X320852Y338413D01*
X320660Y338878D01*
X320583Y339343D01*
Y339912D01*
X320660Y340377D01*
X320852Y340790D01*
X321082Y340997D01*
X321350Y341100D01*
X321657Y340997D01*
X321887Y340790D01*
X322040Y340480D01*
X322117Y340067D01*
X322040Y339705D01*
X321848Y339343D01*
X321618Y339137D01*
X321350Y339085D01*
X321043Y339188D01*
X320813Y339447D01*
X320583Y339912D01*
G01X355617Y-66900D02*
Y-70000D01*
X354083D01*
G01X351290D02*
Y-66900D01*
X352708Y-69122D01*
X350792D01*
G01X425617Y-60000D02*
Y-56900D01*
X424658D01*
X424352Y-57055D01*
X424160Y-57262D01*
X424083Y-57675D01*
X424160Y-58088D01*
X424390Y-58347D01*
X424658Y-58502D01*
X425617D01*
G01X424658D02*
X424083Y-60000D01*
G01X422593Y-59380D02*
X422363Y-59742D01*
X422057Y-59948D01*
X421712Y-60000D01*
X421405Y-59948D01*
X421098Y-59690D01*
X420907Y-59380D01*
X420868Y-59070D01*
X420945Y-58708D01*
X421213Y-58450D01*
X421482Y-58347D01*
X421827D01*
G01X421482D02*
X421252Y-58192D01*
X421060Y-57933D01*
X420983Y-57623D01*
X421060Y-57313D01*
X421252Y-57055D01*
X421597Y-56900D01*
X421942Y-56952D01*
X422287Y-57158D01*
G01X419378Y-57417D02*
X419148Y-57107D01*
X418880Y-56952D01*
X418573Y-56900D01*
X418190Y-57003D01*
X417922Y-57262D01*
X417845Y-57572D01*
X417883Y-57882D01*
X418037Y-58140D01*
X418803Y-58657D01*
X419148Y-59018D01*
X419378Y-59535D01*
X419455Y-60000D01*
X417845D01*
G01X416007Y-41158D02*
X416237Y-41003D01*
X416505Y-40900D01*
X416812D01*
X417157Y-41055D01*
X417425Y-41313D01*
X417617Y-41623D01*
X417770Y-42140D01*
X417808Y-42605D01*
X417732Y-43070D01*
X417617Y-43380D01*
X417387Y-43690D01*
X417118Y-43897D01*
X416850Y-44000D01*
X416582D01*
X416313Y-43897D01*
X416083Y-43742D01*
X415892Y-43535D01*
G01X413290Y-44000D02*
Y-40900D01*
X414708Y-43122D01*
X412792D01*
G01X410650Y-44000D02*
X410382Y-43948D01*
X410075Y-43793D01*
X409883Y-43535D01*
X409807Y-43173D01*
X409883Y-42812D01*
X410113Y-42502D01*
X410458Y-42347D01*
X410842D01*
X411072Y-42243D01*
X411263Y-41985D01*
X411340Y-41623D01*
X411225Y-41262D01*
X410957Y-41003D01*
X410650Y-40900D01*
X410343Y-41003D01*
X410075Y-41262D01*
X409960Y-41623D01*
X410037Y-41985D01*
X410228Y-42243D01*
X410458Y-42347D01*
X410842D01*
X411187Y-42502D01*
X411417Y-42812D01*
X411493Y-43173D01*
X411417Y-43535D01*
X411225Y-43793D01*
X410918Y-43948D01*
X410650Y-44000D01*
G01X402600Y-5500D02*
X402332Y-5448D01*
X402025Y-5293D01*
X401833Y-5035D01*
X401757Y-4673D01*
X401833Y-4312D01*
X402063Y-4002D01*
X402408Y-3847D01*
X402792D01*
X403022Y-3743D01*
X403213Y-3485D01*
X403290Y-3123D01*
X403175Y-2762D01*
X402907Y-2503D01*
X402600Y-2400D01*
X402293Y-2503D01*
X402025Y-2762D01*
X401910Y-3123D01*
X401987Y-3485D01*
X402178Y-3743D01*
X402408Y-3847D01*
X402792D01*
X403137Y-4002D01*
X403367Y-4312D01*
X403443Y-4673D01*
X403367Y-5035D01*
X403175Y-5293D01*
X402868Y-5448D01*
X402600Y-5500D01*
G01X402877Y10900D02*
X402800Y11572D01*
X402685Y12140D01*
X402532Y12657D01*
X402340Y13225D01*
X402033Y14000D01*
X403567D01*
G01X413350Y30200D02*
Y33300D01*
X413810Y32680D01*
G01Y30200D02*
X412890D01*
G01X410978Y32783D02*
X410748Y33093D01*
X410480Y33248D01*
X410173Y33300D01*
X409790Y33197D01*
X409522Y32938D01*
X409445Y32628D01*
X409483Y32318D01*
X409637Y32060D01*
X410403Y31543D01*
X410748Y31182D01*
X410978Y30665D01*
X411055Y30200D01*
X409445D01*
G01X414007Y70842D02*
X414237Y70997D01*
X414505Y71100D01*
X414812D01*
X415157Y70945D01*
X415425Y70687D01*
X415617Y70377D01*
X415770Y69860D01*
X415808Y69395D01*
X415732Y68930D01*
X415617Y68620D01*
X415387Y68310D01*
X415118Y68103D01*
X414850Y68000D01*
X414582D01*
X414313Y68103D01*
X414083Y68258D01*
X413892Y68465D01*
G01X412478Y69292D02*
X412210Y69653D01*
X411980Y69860D01*
X411673Y69963D01*
X411405Y69860D01*
X411213Y69653D01*
X411060Y69343D01*
X411022Y68982D01*
X411060Y68672D01*
X411213Y68362D01*
X411443Y68103D01*
X411712Y68000D01*
X412018Y68103D01*
X412287Y68413D01*
X412440Y68878D01*
X412478Y69395D01*
X412402Y70067D01*
X412287Y70428D01*
X412095Y70790D01*
X411827Y71048D01*
X411558Y71100D01*
X411290Y70997D01*
X411098Y70738D01*
G01X421617Y274000D02*
Y277100D01*
X420658D01*
X420352Y276945D01*
X420160Y276738D01*
X420083Y276325D01*
X420160Y275912D01*
X420390Y275653D01*
X420658Y275498D01*
X421617D01*
G01X420658D02*
X420083Y274000D01*
G01X418593Y274620D02*
X418363Y274258D01*
X418057Y274052D01*
X417712Y274000D01*
X417405Y274052D01*
X417098Y274310D01*
X416907Y274620D01*
X416868Y274930D01*
X416945Y275292D01*
X417213Y275550D01*
X417482Y275653D01*
X417827D01*
G01X417482D02*
X417252Y275808D01*
X417060Y276067D01*
X416983Y276377D01*
X417060Y276687D01*
X417252Y276945D01*
X417597Y277100D01*
X417942Y277048D01*
X418287Y276842D01*
G01X415378Y275292D02*
X415110Y275653D01*
X414880Y275860D01*
X414573Y275963D01*
X414305Y275860D01*
X414113Y275653D01*
X413960Y275343D01*
X413922Y274982D01*
X413960Y274672D01*
X414113Y274362D01*
X414343Y274103D01*
X414612Y274000D01*
X414918Y274103D01*
X415187Y274413D01*
X415340Y274878D01*
X415378Y275395D01*
X415302Y276067D01*
X415187Y276428D01*
X414995Y276790D01*
X414727Y277048D01*
X414458Y277100D01*
X414190Y276997D01*
X413998Y276738D01*
G01X435617Y-60000D02*
Y-56900D01*
X434658D01*
X434352Y-57055D01*
X434160Y-57262D01*
X434083Y-57675D01*
X434160Y-58088D01*
X434390Y-58347D01*
X434658Y-58502D01*
X435617D01*
G01X434658D02*
X434083Y-60000D01*
G01X432478Y-57417D02*
X432248Y-57107D01*
X431980Y-56952D01*
X431673Y-56900D01*
X431290Y-57003D01*
X431022Y-57262D01*
X430945Y-57572D01*
X430983Y-57882D01*
X431137Y-58140D01*
X431903Y-58657D01*
X432248Y-59018D01*
X432478Y-59535D01*
X432555Y-60000D01*
X430945D01*
G01X428727D02*
X428650Y-59328D01*
X428535Y-58760D01*
X428382Y-58243D01*
X428190Y-57675D01*
X427883Y-56900D01*
X429417D01*
G01X445617Y-60000D02*
Y-56900D01*
X444658D01*
X444352Y-57055D01*
X444160Y-57262D01*
X444083Y-57675D01*
X444160Y-58088D01*
X444390Y-58347D01*
X444658Y-58502D01*
X445617D01*
G01X444658D02*
X444083Y-60000D01*
G01X442478Y-57417D02*
X442248Y-57107D01*
X441980Y-56952D01*
X441673Y-56900D01*
X441290Y-57003D01*
X441022Y-57262D01*
X440945Y-57572D01*
X440983Y-57882D01*
X441137Y-58140D01*
X441903Y-58657D01*
X442248Y-59018D01*
X442478Y-59535D01*
X442555Y-60000D01*
X440945D01*
G01X438650D02*
X438382Y-59948D01*
X438075Y-59793D01*
X437883Y-59535D01*
X437807Y-59173D01*
X437883Y-58812D01*
X438113Y-58502D01*
X438458Y-58347D01*
X438842D01*
X439072Y-58243D01*
X439263Y-57985D01*
X439340Y-57623D01*
X439225Y-57262D01*
X438957Y-57003D01*
X438650Y-56900D01*
X438343Y-57003D01*
X438075Y-57262D01*
X437960Y-57623D01*
X438037Y-57985D01*
X438228Y-58243D01*
X438458Y-58347D01*
X438842D01*
X439187Y-58502D01*
X439417Y-58812D01*
X439493Y-59173D01*
X439417Y-59535D01*
X439225Y-59793D01*
X438918Y-59948D01*
X438650Y-60000D01*
G01X446393Y-14900D02*
Y-17122D01*
X446240Y-17587D01*
X445933Y-17897D01*
X445550Y-18000D01*
X445167Y-17897D01*
X444860Y-17587D01*
X444707Y-17122D01*
Y-14900D01*
G01X443178Y-16708D02*
X442910Y-16347D01*
X442680Y-16140D01*
X442373Y-16037D01*
X442105Y-16140D01*
X441913Y-16347D01*
X441760Y-16657D01*
X441722Y-17018D01*
X441760Y-17328D01*
X441913Y-17638D01*
X442143Y-17897D01*
X442412Y-18000D01*
X442718Y-17897D01*
X442987Y-17587D01*
X443140Y-17122D01*
X443178Y-16605D01*
X443102Y-15933D01*
X442987Y-15572D01*
X442795Y-15210D01*
X442527Y-14952D01*
X442258Y-14900D01*
X441990Y-15003D01*
X441798Y-15262D01*
G01X441417Y33120D02*
X441225Y32810D01*
X440995Y32603D01*
X440727Y32500D01*
X440420Y32603D01*
X440190Y32810D01*
X439960Y33120D01*
X439883Y33533D01*
Y35600D01*
G01X438393Y32965D02*
X438163Y32707D01*
X437895Y32552D01*
X437550Y32500D01*
X437205Y32603D01*
X436937Y32810D01*
X436745Y33172D01*
X436707Y33585D01*
X436783Y33998D01*
X436975Y34257D01*
X437243Y34463D01*
X437512Y34515D01*
X437780Y34463D01*
X438125Y34257D01*
X438010Y35600D01*
X436975D01*
G01X455617Y-60000D02*
Y-56900D01*
X454658D01*
X454352Y-57055D01*
X454160Y-57262D01*
X454083Y-57675D01*
X454160Y-58088D01*
X454390Y-58347D01*
X454658Y-58502D01*
X455617D01*
G01X454658D02*
X454083Y-60000D01*
G01X452593Y-59380D02*
X452363Y-59742D01*
X452057Y-59948D01*
X451712Y-60000D01*
X451405Y-59948D01*
X451098Y-59690D01*
X450907Y-59380D01*
X450868Y-59070D01*
X450945Y-58708D01*
X451213Y-58450D01*
X451482Y-58347D01*
X451827D01*
G01X451482D02*
X451252Y-58192D01*
X451060Y-57933D01*
X450983Y-57623D01*
X451060Y-57313D01*
X451252Y-57055D01*
X451597Y-56900D01*
X451942Y-56952D01*
X452287Y-57158D01*
G01X449493Y-59380D02*
X449263Y-59742D01*
X448957Y-59948D01*
X448612Y-60000D01*
X448305Y-59948D01*
X447998Y-59690D01*
X447807Y-59380D01*
X447768Y-59070D01*
X447845Y-58708D01*
X448113Y-58450D01*
X448382Y-58347D01*
X448727D01*
G01X448382D02*
X448152Y-58192D01*
X447960Y-57933D01*
X447883Y-57623D01*
X447960Y-57313D01*
X448152Y-57055D01*
X448497Y-56900D01*
X448842Y-56952D01*
X449187Y-57158D01*
G01X466007D02*
X466237Y-57003D01*
X466505Y-56900D01*
X466812D01*
X467157Y-57055D01*
X467425Y-57313D01*
X467617Y-57623D01*
X467770Y-58140D01*
X467808Y-58605D01*
X467732Y-59070D01*
X467617Y-59380D01*
X467387Y-59690D01*
X467118Y-59897D01*
X466850Y-60000D01*
X466582D01*
X466313Y-59897D01*
X466083Y-59742D01*
X465892Y-59535D01*
G01X463290Y-60000D02*
Y-56900D01*
X464708Y-59122D01*
X462792D01*
G01X461302Y-59638D02*
X461033Y-59897D01*
X460727Y-60000D01*
X460420Y-59897D01*
X460152Y-59587D01*
X459960Y-59122D01*
X459883Y-58657D01*
Y-58088D01*
X459960Y-57623D01*
X460152Y-57210D01*
X460382Y-57003D01*
X460650Y-56900D01*
X460957Y-57003D01*
X461187Y-57210D01*
X461340Y-57520D01*
X461417Y-57933D01*
X461340Y-58295D01*
X461148Y-58657D01*
X460918Y-58863D01*
X460650Y-58915D01*
X460343Y-58812D01*
X460113Y-58553D01*
X459883Y-58088D01*
G01X463052Y31662D02*
X462783Y31403D01*
X462477Y31300D01*
X462170Y31403D01*
X461902Y31713D01*
X461710Y32178D01*
X461633Y32643D01*
Y33212D01*
X461710Y33677D01*
X461902Y34090D01*
X462132Y34297D01*
X462400Y34400D01*
X462707Y34297D01*
X462937Y34090D01*
X463090Y33780D01*
X463167Y33367D01*
X463090Y33005D01*
X462898Y32643D01*
X462668Y32437D01*
X462400Y32385D01*
X462093Y32488D01*
X461863Y32747D01*
X461633Y33212D01*
G01X467617Y274000D02*
Y277100D01*
X466658D01*
X466352Y276945D01*
X466160Y276738D01*
X466083Y276325D01*
X466160Y275912D01*
X466390Y275653D01*
X466658Y275498D01*
X467617D01*
G01X466658D02*
X466083Y274000D01*
G01X463290D02*
Y277100D01*
X464708Y274878D01*
X462792D01*
G01X460650Y277100D02*
X460957Y276997D01*
X461187Y276738D01*
X461340Y276428D01*
X461455Y276015D01*
X461493Y275550D01*
X461455Y275085D01*
X461340Y274672D01*
X461187Y274362D01*
X460957Y274103D01*
X460650Y274000D01*
X460343Y274103D01*
X460113Y274362D01*
X459960Y274672D01*
X459845Y275085D01*
X459807Y275550D01*
X459845Y276015D01*
X459960Y276428D01*
X460113Y276738D01*
X460343Y276997D01*
X460650Y277100D01*
G01X473128Y-2917D02*
X472898Y-2607D01*
X472630Y-2452D01*
X472323Y-2400D01*
X471940Y-2503D01*
X471672Y-2762D01*
X471595Y-3072D01*
X471633Y-3382D01*
X471787Y-3640D01*
X472553Y-4157D01*
X472898Y-4518D01*
X473128Y-5035D01*
X473205Y-5500D01*
X471595D01*
G01X472200Y10800D02*
Y13900D01*
X472660Y13280D01*
G01Y10800D02*
X471740D01*
G01X502007Y842D02*
X502237Y997D01*
X502505Y1100D01*
X502812D01*
X503157Y945D01*
X503425Y687D01*
X503617Y377D01*
X503770Y-140D01*
X503808Y-605D01*
X503732Y-1070D01*
X503617Y-1380D01*
X503387Y-1690D01*
X503118Y-1897D01*
X502850Y-2000D01*
X502582D01*
X502313Y-1897D01*
X502083Y-1742D01*
X501892Y-1535D01*
G01X500593Y-1380D02*
X500363Y-1742D01*
X500057Y-1948D01*
X499712Y-2000D01*
X499405Y-1948D01*
X499098Y-1690D01*
X498907Y-1380D01*
X498868Y-1070D01*
X498945Y-708D01*
X499213Y-450D01*
X499482Y-347D01*
X499827D01*
G01X499482D02*
X499252Y-192D01*
X499060Y67D01*
X498983Y377D01*
X499060Y687D01*
X499252Y945D01*
X499597Y1100D01*
X499942Y1048D01*
X500287Y842D01*
G01X497493Y-1535D02*
X497263Y-1793D01*
X496995Y-1948D01*
X496650Y-2000D01*
X496305Y-1897D01*
X496037Y-1690D01*
X495845Y-1328D01*
X495807Y-915D01*
X495883Y-502D01*
X496075Y-243D01*
X496343Y-37D01*
X496612Y15D01*
X496880Y-37D01*
X497225Y-243D01*
X497110Y1100D01*
X496075D01*
G01X501617Y9100D02*
Y6000D01*
X500083D01*
G01X498593Y6620D02*
X498363Y6258D01*
X498057Y6052D01*
X497712Y6000D01*
X497405Y6052D01*
X497098Y6310D01*
X496907Y6620D01*
X496868Y6930D01*
X496945Y7292D01*
X497213Y7550D01*
X497482Y7653D01*
X497827D01*
G01X497482D02*
X497252Y7808D01*
X497060Y8067D01*
X496983Y8377D01*
X497060Y8687D01*
X497252Y8945D01*
X497597Y9100D01*
X497942Y9048D01*
X498287Y8842D01*
G01X511617Y52000D02*
Y55100D01*
X510658D01*
X510352Y54945D01*
X510160Y54738D01*
X510083Y54325D01*
X510160Y53912D01*
X510390Y53653D01*
X510658Y53498D01*
X511617D01*
G01X510658D02*
X510083Y52000D01*
G01X507750D02*
Y55100D01*
X508210Y54480D01*
G01Y52000D02*
X507290D01*
G01X504190D02*
Y55100D01*
X505608Y52878D01*
X503692D01*
G01X494007Y186842D02*
X494237Y186997D01*
X494505Y187100D01*
X494812D01*
X495157Y186945D01*
X495425Y186687D01*
X495617Y186377D01*
X495770Y185860D01*
X495808Y185395D01*
X495732Y184930D01*
X495617Y184620D01*
X495387Y184310D01*
X495118Y184103D01*
X494850Y184000D01*
X494582D01*
X494313Y184103D01*
X494083Y184258D01*
X493892Y184465D01*
G01X491827Y184000D02*
X491750Y184672D01*
X491635Y185240D01*
X491482Y185757D01*
X491290Y186325D01*
X490983Y187100D01*
X492517D01*
G01X489378Y186583D02*
X489148Y186893D01*
X488880Y187048D01*
X488573Y187100D01*
X488190Y186997D01*
X487922Y186738D01*
X487845Y186428D01*
X487883Y186118D01*
X488037Y185860D01*
X488803Y185343D01*
X489148Y184982D01*
X489378Y184465D01*
X489455Y184000D01*
X487845D01*
G01X510007Y186842D02*
X510237Y186997D01*
X510505Y187100D01*
X510812D01*
X511157Y186945D01*
X511425Y186687D01*
X511617Y186377D01*
X511770Y185860D01*
X511808Y185395D01*
X511732Y184930D01*
X511617Y184620D01*
X511387Y184310D01*
X511118Y184103D01*
X510850Y184000D01*
X510582D01*
X510313Y184103D01*
X510083Y184258D01*
X509892Y184465D01*
G01X507827Y184000D02*
X507750Y184672D01*
X507635Y185240D01*
X507482Y185757D01*
X507290Y186325D01*
X506983Y187100D01*
X508517D01*
G01X505493Y184620D02*
X505263Y184258D01*
X504957Y184052D01*
X504612Y184000D01*
X504305Y184052D01*
X503998Y184310D01*
X503807Y184620D01*
X503768Y184930D01*
X503845Y185292D01*
X504113Y185550D01*
X504382Y185653D01*
X504727D01*
G01X504382D02*
X504152Y185808D01*
X503960Y186067D01*
X503883Y186377D01*
X503960Y186687D01*
X504152Y186945D01*
X504497Y187100D01*
X504842Y187048D01*
X505187Y186842D01*
G01X500007Y212842D02*
X500237Y212997D01*
X500505Y213100D01*
X500812D01*
X501157Y212945D01*
X501425Y212687D01*
X501617Y212377D01*
X501770Y211860D01*
X501808Y211395D01*
X501732Y210930D01*
X501617Y210620D01*
X501387Y210310D01*
X501118Y210103D01*
X500850Y210000D01*
X500582D01*
X500313Y210103D01*
X500083Y210258D01*
X499892Y210465D01*
G01X497827Y210000D02*
X497750Y210672D01*
X497635Y211240D01*
X497482Y211757D01*
X497290Y212325D01*
X496983Y213100D01*
X498517D01*
G01X494650D02*
X494957Y212997D01*
X495187Y212738D01*
X495340Y212428D01*
X495455Y212015D01*
X495493Y211550D01*
X495455Y211085D01*
X495340Y210672D01*
X495187Y210362D01*
X494957Y210103D01*
X494650Y210000D01*
X494343Y210103D01*
X494113Y210362D01*
X493960Y210672D01*
X493845Y211085D01*
X493807Y211550D01*
X493845Y212015D01*
X493960Y212428D01*
X494113Y212738D01*
X494343Y212997D01*
X494650Y213100D01*
G01X504007Y224842D02*
X504237Y224997D01*
X504505Y225100D01*
X504812D01*
X505157Y224945D01*
X505425Y224687D01*
X505617Y224377D01*
X505770Y223860D01*
X505808Y223395D01*
X505732Y222930D01*
X505617Y222620D01*
X505387Y222310D01*
X505118Y222103D01*
X504850Y222000D01*
X504582D01*
X504313Y222103D01*
X504083Y222258D01*
X503892Y222465D01*
G01X502478Y223292D02*
X502210Y223653D01*
X501980Y223860D01*
X501673Y223963D01*
X501405Y223860D01*
X501213Y223653D01*
X501060Y223343D01*
X501022Y222982D01*
X501060Y222672D01*
X501213Y222362D01*
X501443Y222103D01*
X501712Y222000D01*
X502018Y222103D01*
X502287Y222413D01*
X502440Y222878D01*
X502478Y223395D01*
X502402Y224067D01*
X502287Y224428D01*
X502095Y224790D01*
X501827Y225048D01*
X501558Y225100D01*
X501290Y224997D01*
X501098Y224738D01*
G01X499378Y224583D02*
X499148Y224893D01*
X498880Y225048D01*
X498573Y225100D01*
X498190Y224997D01*
X497922Y224738D01*
X497845Y224428D01*
X497883Y224118D01*
X498037Y223860D01*
X498803Y223343D01*
X499148Y222982D01*
X499378Y222465D01*
X499455Y222000D01*
X497845D01*
G01X517617Y22000D02*
Y25100D01*
X516658D01*
X516352Y24945D01*
X516160Y24738D01*
X516083Y24325D01*
X516160Y23912D01*
X516390Y23653D01*
X516658Y23498D01*
X517617D01*
G01X516658D02*
X516083Y22000D01*
G01X514402Y22362D02*
X514133Y22103D01*
X513827Y22000D01*
X513520Y22103D01*
X513252Y22413D01*
X513060Y22878D01*
X512983Y23343D01*
Y23912D01*
X513060Y24377D01*
X513252Y24790D01*
X513482Y24997D01*
X513750Y25100D01*
X514057Y24997D01*
X514287Y24790D01*
X514440Y24480D01*
X514517Y24067D01*
X514440Y23705D01*
X514248Y23343D01*
X514018Y23137D01*
X513750Y23085D01*
X513443Y23188D01*
X513213Y23447D01*
X512983Y23912D01*
G01X516007Y212842D02*
X516237Y212997D01*
X516505Y213100D01*
X516812D01*
X517157Y212945D01*
X517425Y212687D01*
X517617Y212377D01*
X517770Y211860D01*
X517808Y211395D01*
X517732Y210930D01*
X517617Y210620D01*
X517387Y210310D01*
X517118Y210103D01*
X516850Y210000D01*
X516582D01*
X516313Y210103D01*
X516083Y210258D01*
X515892Y210465D01*
G01X513827Y210000D02*
X513750Y210672D01*
X513635Y211240D01*
X513482Y211757D01*
X513290Y212325D01*
X512983Y213100D01*
X514517D01*
G01X510650Y210000D02*
Y213100D01*
X511110Y212480D01*
G01Y210000D02*
X510190D01*
G01X575617Y52000D02*
Y55100D01*
X574658D01*
X574352Y54945D01*
X574160Y54738D01*
X574083Y54325D01*
X574160Y53912D01*
X574390Y53653D01*
X574658Y53498D01*
X575617D01*
G01X574658D02*
X574083Y52000D01*
G01X572593Y52620D02*
X572363Y52258D01*
X572057Y52052D01*
X571712Y52000D01*
X571405Y52052D01*
X571098Y52310D01*
X570907Y52620D01*
X570868Y52930D01*
X570945Y53292D01*
X571213Y53550D01*
X571482Y53653D01*
X571827D01*
G01X571482D02*
X571252Y53808D01*
X571060Y54067D01*
X570983Y54377D01*
X571060Y54687D01*
X571252Y54945D01*
X571597Y55100D01*
X571942Y55048D01*
X572287Y54842D01*
G01X568650Y52000D02*
Y55100D01*
X569110Y54480D01*
G01Y52000D02*
X568190D01*
G01X585617Y20000D02*
Y23100D01*
X584658D01*
X584352Y22945D01*
X584160Y22738D01*
X584083Y22325D01*
X584160Y21912D01*
X584390Y21653D01*
X584658Y21498D01*
X585617D01*
G01X584658D02*
X584083Y20000D01*
G01X582478Y22583D02*
X582248Y22893D01*
X581980Y23048D01*
X581673Y23100D01*
X581290Y22997D01*
X581022Y22738D01*
X580945Y22428D01*
X580983Y22118D01*
X581137Y21860D01*
X581903Y21343D01*
X582248Y20982D01*
X582478Y20465D01*
X582555Y20000D01*
X580945D01*
G01X579493Y20465D02*
X579263Y20207D01*
X578995Y20052D01*
X578650Y20000D01*
X578305Y20103D01*
X578037Y20310D01*
X577845Y20672D01*
X577807Y21085D01*
X577883Y21498D01*
X578075Y21757D01*
X578343Y21963D01*
X578612Y22015D01*
X578880Y21963D01*
X579225Y21757D01*
X579110Y23100D01*
X578075D01*
G01X580007Y210842D02*
X580237Y210997D01*
X580505Y211100D01*
X580812D01*
X581157Y210945D01*
X581425Y210687D01*
X581617Y210377D01*
X581770Y209860D01*
X581808Y209395D01*
X581732Y208930D01*
X581617Y208620D01*
X581387Y208310D01*
X581118Y208103D01*
X580850Y208000D01*
X580582D01*
X580313Y208103D01*
X580083Y208258D01*
X579892Y208465D01*
G01X577290Y208000D02*
Y211100D01*
X578708Y208878D01*
X576792D01*
G01X575378Y209292D02*
X575110Y209653D01*
X574880Y209860D01*
X574573Y209963D01*
X574305Y209860D01*
X574113Y209653D01*
X573960Y209343D01*
X573922Y208982D01*
X573960Y208672D01*
X574113Y208362D01*
X574343Y208103D01*
X574612Y208000D01*
X574918Y208103D01*
X575187Y208413D01*
X575340Y208878D01*
X575378Y209395D01*
X575302Y210067D01*
X575187Y210428D01*
X574995Y210790D01*
X574727Y211048D01*
X574458Y211100D01*
X574190Y210997D01*
X573998Y210738D01*
G01X580007Y202842D02*
X580237Y202997D01*
X580505Y203100D01*
X580812D01*
X581157Y202945D01*
X581425Y202687D01*
X581617Y202377D01*
X581770Y201860D01*
X581808Y201395D01*
X581732Y200930D01*
X581617Y200620D01*
X581387Y200310D01*
X581118Y200103D01*
X580850Y200000D01*
X580582D01*
X580313Y200103D01*
X580083Y200258D01*
X579892Y200465D01*
G01X577290Y200000D02*
Y203100D01*
X578708Y200878D01*
X576792D01*
G01X574727Y200000D02*
X574650Y200672D01*
X574535Y201240D01*
X574382Y201757D01*
X574190Y202325D01*
X573883Y203100D01*
X575417D01*
G01X651617Y20000D02*
Y23100D01*
X650658D01*
X650352Y22945D01*
X650160Y22738D01*
X650083Y22325D01*
X650160Y21912D01*
X650390Y21653D01*
X650658Y21498D01*
X651617D01*
G01X650658D02*
X650083Y20000D01*
G01X647750D02*
X647482Y20052D01*
X647175Y20207D01*
X646983Y20465D01*
X646907Y20827D01*
X646983Y21188D01*
X647213Y21498D01*
X647558Y21653D01*
X647942D01*
X648172Y21757D01*
X648363Y22015D01*
X648440Y22377D01*
X648325Y22738D01*
X648057Y22997D01*
X647750Y23100D01*
X647443Y22997D01*
X647175Y22738D01*
X647060Y22377D01*
X647137Y22015D01*
X647328Y21757D01*
X647558Y21653D01*
X647942D01*
X648287Y21498D01*
X648517Y21188D01*
X648593Y20827D01*
X648517Y20465D01*
X648325Y20207D01*
X648018Y20052D01*
X647750Y20000D01*
G01X645378Y22583D02*
X645148Y22893D01*
X644880Y23048D01*
X644573Y23100D01*
X644190Y22997D01*
X643922Y22738D01*
X643845Y22428D01*
X643883Y22118D01*
X644037Y21860D01*
X644803Y21343D01*
X645148Y20982D01*
X645378Y20465D01*
X645455Y20000D01*
X643845D01*
G01X641617Y52000D02*
Y55100D01*
X640658D01*
X640352Y54945D01*
X640160Y54738D01*
X640083Y54325D01*
X640160Y53912D01*
X640390Y53653D01*
X640658Y53498D01*
X641617D01*
G01X640658D02*
X640083Y52000D01*
G01X637750D02*
X637482Y52052D01*
X637175Y52207D01*
X636983Y52465D01*
X636907Y52827D01*
X636983Y53188D01*
X637213Y53498D01*
X637558Y53653D01*
X637942D01*
X638172Y53757D01*
X638363Y54015D01*
X638440Y54377D01*
X638325Y54738D01*
X638057Y54997D01*
X637750Y55100D01*
X637443Y54997D01*
X637175Y54738D01*
X637060Y54377D01*
X637137Y54015D01*
X637328Y53757D01*
X637558Y53653D01*
X637942D01*
X638287Y53498D01*
X638517Y53188D01*
X638593Y52827D01*
X638517Y52465D01*
X638325Y52207D01*
X638018Y52052D01*
X637750Y52000D01*
G01X635493Y52465D02*
X635263Y52207D01*
X634995Y52052D01*
X634650Y52000D01*
X634305Y52103D01*
X634037Y52310D01*
X633845Y52672D01*
X633807Y53085D01*
X633883Y53498D01*
X634075Y53757D01*
X634343Y53963D01*
X634612Y54015D01*
X634880Y53963D01*
X635225Y53757D01*
X635110Y55100D01*
X634075D01*
G01X639943Y221100D02*
Y218878D01*
X639790Y218413D01*
X639483Y218103D01*
X639100Y218000D01*
X638717Y218103D01*
X638410Y218413D01*
X638257Y218878D01*
Y221100D01*
G01X636000Y218000D02*
Y221100D01*
X636460Y220480D01*
G01Y218000D02*
X635540D01*
G01X632900D02*
Y221100D01*
X633360Y220480D01*
G01Y218000D02*
X632440D01*
G01X677617Y230000D02*
Y233100D01*
X676658D01*
X676352Y232945D01*
X676160Y232738D01*
X676083Y232325D01*
X676160Y231912D01*
X676390Y231653D01*
X676658Y231498D01*
X677617D01*
G01X676658D02*
X676083Y230000D01*
G01X673290D02*
Y233100D01*
X674708Y230878D01*
X672792D01*
G01X671302Y230362D02*
X671033Y230103D01*
X670727Y230000D01*
X670420Y230103D01*
X670152Y230413D01*
X669960Y230878D01*
X669883Y231343D01*
Y231912D01*
X669960Y232377D01*
X670152Y232790D01*
X670382Y232997D01*
X670650Y233100D01*
X670957Y232997D01*
X671187Y232790D01*
X671340Y232480D01*
X671417Y232067D01*
X671340Y231705D01*
X671148Y231343D01*
X670918Y231137D01*
X670650Y231085D01*
X670343Y231188D01*
X670113Y231447D01*
X669883Y231912D01*
G01X677617Y222000D02*
Y225100D01*
X676658D01*
X676352Y224945D01*
X676160Y224738D01*
X676083Y224325D01*
X676160Y223912D01*
X676390Y223653D01*
X676658Y223498D01*
X677617D01*
G01X676658D02*
X676083Y222000D01*
G01X674593Y222465D02*
X674363Y222207D01*
X674095Y222052D01*
X673750Y222000D01*
X673405Y222103D01*
X673137Y222310D01*
X672945Y222672D01*
X672907Y223085D01*
X672983Y223498D01*
X673175Y223757D01*
X673443Y223963D01*
X673712Y224015D01*
X673980Y223963D01*
X674325Y223757D01*
X674210Y225100D01*
X673175D01*
G01X670650Y222000D02*
Y225100D01*
X671110Y224480D01*
G01Y222000D02*
X670190D01*
G01X677617Y254000D02*
Y257100D01*
X676658D01*
X676352Y256945D01*
X676160Y256738D01*
X676083Y256325D01*
X676160Y255912D01*
X676390Y255653D01*
X676658Y255498D01*
X677617D01*
G01X676658D02*
X676083Y254000D01*
G01X673290D02*
Y257100D01*
X674708Y254878D01*
X672792D01*
G01X670650Y254000D02*
Y257100D01*
X671110Y256480D01*
G01Y254000D02*
X670190D01*
G01X677617Y246000D02*
Y249100D01*
X676658D01*
X676352Y248945D01*
X676160Y248738D01*
X676083Y248325D01*
X676160Y247912D01*
X676390Y247653D01*
X676658Y247498D01*
X677617D01*
G01X676658D02*
X676083Y246000D01*
G01X673290D02*
Y249100D01*
X674708Y246878D01*
X672792D01*
G01X671493Y246620D02*
X671263Y246258D01*
X670957Y246052D01*
X670612Y246000D01*
X670305Y246052D01*
X669998Y246310D01*
X669807Y246620D01*
X669768Y246930D01*
X669845Y247292D01*
X670113Y247550D01*
X670382Y247653D01*
X670727D01*
G01X670382D02*
X670152Y247808D01*
X669960Y248067D01*
X669883Y248377D01*
X669960Y248687D01*
X670152Y248945D01*
X670497Y249100D01*
X670842Y249048D01*
X671187Y248842D01*
G01X677617Y238000D02*
Y241100D01*
X676658D01*
X676352Y240945D01*
X676160Y240738D01*
X676083Y240325D01*
X676160Y239912D01*
X676390Y239653D01*
X676658Y239498D01*
X677617D01*
G01X676658D02*
X676083Y238000D01*
G01X673290D02*
Y241100D01*
X674708Y238878D01*
X672792D01*
G01X671378Y239292D02*
X671110Y239653D01*
X670880Y239860D01*
X670573Y239963D01*
X670305Y239860D01*
X670113Y239653D01*
X669960Y239343D01*
X669922Y238982D01*
X669960Y238672D01*
X670113Y238362D01*
X670343Y238103D01*
X670612Y238000D01*
X670918Y238103D01*
X671187Y238413D01*
X671340Y238878D01*
X671378Y239395D01*
X671302Y240067D01*
X671187Y240428D01*
X670995Y240790D01*
X670727Y241048D01*
X670458Y241100D01*
X670190Y240997D01*
X669998Y240738D01*
G01X677617Y262000D02*
Y265100D01*
X676658D01*
X676352Y264945D01*
X676160Y264738D01*
X676083Y264325D01*
X676160Y263912D01*
X676390Y263653D01*
X676658Y263498D01*
X677617D01*
G01X676658D02*
X676083Y262000D01*
G01X674593Y262620D02*
X674363Y262258D01*
X674057Y262052D01*
X673712Y262000D01*
X673405Y262052D01*
X673098Y262310D01*
X672907Y262620D01*
X672868Y262930D01*
X672945Y263292D01*
X673213Y263550D01*
X673482Y263653D01*
X673827D01*
G01X673482D02*
X673252Y263808D01*
X673060Y264067D01*
X672983Y264377D01*
X673060Y264687D01*
X673252Y264945D01*
X673597Y265100D01*
X673942Y265048D01*
X674287Y264842D01*
G01X670650Y262000D02*
X670382Y262052D01*
X670075Y262207D01*
X669883Y262465D01*
X669807Y262827D01*
X669883Y263188D01*
X670113Y263498D01*
X670458Y263653D01*
X670842D01*
X671072Y263757D01*
X671263Y264015D01*
X671340Y264377D01*
X671225Y264738D01*
X670957Y264997D01*
X670650Y265100D01*
X670343Y264997D01*
X670075Y264738D01*
X669960Y264377D01*
X670037Y264015D01*
X670228Y263757D01*
X670458Y263653D01*
X670842D01*
X671187Y263498D01*
X671417Y263188D01*
X671493Y262827D01*
X671417Y262465D01*
X671225Y262207D01*
X670918Y262052D01*
X670650Y262000D01*
G01X719617Y20000D02*
Y23100D01*
X718658D01*
X718352Y22945D01*
X718160Y22738D01*
X718083Y22325D01*
X718160Y21912D01*
X718390Y21653D01*
X718658Y21498D01*
X719617D01*
G01X718658D02*
X718083Y20000D01*
G01X715750D02*
Y23100D01*
X716210Y22480D01*
G01Y20000D02*
X715290D01*
G01X712650Y23100D02*
X712957Y22997D01*
X713187Y22738D01*
X713340Y22428D01*
X713455Y22015D01*
X713493Y21550D01*
X713455Y21085D01*
X713340Y20672D01*
X713187Y20362D01*
X712957Y20103D01*
X712650Y20000D01*
X712343Y20103D01*
X712113Y20362D01*
X711960Y20672D01*
X711845Y21085D01*
X711807Y21550D01*
X711845Y22015D01*
X711960Y22428D01*
X712113Y22738D01*
X712343Y22997D01*
X712650Y23100D01*
G01X710393Y20620D02*
X710163Y20258D01*
X709857Y20052D01*
X709512Y20000D01*
X709205Y20052D01*
X708898Y20310D01*
X708707Y20620D01*
X708668Y20930D01*
X708745Y21292D01*
X709013Y21550D01*
X709282Y21653D01*
X709627D01*
G01X709282D02*
X709052Y21808D01*
X708860Y22067D01*
X708783Y22377D01*
X708860Y22687D01*
X709052Y22945D01*
X709397Y23100D01*
X709742Y23048D01*
X710087Y22842D01*
G01X709617Y52000D02*
Y55100D01*
X708658D01*
X708352Y54945D01*
X708160Y54738D01*
X708083Y54325D01*
X708160Y53912D01*
X708390Y53653D01*
X708658Y53498D01*
X709617D01*
G01X708658D02*
X708083Y52000D01*
G01X705750D02*
Y55100D01*
X706210Y54480D01*
G01Y52000D02*
X705290D01*
G01X702650Y55100D02*
X702957Y54997D01*
X703187Y54738D01*
X703340Y54428D01*
X703455Y54015D01*
X703493Y53550D01*
X703455Y53085D01*
X703340Y52672D01*
X703187Y52362D01*
X702957Y52103D01*
X702650Y52000D01*
X702343Y52103D01*
X702113Y52362D01*
X701960Y52672D01*
X701845Y53085D01*
X701807Y53550D01*
X701845Y54015D01*
X701960Y54428D01*
X702113Y54738D01*
X702343Y54997D01*
X702650Y55100D01*
G01X700393Y52465D02*
X700163Y52207D01*
X699895Y52052D01*
X699550Y52000D01*
X699205Y52103D01*
X698937Y52310D01*
X698745Y52672D01*
X698707Y53085D01*
X698783Y53498D01*
X698975Y53757D01*
X699243Y53963D01*
X699512Y54015D01*
X699780Y53963D01*
X700125Y53757D01*
X700010Y55100D01*
X698975D01*
G01X722007Y182842D02*
X722237Y182997D01*
X722505Y183100D01*
X722812D01*
X723157Y182945D01*
X723425Y182687D01*
X723617Y182377D01*
X723770Y181860D01*
X723808Y181395D01*
X723732Y180930D01*
X723617Y180620D01*
X723387Y180310D01*
X723118Y180103D01*
X722850Y180000D01*
X722582D01*
X722313Y180103D01*
X722083Y180258D01*
X721892Y180465D01*
G01X719827Y180000D02*
X719750Y180672D01*
X719635Y181240D01*
X719482Y181757D01*
X719290Y182325D01*
X718983Y183100D01*
X720517D01*
G01X717378Y181292D02*
X717110Y181653D01*
X716880Y181860D01*
X716573Y181963D01*
X716305Y181860D01*
X716113Y181653D01*
X715960Y181343D01*
X715922Y180982D01*
X715960Y180672D01*
X716113Y180362D01*
X716343Y180103D01*
X716612Y180000D01*
X716918Y180103D01*
X717187Y180413D01*
X717340Y180878D01*
X717378Y181395D01*
X717302Y182067D01*
X717187Y182428D01*
X716995Y182790D01*
X716727Y183048D01*
X716458Y183100D01*
X716190Y182997D01*
X715998Y182738D01*
G01X722007Y190842D02*
X722237Y190997D01*
X722505Y191100D01*
X722812D01*
X723157Y190945D01*
X723425Y190687D01*
X723617Y190377D01*
X723770Y189860D01*
X723808Y189395D01*
X723732Y188930D01*
X723617Y188620D01*
X723387Y188310D01*
X723118Y188103D01*
X722850Y188000D01*
X722582D01*
X722313Y188103D01*
X722083Y188258D01*
X721892Y188465D01*
G01X719827Y188000D02*
X719750Y188672D01*
X719635Y189240D01*
X719482Y189757D01*
X719290Y190325D01*
X718983Y191100D01*
X720517D01*
G01X716650Y188000D02*
X716382Y188052D01*
X716075Y188207D01*
X715883Y188465D01*
X715807Y188827D01*
X715883Y189188D01*
X716113Y189498D01*
X716458Y189653D01*
X716842D01*
X717072Y189757D01*
X717263Y190015D01*
X717340Y190377D01*
X717225Y190738D01*
X716957Y190997D01*
X716650Y191100D01*
X716343Y190997D01*
X716075Y190738D01*
X715960Y190377D01*
X716037Y190015D01*
X716228Y189757D01*
X716458Y189653D01*
X716842D01*
X717187Y189498D01*
X717417Y189188D01*
X717493Y188827D01*
X717417Y188465D01*
X717225Y188207D01*
X716918Y188052D01*
X716650Y188000D01*
G01X738007Y156842D02*
X738237Y156997D01*
X738505Y157100D01*
X738812D01*
X739157Y156945D01*
X739425Y156687D01*
X739617Y156377D01*
X739770Y155860D01*
X739808Y155395D01*
X739732Y154930D01*
X739617Y154620D01*
X739387Y154310D01*
X739118Y154103D01*
X738850Y154000D01*
X738582D01*
X738313Y154103D01*
X738083Y154258D01*
X737892Y154465D01*
G01X735827Y154000D02*
X735750Y154672D01*
X735635Y155240D01*
X735482Y155757D01*
X735290Y156325D01*
X734983Y157100D01*
X736517D01*
G01X732727Y154000D02*
X732650Y154672D01*
X732535Y155240D01*
X732382Y155757D01*
X732190Y156325D01*
X731883Y157100D01*
X733417D01*
G01X731617Y175100D02*
Y172000D01*
X730083D01*
G01X727750D02*
Y175100D01*
X728210Y174480D01*
G01Y172000D02*
X727290D01*
G01X724650Y175100D02*
X724957Y174997D01*
X725187Y174738D01*
X725340Y174428D01*
X725455Y174015D01*
X725493Y173550D01*
X725455Y173085D01*
X725340Y172672D01*
X725187Y172362D01*
X724957Y172103D01*
X724650Y172000D01*
X724343Y172103D01*
X724113Y172362D01*
X723960Y172672D01*
X723845Y173085D01*
X723807Y173550D01*
X723845Y174015D01*
X723960Y174428D01*
X724113Y174738D01*
X724343Y174997D01*
X724650Y175100D01*
G01X758007Y156842D02*
X758237Y156997D01*
X758505Y157100D01*
X758812D01*
X759157Y156945D01*
X759425Y156687D01*
X759617Y156377D01*
X759770Y155860D01*
X759808Y155395D01*
X759732Y154930D01*
X759617Y154620D01*
X759387Y154310D01*
X759118Y154103D01*
X758850Y154000D01*
X758582D01*
X758313Y154103D01*
X758083Y154258D01*
X757892Y154465D01*
G01X756402Y154362D02*
X756133Y154103D01*
X755827Y154000D01*
X755520Y154103D01*
X755252Y154413D01*
X755060Y154878D01*
X754983Y155343D01*
Y155912D01*
X755060Y156377D01*
X755252Y156790D01*
X755482Y156997D01*
X755750Y157100D01*
X756057Y156997D01*
X756287Y156790D01*
X756440Y156480D01*
X756517Y156067D01*
X756440Y155705D01*
X756248Y155343D01*
X756018Y155137D01*
X755750Y155085D01*
X755443Y155188D01*
X755213Y155447D01*
X754983Y155912D01*
G01X753493Y154465D02*
X753263Y154207D01*
X752995Y154052D01*
X752650Y154000D01*
X752305Y154103D01*
X752037Y154310D01*
X751845Y154672D01*
X751807Y155085D01*
X751883Y155498D01*
X752075Y155757D01*
X752343Y155963D01*
X752612Y156015D01*
X752880Y155963D01*
X753225Y155757D01*
X753110Y157100D01*
X752075D01*
G01X760007Y192842D02*
X760237Y192997D01*
X760505Y193100D01*
X760812D01*
X761157Y192945D01*
X761425Y192687D01*
X761617Y192377D01*
X761770Y191860D01*
X761808Y191395D01*
X761732Y190930D01*
X761617Y190620D01*
X761387Y190310D01*
X761118Y190103D01*
X760850Y190000D01*
X760582D01*
X760313Y190103D01*
X760083Y190258D01*
X759892Y190465D01*
G01X758402Y190362D02*
X758133Y190103D01*
X757827Y190000D01*
X757520Y190103D01*
X757252Y190413D01*
X757060Y190878D01*
X756983Y191343D01*
Y191912D01*
X757060Y192377D01*
X757252Y192790D01*
X757482Y192997D01*
X757750Y193100D01*
X758057Y192997D01*
X758287Y192790D01*
X758440Y192480D01*
X758517Y192067D01*
X758440Y191705D01*
X758248Y191343D01*
X758018Y191137D01*
X757750Y191085D01*
X757443Y191188D01*
X757213Y191447D01*
X756983Y191912D01*
G01X754190Y190000D02*
Y193100D01*
X755608Y190878D01*
X753692D01*
G01X778007Y218842D02*
X778237Y218997D01*
X778505Y219100D01*
X778812D01*
X779157Y218945D01*
X779425Y218687D01*
X779617Y218377D01*
X779770Y217860D01*
X779808Y217395D01*
X779732Y216930D01*
X779617Y216620D01*
X779387Y216310D01*
X779118Y216103D01*
X778850Y216000D01*
X778582D01*
X778313Y216103D01*
X778083Y216258D01*
X777892Y216465D01*
G01X775750Y216000D02*
Y219100D01*
X776210Y218480D01*
G01Y216000D02*
X775290D01*
G01X772650D02*
Y219100D01*
X773110Y218480D01*
G01Y216000D02*
X772190D01*
G01X770393Y216465D02*
X770163Y216207D01*
X769895Y216052D01*
X769550Y216000D01*
X769205Y216103D01*
X768937Y216310D01*
X768745Y216672D01*
X768707Y217085D01*
X768783Y217498D01*
X768975Y217757D01*
X769243Y217963D01*
X769512Y218015D01*
X769780Y217963D01*
X770125Y217757D01*
X770010Y219100D01*
X768975D01*
G01X796007Y168842D02*
X796237Y168997D01*
X796505Y169100D01*
X796812D01*
X797157Y168945D01*
X797425Y168687D01*
X797617Y168377D01*
X797770Y167860D01*
X797808Y167395D01*
X797732Y166930D01*
X797617Y166620D01*
X797387Y166310D01*
X797118Y166103D01*
X796850Y166000D01*
X796582D01*
X796313Y166103D01*
X796083Y166258D01*
X795892Y166465D01*
G01X793750Y166000D02*
Y169100D01*
X794210Y168480D01*
G01Y166000D02*
X793290D01*
G01X790650D02*
Y169100D01*
X791110Y168480D01*
G01Y166000D02*
X790190D01*
G01X788278Y167292D02*
X788010Y167653D01*
X787780Y167860D01*
X787473Y167963D01*
X787205Y167860D01*
X787013Y167653D01*
X786860Y167343D01*
X786822Y166982D01*
X786860Y166672D01*
X787013Y166362D01*
X787243Y166103D01*
X787512Y166000D01*
X787818Y166103D01*
X788087Y166413D01*
X788240Y166878D01*
X788278Y167395D01*
X788202Y168067D01*
X788087Y168428D01*
X787895Y168790D01*
X787627Y169048D01*
X787358Y169100D01*
X787090Y168997D01*
X786898Y168738D01*
G01X805617Y195100D02*
Y192000D01*
X804083D01*
G01X801750D02*
Y195100D01*
X802210Y194480D01*
G01Y192000D02*
X801290D01*
G01X799378Y194583D02*
X799148Y194893D01*
X798880Y195048D01*
X798573Y195100D01*
X798190Y194997D01*
X797922Y194738D01*
X797845Y194428D01*
X797883Y194118D01*
X798037Y193860D01*
X798803Y193343D01*
X799148Y192982D01*
X799378Y192465D01*
X799455Y192000D01*
X797845D01*
G01X800007Y218842D02*
X800237Y218997D01*
X800505Y219100D01*
X800812D01*
X801157Y218945D01*
X801425Y218687D01*
X801617Y218377D01*
X801770Y217860D01*
X801808Y217395D01*
X801732Y216930D01*
X801617Y216620D01*
X801387Y216310D01*
X801118Y216103D01*
X800850Y216000D01*
X800582D01*
X800313Y216103D01*
X800083Y216258D01*
X799892Y216465D01*
G01X797750Y216000D02*
Y219100D01*
X798210Y218480D01*
G01Y216000D02*
X797290D01*
G01X794650D02*
Y219100D01*
X795110Y218480D01*
G01Y216000D02*
X794190D01*
G01X791090D02*
Y219100D01*
X792508Y216878D01*
X790592D01*
G01X849617Y220000D02*
Y223100D01*
X848658D01*
X848352Y222945D01*
X848160Y222738D01*
X848083Y222325D01*
X848160Y221912D01*
X848390Y221653D01*
X848658Y221498D01*
X849617D01*
G01X848658D02*
X848083Y220000D01*
G01X845750D02*
Y223100D01*
X846210Y222480D01*
G01Y220000D02*
X845290D01*
G01X842650D02*
Y223100D01*
X843110Y222480D01*
G01Y220000D02*
X842190D01*
G01X839627D02*
X839550Y220672D01*
X839435Y221240D01*
X839282Y221757D01*
X839090Y222325D01*
X838783Y223100D01*
X840317D01*
G01X885693Y119100D02*
Y116878D01*
X885540Y116413D01*
X885233Y116103D01*
X884850Y116000D01*
X884467Y116103D01*
X884160Y116413D01*
X884007Y116878D01*
Y119100D01*
G01X881290Y116000D02*
Y119100D01*
X882708Y116878D01*
X880792D01*
G01X878650Y119100D02*
X878957Y118997D01*
X879187Y118738D01*
X879340Y118428D01*
X879455Y118015D01*
X879493Y117550D01*
X879455Y117085D01*
X879340Y116672D01*
X879187Y116362D01*
X878957Y116103D01*
X878650Y116000D01*
X878343Y116103D01*
X878113Y116362D01*
X877960Y116672D01*
X877845Y117085D01*
X877807Y117550D01*
X877845Y118015D01*
X877960Y118428D01*
X878113Y118738D01*
X878343Y118997D01*
X878650Y119100D01*
G01X955617Y108000D02*
Y111100D01*
X954658D01*
X954352Y110945D01*
X954160Y110738D01*
X954083Y110325D01*
X954160Y109912D01*
X954390Y109653D01*
X954658Y109498D01*
X955617D01*
G01X954658D02*
X954083Y108000D01*
G01X951750D02*
Y111100D01*
X952210Y110480D01*
G01Y108000D02*
X951290D01*
G01X948190D02*
Y111100D01*
X949608Y108878D01*
X947692D01*
G01X945550Y108000D02*
X945282Y108052D01*
X944975Y108207D01*
X944783Y108465D01*
X944707Y108827D01*
X944783Y109188D01*
X945013Y109498D01*
X945358Y109653D01*
X945742D01*
X945972Y109757D01*
X946163Y110015D01*
X946240Y110377D01*
X946125Y110738D01*
X945857Y110997D01*
X945550Y111100D01*
X945243Y110997D01*
X944975Y110738D01*
X944860Y110377D01*
X944937Y110015D01*
X945128Y109757D01*
X945358Y109653D01*
X945742D01*
X946087Y109498D01*
X946317Y109188D01*
X946393Y108827D01*
X946317Y108465D01*
X946125Y108207D01*
X945818Y108052D01*
X945550Y108000D01*
G01X955617Y138000D02*
Y141100D01*
X954658D01*
X954352Y140945D01*
X954160Y140738D01*
X954083Y140325D01*
X954160Y139912D01*
X954390Y139653D01*
X954658Y139498D01*
X955617D01*
G01X954658D02*
X954083Y138000D01*
G01X951750D02*
Y141100D01*
X952210Y140480D01*
G01Y138000D02*
X951290D01*
G01X948190D02*
Y141100D01*
X949608Y138878D01*
X947692D01*
G01X945627Y138000D02*
X945550Y138672D01*
X945435Y139240D01*
X945282Y139757D01*
X945090Y140325D01*
X944783Y141100D01*
X946317D01*
G01X955617Y168000D02*
Y171100D01*
X954658D01*
X954352Y170945D01*
X954160Y170738D01*
X954083Y170325D01*
X954160Y169912D01*
X954390Y169653D01*
X954658Y169498D01*
X955617D01*
G01X954658D02*
X954083Y168000D01*
G01X951750D02*
Y171100D01*
X952210Y170480D01*
G01Y168000D02*
X951290D01*
G01X948190D02*
Y171100D01*
X949608Y168878D01*
X947692D01*
G01X946278Y169292D02*
X946010Y169653D01*
X945780Y169860D01*
X945473Y169963D01*
X945205Y169860D01*
X945013Y169653D01*
X944860Y169343D01*
X944822Y168982D01*
X944860Y168672D01*
X945013Y168362D01*
X945243Y168103D01*
X945512Y168000D01*
X945818Y168103D01*
X946087Y168413D01*
X946240Y168878D01*
X946278Y169395D01*
X946202Y170067D01*
X946087Y170428D01*
X945895Y170790D01*
X945627Y171048D01*
X945358Y171100D01*
X945090Y170997D01*
X944898Y170738D01*
G01X955617Y198000D02*
Y201100D01*
X954658D01*
X954352Y200945D01*
X954160Y200738D01*
X954083Y200325D01*
X954160Y199912D01*
X954390Y199653D01*
X954658Y199498D01*
X955617D01*
G01X954658D02*
X954083Y198000D01*
G01X951750D02*
Y201100D01*
X952210Y200480D01*
G01Y198000D02*
X951290D01*
G01X949493Y198465D02*
X949263Y198207D01*
X948995Y198052D01*
X948650Y198000D01*
X948305Y198103D01*
X948037Y198310D01*
X947845Y198672D01*
X947807Y199085D01*
X947883Y199498D01*
X948075Y199757D01*
X948343Y199963D01*
X948612Y200015D01*
X948880Y199963D01*
X949225Y199757D01*
X949110Y201100D01*
X948075D01*
G01X946393Y198620D02*
X946163Y198258D01*
X945857Y198052D01*
X945512Y198000D01*
X945205Y198052D01*
X944898Y198310D01*
X944707Y198620D01*
X944668Y198930D01*
X944745Y199292D01*
X945013Y199550D01*
X945282Y199653D01*
X945627D01*
G01X945282D02*
X945052Y199808D01*
X944860Y200067D01*
X944783Y200377D01*
X944860Y200687D01*
X945052Y200945D01*
X945397Y201100D01*
X945742Y201048D01*
X946087Y200842D01*
G01X955617Y228000D02*
Y231100D01*
X954658D01*
X954352Y230945D01*
X954160Y230738D01*
X954083Y230325D01*
X954160Y229912D01*
X954390Y229653D01*
X954658Y229498D01*
X955617D01*
G01X954658D02*
X954083Y228000D01*
G01X951750D02*
Y231100D01*
X952210Y230480D01*
G01Y228000D02*
X951290D01*
G01X949493Y228465D02*
X949263Y228207D01*
X948995Y228052D01*
X948650Y228000D01*
X948305Y228103D01*
X948037Y228310D01*
X947845Y228672D01*
X947807Y229085D01*
X947883Y229498D01*
X948075Y229757D01*
X948343Y229963D01*
X948612Y230015D01*
X948880Y229963D01*
X949225Y229757D01*
X949110Y231100D01*
X948075D01*
G01X946278Y230583D02*
X946048Y230893D01*
X945780Y231048D01*
X945473Y231100D01*
X945090Y230997D01*
X944822Y230738D01*
X944745Y230428D01*
X944783Y230118D01*
X944937Y229860D01*
X945703Y229343D01*
X946048Y228982D01*
X946278Y228465D01*
X946355Y228000D01*
X944745D01*
G01X955617Y258000D02*
Y261100D01*
X954658D01*
X954352Y260945D01*
X954160Y260738D01*
X954083Y260325D01*
X954160Y259912D01*
X954390Y259653D01*
X954658Y259498D01*
X955617D01*
G01X954658D02*
X954083Y258000D01*
G01X951750D02*
Y261100D01*
X952210Y260480D01*
G01Y258000D02*
X951290D01*
G01X949493Y258465D02*
X949263Y258207D01*
X948995Y258052D01*
X948650Y258000D01*
X948305Y258103D01*
X948037Y258310D01*
X947845Y258672D01*
X947807Y259085D01*
X947883Y259498D01*
X948075Y259757D01*
X948343Y259963D01*
X948612Y260015D01*
X948880Y259963D01*
X949225Y259757D01*
X949110Y261100D01*
X948075D01*
G01X945550Y258000D02*
Y261100D01*
X946010Y260480D01*
G01Y258000D02*
X945090D01*
G01X955617Y288000D02*
Y291100D01*
X954658D01*
X954352Y290945D01*
X954160Y290738D01*
X954083Y290325D01*
X954160Y289912D01*
X954390Y289653D01*
X954658Y289498D01*
X955617D01*
G01X954658D02*
X954083Y288000D01*
G01X951750D02*
Y291100D01*
X952210Y290480D01*
G01Y288000D02*
X951290D01*
G01X949493Y288465D02*
X949263Y288207D01*
X948995Y288052D01*
X948650Y288000D01*
X948305Y288103D01*
X948037Y288310D01*
X947845Y288672D01*
X947807Y289085D01*
X947883Y289498D01*
X948075Y289757D01*
X948343Y289963D01*
X948612Y290015D01*
X948880Y289963D01*
X949225Y289757D01*
X949110Y291100D01*
X948075D01*
G01X945550D02*
X945857Y290997D01*
X946087Y290738D01*
X946240Y290428D01*
X946355Y290015D01*
X946393Y289550D01*
X946355Y289085D01*
X946240Y288672D01*
X946087Y288362D01*
X945857Y288103D01*
X945550Y288000D01*
X945243Y288103D01*
X945013Y288362D01*
X944860Y288672D01*
X944745Y289085D01*
X944707Y289550D01*
X944745Y290015D01*
X944860Y290428D01*
X945013Y290738D01*
X945243Y290997D01*
X945550Y291100D01*
G01X983617Y62000D02*
Y65100D01*
X982658D01*
X982352Y64945D01*
X982160Y64738D01*
X982083Y64325D01*
X982160Y63912D01*
X982390Y63653D01*
X982658Y63498D01*
X983617D01*
G01X982658D02*
X982083Y62000D01*
G01X979750D02*
Y65100D01*
X980210Y64480D01*
G01Y62000D02*
X979290D01*
G01X976190D02*
Y65100D01*
X977608Y62878D01*
X975692D01*
G01X974202Y62362D02*
X973933Y62103D01*
X973627Y62000D01*
X973320Y62103D01*
X973052Y62413D01*
X972860Y62878D01*
X972783Y63343D01*
Y63912D01*
X972860Y64377D01*
X973052Y64790D01*
X973282Y64997D01*
X973550Y65100D01*
X973857Y64997D01*
X974087Y64790D01*
X974240Y64480D01*
X974317Y64067D01*
X974240Y63705D01*
X974048Y63343D01*
X973818Y63137D01*
X973550Y63085D01*
X973243Y63188D01*
X973013Y63447D01*
X972783Y63912D01*
G54D11*
G01X321227Y324433D02*
G02I-492J0D01*
G01X441004Y-23425D02*
G02I-492J0D01*
G01X438543Y-17992D02*
G02I-492J0D01*
G01X630470Y193591D02*
G02I-492J0D01*
G01X636474Y196642D02*
G02I-492J0D01*
G54D12*
G01X319357Y324728D02*
Y328272D01*
G01X326443Y324728D02*
Y328272D01*
G01X439232Y-19173D02*
X430768D01*
Y-20827D01*
X439232D01*
Y-19173D01*
G01X634801Y195461D02*
Y215539D01*
X647399D01*
Y195461D01*
X634801D01*
G01X955564Y55898D02*
G03I-47867J0D01*
G01X927618Y99953D02*
X927421D01*
Y119913D01*
X887933D01*
Y99559D01*
X887697D01*
G01X919508Y117827D02*
X919311D01*
Y110346D01*
G01X923248Y113260D02*
X915571D01*
Y112866D01*
G54D13*
G01X194000Y-61000D02*
Y-64000D01*
X202000D01*
Y-61000D01*
G01X194000Y-51000D02*
Y-48000D01*
X202000D01*
Y-51000D01*
G01X255000Y129000D02*
X252000D01*
Y121000D01*
X255000D01*
G01X251000Y140000D02*
Y137000D01*
X259000D01*
Y140000D01*
G01X251000Y150000D02*
Y153000D01*
X259000D01*
Y150000D01*
G01X255000Y309000D02*
X252000D01*
Y301000D01*
X255000D01*
G01Y319000D02*
X252000D01*
Y311000D01*
X255000D01*
G01X279000Y110000D02*
Y107000D01*
X271000D01*
Y110000D01*
G01X279000Y120000D02*
Y123000D01*
X271000D01*
Y120000D01*
G01X265000Y129000D02*
X268000D01*
Y121000D01*
X265000D01*
G01X279000Y130000D02*
Y127000D01*
X271000D01*
Y130000D01*
G01X279000Y140000D02*
Y143000D01*
X271000D01*
Y140000D01*
G01X279000Y295000D02*
Y298000D01*
X271000D01*
Y295000D01*
G01X279000Y285000D02*
Y282000D01*
X271000D01*
Y285000D01*
G01X265000Y309000D02*
X268000D01*
Y301000D01*
X265000D01*
G01Y319000D02*
X268000D01*
Y311000D01*
X265000D01*
G01X279000Y315000D02*
Y318000D01*
X271000D01*
Y315000D01*
G01X279000Y305000D02*
Y302000D01*
X271000D01*
Y305000D01*
G01X316400Y331500D02*
Y334500D01*
X308400D01*
Y331500D01*
G01X316400Y321500D02*
Y318500D01*
X308400D01*
Y321500D01*
G01X323000Y92000D02*
X320000D01*
Y84000D01*
X323000D01*
G01X333000Y92000D02*
X336000D01*
Y84000D01*
X333000D01*
G01X349000Y-61000D02*
Y-64000D01*
X357000D01*
Y-61000D01*
G01X349000Y-51000D02*
Y-48000D01*
X357000D01*
Y-51000D01*
G01X429000Y-40000D02*
Y-37000D01*
X421000D01*
Y-40000D01*
G01X429000Y-50000D02*
Y-53000D01*
X421000D01*
Y-50000D01*
G01X408000Y-45000D02*
X405000D01*
Y-53000D01*
X408000D01*
G01X418000Y-45000D02*
X421000D01*
Y-53000D01*
X418000D01*
G01X409500Y75500D02*
Y72500D01*
X417500D01*
Y75500D01*
G01X409500Y85500D02*
Y88500D01*
X417500D01*
Y85500D01*
G01X410000Y272000D02*
X407000D01*
Y264000D01*
X410000D01*
G01X420000Y272000D02*
X423000D01*
Y264000D01*
X420000D01*
G01X437000Y-40000D02*
Y-37000D01*
X429000D01*
Y-40000D01*
G01X437000Y-50000D02*
Y-53000D01*
X429000D01*
Y-50000D01*
G01X445000Y-40000D02*
Y-37000D01*
X437000D01*
Y-40000D01*
G01X445000Y-50000D02*
Y-53000D01*
X437000D01*
Y-50000D01*
G01X453000Y-40000D02*
Y-37000D01*
X445000D01*
Y-40000D01*
G01X453000Y-50000D02*
Y-53000D01*
X445000D01*
Y-50000D01*
G01X457000Y-53000D02*
X454000D01*
Y-45000D01*
X457000D01*
G01X455000Y272000D02*
X452000D01*
Y264000D01*
X455000D01*
G01X467000Y-53000D02*
X470000D01*
Y-45000D01*
X467000D01*
G01X478500Y-4500D02*
X475500D01*
Y3500D01*
X478500D01*
G01Y11500D02*
X475500D01*
Y3500D01*
X478500D01*
G01X478000Y229000D02*
X475000D01*
Y221000D01*
X478000D01*
G01X465000Y272000D02*
X468000D01*
Y264000D01*
X465000D01*
G01X488500Y-4500D02*
X491500D01*
Y3500D01*
X488500D01*
G01X503000Y20000D02*
Y17000D01*
X511000D01*
Y20000D01*
G01X488500Y11500D02*
X491500D01*
Y3500D01*
X488500D01*
G01X503000Y30000D02*
Y33000D01*
X511000D01*
Y30000D01*
G01X503000Y37000D02*
Y34000D01*
X511000D01*
Y37000D01*
G01X503000Y47000D02*
Y50000D01*
X511000D01*
Y47000D01*
G01X489000Y168000D02*
Y165000D01*
X497000D01*
Y168000D01*
G01D02*
Y165000D01*
X505000D01*
Y168000D01*
G01X489000Y178000D02*
Y181000D01*
X497000D01*
Y178000D01*
G01D02*
Y181000D01*
X505000D01*
Y178000D01*
G01X496000Y195000D02*
Y192000D01*
X504000D01*
Y195000D01*
G01X496000Y205000D02*
Y208000D01*
X504000D01*
Y205000D01*
G01Y195000D02*
Y192000D01*
X512000D01*
Y195000D01*
G01X504000Y205000D02*
Y208000D01*
X512000D01*
Y205000D01*
G01X488000Y229000D02*
X491000D01*
Y221000D01*
X488000D01*
G01X569000Y20000D02*
Y17000D01*
X577000D01*
Y20000D01*
G01X569000Y30000D02*
Y33000D01*
X577000D01*
Y30000D01*
G01X569000Y37000D02*
Y34000D01*
X577000D01*
Y37000D01*
G01X569000Y47000D02*
Y50000D01*
X577000D01*
Y47000D01*
G01X552000Y214000D02*
X549000D01*
Y206000D01*
X552000D01*
G01X562000Y214000D02*
X565000D01*
Y206000D01*
X562000D01*
G01X552000D02*
X549000D01*
Y198000D01*
X552000D01*
G01X562000Y206000D02*
X565000D01*
Y198000D01*
X562000D01*
G01X634000Y20000D02*
Y17000D01*
X642000D01*
Y20000D01*
G01X634000Y30000D02*
Y33000D01*
X642000D01*
Y30000D01*
G01X634000Y37000D02*
Y34000D01*
X642000D01*
Y37000D01*
G01X634000Y47000D02*
Y50000D01*
X642000D01*
Y47000D01*
G01X653000Y234000D02*
X650000D01*
Y226000D01*
X653000D01*
G01D02*
X650000D01*
Y218000D01*
X653000D01*
G01Y258000D02*
X650000D01*
Y250000D01*
X653000D01*
G01D02*
X650000D01*
Y242000D01*
X653000D01*
G01D02*
X650000D01*
Y234000D01*
X653000D01*
G01Y266000D02*
X650000D01*
Y258000D01*
X653000D01*
G01X663000Y234000D02*
X666000D01*
Y226000D01*
X663000D01*
G01D02*
X666000D01*
Y218000D01*
X663000D01*
G01Y258000D02*
X666000D01*
Y250000D01*
X663000D01*
G01D02*
X666000D01*
Y242000D01*
X663000D01*
G01D02*
X666000D01*
Y234000D01*
X663000D01*
G01Y266000D02*
X666000D01*
Y258000D01*
X663000D01*
G01X699000Y19000D02*
Y16000D01*
X707000D01*
Y19000D01*
G01X699000Y29000D02*
Y32000D01*
X707000D01*
Y29000D01*
G01X699000Y36000D02*
Y33000D01*
X707000D01*
Y36000D01*
G01X699000Y46000D02*
Y49000D01*
X707000D01*
Y46000D01*
G01X737000Y178000D02*
X734000D01*
Y170000D01*
X737000D01*
G01X729000D02*
X726000D01*
Y162000D01*
X729000D01*
G01Y186000D02*
X726000D01*
Y178000D01*
X729000D01*
G01Y194000D02*
X726000D01*
Y186000D01*
X729000D01*
G01X747000Y178000D02*
X750000D01*
Y170000D01*
X747000D01*
G01X739000D02*
X742000D01*
Y162000D01*
X739000D01*
G01X759100Y173000D02*
Y170000D01*
X751100D01*
Y173000D01*
G01X746100Y170000D02*
X743100D01*
Y162000D01*
X746100D01*
G01X756100Y170000D02*
X759100D01*
Y162000D01*
X756100D01*
G01X739000Y186000D02*
X742000D01*
Y178000D01*
X739000D01*
G01Y194000D02*
X742000D01*
Y186000D01*
X739000D01*
G01X759100Y183000D02*
Y186000D01*
X751100D01*
Y183000D01*
G01X777000Y189500D02*
X774000D01*
Y197500D01*
X777000D01*
G01X780500Y210500D02*
Y213500D01*
X772500D01*
Y210500D01*
G01X780500Y200500D02*
Y197500D01*
X772500D01*
Y200500D01*
G01X787000Y189500D02*
X790000D01*
Y197500D01*
X787000D01*
G01X782000Y176500D02*
Y173500D01*
X790000D01*
Y176500D01*
G01X782000Y186500D02*
Y189500D01*
X790000D01*
Y186500D01*
G01X788500Y210500D02*
Y213500D01*
X780500D01*
Y210500D01*
G01X788500Y200500D02*
Y197500D01*
X780500D01*
Y200500D01*
G01X844000Y209000D02*
Y212000D01*
X836000D01*
Y209000D01*
G01X844000Y199000D02*
Y196000D01*
X836000D01*
Y199000D01*
G01X970000Y84000D02*
X967000D01*
Y76000D01*
X970000D01*
G01Y114000D02*
X967000D01*
Y106000D01*
X970000D01*
G01Y144000D02*
X967000D01*
Y136000D01*
X970000D01*
G01Y174000D02*
X967000D01*
Y166000D01*
X970000D01*
G01Y204000D02*
X967000D01*
Y196000D01*
X970000D01*
G01Y234000D02*
X967000D01*
Y226000D01*
X970000D01*
G01Y264000D02*
X967000D01*
Y256000D01*
X970000D01*
G01Y294000D02*
X967000D01*
Y286000D01*
X970000D01*
G01X980000Y84000D02*
X983000D01*
Y76000D01*
X980000D01*
G01Y114000D02*
X983000D01*
Y106000D01*
X980000D01*
G01Y144000D02*
X983000D01*
Y136000D01*
X980000D01*
G01Y174000D02*
X983000D01*
Y166000D01*
X980000D01*
G01Y204000D02*
X983000D01*
Y196000D01*
X980000D01*
G01Y234000D02*
X983000D01*
Y226000D01*
X980000D01*
G01Y264000D02*
X983000D01*
Y256000D01*
X980000D01*
G01Y294000D02*
X983000D01*
Y286000D01*
X980000D01*
M02*
