G04 ================== begin FILE IDENTIFICATION RECORD ==================*
G04 Layout Name:  G:/lwj/My project/PCB/tunnel lighting/allegro/tunnel lighting2.brd*
G04 Film Name:    SOLDERMASK_TOP*
G04 File Format:  Gerber RS274X*
G04 File Origin:  Cadence Allegro 16.5-P002*
G04 Origin Date:  Sat Oct 27 20:26:59 2012*
G04 *
G04 Layer:  VIA CLASS/SOLDERMASK_TOP*
G04 Layer:  PIN/SOLDERMASK_TOP*
G04 Layer:  PACKAGE GEOMETRY/SOLDERMASK_TOP*
G04 Layer:  BOARD GEOMETRY/OUTLINE*
G04 Layer:  BOARD GEOMETRY/SOLDERMASK_TOP*
G04 *
G04 Offset:    (0.000 0.000)*
G04 Mirror:    No*
G04 Mode:      Positive*
G04 Rotation:  0*
G04 FullContactRelief:  No*
G04 UndefLineWidth:     0.000*
G04 ================== end FILE IDENTIFICATION RECORD ====================*
%FSLAX25Y25*MOIN*%
%IR0*IPPOS*OFA0.00000B0.00000*MIA0B0*SFA1.00000B1.00000*%
%AMMACRO29*
4,1,44,.057091,-.028539,
.057091,.028539,
.057032,.029223,
.056854,.029886,
.056565,.030509,
.056171,.031071,
.055686,.031557,
.055124,.031951,
.054502,.032242,
.053839,.03242,
.053155,.03248,
.05315,.03248,
-.05315,.03248,
-.053834,.032421,
-.054497,.032243,
-.05512,.031954,
-.055682,.03156,
-.056168,.031075,
-.056562,.030513,
-.056853,.029891,
-.057031,.029228,
-.057091,.028544,
-.057091,.028539,
-.057091,-.028539,
-.057032,-.029223,
-.056854,-.029886,
-.056565,-.030509,
-.056171,-.031071,
-.055686,-.031557,
-.055124,-.031951,
-.054502,-.032242,
-.053839,-.03242,
-.053155,-.03248,
-.05315,-.03248,
.05315,-.03248,
.053834,-.032421,
.054497,-.032243,
.05512,-.031954,
.055682,-.03156,
.056168,-.031075,
.056562,-.030513,
.056853,-.029891,
.057031,-.029228,
.057091,-.028544,
.057091,-.028539,
0.0*
%
%ADD29MACRO29*%
%ADD31C,.132*%
%ADD17C,.154*%
%ADD10C,.145*%
%ADD15C,.141732*%
%ADD35O,.068504X.102362*%
%ADD16R,.141732X.141732*%
%ADD39R,.14X.14*%
%ADD44R,.064X.044*%
%ADD38R,.015X.039*%
%ADD37R,.039X.015*%
%ADD25R,.044X.064*%
%ADD18C,.07*%
%ADD30C,.062*%
%ADD52C,.065*%
%ADD40R,.059X.084*%
%ADD34C,.077*%
%ADD21R,.07X.07*%
%ADD33C,.069*%
%ADD32C,.088*%
%ADD43C,.035433*%
%ADD13C,.090551*%
%ADD42R,.069X.069*%
%ADD51O,.021654X.072835*%
%ADD49O,.093307X.03189*%
%ADD46O,.018504X.072835*%
%ADD50O,.072835X.021654*%
%ADD47O,.03189X.093307*%
%ADD45O,.072835X.018504*%
%ADD14R,.090551X.090551*%
%ADD26C,.062992*%
%ADD53O,.031496X.093307*%
%ADD41O,.059055X.031496*%
%ADD11C,.082677*%
%ADD36O,.031496X.059055*%
%ADD20R,.029528X.090551*%
%ADD48O,.076772X.03189*%
%ADD19R,.055118X.062992*%
%ADD28R,.062992X.062992*%
%AMMACRO24*
4,1,44,-.210039,-.20276,
.210039,-.20276,
.210723,-.2027,
.211387,-.202523,
.212009,-.202233,
.212572,-.201839,
.213057,-.201354,
.213451,-.200791,
.213742,-.200169,
.21392,-.199506,
.21398,-.198822,
.21398,-.198819,
.21398,.198819,
.21392,.199503,
.213743,.200167,
.213453,.200789,
.213059,.201352,
.212574,.201837,
.212011,.202231,
.211389,.202522,
.210726,.2027,
.210042,.20276,
.210039,.20276,
-.210039,.20276,
-.210723,.2027,
-.211387,.202523,
-.212009,.202233,
-.212572,.201839,
-.213057,.201354,
-.213451,.200791,
-.213742,.200169,
-.21392,.199506,
-.21398,.198822,
-.21398,.198819,
-.21398,-.198819,
-.21392,-.199503,
-.213743,-.200167,
-.213453,-.200789,
-.213059,-.201352,
-.212574,-.201837,
-.212011,-.202231,
-.211389,-.202522,
-.210726,-.2027,
-.210042,-.20276,
-.210039,-.20276,
0.0*
%
%ADD24MACRO24*%
%ADD22R,.062992X.055118*%
%AMMACRO23*
4,1,44,.037402,-.020669,
.037402,.020669,
.037343,.021353,
.037165,.022016,
.036876,.022639,
.036482,.023201,
.035997,.023687,
.035435,.024081,
.034813,.024372,
.03415,.02455,
.033466,.02461,
.033461,.02461,
-.033461,.02461,
-.034145,.024551,
-.034808,.024373,
-.035431,.024084,
-.035993,.02369,
-.036479,.023205,
-.036873,.022643,
-.037164,.022021,
-.037342,.021358,
-.037402,.020674,
-.037402,.020669,
-.037402,-.020669,
-.037343,-.021353,
-.037165,-.022016,
-.036876,-.022639,
-.036482,-.023201,
-.035997,-.023687,
-.035435,-.024081,
-.034813,-.024372,
-.03415,-.02455,
-.033466,-.02461,
-.033461,-.02461,
.033461,-.02461,
.034145,-.024551,
.034808,-.024373,
.035431,-.024084,
.035993,-.02369,
.036479,-.023205,
.036873,-.022643,
.037164,-.022021,
.037342,-.021358,
.037402,-.020674,
.037402,-.020669,
0.0*
%
%ADD23MACRO23*%
%ADD12R,.082677X.082677*%
%AMMACRO27*
4,1,44,-.017909,-.070669,
.017909,-.070669,
.018593,-.07061,
.019256,-.070433,
.019878,-.070144,
.020441,-.069751,
.020926,-.069266,
.02132,-.068704,
.021611,-.068083,
.021789,-.06742,
.02185,-.066736,
.02185,-.066728,
.02185,.066728,
.021791,.067412,
.021614,.068075,
.021325,.068697,
.020932,.06926,
.020447,.069745,
.019885,.070139,
.019264,.07043,
.018601,.070608,
.017917,.070669,
.017909,.070669,
-.017909,.070669,
-.018593,.07061,
-.019256,.070433,
-.019878,.070144,
-.020441,.069751,
-.020926,.069266,
-.02132,.068704,
-.021611,.068083,
-.021789,.06742,
-.02185,.066736,
-.02185,.066728,
-.02185,-.066728,
-.021791,-.067412,
-.021614,-.068075,
-.021325,-.068697,
-.020932,-.06926,
-.020447,-.069745,
-.019885,-.070139,
-.019264,-.07043,
-.018601,-.070608,
-.017917,-.070669,
-.017909,-.070669,
0.0*
%
%ADD27MACRO27*%
%LPD*%
G75*
G54D10*
X55000Y-55000D03*
Y405000D03*
X338800Y409200D03*
X500000Y-55000D03*
X990000D03*
Y405000D03*
G54D20*
X147500Y-449D03*
X142500D03*
X137500D03*
X132500D03*
Y18449D03*
X137500D03*
X142500D03*
X147500D03*
X167500Y-449D03*
X162500D03*
X157500D03*
X152500D03*
Y18449D03*
X157500D03*
X162500D03*
X167500D03*
X295500Y-1449D03*
X290500D03*
X285500D03*
Y17449D03*
X290500D03*
X295500D03*
X315500Y-1449D03*
X310500D03*
X305500D03*
X300500D03*
Y17449D03*
X305500D03*
X310500D03*
X315500D03*
X320500Y-1449D03*
Y17449D03*
G54D11*
X52548Y10372D03*
X429528Y405748D03*
X479528D03*
X530472Y-55748D03*
X529528Y405748D03*
X579528D03*
X595472Y-55748D03*
X629528Y405748D03*
X660472Y-55748D03*
X719528Y405748D03*
X725472Y-55748D03*
X779528Y405748D03*
X809528Y-54252D03*
X839528Y405748D03*
X859528Y-54252D03*
X899528Y405748D03*
X914528Y-54252D03*
X964528D03*
X959528Y405748D03*
G54D12*
X52548Y30057D03*
X409843Y405748D03*
X459843D03*
X509843D03*
X550158Y-55748D03*
X559843Y405748D03*
X615158Y-55748D03*
X609843Y405748D03*
X680158Y-55748D03*
X699842Y405748D03*
X745158Y-55748D03*
X759843Y405748D03*
X789842Y-54252D03*
X819842Y405748D03*
X839842Y-54252D03*
X879842Y405748D03*
X894842Y-54252D03*
X944842D03*
X939842Y405748D03*
G54D21*
X170000Y-30000D03*
X325000D03*
G54D30*
X401220Y251140D03*
Y268860D03*
X428780Y251140D03*
Y268860D03*
X446220Y251140D03*
Y268860D03*
X473780Y251140D03*
Y268860D03*
X961220Y88860D03*
Y71140D03*
Y101140D03*
Y118860D03*
Y148860D03*
Y131140D03*
Y161140D03*
Y178860D03*
Y191140D03*
Y208860D03*
X961320Y221240D03*
X961220Y251140D03*
X961320Y238960D03*
X961220Y268860D03*
Y298860D03*
Y281140D03*
X988780Y71140D03*
Y88860D03*
Y101140D03*
Y118860D03*
Y131140D03*
Y148860D03*
Y161140D03*
Y178860D03*
Y191140D03*
Y208860D03*
X988880Y221240D03*
X988780Y251140D03*
X988880Y238960D03*
X988780Y268860D03*
Y281140D03*
Y298860D03*
G54D22*
X335000Y128740D03*
Y121260D03*
X325000Y151260D03*
Y158740D03*
X403000Y52260D03*
Y59740D03*
X395000Y380260D03*
Y396260D03*
Y387740D03*
Y403740D03*
X413500Y84260D03*
X422500Y89760D03*
Y97240D03*
X413500Y91740D03*
X420000Y126260D03*
Y133740D03*
X431000Y89760D03*
Y97240D03*
X440000Y90260D03*
Y97740D03*
X439000Y198260D03*
Y205740D03*
X445000Y381260D03*
Y397260D03*
Y388740D03*
Y404740D03*
X448000Y90260D03*
Y97740D03*
X456000D03*
Y90260D03*
X464000Y144260D03*
Y151740D03*
X472000Y144260D03*
Y151740D03*
X484000Y236260D03*
Y243740D03*
X507000Y13260D03*
Y20740D03*
Y30260D03*
Y37740D03*
X495000Y381260D03*
Y397260D03*
Y388740D03*
Y404740D03*
X516000Y236260D03*
Y243740D03*
X545000Y-18740D03*
Y-11260D03*
X550000Y66260D03*
X540000D03*
X530000D03*
X550000Y73740D03*
X540000D03*
X530000D03*
X545000Y381260D03*
Y397260D03*
Y388740D03*
Y404740D03*
X555000Y-18740D03*
Y-11260D03*
X573000Y13260D03*
Y20740D03*
Y29260D03*
Y36740D03*
X588000Y164260D03*
Y171740D03*
Y186260D03*
Y193740D03*
X610000Y-18740D03*
Y-11260D03*
X605000Y66260D03*
X595000D03*
X605000Y73740D03*
X595000D03*
X596000Y164260D03*
Y171740D03*
Y186260D03*
Y193740D03*
X610000Y254740D03*
Y247260D03*
X602000Y254740D03*
Y247260D03*
X595000Y381260D03*
Y397260D03*
Y388740D03*
Y404740D03*
X620000Y-18740D03*
Y-11260D03*
X615000Y66260D03*
Y73740D03*
X638000Y13260D03*
Y20740D03*
Y30260D03*
Y37740D03*
X675000Y-18740D03*
Y-11260D03*
X670000Y66260D03*
X660000D03*
X670000Y73740D03*
X660000D03*
X685000Y-18740D03*
Y-11260D03*
X680000Y66260D03*
Y73740D03*
X689000Y363260D03*
Y370740D03*
X681000Y363260D03*
Y370740D03*
X703000Y12260D03*
Y19740D03*
Y29260D03*
Y36740D03*
X735000Y66260D03*
X725000D03*
X735000Y73740D03*
X725000D03*
X734000Y255740D03*
Y248260D03*
X750000Y-18740D03*
X740000D03*
X750000Y-11260D03*
X740000D03*
X745000Y66260D03*
Y73740D03*
X749000Y363260D03*
Y370740D03*
X741000Y363260D03*
Y370740D03*
X790000Y-28740D03*
Y-21260D03*
X801000Y363260D03*
Y370740D03*
X809000Y363260D03*
Y370740D03*
X840000Y-28740D03*
Y-21260D03*
X861000Y363260D03*
Y370740D03*
X869000Y363260D03*
Y370740D03*
X895000Y-28740D03*
Y-21260D03*
X921000Y363260D03*
Y370740D03*
X945000Y-28740D03*
Y-21260D03*
X929000Y363260D03*
Y370740D03*
X1001000Y16740D03*
Y9260D03*
Y26260D03*
Y33740D03*
G54D13*
X50000Y210000D03*
Y230000D03*
G54D40*
X445000Y111693D03*
Y128307D03*
X465000Y111693D03*
Y128307D03*
G54D31*
X415000Y-30000D03*
X460000D03*
G54D23*
X335000Y149390D03*
Y160610D03*
X345000Y119390D03*
Y130610D03*
G54D41*
X426516Y375000D03*
X433484Y378740D03*
Y371260D03*
X476516Y375000D03*
X483484Y378740D03*
Y371260D03*
X521516Y-30000D03*
X528484Y-26260D03*
Y-33740D03*
X526516Y375000D03*
X533484Y378740D03*
Y371260D03*
X586516Y-30000D03*
X576516Y375000D03*
X583484Y378740D03*
Y371260D03*
X593484Y-26260D03*
Y-33740D03*
X626516Y375000D03*
X633484Y378740D03*
Y371260D03*
X651516Y-30000D03*
X658484Y-26260D03*
Y-33740D03*
X716516Y-30000D03*
X723484Y-26260D03*
Y-33740D03*
G54D14*
X50000Y250000D03*
G54D50*
X719171Y170589D03*
Y168030D03*
Y165471D03*
Y162912D03*
Y160353D03*
Y191061D03*
Y188502D03*
Y185943D03*
Y183384D03*
Y180825D03*
Y178266D03*
Y175707D03*
Y173148D03*
Y211534D03*
Y208975D03*
Y206416D03*
Y203857D03*
Y201298D03*
Y198739D03*
Y196180D03*
Y193620D03*
Y229447D03*
Y226888D03*
Y224329D03*
Y221770D03*
Y219211D03*
Y216652D03*
Y214093D03*
X803029Y160353D03*
Y162912D03*
Y165471D03*
Y168030D03*
Y170589D03*
Y173148D03*
Y175707D03*
Y178266D03*
Y180825D03*
Y183384D03*
Y185943D03*
Y188502D03*
Y191061D03*
Y193620D03*
Y196180D03*
Y198739D03*
Y201298D03*
Y203857D03*
Y206416D03*
Y208975D03*
Y211534D03*
Y214093D03*
Y216652D03*
Y219211D03*
Y221770D03*
Y224329D03*
Y226888D03*
Y229447D03*
G54D32*
X406500Y-18000D03*
X468500D03*
G54D24*
X375000Y158543D03*
G54D51*
X726553Y152971D03*
X729112D03*
X731671D03*
X734230D03*
X736789D03*
Y236829D03*
X734230D03*
X731671D03*
X729112D03*
X726553D03*
X739348Y152971D03*
X741907D03*
X744466D03*
X747025D03*
X749584D03*
X752143D03*
X754702D03*
X757261D03*
Y236829D03*
X754702D03*
X752143D03*
X749584D03*
X747025D03*
X744466D03*
X741907D03*
X739348D03*
X759820Y152971D03*
X762380D03*
X764939D03*
X767498D03*
X770057D03*
X772616D03*
X775175D03*
X777734D03*
Y236829D03*
X775175D03*
X772616D03*
X770057D03*
X767498D03*
X764939D03*
X762380D03*
X759820D03*
X780293Y152971D03*
X782852D03*
X785411D03*
X787970D03*
X790529D03*
X793088D03*
X795647D03*
Y236829D03*
X793088D03*
X790529D03*
X787970D03*
X785411D03*
X782852D03*
X780293D03*
G54D42*
X455000Y5000D03*
G54D33*
X425000D03*
X420000Y-5000D03*
X435000Y5000D03*
X445000D03*
X430000Y-5000D03*
X440000D03*
X450000D03*
G54D15*
X85748Y69685D03*
Y138583D03*
Y259685D03*
Y328583D03*
X298346Y99213D03*
Y197638D03*
Y177953D03*
Y289213D03*
Y367953D03*
Y387638D03*
G54D43*
X450000Y206953D03*
Y201047D03*
G54D34*
X426000Y24000D03*
X416000D03*
X459000D03*
X449000D03*
G54D52*
X833000Y194300D03*
Y213300D03*
G54D25*
X345000Y150000D03*
Y160000D03*
G54D16*
X85748Y207480D03*
Y397480D03*
G54D53*
X859500Y52673D03*
X854500D03*
X849500D03*
Y88327D03*
X854500D03*
X859500D03*
X884500Y52673D03*
X879500D03*
X874500D03*
X869500D03*
X864500D03*
Y88327D03*
X869500D03*
X874500D03*
X879500D03*
X884500D03*
G54D26*
X357402Y233228D03*
Y225354D03*
Y256850D03*
Y248976D03*
Y241102D03*
X365276Y233228D03*
Y256850D03*
Y248976D03*
Y241102D03*
X612300Y113200D03*
Y123200D03*
Y133200D03*
Y143200D03*
X978000Y27000D03*
Y47000D03*
Y37000D03*
X988000Y47000D03*
Y37000D03*
G54D44*
X460000Y235000D03*
X488000Y23000D03*
X478000D03*
X484000Y52000D03*
X470000Y235000D03*
X494000Y52000D03*
X695000Y380000D03*
X705000D03*
X755000D03*
X765000D03*
X815000Y-30000D03*
X805000D03*
X815000Y380000D03*
X825000D03*
X865000Y-30000D03*
X855000D03*
X875000Y380000D03*
X885000D03*
X920000Y-30000D03*
X910000D03*
X935000Y380000D03*
X945000D03*
X970000Y-30000D03*
X960000D03*
X991000Y6000D03*
X981000D03*
G54D35*
X425000Y314055D03*
Y345945D03*
X435000Y314055D03*
Y345945D03*
X485000Y314055D03*
X475000D03*
Y345945D03*
X485000D03*
X525000Y314055D03*
Y345945D03*
X535000Y314055D03*
Y345945D03*
X585000Y314055D03*
X575000D03*
Y345945D03*
X585000D03*
X635000Y314055D03*
X625000D03*
Y345945D03*
X635000D03*
X715000Y334055D03*
X705000D03*
Y365945D03*
X715000D03*
X775000Y334055D03*
X765000D03*
Y365945D03*
X775000D03*
X835000Y334055D03*
X825000D03*
Y365945D03*
X835000D03*
X885000Y334055D03*
Y365945D03*
X895000Y334055D03*
Y365945D03*
X945000Y334055D03*
Y365945D03*
X955000Y334055D03*
Y365945D03*
G54D17*
X99200Y-35600D03*
X197600D03*
X254200D03*
X352600D03*
G54D27*
X381693Y119232D03*
X375000D03*
X368307D03*
X361614D03*
X388386D03*
G54D36*
X410000Y378484D03*
X413740Y371516D03*
X406260D03*
X460000Y378484D03*
X463740Y371516D03*
X456260D03*
X506260D03*
X510000Y378484D03*
X513740Y371516D03*
X560000Y378484D03*
X563740Y371516D03*
X556260D03*
X610000Y378484D03*
X606260Y371516D03*
X613740D03*
G54D45*
X485898Y143751D03*
Y145720D03*
Y147688D03*
Y149657D03*
Y151625D03*
Y153594D03*
Y155562D03*
Y157531D03*
Y159499D03*
Y161468D03*
Y163436D03*
Y165405D03*
Y167373D03*
Y169342D03*
Y171310D03*
Y173279D03*
Y175247D03*
Y177216D03*
Y179184D03*
Y181153D03*
Y183121D03*
Y185090D03*
Y187058D03*
Y189027D03*
Y190995D03*
Y192964D03*
Y194932D03*
Y196901D03*
Y198869D03*
Y200838D03*
Y202806D03*
Y204775D03*
Y206743D03*
Y208712D03*
Y210680D03*
Y212649D03*
X573102Y149657D03*
Y147688D03*
Y145720D03*
Y143751D03*
Y169342D03*
Y167373D03*
Y165405D03*
Y163436D03*
Y161468D03*
Y159499D03*
Y157531D03*
Y155562D03*
Y153594D03*
Y151625D03*
Y190995D03*
Y189027D03*
Y187058D03*
Y185090D03*
Y183121D03*
Y181153D03*
Y179184D03*
Y177216D03*
Y175247D03*
Y173279D03*
Y171310D03*
Y212649D03*
Y210680D03*
Y208712D03*
Y206743D03*
Y204775D03*
Y202806D03*
Y200838D03*
Y198869D03*
Y196901D03*
Y194932D03*
Y192964D03*
G54D18*
X126800Y-30000D03*
X132200Y-41200D03*
X143000D03*
X137600Y-30000D03*
X148400D03*
X153800Y-41200D03*
X164600D03*
X159200Y-30000D03*
X287200Y-41200D03*
X298000D03*
X281800Y-30000D03*
X292600D03*
X308800Y-41200D03*
X319600D03*
X303400Y-30000D03*
X314200D03*
G54D28*
X365276Y225354D03*
X400000Y225000D03*
X430709D03*
X988000Y27000D03*
X1001000Y-30000D03*
Y709D03*
G54D19*
X128260Y29000D03*
Y45000D03*
Y37000D03*
X140740Y-14000D03*
X133260D03*
X149260D03*
X135740Y29000D03*
Y45000D03*
Y37000D03*
X156740Y-14000D03*
X183740Y1000D03*
X176260D03*
X183740Y9000D03*
X176260D03*
X206740D03*
X199260D03*
X206740Y17000D03*
X199260D03*
X222740Y9000D03*
X215260D03*
X222740Y17000D03*
X215260D03*
X266260Y7000D03*
X273740D03*
X287740Y-13000D03*
X280260D03*
X296260D03*
X287740Y29000D03*
X280260D03*
X287740Y37000D03*
X280260D03*
X287740Y45000D03*
X280260D03*
X303740Y-13000D03*
X312260D03*
X338260Y-9000D03*
X319740Y-13000D03*
X338260Y-1000D03*
Y7000D03*
Y15000D03*
X338740Y88000D03*
X331260D03*
X338240Y257000D03*
X330760D03*
Y265000D03*
X338240D03*
X345740Y-9000D03*
Y-1000D03*
X354260Y-9000D03*
Y-1000D03*
X345740Y7000D03*
Y15000D03*
X354260Y7000D03*
Y15000D03*
X361740Y-9000D03*
Y-1000D03*
Y7000D03*
Y15000D03*
X396260Y71000D03*
Y79000D03*
Y87000D03*
X422760Y41500D03*
X423260Y50000D03*
X403740Y71000D03*
Y79000D03*
Y87000D03*
X416260Y115000D03*
X423740D03*
X415260Y160000D03*
X422740D03*
X415260Y152000D03*
X422740D03*
X415260Y168000D03*
X422740D03*
X415260Y176000D03*
X422740D03*
X423260Y206000D03*
Y198000D03*
X406260Y345000D03*
X413740D03*
X438760Y41500D03*
X430240D03*
X430740Y50000D03*
X431360Y139100D03*
X438840D03*
X431260Y160000D03*
X438740D03*
X431260Y152000D03*
X438740D03*
X431260Y168000D03*
X438740D03*
X431260Y176000D03*
X438740D03*
X430740Y206000D03*
Y198000D03*
X441260Y225000D03*
Y215000D03*
X426260Y300000D03*
X433740D03*
X426260Y360000D03*
X433740D03*
X446240Y41500D03*
X454840Y139100D03*
X447360D03*
X464260Y209000D03*
Y201000D03*
X448740Y225000D03*
X461260D03*
X448740Y215000D03*
X456260Y345000D03*
X463740D03*
X474740Y43000D03*
X467260D03*
X484840Y32200D03*
X477360D03*
X484260Y41000D03*
X474740Y59000D03*
X467260D03*
X474740Y67000D03*
X467260D03*
Y51000D03*
X474740D03*
X467260Y75000D03*
X474740D03*
X471740Y209000D03*
Y201000D03*
X468740Y225000D03*
X476260Y300000D03*
X483740D03*
X476260Y360000D03*
X483740D03*
X491740Y41000D03*
X496260Y236000D03*
X503740D03*
X496260Y244000D03*
X503740D03*
X504260Y252000D03*
X488260D03*
X495740D03*
X496260Y260000D03*
X503740D03*
X496260Y268000D03*
X503740D03*
X506260Y345000D03*
X517260Y-9000D03*
X524740D03*
X517260Y-1000D03*
X524740D03*
X512260Y61000D03*
X519740D03*
X512260Y69000D03*
X519740D03*
X524260Y244000D03*
Y236000D03*
X511740Y252000D03*
X526260Y300000D03*
Y360000D03*
X513740Y345000D03*
X530260Y124000D03*
X537740D03*
X530260Y116000D03*
X537740D03*
X548740Y250000D03*
X541260D03*
X548740Y242000D03*
X541260D03*
X531740Y244000D03*
Y236000D03*
X548740Y266000D03*
X541260D03*
X548740Y258000D03*
X541260D03*
X533740Y300000D03*
Y360000D03*
X564260Y-1000D03*
Y-9000D03*
X567740Y61000D03*
X560260D03*
X567740Y69000D03*
X560260D03*
X565260Y124000D03*
Y116000D03*
X556260Y345000D03*
X563740D03*
X571740Y-1000D03*
Y-9000D03*
X581260Y-1000D03*
X588740D03*
X581260Y-9000D03*
X588740D03*
X578260Y61000D03*
X585740D03*
X578260Y69000D03*
X585740D03*
X572740Y124000D03*
Y116000D03*
X576260Y300000D03*
X583740D03*
X576260Y360000D03*
X583740D03*
X609740Y237000D03*
X602260D03*
Y265000D03*
X609740D03*
X606260Y345000D03*
X629260Y0D03*
Y-8000D03*
X631740Y61000D03*
X624260D03*
X631740Y69000D03*
X624260D03*
X630260Y123000D03*
Y113000D03*
X628260Y166000D03*
Y158000D03*
Y174000D03*
X622160Y191100D03*
X629640D03*
X622160Y183100D03*
X629640D03*
X626260Y300000D03*
X633740D03*
X626260Y360000D03*
X633740D03*
X613740Y345000D03*
X636740Y0D03*
Y-8000D03*
X646260Y0D03*
X653740D03*
X646260Y-8000D03*
X653740D03*
X642260Y61000D03*
X649740D03*
X642260Y69000D03*
X649740D03*
X637740Y123000D03*
Y113000D03*
X653260Y150000D03*
Y142000D03*
X635740Y166000D03*
Y158000D03*
Y174000D03*
X643860Y183400D03*
X651340D03*
X643860Y191400D03*
X651340D03*
X636260Y222000D03*
X643740D03*
X636260Y230000D03*
X643740D03*
X636260Y238000D03*
X643740D03*
X636260Y246000D03*
X643740D03*
X636260Y254000D03*
X643740D03*
X636260Y262000D03*
X643740D03*
X636260Y270000D03*
X643740D03*
X660740Y150000D03*
Y142000D03*
X694260Y0D03*
Y-8000D03*
X690260Y61000D03*
Y69000D03*
X692740Y168000D03*
X685260D03*
X692740Y160000D03*
X685260D03*
X692740Y152000D03*
X685260D03*
X681260Y335000D03*
X688740D03*
X681260Y345000D03*
X688740D03*
X681260Y355000D03*
X688740D03*
X701740Y0D03*
Y-8000D03*
X712260Y0D03*
Y-8000D03*
X697740Y61000D03*
X708260D03*
X715740D03*
X697740Y69000D03*
X708260D03*
X715740D03*
X718260Y256000D03*
Y248000D03*
Y264000D03*
Y272000D03*
X716260Y380000D03*
X719740Y0D03*
Y-8000D03*
X737260Y103000D03*
X731740Y130000D03*
X724260D03*
X731740Y122000D03*
X724260D03*
X731740Y114000D03*
X724260D03*
X725740Y256000D03*
Y248000D03*
Y264000D03*
Y272000D03*
X723740Y380000D03*
X759260Y0D03*
Y-8000D03*
X755260Y61000D03*
Y69000D03*
X744740Y103000D03*
X741260Y335000D03*
X748740D03*
X741260Y355000D03*
X748740D03*
X741260Y345000D03*
X748740D03*
X766740Y0D03*
Y-8000D03*
X762740Y61000D03*
Y69000D03*
X780260Y108000D03*
Y116000D03*
Y124000D03*
Y133000D03*
X770160Y247300D03*
X777640D03*
X770160Y255300D03*
X777640D03*
X776260Y380000D03*
X801260Y-15000D03*
Y-5000D03*
X787740Y108000D03*
Y116000D03*
Y124000D03*
Y133000D03*
X801260Y335000D03*
Y355000D03*
Y345000D03*
X783740Y380000D03*
X808740Y-15000D03*
Y-5000D03*
Y335000D03*
Y355000D03*
Y345000D03*
X838740Y55000D03*
X831260D03*
X838740Y90000D03*
X831260D03*
X836260Y380000D03*
X843740D03*
X858740Y-15000D03*
X851260D03*
Y-5000D03*
X858740D03*
X850260Y40000D03*
X857740D03*
X850260Y32000D03*
X857740D03*
X856740Y195000D03*
X849260D03*
X856740Y212000D03*
X849260D03*
X861260Y335000D03*
Y355000D03*
Y345000D03*
X876540Y211700D03*
X869060D03*
X876440Y219700D03*
X868960D03*
X868740Y335000D03*
Y355000D03*
Y345000D03*
X906260Y-15000D03*
Y-5000D03*
X899840Y133300D03*
X892360D03*
X899840Y141300D03*
X892360D03*
X899840Y149300D03*
X892360D03*
X899840Y157300D03*
X892360D03*
X899840Y165300D03*
X892360D03*
X899840Y181300D03*
X892360D03*
X899840Y189300D03*
X892360D03*
X899840Y173300D03*
X892360D03*
X896260Y380000D03*
X903740D03*
X913740Y-15000D03*
Y-5000D03*
X917840Y133300D03*
X910360D03*
X917840Y141300D03*
X910360D03*
X917840Y149300D03*
X910360D03*
X917840Y157300D03*
X910360D03*
X917840Y165300D03*
X910360D03*
X917840Y173300D03*
X910360D03*
X917840Y181300D03*
X910360D03*
X917840Y189300D03*
X910360D03*
X921260Y335000D03*
Y345000D03*
Y355000D03*
X928740Y335000D03*
Y345000D03*
Y355000D03*
X963740Y-15000D03*
X956260D03*
X963740Y-5000D03*
X956260D03*
X964260Y8000D03*
Y16000D03*
X956260Y380000D03*
X963740D03*
X971740Y8000D03*
Y16000D03*
X990740D03*
X983260D03*
G54D46*
X504894Y134598D03*
X502925D03*
X500957D03*
X498988D03*
X497020D03*
X495051D03*
Y221802D03*
X497020D03*
X498988D03*
X500957D03*
X502925D03*
X504894D03*
X526547Y134598D03*
X524579D03*
X522610D03*
X520642D03*
X518673D03*
X516705D03*
X514736D03*
X512768D03*
X510799D03*
X508831D03*
X506862D03*
Y221802D03*
X508831D03*
X510799D03*
X512768D03*
X514736D03*
X516705D03*
X518673D03*
X520642D03*
X522610D03*
X524579D03*
X526547D03*
X548201Y134598D03*
X546232D03*
X544264D03*
X542295D03*
X540327D03*
X538358D03*
X536390D03*
X534421D03*
X532453D03*
X530484D03*
X528516D03*
Y221802D03*
X530484D03*
X532453D03*
X534421D03*
X536390D03*
X538358D03*
X540327D03*
X542295D03*
X544264D03*
X546232D03*
X548201D03*
X563949Y134598D03*
X561980D03*
X560012D03*
X558043D03*
X556075D03*
X554106D03*
X552138D03*
X550169D03*
Y221802D03*
X552138D03*
X554106D03*
X556075D03*
X558043D03*
X560012D03*
X561980D03*
X563949D03*
G54D37*
X444800Y63110D03*
Y65070D03*
X425200D03*
Y63110D03*
X444800Y67040D03*
Y69010D03*
Y70990D03*
Y72960D03*
Y74930D03*
Y76890D03*
X425200D03*
Y74930D03*
Y72960D03*
Y70990D03*
Y69010D03*
Y67040D03*
G54D47*
X527500Y12173D03*
X522500D03*
X517500D03*
Y47827D03*
X522500D03*
X527500D03*
X547500Y12173D03*
X542500D03*
X537500D03*
X532500D03*
Y47827D03*
X537500D03*
X542500D03*
X547500D03*
X562500Y12173D03*
X557500D03*
X552500D03*
Y47827D03*
X557500D03*
X562500D03*
X587500Y12173D03*
X582500D03*
Y47827D03*
X587500D03*
X607500Y12173D03*
X602500D03*
X597500D03*
X592500D03*
Y47827D03*
X597500D03*
X602500D03*
X607500D03*
X627500Y12173D03*
X622500D03*
X617500D03*
X612500D03*
Y47827D03*
X617500D03*
X622500D03*
X627500D03*
X652500Y12173D03*
X647500D03*
Y47827D03*
X652500D03*
X672500Y12173D03*
X667500D03*
X662500D03*
X657500D03*
Y47827D03*
X662500D03*
X667500D03*
X672500D03*
X692500Y12173D03*
X687500D03*
X682500D03*
X677500D03*
Y47827D03*
X682500D03*
X687500D03*
X692500D03*
X712500Y12173D03*
Y47827D03*
X737500Y12173D03*
X732500D03*
X727500D03*
X722500D03*
X717500D03*
Y47827D03*
X722500D03*
X727500D03*
X732500D03*
X737500D03*
X757500Y12173D03*
X752500D03*
X747500D03*
X742500D03*
Y47827D03*
X747500D03*
X752500D03*
X757500D03*
G54D38*
X428110Y60200D03*
X430070D03*
X432040D03*
X434010D03*
X435990D03*
X437960D03*
X439930D03*
X441890D03*
Y79800D03*
X439930D03*
X437960D03*
X435990D03*
X434010D03*
X432040D03*
X430070D03*
X428110D03*
G54D29*
X405000Y124390D03*
Y135610D03*
G54D48*
X561065Y242000D03*
Y247000D03*
Y252000D03*
Y257000D03*
X589135Y252000D03*
Y247000D03*
Y242000D03*
Y257000D03*
G54D39*
X435000Y70000D03*
G54D49*
X653889Y158500D03*
Y163500D03*
Y168500D03*
Y173500D03*
X672511Y168500D03*
Y163500D03*
Y158500D03*
Y173500D03*
X745689Y112400D03*
Y117400D03*
Y122400D03*
Y127400D03*
X764311D03*
Y122400D03*
Y117400D03*
Y112400D03*
M02*
